%TF.GenerationSoftware,KiCad,Pcbnew,7.0.9*%
%TF.CreationDate,2024-10-16T13:59:32-06:00*%
%TF.ProjectId,uart_mux_v3,75617274-5f6d-4757-985f-76332e6b6963,rev?*%
%TF.SameCoordinates,Original*%
%TF.FileFunction,Copper,L2,Bot*%
%TF.FilePolarity,Positive*%
%FSLAX46Y46*%
G04 Gerber Fmt 4.6, Leading zero omitted, Abs format (unit mm)*
G04 Created by KiCad (PCBNEW 7.0.9) date 2024-10-16 13:59:32*
%MOMM*%
%LPD*%
G01*
G04 APERTURE LIST*
G04 Aperture macros list*
%AMRoundRect*
0 Rectangle with rounded corners*
0 $1 Rounding radius*
0 $2 $3 $4 $5 $6 $7 $8 $9 X,Y pos of 4 corners*
0 Add a 4 corners polygon primitive as box body*
4,1,4,$2,$3,$4,$5,$6,$7,$8,$9,$2,$3,0*
0 Add four circle primitives for the rounded corners*
1,1,$1+$1,$2,$3*
1,1,$1+$1,$4,$5*
1,1,$1+$1,$6,$7*
1,1,$1+$1,$8,$9*
0 Add four rect primitives between the rounded corners*
20,1,$1+$1,$2,$3,$4,$5,0*
20,1,$1+$1,$4,$5,$6,$7,0*
20,1,$1+$1,$6,$7,$8,$9,0*
20,1,$1+$1,$8,$9,$2,$3,0*%
G04 Aperture macros list end*
%TA.AperFunction,ComponentPad*%
%ADD10C,5.600000*%
%TD*%
%TA.AperFunction,ComponentPad*%
%ADD11RoundRect,0.250000X-0.625000X0.350000X-0.625000X-0.350000X0.625000X-0.350000X0.625000X0.350000X0*%
%TD*%
%TA.AperFunction,ComponentPad*%
%ADD12O,1.750000X1.200000*%
%TD*%
%TA.AperFunction,ComponentPad*%
%ADD13R,1.600000X1.600000*%
%TD*%
%TA.AperFunction,ComponentPad*%
%ADD14C,1.600000*%
%TD*%
%TA.AperFunction,ComponentPad*%
%ADD15R,1.750000X2.250000*%
%TD*%
%TA.AperFunction,ComponentPad*%
%ADD16O,1.750000X2.250000*%
%TD*%
%TA.AperFunction,ComponentPad*%
%ADD17O,1.500000X5.000000*%
%TD*%
%TA.AperFunction,ComponentPad*%
%ADD18O,2.000000X1.100000*%
%TD*%
%TA.AperFunction,ViaPad*%
%ADD19C,0.800000*%
%TD*%
%TA.AperFunction,Conductor*%
%ADD20C,0.250000*%
%TD*%
%TA.AperFunction,Conductor*%
%ADD21C,1.000000*%
%TD*%
G04 APERTURE END LIST*
D10*
%TO.P,H1,1*%
%TO.N,N/C*%
X92000000Y-64000000D03*
%TD*%
%TO.P,H2,1*%
%TO.N,N/C*%
X92000000Y-105000000D03*
%TD*%
D11*
%TO.P,J12,1,+*%
%TO.N,/uart_power/power_in*%
X94350000Y-111400000D03*
D12*
%TO.P,J12,2,-*%
%TO.N,/uart_power/gnd_in*%
X94350000Y-113400000D03*
%TD*%
D13*
%TO.P,PS2,1,+Vin*%
%TO.N,Net-(PS2-+Vin)*%
X108780000Y-97475000D03*
D14*
%TO.P,PS2,2,-Vin*%
%TO.N,/uart_power/gnd_in*%
X111320000Y-97475000D03*
%TO.P,PS2,4,0V*%
%TO.N,GND*%
X116400000Y-97475000D03*
%TO.P,PS2,6,+Vout*%
%TO.N,Net-(J8-In)*%
X121480000Y-97475000D03*
%TD*%
D10*
%TO.P,H4,1*%
%TO.N,N/C*%
X156000000Y-64000000D03*
%TD*%
D15*
%TO.P,PS1,1,-Vin*%
%TO.N,GNDPWR*%
X109380000Y-66000000D03*
D16*
%TO.P,PS1,2,+Vin*%
%TO.N,Net-(PS1-+Vin)*%
X111920000Y-66000000D03*
%TO.P,PS1,3,0V*%
%TO.N,GND*%
X114460000Y-66000000D03*
%TO.P,PS1,4,+Vout*%
%TO.N,Net-(PS1-+Vout)*%
X117000000Y-66000000D03*
%TD*%
D17*
%TO.P,U4,1,P26*%
%TO.N,unconnected-(U4-P26-Pad1)*%
X89660000Y-88270000D03*
%TO.P,U4,2,P27*%
%TO.N,unconnected-(U4-P27-Pad2)*%
X92200000Y-88270000D03*
%TO.P,U4,3,P28*%
%TO.N,unconnected-(U4-P28-Pad3)*%
X94740000Y-88270000D03*
%TO.P,U4,4,P29*%
%TO.N,unconnected-(U4-P29-Pad4)*%
X97280000Y-88270000D03*
%TO.P,U4,5,P6*%
%TO.N,/sda_mc*%
X99820000Y-88270000D03*
%TO.P,U4,6,P7*%
%TO.N,/scl_mc*%
X102360000Y-88270000D03*
%TO.P,U4,7,P0*%
%TO.N,/tx_mc*%
X104900000Y-88270000D03*
%TO.P,U4,8,P1*%
%TO.N,/rx_mc*%
X104900000Y-70490000D03*
%TO.P,U4,9,P2*%
%TO.N,/A_mc*%
X102360000Y-70490000D03*
%TO.P,U4,10,P4*%
%TO.N,unconnected-(U4-P4-Pad10)*%
X99820000Y-70490000D03*
%TO.P,U4,11,P3*%
%TO.N,/B_mc*%
X97280000Y-70490000D03*
%TO.P,U4,12,3V3*%
%TO.N,VD*%
X94740000Y-70490000D03*
%TO.P,U4,13,GND*%
%TO.N,GNDPWR*%
X92200000Y-70490000D03*
%TO.P,U4,14,5V*%
%TO.N,unconnected-(U4-5V-Pad14)*%
X89660000Y-70490000D03*
%TD*%
D18*
%TO.P,J1,0,SHIELD*%
%TO.N,unconnected-(J1-SHIELD-Pad0)*%
X95002000Y-92180000D03*
X91202000Y-92180000D03*
X95002000Y-100820000D03*
X91202000Y-100820000D03*
%TD*%
D13*
%TO.P,PS3,1,+Vin*%
%TO.N,Net-(PS3-+Vin)*%
X108880000Y-111675000D03*
D14*
%TO.P,PS3,2,-Vin*%
%TO.N,/uart_power/gnd_in*%
X111420000Y-111675000D03*
%TO.P,PS3,4,0V*%
%TO.N,GND*%
X116500000Y-111675000D03*
%TO.P,PS3,6,+Vout*%
%TO.N,Net-(J9-In)*%
X121580000Y-111675000D03*
%TD*%
D10*
%TO.P,H3,1*%
%TO.N,N/C*%
X156000000Y-105000000D03*
%TD*%
D19*
%TO.N,GND*%
X114974500Y-86600000D03*
X114999500Y-78900000D03*
X133725000Y-83925000D03*
X119875000Y-81337500D03*
X117875000Y-80337500D03*
%TO.N,/uart_power/power_in*%
X98200000Y-99300000D03*
X99100000Y-102900000D03*
%TO.N,/uart_power/gnd_in*%
X97100000Y-98500000D03*
X96900000Y-93700000D03*
%TO.N,VD*%
X111850000Y-81637500D03*
X107400000Y-88500000D03*
X111000000Y-72300000D03*
X111400000Y-79200000D03*
%TO.N,GNDPWR*%
X109000000Y-81737500D03*
X107400000Y-87000000D03*
X108775000Y-74037500D03*
X108100000Y-93100000D03*
%TO.N,/A_mc*%
X102300000Y-76600000D03*
%TO.N,/rx_mc*%
X109100000Y-91700000D03*
%TO.N,/X0*%
X156700000Y-71850000D03*
X137300000Y-73600000D03*
%TO.N,/X1*%
X134950000Y-73600000D03*
X156700000Y-79750000D03*
%TO.N,/Y1*%
X124302823Y-74994464D03*
X156700000Y-78750000D03*
%TO.N,/X2*%
X156921956Y-87898647D03*
X132450000Y-73600000D03*
%TO.N,/Y2*%
X128300000Y-76600000D03*
X156954967Y-86899690D03*
%TO.N,/X3*%
X123124500Y-73400000D03*
X156850000Y-95500000D03*
X129950000Y-73600000D03*
X118473730Y-75650868D03*
%TO.N,/Y3*%
X156862548Y-94487949D03*
X126916279Y-76698670D03*
%TO.N,/Y0*%
X156700000Y-70850000D03*
X127600000Y-78400000D03*
%TO.N,/ena3*%
X127400000Y-89200000D03*
X147550000Y-98900000D03*
%TO.N,/ena2*%
X148274500Y-90650000D03*
X128975000Y-89375000D03*
%TO.N,/ena1*%
X140425000Y-88550000D03*
X129825000Y-88825000D03*
%TO.N,/ena0*%
X143925000Y-80075000D03*
X147850000Y-76250000D03*
%TO.N,VCC*%
X116300000Y-81637500D03*
X118400000Y-90100000D03*
X118400000Y-83348000D03*
X116075000Y-70637500D03*
X114300000Y-80100000D03*
X128700000Y-83200000D03*
%TO.N,/Sheet626DA5AD/tx*%
X118500000Y-77836396D03*
X124300000Y-77100000D03*
%TD*%
D20*
%TO.N,GND*%
X117225451Y-79687951D02*
X117225451Y-77449951D01*
X117875000Y-80337500D02*
X117225451Y-79687951D01*
D21*
%TO.N,/uart_power/power_in*%
X98200000Y-102000000D02*
X99100000Y-102900000D01*
X98200000Y-99300000D02*
X98200000Y-102000000D01*
%TO.N,/uart_power/gnd_in*%
X97100000Y-98500000D02*
X97100000Y-93900000D01*
X97100000Y-93900000D02*
X96900000Y-93700000D01*
D20*
%TO.N,VD*%
X108700000Y-83500000D02*
X109200000Y-83000000D01*
X110100000Y-79200000D02*
X110100000Y-79887500D01*
X110487500Y-83000000D02*
X111850000Y-81637500D01*
X107400000Y-88500000D02*
X108700000Y-87200000D01*
X109200000Y-83000000D02*
X110487500Y-83000000D01*
X110100000Y-73200000D02*
X110100000Y-79200000D01*
X111000000Y-72300000D02*
X110100000Y-73200000D01*
X110100000Y-79200000D02*
X111400000Y-79200000D01*
X108700000Y-87200000D02*
X108700000Y-83500000D01*
X110100000Y-79887500D02*
X111850000Y-81637500D01*
%TO.N,GNDPWR*%
X108775000Y-74037500D02*
X109174999Y-74437499D01*
X109174999Y-74437499D02*
X109174999Y-81562501D01*
X109174999Y-81562501D02*
X109000000Y-81737500D01*
%TO.N,/A_mc*%
X102360000Y-76540000D02*
X102300000Y-76600000D01*
X102360000Y-71760000D02*
X102360000Y-76540000D01*
%TO.N,/rx_mc*%
X104900000Y-83100000D02*
X106300000Y-84500000D01*
X108900000Y-91500000D02*
X109100000Y-91700000D01*
X104900000Y-83100000D02*
X104900000Y-71760000D01*
X106300000Y-84500000D02*
X106300000Y-91500000D01*
X106300000Y-91500000D02*
X108900000Y-91500000D01*
%TO.N,/X0*%
X156700000Y-71850000D02*
X139050000Y-71850000D01*
X139050000Y-71850000D02*
X137300000Y-73600000D01*
%TO.N,/X1*%
X153700000Y-85950000D02*
X156700000Y-82950000D01*
X134950000Y-73600000D02*
X147300000Y-85950000D01*
X156700000Y-82950000D02*
X156700000Y-79750000D01*
X147300000Y-85950000D02*
X153700000Y-85950000D01*
X156600000Y-79850000D02*
X156700000Y-79750000D01*
%TO.N,/Y1*%
X156225000Y-78750000D02*
X155675000Y-79300000D01*
X125132744Y-74994464D02*
X124302823Y-74994464D01*
X134475000Y-71975000D02*
X128152208Y-71975000D01*
X156700000Y-78750000D02*
X156225000Y-78750000D01*
X147300000Y-84800000D02*
X134475000Y-71975000D01*
X153650000Y-84800000D02*
X147300000Y-84800000D01*
X128152208Y-71975000D02*
X125132744Y-74994464D01*
X155675000Y-82775000D02*
X153650000Y-84800000D01*
X155675000Y-79300000D02*
X155675000Y-82775000D01*
%TO.N,/X2*%
X156921956Y-87898647D02*
X146748647Y-87898647D01*
X146748647Y-87898647D02*
X132450000Y-73600000D01*
%TO.N,/Y2*%
X146999690Y-86899690D02*
X133700000Y-73600000D01*
X132525000Y-72425000D02*
X133700000Y-73600000D01*
X125600000Y-75163604D02*
X128338604Y-72425000D01*
X128300000Y-76600000D02*
X127476330Y-77423670D01*
X125600000Y-76500000D02*
X125600000Y-75163604D01*
X126523670Y-77423670D02*
X125600000Y-76500000D01*
X128338604Y-72425000D02*
X132525000Y-72425000D01*
X127476330Y-77423670D02*
X126523670Y-77423670D01*
X156954967Y-86899690D02*
X146999690Y-86899690D01*
%TO.N,/X3*%
X120873632Y-75650868D02*
X123124500Y-73400000D01*
X150849294Y-89500000D02*
X145850000Y-89500000D01*
X156850000Y-95500000D02*
X156849294Y-95500000D01*
X145850000Y-89500000D02*
X129950000Y-73600000D01*
X156849294Y-95500000D02*
X150849294Y-89500000D01*
X118473730Y-75650868D02*
X120873632Y-75650868D01*
%TO.N,/Y3*%
X131175000Y-73575000D02*
X131200000Y-73600000D01*
X151074599Y-88700000D02*
X146300000Y-88700000D01*
X126848865Y-76698670D02*
X126100000Y-75949805D01*
X156862548Y-94487949D02*
X151074599Y-88700000D01*
X126100000Y-75949805D02*
X126100000Y-75300000D01*
X126100000Y-75300000D02*
X128525000Y-72875000D01*
X126916279Y-76698670D02*
X126848865Y-76698670D01*
X130475000Y-72875000D02*
X131175000Y-73575000D01*
X128525000Y-72875000D02*
X130475000Y-72875000D01*
X146300000Y-88700000D02*
X131175000Y-73575000D01*
%TO.N,/Y0*%
X136425000Y-71525000D02*
X137100000Y-70850000D01*
X127600000Y-78400000D02*
X126863604Y-78400000D01*
X137100000Y-70850000D02*
X156700000Y-70850000D01*
X123577823Y-75294769D02*
X123577823Y-74694159D01*
X123577823Y-74694159D02*
X126746982Y-71525000D01*
X126746982Y-71525000D02*
X136425000Y-71525000D01*
X124183068Y-75719464D02*
X124002518Y-75719464D01*
X124002518Y-75719464D02*
X123577823Y-75294769D01*
X126863604Y-78400000D02*
X124183068Y-75719464D01*
%TO.N,/ena3*%
X137375000Y-98900000D02*
X147550000Y-98900000D01*
X127675000Y-89200000D02*
X137375000Y-98900000D01*
X127400000Y-89200000D02*
X127675000Y-89200000D01*
%TO.N,/ena2*%
X128975000Y-89375000D02*
X130250000Y-90650000D01*
X130250000Y-90650000D02*
X148274500Y-90650000D01*
%TO.N,/ena1*%
X129825000Y-88825000D02*
X140150000Y-88825000D01*
X140150000Y-88825000D02*
X140425000Y-88550000D01*
%TO.N,/ena0*%
X147850000Y-76250000D02*
X144025000Y-80075000D01*
X144025000Y-80075000D02*
X143925000Y-80075000D01*
%TO.N,VCC*%
X116075000Y-70637500D02*
X116075000Y-81412500D01*
X115837500Y-81637500D02*
X116300000Y-81637500D01*
X118548000Y-83200000D02*
X118400000Y-83348000D01*
X128700000Y-83200000D02*
X118548000Y-83200000D01*
X116075000Y-81412500D02*
X116300000Y-81637500D01*
X114300000Y-80100000D02*
X115837500Y-81637500D01*
X118400000Y-83348000D02*
X118400000Y-90100000D01*
%TO.N,unconnected-(J1-SHIELD-Pad0)*%
X95002000Y-92180000D02*
X91202000Y-92180000D01*
X91202000Y-100820000D02*
X91202000Y-92180000D01*
X95002000Y-100820000D02*
X91202000Y-100820000D01*
%TO.N,/Sheet626DA5AD/tx*%
X119236396Y-77100000D02*
X118500000Y-77836396D01*
X124300000Y-77100000D02*
X119236396Y-77100000D01*
%TD*%
%TA.AperFunction,Conductor*%
%TO.N,GNDPWR*%
G36*
X112943039Y-60045185D02*
G01*
X112988794Y-60097989D01*
X113000000Y-60149500D01*
X113000000Y-64582047D01*
X112980315Y-64649086D01*
X112927511Y-64694841D01*
X112858353Y-64704785D01*
X112802265Y-64681742D01*
X112648006Y-64567652D01*
X112533995Y-64510169D01*
X112437712Y-64461624D01*
X112212529Y-64392663D01*
X112212527Y-64392662D01*
X112212525Y-64392662D01*
X111978924Y-64362748D01*
X111743639Y-64372743D01*
X111743638Y-64372743D01*
X111513412Y-64422361D01*
X111294894Y-64510169D01*
X111094352Y-64633647D01*
X110931601Y-64776885D01*
X110868271Y-64806399D01*
X110799038Y-64796989D01*
X110745883Y-64751643D01*
X110733496Y-64727134D01*
X110698354Y-64632913D01*
X110698350Y-64632906D01*
X110612190Y-64517812D01*
X110612187Y-64517809D01*
X110497093Y-64431649D01*
X110497086Y-64431645D01*
X110362379Y-64381403D01*
X110362372Y-64381401D01*
X110302844Y-64375000D01*
X109630000Y-64375000D01*
X109630000Y-65522946D01*
X109596154Y-65502364D01*
X109453878Y-65462500D01*
X109343236Y-65462500D01*
X109233621Y-65477566D01*
X109130000Y-65522574D01*
X109130000Y-64375000D01*
X108457155Y-64375000D01*
X108397627Y-64381401D01*
X108397620Y-64381403D01*
X108262913Y-64431645D01*
X108262906Y-64431649D01*
X108147812Y-64517809D01*
X108147809Y-64517812D01*
X108061649Y-64632906D01*
X108061645Y-64632913D01*
X108011403Y-64767620D01*
X108011401Y-64767627D01*
X108005000Y-64827155D01*
X108005000Y-65750000D01*
X108898550Y-65750000D01*
X108898275Y-65750390D01*
X108848795Y-65889614D01*
X108838712Y-66037025D01*
X108868774Y-66181690D01*
X108904169Y-66250000D01*
X108005000Y-66250000D01*
X108005000Y-67172844D01*
X108011401Y-67232372D01*
X108011403Y-67232379D01*
X108061645Y-67367086D01*
X108061649Y-67367093D01*
X108147809Y-67482187D01*
X108147812Y-67482190D01*
X108262906Y-67568350D01*
X108262913Y-67568354D01*
X108397620Y-67618596D01*
X108397627Y-67618598D01*
X108457155Y-67624999D01*
X108457172Y-67625000D01*
X109130000Y-67625000D01*
X109130000Y-66477053D01*
X109163846Y-66497636D01*
X109306122Y-66537500D01*
X109416764Y-66537500D01*
X109526379Y-66522434D01*
X109630000Y-66477425D01*
X109630000Y-67625000D01*
X110302828Y-67625000D01*
X110302844Y-67624999D01*
X110362372Y-67618598D01*
X110362379Y-67618596D01*
X110497086Y-67568354D01*
X110497093Y-67568350D01*
X110612187Y-67482190D01*
X110612190Y-67482187D01*
X110698350Y-67367093D01*
X110698355Y-67367084D01*
X110734648Y-67269777D01*
X110776518Y-67213843D01*
X110841983Y-67189425D01*
X110910256Y-67204276D01*
X110940352Y-67227308D01*
X111002652Y-67292310D01*
X111002653Y-67292311D01*
X111191993Y-67432347D01*
X111191995Y-67432348D01*
X111191998Y-67432350D01*
X111402288Y-67538376D01*
X111627471Y-67607337D01*
X111861070Y-67637251D01*
X112096364Y-67627256D01*
X112326585Y-67577639D01*
X112545109Y-67489829D01*
X112745649Y-67366352D01*
X112794078Y-67323729D01*
X112857406Y-67294215D01*
X112926639Y-67303624D01*
X112979795Y-67348970D01*
X112999996Y-67415856D01*
X113000000Y-67416813D01*
X113000000Y-81521549D01*
X112980315Y-81588588D01*
X112927511Y-81634343D01*
X112912037Y-81636567D01*
X112966554Y-81668738D01*
X112997977Y-81731143D01*
X113000000Y-81753450D01*
X113000000Y-91400000D01*
X109957777Y-91400000D01*
X109934527Y-91328444D01*
X109839040Y-91163056D01*
X109711253Y-91021134D01*
X109556752Y-90908882D01*
X109382288Y-90831206D01*
X109382286Y-90831205D01*
X109195487Y-90791500D01*
X109004513Y-90791500D01*
X108817714Y-90831205D01*
X108817712Y-90831206D01*
X108772439Y-90851363D01*
X108762518Y-90855780D01*
X108712083Y-90866500D01*
X107057500Y-90866500D01*
X106990461Y-90846815D01*
X106944706Y-90794011D01*
X106933500Y-90742500D01*
X106933500Y-89477720D01*
X106953185Y-89410681D01*
X107005989Y-89364926D01*
X107075147Y-89354982D01*
X107107933Y-89364440D01*
X107117712Y-89368794D01*
X107304513Y-89408500D01*
X107495487Y-89408500D01*
X107682288Y-89368794D01*
X107856752Y-89291118D01*
X108011253Y-89178866D01*
X108139040Y-89036944D01*
X108234527Y-88871556D01*
X108293542Y-88689928D01*
X108310981Y-88523997D01*
X108337564Y-88459387D01*
X108346611Y-88449291D01*
X109088815Y-87707087D01*
X109101180Y-87697183D01*
X109101006Y-87696973D01*
X109107012Y-87692003D01*
X109107018Y-87692000D01*
X109154999Y-87640904D01*
X109176135Y-87619769D01*
X109180458Y-87614195D01*
X109184257Y-87609747D01*
X109216585Y-87575322D01*
X109226420Y-87557432D01*
X109237098Y-87541174D01*
X109249614Y-87525040D01*
X109268374Y-87481686D01*
X109270935Y-87476458D01*
X109293695Y-87435060D01*
X109298774Y-87415274D01*
X109305072Y-87396882D01*
X109313181Y-87378145D01*
X109320569Y-87331497D01*
X109321751Y-87325786D01*
X109333500Y-87280030D01*
X109333500Y-87259615D01*
X109335027Y-87240214D01*
X109338220Y-87220057D01*
X109333775Y-87173033D01*
X109333500Y-87167195D01*
X109333500Y-83813767D01*
X109353185Y-83746728D01*
X109369820Y-83726085D01*
X109426088Y-83669818D01*
X109487411Y-83636334D01*
X109513768Y-83633500D01*
X110403866Y-83633500D01*
X110419613Y-83635238D01*
X110419639Y-83634968D01*
X110427405Y-83635701D01*
X110427409Y-83635702D01*
X110497458Y-83633500D01*
X110527356Y-83633500D01*
X110527357Y-83633500D01*
X110528722Y-83633327D01*
X110534362Y-83632614D01*
X110540185Y-83632156D01*
X110566208Y-83631338D01*
X110587390Y-83630673D01*
X110597181Y-83627827D01*
X110606981Y-83624980D01*
X110626038Y-83621032D01*
X110646297Y-83618474D01*
X110690221Y-83601082D01*
X110695721Y-83599199D01*
X110741093Y-83586018D01*
X110758665Y-83575625D01*
X110776132Y-83567068D01*
X110795117Y-83559552D01*
X110833326Y-83531790D01*
X110838204Y-83528585D01*
X110878862Y-83504542D01*
X110893302Y-83490100D01*
X110908092Y-83477470D01*
X110924607Y-83465472D01*
X110954722Y-83429067D01*
X110958626Y-83424776D01*
X111801086Y-82582319D01*
X111862409Y-82548834D01*
X111888767Y-82546000D01*
X111945487Y-82546000D01*
X112132288Y-82506294D01*
X112306752Y-82428618D01*
X112461253Y-82316366D01*
X112589040Y-82174444D01*
X112684527Y-82009056D01*
X112743542Y-81827428D01*
X112752679Y-81740485D01*
X112779264Y-81675874D01*
X112836561Y-81635889D01*
X112839701Y-81635769D01*
X112794797Y-81615262D01*
X112757023Y-81556484D01*
X112752680Y-81534516D01*
X112743542Y-81447572D01*
X112684527Y-81265944D01*
X112589040Y-81100556D01*
X112461253Y-80958634D01*
X112306752Y-80846382D01*
X112132288Y-80768706D01*
X112132286Y-80768705D01*
X111945487Y-80729000D01*
X111888766Y-80729000D01*
X111821727Y-80709315D01*
X111801085Y-80692681D01*
X111427227Y-80318822D01*
X111393742Y-80257499D01*
X111398726Y-80187807D01*
X111440598Y-80131874D01*
X111489903Y-80113483D01*
X111489131Y-80109851D01*
X111495487Y-80108500D01*
X111682288Y-80068794D01*
X111856752Y-79991118D01*
X112011253Y-79878866D01*
X112139040Y-79736944D01*
X112234527Y-79571556D01*
X112293542Y-79389928D01*
X112313504Y-79200000D01*
X112293542Y-79010072D01*
X112234527Y-78828444D01*
X112139040Y-78663056D01*
X112011253Y-78521134D01*
X111856752Y-78408882D01*
X111682288Y-78331206D01*
X111682286Y-78331205D01*
X111495487Y-78291500D01*
X111304513Y-78291500D01*
X111117714Y-78331205D01*
X110943246Y-78408883D01*
X110930386Y-78418227D01*
X110864579Y-78441707D01*
X110796525Y-78425882D01*
X110747830Y-78375776D01*
X110733500Y-78317909D01*
X110733500Y-73513766D01*
X110753185Y-73446727D01*
X110769819Y-73426085D01*
X110951085Y-73244819D01*
X111012408Y-73211334D01*
X111038766Y-73208500D01*
X111095487Y-73208500D01*
X111282288Y-73168794D01*
X111456752Y-73091118D01*
X111611253Y-72978866D01*
X111739040Y-72836944D01*
X111834527Y-72671556D01*
X111893542Y-72489928D01*
X111913504Y-72300000D01*
X111893542Y-72110072D01*
X111834527Y-71928444D01*
X111739040Y-71763056D01*
X111611253Y-71621134D01*
X111456752Y-71508882D01*
X111282288Y-71431206D01*
X111282286Y-71431205D01*
X111095487Y-71391500D01*
X110904513Y-71391500D01*
X110717714Y-71431205D01*
X110543246Y-71508883D01*
X110388745Y-71621135D01*
X110260959Y-71763057D01*
X110165473Y-71928443D01*
X110165470Y-71928450D01*
X110113746Y-72087641D01*
X110106458Y-72110072D01*
X110089019Y-72275995D01*
X110062434Y-72340609D01*
X110053379Y-72350714D01*
X109711179Y-72692914D01*
X109698820Y-72702818D01*
X109698993Y-72703027D01*
X109692983Y-72707999D01*
X109645016Y-72759078D01*
X109623872Y-72780222D01*
X109623857Y-72780239D01*
X109619531Y-72785814D01*
X109615747Y-72790244D01*
X109583419Y-72824671D01*
X109583412Y-72824681D01*
X109573579Y-72842567D01*
X109562903Y-72858820D01*
X109550386Y-72874957D01*
X109550385Y-72874959D01*
X109531625Y-72918310D01*
X109529055Y-72923556D01*
X109506303Y-72964941D01*
X109506303Y-72964942D01*
X109501225Y-72984720D01*
X109494925Y-73003122D01*
X109486818Y-73021857D01*
X109479431Y-73068495D01*
X109478246Y-73074216D01*
X109466500Y-73119965D01*
X109466500Y-73140384D01*
X109464973Y-73159783D01*
X109461780Y-73179941D01*
X109461780Y-73179942D01*
X109466225Y-73226966D01*
X109466500Y-73232804D01*
X109466500Y-79128393D01*
X109464304Y-79151628D01*
X109462725Y-79159903D01*
X109462725Y-79159906D01*
X109466378Y-79217981D01*
X109466500Y-79221852D01*
X109466500Y-79803866D01*
X109464761Y-79819613D01*
X109465032Y-79819639D01*
X109464298Y-79827405D01*
X109466500Y-79897457D01*
X109466500Y-79927359D01*
X109467384Y-79934356D01*
X109467842Y-79940179D01*
X109469326Y-79987389D01*
X109469327Y-79987391D01*
X109475022Y-80006995D01*
X109478967Y-80026042D01*
X109481526Y-80046297D01*
X109481527Y-80046300D01*
X109481528Y-80046303D01*
X109498914Y-80090216D01*
X109500806Y-80095744D01*
X109513981Y-80141092D01*
X109524372Y-80158662D01*
X109532932Y-80176135D01*
X109540447Y-80195117D01*
X109568209Y-80233327D01*
X109571416Y-80238210D01*
X109595458Y-80278862D01*
X109595462Y-80278866D01*
X109609889Y-80293293D01*
X109622526Y-80308088D01*
X109634528Y-80324607D01*
X109670931Y-80354722D01*
X109675231Y-80358635D01*
X110582538Y-81265943D01*
X110866413Y-81549818D01*
X110899898Y-81611141D01*
X110894914Y-81680833D01*
X110866413Y-81725180D01*
X110261414Y-82330181D01*
X110200091Y-82363666D01*
X110173733Y-82366500D01*
X109283632Y-82366500D01*
X109267880Y-82364760D01*
X109267855Y-82365032D01*
X109260093Y-82364298D01*
X109260092Y-82364298D01*
X109190029Y-82366500D01*
X109160144Y-82366500D01*
X109160141Y-82366500D01*
X109160129Y-82366501D01*
X109153137Y-82367384D01*
X109147320Y-82367841D01*
X109100114Y-82369325D01*
X109100107Y-82369326D01*
X109080500Y-82375022D01*
X109061461Y-82378965D01*
X109041211Y-82381524D01*
X109041201Y-82381526D01*
X108997291Y-82398911D01*
X108991765Y-82400803D01*
X108946412Y-82413979D01*
X108946407Y-82413981D01*
X108928833Y-82424374D01*
X108911372Y-82432928D01*
X108892386Y-82440446D01*
X108892384Y-82440447D01*
X108854172Y-82468208D01*
X108849290Y-82471415D01*
X108808637Y-82495457D01*
X108794201Y-82509894D01*
X108779415Y-82522523D01*
X108762893Y-82534528D01*
X108762891Y-82534529D01*
X108762891Y-82534530D01*
X108762888Y-82534532D01*
X108732780Y-82570925D01*
X108728849Y-82575246D01*
X108311180Y-82992913D01*
X108298821Y-83002816D01*
X108298994Y-83003025D01*
X108292985Y-83007996D01*
X108245015Y-83059079D01*
X108223872Y-83080222D01*
X108223857Y-83080239D01*
X108219531Y-83085814D01*
X108215747Y-83090244D01*
X108183419Y-83124671D01*
X108183412Y-83124681D01*
X108173579Y-83142567D01*
X108162903Y-83158820D01*
X108150386Y-83174957D01*
X108150385Y-83174959D01*
X108131625Y-83218310D01*
X108129055Y-83223556D01*
X108106303Y-83264941D01*
X108106303Y-83264942D01*
X108101225Y-83284720D01*
X108094925Y-83303122D01*
X108086818Y-83321857D01*
X108079431Y-83368495D01*
X108078246Y-83374216D01*
X108066500Y-83419965D01*
X108066500Y-83440384D01*
X108064972Y-83459783D01*
X108061780Y-83479943D01*
X108064224Y-83505793D01*
X108066225Y-83526966D01*
X108066500Y-83532804D01*
X108066500Y-86886233D01*
X108046815Y-86953272D01*
X108030181Y-86973914D01*
X107448914Y-87555181D01*
X107387591Y-87588666D01*
X107361233Y-87591500D01*
X107304513Y-87591500D01*
X107117714Y-87631205D01*
X107107933Y-87635560D01*
X107038683Y-87644843D01*
X106975407Y-87615213D01*
X106938195Y-87556078D01*
X106933500Y-87522279D01*
X106933500Y-84583633D01*
X106935239Y-84567886D01*
X106934968Y-84567861D01*
X106935701Y-84560094D01*
X106935702Y-84560091D01*
X106933500Y-84490042D01*
X106933500Y-84460144D01*
X106932614Y-84453136D01*
X106932156Y-84447314D01*
X106930673Y-84400111D01*
X106930672Y-84400109D01*
X106924979Y-84380515D01*
X106921032Y-84361459D01*
X106918474Y-84341203D01*
X106901084Y-84297283D01*
X106899195Y-84291763D01*
X106897019Y-84284276D01*
X106886018Y-84246407D01*
X106875622Y-84228829D01*
X106867066Y-84211362D01*
X106859552Y-84192383D01*
X106831794Y-84154179D01*
X106828587Y-84149296D01*
X106818873Y-84132871D01*
X106804542Y-84108638D01*
X106790108Y-84094204D01*
X106777471Y-84079409D01*
X106765472Y-84062893D01*
X106765470Y-84062890D01*
X106729073Y-84032781D01*
X106724751Y-84028847D01*
X105569819Y-82873914D01*
X105536334Y-82812591D01*
X105533500Y-82786233D01*
X105533500Y-73402331D01*
X105553185Y-73335292D01*
X105592387Y-73299028D01*
X105591460Y-73297623D01*
X105596102Y-73294558D01*
X105596101Y-73294558D01*
X105596106Y-73294556D01*
X105773218Y-73153314D01*
X105922263Y-72982718D01*
X106038453Y-72788250D01*
X106118051Y-72576161D01*
X106138111Y-72465620D01*
X106158500Y-72353270D01*
X106158500Y-68683485D01*
X106158500Y-68683478D01*
X106143281Y-68514378D01*
X106143280Y-68514373D01*
X106083017Y-68296016D01*
X106083012Y-68296003D01*
X105984728Y-68091913D01*
X105984724Y-68091906D01*
X105851575Y-67908642D01*
X105851568Y-67908634D01*
X105687835Y-67752089D01*
X105687834Y-67752088D01*
X105586874Y-67685445D01*
X105498772Y-67627289D01*
X105290477Y-67538259D01*
X105290464Y-67538255D01*
X105069620Y-67487850D01*
X105069616Y-67487849D01*
X105069615Y-67487849D01*
X105069614Y-67487848D01*
X105069609Y-67487848D01*
X104843312Y-67477685D01*
X104843311Y-67477685D01*
X104843309Y-67477685D01*
X104674946Y-67500491D01*
X104618824Y-67508094D01*
X104618819Y-67508095D01*
X104403377Y-67578097D01*
X104203892Y-67685445D01*
X104026781Y-67826685D01*
X103877742Y-67997275D01*
X103877736Y-67997283D01*
X103761550Y-68191743D01*
X103761547Y-68191748D01*
X103745779Y-68233764D01*
X103703793Y-68289612D01*
X103638279Y-68313895D01*
X103570036Y-68298903D01*
X103520732Y-68249397D01*
X103517966Y-68243994D01*
X103444728Y-68091913D01*
X103444724Y-68091906D01*
X103311575Y-67908642D01*
X103311568Y-67908634D01*
X103147835Y-67752089D01*
X103147834Y-67752088D01*
X103046874Y-67685445D01*
X102958772Y-67627289D01*
X102750477Y-67538259D01*
X102750464Y-67538255D01*
X102529620Y-67487850D01*
X102529616Y-67487849D01*
X102529615Y-67487849D01*
X102529614Y-67487848D01*
X102529609Y-67487848D01*
X102303312Y-67477685D01*
X102303311Y-67477685D01*
X102303309Y-67477685D01*
X102134946Y-67500491D01*
X102078824Y-67508094D01*
X102078819Y-67508095D01*
X101863377Y-67578097D01*
X101663892Y-67685445D01*
X101486781Y-67826685D01*
X101337742Y-67997275D01*
X101337736Y-67997283D01*
X101221550Y-68191743D01*
X101221547Y-68191748D01*
X101205779Y-68233764D01*
X101163793Y-68289612D01*
X101098279Y-68313895D01*
X101030036Y-68298903D01*
X100980732Y-68249397D01*
X100977966Y-68243994D01*
X100904728Y-68091913D01*
X100904724Y-68091906D01*
X100771575Y-67908642D01*
X100771568Y-67908634D01*
X100607835Y-67752089D01*
X100607834Y-67752088D01*
X100506874Y-67685445D01*
X100418772Y-67627289D01*
X100210477Y-67538259D01*
X100210464Y-67538255D01*
X99989620Y-67487850D01*
X99989616Y-67487849D01*
X99989615Y-67487849D01*
X99989614Y-67487848D01*
X99989609Y-67487848D01*
X99763312Y-67477685D01*
X99763311Y-67477685D01*
X99763309Y-67477685D01*
X99594946Y-67500491D01*
X99538824Y-67508094D01*
X99538819Y-67508095D01*
X99323377Y-67578097D01*
X99123892Y-67685445D01*
X98946781Y-67826685D01*
X98797742Y-67997275D01*
X98797736Y-67997283D01*
X98681550Y-68191743D01*
X98681547Y-68191748D01*
X98665779Y-68233764D01*
X98623793Y-68289612D01*
X98558279Y-68313895D01*
X98490036Y-68298903D01*
X98440732Y-68249397D01*
X98437966Y-68243994D01*
X98364728Y-68091913D01*
X98364724Y-68091906D01*
X98231575Y-67908642D01*
X98231568Y-67908634D01*
X98067835Y-67752089D01*
X98067834Y-67752088D01*
X97966874Y-67685445D01*
X97878772Y-67627289D01*
X97670477Y-67538259D01*
X97670464Y-67538255D01*
X97449620Y-67487850D01*
X97449616Y-67487849D01*
X97449615Y-67487849D01*
X97449614Y-67487848D01*
X97449609Y-67487848D01*
X97223312Y-67477685D01*
X97223311Y-67477685D01*
X97223309Y-67477685D01*
X97054946Y-67500491D01*
X96998824Y-67508094D01*
X96998819Y-67508095D01*
X96783377Y-67578097D01*
X96583892Y-67685445D01*
X96406781Y-67826685D01*
X96257742Y-67997275D01*
X96257736Y-67997283D01*
X96141550Y-68191743D01*
X96141547Y-68191748D01*
X96125779Y-68233764D01*
X96083793Y-68289612D01*
X96018279Y-68313895D01*
X95950036Y-68298903D01*
X95900732Y-68249397D01*
X95897966Y-68243994D01*
X95824728Y-68091913D01*
X95824724Y-68091906D01*
X95691575Y-67908642D01*
X95691568Y-67908634D01*
X95527835Y-67752089D01*
X95527834Y-67752088D01*
X95426874Y-67685445D01*
X95338772Y-67627289D01*
X95130477Y-67538259D01*
X95130464Y-67538255D01*
X94909620Y-67487850D01*
X94909616Y-67487849D01*
X94909615Y-67487849D01*
X94909614Y-67487848D01*
X94909609Y-67487848D01*
X94683312Y-67477685D01*
X94683311Y-67477685D01*
X94683309Y-67477685D01*
X94514946Y-67500491D01*
X94458824Y-67508094D01*
X94458819Y-67508095D01*
X94243377Y-67578097D01*
X94043892Y-67685445D01*
X93866781Y-67826685D01*
X93717742Y-67997275D01*
X93717736Y-67997283D01*
X93601550Y-68191743D01*
X93601549Y-68191745D01*
X93581646Y-68244776D01*
X93539659Y-68300624D01*
X93474145Y-68324906D01*
X93405903Y-68309914D01*
X93356599Y-68260407D01*
X93353833Y-68255005D01*
X93277401Y-68096291D01*
X93277397Y-68096283D01*
X93145148Y-67914258D01*
X93145142Y-67914250D01*
X92982513Y-67758762D01*
X92794733Y-67634808D01*
X92587830Y-67546375D01*
X92587824Y-67546373D01*
X92470100Y-67519503D01*
X92409122Y-67485394D01*
X92376264Y-67423733D01*
X92381959Y-67354095D01*
X92424399Y-67298592D01*
X92484285Y-67275339D01*
X92536042Y-67269711D01*
X92886417Y-67192587D01*
X93226401Y-67078033D01*
X93552005Y-66927393D01*
X93859414Y-66742431D01*
X94145023Y-66525317D01*
X94405484Y-66278595D01*
X94637742Y-66005159D01*
X94839075Y-65708215D01*
X95007123Y-65391243D01*
X95139915Y-65057961D01*
X95163651Y-64972474D01*
X95209761Y-64806399D01*
X95235895Y-64712274D01*
X95293936Y-64358237D01*
X95313359Y-64000000D01*
X95293936Y-63641763D01*
X95235895Y-63287726D01*
X95192673Y-63132057D01*
X95139917Y-62942044D01*
X95139916Y-62942042D01*
X95007127Y-62608766D01*
X95007118Y-62608748D01*
X94839075Y-62291785D01*
X94839071Y-62291779D01*
X94839070Y-62291776D01*
X94637743Y-61994842D01*
X94637735Y-61994832D01*
X94405491Y-61721413D01*
X94405486Y-61721407D01*
X94405484Y-61721405D01*
X94145023Y-61474683D01*
X94145016Y-61474677D01*
X94145013Y-61474675D01*
X94077266Y-61423175D01*
X93859414Y-61257569D01*
X93552005Y-61072607D01*
X93552004Y-61072606D01*
X93552000Y-61072604D01*
X93551996Y-61072602D01*
X93226411Y-60921971D01*
X93226406Y-60921969D01*
X93226401Y-60921967D01*
X93060678Y-60866128D01*
X92886416Y-60807412D01*
X92536040Y-60730288D01*
X92179383Y-60691500D01*
X92179382Y-60691500D01*
X91820618Y-60691500D01*
X91820616Y-60691500D01*
X91463959Y-60730288D01*
X91113583Y-60807412D01*
X90850768Y-60895965D01*
X90773599Y-60921967D01*
X90773596Y-60921968D01*
X90773588Y-60921971D01*
X90448003Y-61072602D01*
X90447999Y-61072604D01*
X90219061Y-61210351D01*
X90140586Y-61257569D01*
X90052060Y-61324864D01*
X89854986Y-61474675D01*
X89854977Y-61474683D01*
X89594513Y-61721407D01*
X89594508Y-61721413D01*
X89362264Y-61994832D01*
X89362256Y-61994842D01*
X89160929Y-62291776D01*
X89160928Y-62291779D01*
X88992881Y-62608748D01*
X88992872Y-62608766D01*
X88860083Y-62942042D01*
X88860082Y-62942044D01*
X88764107Y-63287717D01*
X88764106Y-63287720D01*
X88706063Y-63641765D01*
X88686641Y-63999997D01*
X88686641Y-64000002D01*
X88706063Y-64358234D01*
X88748905Y-64619561D01*
X88763353Y-64707690D01*
X88764106Y-64712279D01*
X88764107Y-64712282D01*
X88860082Y-65057955D01*
X88860083Y-65057957D01*
X88992872Y-65391233D01*
X88992881Y-65391251D01*
X89051790Y-65502364D01*
X89120649Y-65632247D01*
X89160928Y-65708220D01*
X89160929Y-65708223D01*
X89362256Y-66005157D01*
X89362264Y-66005167D01*
X89451638Y-66110386D01*
X89594516Y-66278595D01*
X89854977Y-66525317D01*
X90140586Y-66742431D01*
X90447995Y-66927393D01*
X90447997Y-66927394D01*
X90447999Y-66927395D01*
X90448003Y-66927397D01*
X90773588Y-67078028D01*
X90773599Y-67078033D01*
X91113583Y-67192587D01*
X91463958Y-67269711D01*
X91800197Y-67306279D01*
X91864714Y-67333095D01*
X91904491Y-67390536D01*
X91906899Y-67460364D01*
X91871173Y-67520410D01*
X91825108Y-67547482D01*
X91706730Y-67585946D01*
X91508598Y-67692565D01*
X91508595Y-67692567D01*
X91332679Y-67832854D01*
X91184647Y-68002292D01*
X91184640Y-68002300D01*
X91069240Y-68195446D01*
X91069237Y-68195451D01*
X91050882Y-68244360D01*
X91008896Y-68300208D01*
X90943382Y-68324491D01*
X90875139Y-68309499D01*
X90825835Y-68259993D01*
X90823069Y-68254590D01*
X90744728Y-68091913D01*
X90744724Y-68091906D01*
X90611575Y-67908642D01*
X90611568Y-67908634D01*
X90447835Y-67752089D01*
X90447834Y-67752088D01*
X90346874Y-67685445D01*
X90258772Y-67627289D01*
X90050477Y-67538259D01*
X90050464Y-67538255D01*
X89829620Y-67487850D01*
X89829616Y-67487849D01*
X89829615Y-67487849D01*
X89829614Y-67487848D01*
X89829609Y-67487848D01*
X89603312Y-67477685D01*
X89603311Y-67477685D01*
X89603309Y-67477685D01*
X89434946Y-67500491D01*
X89378824Y-67508094D01*
X89378819Y-67508095D01*
X89163377Y-67578097D01*
X88963892Y-67685445D01*
X88786781Y-67826685D01*
X88637742Y-67997275D01*
X88637736Y-67997283D01*
X88521550Y-68191743D01*
X88521548Y-68191748D01*
X88441948Y-68403839D01*
X88441948Y-68403840D01*
X88401500Y-68626729D01*
X88401500Y-72296518D01*
X88416718Y-72465620D01*
X88416719Y-72465626D01*
X88476982Y-72683983D01*
X88476987Y-72683996D01*
X88575271Y-72888086D01*
X88575275Y-72888093D01*
X88708424Y-73071357D01*
X88708427Y-73071361D01*
X88708429Y-73071363D01*
X88872166Y-73227912D01*
X88998206Y-73311110D01*
X89061227Y-73352710D01*
X89269522Y-73441740D01*
X89269525Y-73441741D01*
X89269530Y-73441743D01*
X89490385Y-73492151D01*
X89716691Y-73502315D01*
X89941175Y-73471906D01*
X90156621Y-73401903D01*
X90356106Y-73294556D01*
X90533218Y-73153314D01*
X90682263Y-72982718D01*
X90798453Y-72788250D01*
X90818354Y-72735223D01*
X90860338Y-72679377D01*
X90925851Y-72655093D01*
X90994094Y-72670084D01*
X91043399Y-72719590D01*
X91046166Y-72724994D01*
X91122598Y-72883708D01*
X91122602Y-72883716D01*
X91254851Y-73065741D01*
X91254857Y-73065749D01*
X91417486Y-73221237D01*
X91605266Y-73345191D01*
X91812169Y-73433624D01*
X91812178Y-73433627D01*
X91949999Y-73465084D01*
X91950000Y-73465084D01*
X91950000Y-72075686D01*
X91961955Y-72087641D01*
X92074852Y-72145165D01*
X92168519Y-72160000D01*
X92231481Y-72160000D01*
X92325148Y-72145165D01*
X92438045Y-72087641D01*
X92450000Y-72075686D01*
X92450000Y-73467549D01*
X92479267Y-73463586D01*
X92479273Y-73463585D01*
X92693268Y-73394054D01*
X92891401Y-73287434D01*
X92891404Y-73287432D01*
X93067320Y-73147145D01*
X93215352Y-72977707D01*
X93215359Y-72977699D01*
X93330759Y-72784553D01*
X93330760Y-72784551D01*
X93349116Y-72735641D01*
X93391101Y-72679793D01*
X93456614Y-72655508D01*
X93524857Y-72670498D01*
X93574162Y-72720004D01*
X93576930Y-72725408D01*
X93655273Y-72888090D01*
X93655275Y-72888093D01*
X93788424Y-73071357D01*
X93788427Y-73071361D01*
X93788429Y-73071363D01*
X93952166Y-73227912D01*
X94078206Y-73311110D01*
X94141227Y-73352710D01*
X94349522Y-73441740D01*
X94349525Y-73441741D01*
X94349530Y-73441743D01*
X94570385Y-73492151D01*
X94796691Y-73502315D01*
X95021175Y-73471906D01*
X95236621Y-73401903D01*
X95436106Y-73294556D01*
X95613218Y-73153314D01*
X95762263Y-72982718D01*
X95878453Y-72788250D01*
X95894221Y-72746234D01*
X95936203Y-72690389D01*
X96001717Y-72666104D01*
X96069960Y-72681094D01*
X96119265Y-72730599D01*
X96122033Y-72736005D01*
X96195271Y-72888086D01*
X96195275Y-72888093D01*
X96328424Y-73071357D01*
X96328427Y-73071361D01*
X96328429Y-73071363D01*
X96492166Y-73227912D01*
X96618206Y-73311110D01*
X96681227Y-73352710D01*
X96889522Y-73441740D01*
X96889525Y-73441741D01*
X96889530Y-73441743D01*
X97110385Y-73492151D01*
X97336691Y-73502315D01*
X97561175Y-73471906D01*
X97776621Y-73401903D01*
X97976106Y-73294556D01*
X98153218Y-73153314D01*
X98302263Y-72982718D01*
X98418453Y-72788250D01*
X98434221Y-72746234D01*
X98476203Y-72690389D01*
X98541717Y-72666104D01*
X98609960Y-72681094D01*
X98659265Y-72730599D01*
X98662033Y-72736005D01*
X98735271Y-72888086D01*
X98735275Y-72888093D01*
X98868424Y-73071357D01*
X98868427Y-73071361D01*
X98868429Y-73071363D01*
X99032166Y-73227912D01*
X99158206Y-73311110D01*
X99221227Y-73352710D01*
X99429522Y-73441740D01*
X99429525Y-73441741D01*
X99429530Y-73441743D01*
X99650385Y-73492151D01*
X99876691Y-73502315D01*
X100101175Y-73471906D01*
X100316621Y-73401903D01*
X100516106Y-73294556D01*
X100693218Y-73153314D01*
X100842263Y-72982718D01*
X100958453Y-72788250D01*
X100974221Y-72746234D01*
X101016203Y-72690389D01*
X101081717Y-72666104D01*
X101149960Y-72681094D01*
X101199265Y-72730599D01*
X101202033Y-72736005D01*
X101275271Y-72888086D01*
X101275275Y-72888093D01*
X101408424Y-73071357D01*
X101408431Y-73071365D01*
X101572162Y-73227909D01*
X101572164Y-73227910D01*
X101572166Y-73227912D01*
X101670811Y-73293026D01*
X101715916Y-73346385D01*
X101726500Y-73396513D01*
X101726500Y-75831932D01*
X101706815Y-75898971D01*
X101692523Y-75915790D01*
X101693095Y-75916305D01*
X101560959Y-76063057D01*
X101465473Y-76228443D01*
X101465470Y-76228450D01*
X101406459Y-76410068D01*
X101406458Y-76410072D01*
X101386496Y-76600000D01*
X101406458Y-76789928D01*
X101406459Y-76789931D01*
X101465470Y-76971549D01*
X101465473Y-76971556D01*
X101560960Y-77136944D01*
X101688747Y-77278866D01*
X101843248Y-77391118D01*
X102017712Y-77468794D01*
X102204513Y-77508500D01*
X102395487Y-77508500D01*
X102582288Y-77468794D01*
X102756752Y-77391118D01*
X102911253Y-77278866D01*
X103039040Y-77136944D01*
X103134527Y-76971556D01*
X103193542Y-76789928D01*
X103213504Y-76600000D01*
X103193542Y-76410072D01*
X103134527Y-76228444D01*
X103039040Y-76063056D01*
X103025349Y-76047850D01*
X102995120Y-75984858D01*
X102993500Y-75964879D01*
X102993500Y-73402331D01*
X103013185Y-73335292D01*
X103052387Y-73299028D01*
X103051460Y-73297623D01*
X103056102Y-73294558D01*
X103056101Y-73294558D01*
X103056106Y-73294556D01*
X103233218Y-73153314D01*
X103382263Y-72982718D01*
X103498453Y-72788250D01*
X103514221Y-72746234D01*
X103556203Y-72690389D01*
X103621717Y-72666104D01*
X103689960Y-72681094D01*
X103739265Y-72730599D01*
X103742033Y-72736005D01*
X103815271Y-72888086D01*
X103815275Y-72888093D01*
X103948424Y-73071357D01*
X103948431Y-73071365D01*
X104112162Y-73227909D01*
X104112164Y-73227910D01*
X104112166Y-73227912D01*
X104210811Y-73293026D01*
X104255916Y-73346385D01*
X104266500Y-73396513D01*
X104266500Y-83016366D01*
X104264761Y-83032113D01*
X104265032Y-83032139D01*
X104264298Y-83039905D01*
X104266500Y-83109957D01*
X104266500Y-83139859D01*
X104267384Y-83146856D01*
X104267842Y-83152679D01*
X104269326Y-83199889D01*
X104269327Y-83199891D01*
X104275022Y-83219495D01*
X104278967Y-83238542D01*
X104281526Y-83258797D01*
X104281527Y-83258800D01*
X104281528Y-83258803D01*
X104298914Y-83302716D01*
X104300806Y-83308244D01*
X104313981Y-83353592D01*
X104324372Y-83371162D01*
X104332932Y-83388635D01*
X104340447Y-83407617D01*
X104368209Y-83445827D01*
X104371418Y-83450712D01*
X104390634Y-83483206D01*
X104395458Y-83491362D01*
X104395462Y-83491366D01*
X104409889Y-83505793D01*
X104422526Y-83520588D01*
X104434528Y-83537107D01*
X104470931Y-83567222D01*
X104475231Y-83571135D01*
X105053392Y-84149296D01*
X105630181Y-84726085D01*
X105663666Y-84787408D01*
X105666500Y-84813766D01*
X105666500Y-85291128D01*
X105646815Y-85358167D01*
X105594011Y-85403922D01*
X105524853Y-85413866D01*
X105493765Y-85405149D01*
X105290477Y-85318259D01*
X105290464Y-85318255D01*
X105069620Y-85267850D01*
X105069616Y-85267849D01*
X105069615Y-85267849D01*
X105069614Y-85267848D01*
X105069609Y-85267848D01*
X104843312Y-85257685D01*
X104843311Y-85257685D01*
X104843309Y-85257685D01*
X104674946Y-85280491D01*
X104618824Y-85288094D01*
X104618819Y-85288095D01*
X104403377Y-85358097D01*
X104203892Y-85465445D01*
X104026781Y-85606685D01*
X103877742Y-85777275D01*
X103877736Y-85777283D01*
X103761550Y-85971743D01*
X103761547Y-85971748D01*
X103745779Y-86013764D01*
X103703793Y-86069612D01*
X103638279Y-86093895D01*
X103570036Y-86078903D01*
X103520732Y-86029397D01*
X103517966Y-86023994D01*
X103444728Y-85871913D01*
X103444724Y-85871906D01*
X103311575Y-85688642D01*
X103311568Y-85688634D01*
X103147835Y-85532089D01*
X103147834Y-85532088D01*
X103046874Y-85465445D01*
X102958772Y-85407289D01*
X102750477Y-85318259D01*
X102750464Y-85318255D01*
X102529620Y-85267850D01*
X102529616Y-85267849D01*
X102529615Y-85267849D01*
X102529614Y-85267848D01*
X102529609Y-85267848D01*
X102303312Y-85257685D01*
X102303311Y-85257685D01*
X102303309Y-85257685D01*
X102134946Y-85280491D01*
X102078824Y-85288094D01*
X102078819Y-85288095D01*
X101863377Y-85358097D01*
X101663892Y-85465445D01*
X101486781Y-85606685D01*
X101337742Y-85777275D01*
X101337736Y-85777283D01*
X101221550Y-85971743D01*
X101221547Y-85971748D01*
X101205779Y-86013764D01*
X101163793Y-86069612D01*
X101098279Y-86093895D01*
X101030036Y-86078903D01*
X100980732Y-86029397D01*
X100977966Y-86023994D01*
X100904728Y-85871913D01*
X100904724Y-85871906D01*
X100771575Y-85688642D01*
X100771568Y-85688634D01*
X100607835Y-85532089D01*
X100607834Y-85532088D01*
X100506874Y-85465445D01*
X100418772Y-85407289D01*
X100210477Y-85318259D01*
X100210464Y-85318255D01*
X99989620Y-85267850D01*
X99989616Y-85267849D01*
X99989615Y-85267849D01*
X99989614Y-85267848D01*
X99989609Y-85267848D01*
X99763312Y-85257685D01*
X99763311Y-85257685D01*
X99763309Y-85257685D01*
X99594946Y-85280491D01*
X99538824Y-85288094D01*
X99538819Y-85288095D01*
X99323377Y-85358097D01*
X99123892Y-85465445D01*
X98946781Y-85606685D01*
X98797742Y-85777275D01*
X98797736Y-85777283D01*
X98681550Y-85971743D01*
X98681547Y-85971748D01*
X98665779Y-86013764D01*
X98623793Y-86069612D01*
X98558279Y-86093895D01*
X98490036Y-86078903D01*
X98440732Y-86029397D01*
X98437966Y-86023994D01*
X98364728Y-85871913D01*
X98364724Y-85871906D01*
X98231575Y-85688642D01*
X98231568Y-85688634D01*
X98067835Y-85532089D01*
X98067834Y-85532088D01*
X97966874Y-85465445D01*
X97878772Y-85407289D01*
X97670477Y-85318259D01*
X97670464Y-85318255D01*
X97449620Y-85267850D01*
X97449616Y-85267849D01*
X97449615Y-85267849D01*
X97449614Y-85267848D01*
X97449609Y-85267848D01*
X97223312Y-85257685D01*
X97223311Y-85257685D01*
X97223309Y-85257685D01*
X97054946Y-85280491D01*
X96998824Y-85288094D01*
X96998819Y-85288095D01*
X96783377Y-85358097D01*
X96583892Y-85465445D01*
X96406781Y-85606685D01*
X96257742Y-85777275D01*
X96257736Y-85777283D01*
X96141550Y-85971743D01*
X96141547Y-85971748D01*
X96125779Y-86013764D01*
X96083793Y-86069612D01*
X96018279Y-86093895D01*
X95950036Y-86078903D01*
X95900732Y-86029397D01*
X95897966Y-86023994D01*
X95824728Y-85871913D01*
X95824724Y-85871906D01*
X95691575Y-85688642D01*
X95691568Y-85688634D01*
X95527835Y-85532089D01*
X95527834Y-85532088D01*
X95426874Y-85465445D01*
X95338772Y-85407289D01*
X95130477Y-85318259D01*
X95130464Y-85318255D01*
X94909620Y-85267850D01*
X94909616Y-85267849D01*
X94909615Y-85267849D01*
X94909614Y-85267848D01*
X94909609Y-85267848D01*
X94683312Y-85257685D01*
X94683311Y-85257685D01*
X94683309Y-85257685D01*
X94514946Y-85280491D01*
X94458824Y-85288094D01*
X94458819Y-85288095D01*
X94243377Y-85358097D01*
X94043892Y-85465445D01*
X93866781Y-85606685D01*
X93717742Y-85777275D01*
X93717736Y-85777283D01*
X93601550Y-85971743D01*
X93601547Y-85971748D01*
X93585779Y-86013764D01*
X93543793Y-86069612D01*
X93478279Y-86093895D01*
X93410036Y-86078903D01*
X93360732Y-86029397D01*
X93357966Y-86023994D01*
X93284728Y-85871913D01*
X93284724Y-85871906D01*
X93151575Y-85688642D01*
X93151568Y-85688634D01*
X92987835Y-85532089D01*
X92987834Y-85532088D01*
X92886874Y-85465445D01*
X92798772Y-85407289D01*
X92590477Y-85318259D01*
X92590464Y-85318255D01*
X92369620Y-85267850D01*
X92369616Y-85267849D01*
X92369615Y-85267849D01*
X92369614Y-85267848D01*
X92369609Y-85267848D01*
X92143312Y-85257685D01*
X92143311Y-85257685D01*
X92143309Y-85257685D01*
X91974946Y-85280491D01*
X91918824Y-85288094D01*
X91918819Y-85288095D01*
X91703377Y-85358097D01*
X91503892Y-85465445D01*
X91326781Y-85606685D01*
X91177742Y-85777275D01*
X91177736Y-85777283D01*
X91061550Y-85971743D01*
X91061547Y-85971748D01*
X91045779Y-86013764D01*
X91003793Y-86069612D01*
X90938279Y-86093895D01*
X90870036Y-86078903D01*
X90820732Y-86029397D01*
X90817966Y-86023994D01*
X90744728Y-85871913D01*
X90744724Y-85871906D01*
X90611575Y-85688642D01*
X90611568Y-85688634D01*
X90447835Y-85532089D01*
X90447834Y-85532088D01*
X90346874Y-85465445D01*
X90258772Y-85407289D01*
X90050477Y-85318259D01*
X90050464Y-85318255D01*
X89829620Y-85267850D01*
X89829616Y-85267849D01*
X89829615Y-85267849D01*
X89829614Y-85267848D01*
X89829609Y-85267848D01*
X89603312Y-85257685D01*
X89603311Y-85257685D01*
X89603309Y-85257685D01*
X89434946Y-85280491D01*
X89378824Y-85288094D01*
X89378819Y-85288095D01*
X89163377Y-85358097D01*
X88963892Y-85465445D01*
X88786781Y-85606685D01*
X88637742Y-85777275D01*
X88637736Y-85777283D01*
X88521550Y-85971743D01*
X88521548Y-85971748D01*
X88441948Y-86183839D01*
X88441948Y-86183840D01*
X88401500Y-86406729D01*
X88401500Y-90076518D01*
X88416718Y-90245620D01*
X88416719Y-90245626D01*
X88476982Y-90463983D01*
X88476987Y-90463996D01*
X88575271Y-90668086D01*
X88575275Y-90668093D01*
X88708424Y-90851357D01*
X88708427Y-90851361D01*
X88708429Y-90851363D01*
X88872166Y-91007912D01*
X88973125Y-91074554D01*
X89061227Y-91132710D01*
X89269522Y-91221740D01*
X89269525Y-91221741D01*
X89269530Y-91221743D01*
X89490385Y-91272151D01*
X89716691Y-91282315D01*
X89857101Y-91263294D01*
X89926172Y-91273801D01*
X89978602Y-91319985D01*
X89997739Y-91387183D01*
X89977508Y-91454060D01*
X89969597Y-91464836D01*
X89867634Y-91589079D01*
X89867631Y-91589083D01*
X89808344Y-91700000D01*
X89789928Y-91734454D01*
X89740965Y-91784298D01*
X89680570Y-91800000D01*
X88149500Y-91800000D01*
X88082461Y-91780315D01*
X88036706Y-91727511D01*
X88025500Y-91676000D01*
X88025500Y-60149500D01*
X88045185Y-60082461D01*
X88097989Y-60036706D01*
X88149500Y-60025500D01*
X112876000Y-60025500D01*
X112943039Y-60045185D01*
G37*
%TD.AperFunction*%
%TA.AperFunction,Conductor*%
G36*
X92393039Y-70259685D02*
G01*
X92438794Y-70312489D01*
X92450000Y-70364000D01*
X92450000Y-71444314D01*
X92438045Y-71432359D01*
X92325148Y-71374835D01*
X92231481Y-71360000D01*
X92168519Y-71360000D01*
X92074852Y-71374835D01*
X91961955Y-71432359D01*
X91950000Y-71444314D01*
X91950000Y-70364000D01*
X91969685Y-70296961D01*
X92022489Y-70251206D01*
X92074000Y-70240000D01*
X92326000Y-70240000D01*
X92393039Y-70259685D01*
G37*
%TD.AperFunction*%
%TD*%
%TA.AperFunction,Conductor*%
%TO.N,GNDPWR*%
G36*
X113000000Y-93676000D02*
G01*
X112980315Y-93743039D01*
X112927511Y-93788794D01*
X112876000Y-93800000D01*
X107524000Y-93800000D01*
X107456961Y-93780315D01*
X107411206Y-93727511D01*
X107400000Y-93676000D01*
X107400000Y-92257500D01*
X107419685Y-92190461D01*
X107472489Y-92144706D01*
X107524000Y-92133500D01*
X108229645Y-92133500D01*
X108296684Y-92153185D01*
X108337032Y-92195500D01*
X108360960Y-92236944D01*
X108488747Y-92378866D01*
X108643248Y-92491118D01*
X108817712Y-92568794D01*
X109004513Y-92608500D01*
X109195487Y-92608500D01*
X109382288Y-92568794D01*
X109556752Y-92491118D01*
X109711253Y-92378866D01*
X109839040Y-92236944D01*
X109934527Y-92071556D01*
X109993542Y-91889928D01*
X110013504Y-91700000D01*
X109993542Y-91510072D01*
X109957777Y-91400000D01*
X113000000Y-91400000D01*
X113000000Y-93676000D01*
G37*
%TD.AperFunction*%
%TD*%
%TA.AperFunction,Conductor*%
%TO.N,/uart_power/gnd_in*%
G36*
X90255135Y-93114641D02*
G01*
X90344969Y-93162659D01*
X90480497Y-93203770D01*
X90538933Y-93242066D01*
X90567390Y-93305878D01*
X90568500Y-93322430D01*
X90568500Y-99677569D01*
X90548815Y-99744608D01*
X90496011Y-99790363D01*
X90480495Y-99796230D01*
X90344966Y-99837342D01*
X90161079Y-99935633D01*
X89999905Y-100067905D01*
X89867633Y-100229079D01*
X89769342Y-100412966D01*
X89708814Y-100612499D01*
X89688378Y-100820000D01*
X89708814Y-101027500D01*
X89769342Y-101227033D01*
X89867633Y-101410920D01*
X89999905Y-101572094D01*
X90154671Y-101699107D01*
X90161083Y-101704369D01*
X90344969Y-101802659D01*
X90448075Y-101833935D01*
X90506511Y-101872231D01*
X90534968Y-101936043D01*
X90524408Y-102005110D01*
X90478184Y-102057504D01*
X90464149Y-102065132D01*
X90448001Y-102072603D01*
X90447999Y-102072604D01*
X90240087Y-102197701D01*
X90140586Y-102257569D01*
X90052060Y-102324864D01*
X89854986Y-102474675D01*
X89854977Y-102474683D01*
X89594513Y-102721407D01*
X89594508Y-102721413D01*
X89362264Y-102994832D01*
X89362256Y-102994842D01*
X89160929Y-103291776D01*
X89160928Y-103291779D01*
X88992881Y-103608748D01*
X88992872Y-103608766D01*
X88860083Y-103942042D01*
X88860082Y-103942044D01*
X88764107Y-104287717D01*
X88764106Y-104287720D01*
X88706063Y-104641765D01*
X88686641Y-104999997D01*
X88686641Y-105000002D01*
X88706063Y-105358234D01*
X88764106Y-105712279D01*
X88764107Y-105712282D01*
X88860082Y-106057955D01*
X88860083Y-106057957D01*
X88992872Y-106391233D01*
X88992881Y-106391251D01*
X89160928Y-106708220D01*
X89160929Y-106708223D01*
X89362256Y-107005157D01*
X89362264Y-107005167D01*
X89594508Y-107278586D01*
X89594516Y-107278595D01*
X89854977Y-107525317D01*
X90140586Y-107742431D01*
X90447995Y-107927393D01*
X90447997Y-107927394D01*
X90447999Y-107927395D01*
X90448003Y-107927397D01*
X90773588Y-108078028D01*
X90773599Y-108078033D01*
X91113583Y-108192587D01*
X91463958Y-108269711D01*
X91820618Y-108308500D01*
X91820624Y-108308500D01*
X92179376Y-108308500D01*
X92179382Y-108308500D01*
X92536042Y-108269711D01*
X92886417Y-108192587D01*
X93226401Y-108078033D01*
X93552005Y-107927393D01*
X93859414Y-107742431D01*
X94145023Y-107525317D01*
X94405484Y-107278595D01*
X94637742Y-107005159D01*
X94839075Y-106708215D01*
X95007123Y-106391243D01*
X95139915Y-106057961D01*
X95235895Y-105712274D01*
X95293936Y-105358237D01*
X95313359Y-105000000D01*
X95293936Y-104641763D01*
X95235895Y-104287726D01*
X95192673Y-104132057D01*
X95139917Y-103942044D01*
X95139916Y-103942042D01*
X95007127Y-103608766D01*
X95007118Y-103608748D01*
X94839075Y-103291785D01*
X94839071Y-103291779D01*
X94839070Y-103291776D01*
X94637743Y-102994842D01*
X94637735Y-102994832D01*
X94405491Y-102721413D01*
X94405486Y-102721407D01*
X94400378Y-102716568D01*
X94145023Y-102474683D01*
X94145016Y-102474677D01*
X94145013Y-102474675D01*
X94030735Y-102387804D01*
X93859414Y-102257569D01*
X93552005Y-102072607D01*
X93552004Y-102072606D01*
X93552000Y-102072604D01*
X93551996Y-102072602D01*
X93395066Y-101999999D01*
X97186620Y-101999999D01*
X97206091Y-102197703D01*
X97256252Y-102363056D01*
X97263756Y-102387798D01*
X97263758Y-102387803D01*
X97263759Y-102387804D01*
X97310192Y-102474675D01*
X97357406Y-102563005D01*
X97483430Y-102716567D01*
X97519566Y-102746222D01*
X97524067Y-102750301D01*
X97768598Y-102994832D01*
X98421912Y-103648147D01*
X98536994Y-103742594D01*
X98537001Y-103742598D01*
X98712191Y-103836239D01*
X98712193Y-103836239D01*
X98712196Y-103836241D01*
X98902299Y-103893908D01*
X98902298Y-103893908D01*
X98920024Y-103895653D01*
X99100000Y-103913380D01*
X99297701Y-103893908D01*
X99487803Y-103836241D01*
X99663003Y-103742595D01*
X99816568Y-103616568D01*
X99942595Y-103463003D01*
X100034116Y-103291779D01*
X100036238Y-103287809D01*
X100036238Y-103287808D01*
X100036241Y-103287803D01*
X100093908Y-103097701D01*
X100113380Y-102900000D01*
X100093908Y-102702299D01*
X100036241Y-102512196D01*
X100036239Y-102512193D01*
X100036239Y-102512191D01*
X99942598Y-102337001D01*
X99942594Y-102336994D01*
X99848147Y-102221912D01*
X99244819Y-101618584D01*
X99211334Y-101557261D01*
X99208500Y-101530903D01*
X99208500Y-99250456D01*
X99193908Y-99102300D01*
X99136239Y-98912191D01*
X99042598Y-98737001D01*
X99042594Y-98736994D01*
X98916568Y-98583431D01*
X98763005Y-98457405D01*
X98762998Y-98457401D01*
X98587808Y-98363760D01*
X98455595Y-98323654D01*
X107471500Y-98323654D01*
X107478011Y-98384202D01*
X107478011Y-98384204D01*
X107529111Y-98521204D01*
X107616739Y-98638261D01*
X107733796Y-98725889D01*
X107870799Y-98776989D01*
X107898050Y-98779918D01*
X107931345Y-98783499D01*
X107931362Y-98783500D01*
X109628638Y-98783500D01*
X109628654Y-98783499D01*
X109655692Y-98780591D01*
X109689201Y-98776989D01*
X109826204Y-98725889D01*
X109943261Y-98638261D01*
X110030889Y-98521204D01*
X110081989Y-98384201D01*
X110085591Y-98350692D01*
X110088499Y-98323654D01*
X110088500Y-98323637D01*
X110088500Y-98322454D01*
X110088577Y-98322190D01*
X110088677Y-98320331D01*
X110088855Y-98320340D01*
X110088856Y-98320335D01*
X110088959Y-98320346D01*
X110089116Y-98320354D01*
X110108185Y-98255415D01*
X110160989Y-98209660D01*
X110223309Y-98198926D01*
X110240974Y-98200471D01*
X110836922Y-97604523D01*
X110860507Y-97684844D01*
X110938239Y-97805798D01*
X111046900Y-97899952D01*
X111177685Y-97959680D01*
X111187466Y-97961086D01*
X110594526Y-98554025D01*
X110594526Y-98554026D01*
X110667512Y-98605131D01*
X110667516Y-98605133D01*
X110873673Y-98701265D01*
X110873682Y-98701269D01*
X111093389Y-98760139D01*
X111093400Y-98760141D01*
X111319998Y-98779966D01*
X111320002Y-98779966D01*
X111546599Y-98760141D01*
X111546610Y-98760139D01*
X111766317Y-98701269D01*
X111766331Y-98701264D01*
X111972478Y-98605136D01*
X112045472Y-98554025D01*
X111452534Y-97961086D01*
X111462315Y-97959680D01*
X111593100Y-97899952D01*
X111701761Y-97805798D01*
X111779493Y-97684844D01*
X111803076Y-97604523D01*
X112399025Y-98200472D01*
X112450136Y-98127478D01*
X112546264Y-97921331D01*
X112546269Y-97921317D01*
X112605139Y-97701610D01*
X112605141Y-97701599D01*
X112624966Y-97475002D01*
X112624966Y-97474997D01*
X112605141Y-97248400D01*
X112605139Y-97248389D01*
X112546269Y-97028682D01*
X112546265Y-97028673D01*
X112450133Y-96822516D01*
X112450131Y-96822512D01*
X112399026Y-96749526D01*
X112399025Y-96749526D01*
X111803076Y-97345475D01*
X111779493Y-97265156D01*
X111701761Y-97144202D01*
X111593100Y-97050048D01*
X111462315Y-96990320D01*
X111452533Y-96988913D01*
X112045472Y-96395974D01*
X112045471Y-96395973D01*
X111972483Y-96344866D01*
X111972481Y-96344865D01*
X111766326Y-96248734D01*
X111766317Y-96248730D01*
X111546610Y-96189860D01*
X111546599Y-96189858D01*
X111320002Y-96170034D01*
X111319998Y-96170034D01*
X111093400Y-96189858D01*
X111093389Y-96189860D01*
X110873682Y-96248730D01*
X110873673Y-96248734D01*
X110667513Y-96344868D01*
X110594527Y-96395972D01*
X110594526Y-96395973D01*
X111187467Y-96988913D01*
X111177685Y-96990320D01*
X111046900Y-97050048D01*
X110938239Y-97144202D01*
X110860507Y-97265156D01*
X110836923Y-97345476D01*
X110240973Y-96749526D01*
X110223307Y-96751072D01*
X110154807Y-96737305D01*
X110104624Y-96688690D01*
X110089055Y-96629648D01*
X110088959Y-96629653D01*
X110088856Y-96629665D01*
X110088855Y-96629659D01*
X110088677Y-96629669D01*
X110088579Y-96627844D01*
X110088500Y-96627544D01*
X110088500Y-96626362D01*
X110088499Y-96626345D01*
X110085157Y-96595270D01*
X110081989Y-96565799D01*
X110030889Y-96428796D01*
X109943261Y-96311739D01*
X109826204Y-96224111D01*
X109689203Y-96173011D01*
X109628654Y-96166500D01*
X109628638Y-96166500D01*
X107931362Y-96166500D01*
X107931345Y-96166500D01*
X107870797Y-96173011D01*
X107870795Y-96173011D01*
X107733795Y-96224111D01*
X107616739Y-96311739D01*
X107529111Y-96428795D01*
X107478011Y-96565795D01*
X107478011Y-96565797D01*
X107471500Y-96626345D01*
X107471500Y-98323654D01*
X98455595Y-98323654D01*
X98397701Y-98306092D01*
X98397699Y-98306091D01*
X98397701Y-98306091D01*
X98200000Y-98286620D01*
X98002300Y-98306091D01*
X97812191Y-98363760D01*
X97637001Y-98457401D01*
X97636994Y-98457405D01*
X97483431Y-98583431D01*
X97357405Y-98736994D01*
X97357401Y-98737001D01*
X97263760Y-98912191D01*
X97206091Y-99102300D01*
X97191500Y-99250456D01*
X97191500Y-101947401D01*
X97191201Y-101953481D01*
X97186620Y-101999999D01*
X93395066Y-101999999D01*
X93226411Y-101921971D01*
X93226406Y-101921969D01*
X93226401Y-101921967D01*
X93051942Y-101863185D01*
X92886416Y-101807412D01*
X92536044Y-101730289D01*
X92523549Y-101728930D01*
X92459032Y-101702109D01*
X92419257Y-101644666D01*
X92416852Y-101574838D01*
X92441110Y-101526990D01*
X92464219Y-101498833D01*
X92521965Y-101459500D01*
X92560070Y-101453500D01*
X93643930Y-101453500D01*
X93710969Y-101473185D01*
X93739783Y-101498835D01*
X93799905Y-101572094D01*
X93954671Y-101699107D01*
X93961083Y-101704369D01*
X94144969Y-101802659D01*
X94344498Y-101863185D01*
X94499995Y-101878500D01*
X94499998Y-101878500D01*
X95504002Y-101878500D01*
X95504005Y-101878500D01*
X95659502Y-101863185D01*
X95859031Y-101802659D01*
X96042917Y-101704369D01*
X96204094Y-101572094D01*
X96336369Y-101410917D01*
X96434659Y-101227031D01*
X96495185Y-101027502D01*
X96515622Y-100820000D01*
X96495185Y-100612498D01*
X96434659Y-100412969D01*
X96336369Y-100229083D01*
X96285267Y-100166815D01*
X96204094Y-100067905D01*
X96042920Y-99935633D01*
X96042918Y-99935632D01*
X96042917Y-99935631D01*
X95859031Y-99837341D01*
X95759266Y-99807078D01*
X95659500Y-99776814D01*
X95545827Y-99765619D01*
X95504005Y-99761500D01*
X94499995Y-99761500D01*
X94461613Y-99765280D01*
X94344499Y-99776814D01*
X94144966Y-99837342D01*
X93961079Y-99935633D01*
X93799905Y-100067905D01*
X93739783Y-100141165D01*
X93682037Y-100180499D01*
X93643930Y-100186500D01*
X92560070Y-100186500D01*
X92493031Y-100166815D01*
X92464217Y-100141165D01*
X92404094Y-100067905D01*
X92242920Y-99935633D01*
X92242918Y-99935632D01*
X92242917Y-99935631D01*
X92059031Y-99837341D01*
X91923504Y-99796229D01*
X91865066Y-99757932D01*
X91836610Y-99694120D01*
X91835500Y-99677569D01*
X91835500Y-93322430D01*
X91855185Y-93255391D01*
X91907989Y-93209636D01*
X91923490Y-93203774D01*
X92059031Y-93162659D01*
X92148864Y-93114641D01*
X92207317Y-93100000D01*
X93996683Y-93100000D01*
X94055135Y-93114641D01*
X94144969Y-93162659D01*
X94344498Y-93223185D01*
X94499995Y-93238500D01*
X94499998Y-93238500D01*
X95504002Y-93238500D01*
X95504005Y-93238500D01*
X95659502Y-93223185D01*
X95859031Y-93162659D01*
X95948864Y-93114641D01*
X96007317Y-93100000D01*
X106762500Y-93100000D01*
X106829539Y-93119685D01*
X106875294Y-93172489D01*
X106886500Y-93224000D01*
X106886500Y-93676000D01*
X106886501Y-93676009D01*
X106898235Y-93785151D01*
X106898237Y-93785163D01*
X106909443Y-93836673D01*
X106944106Y-93940820D01*
X106944109Y-93940826D01*
X107023128Y-94063781D01*
X107023134Y-94063788D01*
X107068879Y-94116581D01*
X107068882Y-94116584D01*
X107179335Y-94212294D01*
X107179337Y-94212295D01*
X107179339Y-94212297D01*
X107312287Y-94273014D01*
X107355059Y-94285573D01*
X107379321Y-94292698D01*
X107379326Y-94292699D01*
X107379330Y-94292700D01*
X107524000Y-94313500D01*
X107524003Y-94313500D01*
X112776000Y-94313500D01*
X112843039Y-94333185D01*
X112888794Y-94385989D01*
X112900000Y-94437500D01*
X112900000Y-111233744D01*
X112880315Y-111300783D01*
X112827511Y-111346538D01*
X112758353Y-111356482D01*
X112694797Y-111327457D01*
X112657023Y-111268679D01*
X112656225Y-111265838D01*
X112646268Y-111228680D01*
X112646265Y-111228673D01*
X112550133Y-111022516D01*
X112550131Y-111022512D01*
X112499026Y-110949526D01*
X112499025Y-110949526D01*
X111903076Y-111545475D01*
X111879493Y-111465156D01*
X111801761Y-111344202D01*
X111693100Y-111250048D01*
X111562315Y-111190320D01*
X111552533Y-111188913D01*
X112145472Y-110595974D01*
X112145471Y-110595973D01*
X112072483Y-110544866D01*
X112072481Y-110544865D01*
X111866326Y-110448734D01*
X111866317Y-110448730D01*
X111646610Y-110389860D01*
X111646599Y-110389858D01*
X111420002Y-110370034D01*
X111419998Y-110370034D01*
X111193400Y-110389858D01*
X111193389Y-110389860D01*
X110973682Y-110448730D01*
X110973673Y-110448734D01*
X110767513Y-110544868D01*
X110694527Y-110595972D01*
X110694526Y-110595973D01*
X111287467Y-111188913D01*
X111277685Y-111190320D01*
X111146900Y-111250048D01*
X111038239Y-111344202D01*
X110960507Y-111465156D01*
X110936923Y-111545476D01*
X110340973Y-110949526D01*
X110323307Y-110951072D01*
X110254807Y-110937305D01*
X110204624Y-110888690D01*
X110189055Y-110829648D01*
X110188959Y-110829653D01*
X110188856Y-110829665D01*
X110188855Y-110829659D01*
X110188677Y-110829669D01*
X110188579Y-110827844D01*
X110188500Y-110827544D01*
X110188500Y-110826362D01*
X110188499Y-110826345D01*
X110185157Y-110795270D01*
X110181989Y-110765799D01*
X110130889Y-110628796D01*
X110043261Y-110511739D01*
X109926204Y-110424111D01*
X109789203Y-110373011D01*
X109728654Y-110366500D01*
X109728638Y-110366500D01*
X108031362Y-110366500D01*
X108031345Y-110366500D01*
X107970797Y-110373011D01*
X107970795Y-110373011D01*
X107833795Y-110424111D01*
X107716739Y-110511739D01*
X107629111Y-110628795D01*
X107578011Y-110765795D01*
X107578011Y-110765797D01*
X107571500Y-110826345D01*
X107571500Y-112523654D01*
X107578011Y-112584202D01*
X107578011Y-112584204D01*
X107612390Y-112676374D01*
X107629111Y-112721204D01*
X107716739Y-112838261D01*
X107833796Y-112925889D01*
X107970799Y-112976989D01*
X107998050Y-112979918D01*
X108031345Y-112983499D01*
X108031362Y-112983500D01*
X109728638Y-112983500D01*
X109728654Y-112983499D01*
X109755692Y-112980591D01*
X109789201Y-112976989D01*
X109926204Y-112925889D01*
X110043261Y-112838261D01*
X110130889Y-112721204D01*
X110181989Y-112584201D01*
X110185591Y-112550692D01*
X110188499Y-112523654D01*
X110188500Y-112523637D01*
X110188500Y-112522454D01*
X110188577Y-112522190D01*
X110188677Y-112520331D01*
X110188855Y-112520340D01*
X110188856Y-112520335D01*
X110188959Y-112520346D01*
X110189116Y-112520354D01*
X110208185Y-112455415D01*
X110260989Y-112409660D01*
X110323309Y-112398926D01*
X110340974Y-112400471D01*
X110936922Y-111804523D01*
X110960507Y-111884844D01*
X111038239Y-112005798D01*
X111146900Y-112099952D01*
X111277685Y-112159680D01*
X111287466Y-112161086D01*
X110694526Y-112754025D01*
X110694526Y-112754026D01*
X110767512Y-112805131D01*
X110767516Y-112805133D01*
X110973673Y-112901265D01*
X110973682Y-112901269D01*
X111193389Y-112960139D01*
X111193400Y-112960141D01*
X111419998Y-112979966D01*
X111420002Y-112979966D01*
X111646599Y-112960141D01*
X111646610Y-112960139D01*
X111866317Y-112901269D01*
X111866331Y-112901264D01*
X112072478Y-112805136D01*
X112145472Y-112754025D01*
X111552534Y-112161086D01*
X111562315Y-112159680D01*
X111693100Y-112099952D01*
X111801761Y-112005798D01*
X111879493Y-111884844D01*
X111903076Y-111804523D01*
X112499025Y-112400472D01*
X112550136Y-112327478D01*
X112646264Y-112121331D01*
X112646269Y-112121317D01*
X112656225Y-112084162D01*
X112692590Y-112024501D01*
X112755437Y-111993972D01*
X112824812Y-112002267D01*
X112878690Y-112046752D01*
X112899965Y-112113304D01*
X112900000Y-112116255D01*
X112900000Y-120850500D01*
X112880315Y-120917539D01*
X112827511Y-120963294D01*
X112776000Y-120974500D01*
X88149500Y-120974500D01*
X88082461Y-120954815D01*
X88036706Y-120902011D01*
X88025500Y-120850500D01*
X88025500Y-111800537D01*
X92966500Y-111800537D01*
X92966501Y-111800553D01*
X92977113Y-111904426D01*
X93032885Y-112072738D01*
X93125970Y-112223652D01*
X93251348Y-112349030D01*
X93313494Y-112387362D01*
X93360217Y-112439309D01*
X93371439Y-112508272D01*
X93343596Y-112572354D01*
X93325053Y-112590367D01*
X93312459Y-112600272D01*
X93174894Y-112759030D01*
X93174885Y-112759041D01*
X93069855Y-112940960D01*
X93069852Y-112940967D01*
X93001144Y-113139482D01*
X93001144Y-113139484D01*
X92999632Y-113150000D01*
X94070440Y-113150000D01*
X94031722Y-113192059D01*
X93981449Y-113306670D01*
X93971114Y-113431395D01*
X94001837Y-113552719D01*
X94065394Y-113650000D01*
X93003742Y-113650000D01*
X93030770Y-113761409D01*
X93118040Y-113952507D01*
X93239889Y-114123619D01*
X93239895Y-114123625D01*
X93391932Y-114268592D01*
X93568657Y-114382166D01*
X93763685Y-114460244D01*
X93969962Y-114500000D01*
X94100000Y-114500000D01*
X94100000Y-113680617D01*
X94169052Y-113734363D01*
X94287424Y-113775000D01*
X94381073Y-113775000D01*
X94473446Y-113759586D01*
X94583514Y-113700019D01*
X94600000Y-113682110D01*
X94600000Y-114500000D01*
X94677398Y-114500000D01*
X94834122Y-114485034D01*
X94834126Y-114485033D01*
X95035686Y-114425850D01*
X95222414Y-114329586D01*
X95387537Y-114199731D01*
X95387540Y-114199728D01*
X95525105Y-114040969D01*
X95525114Y-114040958D01*
X95630144Y-113859039D01*
X95630147Y-113859032D01*
X95698855Y-113660517D01*
X95698855Y-113660515D01*
X95700368Y-113650000D01*
X94629560Y-113650000D01*
X94668278Y-113607941D01*
X94718551Y-113493330D01*
X94728886Y-113368605D01*
X94698163Y-113247281D01*
X94634606Y-113150000D01*
X95696257Y-113150000D01*
X95669229Y-113038590D01*
X95581959Y-112847492D01*
X95460110Y-112676380D01*
X95460104Y-112676374D01*
X95363464Y-112584228D01*
X95328529Y-112523719D01*
X95331854Y-112453929D01*
X95372382Y-112397014D01*
X95383927Y-112388952D01*
X95448652Y-112349030D01*
X95574030Y-112223652D01*
X95667115Y-112072738D01*
X95722887Y-111904426D01*
X95733500Y-111800545D01*
X95733499Y-110999456D01*
X95722887Y-110895574D01*
X95667115Y-110727262D01*
X95574030Y-110576348D01*
X95448652Y-110450970D01*
X95297738Y-110357885D01*
X95297735Y-110357884D01*
X95129427Y-110302113D01*
X95025545Y-110291500D01*
X93674462Y-110291500D01*
X93674446Y-110291501D01*
X93570572Y-110302113D01*
X93402264Y-110357884D01*
X93402259Y-110357886D01*
X93251346Y-110450971D01*
X93125971Y-110576346D01*
X93032886Y-110727259D01*
X93032884Y-110727264D01*
X92977113Y-110895572D01*
X92966500Y-110999447D01*
X92966500Y-111800537D01*
X88025500Y-111800537D01*
X88025500Y-93224000D01*
X88045185Y-93156961D01*
X88097989Y-93111206D01*
X88149500Y-93100000D01*
X90196683Y-93100000D01*
X90255135Y-93114641D01*
G37*
%TD.AperFunction*%
%TD*%
%TA.AperFunction,Conductor*%
%TO.N,GND*%
G36*
X163716621Y-60045502D02*
G01*
X163763114Y-60099158D01*
X163774500Y-60151500D01*
X163774500Y-120848500D01*
X163754498Y-120916621D01*
X163700842Y-120963114D01*
X163648500Y-120974500D01*
X113539500Y-120974500D01*
X113471379Y-120954498D01*
X113424886Y-120900842D01*
X113413500Y-120848500D01*
X113413500Y-112113207D01*
X113413429Y-112107212D01*
X113413425Y-112106995D01*
X113413319Y-112101079D01*
X113389081Y-111956946D01*
X113371864Y-111903087D01*
X113367808Y-111890399D01*
X113367805Y-111890392D01*
X113303944Y-111758930D01*
X113303358Y-111758285D01*
X113302976Y-111757499D01*
X113298894Y-111751468D01*
X113299761Y-111750880D01*
X113272336Y-111694424D01*
X113274659Y-111675000D01*
X115187004Y-111675000D01*
X115206951Y-111903002D01*
X115266186Y-112124068D01*
X115266188Y-112124073D01*
X115362913Y-112331501D01*
X115412899Y-112402888D01*
X116015638Y-111800149D01*
X116040507Y-111884844D01*
X116118239Y-112005798D01*
X116226900Y-112099952D01*
X116357685Y-112159680D01*
X116372412Y-112161797D01*
X115772110Y-112762098D01*
X115772110Y-112762100D01*
X115843498Y-112812086D01*
X116050926Y-112908811D01*
X116050931Y-112908813D01*
X116271999Y-112968048D01*
X116271995Y-112968048D01*
X116500000Y-112987995D01*
X116728002Y-112968048D01*
X116949068Y-112908813D01*
X116949073Y-112908811D01*
X117156497Y-112812088D01*
X117227888Y-112762099D01*
X117227888Y-112762097D01*
X116627588Y-112161797D01*
X116642315Y-112159680D01*
X116773100Y-112099952D01*
X116881761Y-112005798D01*
X116959493Y-111884844D01*
X116984360Y-111800151D01*
X117587097Y-112402888D01*
X117587099Y-112402888D01*
X117637088Y-112331497D01*
X117733811Y-112124073D01*
X117733813Y-112124068D01*
X117793048Y-111903002D01*
X117812995Y-111675000D01*
X120266502Y-111675000D01*
X120273788Y-111758285D01*
X120286457Y-111903086D01*
X120341152Y-112107212D01*
X120345716Y-112124243D01*
X120442477Y-112331749D01*
X120573802Y-112519300D01*
X120735700Y-112681198D01*
X120923251Y-112812523D01*
X121130757Y-112909284D01*
X121351913Y-112968543D01*
X121580000Y-112988498D01*
X121808087Y-112968543D01*
X122029243Y-112909284D01*
X122236749Y-112812523D01*
X122424300Y-112681198D01*
X122586198Y-112519300D01*
X122717523Y-112331749D01*
X122814284Y-112124243D01*
X122873543Y-111903087D01*
X122893498Y-111675000D01*
X122873543Y-111446913D01*
X122814284Y-111225757D01*
X122717523Y-111018251D01*
X122586198Y-110830700D01*
X122424300Y-110668802D01*
X122308757Y-110587898D01*
X122236749Y-110537477D01*
X122029246Y-110440717D01*
X122029240Y-110440715D01*
X121935771Y-110415670D01*
X121808087Y-110381457D01*
X121580000Y-110361502D01*
X121351913Y-110381457D01*
X121130759Y-110440715D01*
X121130753Y-110440717D01*
X120923250Y-110537477D01*
X120735703Y-110668799D01*
X120735697Y-110668804D01*
X120573804Y-110830697D01*
X120573799Y-110830703D01*
X120442477Y-111018250D01*
X120345717Y-111225753D01*
X120345715Y-111225759D01*
X120304811Y-111378414D01*
X120286457Y-111446913D01*
X120266502Y-111675000D01*
X117812995Y-111675000D01*
X117793048Y-111446997D01*
X117733813Y-111225931D01*
X117733811Y-111225926D01*
X117637086Y-111018498D01*
X117587100Y-110947110D01*
X117587098Y-110947110D01*
X116984360Y-111549848D01*
X116959493Y-111465156D01*
X116881761Y-111344202D01*
X116773100Y-111250048D01*
X116642315Y-111190320D01*
X116627587Y-111188202D01*
X117227888Y-110587899D01*
X117227888Y-110587898D01*
X117156501Y-110537913D01*
X116949073Y-110441188D01*
X116949068Y-110441186D01*
X116728000Y-110381951D01*
X116728004Y-110381951D01*
X116500000Y-110362004D01*
X116271997Y-110381951D01*
X116050931Y-110441186D01*
X116050926Y-110441188D01*
X115843500Y-110537913D01*
X115772109Y-110587900D01*
X116372411Y-111188202D01*
X116357685Y-111190320D01*
X116226900Y-111250048D01*
X116118239Y-111344202D01*
X116040507Y-111465156D01*
X116015639Y-111549848D01*
X115412900Y-110947109D01*
X115362913Y-111018500D01*
X115266188Y-111225926D01*
X115266186Y-111225931D01*
X115206951Y-111446997D01*
X115187004Y-111675000D01*
X113274659Y-111675000D01*
X113280765Y-111623930D01*
X113301366Y-111591019D01*
X113312297Y-111578405D01*
X113373014Y-111445457D01*
X113392699Y-111378418D01*
X113392700Y-111378414D01*
X113413500Y-111233744D01*
X113413500Y-105000003D01*
X152686641Y-105000003D01*
X152706064Y-105358237D01*
X152764103Y-105712269D01*
X152860084Y-106057959D01*
X152860085Y-106057961D01*
X152992877Y-106391243D01*
X153160925Y-106708215D01*
X153362258Y-107005159D01*
X153594516Y-107278595D01*
X153854962Y-107525304D01*
X153854977Y-107525317D01*
X154140586Y-107742431D01*
X154447995Y-107927393D01*
X154773599Y-108078033D01*
X155113583Y-108192587D01*
X155463958Y-108269711D01*
X155820618Y-108308500D01*
X155820626Y-108308500D01*
X156179374Y-108308500D01*
X156179382Y-108308500D01*
X156536042Y-108269711D01*
X156886417Y-108192587D01*
X157226401Y-108078033D01*
X157552005Y-107927393D01*
X157859414Y-107742431D01*
X158145023Y-107525317D01*
X158405484Y-107278595D01*
X158637742Y-107005159D01*
X158839075Y-106708215D01*
X159007123Y-106391243D01*
X159139915Y-106057961D01*
X159235895Y-105712274D01*
X159293936Y-105358237D01*
X159313359Y-105000000D01*
X159293936Y-104641763D01*
X159235895Y-104287726D01*
X159139915Y-103942039D01*
X159007123Y-103608757D01*
X158839075Y-103291785D01*
X158637742Y-102994841D01*
X158405484Y-102721405D01*
X158405483Y-102721404D01*
X158145037Y-102474695D01*
X158145022Y-102474682D01*
X157859418Y-102257572D01*
X157859412Y-102257568D01*
X157552010Y-102072610D01*
X157552009Y-102072609D01*
X157552005Y-102072607D01*
X157226401Y-101921967D01*
X156886417Y-101807413D01*
X156838915Y-101796956D01*
X156536054Y-101730291D01*
X156536030Y-101730287D01*
X156179389Y-101691500D01*
X156179382Y-101691500D01*
X155820618Y-101691500D01*
X155820610Y-101691500D01*
X155463969Y-101730287D01*
X155463945Y-101730291D01*
X155113587Y-101807412D01*
X155113573Y-101807416D01*
X154773601Y-101921966D01*
X154447989Y-102072610D01*
X154140587Y-102257568D01*
X154140581Y-102257572D01*
X153854977Y-102474682D01*
X153854962Y-102474695D01*
X153594516Y-102721404D01*
X153362256Y-102994843D01*
X153160924Y-103291785D01*
X153160922Y-103291789D01*
X152992876Y-103608759D01*
X152992872Y-103608768D01*
X152860084Y-103942040D01*
X152764103Y-104287730D01*
X152706064Y-104641762D01*
X152686641Y-104999996D01*
X152686641Y-105000003D01*
X113413500Y-105000003D01*
X113413500Y-97475000D01*
X115087004Y-97475000D01*
X115106951Y-97703002D01*
X115166186Y-97924068D01*
X115166188Y-97924073D01*
X115262913Y-98131501D01*
X115312899Y-98202888D01*
X115915638Y-97600149D01*
X115940507Y-97684844D01*
X116018239Y-97805798D01*
X116126900Y-97899952D01*
X116257685Y-97959680D01*
X116272412Y-97961797D01*
X115672110Y-98562098D01*
X115672110Y-98562100D01*
X115743498Y-98612086D01*
X115950926Y-98708811D01*
X115950931Y-98708813D01*
X116171999Y-98768048D01*
X116171995Y-98768048D01*
X116400000Y-98787995D01*
X116628002Y-98768048D01*
X116849068Y-98708813D01*
X116849073Y-98708811D01*
X117056497Y-98612088D01*
X117127888Y-98562099D01*
X117127888Y-98562097D01*
X116527588Y-97961797D01*
X116542315Y-97959680D01*
X116673100Y-97899952D01*
X116781761Y-97805798D01*
X116859493Y-97684844D01*
X116884360Y-97600151D01*
X117487097Y-98202888D01*
X117487099Y-98202888D01*
X117537088Y-98131497D01*
X117633811Y-97924073D01*
X117633813Y-97924068D01*
X117693048Y-97703002D01*
X117712995Y-97475000D01*
X120166502Y-97475000D01*
X120186457Y-97703086D01*
X120245715Y-97924240D01*
X120245717Y-97924246D01*
X120342477Y-98131749D01*
X120405064Y-98221133D01*
X120473802Y-98319300D01*
X120635700Y-98481198D01*
X120823251Y-98612523D01*
X121030757Y-98709284D01*
X121251913Y-98768543D01*
X121480000Y-98788498D01*
X121708087Y-98768543D01*
X121929243Y-98709284D01*
X122136749Y-98612523D01*
X122324300Y-98481198D01*
X122486198Y-98319300D01*
X122617523Y-98131749D01*
X122714284Y-97924243D01*
X122773543Y-97703087D01*
X122793498Y-97475000D01*
X122773543Y-97246913D01*
X122714284Y-97025757D01*
X122617523Y-96818251D01*
X122486198Y-96630700D01*
X122324300Y-96468802D01*
X122208757Y-96387898D01*
X122136749Y-96337477D01*
X121929246Y-96240717D01*
X121929240Y-96240715D01*
X121835771Y-96215670D01*
X121708087Y-96181457D01*
X121480000Y-96161502D01*
X121251913Y-96181457D01*
X121030759Y-96240715D01*
X121030753Y-96240717D01*
X120823250Y-96337477D01*
X120635703Y-96468799D01*
X120635697Y-96468804D01*
X120473804Y-96630697D01*
X120473799Y-96630703D01*
X120342477Y-96818250D01*
X120245717Y-97025753D01*
X120245715Y-97025759D01*
X120186457Y-97246913D01*
X120166502Y-97475000D01*
X117712995Y-97475000D01*
X117693048Y-97246997D01*
X117633813Y-97025931D01*
X117633811Y-97025926D01*
X117537086Y-96818498D01*
X117487100Y-96747110D01*
X117487098Y-96747110D01*
X116884360Y-97349848D01*
X116859493Y-97265156D01*
X116781761Y-97144202D01*
X116673100Y-97050048D01*
X116542315Y-96990320D01*
X116527587Y-96988202D01*
X117127888Y-96387899D01*
X117127888Y-96387898D01*
X117056501Y-96337913D01*
X116849073Y-96241188D01*
X116849068Y-96241186D01*
X116628000Y-96181951D01*
X116628004Y-96181951D01*
X116400000Y-96162004D01*
X116171997Y-96181951D01*
X115950931Y-96241186D01*
X115950926Y-96241188D01*
X115743500Y-96337913D01*
X115672109Y-96387900D01*
X116272411Y-96988202D01*
X116257685Y-96990320D01*
X116126900Y-97050048D01*
X116018239Y-97144202D01*
X115940507Y-97265156D01*
X115915639Y-97349848D01*
X115312900Y-96747109D01*
X115262913Y-96818500D01*
X115166188Y-97025926D01*
X115166186Y-97025931D01*
X115106951Y-97246997D01*
X115087004Y-97475000D01*
X113413500Y-97475000D01*
X113413500Y-94437500D01*
X113401764Y-94328343D01*
X113390558Y-94276832D01*
X113357647Y-94177954D01*
X113355114Y-94107005D01*
X113381976Y-94055652D01*
X113412297Y-94020661D01*
X113473014Y-93887713D01*
X113492699Y-93820674D01*
X113492700Y-93820670D01*
X113513500Y-93676000D01*
X113513500Y-91400000D01*
X113513500Y-90100000D01*
X117486496Y-90100000D01*
X117506457Y-90289927D01*
X117536526Y-90382470D01*
X117565473Y-90471556D01*
X117565476Y-90471561D01*
X117660958Y-90636941D01*
X117660965Y-90636951D01*
X117788744Y-90778864D01*
X117788747Y-90778866D01*
X117943248Y-90891118D01*
X118117712Y-90968794D01*
X118304513Y-91008500D01*
X118495487Y-91008500D01*
X118682288Y-90968794D01*
X118856752Y-90891118D01*
X119011253Y-90778866D01*
X119011255Y-90778864D01*
X119139034Y-90636951D01*
X119139035Y-90636949D01*
X119139040Y-90636944D01*
X119234527Y-90471556D01*
X119293542Y-90289928D01*
X119313504Y-90100000D01*
X119293542Y-89910072D01*
X119234527Y-89728444D01*
X119160847Y-89600827D01*
X119139042Y-89563059D01*
X119139041Y-89563058D01*
X119139040Y-89563056D01*
X119065863Y-89481784D01*
X119035146Y-89417776D01*
X119033500Y-89397474D01*
X119033500Y-84050524D01*
X119053502Y-83982403D01*
X119065858Y-83966220D01*
X119139040Y-83884944D01*
X119139042Y-83884941D01*
X119143459Y-83880036D01*
X119144485Y-83880960D01*
X119194910Y-83842082D01*
X119240617Y-83833500D01*
X127991800Y-83833500D01*
X128059921Y-83853502D01*
X128085437Y-83875190D01*
X128088747Y-83878866D01*
X128243248Y-83991118D01*
X128417712Y-84068794D01*
X128604513Y-84108500D01*
X128795487Y-84108500D01*
X128982288Y-84068794D01*
X129156752Y-83991118D01*
X129311253Y-83878866D01*
X129334091Y-83853502D01*
X129439034Y-83736951D01*
X129439035Y-83736949D01*
X129439040Y-83736944D01*
X129534527Y-83571556D01*
X129593542Y-83389928D01*
X129613504Y-83200000D01*
X129593542Y-83010072D01*
X129534527Y-82828444D01*
X129439040Y-82663056D01*
X129439038Y-82663054D01*
X129439034Y-82663048D01*
X129311255Y-82521135D01*
X129156752Y-82408882D01*
X128982288Y-82331206D01*
X128795487Y-82291500D01*
X128604513Y-82291500D01*
X128417711Y-82331206D01*
X128243247Y-82408882D01*
X128088747Y-82521133D01*
X128085437Y-82524810D01*
X128024991Y-82562050D01*
X127991800Y-82566500D01*
X118905136Y-82566500D01*
X118853889Y-82555607D01*
X118682288Y-82479206D01*
X118495487Y-82439500D01*
X118304513Y-82439500D01*
X118117711Y-82479206D01*
X117943247Y-82556882D01*
X117788744Y-82669135D01*
X117660965Y-82811048D01*
X117660958Y-82811058D01*
X117565476Y-82976438D01*
X117565473Y-82976445D01*
X117506457Y-83158072D01*
X117486496Y-83348000D01*
X117506457Y-83537927D01*
X117517384Y-83571556D01*
X117565473Y-83719556D01*
X117565476Y-83719561D01*
X117657449Y-83878864D01*
X117660960Y-83884944D01*
X117734137Y-83966215D01*
X117764853Y-84030220D01*
X117766500Y-84050524D01*
X117766500Y-89397474D01*
X117746498Y-89465595D01*
X117734137Y-89481784D01*
X117660957Y-89563059D01*
X117565476Y-89728438D01*
X117565473Y-89728445D01*
X117506457Y-89910072D01*
X117486496Y-90100000D01*
X113513500Y-90100000D01*
X113513500Y-81741838D01*
X113512450Y-81718636D01*
X113509378Y-81684765D01*
X113508921Y-81681417D01*
X113502345Y-81633235D01*
X113502470Y-81598262D01*
X113513500Y-81521549D01*
X113513500Y-80898830D01*
X113533502Y-80830709D01*
X113587158Y-80784216D01*
X113657432Y-80774112D01*
X113713559Y-80796893D01*
X113843248Y-80891118D01*
X114017712Y-80968794D01*
X114204513Y-81008500D01*
X114260406Y-81008500D01*
X114328527Y-81028502D01*
X114349501Y-81045405D01*
X115330253Y-82026157D01*
X115340220Y-82038597D01*
X115340447Y-82038410D01*
X115345499Y-82044517D01*
X115396595Y-82092499D01*
X115417725Y-82113630D01*
X115423268Y-82117930D01*
X115427781Y-82121785D01*
X115462179Y-82154086D01*
X115462180Y-82154086D01*
X115462182Y-82154088D01*
X115479929Y-82163844D01*
X115496459Y-82174702D01*
X115512458Y-82187113D01*
X115522985Y-82191667D01*
X115555773Y-82205856D01*
X115561068Y-82208450D01*
X115602440Y-82231195D01*
X115602442Y-82231195D01*
X115602814Y-82231400D01*
X115635746Y-82257502D01*
X115688747Y-82316366D01*
X115843248Y-82428618D01*
X116017712Y-82506294D01*
X116204513Y-82546000D01*
X116395487Y-82546000D01*
X116582288Y-82506294D01*
X116756752Y-82428618D01*
X116911253Y-82316366D01*
X116911255Y-82316364D01*
X117039034Y-82174451D01*
X117039035Y-82174449D01*
X117039040Y-82174444D01*
X117134527Y-82009056D01*
X117193542Y-81827428D01*
X117213504Y-81637500D01*
X117193542Y-81447572D01*
X117134527Y-81265944D01*
X117039040Y-81100556D01*
X117039038Y-81100554D01*
X117039034Y-81100548D01*
X116911255Y-80958635D01*
X116911256Y-80958635D01*
X116760439Y-80849060D01*
X116717085Y-80792837D01*
X116708500Y-80747124D01*
X116708500Y-75650868D01*
X117560226Y-75650868D01*
X117580187Y-75840795D01*
X117606292Y-75921134D01*
X117639203Y-76022424D01*
X117639206Y-76022429D01*
X117734688Y-76187809D01*
X117734695Y-76187819D01*
X117862474Y-76329732D01*
X117862477Y-76329734D01*
X118016978Y-76441986D01*
X118191442Y-76519662D01*
X118378243Y-76559368D01*
X118575820Y-76559368D01*
X118575820Y-76562119D01*
X118633678Y-76572674D01*
X118685547Y-76621152D01*
X118702972Y-76689977D01*
X118680421Y-76757297D01*
X118666157Y-76774332D01*
X118549500Y-76890991D01*
X118487188Y-76925016D01*
X118460404Y-76927896D01*
X118404513Y-76927896D01*
X118217711Y-76967602D01*
X118043247Y-77045278D01*
X117888744Y-77157531D01*
X117760965Y-77299444D01*
X117760958Y-77299454D01*
X117665476Y-77464834D01*
X117665473Y-77464840D01*
X117651287Y-77508500D01*
X117606457Y-77646468D01*
X117586496Y-77836396D01*
X117606457Y-78026323D01*
X117621018Y-78071135D01*
X117665473Y-78207952D01*
X117665476Y-78207957D01*
X117760958Y-78373337D01*
X117760965Y-78373347D01*
X117888744Y-78515260D01*
X117888747Y-78515262D01*
X118043248Y-78627514D01*
X118217712Y-78705190D01*
X118404513Y-78744896D01*
X118595487Y-78744896D01*
X118782288Y-78705190D01*
X118956752Y-78627514D01*
X119111253Y-78515262D01*
X119111255Y-78515260D01*
X119239034Y-78373347D01*
X119239035Y-78373345D01*
X119239040Y-78373340D01*
X119334527Y-78207952D01*
X119393542Y-78026324D01*
X119410907Y-77861102D01*
X119437920Y-77795446D01*
X119447125Y-77785175D01*
X119461899Y-77770402D01*
X119524212Y-77736379D01*
X119550991Y-77733500D01*
X123591800Y-77733500D01*
X123659921Y-77753502D01*
X123685437Y-77775190D01*
X123688747Y-77778866D01*
X123843248Y-77891118D01*
X124017712Y-77968794D01*
X124204513Y-78008500D01*
X124395487Y-78008500D01*
X124582288Y-77968794D01*
X124756752Y-77891118D01*
X124911253Y-77778866D01*
X125028660Y-77648472D01*
X125089103Y-77611234D01*
X125160087Y-77612585D01*
X125211389Y-77643689D01*
X126356357Y-78788657D01*
X126366324Y-78801097D01*
X126366551Y-78800910D01*
X126371603Y-78807017D01*
X126422699Y-78854999D01*
X126443829Y-78876130D01*
X126449372Y-78880430D01*
X126453885Y-78884285D01*
X126488283Y-78916586D01*
X126488284Y-78916586D01*
X126488286Y-78916588D01*
X126506033Y-78926344D01*
X126522563Y-78937202D01*
X126538563Y-78949613D01*
X126560140Y-78958950D01*
X126581855Y-78968347D01*
X126587189Y-78970959D01*
X126628544Y-78993695D01*
X126648166Y-78998733D01*
X126666867Y-79005135D01*
X126685459Y-79013181D01*
X126732074Y-79020563D01*
X126737846Y-79021758D01*
X126783574Y-79033500D01*
X126803835Y-79033500D01*
X126823543Y-79035050D01*
X126843547Y-79038219D01*
X126880540Y-79034722D01*
X126950240Y-79048225D01*
X126986034Y-79075853D01*
X126988747Y-79078866D01*
X127143248Y-79191118D01*
X127317712Y-79268794D01*
X127504513Y-79308500D01*
X127695487Y-79308500D01*
X127882288Y-79268794D01*
X128056752Y-79191118D01*
X128211253Y-79078866D01*
X128213966Y-79075853D01*
X128339034Y-78936951D01*
X128339035Y-78936949D01*
X128339040Y-78936944D01*
X128434527Y-78771556D01*
X128493542Y-78589928D01*
X128513504Y-78400000D01*
X128493542Y-78210072D01*
X128434527Y-78028444D01*
X128339040Y-77863056D01*
X128339038Y-77863054D01*
X128339034Y-77863048D01*
X128226595Y-77738172D01*
X128195877Y-77674165D01*
X128204642Y-77603711D01*
X128231136Y-77564767D01*
X128250504Y-77545400D01*
X128312818Y-77511378D01*
X128339595Y-77508500D01*
X128395487Y-77508500D01*
X128582288Y-77468794D01*
X128756752Y-77391118D01*
X128911253Y-77278866D01*
X129019631Y-77158500D01*
X129039034Y-77136951D01*
X129039035Y-77136949D01*
X129039040Y-77136944D01*
X129134527Y-76971556D01*
X129193542Y-76789928D01*
X129213504Y-76600000D01*
X129193542Y-76410072D01*
X129134527Y-76228444D01*
X129039040Y-76063056D01*
X129039038Y-76063054D01*
X129039034Y-76063048D01*
X128911255Y-75921135D01*
X128756752Y-75808882D01*
X128582288Y-75731206D01*
X128395487Y-75691500D01*
X128204513Y-75691500D01*
X128017711Y-75731206D01*
X127843247Y-75808882D01*
X127688745Y-75921134D01*
X127647194Y-75967281D01*
X127586747Y-76004520D01*
X127515763Y-76003167D01*
X127479498Y-75984905D01*
X127373031Y-75907552D01*
X127198567Y-75829876D01*
X127011766Y-75790170D01*
X126888460Y-75790170D01*
X126820339Y-75770168D01*
X126799365Y-75753265D01*
X126770405Y-75724305D01*
X126736379Y-75661993D01*
X126733500Y-75635210D01*
X126733500Y-75614594D01*
X126753502Y-75546473D01*
X126770405Y-75525499D01*
X128750500Y-73545405D01*
X128812812Y-73511379D01*
X128839595Y-73508500D01*
X128913428Y-73508500D01*
X128981549Y-73528502D01*
X129028042Y-73582158D01*
X129038738Y-73621330D01*
X129056457Y-73789927D01*
X129086526Y-73882470D01*
X129115473Y-73971556D01*
X129115476Y-73971561D01*
X129210958Y-74136941D01*
X129210965Y-74136951D01*
X129338744Y-74278864D01*
X129338747Y-74278866D01*
X129493248Y-74391118D01*
X129667712Y-74468794D01*
X129854513Y-74508500D01*
X129910406Y-74508500D01*
X129978527Y-74528502D01*
X129999501Y-74545405D01*
X145255501Y-89801405D01*
X145289527Y-89863717D01*
X145284462Y-89934532D01*
X145241915Y-89991368D01*
X145175395Y-90016179D01*
X145166406Y-90016500D01*
X130564595Y-90016500D01*
X130496474Y-89996498D01*
X130475500Y-89979595D01*
X130287763Y-89791858D01*
X130253737Y-89729546D01*
X130258802Y-89658731D01*
X130301349Y-89601895D01*
X130302719Y-89600883D01*
X130436253Y-89503866D01*
X130439563Y-89500190D01*
X130500009Y-89462950D01*
X130533200Y-89458500D01*
X140066147Y-89458500D01*
X140081988Y-89460249D01*
X140082016Y-89459956D01*
X140089902Y-89460700D01*
X140089909Y-89460702D01*
X140159958Y-89458500D01*
X140189856Y-89458500D01*
X140196818Y-89457619D01*
X140202719Y-89457154D01*
X140249889Y-89455673D01*
X140249894Y-89455671D01*
X140257718Y-89454433D01*
X140257963Y-89455979D01*
X140308870Y-89454112D01*
X140329513Y-89458500D01*
X140329514Y-89458500D01*
X140520487Y-89458500D01*
X140707288Y-89418794D01*
X140881752Y-89341118D01*
X141036253Y-89228866D01*
X141164040Y-89086944D01*
X141259527Y-88921556D01*
X141318542Y-88739928D01*
X141338504Y-88550000D01*
X141318542Y-88360072D01*
X141259527Y-88178444D01*
X141164040Y-88013056D01*
X141164038Y-88013054D01*
X141164034Y-88013048D01*
X141036255Y-87871135D01*
X140881752Y-87758882D01*
X140707288Y-87681206D01*
X140520487Y-87641500D01*
X140329513Y-87641500D01*
X140142711Y-87681206D01*
X139968247Y-87758882D01*
X139813744Y-87871135D01*
X139685965Y-88013048D01*
X139685958Y-88013058D01*
X139619308Y-88128500D01*
X139567925Y-88177493D01*
X139510189Y-88191500D01*
X130533200Y-88191500D01*
X130465079Y-88171498D01*
X130439563Y-88149810D01*
X130436252Y-88146133D01*
X130281752Y-88033882D01*
X130107288Y-87956206D01*
X129920487Y-87916500D01*
X129729513Y-87916500D01*
X129542711Y-87956206D01*
X129368247Y-88033882D01*
X129213744Y-88146135D01*
X129085965Y-88288048D01*
X129085958Y-88288058D01*
X129019308Y-88403500D01*
X128967925Y-88452493D01*
X128910189Y-88466500D01*
X128879513Y-88466500D01*
X128692711Y-88506206D01*
X128518247Y-88583882D01*
X128363749Y-88696132D01*
X128363748Y-88696132D01*
X128354510Y-88706393D01*
X128294064Y-88743631D01*
X128223080Y-88742279D01*
X128164096Y-88702764D01*
X128151756Y-88685081D01*
X128139041Y-88663058D01*
X128139034Y-88663048D01*
X128011255Y-88521135D01*
X127856752Y-88408882D01*
X127682288Y-88331206D01*
X127495487Y-88291500D01*
X127304513Y-88291500D01*
X127117711Y-88331206D01*
X126943247Y-88408882D01*
X126788744Y-88521135D01*
X126660965Y-88663048D01*
X126660958Y-88663058D01*
X126565476Y-88828438D01*
X126565473Y-88828444D01*
X126550999Y-88872986D01*
X126506457Y-89010072D01*
X126486496Y-89200000D01*
X126506457Y-89389927D01*
X126529307Y-89460249D01*
X126565473Y-89571556D01*
X126565476Y-89571561D01*
X126660958Y-89736941D01*
X126660965Y-89736951D01*
X126788744Y-89878864D01*
X126788747Y-89878866D01*
X126943248Y-89991118D01*
X127117712Y-90068794D01*
X127304513Y-90108500D01*
X127495486Y-90108500D01*
X127495487Y-90108500D01*
X127587002Y-90089047D01*
X127657792Y-90094448D01*
X127702294Y-90123198D01*
X136867753Y-99288657D01*
X136877720Y-99301097D01*
X136877947Y-99300910D01*
X136882999Y-99307017D01*
X136883000Y-99307018D01*
X136934095Y-99354999D01*
X136955231Y-99376135D01*
X136960770Y-99380431D01*
X136965282Y-99384285D01*
X136999678Y-99416585D01*
X136999682Y-99416588D01*
X137017430Y-99426345D01*
X137033957Y-99437201D01*
X137049960Y-99449614D01*
X137093259Y-99468351D01*
X137098585Y-99470960D01*
X137139935Y-99493693D01*
X137139938Y-99493694D01*
X137139940Y-99493695D01*
X137159562Y-99498733D01*
X137178263Y-99505135D01*
X137190814Y-99510567D01*
X137196852Y-99513180D01*
X137196853Y-99513180D01*
X137196855Y-99513181D01*
X137243477Y-99520564D01*
X137249262Y-99521763D01*
X137294970Y-99533500D01*
X137315224Y-99533500D01*
X137334934Y-99535051D01*
X137337141Y-99535400D01*
X137354943Y-99538220D01*
X137388870Y-99535012D01*
X137401917Y-99533780D01*
X137407850Y-99533500D01*
X146841800Y-99533500D01*
X146909921Y-99553502D01*
X146935437Y-99575190D01*
X146938747Y-99578866D01*
X147093248Y-99691118D01*
X147267712Y-99768794D01*
X147454513Y-99808500D01*
X147645487Y-99808500D01*
X147832288Y-99768794D01*
X148006752Y-99691118D01*
X148161253Y-99578866D01*
X148202101Y-99533500D01*
X148289034Y-99436951D01*
X148289035Y-99436949D01*
X148289040Y-99436944D01*
X148384527Y-99271556D01*
X148443542Y-99089928D01*
X148463504Y-98900000D01*
X148443542Y-98710072D01*
X148384527Y-98528444D01*
X148289040Y-98363056D01*
X148289038Y-98363054D01*
X148289034Y-98363048D01*
X148161255Y-98221135D01*
X148006752Y-98108882D01*
X147832288Y-98031206D01*
X147645487Y-97991500D01*
X147454513Y-97991500D01*
X147267711Y-98031206D01*
X147093247Y-98108882D01*
X146938747Y-98221133D01*
X146935437Y-98224810D01*
X146874991Y-98262050D01*
X146841800Y-98266500D01*
X137689594Y-98266500D01*
X137621473Y-98246498D01*
X137600499Y-98229595D01*
X130869500Y-91498595D01*
X130835474Y-91436283D01*
X130840539Y-91365468D01*
X130883086Y-91308632D01*
X130949606Y-91283821D01*
X130958595Y-91283500D01*
X147566300Y-91283500D01*
X147634421Y-91303502D01*
X147659937Y-91325190D01*
X147663247Y-91328866D01*
X147817748Y-91441118D01*
X147992212Y-91518794D01*
X148179013Y-91558500D01*
X148369987Y-91558500D01*
X148556788Y-91518794D01*
X148731252Y-91441118D01*
X148885753Y-91328866D01*
X149013540Y-91186944D01*
X149109027Y-91021556D01*
X149168042Y-90839928D01*
X149188004Y-90650000D01*
X149168042Y-90460072D01*
X149115522Y-90298436D01*
X149113495Y-90227469D01*
X149150158Y-90166671D01*
X149213870Y-90135346D01*
X149235356Y-90133500D01*
X150534700Y-90133500D01*
X150602821Y-90153502D01*
X150623795Y-90170405D01*
X155902960Y-95449570D01*
X155936986Y-95511882D01*
X155939175Y-95525494D01*
X155956457Y-95689927D01*
X155986526Y-95782470D01*
X156015473Y-95871556D01*
X156015476Y-95871561D01*
X156110958Y-96036941D01*
X156110965Y-96036951D01*
X156238744Y-96178864D01*
X156238747Y-96178866D01*
X156393248Y-96291118D01*
X156567712Y-96368794D01*
X156754513Y-96408500D01*
X156945487Y-96408500D01*
X157132288Y-96368794D01*
X157306752Y-96291118D01*
X157461253Y-96178866D01*
X157589040Y-96036944D01*
X157684527Y-95871556D01*
X157743542Y-95689928D01*
X157763504Y-95500000D01*
X157743542Y-95310072D01*
X157684527Y-95128444D01*
X157649537Y-95067841D01*
X157632800Y-94998846D01*
X157649538Y-94941840D01*
X157697075Y-94859505D01*
X157756090Y-94677877D01*
X157776052Y-94487949D01*
X157756090Y-94298021D01*
X157697075Y-94116393D01*
X157601588Y-93951005D01*
X157601586Y-93951003D01*
X157601582Y-93950997D01*
X157473803Y-93809084D01*
X157319300Y-93696831D01*
X157144836Y-93619155D01*
X156958035Y-93579449D01*
X156902142Y-93579449D01*
X156834021Y-93559447D01*
X156813047Y-93542544D01*
X152017746Y-88747242D01*
X151983720Y-88684930D01*
X151988785Y-88614115D01*
X152031332Y-88557279D01*
X152097852Y-88532468D01*
X152106841Y-88532147D01*
X156213756Y-88532147D01*
X156281877Y-88552149D01*
X156307393Y-88573837D01*
X156310703Y-88577513D01*
X156465204Y-88689765D01*
X156639668Y-88767441D01*
X156826469Y-88807147D01*
X157017443Y-88807147D01*
X157204244Y-88767441D01*
X157378708Y-88689765D01*
X157533209Y-88577513D01*
X157597414Y-88506206D01*
X157660990Y-88435598D01*
X157660991Y-88435596D01*
X157660996Y-88435591D01*
X157756483Y-88270203D01*
X157815498Y-88088575D01*
X157835460Y-87898647D01*
X157815498Y-87708719D01*
X157756483Y-87527091D01*
X157735504Y-87490755D01*
X157718767Y-87421761D01*
X157735506Y-87364755D01*
X157789491Y-87271251D01*
X157789490Y-87271251D01*
X157789494Y-87271246D01*
X157848509Y-87089618D01*
X157868471Y-86899690D01*
X157848509Y-86709762D01*
X157789494Y-86528134D01*
X157694007Y-86362746D01*
X157694005Y-86362744D01*
X157694001Y-86362738D01*
X157566222Y-86220825D01*
X157411719Y-86108572D01*
X157237255Y-86030896D01*
X157050454Y-85991190D01*
X156859480Y-85991190D01*
X156672678Y-86030896D01*
X156498214Y-86108572D01*
X156343714Y-86220823D01*
X156340404Y-86224500D01*
X156279958Y-86261740D01*
X156246767Y-86266190D01*
X154583904Y-86266190D01*
X154515783Y-86246188D01*
X154469290Y-86192532D01*
X154459186Y-86122258D01*
X154488680Y-86057678D01*
X154494809Y-86051095D01*
X156437403Y-84108500D01*
X157088657Y-83457245D01*
X157101092Y-83447284D01*
X157100905Y-83447057D01*
X157107009Y-83442005D01*
X157107018Y-83442000D01*
X157154999Y-83390904D01*
X157176135Y-83369769D01*
X157180437Y-83364221D01*
X157184267Y-83359735D01*
X157216586Y-83325321D01*
X157226339Y-83307578D01*
X157237193Y-83291051D01*
X157249614Y-83275041D01*
X157268359Y-83231719D01*
X157270958Y-83226415D01*
X157293695Y-83185060D01*
X157298733Y-83165434D01*
X157305137Y-83146732D01*
X157313180Y-83128147D01*
X157313179Y-83128147D01*
X157313181Y-83128145D01*
X157320561Y-83081547D01*
X157321762Y-83075740D01*
X157333500Y-83030030D01*
X157333500Y-83009775D01*
X157335051Y-82990063D01*
X157338220Y-82970057D01*
X157335629Y-82942651D01*
X157333780Y-82923080D01*
X157333500Y-82917148D01*
X157333500Y-80452524D01*
X157353502Y-80384403D01*
X157365858Y-80368220D01*
X157439040Y-80286944D01*
X157534527Y-80121556D01*
X157593542Y-79939928D01*
X157613504Y-79750000D01*
X157593542Y-79560072D01*
X157534527Y-79378444D01*
X157496742Y-79313000D01*
X157480005Y-79244005D01*
X157496743Y-79186999D01*
X157504093Y-79174268D01*
X157534527Y-79121556D01*
X157593542Y-78939928D01*
X157613504Y-78750000D01*
X157593542Y-78560072D01*
X157534527Y-78378444D01*
X157439040Y-78213056D01*
X157439038Y-78213054D01*
X157439034Y-78213048D01*
X157311255Y-78071135D01*
X157156752Y-77958882D01*
X156982288Y-77881206D01*
X156795487Y-77841500D01*
X156604513Y-77841500D01*
X156417711Y-77881206D01*
X156243247Y-77958882D01*
X156088749Y-78071132D01*
X156088747Y-78071133D01*
X156041112Y-78124036D01*
X155982635Y-78160719D01*
X155971409Y-78163980D01*
X155971403Y-78163983D01*
X155953966Y-78174295D01*
X155936220Y-78182989D01*
X155917381Y-78190448D01*
X155917380Y-78190449D01*
X155879213Y-78218178D01*
X155874252Y-78221437D01*
X155833637Y-78245458D01*
X155819307Y-78259787D01*
X155804281Y-78272620D01*
X155787895Y-78284526D01*
X155787894Y-78284526D01*
X155757818Y-78320880D01*
X155753823Y-78325271D01*
X155286336Y-78792757D01*
X155273901Y-78802721D01*
X155274089Y-78802948D01*
X155267980Y-78808001D01*
X155220016Y-78859078D01*
X155198866Y-78880227D01*
X155194560Y-78885777D01*
X155190714Y-78890279D01*
X155158417Y-78924674D01*
X155158411Y-78924683D01*
X155148651Y-78942435D01*
X155137803Y-78958950D01*
X155125386Y-78974958D01*
X155106645Y-79018264D01*
X155104034Y-79023594D01*
X155081305Y-79064939D01*
X155081303Y-79064944D01*
X155076267Y-79084559D01*
X155069864Y-79103262D01*
X155061819Y-79121852D01*
X155054437Y-79168456D01*
X155053233Y-79174268D01*
X155041500Y-79219968D01*
X155041500Y-79240223D01*
X155039949Y-79259933D01*
X155036780Y-79279942D01*
X155036780Y-79279943D01*
X155041220Y-79326917D01*
X155041500Y-79332850D01*
X155041500Y-82460405D01*
X155021498Y-82528526D01*
X155004595Y-82549500D01*
X153424500Y-84129595D01*
X153362188Y-84163621D01*
X153335405Y-84166500D01*
X147614594Y-84166500D01*
X147546473Y-84146498D01*
X147525499Y-84129595D01*
X144416723Y-81020818D01*
X144382697Y-80958506D01*
X144387762Y-80887690D01*
X144430309Y-80830855D01*
X144431757Y-80829787D01*
X144482614Y-80792837D01*
X144536253Y-80753866D01*
X144664040Y-80611944D01*
X144759527Y-80446556D01*
X144818542Y-80264928D01*
X144824162Y-80211449D01*
X144851174Y-80145794D01*
X144860368Y-80135534D01*
X147800500Y-77195405D01*
X147862812Y-77161379D01*
X147889595Y-77158500D01*
X147945487Y-77158500D01*
X148132288Y-77118794D01*
X148306752Y-77041118D01*
X148461253Y-76928866D01*
X148461255Y-76928864D01*
X148589034Y-76786951D01*
X148589035Y-76786949D01*
X148589040Y-76786944D01*
X148684527Y-76621556D01*
X148743542Y-76439928D01*
X148763504Y-76250000D01*
X148743542Y-76060072D01*
X148684527Y-75878444D01*
X148589040Y-75713056D01*
X148589038Y-75713054D01*
X148589034Y-75713048D01*
X148461255Y-75571135D01*
X148306752Y-75458882D01*
X148132288Y-75381206D01*
X147945487Y-75341500D01*
X147754513Y-75341500D01*
X147567711Y-75381206D01*
X147393247Y-75458882D01*
X147238744Y-75571135D01*
X147110965Y-75713048D01*
X147110958Y-75713058D01*
X147015476Y-75878438D01*
X147015473Y-75878445D01*
X146956457Y-76060072D01*
X146939092Y-76225292D01*
X146912079Y-76290949D01*
X146902877Y-76301216D01*
X144074500Y-79129595D01*
X144012188Y-79163620D01*
X143985405Y-79166500D01*
X143829513Y-79166500D01*
X143642711Y-79206206D01*
X143468247Y-79283882D01*
X143313744Y-79396135D01*
X143185965Y-79538048D01*
X143185961Y-79538055D01*
X143175823Y-79555614D01*
X143124439Y-79604606D01*
X143054725Y-79618040D01*
X142988815Y-79591652D01*
X142977610Y-79581706D01*
X137878601Y-74482696D01*
X137844575Y-74420384D01*
X137849640Y-74349569D01*
X137892187Y-74292733D01*
X137893529Y-74291743D01*
X137911253Y-74278866D01*
X138039040Y-74136944D01*
X138134527Y-73971556D01*
X138193542Y-73789928D01*
X138210907Y-73624704D01*
X138237920Y-73559049D01*
X138247104Y-73548799D01*
X139275502Y-72520402D01*
X139337812Y-72486379D01*
X139364595Y-72483500D01*
X155991800Y-72483500D01*
X156059921Y-72503502D01*
X156085437Y-72525190D01*
X156088747Y-72528866D01*
X156243248Y-72641118D01*
X156417712Y-72718794D01*
X156604513Y-72758500D01*
X156795487Y-72758500D01*
X156982288Y-72718794D01*
X157156752Y-72641118D01*
X157311253Y-72528866D01*
X157334091Y-72503502D01*
X157439034Y-72386951D01*
X157439035Y-72386949D01*
X157439040Y-72386944D01*
X157534527Y-72221556D01*
X157593542Y-72039928D01*
X157613504Y-71850000D01*
X157593542Y-71660072D01*
X157534527Y-71478444D01*
X157496742Y-71413000D01*
X157480005Y-71344005D01*
X157496743Y-71286999D01*
X157514806Y-71255713D01*
X157534527Y-71221556D01*
X157593542Y-71039928D01*
X157613504Y-70850000D01*
X157593542Y-70660072D01*
X157534527Y-70478444D01*
X157439040Y-70313056D01*
X157439038Y-70313054D01*
X157439034Y-70313048D01*
X157311255Y-70171135D01*
X157156752Y-70058882D01*
X156982288Y-69981206D01*
X156795487Y-69941500D01*
X156604513Y-69941500D01*
X156417711Y-69981206D01*
X156243247Y-70058882D01*
X156088747Y-70171133D01*
X156085437Y-70174810D01*
X156024991Y-70212050D01*
X155991800Y-70216500D01*
X137183853Y-70216500D01*
X137168011Y-70214750D01*
X137167984Y-70215044D01*
X137160092Y-70214298D01*
X137160091Y-70214298D01*
X137090042Y-70216500D01*
X137060144Y-70216500D01*
X137060140Y-70216500D01*
X137060130Y-70216501D01*
X137053179Y-70217379D01*
X137047267Y-70217844D01*
X137000112Y-70219326D01*
X137000110Y-70219327D01*
X136980655Y-70224978D01*
X136961302Y-70228986D01*
X136941210Y-70231524D01*
X136941202Y-70231526D01*
X136897336Y-70248893D01*
X136891721Y-70250816D01*
X136846407Y-70263982D01*
X136843088Y-70265945D01*
X136828964Y-70274297D01*
X136811218Y-70282990D01*
X136792382Y-70290448D01*
X136754209Y-70318181D01*
X136749248Y-70321440D01*
X136708638Y-70345458D01*
X136694311Y-70359784D01*
X136679285Y-70372617D01*
X136662895Y-70384525D01*
X136662893Y-70384527D01*
X136632808Y-70420892D01*
X136628812Y-70425283D01*
X136199498Y-70854596D01*
X136137188Y-70888620D01*
X136110405Y-70891500D01*
X126830836Y-70891500D01*
X126814994Y-70889750D01*
X126814967Y-70890044D01*
X126807074Y-70889297D01*
X126737011Y-70891500D01*
X126707126Y-70891500D01*
X126707122Y-70891500D01*
X126707111Y-70891501D01*
X126700172Y-70892377D01*
X126694259Y-70892843D01*
X126647093Y-70894325D01*
X126627632Y-70899979D01*
X126608286Y-70903985D01*
X126588186Y-70906525D01*
X126588185Y-70906525D01*
X126544317Y-70923893D01*
X126538702Y-70925815D01*
X126493395Y-70938978D01*
X126493386Y-70938982D01*
X126475944Y-70949297D01*
X126458197Y-70957991D01*
X126439365Y-70965447D01*
X126439363Y-70965448D01*
X126401196Y-70993178D01*
X126396236Y-70996436D01*
X126355618Y-71020459D01*
X126355615Y-71020461D01*
X126341294Y-71034783D01*
X126326265Y-71047619D01*
X126309875Y-71059527D01*
X126279790Y-71095892D01*
X126275794Y-71100283D01*
X124199717Y-73176358D01*
X124137405Y-73210384D01*
X124066589Y-73205319D01*
X124009754Y-73162772D01*
X123990791Y-73126203D01*
X123959027Y-73028444D01*
X123863540Y-72863056D01*
X123863538Y-72863054D01*
X123863534Y-72863048D01*
X123735755Y-72721135D01*
X123581252Y-72608882D01*
X123406788Y-72531206D01*
X123219987Y-72491500D01*
X123029013Y-72491500D01*
X122842211Y-72531206D01*
X122667747Y-72608882D01*
X122513244Y-72721135D01*
X122385465Y-72863048D01*
X122385458Y-72863058D01*
X122289976Y-73028438D01*
X122289973Y-73028444D01*
X122281248Y-73055296D01*
X122230957Y-73210072D01*
X122213592Y-73375292D01*
X122186579Y-73440949D01*
X122177377Y-73451216D01*
X120648130Y-74980464D01*
X120585820Y-75014488D01*
X120559037Y-75017368D01*
X119181930Y-75017368D01*
X119113809Y-74997366D01*
X119088293Y-74975678D01*
X119084982Y-74972001D01*
X118930482Y-74859750D01*
X118756018Y-74782074D01*
X118569217Y-74742368D01*
X118378243Y-74742368D01*
X118191441Y-74782074D01*
X118016977Y-74859750D01*
X117862474Y-74972003D01*
X117734695Y-75113916D01*
X117734688Y-75113926D01*
X117639206Y-75279306D01*
X117639203Y-75279312D01*
X117624729Y-75323854D01*
X117580187Y-75460940D01*
X117560226Y-75650868D01*
X116708500Y-75650868D01*
X116708500Y-71340024D01*
X116728502Y-71271903D01*
X116740858Y-71255720D01*
X116814040Y-71174444D01*
X116909527Y-71009056D01*
X116968542Y-70827428D01*
X116988504Y-70637500D01*
X116968542Y-70447572D01*
X116909527Y-70265944D01*
X116814040Y-70100556D01*
X116814038Y-70100554D01*
X116814034Y-70100548D01*
X116686255Y-69958635D01*
X116531752Y-69846382D01*
X116357288Y-69768706D01*
X116170487Y-69729000D01*
X115979513Y-69729000D01*
X115792711Y-69768706D01*
X115618247Y-69846382D01*
X115463744Y-69958635D01*
X115335965Y-70100548D01*
X115335958Y-70100558D01*
X115240476Y-70265938D01*
X115240473Y-70265944D01*
X115232511Y-70290448D01*
X115181457Y-70447572D01*
X115161496Y-70637500D01*
X115181457Y-70827427D01*
X115205031Y-70899979D01*
X115240473Y-71009056D01*
X115335960Y-71174444D01*
X115409137Y-71255715D01*
X115439853Y-71319720D01*
X115441500Y-71340024D01*
X115441500Y-79877811D01*
X115421498Y-79945932D01*
X115367842Y-79992425D01*
X115297568Y-80002529D01*
X115232988Y-79973035D01*
X115196391Y-79916090D01*
X115195583Y-79916353D01*
X115183060Y-79877811D01*
X115134527Y-79728444D01*
X115039040Y-79563056D01*
X115039038Y-79563054D01*
X115039034Y-79563048D01*
X114911255Y-79421135D01*
X114756752Y-79308882D01*
X114582288Y-79231206D01*
X114395487Y-79191500D01*
X114204513Y-79191500D01*
X114017711Y-79231206D01*
X113843247Y-79308882D01*
X113713561Y-79403105D01*
X113646693Y-79426964D01*
X113577541Y-79410883D01*
X113528061Y-79359969D01*
X113513500Y-79301169D01*
X113513500Y-67520032D01*
X113533502Y-67451911D01*
X113587158Y-67405418D01*
X113657432Y-67395314D01*
X113714426Y-67418730D01*
X113732262Y-67431922D01*
X113942478Y-67537911D01*
X113942484Y-67537913D01*
X114167576Y-67606846D01*
X114206000Y-67611766D01*
X114206000Y-66474621D01*
X114243846Y-66497636D01*
X114386122Y-66537500D01*
X114496764Y-66537500D01*
X114606379Y-66522434D01*
X114714000Y-66475687D01*
X114714000Y-67610012D01*
X114866440Y-67577158D01*
X115084883Y-67489380D01*
X115285354Y-67365944D01*
X115462074Y-67210411D01*
X115609971Y-67027243D01*
X115621257Y-67007041D01*
X115671941Y-66957325D01*
X115741457Y-66942904D01*
X115807735Y-66968355D01*
X115835648Y-66997932D01*
X115919696Y-67122285D01*
X116082652Y-67292310D01*
X116271998Y-67432350D01*
X116482288Y-67538376D01*
X116707471Y-67607337D01*
X116707472Y-67607337D01*
X116707475Y-67607338D01*
X116838151Y-67624071D01*
X116941070Y-67637251D01*
X116941072Y-67637250D01*
X116941073Y-67637251D01*
X117019501Y-67633919D01*
X117176364Y-67627256D01*
X117406585Y-67577639D01*
X117625109Y-67489829D01*
X117825649Y-67366352D01*
X118002437Y-67210759D01*
X118150387Y-67027526D01*
X118265243Y-66821926D01*
X118343699Y-66599872D01*
X118383500Y-66367753D01*
X118383500Y-65691230D01*
X118368530Y-65515342D01*
X118309187Y-65287435D01*
X118212182Y-65072835D01*
X118080304Y-64877715D01*
X117917348Y-64707690D01*
X117728002Y-64567650D01*
X117728001Y-64567649D01*
X117727999Y-64567648D01*
X117560299Y-64483096D01*
X117517712Y-64461624D01*
X117517706Y-64461622D01*
X117517701Y-64461620D01*
X117292524Y-64392661D01*
X117058926Y-64362748D01*
X116823641Y-64372743D01*
X116823628Y-64372745D01*
X116593412Y-64422361D01*
X116374890Y-64510171D01*
X116281542Y-64567648D01*
X116174351Y-64633648D01*
X116174348Y-64633649D01*
X116174347Y-64633651D01*
X115997563Y-64789240D01*
X115849610Y-64972477D01*
X115838152Y-64992988D01*
X115787466Y-65042701D01*
X115717948Y-65057119D01*
X115651672Y-65031665D01*
X115623763Y-65002090D01*
X115539914Y-64878032D01*
X115539908Y-64878024D01*
X115377020Y-64708069D01*
X115377014Y-64708065D01*
X115187739Y-64568078D01*
X114977521Y-64462088D01*
X114977518Y-64462087D01*
X114752423Y-64393153D01*
X114714000Y-64388231D01*
X114714000Y-65525378D01*
X114676154Y-65502364D01*
X114533878Y-65462500D01*
X114423236Y-65462500D01*
X114313621Y-65477566D01*
X114206000Y-65524312D01*
X114206000Y-64389987D01*
X114053556Y-64422842D01*
X113835116Y-64510619D01*
X113705563Y-64590389D01*
X113637069Y-64609073D01*
X113569347Y-64587760D01*
X113523898Y-64533217D01*
X113513500Y-64483096D01*
X113513500Y-64000003D01*
X152686641Y-64000003D01*
X152706064Y-64358237D01*
X152764103Y-64712269D01*
X152860084Y-65057959D01*
X152907942Y-65178074D01*
X152992877Y-65391243D01*
X153092492Y-65579136D01*
X153160922Y-65708210D01*
X153160924Y-65708214D01*
X153333657Y-65962975D01*
X153362258Y-66005159D01*
X153569896Y-66249610D01*
X153594516Y-66278595D01*
X153854962Y-66525304D01*
X153854977Y-66525317D01*
X154140586Y-66742431D01*
X154447995Y-66927393D01*
X154773599Y-67078033D01*
X155113583Y-67192587D01*
X155463958Y-67269711D01*
X155820618Y-67308500D01*
X155820626Y-67308500D01*
X156179374Y-67308500D01*
X156179382Y-67308500D01*
X156536042Y-67269711D01*
X156886417Y-67192587D01*
X157226401Y-67078033D01*
X157552005Y-66927393D01*
X157859414Y-66742431D01*
X158145023Y-66525317D01*
X158174246Y-66497636D01*
X158210211Y-66463568D01*
X158405484Y-66278595D01*
X158637742Y-66005159D01*
X158839075Y-65708215D01*
X159007123Y-65391243D01*
X159139915Y-65057961D01*
X159235895Y-64712274D01*
X159236585Y-64708069D01*
X159257244Y-64582047D01*
X159293936Y-64358237D01*
X159313359Y-64000000D01*
X159293936Y-63641763D01*
X159235895Y-63287726D01*
X159139915Y-62942039D01*
X159007123Y-62608757D01*
X158839075Y-62291785D01*
X158637742Y-61994841D01*
X158405484Y-61721405D01*
X158405483Y-61721404D01*
X158145037Y-61474695D01*
X158145022Y-61474682D01*
X157859418Y-61257572D01*
X157859412Y-61257568D01*
X157552010Y-61072610D01*
X157552009Y-61072609D01*
X157552005Y-61072607D01*
X157226401Y-60921967D01*
X156886417Y-60807413D01*
X156838915Y-60796956D01*
X156536054Y-60730291D01*
X156536030Y-60730287D01*
X156179389Y-60691500D01*
X156179382Y-60691500D01*
X155820618Y-60691500D01*
X155820610Y-60691500D01*
X155463969Y-60730287D01*
X155463945Y-60730291D01*
X155113587Y-60807412D01*
X155113573Y-60807416D01*
X154773601Y-60921966D01*
X154447989Y-61072610D01*
X154140587Y-61257568D01*
X154140581Y-61257572D01*
X153854977Y-61474682D01*
X153854962Y-61474695D01*
X153594516Y-61721404D01*
X153362256Y-61994843D01*
X153160924Y-62291785D01*
X153160922Y-62291789D01*
X152992876Y-62608759D01*
X152992872Y-62608768D01*
X152860084Y-62942040D01*
X152764103Y-63287730D01*
X152706064Y-63641762D01*
X152686641Y-63999996D01*
X152686641Y-64000003D01*
X113513500Y-64000003D01*
X113513500Y-60151500D01*
X113533502Y-60083379D01*
X113587158Y-60036886D01*
X113639500Y-60025500D01*
X163648500Y-60025500D01*
X163716621Y-60045502D01*
G37*
%TD.AperFunction*%
%TD*%
M02*
