%TF.GenerationSoftware,KiCad,Pcbnew,7.0.9*%
%TF.CreationDate,2024-10-16T13:59:32-06:00*%
%TF.ProjectId,uart_mux_v3,75617274-5f6d-4757-985f-76332e6b6963,rev?*%
%TF.SameCoordinates,Original*%
%TF.FileFunction,Legend,Bot*%
%TF.FilePolarity,Positive*%
%FSLAX46Y46*%
G04 Gerber Fmt 4.6, Leading zero omitted, Abs format (unit mm)*
G04 Created by KiCad (PCBNEW 7.0.9) date 2024-10-16 13:59:32*
%MOMM*%
%LPD*%
G01*
G04 APERTURE LIST*
G04 Aperture macros list*
%AMRoundRect*
0 Rectangle with rounded corners*
0 $1 Rounding radius*
0 $2 $3 $4 $5 $6 $7 $8 $9 X,Y pos of 4 corners*
0 Add a 4 corners polygon primitive as box body*
4,1,4,$2,$3,$4,$5,$6,$7,$8,$9,$2,$3,0*
0 Add four circle primitives for the rounded corners*
1,1,$1+$1,$2,$3*
1,1,$1+$1,$4,$5*
1,1,$1+$1,$6,$7*
1,1,$1+$1,$8,$9*
0 Add four rect primitives between the rounded corners*
20,1,$1+$1,$2,$3,$4,$5,0*
20,1,$1+$1,$4,$5,$6,$7,0*
20,1,$1+$1,$6,$7,$8,$9,0*
20,1,$1+$1,$8,$9,$2,$3,0*%
G04 Aperture macros list end*
%ADD10C,0.150000*%
%ADD11C,5.702000*%
%ADD12RoundRect,0.301000X-0.625000X0.350000X-0.625000X-0.350000X0.625000X-0.350000X0.625000X0.350000X0*%
%ADD13O,1.852000X1.302000*%
%ADD14RoundRect,0.051000X-0.800000X-0.800000X0.800000X-0.800000X0.800000X0.800000X-0.800000X0.800000X0*%
%ADD15C,1.702000*%
%ADD16RoundRect,0.051000X-0.875000X-1.125000X0.875000X-1.125000X0.875000X1.125000X-0.875000X1.125000X0*%
%ADD17O,1.852000X2.352000*%
%ADD18O,1.602000X5.102000*%
%ADD19O,2.102000X1.202000*%
G04 APERTURE END LIST*
D10*
X128260000Y-112300000D02*
X133260000Y-112300000D01*
X133260000Y-117300000D01*
X128260000Y-117300000D01*
X128260000Y-112300000D01*
G36*
X128260000Y-112300000D02*
G01*
X133260000Y-112300000D01*
X133260000Y-117300000D01*
X128260000Y-117300000D01*
X128260000Y-112300000D01*
G37*
X157613220Y-111899819D02*
X157613220Y-110899819D01*
X157613220Y-110899819D02*
X157232268Y-110899819D01*
X157232268Y-110899819D02*
X157137030Y-110947438D01*
X157137030Y-110947438D02*
X157089411Y-110995057D01*
X157089411Y-110995057D02*
X157041792Y-111090295D01*
X157041792Y-111090295D02*
X157041792Y-111233152D01*
X157041792Y-111233152D02*
X157089411Y-111328390D01*
X157089411Y-111328390D02*
X157137030Y-111376009D01*
X157137030Y-111376009D02*
X157232268Y-111423628D01*
X157232268Y-111423628D02*
X157613220Y-111423628D01*
X156041792Y-111804580D02*
X156089411Y-111852200D01*
X156089411Y-111852200D02*
X156232268Y-111899819D01*
X156232268Y-111899819D02*
X156327506Y-111899819D01*
X156327506Y-111899819D02*
X156470363Y-111852200D01*
X156470363Y-111852200D02*
X156565601Y-111756961D01*
X156565601Y-111756961D02*
X156613220Y-111661723D01*
X156613220Y-111661723D02*
X156660839Y-111471247D01*
X156660839Y-111471247D02*
X156660839Y-111328390D01*
X156660839Y-111328390D02*
X156613220Y-111137914D01*
X156613220Y-111137914D02*
X156565601Y-111042676D01*
X156565601Y-111042676D02*
X156470363Y-110947438D01*
X156470363Y-110947438D02*
X156327506Y-110899819D01*
X156327506Y-110899819D02*
X156232268Y-110899819D01*
X156232268Y-110899819D02*
X156089411Y-110947438D01*
X156089411Y-110947438D02*
X156041792Y-110995057D01*
X155279887Y-111376009D02*
X155137030Y-111423628D01*
X155137030Y-111423628D02*
X155089411Y-111471247D01*
X155089411Y-111471247D02*
X155041792Y-111566485D01*
X155041792Y-111566485D02*
X155041792Y-111709342D01*
X155041792Y-111709342D02*
X155089411Y-111804580D01*
X155089411Y-111804580D02*
X155137030Y-111852200D01*
X155137030Y-111852200D02*
X155232268Y-111899819D01*
X155232268Y-111899819D02*
X155613220Y-111899819D01*
X155613220Y-111899819D02*
X155613220Y-110899819D01*
X155613220Y-110899819D02*
X155279887Y-110899819D01*
X155279887Y-110899819D02*
X155184649Y-110947438D01*
X155184649Y-110947438D02*
X155137030Y-110995057D01*
X155137030Y-110995057D02*
X155089411Y-111090295D01*
X155089411Y-111090295D02*
X155089411Y-111185533D01*
X155089411Y-111185533D02*
X155137030Y-111280771D01*
X155137030Y-111280771D02*
X155184649Y-111328390D01*
X155184649Y-111328390D02*
X155279887Y-111376009D01*
X155279887Y-111376009D02*
X155613220Y-111376009D01*
X154613220Y-111804580D02*
X154565601Y-111852200D01*
X154565601Y-111852200D02*
X154613220Y-111899819D01*
X154613220Y-111899819D02*
X154660839Y-111852200D01*
X154660839Y-111852200D02*
X154613220Y-111804580D01*
X154613220Y-111804580D02*
X154613220Y-111899819D01*
X154613220Y-111280771D02*
X154565601Y-111328390D01*
X154565601Y-111328390D02*
X154613220Y-111376009D01*
X154613220Y-111376009D02*
X154660839Y-111328390D01*
X154660839Y-111328390D02*
X154613220Y-111280771D01*
X154613220Y-111280771D02*
X154613220Y-111376009D01*
X152851316Y-111899819D02*
X153422744Y-111899819D01*
X153137030Y-111899819D02*
X153137030Y-110899819D01*
X153137030Y-110899819D02*
X153232268Y-111042676D01*
X153232268Y-111042676D02*
X153327506Y-111137914D01*
X153327506Y-111137914D02*
X153422744Y-111185533D01*
X152232268Y-110899819D02*
X152137030Y-110899819D01*
X152137030Y-110899819D02*
X152041792Y-110947438D01*
X152041792Y-110947438D02*
X151994173Y-110995057D01*
X151994173Y-110995057D02*
X151946554Y-111090295D01*
X151946554Y-111090295D02*
X151898935Y-111280771D01*
X151898935Y-111280771D02*
X151898935Y-111518866D01*
X151898935Y-111518866D02*
X151946554Y-111709342D01*
X151946554Y-111709342D02*
X151994173Y-111804580D01*
X151994173Y-111804580D02*
X152041792Y-111852200D01*
X152041792Y-111852200D02*
X152137030Y-111899819D01*
X152137030Y-111899819D02*
X152232268Y-111899819D01*
X152232268Y-111899819D02*
X152327506Y-111852200D01*
X152327506Y-111852200D02*
X152375125Y-111804580D01*
X152375125Y-111804580D02*
X152422744Y-111709342D01*
X152422744Y-111709342D02*
X152470363Y-111518866D01*
X152470363Y-111518866D02*
X152470363Y-111280771D01*
X152470363Y-111280771D02*
X152422744Y-111090295D01*
X152422744Y-111090295D02*
X152375125Y-110995057D01*
X152375125Y-110995057D02*
X152327506Y-110947438D01*
X152327506Y-110947438D02*
X152232268Y-110899819D01*
X151279887Y-110899819D02*
X151184649Y-110899819D01*
X151184649Y-110899819D02*
X151089411Y-110947438D01*
X151089411Y-110947438D02*
X151041792Y-110995057D01*
X151041792Y-110995057D02*
X150994173Y-111090295D01*
X150994173Y-111090295D02*
X150946554Y-111280771D01*
X150946554Y-111280771D02*
X150946554Y-111518866D01*
X150946554Y-111518866D02*
X150994173Y-111709342D01*
X150994173Y-111709342D02*
X151041792Y-111804580D01*
X151041792Y-111804580D02*
X151089411Y-111852200D01*
X151089411Y-111852200D02*
X151184649Y-111899819D01*
X151184649Y-111899819D02*
X151279887Y-111899819D01*
X151279887Y-111899819D02*
X151375125Y-111852200D01*
X151375125Y-111852200D02*
X151422744Y-111804580D01*
X151422744Y-111804580D02*
X151470363Y-111709342D01*
X151470363Y-111709342D02*
X151517982Y-111518866D01*
X151517982Y-111518866D02*
X151517982Y-111280771D01*
X151517982Y-111280771D02*
X151470363Y-111090295D01*
X151470363Y-111090295D02*
X151422744Y-110995057D01*
X151422744Y-110995057D02*
X151375125Y-110947438D01*
X151375125Y-110947438D02*
X151279887Y-110899819D01*
X150327506Y-110899819D02*
X150232268Y-110899819D01*
X150232268Y-110899819D02*
X150137030Y-110947438D01*
X150137030Y-110947438D02*
X150089411Y-110995057D01*
X150089411Y-110995057D02*
X150041792Y-111090295D01*
X150041792Y-111090295D02*
X149994173Y-111280771D01*
X149994173Y-111280771D02*
X149994173Y-111518866D01*
X149994173Y-111518866D02*
X150041792Y-111709342D01*
X150041792Y-111709342D02*
X150089411Y-111804580D01*
X150089411Y-111804580D02*
X150137030Y-111852200D01*
X150137030Y-111852200D02*
X150232268Y-111899819D01*
X150232268Y-111899819D02*
X150327506Y-111899819D01*
X150327506Y-111899819D02*
X150422744Y-111852200D01*
X150422744Y-111852200D02*
X150470363Y-111804580D01*
X150470363Y-111804580D02*
X150517982Y-111709342D01*
X150517982Y-111709342D02*
X150565601Y-111518866D01*
X150565601Y-111518866D02*
X150565601Y-111280771D01*
X150565601Y-111280771D02*
X150517982Y-111090295D01*
X150517982Y-111090295D02*
X150470363Y-110995057D01*
X150470363Y-110995057D02*
X150422744Y-110947438D01*
X150422744Y-110947438D02*
X150327506Y-110899819D01*
X149517982Y-111899819D02*
X149327506Y-111899819D01*
X149327506Y-111899819D02*
X149232268Y-111852200D01*
X149232268Y-111852200D02*
X149184649Y-111804580D01*
X149184649Y-111804580D02*
X149089411Y-111661723D01*
X149089411Y-111661723D02*
X149041792Y-111471247D01*
X149041792Y-111471247D02*
X149041792Y-111090295D01*
X149041792Y-111090295D02*
X149089411Y-110995057D01*
X149089411Y-110995057D02*
X149137030Y-110947438D01*
X149137030Y-110947438D02*
X149232268Y-110899819D01*
X149232268Y-110899819D02*
X149422744Y-110899819D01*
X149422744Y-110899819D02*
X149517982Y-110947438D01*
X149517982Y-110947438D02*
X149565601Y-110995057D01*
X149565601Y-110995057D02*
X149613220Y-111090295D01*
X149613220Y-111090295D02*
X149613220Y-111328390D01*
X149613220Y-111328390D02*
X149565601Y-111423628D01*
X149565601Y-111423628D02*
X149517982Y-111471247D01*
X149517982Y-111471247D02*
X149422744Y-111518866D01*
X149422744Y-111518866D02*
X149232268Y-111518866D01*
X149232268Y-111518866D02*
X149137030Y-111471247D01*
X149137030Y-111471247D02*
X149089411Y-111423628D01*
X149089411Y-111423628D02*
X149041792Y-111328390D01*
X148613220Y-111518866D02*
X147851316Y-111518866D01*
X146946554Y-111233152D02*
X146946554Y-111899819D01*
X147184649Y-110852200D02*
X147422744Y-111566485D01*
X147422744Y-111566485D02*
X146803697Y-111566485D01*
X146232268Y-110899819D02*
X146137030Y-110899819D01*
X146137030Y-110899819D02*
X146041792Y-110947438D01*
X146041792Y-110947438D02*
X145994173Y-110995057D01*
X145994173Y-110995057D02*
X145946554Y-111090295D01*
X145946554Y-111090295D02*
X145898935Y-111280771D01*
X145898935Y-111280771D02*
X145898935Y-111518866D01*
X145898935Y-111518866D02*
X145946554Y-111709342D01*
X145946554Y-111709342D02*
X145994173Y-111804580D01*
X145994173Y-111804580D02*
X146041792Y-111852200D01*
X146041792Y-111852200D02*
X146137030Y-111899819D01*
X146137030Y-111899819D02*
X146232268Y-111899819D01*
X146232268Y-111899819D02*
X146327506Y-111852200D01*
X146327506Y-111852200D02*
X146375125Y-111804580D01*
X146375125Y-111804580D02*
X146422744Y-111709342D01*
X146422744Y-111709342D02*
X146470363Y-111518866D01*
X146470363Y-111518866D02*
X146470363Y-111280771D01*
X146470363Y-111280771D02*
X146422744Y-111090295D01*
X146422744Y-111090295D02*
X146375125Y-110995057D01*
X146375125Y-110995057D02*
X146327506Y-110947438D01*
X146327506Y-110947438D02*
X146232268Y-110899819D01*
X145279887Y-110899819D02*
X145184649Y-110899819D01*
X145184649Y-110899819D02*
X145089411Y-110947438D01*
X145089411Y-110947438D02*
X145041792Y-110995057D01*
X145041792Y-110995057D02*
X144994173Y-111090295D01*
X144994173Y-111090295D02*
X144946554Y-111280771D01*
X144946554Y-111280771D02*
X144946554Y-111518866D01*
X144946554Y-111518866D02*
X144994173Y-111709342D01*
X144994173Y-111709342D02*
X145041792Y-111804580D01*
X145041792Y-111804580D02*
X145089411Y-111852200D01*
X145089411Y-111852200D02*
X145184649Y-111899819D01*
X145184649Y-111899819D02*
X145279887Y-111899819D01*
X145279887Y-111899819D02*
X145375125Y-111852200D01*
X145375125Y-111852200D02*
X145422744Y-111804580D01*
X145422744Y-111804580D02*
X145470363Y-111709342D01*
X145470363Y-111709342D02*
X145517982Y-111518866D01*
X145517982Y-111518866D02*
X145517982Y-111280771D01*
X145517982Y-111280771D02*
X145470363Y-111090295D01*
X145470363Y-111090295D02*
X145422744Y-110995057D01*
X145422744Y-110995057D02*
X145375125Y-110947438D01*
X145375125Y-110947438D02*
X145279887Y-110899819D01*
X144613220Y-110899819D02*
X143946554Y-110899819D01*
X143946554Y-110899819D02*
X144375125Y-111899819D01*
X143565601Y-111518866D02*
X142803697Y-111518866D01*
X142137030Y-110899819D02*
X142041792Y-110899819D01*
X142041792Y-110899819D02*
X141946554Y-110947438D01*
X141946554Y-110947438D02*
X141898935Y-110995057D01*
X141898935Y-110995057D02*
X141851316Y-111090295D01*
X141851316Y-111090295D02*
X141803697Y-111280771D01*
X141803697Y-111280771D02*
X141803697Y-111518866D01*
X141803697Y-111518866D02*
X141851316Y-111709342D01*
X141851316Y-111709342D02*
X141898935Y-111804580D01*
X141898935Y-111804580D02*
X141946554Y-111852200D01*
X141946554Y-111852200D02*
X142041792Y-111899819D01*
X142041792Y-111899819D02*
X142137030Y-111899819D01*
X142137030Y-111899819D02*
X142232268Y-111852200D01*
X142232268Y-111852200D02*
X142279887Y-111804580D01*
X142279887Y-111804580D02*
X142327506Y-111709342D01*
X142327506Y-111709342D02*
X142375125Y-111518866D01*
X142375125Y-111518866D02*
X142375125Y-111280771D01*
X142375125Y-111280771D02*
X142327506Y-111090295D01*
X142327506Y-111090295D02*
X142279887Y-110995057D01*
X142279887Y-110995057D02*
X142232268Y-110947438D01*
X142232268Y-110947438D02*
X142137030Y-110899819D01*
X141184649Y-110899819D02*
X141089411Y-110899819D01*
X141089411Y-110899819D02*
X140994173Y-110947438D01*
X140994173Y-110947438D02*
X140946554Y-110995057D01*
X140946554Y-110995057D02*
X140898935Y-111090295D01*
X140898935Y-111090295D02*
X140851316Y-111280771D01*
X140851316Y-111280771D02*
X140851316Y-111518866D01*
X140851316Y-111518866D02*
X140898935Y-111709342D01*
X140898935Y-111709342D02*
X140946554Y-111804580D01*
X140946554Y-111804580D02*
X140994173Y-111852200D01*
X140994173Y-111852200D02*
X141089411Y-111899819D01*
X141089411Y-111899819D02*
X141184649Y-111899819D01*
X141184649Y-111899819D02*
X141279887Y-111852200D01*
X141279887Y-111852200D02*
X141327506Y-111804580D01*
X141327506Y-111804580D02*
X141375125Y-111709342D01*
X141375125Y-111709342D02*
X141422744Y-111518866D01*
X141422744Y-111518866D02*
X141422744Y-111280771D01*
X141422744Y-111280771D02*
X141375125Y-111090295D01*
X141375125Y-111090295D02*
X141327506Y-110995057D01*
X141327506Y-110995057D02*
X141279887Y-110947438D01*
X141279887Y-110947438D02*
X141184649Y-110899819D01*
X139089411Y-111899819D02*
X139422744Y-111423628D01*
X139660839Y-111899819D02*
X139660839Y-110899819D01*
X139660839Y-110899819D02*
X139279887Y-110899819D01*
X139279887Y-110899819D02*
X139184649Y-110947438D01*
X139184649Y-110947438D02*
X139137030Y-110995057D01*
X139137030Y-110995057D02*
X139089411Y-111090295D01*
X139089411Y-111090295D02*
X139089411Y-111233152D01*
X139089411Y-111233152D02*
X139137030Y-111328390D01*
X139137030Y-111328390D02*
X139184649Y-111376009D01*
X139184649Y-111376009D02*
X139279887Y-111423628D01*
X139279887Y-111423628D02*
X139660839Y-111423628D01*
X138279887Y-111852200D02*
X138375125Y-111899819D01*
X138375125Y-111899819D02*
X138565601Y-111899819D01*
X138565601Y-111899819D02*
X138660839Y-111852200D01*
X138660839Y-111852200D02*
X138708458Y-111756961D01*
X138708458Y-111756961D02*
X138708458Y-111376009D01*
X138708458Y-111376009D02*
X138660839Y-111280771D01*
X138660839Y-111280771D02*
X138565601Y-111233152D01*
X138565601Y-111233152D02*
X138375125Y-111233152D01*
X138375125Y-111233152D02*
X138279887Y-111280771D01*
X138279887Y-111280771D02*
X138232268Y-111376009D01*
X138232268Y-111376009D02*
X138232268Y-111471247D01*
X138232268Y-111471247D02*
X138708458Y-111566485D01*
X137898934Y-111233152D02*
X137660839Y-111899819D01*
X137660839Y-111899819D02*
X137422744Y-111233152D01*
X137041791Y-111899819D02*
X137041791Y-111233152D01*
X137041791Y-110899819D02*
X137089410Y-110947438D01*
X137089410Y-110947438D02*
X137041791Y-110995057D01*
X137041791Y-110995057D02*
X136994172Y-110947438D01*
X136994172Y-110947438D02*
X137041791Y-110899819D01*
X137041791Y-110899819D02*
X137041791Y-110995057D01*
X136613220Y-111852200D02*
X136517982Y-111899819D01*
X136517982Y-111899819D02*
X136327506Y-111899819D01*
X136327506Y-111899819D02*
X136232268Y-111852200D01*
X136232268Y-111852200D02*
X136184649Y-111756961D01*
X136184649Y-111756961D02*
X136184649Y-111709342D01*
X136184649Y-111709342D02*
X136232268Y-111614104D01*
X136232268Y-111614104D02*
X136327506Y-111566485D01*
X136327506Y-111566485D02*
X136470363Y-111566485D01*
X136470363Y-111566485D02*
X136565601Y-111518866D01*
X136565601Y-111518866D02*
X136613220Y-111423628D01*
X136613220Y-111423628D02*
X136613220Y-111376009D01*
X136613220Y-111376009D02*
X136565601Y-111280771D01*
X136565601Y-111280771D02*
X136470363Y-111233152D01*
X136470363Y-111233152D02*
X136327506Y-111233152D01*
X136327506Y-111233152D02*
X136232268Y-111280771D01*
X135756077Y-111899819D02*
X135756077Y-111233152D01*
X135756077Y-110899819D02*
X135803696Y-110947438D01*
X135803696Y-110947438D02*
X135756077Y-110995057D01*
X135756077Y-110995057D02*
X135708458Y-110947438D01*
X135708458Y-110947438D02*
X135756077Y-110899819D01*
X135756077Y-110899819D02*
X135756077Y-110995057D01*
X135137030Y-111899819D02*
X135232268Y-111852200D01*
X135232268Y-111852200D02*
X135279887Y-111804580D01*
X135279887Y-111804580D02*
X135327506Y-111709342D01*
X135327506Y-111709342D02*
X135327506Y-111423628D01*
X135327506Y-111423628D02*
X135279887Y-111328390D01*
X135279887Y-111328390D02*
X135232268Y-111280771D01*
X135232268Y-111280771D02*
X135137030Y-111233152D01*
X135137030Y-111233152D02*
X134994173Y-111233152D01*
X134994173Y-111233152D02*
X134898935Y-111280771D01*
X134898935Y-111280771D02*
X134851316Y-111328390D01*
X134851316Y-111328390D02*
X134803697Y-111423628D01*
X134803697Y-111423628D02*
X134803697Y-111709342D01*
X134803697Y-111709342D02*
X134851316Y-111804580D01*
X134851316Y-111804580D02*
X134898935Y-111852200D01*
X134898935Y-111852200D02*
X134994173Y-111899819D01*
X134994173Y-111899819D02*
X135137030Y-111899819D01*
X134375125Y-111233152D02*
X134375125Y-111899819D01*
X134375125Y-111328390D02*
X134327506Y-111280771D01*
X134327506Y-111280771D02*
X134232268Y-111233152D01*
X134232268Y-111233152D02*
X134089411Y-111233152D01*
X134089411Y-111233152D02*
X133994173Y-111280771D01*
X133994173Y-111280771D02*
X133946554Y-111376009D01*
X133946554Y-111376009D02*
X133946554Y-111899819D01*
X133470363Y-111804580D02*
X133422744Y-111852200D01*
X133422744Y-111852200D02*
X133470363Y-111899819D01*
X133470363Y-111899819D02*
X133517982Y-111852200D01*
X133517982Y-111852200D02*
X133470363Y-111804580D01*
X133470363Y-111804580D02*
X133470363Y-111899819D01*
X133470363Y-111280771D02*
X133422744Y-111328390D01*
X133422744Y-111328390D02*
X133470363Y-111376009D01*
X133470363Y-111376009D02*
X133517982Y-111328390D01*
X133517982Y-111328390D02*
X133470363Y-111280771D01*
X133470363Y-111280771D02*
X133470363Y-111376009D01*
X132327506Y-110899819D02*
X131708459Y-110899819D01*
X131708459Y-110899819D02*
X132041792Y-111280771D01*
X132041792Y-111280771D02*
X131898935Y-111280771D01*
X131898935Y-111280771D02*
X131803697Y-111328390D01*
X131803697Y-111328390D02*
X131756078Y-111376009D01*
X131756078Y-111376009D02*
X131708459Y-111471247D01*
X131708459Y-111471247D02*
X131708459Y-111709342D01*
X131708459Y-111709342D02*
X131756078Y-111804580D01*
X131756078Y-111804580D02*
X131803697Y-111852200D01*
X131803697Y-111852200D02*
X131898935Y-111899819D01*
X131898935Y-111899819D02*
X132184649Y-111899819D01*
X132184649Y-111899819D02*
X132279887Y-111852200D01*
X132279887Y-111852200D02*
X132327506Y-111804580D01*
X131279887Y-111804580D02*
X131232268Y-111852200D01*
X131232268Y-111852200D02*
X131279887Y-111899819D01*
X131279887Y-111899819D02*
X131327506Y-111852200D01*
X131327506Y-111852200D02*
X131279887Y-111804580D01*
X131279887Y-111804580D02*
X131279887Y-111899819D01*
X130898935Y-110899819D02*
X130279888Y-110899819D01*
X130279888Y-110899819D02*
X130613221Y-111280771D01*
X130613221Y-111280771D02*
X130470364Y-111280771D01*
X130470364Y-111280771D02*
X130375126Y-111328390D01*
X130375126Y-111328390D02*
X130327507Y-111376009D01*
X130327507Y-111376009D02*
X130279888Y-111471247D01*
X130279888Y-111471247D02*
X130279888Y-111709342D01*
X130279888Y-111709342D02*
X130327507Y-111804580D01*
X130327507Y-111804580D02*
X130375126Y-111852200D01*
X130375126Y-111852200D02*
X130470364Y-111899819D01*
X130470364Y-111899819D02*
X130756078Y-111899819D01*
X130756078Y-111899819D02*
X130851316Y-111852200D01*
X130851316Y-111852200D02*
X130898935Y-111804580D01*
X157613220Y-113509819D02*
X157613220Y-112509819D01*
X157613220Y-112509819D02*
X157232268Y-112509819D01*
X157232268Y-112509819D02*
X157137030Y-112557438D01*
X157137030Y-112557438D02*
X157089411Y-112605057D01*
X157089411Y-112605057D02*
X157041792Y-112700295D01*
X157041792Y-112700295D02*
X157041792Y-112843152D01*
X157041792Y-112843152D02*
X157089411Y-112938390D01*
X157089411Y-112938390D02*
X157137030Y-112986009D01*
X157137030Y-112986009D02*
X157232268Y-113033628D01*
X157232268Y-113033628D02*
X157613220Y-113033628D01*
X156041792Y-113414580D02*
X156089411Y-113462200D01*
X156089411Y-113462200D02*
X156232268Y-113509819D01*
X156232268Y-113509819D02*
X156327506Y-113509819D01*
X156327506Y-113509819D02*
X156470363Y-113462200D01*
X156470363Y-113462200D02*
X156565601Y-113366961D01*
X156565601Y-113366961D02*
X156613220Y-113271723D01*
X156613220Y-113271723D02*
X156660839Y-113081247D01*
X156660839Y-113081247D02*
X156660839Y-112938390D01*
X156660839Y-112938390D02*
X156613220Y-112747914D01*
X156613220Y-112747914D02*
X156565601Y-112652676D01*
X156565601Y-112652676D02*
X156470363Y-112557438D01*
X156470363Y-112557438D02*
X156327506Y-112509819D01*
X156327506Y-112509819D02*
X156232268Y-112509819D01*
X156232268Y-112509819D02*
X156089411Y-112557438D01*
X156089411Y-112557438D02*
X156041792Y-112605057D01*
X155660839Y-113224104D02*
X155184649Y-113224104D01*
X155756077Y-113509819D02*
X155422744Y-112509819D01*
X155422744Y-112509819D02*
X155089411Y-113509819D01*
X154756077Y-113414580D02*
X154708458Y-113462200D01*
X154708458Y-113462200D02*
X154756077Y-113509819D01*
X154756077Y-113509819D02*
X154803696Y-113462200D01*
X154803696Y-113462200D02*
X154756077Y-113414580D01*
X154756077Y-113414580D02*
X154756077Y-113509819D01*
X154756077Y-112890771D02*
X154708458Y-112938390D01*
X154708458Y-112938390D02*
X154756077Y-112986009D01*
X154756077Y-112986009D02*
X154803696Y-112938390D01*
X154803696Y-112938390D02*
X154756077Y-112890771D01*
X154756077Y-112890771D02*
X154756077Y-112986009D01*
X152994173Y-113509819D02*
X153565601Y-113509819D01*
X153279887Y-113509819D02*
X153279887Y-112509819D01*
X153279887Y-112509819D02*
X153375125Y-112652676D01*
X153375125Y-112652676D02*
X153470363Y-112747914D01*
X153470363Y-112747914D02*
X153565601Y-112795533D01*
X152375125Y-112509819D02*
X152279887Y-112509819D01*
X152279887Y-112509819D02*
X152184649Y-112557438D01*
X152184649Y-112557438D02*
X152137030Y-112605057D01*
X152137030Y-112605057D02*
X152089411Y-112700295D01*
X152089411Y-112700295D02*
X152041792Y-112890771D01*
X152041792Y-112890771D02*
X152041792Y-113128866D01*
X152041792Y-113128866D02*
X152089411Y-113319342D01*
X152089411Y-113319342D02*
X152137030Y-113414580D01*
X152137030Y-113414580D02*
X152184649Y-113462200D01*
X152184649Y-113462200D02*
X152279887Y-113509819D01*
X152279887Y-113509819D02*
X152375125Y-113509819D01*
X152375125Y-113509819D02*
X152470363Y-113462200D01*
X152470363Y-113462200D02*
X152517982Y-113414580D01*
X152517982Y-113414580D02*
X152565601Y-113319342D01*
X152565601Y-113319342D02*
X152613220Y-113128866D01*
X152613220Y-113128866D02*
X152613220Y-112890771D01*
X152613220Y-112890771D02*
X152565601Y-112700295D01*
X152565601Y-112700295D02*
X152517982Y-112605057D01*
X152517982Y-112605057D02*
X152470363Y-112557438D01*
X152470363Y-112557438D02*
X152375125Y-112509819D01*
X151422744Y-112509819D02*
X151327506Y-112509819D01*
X151327506Y-112509819D02*
X151232268Y-112557438D01*
X151232268Y-112557438D02*
X151184649Y-112605057D01*
X151184649Y-112605057D02*
X151137030Y-112700295D01*
X151137030Y-112700295D02*
X151089411Y-112890771D01*
X151089411Y-112890771D02*
X151089411Y-113128866D01*
X151089411Y-113128866D02*
X151137030Y-113319342D01*
X151137030Y-113319342D02*
X151184649Y-113414580D01*
X151184649Y-113414580D02*
X151232268Y-113462200D01*
X151232268Y-113462200D02*
X151327506Y-113509819D01*
X151327506Y-113509819D02*
X151422744Y-113509819D01*
X151422744Y-113509819D02*
X151517982Y-113462200D01*
X151517982Y-113462200D02*
X151565601Y-113414580D01*
X151565601Y-113414580D02*
X151613220Y-113319342D01*
X151613220Y-113319342D02*
X151660839Y-113128866D01*
X151660839Y-113128866D02*
X151660839Y-112890771D01*
X151660839Y-112890771D02*
X151613220Y-112700295D01*
X151613220Y-112700295D02*
X151565601Y-112605057D01*
X151565601Y-112605057D02*
X151517982Y-112557438D01*
X151517982Y-112557438D02*
X151422744Y-112509819D01*
X150470363Y-112509819D02*
X150375125Y-112509819D01*
X150375125Y-112509819D02*
X150279887Y-112557438D01*
X150279887Y-112557438D02*
X150232268Y-112605057D01*
X150232268Y-112605057D02*
X150184649Y-112700295D01*
X150184649Y-112700295D02*
X150137030Y-112890771D01*
X150137030Y-112890771D02*
X150137030Y-113128866D01*
X150137030Y-113128866D02*
X150184649Y-113319342D01*
X150184649Y-113319342D02*
X150232268Y-113414580D01*
X150232268Y-113414580D02*
X150279887Y-113462200D01*
X150279887Y-113462200D02*
X150375125Y-113509819D01*
X150375125Y-113509819D02*
X150470363Y-113509819D01*
X150470363Y-113509819D02*
X150565601Y-113462200D01*
X150565601Y-113462200D02*
X150613220Y-113414580D01*
X150613220Y-113414580D02*
X150660839Y-113319342D01*
X150660839Y-113319342D02*
X150708458Y-113128866D01*
X150708458Y-113128866D02*
X150708458Y-112890771D01*
X150708458Y-112890771D02*
X150660839Y-112700295D01*
X150660839Y-112700295D02*
X150613220Y-112605057D01*
X150613220Y-112605057D02*
X150565601Y-112557438D01*
X150565601Y-112557438D02*
X150470363Y-112509819D01*
X149660839Y-113509819D02*
X149470363Y-113509819D01*
X149470363Y-113509819D02*
X149375125Y-113462200D01*
X149375125Y-113462200D02*
X149327506Y-113414580D01*
X149327506Y-113414580D02*
X149232268Y-113271723D01*
X149232268Y-113271723D02*
X149184649Y-113081247D01*
X149184649Y-113081247D02*
X149184649Y-112700295D01*
X149184649Y-112700295D02*
X149232268Y-112605057D01*
X149232268Y-112605057D02*
X149279887Y-112557438D01*
X149279887Y-112557438D02*
X149375125Y-112509819D01*
X149375125Y-112509819D02*
X149565601Y-112509819D01*
X149565601Y-112509819D02*
X149660839Y-112557438D01*
X149660839Y-112557438D02*
X149708458Y-112605057D01*
X149708458Y-112605057D02*
X149756077Y-112700295D01*
X149756077Y-112700295D02*
X149756077Y-112938390D01*
X149756077Y-112938390D02*
X149708458Y-113033628D01*
X149708458Y-113033628D02*
X149660839Y-113081247D01*
X149660839Y-113081247D02*
X149565601Y-113128866D01*
X149565601Y-113128866D02*
X149375125Y-113128866D01*
X149375125Y-113128866D02*
X149279887Y-113081247D01*
X149279887Y-113081247D02*
X149232268Y-113033628D01*
X149232268Y-113033628D02*
X149184649Y-112938390D01*
X148756077Y-113128866D02*
X147994173Y-113128866D01*
X147089411Y-112843152D02*
X147089411Y-113509819D01*
X147327506Y-112462200D02*
X147565601Y-113176485D01*
X147565601Y-113176485D02*
X146946554Y-113176485D01*
X146375125Y-112509819D02*
X146279887Y-112509819D01*
X146279887Y-112509819D02*
X146184649Y-112557438D01*
X146184649Y-112557438D02*
X146137030Y-112605057D01*
X146137030Y-112605057D02*
X146089411Y-112700295D01*
X146089411Y-112700295D02*
X146041792Y-112890771D01*
X146041792Y-112890771D02*
X146041792Y-113128866D01*
X146041792Y-113128866D02*
X146089411Y-113319342D01*
X146089411Y-113319342D02*
X146137030Y-113414580D01*
X146137030Y-113414580D02*
X146184649Y-113462200D01*
X146184649Y-113462200D02*
X146279887Y-113509819D01*
X146279887Y-113509819D02*
X146375125Y-113509819D01*
X146375125Y-113509819D02*
X146470363Y-113462200D01*
X146470363Y-113462200D02*
X146517982Y-113414580D01*
X146517982Y-113414580D02*
X146565601Y-113319342D01*
X146565601Y-113319342D02*
X146613220Y-113128866D01*
X146613220Y-113128866D02*
X146613220Y-112890771D01*
X146613220Y-112890771D02*
X146565601Y-112700295D01*
X146565601Y-112700295D02*
X146517982Y-112605057D01*
X146517982Y-112605057D02*
X146470363Y-112557438D01*
X146470363Y-112557438D02*
X146375125Y-112509819D01*
X145422744Y-112509819D02*
X145327506Y-112509819D01*
X145327506Y-112509819D02*
X145232268Y-112557438D01*
X145232268Y-112557438D02*
X145184649Y-112605057D01*
X145184649Y-112605057D02*
X145137030Y-112700295D01*
X145137030Y-112700295D02*
X145089411Y-112890771D01*
X145089411Y-112890771D02*
X145089411Y-113128866D01*
X145089411Y-113128866D02*
X145137030Y-113319342D01*
X145137030Y-113319342D02*
X145184649Y-113414580D01*
X145184649Y-113414580D02*
X145232268Y-113462200D01*
X145232268Y-113462200D02*
X145327506Y-113509819D01*
X145327506Y-113509819D02*
X145422744Y-113509819D01*
X145422744Y-113509819D02*
X145517982Y-113462200D01*
X145517982Y-113462200D02*
X145565601Y-113414580D01*
X145565601Y-113414580D02*
X145613220Y-113319342D01*
X145613220Y-113319342D02*
X145660839Y-113128866D01*
X145660839Y-113128866D02*
X145660839Y-112890771D01*
X145660839Y-112890771D02*
X145613220Y-112700295D01*
X145613220Y-112700295D02*
X145565601Y-112605057D01*
X145565601Y-112605057D02*
X145517982Y-112557438D01*
X145517982Y-112557438D02*
X145422744Y-112509819D01*
X144232268Y-112509819D02*
X144422744Y-112509819D01*
X144422744Y-112509819D02*
X144517982Y-112557438D01*
X144517982Y-112557438D02*
X144565601Y-112605057D01*
X144565601Y-112605057D02*
X144660839Y-112747914D01*
X144660839Y-112747914D02*
X144708458Y-112938390D01*
X144708458Y-112938390D02*
X144708458Y-113319342D01*
X144708458Y-113319342D02*
X144660839Y-113414580D01*
X144660839Y-113414580D02*
X144613220Y-113462200D01*
X144613220Y-113462200D02*
X144517982Y-113509819D01*
X144517982Y-113509819D02*
X144327506Y-113509819D01*
X144327506Y-113509819D02*
X144232268Y-113462200D01*
X144232268Y-113462200D02*
X144184649Y-113414580D01*
X144184649Y-113414580D02*
X144137030Y-113319342D01*
X144137030Y-113319342D02*
X144137030Y-113081247D01*
X144137030Y-113081247D02*
X144184649Y-112986009D01*
X144184649Y-112986009D02*
X144232268Y-112938390D01*
X144232268Y-112938390D02*
X144327506Y-112890771D01*
X144327506Y-112890771D02*
X144517982Y-112890771D01*
X144517982Y-112890771D02*
X144613220Y-112938390D01*
X144613220Y-112938390D02*
X144660839Y-112986009D01*
X144660839Y-112986009D02*
X144708458Y-113081247D01*
X143708458Y-113128866D02*
X142946554Y-113128866D01*
X142279887Y-112509819D02*
X142184649Y-112509819D01*
X142184649Y-112509819D02*
X142089411Y-112557438D01*
X142089411Y-112557438D02*
X142041792Y-112605057D01*
X142041792Y-112605057D02*
X141994173Y-112700295D01*
X141994173Y-112700295D02*
X141946554Y-112890771D01*
X141946554Y-112890771D02*
X141946554Y-113128866D01*
X141946554Y-113128866D02*
X141994173Y-113319342D01*
X141994173Y-113319342D02*
X142041792Y-113414580D01*
X142041792Y-113414580D02*
X142089411Y-113462200D01*
X142089411Y-113462200D02*
X142184649Y-113509819D01*
X142184649Y-113509819D02*
X142279887Y-113509819D01*
X142279887Y-113509819D02*
X142375125Y-113462200D01*
X142375125Y-113462200D02*
X142422744Y-113414580D01*
X142422744Y-113414580D02*
X142470363Y-113319342D01*
X142470363Y-113319342D02*
X142517982Y-113128866D01*
X142517982Y-113128866D02*
X142517982Y-112890771D01*
X142517982Y-112890771D02*
X142470363Y-112700295D01*
X142470363Y-112700295D02*
X142422744Y-112605057D01*
X142422744Y-112605057D02*
X142375125Y-112557438D01*
X142375125Y-112557438D02*
X142279887Y-112509819D01*
X141327506Y-112509819D02*
X141232268Y-112509819D01*
X141232268Y-112509819D02*
X141137030Y-112557438D01*
X141137030Y-112557438D02*
X141089411Y-112605057D01*
X141089411Y-112605057D02*
X141041792Y-112700295D01*
X141041792Y-112700295D02*
X140994173Y-112890771D01*
X140994173Y-112890771D02*
X140994173Y-113128866D01*
X140994173Y-113128866D02*
X141041792Y-113319342D01*
X141041792Y-113319342D02*
X141089411Y-113414580D01*
X141089411Y-113414580D02*
X141137030Y-113462200D01*
X141137030Y-113462200D02*
X141232268Y-113509819D01*
X141232268Y-113509819D02*
X141327506Y-113509819D01*
X141327506Y-113509819D02*
X141422744Y-113462200D01*
X141422744Y-113462200D02*
X141470363Y-113414580D01*
X141470363Y-113414580D02*
X141517982Y-113319342D01*
X141517982Y-113319342D02*
X141565601Y-113128866D01*
X141565601Y-113128866D02*
X141565601Y-112890771D01*
X141565601Y-112890771D02*
X141517982Y-112700295D01*
X141517982Y-112700295D02*
X141470363Y-112605057D01*
X141470363Y-112605057D02*
X141422744Y-112557438D01*
X141422744Y-112557438D02*
X141327506Y-112509819D01*
X139232268Y-113509819D02*
X139565601Y-113033628D01*
X139803696Y-113509819D02*
X139803696Y-112509819D01*
X139803696Y-112509819D02*
X139422744Y-112509819D01*
X139422744Y-112509819D02*
X139327506Y-112557438D01*
X139327506Y-112557438D02*
X139279887Y-112605057D01*
X139279887Y-112605057D02*
X139232268Y-112700295D01*
X139232268Y-112700295D02*
X139232268Y-112843152D01*
X139232268Y-112843152D02*
X139279887Y-112938390D01*
X139279887Y-112938390D02*
X139327506Y-112986009D01*
X139327506Y-112986009D02*
X139422744Y-113033628D01*
X139422744Y-113033628D02*
X139803696Y-113033628D01*
X138422744Y-113462200D02*
X138517982Y-113509819D01*
X138517982Y-113509819D02*
X138708458Y-113509819D01*
X138708458Y-113509819D02*
X138803696Y-113462200D01*
X138803696Y-113462200D02*
X138851315Y-113366961D01*
X138851315Y-113366961D02*
X138851315Y-112986009D01*
X138851315Y-112986009D02*
X138803696Y-112890771D01*
X138803696Y-112890771D02*
X138708458Y-112843152D01*
X138708458Y-112843152D02*
X138517982Y-112843152D01*
X138517982Y-112843152D02*
X138422744Y-112890771D01*
X138422744Y-112890771D02*
X138375125Y-112986009D01*
X138375125Y-112986009D02*
X138375125Y-113081247D01*
X138375125Y-113081247D02*
X138851315Y-113176485D01*
X138041791Y-112843152D02*
X137803696Y-113509819D01*
X137803696Y-113509819D02*
X137565601Y-112843152D01*
X137184648Y-113509819D02*
X137184648Y-112843152D01*
X137184648Y-112509819D02*
X137232267Y-112557438D01*
X137232267Y-112557438D02*
X137184648Y-112605057D01*
X137184648Y-112605057D02*
X137137029Y-112557438D01*
X137137029Y-112557438D02*
X137184648Y-112509819D01*
X137184648Y-112509819D02*
X137184648Y-112605057D01*
X136756077Y-113462200D02*
X136660839Y-113509819D01*
X136660839Y-113509819D02*
X136470363Y-113509819D01*
X136470363Y-113509819D02*
X136375125Y-113462200D01*
X136375125Y-113462200D02*
X136327506Y-113366961D01*
X136327506Y-113366961D02*
X136327506Y-113319342D01*
X136327506Y-113319342D02*
X136375125Y-113224104D01*
X136375125Y-113224104D02*
X136470363Y-113176485D01*
X136470363Y-113176485D02*
X136613220Y-113176485D01*
X136613220Y-113176485D02*
X136708458Y-113128866D01*
X136708458Y-113128866D02*
X136756077Y-113033628D01*
X136756077Y-113033628D02*
X136756077Y-112986009D01*
X136756077Y-112986009D02*
X136708458Y-112890771D01*
X136708458Y-112890771D02*
X136613220Y-112843152D01*
X136613220Y-112843152D02*
X136470363Y-112843152D01*
X136470363Y-112843152D02*
X136375125Y-112890771D01*
X135898934Y-113509819D02*
X135898934Y-112843152D01*
X135898934Y-112509819D02*
X135946553Y-112557438D01*
X135946553Y-112557438D02*
X135898934Y-112605057D01*
X135898934Y-112605057D02*
X135851315Y-112557438D01*
X135851315Y-112557438D02*
X135898934Y-112509819D01*
X135898934Y-112509819D02*
X135898934Y-112605057D01*
X135279887Y-113509819D02*
X135375125Y-113462200D01*
X135375125Y-113462200D02*
X135422744Y-113414580D01*
X135422744Y-113414580D02*
X135470363Y-113319342D01*
X135470363Y-113319342D02*
X135470363Y-113033628D01*
X135470363Y-113033628D02*
X135422744Y-112938390D01*
X135422744Y-112938390D02*
X135375125Y-112890771D01*
X135375125Y-112890771D02*
X135279887Y-112843152D01*
X135279887Y-112843152D02*
X135137030Y-112843152D01*
X135137030Y-112843152D02*
X135041792Y-112890771D01*
X135041792Y-112890771D02*
X134994173Y-112938390D01*
X134994173Y-112938390D02*
X134946554Y-113033628D01*
X134946554Y-113033628D02*
X134946554Y-113319342D01*
X134946554Y-113319342D02*
X134994173Y-113414580D01*
X134994173Y-113414580D02*
X135041792Y-113462200D01*
X135041792Y-113462200D02*
X135137030Y-113509819D01*
X135137030Y-113509819D02*
X135279887Y-113509819D01*
X134517982Y-112843152D02*
X134517982Y-113509819D01*
X134517982Y-112938390D02*
X134470363Y-112890771D01*
X134470363Y-112890771D02*
X134375125Y-112843152D01*
X134375125Y-112843152D02*
X134232268Y-112843152D01*
X134232268Y-112843152D02*
X134137030Y-112890771D01*
X134137030Y-112890771D02*
X134089411Y-112986009D01*
X134089411Y-112986009D02*
X134089411Y-113509819D01*
X133613220Y-113414580D02*
X133565601Y-113462200D01*
X133565601Y-113462200D02*
X133613220Y-113509819D01*
X133613220Y-113509819D02*
X133660839Y-113462200D01*
X133660839Y-113462200D02*
X133613220Y-113414580D01*
X133613220Y-113414580D02*
X133613220Y-113509819D01*
X133613220Y-112890771D02*
X133565601Y-112938390D01*
X133565601Y-112938390D02*
X133613220Y-112986009D01*
X133613220Y-112986009D02*
X133660839Y-112938390D01*
X133660839Y-112938390D02*
X133613220Y-112890771D01*
X133613220Y-112890771D02*
X133613220Y-112986009D01*
%LPC*%
D11*
%TO.C,H1*%
X92000000Y-64000000D03*
%TD*%
%TO.C,H2*%
X92000000Y-105000000D03*
%TD*%
D12*
%TO.C,J12*%
X94350000Y-111400000D03*
D13*
X94350000Y-113400000D03*
%TD*%
D14*
%TO.C,PS2*%
X108780000Y-97475000D03*
D15*
X111320000Y-97475000D03*
X116400000Y-97475000D03*
X121480000Y-97475000D03*
%TD*%
D11*
%TO.C,H4*%
X156000000Y-64000000D03*
%TD*%
D16*
%TO.C,PS1*%
X109380000Y-66000000D03*
D17*
X111920000Y-66000000D03*
X114460000Y-66000000D03*
X117000000Y-66000000D03*
%TD*%
D18*
%TO.C,U4*%
X89660000Y-88270000D03*
X92200000Y-88270000D03*
X94740000Y-88270000D03*
X97280000Y-88270000D03*
X99820000Y-88270000D03*
X102360000Y-88270000D03*
X104900000Y-88270000D03*
X104900000Y-70490000D03*
X102360000Y-70490000D03*
X99820000Y-70490000D03*
X97280000Y-70490000D03*
X94740000Y-70490000D03*
X92200000Y-70490000D03*
X89660000Y-70490000D03*
%TD*%
D19*
%TO.C,J1*%
X95002000Y-92180000D03*
X91202000Y-92180000D03*
X95002000Y-100820000D03*
X91202000Y-100820000D03*
%TD*%
D14*
%TO.C,PS3*%
X108880000Y-111675000D03*
D15*
X111420000Y-111675000D03*
X116500000Y-111675000D03*
X121580000Y-111675000D03*
%TD*%
D11*
%TO.C,H3*%
X156000000Y-105000000D03*
%TD*%
%LPD*%
M02*
