%TF.GenerationSoftware,KiCad,Pcbnew,7.0.9*%
%TF.CreationDate,2024-10-16T13:59:32-06:00*%
%TF.ProjectId,uart_mux_v3,75617274-5f6d-4757-985f-76332e6b6963,rev?*%
%TF.SameCoordinates,Original*%
%TF.FileFunction,Paste,Top*%
%TF.FilePolarity,Positive*%
%FSLAX46Y46*%
G04 Gerber Fmt 4.6, Leading zero omitted, Abs format (unit mm)*
G04 Created by KiCad (PCBNEW 7.0.9) date 2024-10-16 13:59:32*
%MOMM*%
%LPD*%
G01*
G04 APERTURE LIST*
G04 Aperture macros list*
%AMRoundRect*
0 Rectangle with rounded corners*
0 $1 Rounding radius*
0 $2 $3 $4 $5 $6 $7 $8 $9 X,Y pos of 4 corners*
0 Add a 4 corners polygon primitive as box body*
4,1,4,$2,$3,$4,$5,$6,$7,$8,$9,$2,$3,0*
0 Add four circle primitives for the rounded corners*
1,1,$1+$1,$2,$3*
1,1,$1+$1,$4,$5*
1,1,$1+$1,$6,$7*
1,1,$1+$1,$8,$9*
0 Add four rect primitives between the rounded corners*
20,1,$1+$1,$2,$3,$4,$5,0*
20,1,$1+$1,$4,$5,$6,$7,0*
20,1,$1+$1,$6,$7,$8,$9,0*
20,1,$1+$1,$8,$9,$2,$3,0*%
%AMFreePoly0*
4,1,9,3.862500,-0.866500,0.737500,-0.866500,0.737500,-0.450000,-0.737500,-0.450000,-0.737500,0.450000,0.737500,0.450000,0.737500,0.866500,3.862500,0.866500,3.862500,-0.866500,3.862500,-0.866500,$1*%
G04 Aperture macros list end*
%ADD10RoundRect,0.155000X0.212500X0.155000X-0.212500X0.155000X-0.212500X-0.155000X0.212500X-0.155000X0*%
%ADD11RoundRect,0.150000X0.625000X-0.150000X0.625000X0.150000X-0.625000X0.150000X-0.625000X-0.150000X0*%
%ADD12RoundRect,0.250000X0.650000X-0.350000X0.650000X0.350000X-0.650000X0.350000X-0.650000X-0.350000X0*%
%ADD13R,1.000000X1.050000*%
%ADD14R,1.050000X2.200000*%
%ADD15RoundRect,0.100000X0.637500X0.100000X-0.637500X0.100000X-0.637500X-0.100000X0.637500X-0.100000X0*%
%ADD16RoundRect,0.237500X0.300000X0.237500X-0.300000X0.237500X-0.300000X-0.237500X0.300000X-0.237500X0*%
%ADD17RoundRect,0.100000X-0.637500X-0.100000X0.637500X-0.100000X0.637500X0.100000X-0.637500X0.100000X0*%
%ADD18RoundRect,0.237500X-0.237500X0.300000X-0.237500X-0.300000X0.237500X-0.300000X0.237500X0.300000X0*%
%ADD19RoundRect,0.237500X-0.300000X-0.237500X0.300000X-0.237500X0.300000X0.237500X-0.300000X0.237500X0*%
%ADD20RoundRect,0.237500X-0.237500X0.250000X-0.237500X-0.250000X0.237500X-0.250000X0.237500X0.250000X0*%
%ADD21RoundRect,0.150000X-0.512500X-0.150000X0.512500X-0.150000X0.512500X0.150000X-0.512500X0.150000X0*%
%ADD22RoundRect,0.135000X0.135000X0.185000X-0.135000X0.185000X-0.135000X-0.185000X0.135000X-0.185000X0*%
%ADD23RoundRect,0.250000X-0.412500X-0.650000X0.412500X-0.650000X0.412500X0.650000X-0.412500X0.650000X0*%
%ADD24R,1.600000X1.600000*%
%ADD25C,1.600000*%
%ADD26RoundRect,0.250001X0.462499X1.074999X-0.462499X1.074999X-0.462499X-1.074999X0.462499X-1.074999X0*%
%ADD27RoundRect,0.250000X0.412500X0.650000X-0.412500X0.650000X-0.412500X-0.650000X0.412500X-0.650000X0*%
%ADD28R,0.900000X1.300000*%
%ADD29FreePoly0,90.000000*%
%ADD30RoundRect,0.155000X0.155000X-0.212500X0.155000X0.212500X-0.155000X0.212500X-0.155000X-0.212500X0*%
%ADD31RoundRect,0.150000X-0.825000X-0.150000X0.825000X-0.150000X0.825000X0.150000X-0.825000X0.150000X0*%
%ADD32RoundRect,0.250000X1.100000X-0.412500X1.100000X0.412500X-1.100000X0.412500X-1.100000X-0.412500X0*%
%ADD33RoundRect,0.135000X0.185000X-0.135000X0.185000X0.135000X-0.185000X0.135000X-0.185000X-0.135000X0*%
%ADD34O,2.000000X1.100000*%
%ADD35R,1.400000X0.800000*%
%ADD36RoundRect,0.150000X0.150000X-0.587500X0.150000X0.587500X-0.150000X0.587500X-0.150000X-0.587500X0*%
%ADD37RoundRect,0.250000X0.650000X-0.412500X0.650000X0.412500X-0.650000X0.412500X-0.650000X-0.412500X0*%
G04 APERTURE END LIST*
%TO.C,J1*%
G36*
X95702000Y-94150000D02*
G01*
X94302000Y-94150000D01*
X94302000Y-93350000D01*
X95702000Y-93350000D01*
X95702000Y-94150000D01*
G37*
G36*
X95704000Y-95380000D02*
G01*
X94304000Y-95380000D01*
X94304000Y-94580000D01*
X95704000Y-94580000D01*
X95704000Y-95380000D01*
G37*
G36*
X95700000Y-96400000D02*
G01*
X94300000Y-96400000D01*
X94300000Y-95600000D01*
X95700000Y-95600000D01*
X95700000Y-96400000D01*
G37*
G36*
X95700000Y-97400000D02*
G01*
X94300000Y-97400000D01*
X94300000Y-96600000D01*
X95700000Y-96600000D01*
X95700000Y-97400000D01*
G37*
G36*
X95701000Y-98420000D02*
G01*
X94301000Y-98420000D01*
X94301000Y-97620000D01*
X95701000Y-97620000D01*
X95701000Y-98420000D01*
G37*
G36*
X95702000Y-99650000D02*
G01*
X94302000Y-99650000D01*
X94302000Y-98850000D01*
X95702000Y-98850000D01*
X95702000Y-99650000D01*
G37*
%TD*%
D10*
%TO.C,C1*%
X121168691Y-79709250D03*
X120033691Y-79709250D03*
%TD*%
D11*
%TO.C,J5*%
X158375000Y-73862500D03*
X158375000Y-72862500D03*
X158375000Y-71862500D03*
X158375000Y-70862500D03*
D12*
X162250000Y-75162500D03*
X162250000Y-69562500D03*
%TD*%
D11*
%TO.C,J3*%
X158375000Y-81762500D03*
X158375000Y-80762500D03*
X158375000Y-79762500D03*
X158375000Y-78762500D03*
D12*
X162250000Y-83062500D03*
X162250000Y-77462500D03*
%TD*%
D11*
%TO.C,J4*%
X158325000Y-90050000D03*
X158325000Y-89050000D03*
X158325000Y-88050000D03*
X158325000Y-87050000D03*
D12*
X162200000Y-91350000D03*
X162200000Y-85750000D03*
%TD*%
D11*
%TO.C,J2*%
X158325000Y-98200000D03*
X158325000Y-97200000D03*
X158325000Y-96200000D03*
X158325000Y-95200000D03*
D12*
X162200000Y-99500000D03*
X162200000Y-93900000D03*
%TD*%
D13*
%TO.C,J7*%
X145600000Y-72400000D03*
D14*
X144125000Y-70875000D03*
X147075000Y-70875000D03*
%TD*%
D15*
%TO.C,U2*%
X125638691Y-78384250D03*
X125638691Y-77734250D03*
X125638691Y-77084250D03*
X125638691Y-76434250D03*
X125638691Y-75784250D03*
X125638691Y-75134250D03*
X125638691Y-74484250D03*
X125638691Y-73834250D03*
X119913691Y-73834250D03*
X119913691Y-74484250D03*
X119913691Y-75134250D03*
X119913691Y-75784250D03*
X119913691Y-76434250D03*
X119913691Y-77084250D03*
X119913691Y-77734250D03*
X119913691Y-78384250D03*
%TD*%
D16*
%TO.C,C4*%
X111837500Y-81637500D03*
X110112500Y-81637500D03*
%TD*%
%TO.C,C6*%
X118037500Y-81637500D03*
X116312500Y-81637500D03*
%TD*%
%TO.C,C7*%
X117837500Y-72237500D03*
X116112500Y-72237500D03*
%TD*%
%TO.C,C5*%
X110937500Y-72337500D03*
X109212500Y-72337500D03*
%TD*%
D13*
%TO.C,J6*%
X136475000Y-65030000D03*
D14*
X135000000Y-63505000D03*
X137950000Y-63505000D03*
%TD*%
D17*
%TO.C,U3*%
X120176191Y-84659250D03*
X120176191Y-85309250D03*
X120176191Y-85959250D03*
X120176191Y-86609250D03*
X120176191Y-87259250D03*
X120176191Y-87909250D03*
X120176191Y-88559250D03*
X120176191Y-89209250D03*
X125901191Y-89209250D03*
X125901191Y-88559250D03*
X125901191Y-87909250D03*
X125901191Y-87259250D03*
X125901191Y-86609250D03*
X125901191Y-85959250D03*
X125901191Y-85309250D03*
X125901191Y-84659250D03*
%TD*%
D18*
%TO.C,C12*%
X126875000Y-67325000D03*
X126875000Y-69050000D03*
%TD*%
D19*
%TO.C,C24*%
X118275000Y-106600000D03*
X120000000Y-106600000D03*
%TD*%
D20*
%TO.C,R2*%
X141900000Y-66387500D03*
X141900000Y-68212500D03*
%TD*%
D21*
%TO.C,U9*%
X150862500Y-73037500D03*
X150862500Y-73987500D03*
X150862500Y-74937500D03*
X153137500Y-74937500D03*
X153137500Y-73037500D03*
%TD*%
D19*
%TO.C,C27*%
X119775000Y-91400000D03*
X121500000Y-91400000D03*
%TD*%
D22*
%TO.C,R6*%
X123510000Y-82400000D03*
X122490000Y-82400000D03*
%TD*%
D23*
%TO.C,C9*%
X98275000Y-62000000D03*
X101400000Y-62000000D03*
%TD*%
D24*
%TO.C,PS2*%
X108780000Y-97475000D03*
D25*
X111320000Y-97475000D03*
X116400000Y-97475000D03*
X121480000Y-97475000D03*
%TD*%
D22*
%TO.C,R5*%
X123530000Y-81190000D03*
X122510000Y-81190000D03*
%TD*%
D18*
%TO.C,C31*%
X148900000Y-79650000D03*
X148900000Y-81375000D03*
%TD*%
D26*
%TO.C,L3*%
X102100000Y-112600000D03*
X99125000Y-112600000D03*
%TD*%
D27*
%TO.C,C22*%
X119870000Y-109050000D03*
X116745000Y-109050000D03*
%TD*%
D28*
%TO.C,Q2*%
X145150000Y-66150000D03*
D29*
X146650000Y-66062500D03*
D28*
X148150000Y-66150000D03*
%TD*%
D21*
%TO.C,U12*%
X150975000Y-97012500D03*
X150975000Y-97962500D03*
X150975000Y-98912500D03*
X153250000Y-98912500D03*
X153250000Y-97012500D03*
%TD*%
D26*
%TO.C,L2*%
X102975000Y-96780000D03*
X100000000Y-96780000D03*
%TD*%
D13*
%TO.C,J8*%
X137550000Y-89825000D03*
D14*
X139025000Y-91350000D03*
X136075000Y-91350000D03*
%TD*%
D19*
%TO.C,C28*%
X118275000Y-104900000D03*
X120000000Y-104900000D03*
%TD*%
D18*
%TO.C,C20*%
X149100000Y-87562500D03*
X149100000Y-89287500D03*
%TD*%
D30*
%TO.C,C2*%
X127576191Y-84676750D03*
X127576191Y-83541750D03*
%TD*%
D31*
%TO.C,U6*%
X111025000Y-74027500D03*
X111025000Y-75297500D03*
X111025000Y-76567500D03*
X111025000Y-77837500D03*
X115975000Y-77837500D03*
X115975000Y-76567500D03*
X115975000Y-75297500D03*
X115975000Y-74027500D03*
%TD*%
%TO.C,U5*%
X111525000Y-83427500D03*
X111525000Y-84697500D03*
X111525000Y-85967500D03*
X111525000Y-87237500D03*
X116475000Y-87237500D03*
X116475000Y-85967500D03*
X116475000Y-84697500D03*
X116475000Y-83427500D03*
%TD*%
D32*
%TO.C,C13*%
X129800000Y-69212500D03*
X129800000Y-66087500D03*
%TD*%
D33*
%TO.C,R3*%
X108200000Y-80420000D03*
X108200000Y-79400000D03*
%TD*%
D18*
%TO.C,C32*%
X149050000Y-95887500D03*
X149050000Y-97612500D03*
%TD*%
D20*
%TO.C,R1*%
X132600000Y-67337500D03*
X132600000Y-69162500D03*
%TD*%
D21*
%TO.C,U8*%
X140900000Y-75337500D03*
X140900000Y-76287500D03*
X140900000Y-77237500D03*
X143175000Y-77237500D03*
X143175000Y-75337500D03*
%TD*%
D33*
%TO.C,R4*%
X107000000Y-80420000D03*
X107000000Y-79400000D03*
%TD*%
D23*
%TO.C,C17*%
X99862500Y-99830000D03*
X102987500Y-99830000D03*
%TD*%
D18*
%TO.C,C33*%
X155100000Y-79887500D03*
X155100000Y-81612500D03*
%TD*%
D34*
%TO.C,J1*%
X95002000Y-92180000D03*
X91202000Y-92180000D03*
X95002000Y-100820000D03*
X91202000Y-100820000D03*
D35*
X95000000Y-96000000D03*
X95001000Y-98020000D03*
X95002000Y-99250000D03*
X95000000Y-97000000D03*
X95004000Y-94980000D03*
X95002000Y-93750000D03*
%TD*%
D18*
%TO.C,C14*%
X138950000Y-74237500D03*
X138950000Y-75962500D03*
%TD*%
D32*
%TO.C,C16*%
X139400000Y-69712500D03*
X139400000Y-66587500D03*
%TD*%
D21*
%TO.C,U10*%
X150962500Y-88737500D03*
X150962500Y-89687500D03*
X150962500Y-90637500D03*
X153237500Y-90637500D03*
X153237500Y-88737500D03*
%TD*%
D26*
%TO.C,L1*%
X101487500Y-65000000D03*
X98512500Y-65000000D03*
%TD*%
D30*
%TO.C,C8*%
X118400000Y-89035000D03*
X118400000Y-87900000D03*
%TD*%
D24*
%TO.C,PS3*%
X108880000Y-111675000D03*
D25*
X111420000Y-111675000D03*
X116500000Y-111675000D03*
X121580000Y-111675000D03*
%TD*%
D18*
%TO.C,C11*%
X124850000Y-67337500D03*
X124850000Y-69062500D03*
%TD*%
D31*
%TO.C,U7*%
X111050000Y-89190000D03*
X111050000Y-90460000D03*
X111050000Y-91730000D03*
X111050000Y-93000000D03*
X116000000Y-93000000D03*
X116000000Y-91730000D03*
X116000000Y-90460000D03*
X116000000Y-89190000D03*
%TD*%
D21*
%TO.C,U11*%
X150800000Y-80712500D03*
X150800000Y-81662500D03*
X150800000Y-82612500D03*
X153075000Y-82612500D03*
X153075000Y-80712500D03*
%TD*%
D36*
%TO.C,Q1*%
X134300000Y-69150000D03*
X136200000Y-69150000D03*
X135250000Y-67275000D03*
%TD*%
D18*
%TO.C,C26*%
X155300000Y-88725000D03*
X155300000Y-90450000D03*
%TD*%
%TO.C,C19*%
X149000000Y-72025000D03*
X149000000Y-73750000D03*
%TD*%
D23*
%TO.C,C18*%
X98975000Y-115600000D03*
X102100000Y-115600000D03*
%TD*%
D18*
%TO.C,C25*%
X155300000Y-72287500D03*
X155300000Y-74012500D03*
%TD*%
D13*
%TO.C,J9*%
X130600000Y-107300000D03*
D14*
X132075000Y-108825000D03*
X129125000Y-108825000D03*
%TD*%
D19*
%TO.C,C37*%
X112537500Y-95400000D03*
X114262500Y-95400000D03*
%TD*%
D37*
%TO.C,C10*%
X122525000Y-69325000D03*
X122525000Y-66200000D03*
%TD*%
D18*
%TO.C,C15*%
X145500000Y-74475000D03*
X145500000Y-76200000D03*
%TD*%
D19*
%TO.C,C23*%
X119775000Y-93100000D03*
X121500000Y-93100000D03*
%TD*%
D30*
%TO.C,C3*%
X109000000Y-89000000D03*
X109000000Y-87865000D03*
%TD*%
D27*
%TO.C,C21*%
X121500000Y-95100000D03*
X118375000Y-95100000D03*
%TD*%
D18*
%TO.C,C34*%
X155450000Y-96287500D03*
X155450000Y-98012500D03*
%TD*%
M02*
