M48
; DRILL file {KiCad 7.0.9} date Wed Oct 16 13:59:32 2024
; FORMAT={-:-/ absolute / inch / decimal}
; #@! TF.CreationDate,2024-10-16T13:59:32-06:00
; #@! TF.GenerationSoftware,Kicad,Pcbnew,7.0.9
; #@! TF.FileFunction,Plated,1,2,PTH
FMAT,2
INCH
; #@! TA.AperFunction,Plated,PTH,ViaDrill
T1C0.0157
; #@! TA.AperFunction,Plated,PTH,ComponentDrill
T2C0.0276
; #@! TA.AperFunction,Plated,PTH,ComponentDrill
T3C0.0295
; #@! TA.AperFunction,Plated,PTH,ComponentDrill
T4C0.0315
; #@! TA.AperFunction,Plated,PTH,ComponentDrill
T5C0.0394
; #@! TA.AperFunction,Plated,PTH,ComponentDrill
T6C0.0423
; #@! TA.AperFunction,Plated,PTH,ComponentDrill
T7C0.1260
%
G90
G05
T1
X3.815Y-3.689
X3.8228Y-3.878
X3.8661Y-3.9094
X3.9016Y-4.0512
X4.0276Y-3.0157
X4.2283Y-3.4252
X4.2283Y-3.4843
X4.2559Y-3.6654
X4.2825Y-2.9149
X4.2913Y-3.218
X4.2953Y-3.6102
X4.3701Y-2.8465
X4.3858Y-3.1181
X4.4035Y-3.2141
X4.5Y-3.1535
X4.5266Y-3.4094
X4.5275Y-3.1063
X4.5699Y-2.781
X4.5787Y-3.2141
X4.6407Y-3.1629
X4.6614Y-3.2814
X4.6614Y-3.5472
X4.6643Y-2.9784
X4.6654Y-3.0644
X4.7195Y-3.2023
X4.8474Y-2.8898
X4.8937Y-3.0354
X4.8938Y-2.9525
X4.9967Y-3.0196
X5.0157Y-3.5118
X5.0236Y-3.0866
X5.0512Y-3.0157
X5.0669Y-3.2756
X5.0778Y-3.5187
X5.1112Y-3.497
X5.1161Y-2.8976
X5.2146Y-2.8976
X5.2648Y-3.3041
X5.313Y-2.8976
X5.4055Y-2.8976
X5.5285Y-3.4862
X5.6663Y-3.1526
X5.8091Y-3.8937
X5.8209Y-3.002
X5.8376Y-3.5689
X6.1693Y-2.7894
X6.1693Y-2.8287
X6.1693Y-3.1004
X6.1693Y-3.1398
X6.1752Y-3.7598
X6.1757Y-3.72
X6.178Y-3.4606
X6.1793Y-3.4212
T3
X3.7146Y-4.3858
X3.7146Y-4.4646
T4
X3.5299Y-2.8252
X3.5299Y-3.4252
X3.6299Y-2.8252
X3.6299Y-3.4252
X3.7299Y-2.8252
X3.7299Y-3.4252
X3.8299Y-2.8252
X3.8299Y-3.4252
X3.9299Y-2.8252
X3.9299Y-3.4252
X4.0299Y-2.8252
X4.0299Y-3.4252
X4.1299Y-2.8252
X4.1299Y-3.4252
T5
X4.2827Y-3.8376
X4.2866Y-4.3967
X4.3827Y-3.8376
X4.3866Y-4.3967
X4.5827Y-3.8376
X4.5866Y-4.3967
X4.7827Y-3.8376
X4.7866Y-4.3967
T6
X4.3063Y-2.5984
X4.4063Y-2.5984
X4.5063Y-2.5984
X4.6063Y-2.5984
T7
X3.622Y-2.5197
X3.622Y-4.1339
X6.1417Y-2.5197
X6.1417Y-4.1339
T2
G00X3.6083Y-3.6291
M15
G01X3.5729Y-3.6291
M16
G05
G00X3.6083Y-3.9693
M15
G01X3.5729Y-3.9693
M16
G05
G00X3.758Y-3.6291
M15
G01X3.7225Y-3.6291
M16
G05
G00X3.758Y-3.9693
M15
G01X3.7225Y-3.9693
M16
G05
T0
M30
