%TF.GenerationSoftware,KiCad,Pcbnew,7.0.9*%
%TF.CreationDate,2024-10-15T17:06:46-06:00*%
%TF.ProjectId,TPS61165-heater-v8,54505336-3131-4363-952d-686561746572,rev?*%
%TF.SameCoordinates,Original*%
%TF.FileFunction,Soldermask,Bot*%
%TF.FilePolarity,Negative*%
%FSLAX46Y46*%
G04 Gerber Fmt 4.6, Leading zero omitted, Abs format (unit mm)*
G04 Created by KiCad (PCBNEW 7.0.9) date 2024-10-15 17:06:46*
%MOMM*%
%LPD*%
G01*
G04 APERTURE LIST*
G04 APERTURE END LIST*
G36*
X119525953Y-90791827D02*
G01*
X119869735Y-90867499D01*
X120203319Y-90979897D01*
X120522796Y-91127702D01*
X120824419Y-91309183D01*
X121104653Y-91522211D01*
X121360211Y-91764289D01*
X121588099Y-92032579D01*
X121785643Y-92323934D01*
X121950528Y-92634941D01*
X122080820Y-92961951D01*
X122174993Y-93301131D01*
X122231942Y-93648505D01*
X122251000Y-94000000D01*
X122231942Y-94351495D01*
X122174993Y-94698869D01*
X122080820Y-95038049D01*
X121950528Y-95365059D01*
X121785643Y-95676066D01*
X121588099Y-95967421D01*
X121360211Y-96235711D01*
X121104653Y-96477789D01*
X120824419Y-96690817D01*
X120522796Y-96872298D01*
X120203319Y-97020103D01*
X119869735Y-97132501D01*
X119525953Y-97208173D01*
X119176006Y-97246232D01*
X118823994Y-97246232D01*
X118474047Y-97208173D01*
X118130265Y-97132501D01*
X117796681Y-97020103D01*
X117477204Y-96872298D01*
X117175581Y-96690817D01*
X116895347Y-96477789D01*
X116639789Y-96235711D01*
X116411901Y-95967421D01*
X116214357Y-95676066D01*
X116049472Y-95365059D01*
X115919180Y-95038049D01*
X115825007Y-94698869D01*
X115768058Y-94351495D01*
X115749000Y-94000000D01*
X115768058Y-93648505D01*
X115825007Y-93301131D01*
X115919180Y-92961951D01*
X116049472Y-92634941D01*
X116214357Y-92323934D01*
X116411901Y-92032579D01*
X116639789Y-91764289D01*
X116895347Y-91522211D01*
X117175581Y-91309183D01*
X117477204Y-91127702D01*
X117796681Y-90979897D01*
X118130265Y-90867499D01*
X118474047Y-90791827D01*
X118823994Y-90753768D01*
X119176006Y-90753768D01*
X119525953Y-90791827D01*
G37*
G36*
X156525953Y-90791827D02*
G01*
X156869735Y-90867499D01*
X157203319Y-90979897D01*
X157522796Y-91127702D01*
X157824419Y-91309183D01*
X158104653Y-91522211D01*
X158360211Y-91764289D01*
X158588099Y-92032579D01*
X158785643Y-92323934D01*
X158950528Y-92634941D01*
X159080820Y-92961951D01*
X159174993Y-93301131D01*
X159231942Y-93648505D01*
X159251000Y-94000000D01*
X159231942Y-94351495D01*
X159174993Y-94698869D01*
X159080820Y-95038049D01*
X158950528Y-95365059D01*
X158785643Y-95676066D01*
X158588099Y-95967421D01*
X158360211Y-96235711D01*
X158104653Y-96477789D01*
X157824419Y-96690817D01*
X157522796Y-96872298D01*
X157203319Y-97020103D01*
X156869735Y-97132501D01*
X156525953Y-97208173D01*
X156176006Y-97246232D01*
X155823994Y-97246232D01*
X155474047Y-97208173D01*
X155130265Y-97132501D01*
X154796681Y-97020103D01*
X154477204Y-96872298D01*
X154175581Y-96690817D01*
X153895347Y-96477789D01*
X153639789Y-96235711D01*
X153411901Y-95967421D01*
X153214357Y-95676066D01*
X153049472Y-95365059D01*
X152919180Y-95038049D01*
X152825007Y-94698869D01*
X152768058Y-94351495D01*
X152749000Y-94000000D01*
X152768058Y-93648505D01*
X152825007Y-93301131D01*
X152919180Y-92961951D01*
X153049472Y-92634941D01*
X153214357Y-92323934D01*
X153411901Y-92032579D01*
X153639789Y-91764289D01*
X153895347Y-91522211D01*
X154175581Y-91309183D01*
X154477204Y-91127702D01*
X154796681Y-90979897D01*
X155130265Y-90867499D01*
X155474047Y-90791827D01*
X155823994Y-90753768D01*
X156176006Y-90753768D01*
X156525953Y-90791827D01*
G37*
G36*
X118766891Y-87519380D02*
G01*
X118830097Y-87523062D01*
X118874144Y-87533501D01*
X118919550Y-87539479D01*
X118946539Y-87550658D01*
X118969264Y-87556044D01*
X119015018Y-87579023D01*
X119064500Y-87599519D01*
X119080928Y-87612125D01*
X119093789Y-87618584D01*
X119141297Y-87658447D01*
X119188971Y-87695029D01*
X119196341Y-87704635D01*
X119200531Y-87708150D01*
X119249110Y-87773404D01*
X119284481Y-87819500D01*
X119306715Y-87873180D01*
X119338935Y-87947873D01*
X119339884Y-87953255D01*
X119344521Y-87964450D01*
X119352367Y-88024049D01*
X119363134Y-88085106D01*
X119362297Y-88099470D01*
X119365000Y-88120000D01*
X119358007Y-88173111D01*
X119355031Y-88224211D01*
X119348335Y-88246575D01*
X119344521Y-88275550D01*
X119326993Y-88317865D01*
X119315065Y-88357710D01*
X119298871Y-88385757D01*
X119284481Y-88420500D01*
X119261588Y-88450333D01*
X119245394Y-88478384D01*
X119216849Y-88508638D01*
X119188971Y-88544971D01*
X119165788Y-88562759D01*
X119149769Y-88579739D01*
X119107006Y-88607864D01*
X119064500Y-88640481D01*
X119045366Y-88648406D01*
X119033345Y-88656313D01*
X118975084Y-88677518D01*
X118919550Y-88700521D01*
X118907539Y-88702102D01*
X118902405Y-88703971D01*
X118821632Y-88713412D01*
X118764000Y-88721000D01*
X118756719Y-88721000D01*
X118067645Y-88721000D01*
X118064000Y-88721000D01*
X118061106Y-88720619D01*
X117997902Y-88716937D01*
X117953862Y-88706499D01*
X117908450Y-88700521D01*
X117881456Y-88689339D01*
X117858735Y-88683955D01*
X117812987Y-88660979D01*
X117763500Y-88640481D01*
X117747069Y-88627873D01*
X117734210Y-88621415D01*
X117686705Y-88581554D01*
X117639029Y-88544971D01*
X117631657Y-88535364D01*
X117627468Y-88531849D01*
X117578881Y-88466584D01*
X117543519Y-88420500D01*
X117521297Y-88366853D01*
X117489064Y-88292126D01*
X117488114Y-88286740D01*
X117483479Y-88275550D01*
X117475634Y-88215968D01*
X117464865Y-88154893D01*
X117465702Y-88140523D01*
X117463000Y-88120000D01*
X117469990Y-88066903D01*
X117472968Y-88015788D01*
X117479665Y-87993416D01*
X117483479Y-87964450D01*
X117501002Y-87922145D01*
X117512934Y-87882289D01*
X117529132Y-87854232D01*
X117543519Y-87819500D01*
X117566404Y-87789674D01*
X117582605Y-87761615D01*
X117611158Y-87731350D01*
X117639029Y-87695029D01*
X117662204Y-87677245D01*
X117678230Y-87660260D01*
X117721008Y-87632123D01*
X117763500Y-87599519D01*
X117782626Y-87591596D01*
X117794654Y-87583686D01*
X117852942Y-87562470D01*
X117908450Y-87539479D01*
X117920454Y-87537898D01*
X117925594Y-87536028D01*
X118006400Y-87526583D01*
X118064000Y-87519000D01*
X118764000Y-87519000D01*
X118766891Y-87519380D01*
G37*
G36*
X122566891Y-87519380D02*
G01*
X122630097Y-87523062D01*
X122674144Y-87533501D01*
X122719550Y-87539479D01*
X122746539Y-87550658D01*
X122769264Y-87556044D01*
X122815018Y-87579023D01*
X122864500Y-87599519D01*
X122880928Y-87612125D01*
X122893789Y-87618584D01*
X122941297Y-87658447D01*
X122988971Y-87695029D01*
X122996341Y-87704635D01*
X123000531Y-87708150D01*
X123049110Y-87773404D01*
X123084481Y-87819500D01*
X123106715Y-87873180D01*
X123138935Y-87947873D01*
X123139884Y-87953255D01*
X123144521Y-87964450D01*
X123152367Y-88024049D01*
X123163134Y-88085106D01*
X123162297Y-88099470D01*
X123165000Y-88120000D01*
X123158007Y-88173111D01*
X123155031Y-88224211D01*
X123148335Y-88246575D01*
X123144521Y-88275550D01*
X123126993Y-88317865D01*
X123115065Y-88357710D01*
X123098871Y-88385757D01*
X123084481Y-88420500D01*
X123061588Y-88450333D01*
X123045394Y-88478384D01*
X123016849Y-88508638D01*
X122988971Y-88544971D01*
X122965788Y-88562759D01*
X122949769Y-88579739D01*
X122907006Y-88607864D01*
X122864500Y-88640481D01*
X122845366Y-88648406D01*
X122833345Y-88656313D01*
X122775084Y-88677518D01*
X122719550Y-88700521D01*
X122707539Y-88702102D01*
X122702405Y-88703971D01*
X122621632Y-88713412D01*
X122564000Y-88721000D01*
X122556719Y-88721000D01*
X121867645Y-88721000D01*
X121864000Y-88721000D01*
X121861106Y-88720619D01*
X121797902Y-88716937D01*
X121753862Y-88706499D01*
X121708450Y-88700521D01*
X121681456Y-88689339D01*
X121658735Y-88683955D01*
X121612987Y-88660979D01*
X121563500Y-88640481D01*
X121547069Y-88627873D01*
X121534210Y-88621415D01*
X121486705Y-88581554D01*
X121439029Y-88544971D01*
X121431657Y-88535364D01*
X121427468Y-88531849D01*
X121378881Y-88466584D01*
X121343519Y-88420500D01*
X121321297Y-88366853D01*
X121289064Y-88292126D01*
X121288114Y-88286740D01*
X121283479Y-88275550D01*
X121275634Y-88215968D01*
X121264865Y-88154893D01*
X121265702Y-88140523D01*
X121263000Y-88120000D01*
X121269990Y-88066903D01*
X121272968Y-88015788D01*
X121279665Y-87993416D01*
X121283479Y-87964450D01*
X121301002Y-87922145D01*
X121312934Y-87882289D01*
X121329132Y-87854232D01*
X121343519Y-87819500D01*
X121366404Y-87789674D01*
X121382605Y-87761615D01*
X121411158Y-87731350D01*
X121439029Y-87695029D01*
X121462204Y-87677245D01*
X121478230Y-87660260D01*
X121521008Y-87632123D01*
X121563500Y-87599519D01*
X121582626Y-87591596D01*
X121594654Y-87583686D01*
X121652942Y-87562470D01*
X121708450Y-87539479D01*
X121720454Y-87537898D01*
X121725594Y-87536028D01*
X121806400Y-87526583D01*
X121864000Y-87519000D01*
X122564000Y-87519000D01*
X122566891Y-87519380D01*
G37*
G36*
X118766891Y-78879380D02*
G01*
X118830097Y-78883062D01*
X118874144Y-78893501D01*
X118919550Y-78899479D01*
X118946539Y-78910658D01*
X118969264Y-78916044D01*
X119015018Y-78939023D01*
X119064500Y-78959519D01*
X119080928Y-78972125D01*
X119093789Y-78978584D01*
X119141297Y-79018447D01*
X119188971Y-79055029D01*
X119196341Y-79064635D01*
X119200531Y-79068150D01*
X119249110Y-79133404D01*
X119284481Y-79179500D01*
X119306715Y-79233180D01*
X119338935Y-79307873D01*
X119339884Y-79313255D01*
X119344521Y-79324450D01*
X119352367Y-79384049D01*
X119363134Y-79445106D01*
X119362297Y-79459470D01*
X119365000Y-79480000D01*
X119358007Y-79533111D01*
X119355031Y-79584211D01*
X119348335Y-79606575D01*
X119344521Y-79635550D01*
X119326993Y-79677865D01*
X119315065Y-79717710D01*
X119298871Y-79745757D01*
X119284481Y-79780500D01*
X119261588Y-79810333D01*
X119245394Y-79838384D01*
X119216849Y-79868638D01*
X119188971Y-79904971D01*
X119165788Y-79922759D01*
X119149769Y-79939739D01*
X119107006Y-79967864D01*
X119064500Y-80000481D01*
X119045366Y-80008406D01*
X119033345Y-80016313D01*
X118975084Y-80037518D01*
X118919550Y-80060521D01*
X118907539Y-80062102D01*
X118902405Y-80063971D01*
X118821632Y-80073412D01*
X118764000Y-80081000D01*
X118756719Y-80081000D01*
X118067645Y-80081000D01*
X118064000Y-80081000D01*
X118061106Y-80080619D01*
X117997902Y-80076937D01*
X117953862Y-80066499D01*
X117908450Y-80060521D01*
X117881456Y-80049339D01*
X117858735Y-80043955D01*
X117812987Y-80020979D01*
X117763500Y-80000481D01*
X117747069Y-79987873D01*
X117734210Y-79981415D01*
X117686705Y-79941554D01*
X117639029Y-79904971D01*
X117631657Y-79895364D01*
X117627468Y-79891849D01*
X117578881Y-79826584D01*
X117543519Y-79780500D01*
X117521297Y-79726853D01*
X117489064Y-79652126D01*
X117488114Y-79646740D01*
X117483479Y-79635550D01*
X117475634Y-79575968D01*
X117464865Y-79514893D01*
X117465702Y-79500523D01*
X117463000Y-79480000D01*
X117469990Y-79426903D01*
X117472968Y-79375788D01*
X117479665Y-79353416D01*
X117483479Y-79324450D01*
X117501002Y-79282145D01*
X117512934Y-79242289D01*
X117529132Y-79214232D01*
X117543519Y-79179500D01*
X117566404Y-79149674D01*
X117582605Y-79121615D01*
X117611158Y-79091350D01*
X117639029Y-79055029D01*
X117662204Y-79037245D01*
X117678230Y-79020260D01*
X117721008Y-78992123D01*
X117763500Y-78959519D01*
X117782626Y-78951596D01*
X117794654Y-78943686D01*
X117852942Y-78922470D01*
X117908450Y-78899479D01*
X117920454Y-78897898D01*
X117925594Y-78896028D01*
X118006400Y-78886583D01*
X118064000Y-78879000D01*
X118764000Y-78879000D01*
X118766891Y-78879380D01*
G37*
G36*
X122566891Y-78879380D02*
G01*
X122630097Y-78883062D01*
X122674144Y-78893501D01*
X122719550Y-78899479D01*
X122746539Y-78910658D01*
X122769264Y-78916044D01*
X122815018Y-78939023D01*
X122864500Y-78959519D01*
X122880928Y-78972125D01*
X122893789Y-78978584D01*
X122941297Y-79018447D01*
X122988971Y-79055029D01*
X122996341Y-79064635D01*
X123000531Y-79068150D01*
X123049110Y-79133404D01*
X123084481Y-79179500D01*
X123106715Y-79233180D01*
X123138935Y-79307873D01*
X123139884Y-79313255D01*
X123144521Y-79324450D01*
X123152367Y-79384049D01*
X123163134Y-79445106D01*
X123162297Y-79459470D01*
X123165000Y-79480000D01*
X123158007Y-79533111D01*
X123155031Y-79584211D01*
X123148335Y-79606575D01*
X123144521Y-79635550D01*
X123126993Y-79677865D01*
X123115065Y-79717710D01*
X123098871Y-79745757D01*
X123084481Y-79780500D01*
X123061588Y-79810333D01*
X123045394Y-79838384D01*
X123016849Y-79868638D01*
X122988971Y-79904971D01*
X122965788Y-79922759D01*
X122949769Y-79939739D01*
X122907006Y-79967864D01*
X122864500Y-80000481D01*
X122845366Y-80008406D01*
X122833345Y-80016313D01*
X122775084Y-80037518D01*
X122719550Y-80060521D01*
X122707539Y-80062102D01*
X122702405Y-80063971D01*
X122621632Y-80073412D01*
X122564000Y-80081000D01*
X122556719Y-80081000D01*
X121867645Y-80081000D01*
X121864000Y-80081000D01*
X121861106Y-80080619D01*
X121797902Y-80076937D01*
X121753862Y-80066499D01*
X121708450Y-80060521D01*
X121681456Y-80049339D01*
X121658735Y-80043955D01*
X121612987Y-80020979D01*
X121563500Y-80000481D01*
X121547069Y-79987873D01*
X121534210Y-79981415D01*
X121486705Y-79941554D01*
X121439029Y-79904971D01*
X121431657Y-79895364D01*
X121427468Y-79891849D01*
X121378881Y-79826584D01*
X121343519Y-79780500D01*
X121321297Y-79726853D01*
X121289064Y-79652126D01*
X121288114Y-79646740D01*
X121283479Y-79635550D01*
X121275634Y-79575968D01*
X121264865Y-79514893D01*
X121265702Y-79500523D01*
X121263000Y-79480000D01*
X121269990Y-79426903D01*
X121272968Y-79375788D01*
X121279665Y-79353416D01*
X121283479Y-79324450D01*
X121301002Y-79282145D01*
X121312934Y-79242289D01*
X121329132Y-79214232D01*
X121343519Y-79179500D01*
X121366404Y-79149674D01*
X121382605Y-79121615D01*
X121411158Y-79091350D01*
X121439029Y-79055029D01*
X121462204Y-79037245D01*
X121478230Y-79020260D01*
X121521008Y-78992123D01*
X121563500Y-78959519D01*
X121582626Y-78951596D01*
X121594654Y-78943686D01*
X121652942Y-78922470D01*
X121708450Y-78899479D01*
X121720454Y-78897898D01*
X121725594Y-78896028D01*
X121806400Y-78886583D01*
X121864000Y-78879000D01*
X122564000Y-78879000D01*
X122566891Y-78879380D01*
G37*
G36*
X122156592Y-74754133D02*
G01*
X122190259Y-74762777D01*
X122219686Y-74766093D01*
X122265204Y-74782020D01*
X122314649Y-74794716D01*
X122337697Y-74807386D01*
X122357114Y-74814181D01*
X122406485Y-74845203D01*
X122457648Y-74873330D01*
X122470589Y-74885482D01*
X122480395Y-74891644D01*
X122530393Y-74941642D01*
X122576604Y-74985037D01*
X122581494Y-74992743D01*
X122583355Y-74994604D01*
X122651455Y-75102984D01*
X122664042Y-75122818D01*
X122683516Y-75182753D01*
X122708906Y-75255313D01*
X122709868Y-75263856D01*
X122714469Y-75278015D01*
X122718267Y-75338397D01*
X122725209Y-75400000D01*
X122723241Y-75417459D01*
X122724715Y-75440877D01*
X122714668Y-75493541D01*
X122708906Y-75544686D01*
X122700126Y-75569776D01*
X122694138Y-75601170D01*
X122674650Y-75642581D01*
X122660818Y-75682114D01*
X122641822Y-75712345D01*
X122624657Y-75748823D01*
X122600722Y-75777755D01*
X122583355Y-75805395D01*
X122551525Y-75837224D01*
X122520640Y-75874559D01*
X122497056Y-75891693D01*
X122480395Y-75908355D01*
X122433997Y-75937508D01*
X122388622Y-75970476D01*
X122369450Y-75978066D01*
X122357114Y-75985818D01*
X122294802Y-76007621D01*
X122236897Y-76030548D01*
X122224980Y-76032053D01*
X122219686Y-76033906D01*
X122132954Y-76043678D01*
X122075000Y-76051000D01*
X122067980Y-76051000D01*
X121532020Y-76051000D01*
X121525000Y-76051000D01*
X121443408Y-76045867D01*
X121409736Y-76037221D01*
X121380313Y-76033906D01*
X121334802Y-76017981D01*
X121285351Y-76005284D01*
X121262299Y-75992611D01*
X121242885Y-75985818D01*
X121193519Y-75954799D01*
X121142352Y-75926670D01*
X121129409Y-75914516D01*
X121119604Y-75908355D01*
X121069606Y-75858357D01*
X121023396Y-75814963D01*
X121018505Y-75807256D01*
X121016644Y-75805395D01*
X120948507Y-75696956D01*
X120935958Y-75677182D01*
X120916492Y-75617272D01*
X120891093Y-75544686D01*
X120890129Y-75536138D01*
X120885531Y-75521985D01*
X120881733Y-75461621D01*
X120874790Y-75400000D01*
X120876757Y-75382535D01*
X120875285Y-75359123D01*
X120885328Y-75306472D01*
X120891093Y-75255313D01*
X120899875Y-75230215D01*
X120905862Y-75198830D01*
X120925343Y-75157429D01*
X120939181Y-75117885D01*
X120958182Y-75087644D01*
X120975343Y-75051177D01*
X120999271Y-75022252D01*
X121016644Y-74994604D01*
X121048483Y-74962764D01*
X121079360Y-74925441D01*
X121102936Y-74908311D01*
X121119604Y-74891644D01*
X121166018Y-74862479D01*
X121211378Y-74829524D01*
X121230542Y-74821936D01*
X121242885Y-74814181D01*
X121305227Y-74792366D01*
X121363103Y-74769452D01*
X121375013Y-74767947D01*
X121380313Y-74766093D01*
X121467080Y-74756316D01*
X121525000Y-74749000D01*
X122075000Y-74749000D01*
X122156592Y-74754133D01*
G37*
G36*
X122493914Y-72756995D02*
G01*
X122509726Y-72763976D01*
X122517531Y-72765213D01*
X122550039Y-72781776D01*
X122595106Y-72801676D01*
X122673324Y-72879894D01*
X122693226Y-72924967D01*
X122709786Y-72957468D01*
X122711021Y-72965270D01*
X122718005Y-72981086D01*
X122726000Y-73050000D01*
X122726000Y-73750000D01*
X122718005Y-73818914D01*
X122711021Y-73834729D01*
X122709786Y-73842531D01*
X122693229Y-73875024D01*
X122673324Y-73920106D01*
X122595106Y-73998324D01*
X122550024Y-74018229D01*
X122517531Y-74034786D01*
X122509729Y-74036021D01*
X122493914Y-74043005D01*
X122425000Y-74051000D01*
X121175000Y-74051000D01*
X121106086Y-74043005D01*
X121090270Y-74036021D01*
X121082468Y-74034786D01*
X121049967Y-74018226D01*
X121004894Y-73998324D01*
X120926676Y-73920106D01*
X120906776Y-73875039D01*
X120890213Y-73842531D01*
X120888976Y-73834726D01*
X120881995Y-73818914D01*
X120874000Y-73750000D01*
X120874000Y-73050000D01*
X120881995Y-72981086D01*
X120888976Y-72965274D01*
X120890213Y-72957468D01*
X120906780Y-72924953D01*
X120926676Y-72879894D01*
X121004894Y-72801676D01*
X121049953Y-72781780D01*
X121082468Y-72765213D01*
X121090274Y-72763976D01*
X121106086Y-72756995D01*
X121175000Y-72749000D01*
X122425000Y-72749000D01*
X122493914Y-72756995D01*
G37*
G36*
X122156592Y-66554133D02*
G01*
X122190259Y-66562777D01*
X122219686Y-66566093D01*
X122265204Y-66582020D01*
X122314649Y-66594716D01*
X122337697Y-66607386D01*
X122357114Y-66614181D01*
X122406485Y-66645203D01*
X122457648Y-66673330D01*
X122470589Y-66685482D01*
X122480395Y-66691644D01*
X122530393Y-66741642D01*
X122576604Y-66785037D01*
X122581494Y-66792743D01*
X122583355Y-66794604D01*
X122651455Y-66902984D01*
X122664042Y-66922818D01*
X122683516Y-66982753D01*
X122708906Y-67055313D01*
X122709868Y-67063856D01*
X122714469Y-67078015D01*
X122718267Y-67138397D01*
X122725209Y-67200000D01*
X122723241Y-67217459D01*
X122724715Y-67240877D01*
X122714668Y-67293541D01*
X122708906Y-67344686D01*
X122700126Y-67369776D01*
X122694138Y-67401170D01*
X122674650Y-67442581D01*
X122660818Y-67482114D01*
X122641822Y-67512345D01*
X122624657Y-67548823D01*
X122600722Y-67577755D01*
X122583355Y-67605395D01*
X122551525Y-67637224D01*
X122520640Y-67674559D01*
X122497056Y-67691693D01*
X122480395Y-67708355D01*
X122433997Y-67737508D01*
X122388622Y-67770476D01*
X122369450Y-67778066D01*
X122357114Y-67785818D01*
X122294802Y-67807621D01*
X122236897Y-67830548D01*
X122224980Y-67832053D01*
X122219686Y-67833906D01*
X122132954Y-67843678D01*
X122075000Y-67851000D01*
X122067980Y-67851000D01*
X121532020Y-67851000D01*
X121525000Y-67851000D01*
X121443408Y-67845867D01*
X121409736Y-67837221D01*
X121380313Y-67833906D01*
X121334802Y-67817981D01*
X121285351Y-67805284D01*
X121262299Y-67792611D01*
X121242885Y-67785818D01*
X121193519Y-67754799D01*
X121142352Y-67726670D01*
X121129409Y-67714516D01*
X121119604Y-67708355D01*
X121069606Y-67658357D01*
X121023396Y-67614963D01*
X121018505Y-67607256D01*
X121016644Y-67605395D01*
X120948507Y-67496956D01*
X120935958Y-67477182D01*
X120916492Y-67417272D01*
X120891093Y-67344686D01*
X120890129Y-67336138D01*
X120885531Y-67321985D01*
X120881733Y-67261621D01*
X120874790Y-67200000D01*
X120876757Y-67182535D01*
X120875285Y-67159123D01*
X120885328Y-67106472D01*
X120891093Y-67055313D01*
X120899875Y-67030215D01*
X120905862Y-66998830D01*
X120925343Y-66957429D01*
X120939181Y-66917885D01*
X120958182Y-66887644D01*
X120975343Y-66851177D01*
X120999271Y-66822252D01*
X121016644Y-66794604D01*
X121048483Y-66762764D01*
X121079360Y-66725441D01*
X121102936Y-66708311D01*
X121119604Y-66691644D01*
X121166018Y-66662479D01*
X121211378Y-66629524D01*
X121230542Y-66621936D01*
X121242885Y-66614181D01*
X121305227Y-66592366D01*
X121363103Y-66569452D01*
X121375013Y-66567947D01*
X121380313Y-66566093D01*
X121467080Y-66556316D01*
X121525000Y-66549000D01*
X122075000Y-66549000D01*
X122156592Y-66554133D01*
G37*
G36*
X153843914Y-65556995D02*
G01*
X153859726Y-65563976D01*
X153867531Y-65565213D01*
X153900039Y-65581776D01*
X153945106Y-65601676D01*
X154023324Y-65679894D01*
X154043226Y-65724967D01*
X154059786Y-65757468D01*
X154061021Y-65765270D01*
X154068005Y-65781086D01*
X154076000Y-65850000D01*
X154076000Y-66550000D01*
X154068005Y-66618914D01*
X154061021Y-66634729D01*
X154059786Y-66642531D01*
X154043229Y-66675024D01*
X154023324Y-66720106D01*
X153945106Y-66798324D01*
X153900024Y-66818229D01*
X153867531Y-66834786D01*
X153859729Y-66836021D01*
X153843914Y-66843005D01*
X153775000Y-66851000D01*
X152525000Y-66851000D01*
X152456086Y-66843005D01*
X152440270Y-66836021D01*
X152432468Y-66834786D01*
X152399967Y-66818226D01*
X152354894Y-66798324D01*
X152276676Y-66720106D01*
X152256776Y-66675039D01*
X152240213Y-66642531D01*
X152238976Y-66634726D01*
X152231995Y-66618914D01*
X152224000Y-66550000D01*
X152224000Y-65850000D01*
X152231995Y-65781086D01*
X152238976Y-65765274D01*
X152240213Y-65757468D01*
X152256780Y-65724953D01*
X152276676Y-65679894D01*
X152354894Y-65601676D01*
X152399953Y-65581780D01*
X152432468Y-65565213D01*
X152440274Y-65563976D01*
X152456086Y-65556995D01*
X152525000Y-65549000D01*
X153775000Y-65549000D01*
X153843914Y-65556995D01*
G37*
G36*
X122493914Y-64556995D02*
G01*
X122509726Y-64563976D01*
X122517531Y-64565213D01*
X122550039Y-64581776D01*
X122595106Y-64601676D01*
X122673324Y-64679894D01*
X122693226Y-64724967D01*
X122709786Y-64757468D01*
X122711021Y-64765270D01*
X122718005Y-64781086D01*
X122726000Y-64850000D01*
X122726000Y-65550000D01*
X122718005Y-65618914D01*
X122711021Y-65634729D01*
X122709786Y-65642531D01*
X122693229Y-65675024D01*
X122673324Y-65720106D01*
X122595106Y-65798324D01*
X122550024Y-65818229D01*
X122517531Y-65834786D01*
X122509729Y-65836021D01*
X122493914Y-65843005D01*
X122425000Y-65851000D01*
X121175000Y-65851000D01*
X121106086Y-65843005D01*
X121090270Y-65836021D01*
X121082468Y-65834786D01*
X121049967Y-65818226D01*
X121004894Y-65798324D01*
X120926676Y-65720106D01*
X120906776Y-65675039D01*
X120890213Y-65642531D01*
X120888976Y-65634726D01*
X120881995Y-65618914D01*
X120874000Y-65550000D01*
X120874000Y-64850000D01*
X120881995Y-64781086D01*
X120888976Y-64765274D01*
X120890213Y-64757468D01*
X120906780Y-64724953D01*
X120926676Y-64679894D01*
X121004894Y-64601676D01*
X121049953Y-64581780D01*
X121082468Y-64565213D01*
X121090274Y-64563976D01*
X121106086Y-64556995D01*
X121175000Y-64549000D01*
X122425000Y-64549000D01*
X122493914Y-64556995D01*
G37*
G36*
X153506592Y-63554133D02*
G01*
X153540259Y-63562777D01*
X153569686Y-63566093D01*
X153615204Y-63582020D01*
X153664649Y-63594716D01*
X153687697Y-63607386D01*
X153707114Y-63614181D01*
X153756485Y-63645203D01*
X153807648Y-63673330D01*
X153820589Y-63685482D01*
X153830395Y-63691644D01*
X153880393Y-63741642D01*
X153926604Y-63785037D01*
X153931494Y-63792743D01*
X153933355Y-63794604D01*
X154001455Y-63902984D01*
X154014042Y-63922818D01*
X154033516Y-63982753D01*
X154058906Y-64055313D01*
X154059868Y-64063856D01*
X154064469Y-64078015D01*
X154068267Y-64138397D01*
X154075209Y-64200000D01*
X154073241Y-64217459D01*
X154074715Y-64240877D01*
X154064668Y-64293541D01*
X154058906Y-64344686D01*
X154050126Y-64369776D01*
X154044138Y-64401170D01*
X154024650Y-64442581D01*
X154010818Y-64482114D01*
X153991822Y-64512345D01*
X153974657Y-64548823D01*
X153950722Y-64577755D01*
X153933355Y-64605395D01*
X153901525Y-64637224D01*
X153870640Y-64674559D01*
X153847056Y-64691693D01*
X153830395Y-64708355D01*
X153783997Y-64737508D01*
X153738622Y-64770476D01*
X153719450Y-64778066D01*
X153707114Y-64785818D01*
X153644802Y-64807621D01*
X153586897Y-64830548D01*
X153574980Y-64832053D01*
X153569686Y-64833906D01*
X153482954Y-64843678D01*
X153425000Y-64851000D01*
X153417980Y-64851000D01*
X152882020Y-64851000D01*
X152875000Y-64851000D01*
X152793408Y-64845867D01*
X152759736Y-64837221D01*
X152730313Y-64833906D01*
X152684802Y-64817981D01*
X152635351Y-64805284D01*
X152612299Y-64792611D01*
X152592885Y-64785818D01*
X152543519Y-64754799D01*
X152492352Y-64726670D01*
X152479409Y-64714516D01*
X152469604Y-64708355D01*
X152419606Y-64658357D01*
X152373396Y-64614963D01*
X152368505Y-64607256D01*
X152366644Y-64605395D01*
X152298507Y-64496956D01*
X152285958Y-64477182D01*
X152266492Y-64417272D01*
X152241093Y-64344686D01*
X152240129Y-64336138D01*
X152235531Y-64321985D01*
X152231733Y-64261621D01*
X152224790Y-64200000D01*
X152226757Y-64182535D01*
X152225285Y-64159123D01*
X152235328Y-64106472D01*
X152241093Y-64055313D01*
X152249875Y-64030215D01*
X152255862Y-63998830D01*
X152275343Y-63957429D01*
X152289181Y-63917885D01*
X152308182Y-63887644D01*
X152325343Y-63851177D01*
X152349271Y-63822252D01*
X152366644Y-63794604D01*
X152398483Y-63762764D01*
X152429360Y-63725441D01*
X152452936Y-63708311D01*
X152469604Y-63691644D01*
X152516018Y-63662479D01*
X152561378Y-63629524D01*
X152580542Y-63621936D01*
X152592885Y-63614181D01*
X152655227Y-63592366D01*
X152713103Y-63569452D01*
X152725013Y-63567947D01*
X152730313Y-63566093D01*
X152817080Y-63556316D01*
X152875000Y-63549000D01*
X153425000Y-63549000D01*
X153506592Y-63554133D01*
G37*
G36*
X147518914Y-52931995D02*
G01*
X147534726Y-52938976D01*
X147542531Y-52940213D01*
X147575039Y-52956776D01*
X147620106Y-52976676D01*
X147698324Y-53054894D01*
X147718226Y-53099967D01*
X147734786Y-53132468D01*
X147736021Y-53140270D01*
X147743005Y-53156086D01*
X147751000Y-53225000D01*
X147751000Y-54475000D01*
X147743005Y-54543914D01*
X147736021Y-54559729D01*
X147734786Y-54567531D01*
X147718229Y-54600024D01*
X147698324Y-54645106D01*
X147620106Y-54723324D01*
X147575024Y-54743229D01*
X147542531Y-54759786D01*
X147534729Y-54761021D01*
X147518914Y-54768005D01*
X147450000Y-54776000D01*
X146750000Y-54776000D01*
X146681086Y-54768005D01*
X146665270Y-54761021D01*
X146657468Y-54759786D01*
X146624967Y-54743226D01*
X146579894Y-54723324D01*
X146501676Y-54645106D01*
X146481776Y-54600039D01*
X146465213Y-54567531D01*
X146463976Y-54559726D01*
X146456995Y-54543914D01*
X146449000Y-54475000D01*
X146449000Y-53225000D01*
X146456995Y-53156086D01*
X146463976Y-53140274D01*
X146465213Y-53132468D01*
X146481780Y-53099953D01*
X146501676Y-53054894D01*
X146579894Y-52976676D01*
X146624953Y-52956780D01*
X146657468Y-52940213D01*
X146665274Y-52938976D01*
X146681086Y-52931995D01*
X146750000Y-52924000D01*
X147450000Y-52924000D01*
X147518914Y-52931995D01*
G37*
G36*
X145117464Y-52926757D02*
G01*
X145140877Y-52925285D01*
X145193528Y-52935328D01*
X145244686Y-52941093D01*
X145269782Y-52949874D01*
X145301170Y-52955862D01*
X145342573Y-52975345D01*
X145382114Y-52989181D01*
X145412351Y-53008180D01*
X145448823Y-53025343D01*
X145477750Y-53049273D01*
X145505395Y-53066644D01*
X145537230Y-53098479D01*
X145574559Y-53129360D01*
X145591690Y-53152939D01*
X145608355Y-53169604D01*
X145637513Y-53216008D01*
X145670476Y-53261378D01*
X145678065Y-53280547D01*
X145685818Y-53292885D01*
X145707624Y-53355205D01*
X145730548Y-53413103D01*
X145732053Y-53425017D01*
X145733906Y-53430313D01*
X145743679Y-53517049D01*
X145751000Y-53575000D01*
X145751000Y-54125000D01*
X145745867Y-54206592D01*
X145737221Y-54240264D01*
X145733906Y-54269686D01*
X145717982Y-54315193D01*
X145705284Y-54364649D01*
X145692610Y-54387702D01*
X145685818Y-54407114D01*
X145654803Y-54456472D01*
X145626670Y-54507648D01*
X145614514Y-54520592D01*
X145608355Y-54530395D01*
X145558372Y-54580377D01*
X145514963Y-54626604D01*
X145507253Y-54631496D01*
X145505395Y-54633355D01*
X145397116Y-54701391D01*
X145377182Y-54714042D01*
X145317232Y-54733520D01*
X145244686Y-54758906D01*
X145236143Y-54759868D01*
X145221985Y-54764469D01*
X145161601Y-54768267D01*
X145100000Y-54775209D01*
X145082540Y-54773241D01*
X145059123Y-54774715D01*
X145006459Y-54764669D01*
X144955313Y-54758906D01*
X144930221Y-54750126D01*
X144898830Y-54744138D01*
X144857421Y-54724652D01*
X144817885Y-54710818D01*
X144787650Y-54691820D01*
X144751177Y-54674657D01*
X144722247Y-54650724D01*
X144694604Y-54633355D01*
X144662769Y-54601520D01*
X144625441Y-54570640D01*
X144608309Y-54547060D01*
X144591644Y-54530395D01*
X144562484Y-54483987D01*
X144529524Y-54438622D01*
X144521935Y-54419454D01*
X144514181Y-54407114D01*
X144492369Y-54344780D01*
X144469452Y-54286897D01*
X144467947Y-54274984D01*
X144466093Y-54269686D01*
X144456317Y-54182927D01*
X144449000Y-54125000D01*
X144449000Y-53575000D01*
X144454133Y-53493408D01*
X144462777Y-53459741D01*
X144466093Y-53430313D01*
X144482021Y-53384792D01*
X144494716Y-53335351D01*
X144507385Y-53312304D01*
X144514181Y-53292885D01*
X144545207Y-53243506D01*
X144573330Y-53192352D01*
X144585480Y-53179412D01*
X144591644Y-53169604D01*
X144641657Y-53119590D01*
X144685037Y-53073396D01*
X144692741Y-53068506D01*
X144694604Y-53066644D01*
X144803143Y-52998443D01*
X144822818Y-52985958D01*
X144882713Y-52966496D01*
X144955313Y-52941093D01*
X144963861Y-52940129D01*
X144978015Y-52935531D01*
X145038377Y-52931733D01*
X145100000Y-52924790D01*
X145117464Y-52926757D01*
G37*
G36*
X119525953Y-47791827D02*
G01*
X119869735Y-47867499D01*
X120203319Y-47979897D01*
X120522796Y-48127702D01*
X120824419Y-48309183D01*
X121104653Y-48522211D01*
X121360211Y-48764289D01*
X121588099Y-49032579D01*
X121785643Y-49323934D01*
X121950528Y-49634941D01*
X122080820Y-49961951D01*
X122174993Y-50301131D01*
X122231942Y-50648505D01*
X122251000Y-51000000D01*
X122231942Y-51351495D01*
X122174993Y-51698869D01*
X122080820Y-52038049D01*
X121950528Y-52365059D01*
X121785643Y-52676066D01*
X121588099Y-52967421D01*
X121360211Y-53235711D01*
X121104653Y-53477789D01*
X120824419Y-53690817D01*
X120522796Y-53872298D01*
X120203319Y-54020103D01*
X119869735Y-54132501D01*
X119525953Y-54208173D01*
X119176006Y-54246232D01*
X118823994Y-54246232D01*
X118474047Y-54208173D01*
X118130265Y-54132501D01*
X117796681Y-54020103D01*
X117477204Y-53872298D01*
X117175581Y-53690817D01*
X116895347Y-53477789D01*
X116639789Y-53235711D01*
X116411901Y-52967421D01*
X116214357Y-52676066D01*
X116049472Y-52365059D01*
X115919180Y-52038049D01*
X115825007Y-51698869D01*
X115768058Y-51351495D01*
X115749000Y-51000000D01*
X115768058Y-50648505D01*
X115825007Y-50301131D01*
X115919180Y-49961951D01*
X116049472Y-49634941D01*
X116214357Y-49323934D01*
X116411901Y-49032579D01*
X116639789Y-48764289D01*
X116895347Y-48522211D01*
X117175581Y-48309183D01*
X117477204Y-48127702D01*
X117796681Y-47979897D01*
X118130265Y-47867499D01*
X118474047Y-47791827D01*
X118823994Y-47753768D01*
X119176006Y-47753768D01*
X119525953Y-47791827D01*
G37*
G36*
X156525953Y-47791827D02*
G01*
X156869735Y-47867499D01*
X157203319Y-47979897D01*
X157522796Y-48127702D01*
X157824419Y-48309183D01*
X158104653Y-48522211D01*
X158360211Y-48764289D01*
X158588099Y-49032579D01*
X158785643Y-49323934D01*
X158950528Y-49634941D01*
X159080820Y-49961951D01*
X159174993Y-50301131D01*
X159231942Y-50648505D01*
X159251000Y-51000000D01*
X159231942Y-51351495D01*
X159174993Y-51698869D01*
X159080820Y-52038049D01*
X158950528Y-52365059D01*
X158785643Y-52676066D01*
X158588099Y-52967421D01*
X158360211Y-53235711D01*
X158104653Y-53477789D01*
X157824419Y-53690817D01*
X157522796Y-53872298D01*
X157203319Y-54020103D01*
X156869735Y-54132501D01*
X156525953Y-54208173D01*
X156176006Y-54246232D01*
X155823994Y-54246232D01*
X155474047Y-54208173D01*
X155130265Y-54132501D01*
X154796681Y-54020103D01*
X154477204Y-53872298D01*
X154175581Y-53690817D01*
X153895347Y-53477789D01*
X153639789Y-53235711D01*
X153411901Y-52967421D01*
X153214357Y-52676066D01*
X153049472Y-52365059D01*
X152919180Y-52038049D01*
X152825007Y-51698869D01*
X152768058Y-51351495D01*
X152749000Y-51000000D01*
X152768058Y-50648505D01*
X152825007Y-50301131D01*
X152919180Y-49961951D01*
X153049472Y-49634941D01*
X153214357Y-49323934D01*
X153411901Y-49032579D01*
X153639789Y-48764289D01*
X153895347Y-48522211D01*
X154175581Y-48309183D01*
X154477204Y-48127702D01*
X154796681Y-47979897D01*
X155130265Y-47867499D01*
X155474047Y-47791827D01*
X155823994Y-47753768D01*
X156176006Y-47753768D01*
X156525953Y-47791827D01*
G37*
M02*
