%TF.GenerationSoftware,KiCad,Pcbnew,7.0.9*%
%TF.CreationDate,2024-10-15T17:06:46-06:00*%
%TF.ProjectId,TPS61165-heater-v8,54505336-3131-4363-952d-686561746572,rev?*%
%TF.SameCoordinates,Original*%
%TF.FileFunction,Copper,L1,Top*%
%TF.FilePolarity,Positive*%
%FSLAX46Y46*%
G04 Gerber Fmt 4.6, Leading zero omitted, Abs format (unit mm)*
G04 Created by KiCad (PCBNEW 7.0.9) date 2024-10-15 17:06:46*
%MOMM*%
%LPD*%
G01*
G04 APERTURE LIST*
G04 Aperture macros list*
%AMRoundRect*
0 Rectangle with rounded corners*
0 $1 Rounding radius*
0 $2 $3 $4 $5 $6 $7 $8 $9 X,Y pos of 4 corners*
0 Add a 4 corners polygon primitive as box body*
4,1,4,$2,$3,$4,$5,$6,$7,$8,$9,$2,$3,0*
0 Add four circle primitives for the rounded corners*
1,1,$1+$1,$2,$3*
1,1,$1+$1,$4,$5*
1,1,$1+$1,$6,$7*
1,1,$1+$1,$8,$9*
0 Add four rect primitives between the rounded corners*
20,1,$1+$1,$2,$3,$4,$5,0*
20,1,$1+$1,$4,$5,$6,$7,0*
20,1,$1+$1,$6,$7,$8,$9,0*
20,1,$1+$1,$8,$9,$2,$3,0*%
%AMFreePoly0*
4,1,19,0.500000,-0.750000,0.000000,-0.750000,0.000000,-0.744911,-0.071157,-0.744911,-0.207708,-0.704816,-0.327430,-0.627875,-0.420627,-0.520320,-0.479746,-0.390866,-0.500000,-0.250000,-0.500000,0.250000,-0.479746,0.390866,-0.420627,0.520320,-0.327430,0.627875,-0.207708,0.704816,-0.071157,0.744911,0.000000,0.744911,0.000000,0.750000,0.500000,0.750000,0.500000,-0.750000,0.500000,-0.750000,
$1*%
%AMFreePoly1*
4,1,19,0.000000,0.744911,0.071157,0.744911,0.207708,0.704816,0.327430,0.627875,0.420627,0.520320,0.479746,0.390866,0.500000,0.250000,0.500000,-0.250000,0.479746,-0.390866,0.420627,-0.520320,0.327430,-0.627875,0.207708,-0.704816,0.071157,-0.744911,0.000000,-0.744911,0.000000,-0.750000,-0.500000,-0.750000,-0.500000,0.750000,0.000000,0.750000,0.000000,0.744911,0.000000,0.744911,
$1*%
G04 Aperture macros list end*
%TA.AperFunction,ComponentPad*%
%ADD10RoundRect,0.250000X-0.625000X0.350000X-0.625000X-0.350000X0.625000X-0.350000X0.625000X0.350000X0*%
%TD*%
%TA.AperFunction,ComponentPad*%
%ADD11O,1.750000X1.200000*%
%TD*%
%TA.AperFunction,ComponentPad*%
%ADD12RoundRect,0.250000X0.625000X-0.350000X0.625000X0.350000X-0.625000X0.350000X-0.625000X-0.350000X0*%
%TD*%
%TA.AperFunction,ComponentPad*%
%ADD13O,1.800000X1.100000*%
%TD*%
%TA.AperFunction,SMDPad,CuDef*%
%ADD14R,1.500000X0.700000*%
%TD*%
%TA.AperFunction,SMDPad,CuDef*%
%ADD15R,1.500000X0.760000*%
%TD*%
%TA.AperFunction,SMDPad,CuDef*%
%ADD16R,1.500000X0.800000*%
%TD*%
%TA.AperFunction,SMDPad,CuDef*%
%ADD17RoundRect,0.093750X0.093750X0.106250X-0.093750X0.106250X-0.093750X-0.106250X0.093750X-0.106250X0*%
%TD*%
%TA.AperFunction,SMDPad,CuDef*%
%ADD18R,1.000000X1.600000*%
%TD*%
%TA.AperFunction,SMDPad,CuDef*%
%ADD19R,5.300000X2.000000*%
%TD*%
%TA.AperFunction,SMDPad,CuDef*%
%ADD20RoundRect,0.237500X-0.237500X0.250000X-0.237500X-0.250000X0.237500X-0.250000X0.237500X0.250000X0*%
%TD*%
%TA.AperFunction,SMDPad,CuDef*%
%ADD21R,2.825000X1.400000*%
%TD*%
%TA.AperFunction,SMDPad,CuDef*%
%ADD22RoundRect,0.250000X0.475000X-0.337500X0.475000X0.337500X-0.475000X0.337500X-0.475000X-0.337500X0*%
%TD*%
%TA.AperFunction,SMDPad,CuDef*%
%ADD23R,0.900000X1.200000*%
%TD*%
%TA.AperFunction,SMDPad,CuDef*%
%ADD24RoundRect,0.237500X0.237500X-0.300000X0.237500X0.300000X-0.237500X0.300000X-0.237500X-0.300000X0*%
%TD*%
%TA.AperFunction,SMDPad,CuDef*%
%ADD25RoundRect,0.250000X-0.475000X0.337500X-0.475000X-0.337500X0.475000X-0.337500X0.475000X0.337500X0*%
%TD*%
%TA.AperFunction,SMDPad,CuDef*%
%ADD26RoundRect,0.237500X0.250000X0.237500X-0.250000X0.237500X-0.250000X-0.237500X0.250000X-0.237500X0*%
%TD*%
%TA.AperFunction,SMDPad,CuDef*%
%ADD27R,1.800000X1.600000*%
%TD*%
%TA.AperFunction,SMDPad,CuDef*%
%ADD28RoundRect,0.237500X-0.300000X-0.237500X0.300000X-0.237500X0.300000X0.237500X-0.300000X0.237500X0*%
%TD*%
%TA.AperFunction,SMDPad,CuDef*%
%ADD29RoundRect,0.150000X-0.150000X-0.625000X0.150000X-0.625000X0.150000X0.625000X-0.150000X0.625000X0*%
%TD*%
%TA.AperFunction,SMDPad,CuDef*%
%ADD30RoundRect,0.250000X-0.350000X-0.650000X0.350000X-0.650000X0.350000X0.650000X-0.350000X0.650000X0*%
%TD*%
%TA.AperFunction,SMDPad,CuDef*%
%ADD31RoundRect,0.237500X-0.250000X-0.237500X0.250000X-0.237500X0.250000X0.237500X-0.250000X0.237500X0*%
%TD*%
%TA.AperFunction,SMDPad,CuDef*%
%ADD32R,1.500000X1.000000*%
%TD*%
%TA.AperFunction,SMDPad,CuDef*%
%ADD33FreePoly0,90.000000*%
%TD*%
%TA.AperFunction,SMDPad,CuDef*%
%ADD34FreePoly1,90.000000*%
%TD*%
%TA.AperFunction,SMDPad,CuDef*%
%ADD35RoundRect,0.150000X-0.825000X-0.150000X0.825000X-0.150000X0.825000X0.150000X-0.825000X0.150000X0*%
%TD*%
%TA.AperFunction,SMDPad,CuDef*%
%ADD36R,1.010000X1.900000*%
%TD*%
%TA.AperFunction,SMDPad,CuDef*%
%ADD37R,1.010000X1.180000*%
%TD*%
%TA.AperFunction,ComponentPad*%
%ADD38C,3.600000*%
%TD*%
%TA.AperFunction,ConnectorPad*%
%ADD39C,6.400000*%
%TD*%
%TA.AperFunction,ComponentPad*%
%ADD40RoundRect,0.250000X0.350000X0.625000X-0.350000X0.625000X-0.350000X-0.625000X0.350000X-0.625000X0*%
%TD*%
%TA.AperFunction,ComponentPad*%
%ADD41O,1.200000X1.750000*%
%TD*%
%TA.AperFunction,SMDPad,CuDef*%
%ADD42FreePoly0,0.000000*%
%TD*%
%TA.AperFunction,SMDPad,CuDef*%
%ADD43FreePoly1,0.000000*%
%TD*%
%TA.AperFunction,SMDPad,CuDef*%
%ADD44RoundRect,0.150000X0.150000X-0.825000X0.150000X0.825000X-0.150000X0.825000X-0.150000X-0.825000X0*%
%TD*%
%TA.AperFunction,ViaPad*%
%ADD45C,0.800000*%
%TD*%
%TA.AperFunction,Conductor*%
%ADD46C,0.250000*%
%TD*%
%TA.AperFunction,Conductor*%
%ADD47C,1.000000*%
%TD*%
%TA.AperFunction,Conductor*%
%ADD48C,0.800000*%
%TD*%
G04 APERTURE END LIST*
D10*
%TO.P,J2,1,+*%
%TO.N,Net-(J2-+)*%
X121800000Y-73400000D03*
D11*
%TO.P,J2,2,-*%
%TO.N,Net-(J2--)*%
X121800000Y-75400000D03*
%TD*%
D12*
%TO.P,J5,1,+*%
%TO.N,Net-(J5-+)*%
X153150000Y-66200000D03*
D11*
%TO.P,J5,2,-*%
%TO.N,Net-(D3-A)*%
X153150000Y-64200000D03*
%TD*%
D13*
%TO.P,J1,0,SHIELD*%
%TO.N,unconnected-(J1-SHIELD-Pad0)*%
X122214000Y-79480000D03*
X118414000Y-79480000D03*
X122214000Y-88120000D03*
X118414000Y-88120000D03*
D14*
%TO.P,J1,A5,CC1*%
%TO.N,unconnected-(J1-CC1-PadA5)*%
X122364000Y-83300000D03*
D15*
%TO.P,J1,A9,VBUS*%
%TO.N,Net-(J2-+)*%
X122364000Y-85320000D03*
D16*
%TO.P,J1,A12,GND*%
%TO.N,Net-(J2--)*%
X122364000Y-86550000D03*
D14*
%TO.P,J1,B5,CC2*%
%TO.N,unconnected-(J1-CC2-PadB5)*%
X122364000Y-84300000D03*
D15*
%TO.P,J1,B9,VBUS*%
%TO.N,Net-(J2-+)*%
X122364000Y-82280000D03*
D16*
%TO.P,J1,B12,GND*%
%TO.N,Net-(J2--)*%
X122364000Y-81050000D03*
%TD*%
D17*
%TO.P,U1,1,FB*%
%TO.N,Net-(D2-A)*%
X148817500Y-84080000D03*
%TO.P,U1,2,COMP*%
%TO.N,Net-(U1-COMP)*%
X148817500Y-83430000D03*
%TO.P,U1,3,GND*%
%TO.N,GND*%
X148817500Y-82780000D03*
%TO.P,U1,4,SW*%
%TO.N,Net-(D1-A)*%
X147042500Y-82780000D03*
%TO.P,U1,5,CTRL*%
%TO.N,Net-(J8-+)*%
X147042500Y-83430000D03*
%TO.P,U1,6,VIN*%
%TO.N,+5VD*%
X147042500Y-84080000D03*
D18*
%TO.P,U1,7,EP*%
%TO.N,GND*%
X147930000Y-83430000D03*
%TD*%
D19*
%TO.P,L1,1,1*%
%TO.N,+5VD*%
X143400000Y-85000000D03*
%TO.P,L1,2,2*%
%TO.N,Net-(D1-A)*%
X143400000Y-81600000D03*
%TD*%
D20*
%TO.P,R2,1*%
%TO.N,Net-(D2-A)*%
X149500000Y-85487500D03*
%TO.P,R2,2*%
%TO.N,GND*%
X149500000Y-87312500D03*
%TD*%
D21*
%TO.P,FL1,1,1*%
%TO.N,Net-(J2--)*%
X126763000Y-82230000D03*
%TO.P,FL1,2,2*%
%TO.N,Net-(J2-+)*%
X126763000Y-84770000D03*
%TO.P,FL1,3,3*%
%TO.N,+5VD*%
X135237000Y-84770000D03*
%TO.P,FL1,4,4*%
%TO.N,GND*%
X135237000Y-82230000D03*
%TD*%
D22*
%TO.P,C3,1*%
%TO.N,+5VD*%
X138600000Y-84737500D03*
%TO.P,C3,2*%
%TO.N,GND*%
X138600000Y-82662500D03*
%TD*%
D23*
%TO.P,D1,1,K*%
%TO.N,Net-(D1-K)*%
X150550000Y-80000000D03*
%TO.P,D1,2,A*%
%TO.N,Net-(D1-A)*%
X147250000Y-80000000D03*
%TD*%
D24*
%TO.P,C1,1*%
%TO.N,Net-(U1-COMP)*%
X150600000Y-83862500D03*
%TO.P,C1,2*%
%TO.N,GND*%
X150600000Y-82137500D03*
%TD*%
D25*
%TO.P,C2,1*%
%TO.N,Net-(D1-K)*%
X152700000Y-80037500D03*
%TO.P,C2,2*%
%TO.N,GND*%
X152700000Y-82112500D03*
%TD*%
D26*
%TO.P,R4,1*%
%TO.N,Net-(J8--)*%
X141912500Y-61700000D03*
%TO.P,R4,2*%
%TO.N,Net-(R4-Pad2)*%
X140087500Y-61700000D03*
%TD*%
D27*
%TO.P,U2,1*%
%TO.N,Net-(R4-Pad2)*%
X139924000Y-64230000D03*
%TO.P,U2,2*%
%TO.N,GND*%
X139924000Y-66770000D03*
%TO.P,U2,3*%
%TO.N,Net-(J5-+)*%
X149676000Y-66770000D03*
%TO.P,U2,4*%
%TO.N,Net-(D3-A)*%
X149676000Y-64230000D03*
%TD*%
D28*
%TO.P,C4,1*%
%TO.N,/fram/Vcc*%
X149237500Y-77500000D03*
%TO.P,C4,2*%
%TO.N,GND*%
X150962500Y-77500000D03*
%TD*%
D29*
%TO.P,J6,1,gnd*%
%TO.N,GND*%
X133700000Y-51025000D03*
%TO.P,J6,2,VCC*%
%TO.N,/fram/Vcc*%
X134700000Y-51025000D03*
%TO.P,J6,3,SDA*%
%TO.N,/sda*%
X135700000Y-51025000D03*
%TO.P,J6,4,SCL*%
%TO.N,/scl*%
X136700000Y-51025000D03*
D30*
%TO.P,J6,MP*%
%TO.N,N/C*%
X132400000Y-48500000D03*
X138000000Y-48500000D03*
%TD*%
D20*
%TO.P,R3,1*%
%TO.N,Net-(J5-+)*%
X153100000Y-69987500D03*
%TO.P,R3,2*%
%TO.N,Net-(D1-K)*%
X153100000Y-71812500D03*
%TD*%
D31*
%TO.P,R5,1*%
%TO.N,/sda*%
X131987500Y-70300000D03*
%TO.P,R5,2*%
%TO.N,/fram/Vcc*%
X133812500Y-70300000D03*
%TD*%
%TO.P,R6,1*%
%TO.N,/scl*%
X131987500Y-68300000D03*
%TO.P,R6,2*%
%TO.N,/fram/Vcc*%
X133812500Y-68300000D03*
%TD*%
D32*
%TO.P,JP3,1,A*%
%TO.N,/fram/Vcc*%
X138000000Y-74000000D03*
%TO.P,JP3,2,C*%
%TO.N,Net-(JP3-C)*%
X138000000Y-72700000D03*
%TO.P,JP3,3,B*%
%TO.N,GND*%
X138000000Y-71400000D03*
%TD*%
%TO.P,JP4,1,A*%
%TO.N,/fram/Vcc*%
X141700000Y-74100000D03*
%TO.P,JP4,2,C*%
%TO.N,Net-(JP4-C)*%
X141700000Y-72800000D03*
%TO.P,JP4,3,B*%
%TO.N,GND*%
X141700000Y-71500000D03*
%TD*%
D23*
%TO.P,D2,1,K*%
%TO.N,Net-(D2-K)*%
X154750000Y-86100000D03*
%TO.P,D2,2,A*%
%TO.N,Net-(D2-A)*%
X151450000Y-86100000D03*
%TD*%
D33*
%TO.P,JP2,1,A*%
%TO.N,Net-(D2-K)*%
X156200000Y-82050000D03*
D34*
%TO.P,JP2,2,B*%
%TO.N,Net-(D3-A)*%
X156200000Y-80750000D03*
%TD*%
D35*
%TO.P,U3,1,A1*%
%TO.N,Net-(JP4-C)*%
X145625000Y-71895000D03*
%TO.P,U3,2,A0*%
%TO.N,Net-(JP3-C)*%
X145625000Y-73165000D03*
%TO.P,U3,3,SDA*%
%TO.N,/sda*%
X145625000Y-74435000D03*
%TO.P,U3,4,SCL*%
%TO.N,/scl*%
X145625000Y-75705000D03*
%TO.P,U3,5,VS*%
%TO.N,/fram/Vcc*%
X150575000Y-75705000D03*
%TO.P,U3,6,GND*%
%TO.N,GND*%
X150575000Y-74435000D03*
%TO.P,U3,7,IN-*%
%TO.N,Net-(J5-+)*%
X150575000Y-73165000D03*
%TO.P,U3,8,IN+*%
%TO.N,Net-(D1-K)*%
X150575000Y-71895000D03*
%TD*%
D36*
%TO.P,D3,1,K*%
%TO.N,Net-(D2-K)*%
X158700000Y-82545000D03*
D37*
%TO.P,D3,2,A*%
%TO.N,Net-(D3-A)*%
X158700000Y-80655000D03*
%TD*%
D10*
%TO.P,J3,1,+*%
%TO.N,Net-(J2-+)*%
X121800000Y-65200000D03*
D11*
%TO.P,J3,2,-*%
%TO.N,Net-(J2--)*%
X121800000Y-67200000D03*
%TD*%
D38*
%TO.P,H4,1*%
%TO.N,N/C*%
X119000000Y-94000000D03*
D39*
X119000000Y-94000000D03*
%TD*%
D24*
%TO.P,C5,1*%
%TO.N,/fram/Vcc*%
X132000000Y-89762500D03*
%TO.P,C5,2*%
%TO.N,GND*%
X132000000Y-88037500D03*
%TD*%
D40*
%TO.P,J8,1,+*%
%TO.N,Net-(J8-+)*%
X147100000Y-53850000D03*
D41*
%TO.P,J8,2,-*%
%TO.N,Net-(J8--)*%
X145100000Y-53850000D03*
%TD*%
D29*
%TO.P,J7,1,gnd*%
%TO.N,GND*%
X125300000Y-51025000D03*
%TO.P,J7,2,VCC*%
%TO.N,/fram/Vcc*%
X126300000Y-51025000D03*
%TO.P,J7,3,SDA*%
%TO.N,/sda*%
X127300000Y-51025000D03*
%TO.P,J7,4,SCL*%
%TO.N,/scl*%
X128300000Y-51025000D03*
D30*
%TO.P,J7,MP*%
%TO.N,N/C*%
X124000000Y-48500000D03*
X129600000Y-48500000D03*
%TD*%
D42*
%TO.P,JP1,1,A*%
%TO.N,Net-(JP1-A)*%
X145250000Y-87700000D03*
D43*
%TO.P,JP1,2,B*%
%TO.N,Net-(D2-A)*%
X146550000Y-87700000D03*
%TD*%
D31*
%TO.P,R1,1*%
%TO.N,Net-(JP1-A)*%
X145187500Y-90300000D03*
%TO.P,R1,2*%
%TO.N,GND*%
X147012500Y-90300000D03*
%TD*%
D38*
%TO.P,H3,1*%
%TO.N,N/C*%
X156000000Y-94000000D03*
D39*
X156000000Y-94000000D03*
%TD*%
D38*
%TO.P,H2,1*%
%TO.N,N/C*%
X156000000Y-51000000D03*
D39*
X156000000Y-51000000D03*
%TD*%
D44*
%TO.P,U4,1,A0*%
%TO.N,GND*%
X133595000Y-94775000D03*
%TO.P,U4,2,A1*%
X134865000Y-94775000D03*
%TO.P,U4,3,A2*%
X136135000Y-94775000D03*
%TO.P,U4,4,VSS*%
X137405000Y-94775000D03*
%TO.P,U4,5,SDA*%
%TO.N,/sda*%
X137405000Y-89825000D03*
%TO.P,U4,6,SCL*%
%TO.N,/scl*%
X136135000Y-89825000D03*
%TO.P,U4,7,WP*%
%TO.N,unconnected-(U4-WP-Pad7)*%
X134865000Y-89825000D03*
%TO.P,U4,8,VDD*%
%TO.N,/fram/Vcc*%
X133595000Y-89825000D03*
%TD*%
D38*
%TO.P,H1,1*%
%TO.N,N/C*%
X119000000Y-51000000D03*
D39*
X119000000Y-51000000D03*
%TD*%
D45*
%TO.N,GND*%
X147900000Y-83800000D03*
X152700000Y-83600000D03*
X148300000Y-87900000D03*
X147900000Y-83000000D03*
X149500000Y-88800000D03*
X147900000Y-82200000D03*
X147900000Y-84600000D03*
X132300000Y-55150000D03*
X141700000Y-79300000D03*
X131900000Y-51800000D03*
X138300000Y-67025000D03*
X138400000Y-79300000D03*
X141700000Y-78000000D03*
X140150000Y-53500000D03*
X133700000Y-52800000D03*
X138350000Y-80650000D03*
X138000000Y-71400000D03*
X141700000Y-71500000D03*
%TO.N,Net-(J2-+)*%
X124200000Y-82300000D03*
X124180000Y-85320000D03*
%TO.N,/scl*%
X130900000Y-58600000D03*
X133700000Y-58600000D03*
X135500000Y-87900000D03*
%TO.N,/sda*%
X133700000Y-59600000D03*
X130900000Y-59600000D03*
X136800000Y-87900000D03*
%TO.N,Net-(J8-+)*%
X135500000Y-77800000D03*
%TO.N,/fram/Vcc*%
X147700000Y-77600000D03*
X139900000Y-72800000D03*
X134700000Y-60200000D03*
X134700000Y-53600000D03*
X126200000Y-53600000D03*
X137800000Y-86900000D03*
X138300000Y-75500000D03*
%TD*%
D46*
%TO.N,GND*%
X138600000Y-82675000D02*
X135682000Y-82675000D01*
X138600000Y-82675000D02*
X138600000Y-80900000D01*
D47*
X152700000Y-82100000D02*
X150800000Y-82100000D01*
D46*
X148817500Y-82780000D02*
X150120000Y-82780000D01*
X150600000Y-81775000D02*
X150025000Y-81200000D01*
X138600000Y-80900000D02*
X138350000Y-80650000D01*
X150025000Y-81200000D02*
X149900000Y-81200000D01*
X149900000Y-81200000D02*
X150800000Y-82100000D01*
X150120000Y-82780000D02*
X150600000Y-82300000D01*
X125400000Y-49900000D02*
X130700000Y-49900000D01*
X125300000Y-51025000D02*
X125300000Y-50000000D01*
X131825000Y-51025000D02*
X130700000Y-49900000D01*
X133700000Y-51025000D02*
X133700000Y-52800000D01*
X125300000Y-50000000D02*
X125400000Y-49900000D01*
X133700000Y-51025000D02*
X131825000Y-51025000D01*
%TO.N,Net-(U1-COMP)*%
X150600000Y-84050000D02*
X149980000Y-83430000D01*
X149980000Y-83430000D02*
X148817500Y-83430000D01*
D47*
%TO.N,Net-(D1-K)*%
X150550000Y-80000000D02*
X152650000Y-80000000D01*
D46*
X153100000Y-71775000D02*
X150695000Y-71775000D01*
D47*
X152700000Y-80050000D02*
X152700000Y-72175000D01*
X152700000Y-72175000D02*
X153100000Y-71775000D01*
%TO.N,+5VD*%
X135237000Y-84770000D02*
X143170000Y-84770000D01*
X145500000Y-85000000D02*
X146169990Y-84330010D01*
X146169990Y-84330010D02*
X146619962Y-84330010D01*
D46*
%TO.N,Net-(D1-A)*%
X147042500Y-82780000D02*
X146855000Y-82780000D01*
X146855000Y-82780000D02*
X146700000Y-82625000D01*
X146700000Y-82625000D02*
X146700000Y-82400000D01*
D47*
X146600000Y-81600000D02*
X146700000Y-82400000D01*
X147250000Y-80000000D02*
X147250000Y-80950000D01*
X145900000Y-81600000D02*
X146600000Y-81600000D01*
X147250000Y-80950000D02*
X146600000Y-81600000D01*
X143400000Y-81600000D02*
X145900000Y-81600000D01*
D48*
%TO.N,Net-(D2-K)*%
X156695000Y-82545000D02*
X156200000Y-82050000D01*
X156200000Y-82050000D02*
X156200000Y-84650000D01*
X156200000Y-84650000D02*
X154750000Y-86100000D01*
X158700000Y-82545000D02*
X156695000Y-82545000D01*
D46*
%TO.N,Net-(D2-A)*%
X149500000Y-85525000D02*
X149500000Y-84762500D01*
X149500000Y-84762500D02*
X148817500Y-84080000D01*
D47*
X149500000Y-85525000D02*
X150875000Y-85525000D01*
X148725000Y-85525000D02*
X149500000Y-85525000D01*
X150875000Y-85525000D02*
X151450000Y-86100000D01*
X146550000Y-87700000D02*
X148725000Y-85525000D01*
%TO.N,Net-(D3-A)*%
X155400000Y-64200000D02*
X156200000Y-65000000D01*
X153150000Y-64200000D02*
X155400000Y-64200000D01*
D48*
X158700000Y-80655000D02*
X156295000Y-80655000D01*
D47*
X156200000Y-65000000D02*
X156200000Y-80750000D01*
X153150000Y-64200000D02*
X149706000Y-64200000D01*
%TO.N,Net-(J2--)*%
X126763000Y-82230000D02*
X125583000Y-81050000D01*
X128875501Y-83630001D02*
X128875501Y-86030001D01*
X128875501Y-86030001D02*
X128355491Y-86550011D01*
X127475500Y-82230000D02*
X128875501Y-83630001D01*
X128355491Y-86550011D02*
X124600000Y-86600000D01*
X124600000Y-86600000D02*
X122475000Y-86550011D01*
X126800000Y-67200000D02*
X121800000Y-67200000D01*
X120450000Y-75400000D02*
X126950000Y-75400000D01*
X125583000Y-81050000D02*
X126950000Y-79683000D01*
X125583000Y-81050000D02*
X123900000Y-81000000D01*
X126950000Y-79683000D02*
X126950000Y-75400000D01*
X126950000Y-67350000D02*
X126800000Y-67200000D01*
X126950000Y-75400000D02*
X126950000Y-67350000D01*
X123900000Y-81000000D02*
X122475000Y-81050000D01*
D48*
%TO.N,Net-(J2-+)*%
X124180000Y-82280000D02*
X124200000Y-82300000D01*
X126213000Y-85320000D02*
X126763000Y-84770000D01*
X124180000Y-85320000D02*
X126213000Y-85320000D01*
X122475000Y-85320000D02*
X124180000Y-85320000D01*
X122475000Y-82280000D02*
X124180000Y-82280000D01*
D46*
%TO.N,/scl*%
X143625969Y-76674031D02*
X136374031Y-76674031D01*
X132025000Y-58625000D02*
X130925000Y-58625000D01*
X132025000Y-58625000D02*
X128300000Y-54900000D01*
X128300000Y-54900000D02*
X128300000Y-51025000D01*
X136135000Y-88535000D02*
X135500000Y-87900000D01*
X136700000Y-55600000D02*
X136700000Y-51025000D01*
X136135000Y-89825000D02*
X136135000Y-88535000D01*
X132025000Y-68300000D02*
X132025000Y-58625000D01*
X136374031Y-76674031D02*
X130400000Y-70700000D01*
X133700000Y-58600000D02*
X136700000Y-55600000D01*
X130400000Y-69100000D02*
X131200000Y-68300000D01*
X130925000Y-58625000D02*
X130900000Y-58600000D01*
X130400000Y-70700000D02*
X130400000Y-69100000D01*
X145625000Y-75705000D02*
X144595000Y-75705000D01*
X144595000Y-75705000D02*
X143625969Y-76674031D01*
X131200000Y-68300000D02*
X132025000Y-68300000D01*
%TO.N,/sda*%
X132925480Y-69399520D02*
X132925480Y-66425480D01*
X132900000Y-59600000D02*
X133700000Y-59600000D01*
X132025000Y-70300000D02*
X132925480Y-69399520D01*
X132000000Y-71200000D02*
X132000000Y-70325000D01*
X132900000Y-66400000D02*
X132900000Y-59600000D01*
X130875386Y-59600000D02*
X130900000Y-59600000D01*
X132900000Y-58300000D02*
X135700000Y-55500000D01*
X132925480Y-66425480D02*
X132900000Y-66400000D01*
X137405000Y-88505000D02*
X136800000Y-87900000D01*
X137024511Y-76224511D02*
X132000000Y-71200000D01*
X127300000Y-51025000D02*
X127300000Y-56024614D01*
X135700000Y-55500000D02*
X135700000Y-51025000D01*
X132900000Y-59600000D02*
X132900000Y-58300000D01*
X144365000Y-74435000D02*
X142575489Y-76224511D01*
X127300000Y-56024614D02*
X130875386Y-59600000D01*
X145625000Y-74435000D02*
X144365000Y-74435000D01*
X137405000Y-89825000D02*
X137405000Y-88505000D01*
X142575489Y-76224511D02*
X137024511Y-76224511D01*
%TO.N,Net-(J5-+)*%
X149274990Y-73004990D02*
X149274990Y-72974990D01*
D47*
X150246000Y-66200000D02*
X149676000Y-66770000D01*
D46*
X149975000Y-70025000D02*
X153100000Y-70025000D01*
D47*
X153150000Y-69975000D02*
X153100000Y-70025000D01*
D46*
X149435000Y-73165000D02*
X149274990Y-73004990D01*
D47*
X153150000Y-66200000D02*
X150246000Y-66200000D01*
D46*
X149000000Y-71000000D02*
X149975000Y-70025000D01*
X149000000Y-72700000D02*
X149000000Y-71000000D01*
X150575000Y-73165000D02*
X149435000Y-73165000D01*
D47*
X153150000Y-66200000D02*
X153150000Y-69975000D01*
D46*
X149274990Y-72974990D02*
X149000000Y-72700000D01*
%TO.N,Net-(J8-+)*%
X140000000Y-77800000D02*
X135500000Y-77800000D01*
X140000000Y-82499022D02*
X140000000Y-77800000D01*
X147042500Y-83430000D02*
X140930978Y-83430000D01*
X140930978Y-83430000D02*
X140000000Y-82499022D01*
%TO.N,Net-(J8--)*%
X141875000Y-61700000D02*
X144860000Y-58715000D01*
X144860000Y-58715000D02*
X144860000Y-57200000D01*
X145100000Y-56960000D02*
X145100000Y-53850000D01*
X144860000Y-57200000D02*
X145100000Y-56960000D01*
D47*
%TO.N,Net-(JP1-A)*%
X145250000Y-90250000D02*
X145200000Y-90300000D01*
X145250000Y-87700000D02*
X145250000Y-90250000D01*
D46*
%TO.N,Net-(JP3-C)*%
X145325000Y-73465000D02*
X144170002Y-73465000D01*
X142710001Y-74925001D02*
X140689999Y-74925001D01*
X140689999Y-74925001D02*
X138464998Y-72700000D01*
X144170002Y-73465000D02*
X142710001Y-74925001D01*
X145625000Y-73165000D02*
X145325000Y-73465000D01*
%TO.N,Net-(JP4-C)*%
X142700000Y-72800000D02*
X143605000Y-71895000D01*
X143605000Y-71895000D02*
X144650000Y-71895000D01*
X144650000Y-71895000D02*
X145625000Y-71895000D01*
X141700000Y-72800000D02*
X142700000Y-72800000D01*
%TO.N,Net-(R4-Pad2)*%
X139924000Y-61901000D02*
X139924000Y-64230000D01*
%TO.N,/fram/Vcc*%
X126200000Y-53600000D02*
X126200000Y-51125000D01*
X134700000Y-51025000D02*
X134700000Y-53600000D01*
X139900000Y-72800000D02*
X141200000Y-74100000D01*
X149225000Y-77500000D02*
X147800000Y-77500000D01*
X132000000Y-89762500D02*
X134862500Y-86900000D01*
X149225000Y-77500000D02*
X149225000Y-77055000D01*
X147800000Y-77500000D02*
X147700000Y-77600000D01*
X133775000Y-70300000D02*
X133775000Y-68300000D01*
X149225000Y-77055000D02*
X150575000Y-75705000D01*
X132000000Y-89762500D02*
X133532500Y-89762500D01*
X138300000Y-75500000D02*
X138300000Y-74300000D01*
X133775000Y-61125000D02*
X134700000Y-60200000D01*
X133775000Y-68300000D02*
X133775000Y-61125000D01*
X137475000Y-74000000D02*
X133775000Y-70300000D01*
X134862500Y-86900000D02*
X137800000Y-86900000D01*
%TD*%
%TA.AperFunction,Conductor*%
%TO.N,GND*%
G36*
X159916621Y-47045502D02*
G01*
X159963114Y-47099158D01*
X159974500Y-47151500D01*
X159974500Y-97848500D01*
X159954498Y-97916621D01*
X159900842Y-97963114D01*
X159848500Y-97974500D01*
X129905596Y-97974500D01*
X129837475Y-97954498D01*
X129790982Y-97900842D01*
X129779596Y-97848470D01*
X129780273Y-95029000D01*
X132787001Y-95029000D01*
X132787001Y-95666458D01*
X132789934Y-95703750D01*
X132836318Y-95863400D01*
X132920948Y-96006501D01*
X132920949Y-96006503D01*
X133038497Y-96124051D01*
X133181600Y-96208681D01*
X133341000Y-96254991D01*
X133341000Y-95029000D01*
X133849000Y-95029000D01*
X133849000Y-96254991D01*
X134008399Y-96208681D01*
X134151500Y-96124052D01*
X134152771Y-96123067D01*
X134153949Y-96122604D01*
X134158321Y-96120019D01*
X134158737Y-96120723D01*
X134218855Y-96097118D01*
X134288478Y-96111016D01*
X134307229Y-96123067D01*
X134308499Y-96124052D01*
X134451600Y-96208681D01*
X134611000Y-96254991D01*
X134611000Y-95029000D01*
X135119000Y-95029000D01*
X135119000Y-96254991D01*
X135278399Y-96208681D01*
X135421500Y-96124052D01*
X135422771Y-96123067D01*
X135423949Y-96122604D01*
X135428321Y-96120019D01*
X135428737Y-96120723D01*
X135488855Y-96097118D01*
X135558478Y-96111016D01*
X135577229Y-96123067D01*
X135578499Y-96124052D01*
X135721600Y-96208681D01*
X135881000Y-96254991D01*
X135881000Y-95029000D01*
X136389000Y-95029000D01*
X136389000Y-96254991D01*
X136548399Y-96208681D01*
X136691500Y-96124052D01*
X136692771Y-96123067D01*
X136693949Y-96122604D01*
X136698321Y-96120019D01*
X136698737Y-96120723D01*
X136758855Y-96097118D01*
X136828478Y-96111016D01*
X136847229Y-96123067D01*
X136848499Y-96124052D01*
X136991600Y-96208681D01*
X137151000Y-96254991D01*
X137151000Y-95029000D01*
X137659000Y-95029000D01*
X137659000Y-96254991D01*
X137818399Y-96208681D01*
X137961502Y-96124051D01*
X138079050Y-96006503D01*
X138079051Y-96006501D01*
X138163681Y-95863401D01*
X138210065Y-95703749D01*
X138213000Y-95666461D01*
X138213000Y-95029000D01*
X137659000Y-95029000D01*
X137151000Y-95029000D01*
X136389000Y-95029000D01*
X135881000Y-95029000D01*
X135119000Y-95029000D01*
X134611000Y-95029000D01*
X133849000Y-95029000D01*
X133341000Y-95029000D01*
X132787001Y-95029000D01*
X129780273Y-95029000D01*
X129780395Y-94521000D01*
X132787000Y-94521000D01*
X133341000Y-94521000D01*
X133849000Y-94521000D01*
X134611000Y-94521000D01*
X135119000Y-94521000D01*
X135881000Y-94521000D01*
X136389000Y-94521000D01*
X137151000Y-94521000D01*
X137151000Y-93295007D01*
X137659000Y-93295007D01*
X137659000Y-94521000D01*
X138212999Y-94521000D01*
X138212999Y-94000006D01*
X152286411Y-94000006D01*
X152306752Y-94388167D01*
X152367561Y-94772097D01*
X152468168Y-95147568D01*
X152607463Y-95510443D01*
X152607467Y-95510451D01*
X152783938Y-95856795D01*
X152995637Y-96182785D01*
X152995649Y-96182802D01*
X153240253Y-96484862D01*
X153240267Y-96484877D01*
X153515122Y-96759732D01*
X153515137Y-96759746D01*
X153817197Y-97004350D01*
X153817214Y-97004362D01*
X154001185Y-97123833D01*
X154143205Y-97216062D01*
X154489547Y-97392532D01*
X154489551Y-97392533D01*
X154489556Y-97392536D01*
X154852431Y-97531831D01*
X154852436Y-97531832D01*
X154852438Y-97531833D01*
X155227901Y-97632438D01*
X155611824Y-97693246D01*
X155611826Y-97693246D01*
X155611832Y-97693247D01*
X155999994Y-97713589D01*
X156000000Y-97713589D01*
X156000006Y-97713589D01*
X156388167Y-97693247D01*
X156388171Y-97693246D01*
X156388176Y-97693246D01*
X156772099Y-97632438D01*
X157147562Y-97531833D01*
X157147565Y-97531831D01*
X157147568Y-97531831D01*
X157510443Y-97392536D01*
X157510444Y-97392535D01*
X157510453Y-97392532D01*
X157856795Y-97216062D01*
X158182793Y-97004357D01*
X158182802Y-97004350D01*
X158484862Y-96759746D01*
X158484867Y-96759740D01*
X158484876Y-96759734D01*
X158759734Y-96484876D01*
X158759740Y-96484867D01*
X158759746Y-96484862D01*
X159004350Y-96182802D01*
X159004351Y-96182799D01*
X159004357Y-96182793D01*
X159216062Y-95856795D01*
X159392532Y-95510453D01*
X159531833Y-95147562D01*
X159632438Y-94772099D01*
X159693246Y-94388176D01*
X159693246Y-94388171D01*
X159693247Y-94388167D01*
X159713589Y-94000006D01*
X159713589Y-93999993D01*
X159693247Y-93611832D01*
X159665869Y-93438978D01*
X159632438Y-93227901D01*
X159531833Y-92852438D01*
X159531832Y-92852436D01*
X159531831Y-92852431D01*
X159392536Y-92489556D01*
X159392532Y-92489548D01*
X159392532Y-92489547D01*
X159216062Y-92143206D01*
X159004357Y-91817207D01*
X159004354Y-91817203D01*
X159004352Y-91817200D01*
X158759746Y-91515137D01*
X158759732Y-91515122D01*
X158484877Y-91240267D01*
X158484862Y-91240253D01*
X158182802Y-90995649D01*
X158182785Y-90995637D01*
X157856795Y-90783938D01*
X157510451Y-90607467D01*
X157510443Y-90607463D01*
X157147568Y-90468168D01*
X156772097Y-90367561D01*
X156388167Y-90306752D01*
X156000006Y-90286411D01*
X155999994Y-90286411D01*
X155611832Y-90306752D01*
X155227902Y-90367561D01*
X154852431Y-90468168D01*
X154489556Y-90607463D01*
X154489548Y-90607467D01*
X154143205Y-90783938D01*
X153817203Y-90995645D01*
X153817200Y-90995647D01*
X153515137Y-91240253D01*
X153515122Y-91240267D01*
X153240267Y-91515122D01*
X153240253Y-91515137D01*
X152995647Y-91817200D01*
X152995645Y-91817203D01*
X152783938Y-92143205D01*
X152607467Y-92489548D01*
X152607463Y-92489556D01*
X152468168Y-92852431D01*
X152367561Y-93227902D01*
X152306752Y-93611832D01*
X152286411Y-93999993D01*
X152286411Y-94000006D01*
X138212999Y-94000006D01*
X138212999Y-93883542D01*
X138210065Y-93846249D01*
X138163681Y-93686599D01*
X138079051Y-93543498D01*
X138079050Y-93543496D01*
X137961503Y-93425949D01*
X137961501Y-93425948D01*
X137818401Y-93341318D01*
X137659000Y-93295007D01*
X137151000Y-93295007D01*
X136991598Y-93341318D01*
X136848499Y-93425947D01*
X136847221Y-93426939D01*
X136846036Y-93427403D01*
X136841679Y-93429981D01*
X136841263Y-93429277D01*
X136781134Y-93452882D01*
X136711513Y-93438978D01*
X136692779Y-93426939D01*
X136691500Y-93425947D01*
X136548401Y-93341318D01*
X136389000Y-93295007D01*
X136389000Y-94521000D01*
X135881000Y-94521000D01*
X135881000Y-93295007D01*
X135721598Y-93341318D01*
X135578499Y-93425947D01*
X135577221Y-93426939D01*
X135576036Y-93427403D01*
X135571679Y-93429981D01*
X135571263Y-93429277D01*
X135511134Y-93452882D01*
X135441513Y-93438978D01*
X135422779Y-93426939D01*
X135421500Y-93425947D01*
X135278401Y-93341318D01*
X135119000Y-93295007D01*
X135119000Y-94521000D01*
X134611000Y-94521000D01*
X134611000Y-93295007D01*
X134451598Y-93341318D01*
X134308499Y-93425947D01*
X134307221Y-93426939D01*
X134306036Y-93427403D01*
X134301679Y-93429981D01*
X134301263Y-93429277D01*
X134241134Y-93452882D01*
X134171513Y-93438978D01*
X134152779Y-93426939D01*
X134151500Y-93425947D01*
X134008401Y-93341318D01*
X133849000Y-93295007D01*
X133849000Y-94521000D01*
X133341000Y-94521000D01*
X133341000Y-93295007D01*
X133181598Y-93341318D01*
X133038498Y-93425948D01*
X133038496Y-93425949D01*
X132920949Y-93543496D01*
X132920948Y-93543498D01*
X132836318Y-93686598D01*
X132789934Y-93846250D01*
X132787000Y-93883539D01*
X132787000Y-94521000D01*
X129780395Y-94521000D01*
X129782012Y-87783500D01*
X131017000Y-87783500D01*
X131746000Y-87783500D01*
X131746000Y-86992000D01*
X131712815Y-86992000D01*
X131610726Y-87002430D01*
X131610723Y-87002431D01*
X131445292Y-87057248D01*
X131296966Y-87148737D01*
X131296960Y-87148742D01*
X131173742Y-87271960D01*
X131173737Y-87271966D01*
X131082248Y-87420292D01*
X131027431Y-87585723D01*
X131027430Y-87585726D01*
X131017000Y-87687815D01*
X131017000Y-87783500D01*
X129782012Y-87783500D01*
X129782319Y-86504377D01*
X129797196Y-86445017D01*
X129811742Y-86417805D01*
X129869409Y-86227702D01*
X129884001Y-86079548D01*
X129888881Y-86030001D01*
X129888745Y-86028625D01*
X129884305Y-85983537D01*
X129884001Y-85977358D01*
X129884001Y-83682642D01*
X129884305Y-83676462D01*
X129888881Y-83630002D01*
X129888881Y-83629997D01*
X129869410Y-83432306D01*
X129869409Y-83432304D01*
X129869409Y-83432300D01*
X129811742Y-83242197D01*
X129798001Y-83216489D01*
X129783123Y-83157068D01*
X129783407Y-81976000D01*
X133316500Y-81976000D01*
X134983000Y-81976000D01*
X134983000Y-81022000D01*
X133775902Y-81022000D01*
X133715406Y-81028505D01*
X133578535Y-81079555D01*
X133578534Y-81079555D01*
X133461595Y-81167095D01*
X133374055Y-81284034D01*
X133374055Y-81284035D01*
X133323005Y-81420906D01*
X133316500Y-81481402D01*
X133316500Y-81976000D01*
X129783407Y-81976000D01*
X129785973Y-71286035D01*
X129805991Y-71217921D01*
X129859658Y-71171441D01*
X129929935Y-71161354D01*
X129994508Y-71190862D01*
X130001068Y-71196972D01*
X135481119Y-76677023D01*
X135515145Y-76739335D01*
X135510080Y-76810150D01*
X135467533Y-76866986D01*
X135410782Y-76889237D01*
X135410972Y-76890127D01*
X135405604Y-76891268D01*
X135405196Y-76891428D01*
X135404514Y-76891499D01*
X135217711Y-76931206D01*
X135043247Y-77008882D01*
X134888744Y-77121135D01*
X134760965Y-77263048D01*
X134760958Y-77263058D01*
X134665476Y-77428438D01*
X134665473Y-77428444D01*
X134650999Y-77472986D01*
X134606457Y-77610072D01*
X134586496Y-77800000D01*
X134606457Y-77989927D01*
X134627575Y-78054920D01*
X134665473Y-78171556D01*
X134665476Y-78171561D01*
X134760958Y-78336941D01*
X134760965Y-78336951D01*
X134888744Y-78478864D01*
X134949999Y-78523368D01*
X135043248Y-78591118D01*
X135217712Y-78668794D01*
X135404513Y-78708500D01*
X135595487Y-78708500D01*
X135782288Y-78668794D01*
X135956752Y-78591118D01*
X136111253Y-78478866D01*
X136114563Y-78475190D01*
X136175009Y-78437950D01*
X136208200Y-78433500D01*
X139240500Y-78433500D01*
X139308621Y-78453502D01*
X139355114Y-78507158D01*
X139366500Y-78559500D01*
X139366500Y-81452092D01*
X139346498Y-81520213D01*
X139292842Y-81566706D01*
X139227694Y-81577440D01*
X139125508Y-81567000D01*
X138854000Y-81567000D01*
X138854000Y-82790500D01*
X138833998Y-82858621D01*
X138780342Y-82905114D01*
X138728000Y-82916500D01*
X138472000Y-82916500D01*
X138403879Y-82896498D01*
X138357386Y-82842842D01*
X138346000Y-82790500D01*
X138346000Y-81567000D01*
X138074483Y-81567000D01*
X137970681Y-81577605D01*
X137970678Y-81577606D01*
X137802474Y-81633342D01*
X137651660Y-81726365D01*
X137651654Y-81726370D01*
X137526370Y-81851654D01*
X137526365Y-81851660D01*
X137433342Y-82002474D01*
X137403105Y-82093727D01*
X137362691Y-82152098D01*
X137297134Y-82179354D01*
X137227249Y-82166841D01*
X137175223Y-82118531D01*
X137157500Y-82054094D01*
X137157500Y-81481414D01*
X137157499Y-81481402D01*
X137150994Y-81420906D01*
X137099944Y-81284035D01*
X137099944Y-81284034D01*
X137012404Y-81167095D01*
X136895465Y-81079555D01*
X136758593Y-81028505D01*
X136698097Y-81022000D01*
X135491000Y-81022000D01*
X135491000Y-82358000D01*
X135470998Y-82426121D01*
X135417342Y-82472614D01*
X135365000Y-82484000D01*
X133316500Y-82484000D01*
X133316500Y-82978597D01*
X133323005Y-83039093D01*
X133374055Y-83175964D01*
X133374055Y-83175965D01*
X133461595Y-83292904D01*
X133578534Y-83380444D01*
X133581840Y-83381677D01*
X133584662Y-83383789D01*
X133586443Y-83384762D01*
X133586303Y-83385018D01*
X133638676Y-83424224D01*
X133663487Y-83490744D01*
X133648396Y-83560118D01*
X133598194Y-83610320D01*
X133581847Y-83617786D01*
X133578298Y-83619109D01*
X133578292Y-83619112D01*
X133461238Y-83706738D01*
X133373612Y-83823792D01*
X133373610Y-83823797D01*
X133322511Y-83960795D01*
X133322509Y-83960803D01*
X133316000Y-84021350D01*
X133316000Y-85518649D01*
X133322509Y-85579196D01*
X133322511Y-85579204D01*
X133373610Y-85716202D01*
X133373612Y-85716207D01*
X133461238Y-85833261D01*
X133578292Y-85920887D01*
X133578294Y-85920888D01*
X133578296Y-85920889D01*
X133637375Y-85942924D01*
X133715295Y-85971988D01*
X133715303Y-85971990D01*
X133775850Y-85978499D01*
X133775855Y-85978499D01*
X133775862Y-85978500D01*
X133775868Y-85978500D01*
X136698132Y-85978500D01*
X136698138Y-85978500D01*
X136698145Y-85978499D01*
X136698149Y-85978499D01*
X136758696Y-85971990D01*
X136758699Y-85971989D01*
X136758701Y-85971989D01*
X136895704Y-85920889D01*
X137012761Y-85833261D01*
X137012762Y-85833260D01*
X137015960Y-85828989D01*
X137072796Y-85786443D01*
X137116826Y-85778500D01*
X137507789Y-85778500D01*
X137575910Y-85798502D01*
X137622403Y-85852158D01*
X137632507Y-85922432D01*
X137603013Y-85987012D01*
X137543287Y-86025396D01*
X137533990Y-86027745D01*
X137529855Y-86028625D01*
X137517711Y-86031206D01*
X137343247Y-86108882D01*
X137188747Y-86221133D01*
X137185437Y-86224810D01*
X137124991Y-86262050D01*
X137091800Y-86266500D01*
X134946349Y-86266500D01*
X134930510Y-86264751D01*
X134930483Y-86265045D01*
X134922591Y-86264299D01*
X134852560Y-86266500D01*
X134822644Y-86266500D01*
X134815672Y-86267379D01*
X134809765Y-86267844D01*
X134762610Y-86269326D01*
X134762605Y-86269327D01*
X134743160Y-86274977D01*
X134723802Y-86278986D01*
X134703710Y-86281524D01*
X134703702Y-86281526D01*
X134659836Y-86298893D01*
X134654221Y-86300816D01*
X134608907Y-86313982D01*
X134608902Y-86313984D01*
X134591463Y-86324297D01*
X134573718Y-86332990D01*
X134554880Y-86340449D01*
X134538556Y-86352310D01*
X134516712Y-86368180D01*
X134511761Y-86371433D01*
X134471140Y-86395455D01*
X134456807Y-86409787D01*
X134441781Y-86422620D01*
X134425395Y-86434526D01*
X134425394Y-86434526D01*
X134395318Y-86470880D01*
X134391323Y-86475271D01*
X133188640Y-87677953D01*
X133126328Y-87711979D01*
X133055513Y-87706914D01*
X132998677Y-87664367D01*
X132974198Y-87601665D01*
X132972569Y-87585726D01*
X132972568Y-87585723D01*
X132917751Y-87420292D01*
X132826262Y-87271966D01*
X132826257Y-87271960D01*
X132703039Y-87148742D01*
X132703033Y-87148737D01*
X132554707Y-87057248D01*
X132389276Y-87002431D01*
X132389273Y-87002430D01*
X132287184Y-86992000D01*
X132254000Y-86992000D01*
X132254000Y-88165500D01*
X132233998Y-88233621D01*
X132180342Y-88280114D01*
X132128000Y-88291500D01*
X131017000Y-88291500D01*
X131017000Y-88387184D01*
X131027430Y-88489273D01*
X131027431Y-88489276D01*
X131082248Y-88654707D01*
X131173737Y-88803033D01*
X131173742Y-88803039D01*
X131181254Y-88810551D01*
X131215280Y-88872863D01*
X131210215Y-88943678D01*
X131181254Y-88988741D01*
X131173347Y-88996647D01*
X131173342Y-88996653D01*
X131081791Y-89145080D01*
X131026937Y-89310622D01*
X131016500Y-89412778D01*
X131016500Y-90112212D01*
X131026937Y-90214380D01*
X131081791Y-90379920D01*
X131173342Y-90528346D01*
X131173347Y-90528352D01*
X131296647Y-90651652D01*
X131296653Y-90651657D01*
X131296654Y-90651658D01*
X131445080Y-90743209D01*
X131610619Y-90798062D01*
X131712787Y-90808500D01*
X132287212Y-90808499D01*
X132389381Y-90798062D01*
X132554920Y-90743209D01*
X132610239Y-90709087D01*
X132678716Y-90690350D01*
X132746455Y-90711609D01*
X132791947Y-90766115D01*
X132797382Y-90781175D01*
X132835856Y-90913605D01*
X132920544Y-91056803D01*
X132920549Y-91056810D01*
X133038189Y-91174450D01*
X133038196Y-91174455D01*
X133181394Y-91259143D01*
X133181397Y-91259143D01*
X133181399Y-91259145D01*
X133341169Y-91305562D01*
X133348634Y-91306149D01*
X133378494Y-91308500D01*
X133378498Y-91308500D01*
X133811506Y-91308500D01*
X133836388Y-91306541D01*
X133848831Y-91305562D01*
X134008601Y-91259145D01*
X134008603Y-91259143D01*
X134008605Y-91259143D01*
X134077820Y-91218209D01*
X134151807Y-91174453D01*
X134151814Y-91174445D01*
X134152767Y-91173708D01*
X134153662Y-91173356D01*
X134158631Y-91170418D01*
X134159104Y-91171219D01*
X134218850Y-91147756D01*
X134288474Y-91161652D01*
X134307233Y-91173708D01*
X134308189Y-91174449D01*
X134308193Y-91174453D01*
X134308197Y-91174455D01*
X134308198Y-91174456D01*
X134451394Y-91259143D01*
X134451397Y-91259143D01*
X134451399Y-91259145D01*
X134611169Y-91305562D01*
X134618634Y-91306149D01*
X134648494Y-91308500D01*
X134648498Y-91308500D01*
X135081506Y-91308500D01*
X135106388Y-91306541D01*
X135118831Y-91305562D01*
X135278601Y-91259145D01*
X135278603Y-91259143D01*
X135278605Y-91259143D01*
X135347820Y-91218209D01*
X135421807Y-91174453D01*
X135421814Y-91174445D01*
X135422767Y-91173708D01*
X135423662Y-91173356D01*
X135428631Y-91170418D01*
X135429104Y-91171219D01*
X135488850Y-91147756D01*
X135558474Y-91161652D01*
X135577233Y-91173708D01*
X135578189Y-91174449D01*
X135578193Y-91174453D01*
X135578197Y-91174455D01*
X135578198Y-91174456D01*
X135721394Y-91259143D01*
X135721397Y-91259143D01*
X135721399Y-91259145D01*
X135881169Y-91305562D01*
X135888634Y-91306149D01*
X135918494Y-91308500D01*
X135918498Y-91308500D01*
X136351506Y-91308500D01*
X136376388Y-91306541D01*
X136388831Y-91305562D01*
X136548601Y-91259145D01*
X136548603Y-91259143D01*
X136548605Y-91259143D01*
X136617820Y-91218209D01*
X136691807Y-91174453D01*
X136691814Y-91174445D01*
X136692767Y-91173708D01*
X136693662Y-91173356D01*
X136698631Y-91170418D01*
X136699104Y-91171219D01*
X136758850Y-91147756D01*
X136828474Y-91161652D01*
X136847233Y-91173708D01*
X136848189Y-91174449D01*
X136848193Y-91174453D01*
X136848197Y-91174455D01*
X136848198Y-91174456D01*
X136991394Y-91259143D01*
X136991397Y-91259143D01*
X136991399Y-91259145D01*
X137151169Y-91305562D01*
X137158634Y-91306149D01*
X137188494Y-91308500D01*
X137188498Y-91308500D01*
X137621506Y-91308500D01*
X137646388Y-91306541D01*
X137658831Y-91305562D01*
X137818601Y-91259145D01*
X137818603Y-91259143D01*
X137818605Y-91259143D01*
X137890204Y-91216799D01*
X137961807Y-91174453D01*
X138079453Y-91056807D01*
X138164145Y-90913601D01*
X138210562Y-90753831D01*
X138213500Y-90716502D01*
X138213500Y-88933498D01*
X138210562Y-88896169D01*
X138164145Y-88736399D01*
X138164143Y-88736397D01*
X138164143Y-88736394D01*
X138079455Y-88593196D01*
X138079450Y-88593189D01*
X138075631Y-88589370D01*
X138041605Y-88527058D01*
X138038788Y-88504226D01*
X138038500Y-88495041D01*
X138038500Y-88465144D01*
X138037619Y-88458178D01*
X138037155Y-88452282D01*
X138035673Y-88405110D01*
X138030022Y-88385663D01*
X138026012Y-88366300D01*
X138023474Y-88346203D01*
X138006099Y-88302320D01*
X138004179Y-88296711D01*
X137991018Y-88251407D01*
X137980705Y-88233969D01*
X137972010Y-88216222D01*
X137964552Y-88197383D01*
X137936821Y-88159215D01*
X137933562Y-88154255D01*
X137931789Y-88151257D01*
X137909542Y-88113637D01*
X137909541Y-88113635D01*
X137895218Y-88099312D01*
X137882377Y-88084279D01*
X137870471Y-88067892D01*
X137859571Y-88058875D01*
X137834108Y-88037810D01*
X137829736Y-88033831D01*
X137818881Y-88022976D01*
X137784855Y-87960664D01*
X137789920Y-87889849D01*
X137832467Y-87833013D01*
X137889217Y-87810766D01*
X137889028Y-87809873D01*
X137894421Y-87808726D01*
X137894821Y-87808570D01*
X137895487Y-87808500D01*
X138082288Y-87768794D01*
X138256752Y-87691118D01*
X138411253Y-87578866D01*
X138411255Y-87578864D01*
X138539034Y-87436951D01*
X138539035Y-87436949D01*
X138539040Y-87436944D01*
X138634527Y-87271556D01*
X138693542Y-87089928D01*
X138713504Y-86900000D01*
X138693542Y-86710072D01*
X138634527Y-86528444D01*
X138539040Y-86363056D01*
X138539038Y-86363054D01*
X138539034Y-86363048D01*
X138411255Y-86221135D01*
X138330147Y-86162207D01*
X138256752Y-86108882D01*
X138256748Y-86108880D01*
X138256745Y-86108878D01*
X138179767Y-86074605D01*
X138125671Y-86028625D01*
X138105022Y-85960698D01*
X138124375Y-85892390D01*
X138177585Y-85845389D01*
X138231012Y-85833499D01*
X139125544Y-85833499D01*
X139229426Y-85822887D01*
X139344081Y-85784895D01*
X139383713Y-85778500D01*
X140115500Y-85778500D01*
X140183621Y-85798502D01*
X140230114Y-85852158D01*
X140241500Y-85904500D01*
X140241500Y-86048649D01*
X140248009Y-86109196D01*
X140248011Y-86109204D01*
X140299110Y-86246202D01*
X140299112Y-86246207D01*
X140386738Y-86363261D01*
X140503792Y-86450887D01*
X140503794Y-86450888D01*
X140503796Y-86450889D01*
X140557393Y-86470880D01*
X140640795Y-86501988D01*
X140640803Y-86501990D01*
X140701350Y-86508499D01*
X140701355Y-86508499D01*
X140701362Y-86508500D01*
X144450856Y-86508500D01*
X144518977Y-86528502D01*
X144565470Y-86582158D01*
X144575574Y-86652432D01*
X144546080Y-86717012D01*
X144533369Y-86729724D01*
X144530949Y-86731820D01*
X144436797Y-86840479D01*
X144357744Y-86963487D01*
X144357741Y-86963492D01*
X144297827Y-87094686D01*
X144297380Y-87096437D01*
X144256820Y-87234570D01*
X144256819Y-87234574D01*
X144236358Y-87376882D01*
X144236358Y-87433486D01*
X144236271Y-87433782D01*
X144236271Y-87965704D01*
X144236358Y-87966514D01*
X144236358Y-88023113D01*
X144240217Y-88049950D01*
X144241500Y-88067884D01*
X144241500Y-89770893D01*
X144235105Y-89810524D01*
X144201937Y-89910621D01*
X144191500Y-90012778D01*
X144191500Y-90247353D01*
X144191196Y-90253531D01*
X144186620Y-90299996D01*
X144186620Y-90300002D01*
X144191196Y-90346467D01*
X144191500Y-90352646D01*
X144191500Y-90587212D01*
X144201937Y-90689380D01*
X144256791Y-90854920D01*
X144348342Y-91003346D01*
X144348347Y-91003352D01*
X144471647Y-91126652D01*
X144471653Y-91126657D01*
X144471654Y-91126658D01*
X144620080Y-91218209D01*
X144785619Y-91273062D01*
X144887787Y-91283500D01*
X144949291Y-91283499D01*
X144985869Y-91288924D01*
X145002299Y-91293909D01*
X145002301Y-91293909D01*
X145002304Y-91293910D01*
X145199996Y-91313380D01*
X145200000Y-91313380D01*
X145200004Y-91313380D01*
X145397692Y-91293910D01*
X145397692Y-91293909D01*
X145397701Y-91293909D01*
X145414130Y-91288924D01*
X145450707Y-91283499D01*
X145487212Y-91283499D01*
X145589381Y-91273062D01*
X145754920Y-91218209D01*
X145903346Y-91126658D01*
X145933744Y-91096260D01*
X146011259Y-91018746D01*
X146073571Y-90984720D01*
X146144386Y-90989785D01*
X146189449Y-91018746D01*
X146296960Y-91126257D01*
X146296966Y-91126262D01*
X146445292Y-91217751D01*
X146610723Y-91272568D01*
X146610726Y-91272569D01*
X146712815Y-91282999D01*
X146712815Y-91283000D01*
X146758500Y-91283000D01*
X146758500Y-90554000D01*
X147266500Y-90554000D01*
X147266500Y-91283000D01*
X147312185Y-91283000D01*
X147312184Y-91282999D01*
X147414273Y-91272569D01*
X147414276Y-91272568D01*
X147579707Y-91217751D01*
X147728033Y-91126262D01*
X147728039Y-91126257D01*
X147851257Y-91003039D01*
X147851262Y-91003033D01*
X147942751Y-90854707D01*
X147997568Y-90689276D01*
X147997569Y-90689273D01*
X148007999Y-90587184D01*
X148008000Y-90587184D01*
X148008000Y-90554000D01*
X147266500Y-90554000D01*
X146758500Y-90554000D01*
X146758500Y-89317000D01*
X147266500Y-89317000D01*
X147266500Y-90046000D01*
X148008000Y-90046000D01*
X148008000Y-90012815D01*
X147997569Y-89910726D01*
X147997568Y-89910723D01*
X147942751Y-89745292D01*
X147851262Y-89596966D01*
X147851257Y-89596960D01*
X147728039Y-89473742D01*
X147728033Y-89473737D01*
X147579707Y-89382248D01*
X147414276Y-89327431D01*
X147414273Y-89327430D01*
X147312184Y-89317000D01*
X147266500Y-89317000D01*
X146758500Y-89317000D01*
X146712815Y-89317000D01*
X146610726Y-89327430D01*
X146610723Y-89327431D01*
X146445287Y-89382250D01*
X146438643Y-89385349D01*
X146437354Y-89382586D01*
X146382148Y-89397683D01*
X146314412Y-89376413D01*
X146268929Y-89321899D01*
X146258500Y-89271705D01*
X146258500Y-89089729D01*
X146278502Y-89021608D01*
X146332158Y-88975115D01*
X146384500Y-88963729D01*
X146621886Y-88963729D01*
X146621889Y-88963729D01*
X146766622Y-88942920D01*
X146904577Y-88902413D01*
X147037586Y-88841670D01*
X147086008Y-88810551D01*
X147158532Y-88763944D01*
X147158539Y-88763939D01*
X147158544Y-88763935D01*
X147269051Y-88668179D01*
X147363205Y-88559518D01*
X147442256Y-88436512D01*
X147501984Y-88305727D01*
X147501984Y-88305726D01*
X147501984Y-88305723D01*
X147502169Y-88305320D01*
X147502614Y-88303579D01*
X147543180Y-88165427D01*
X147543180Y-88165422D01*
X147544135Y-88161035D01*
X147546157Y-88161474D01*
X147572097Y-88104596D01*
X147578256Y-88097976D01*
X148301907Y-87374326D01*
X148364217Y-87340303D01*
X148435033Y-87345368D01*
X148491868Y-87387915D01*
X148516679Y-87454435D01*
X148517000Y-87463424D01*
X148517000Y-87612184D01*
X148527430Y-87714273D01*
X148527431Y-87714276D01*
X148582248Y-87879707D01*
X148673737Y-88028033D01*
X148673742Y-88028039D01*
X148796960Y-88151257D01*
X148796966Y-88151262D01*
X148945292Y-88242751D01*
X149110723Y-88297568D01*
X149110726Y-88297569D01*
X149212815Y-88307999D01*
X149212815Y-88308000D01*
X149246000Y-88308000D01*
X149246000Y-87566500D01*
X149754000Y-87566500D01*
X149754000Y-88308000D01*
X149787185Y-88308000D01*
X149787184Y-88307999D01*
X149889273Y-88297569D01*
X149889276Y-88297568D01*
X150054707Y-88242751D01*
X150203033Y-88151262D01*
X150203039Y-88151257D01*
X150326257Y-88028039D01*
X150326262Y-88028033D01*
X150417751Y-87879707D01*
X150472568Y-87714276D01*
X150472569Y-87714273D01*
X150482999Y-87612184D01*
X150483000Y-87612184D01*
X150483000Y-87566500D01*
X149754000Y-87566500D01*
X149246000Y-87566500D01*
X149246000Y-87184500D01*
X149266002Y-87116379D01*
X149319658Y-87069886D01*
X149372000Y-87058500D01*
X150494727Y-87058500D01*
X150531202Y-87038582D01*
X150602018Y-87043645D01*
X150633497Y-87060834D01*
X150753792Y-87150887D01*
X150753794Y-87150888D01*
X150753796Y-87150889D01*
X150812875Y-87172924D01*
X150890795Y-87201988D01*
X150890803Y-87201990D01*
X150951350Y-87208499D01*
X150951355Y-87208499D01*
X150951362Y-87208500D01*
X150951368Y-87208500D01*
X151948632Y-87208500D01*
X151948638Y-87208500D01*
X151948645Y-87208499D01*
X151948649Y-87208499D01*
X152009196Y-87201990D01*
X152009199Y-87201989D01*
X152009201Y-87201989D01*
X152146204Y-87150889D01*
X152227640Y-87089927D01*
X152263261Y-87063261D01*
X152350887Y-86946207D01*
X152350887Y-86946206D01*
X152350889Y-86946204D01*
X152401989Y-86809201D01*
X152408500Y-86748638D01*
X152408500Y-86433116D01*
X152413926Y-86396539D01*
X152414255Y-86395455D01*
X152443909Y-86297701D01*
X152446147Y-86274977D01*
X152463380Y-86100004D01*
X152463380Y-86099995D01*
X152443910Y-85902307D01*
X152443908Y-85902295D01*
X152413926Y-85803459D01*
X152408500Y-85766883D01*
X152408500Y-85451367D01*
X152408499Y-85451350D01*
X152401990Y-85390803D01*
X152401988Y-85390795D01*
X152358584Y-85274428D01*
X152350889Y-85253796D01*
X152350888Y-85253794D01*
X152350887Y-85253792D01*
X152263261Y-85136738D01*
X152146207Y-85049112D01*
X152146202Y-85049110D01*
X152009204Y-84998011D01*
X152009196Y-84998009D01*
X151948649Y-84991500D01*
X151948638Y-84991500D01*
X151819924Y-84991500D01*
X151751803Y-84971498D01*
X151730829Y-84954595D01*
X151682790Y-84906556D01*
X151625334Y-84849100D01*
X151621189Y-84844526D01*
X151617413Y-84839925D01*
X151591568Y-84808432D01*
X151572635Y-84792894D01*
X151493437Y-84727897D01*
X151453468Y-84669219D01*
X151451568Y-84598248D01*
X151466129Y-84564352D01*
X151518209Y-84479920D01*
X151573062Y-84314381D01*
X151583500Y-84212213D01*
X151583499Y-83512788D01*
X151577442Y-83453500D01*
X151573062Y-83410619D01*
X151536317Y-83299729D01*
X151518209Y-83245080D01*
X151426658Y-83096654D01*
X151418746Y-83088742D01*
X151384721Y-83026434D01*
X151389783Y-82955618D01*
X151418745Y-82910551D01*
X151429600Y-82899696D01*
X151491912Y-82865670D01*
X151562727Y-82870735D01*
X151619563Y-82913282D01*
X151625931Y-82922636D01*
X151626362Y-82923335D01*
X151626370Y-82923345D01*
X151751654Y-83048629D01*
X151751660Y-83048634D01*
X151902474Y-83141657D01*
X152070678Y-83197393D01*
X152070681Y-83197394D01*
X152174483Y-83207999D01*
X152174483Y-83208000D01*
X152446000Y-83208000D01*
X152446000Y-82366500D01*
X152954000Y-82366500D01*
X152954000Y-83208000D01*
X153225517Y-83208000D01*
X153225516Y-83207999D01*
X153329318Y-83197394D01*
X153329321Y-83197393D01*
X153497525Y-83141657D01*
X153648339Y-83048634D01*
X153648345Y-83048629D01*
X153773629Y-82923345D01*
X153773634Y-82923339D01*
X153866657Y-82772525D01*
X153922393Y-82604321D01*
X153922394Y-82604318D01*
X153932999Y-82500516D01*
X153933000Y-82500516D01*
X153933000Y-82366500D01*
X152954000Y-82366500D01*
X152446000Y-82366500D01*
X151613102Y-82366500D01*
X151572592Y-82388621D01*
X151545809Y-82391500D01*
X149609609Y-82391500D01*
X149563574Y-82416636D01*
X149492758Y-82411570D01*
X149436830Y-82370218D01*
X149340424Y-82244578D01*
X149214722Y-82148124D01*
X149068336Y-82087488D01*
X149005000Y-82079150D01*
X149005000Y-82595500D01*
X148984998Y-82663621D01*
X148931342Y-82710114D01*
X148879000Y-82721500D01*
X148756000Y-82721500D01*
X148687879Y-82701498D01*
X148641386Y-82647842D01*
X148630000Y-82595500D01*
X148630000Y-82079151D01*
X148566661Y-82087489D01*
X148506499Y-82112409D01*
X148458281Y-82122000D01*
X148184000Y-82122000D01*
X148184000Y-83028001D01*
X148174409Y-83076218D01*
X148137001Y-83166530D01*
X148121500Y-83284271D01*
X148121500Y-83558000D01*
X148101498Y-83626121D01*
X148047842Y-83672614D01*
X147995500Y-83684000D01*
X147864500Y-83684000D01*
X147796379Y-83663998D01*
X147749886Y-83610342D01*
X147738500Y-83558000D01*
X147738500Y-83284281D01*
X147738500Y-83284274D01*
X147722999Y-83166531D01*
X147717483Y-83153215D01*
X147709895Y-83082629D01*
X147717481Y-83056789D01*
X147722999Y-83043469D01*
X147738500Y-82925726D01*
X147738500Y-82634274D01*
X147722999Y-82516531D01*
X147720084Y-82509493D01*
X147710537Y-82464576D01*
X147709865Y-82438931D01*
X147706858Y-82324076D01*
X147669534Y-82025488D01*
X147680932Y-81955414D01*
X147705463Y-81920769D01*
X147925907Y-81700325D01*
X147930445Y-81696211D01*
X147966568Y-81666568D01*
X148092595Y-81513004D01*
X148186241Y-81337804D01*
X148203610Y-81280547D01*
X148243909Y-81147701D01*
X148246353Y-81122887D01*
X148263380Y-80950004D01*
X148263380Y-80949996D01*
X148258804Y-80903534D01*
X148258500Y-80897355D01*
X148258500Y-79950462D01*
X148258500Y-79950453D01*
X148245533Y-79818796D01*
X148243909Y-79802305D01*
X148243908Y-79802303D01*
X148243908Y-79802299D01*
X148213925Y-79703457D01*
X148208500Y-79666882D01*
X148208500Y-79351367D01*
X148208499Y-79351350D01*
X148201990Y-79290803D01*
X148201988Y-79290795D01*
X148150889Y-79153797D01*
X148150887Y-79153792D01*
X148063261Y-79036738D01*
X147946207Y-78949112D01*
X147946202Y-78949110D01*
X147809204Y-78898011D01*
X147809196Y-78898009D01*
X147748649Y-78891500D01*
X147748638Y-78891500D01*
X146751362Y-78891500D01*
X146751350Y-78891500D01*
X146690803Y-78898009D01*
X146690795Y-78898011D01*
X146553797Y-78949110D01*
X146553792Y-78949112D01*
X146436738Y-79036738D01*
X146349112Y-79153792D01*
X146349110Y-79153797D01*
X146298011Y-79290795D01*
X146298009Y-79290803D01*
X146291500Y-79351350D01*
X146291500Y-79666882D01*
X146286075Y-79703457D01*
X146256090Y-79802305D01*
X146241500Y-79950446D01*
X146241500Y-79966586D01*
X146221498Y-80034707D01*
X146167842Y-80081200D01*
X146102042Y-80091865D01*
X146098656Y-80091501D01*
X146098641Y-80091500D01*
X146098638Y-80091500D01*
X140759500Y-80091500D01*
X140691379Y-80071498D01*
X140644886Y-80017842D01*
X140633500Y-79965500D01*
X140633500Y-77871793D01*
X140635733Y-77848179D01*
X140637274Y-77840100D01*
X140637274Y-77840099D01*
X140637275Y-77840094D01*
X140633623Y-77782050D01*
X140633500Y-77778115D01*
X140633500Y-77760146D01*
X140633500Y-77760144D01*
X140631246Y-77742309D01*
X140630876Y-77738392D01*
X140627225Y-77680350D01*
X140624678Y-77672512D01*
X140619505Y-77649369D01*
X140618474Y-77641203D01*
X140602160Y-77600000D01*
X146786496Y-77600000D01*
X146806457Y-77789927D01*
X146822758Y-77840094D01*
X146865473Y-77971556D01*
X146865476Y-77971561D01*
X146960958Y-78136941D01*
X146960965Y-78136951D01*
X147088744Y-78278864D01*
X147143644Y-78318751D01*
X147243248Y-78391118D01*
X147417712Y-78468794D01*
X147604513Y-78508500D01*
X147795487Y-78508500D01*
X147982288Y-78468794D01*
X148156752Y-78391118D01*
X148289415Y-78294732D01*
X148356280Y-78270875D01*
X148425432Y-78286955D01*
X148452569Y-78307574D01*
X148471647Y-78326652D01*
X148471653Y-78326657D01*
X148471654Y-78326658D01*
X148620080Y-78418209D01*
X148785619Y-78473062D01*
X148887787Y-78483500D01*
X149587212Y-78483499D01*
X149689381Y-78473062D01*
X149854920Y-78418209D01*
X150003346Y-78326658D01*
X150011255Y-78318748D01*
X150073560Y-78284722D01*
X150144376Y-78289781D01*
X150189448Y-78318745D01*
X150196960Y-78326257D01*
X150196966Y-78326262D01*
X150345292Y-78417751D01*
X150510723Y-78472568D01*
X150510726Y-78472569D01*
X150612815Y-78482999D01*
X150612815Y-78483000D01*
X150708500Y-78483000D01*
X150708500Y-77372000D01*
X150728502Y-77303879D01*
X150782158Y-77257386D01*
X150834500Y-77246000D01*
X151090500Y-77246000D01*
X151158621Y-77266002D01*
X151205114Y-77319658D01*
X151216500Y-77372000D01*
X151216500Y-78483000D01*
X151312185Y-78483000D01*
X151312184Y-78482999D01*
X151414273Y-78472569D01*
X151414282Y-78472567D01*
X151525866Y-78435592D01*
X151596821Y-78433151D01*
X151657832Y-78469459D01*
X151689527Y-78532987D01*
X151691500Y-78555196D01*
X151691500Y-78865500D01*
X151671498Y-78933621D01*
X151617842Y-78980114D01*
X151565500Y-78991500D01*
X151344766Y-78991500D01*
X151276645Y-78971498D01*
X151269264Y-78966373D01*
X151254279Y-78955156D01*
X151246203Y-78949110D01*
X151109204Y-78898011D01*
X151109196Y-78898009D01*
X151048649Y-78891500D01*
X151048638Y-78891500D01*
X150051362Y-78891500D01*
X150051350Y-78891500D01*
X149990803Y-78898009D01*
X149990795Y-78898011D01*
X149853797Y-78949110D01*
X149853792Y-78949112D01*
X149736738Y-79036738D01*
X149649112Y-79153792D01*
X149649110Y-79153797D01*
X149598011Y-79290795D01*
X149598009Y-79290803D01*
X149591500Y-79351350D01*
X149591500Y-79666882D01*
X149586075Y-79703457D01*
X149556090Y-79802305D01*
X149536620Y-79999996D01*
X149536620Y-80000003D01*
X149556090Y-80197693D01*
X149556092Y-80197704D01*
X149586074Y-80296538D01*
X149591500Y-80333114D01*
X149591500Y-80648649D01*
X149598009Y-80709196D01*
X149598011Y-80709204D01*
X149649110Y-80846202D01*
X149649112Y-80846207D01*
X149736738Y-80963261D01*
X149853792Y-81050887D01*
X149861701Y-81055205D01*
X149859898Y-81058506D01*
X149902525Y-81090458D01*
X149927294Y-81156994D01*
X149912158Y-81226358D01*
X149890705Y-81254998D01*
X149773737Y-81371966D01*
X149682248Y-81520292D01*
X149627431Y-81685723D01*
X149627430Y-81685726D01*
X149617000Y-81787815D01*
X149617000Y-81883500D01*
X151436898Y-81883500D01*
X151477408Y-81861379D01*
X151504191Y-81858500D01*
X153933000Y-81858500D01*
X153933000Y-81724483D01*
X153922394Y-81620681D01*
X153922393Y-81620678D01*
X153866657Y-81452474D01*
X153773634Y-81301660D01*
X153773629Y-81301654D01*
X153648344Y-81176369D01*
X153645551Y-81174161D01*
X153644131Y-81172156D01*
X153643150Y-81171175D01*
X153643317Y-81171007D01*
X153604519Y-81116222D01*
X153601325Y-81045298D01*
X153636983Y-80983905D01*
X153645554Y-80976478D01*
X153648639Y-80974037D01*
X153648652Y-80974030D01*
X153774030Y-80848652D01*
X153867115Y-80697738D01*
X153922887Y-80529426D01*
X153933500Y-80425545D01*
X153933499Y-79649456D01*
X153929888Y-79614112D01*
X153922887Y-79545574D01*
X153867115Y-79377262D01*
X153774030Y-79226348D01*
X153774029Y-79226347D01*
X153774024Y-79226341D01*
X153745405Y-79197722D01*
X153711379Y-79135410D01*
X153708500Y-79108627D01*
X153708500Y-72780482D01*
X153728502Y-72712361D01*
X153768352Y-72673242D01*
X153803346Y-72651658D01*
X153926658Y-72528346D01*
X154018209Y-72379920D01*
X154073062Y-72214381D01*
X154083500Y-72112213D01*
X154083499Y-72025703D01*
X154088926Y-71989124D01*
X154090752Y-71983100D01*
X154093908Y-71972701D01*
X154113380Y-71775000D01*
X154111312Y-71754000D01*
X154093909Y-71577306D01*
X154093908Y-71577304D01*
X154093908Y-71577300D01*
X154088922Y-71560866D01*
X154083499Y-71524295D01*
X154083499Y-71512787D01*
X154073062Y-71410619D01*
X154072112Y-71407753D01*
X154018209Y-71245080D01*
X153926658Y-71096654D01*
X153926657Y-71096653D01*
X153926652Y-71096647D01*
X153819100Y-70989095D01*
X153785074Y-70926783D01*
X153790139Y-70855968D01*
X153819100Y-70810905D01*
X153926652Y-70703352D01*
X153926658Y-70703346D01*
X154018209Y-70554920D01*
X154071343Y-70394567D01*
X154079825Y-70374807D01*
X154080578Y-70373396D01*
X154086241Y-70362804D01*
X154111377Y-70279943D01*
X154143909Y-70172700D01*
X154143909Y-70172698D01*
X154143910Y-70172696D01*
X154163380Y-69975004D01*
X154163380Y-69974996D01*
X154158804Y-69928534D01*
X154158500Y-69922355D01*
X154158500Y-67274959D01*
X154178502Y-67206838D01*
X154218354Y-67167718D01*
X154221845Y-67165564D01*
X154248652Y-67149030D01*
X154374030Y-67023652D01*
X154467115Y-66872738D01*
X154522887Y-66704426D01*
X154533500Y-66600545D01*
X154533499Y-65799456D01*
X154522887Y-65695574D01*
X154467115Y-65527262D01*
X154389016Y-65400644D01*
X154370280Y-65332168D01*
X154391539Y-65264429D01*
X154446046Y-65218937D01*
X154496258Y-65208500D01*
X154930076Y-65208500D01*
X154998197Y-65228502D01*
X155019171Y-65245405D01*
X155154595Y-65380829D01*
X155188621Y-65443141D01*
X155191500Y-65469924D01*
X155191500Y-80030484D01*
X155171498Y-80098605D01*
X155160726Y-80112994D01*
X155136068Y-80141451D01*
X155136064Y-80141456D01*
X155058330Y-80262412D01*
X154997586Y-80395423D01*
X154957082Y-80533369D01*
X154957080Y-80533378D01*
X154936271Y-80678111D01*
X154936271Y-81250000D01*
X154938233Y-81277442D01*
X154941499Y-81323107D01*
X154941501Y-81323118D01*
X154952166Y-81359438D01*
X154955987Y-81412867D01*
X154936271Y-81550000D01*
X154936271Y-82121889D01*
X154942734Y-82166841D01*
X154957080Y-82266621D01*
X154957082Y-82266630D01*
X154997586Y-82404576D01*
X155058331Y-82537588D01*
X155058334Y-82537593D01*
X155136056Y-82658532D01*
X155136061Y-82658539D01*
X155136062Y-82658540D01*
X155136065Y-82658544D01*
X155231821Y-82769051D01*
X155248009Y-82783077D01*
X155286394Y-82842800D01*
X155291500Y-82878304D01*
X155291500Y-84221497D01*
X155271498Y-84289618D01*
X155254595Y-84310592D01*
X154610592Y-84954595D01*
X154548280Y-84988621D01*
X154521497Y-84991500D01*
X154251350Y-84991500D01*
X154190803Y-84998009D01*
X154190795Y-84998011D01*
X154053797Y-85049110D01*
X154053792Y-85049112D01*
X153936738Y-85136738D01*
X153849112Y-85253792D01*
X153849110Y-85253797D01*
X153798011Y-85390795D01*
X153798009Y-85390803D01*
X153791500Y-85451350D01*
X153791500Y-86748649D01*
X153798009Y-86809196D01*
X153798011Y-86809204D01*
X153849110Y-86946202D01*
X153849112Y-86946207D01*
X153936738Y-87063261D01*
X154053792Y-87150887D01*
X154053794Y-87150888D01*
X154053796Y-87150889D01*
X154112875Y-87172924D01*
X154190795Y-87201988D01*
X154190803Y-87201990D01*
X154251350Y-87208499D01*
X154251355Y-87208499D01*
X154251362Y-87208500D01*
X154251368Y-87208500D01*
X155248632Y-87208500D01*
X155248638Y-87208500D01*
X155248645Y-87208499D01*
X155248649Y-87208499D01*
X155309196Y-87201990D01*
X155309199Y-87201989D01*
X155309201Y-87201989D01*
X155446204Y-87150889D01*
X155527640Y-87089927D01*
X155563261Y-87063261D01*
X155650887Y-86946207D01*
X155650887Y-86946206D01*
X155650889Y-86946204D01*
X155701989Y-86809201D01*
X155708500Y-86748638D01*
X155708500Y-86478502D01*
X155728502Y-86410381D01*
X155745400Y-86389411D01*
X156784840Y-85349971D01*
X156799867Y-85337137D01*
X156811253Y-85328866D01*
X156858127Y-85276805D01*
X156860363Y-85274448D01*
X156876072Y-85258741D01*
X156890031Y-85241502D01*
X156892174Y-85238994D01*
X156899992Y-85230310D01*
X156939040Y-85186944D01*
X156946075Y-85174757D01*
X156957269Y-85158470D01*
X156966129Y-85147530D01*
X156997945Y-85085087D01*
X156999491Y-85082238D01*
X157034527Y-85021556D01*
X157038871Y-85008182D01*
X157046443Y-84989904D01*
X157052828Y-84977373D01*
X157052830Y-84977370D01*
X157054404Y-84971498D01*
X157070955Y-84909721D01*
X157071892Y-84906556D01*
X157093542Y-84839928D01*
X157095012Y-84825937D01*
X157098614Y-84806496D01*
X157102257Y-84792903D01*
X157102257Y-84792897D01*
X157102258Y-84792894D01*
X157105134Y-84738000D01*
X157105924Y-84722930D01*
X157106178Y-84719697D01*
X157108500Y-84697610D01*
X157108500Y-84675424D01*
X157108585Y-84672153D01*
X157112252Y-84602190D01*
X157110051Y-84588291D01*
X157108500Y-84568582D01*
X157108500Y-83579500D01*
X157128502Y-83511379D01*
X157182158Y-83464886D01*
X157234500Y-83453500D01*
X157563629Y-83453500D01*
X157631750Y-83473502D01*
X157678243Y-83527158D01*
X157688907Y-83566032D01*
X157693009Y-83604196D01*
X157693011Y-83604204D01*
X157744110Y-83741202D01*
X157744112Y-83741207D01*
X157831738Y-83858261D01*
X157948792Y-83945887D01*
X157948794Y-83945888D01*
X157948796Y-83945889D01*
X157988760Y-83960795D01*
X158085795Y-83996988D01*
X158085803Y-83996990D01*
X158146350Y-84003499D01*
X158146355Y-84003499D01*
X158146362Y-84003500D01*
X158146368Y-84003500D01*
X159253632Y-84003500D01*
X159253638Y-84003500D01*
X159253645Y-84003499D01*
X159253649Y-84003499D01*
X159314196Y-83996990D01*
X159314199Y-83996989D01*
X159314201Y-83996989D01*
X159451204Y-83945889D01*
X159568261Y-83858261D01*
X159655887Y-83741207D01*
X159655887Y-83741206D01*
X159655889Y-83741204D01*
X159706989Y-83604201D01*
X159710051Y-83575726D01*
X159713499Y-83543649D01*
X159713500Y-83543632D01*
X159713500Y-81546367D01*
X159713499Y-81546350D01*
X159706990Y-81485802D01*
X159705349Y-81481402D01*
X159698870Y-81464034D01*
X159693803Y-81393223D01*
X159698866Y-81375976D01*
X159706989Y-81354201D01*
X159706989Y-81354199D01*
X159706990Y-81354197D01*
X159713499Y-81293649D01*
X159713500Y-81293632D01*
X159713500Y-80016367D01*
X159713499Y-80016350D01*
X159706990Y-79955803D01*
X159706988Y-79955795D01*
X159655889Y-79818797D01*
X159655887Y-79818792D01*
X159568261Y-79701738D01*
X159451207Y-79614112D01*
X159451202Y-79614110D01*
X159314204Y-79563011D01*
X159314196Y-79563009D01*
X159253649Y-79556500D01*
X159253638Y-79556500D01*
X158146362Y-79556500D01*
X158146350Y-79556500D01*
X158085803Y-79563009D01*
X158085795Y-79563011D01*
X157948797Y-79614110D01*
X157948792Y-79614112D01*
X157831736Y-79701740D01*
X157825367Y-79708110D01*
X157823012Y-79705755D01*
X157779175Y-79738562D01*
X157735160Y-79746500D01*
X157334500Y-79746500D01*
X157266379Y-79726498D01*
X157219886Y-79672842D01*
X157208500Y-79620500D01*
X157208500Y-65052643D01*
X157208804Y-65046464D01*
X157213380Y-65000002D01*
X157213380Y-64999995D01*
X157193910Y-64802307D01*
X157193909Y-64802305D01*
X157193909Y-64802299D01*
X157136679Y-64613642D01*
X157136320Y-64612345D01*
X157136241Y-64612197D01*
X157136241Y-64612196D01*
X157042595Y-64436996D01*
X156916568Y-64283432D01*
X156880463Y-64253801D01*
X156875893Y-64249659D01*
X156150334Y-63524100D01*
X156146189Y-63519526D01*
X156116567Y-63483431D01*
X155963004Y-63357405D01*
X155787809Y-63263761D01*
X155787797Y-63263756D01*
X155786059Y-63263229D01*
X155597704Y-63206091D01*
X155597692Y-63206089D01*
X155400004Y-63186620D01*
X155399997Y-63186620D01*
X155353535Y-63191196D01*
X155347356Y-63191500D01*
X153912717Y-63191500D01*
X153865889Y-63182474D01*
X153738721Y-63131564D01*
X153530853Y-63091500D01*
X153530849Y-63091500D01*
X152822197Y-63091500D01*
X152822195Y-63091500D01*
X152822177Y-63091501D01*
X152664271Y-63106579D01*
X152664256Y-63106582D01*
X152461143Y-63166221D01*
X152461139Y-63166222D01*
X152461138Y-63166223D01*
X152439277Y-63177493D01*
X152381541Y-63191500D01*
X151095728Y-63191500D01*
X151027607Y-63171498D01*
X150994860Y-63141010D01*
X150969085Y-63106579D01*
X150939261Y-63066739D01*
X150939259Y-63066738D01*
X150939259Y-63066737D01*
X150822207Y-62979112D01*
X150822202Y-62979110D01*
X150685204Y-62928011D01*
X150685196Y-62928009D01*
X150624649Y-62921500D01*
X150624638Y-62921500D01*
X148727362Y-62921500D01*
X148727350Y-62921500D01*
X148666803Y-62928009D01*
X148666795Y-62928011D01*
X148529797Y-62979110D01*
X148529792Y-62979112D01*
X148412738Y-63066738D01*
X148325112Y-63183792D01*
X148325110Y-63183797D01*
X148274011Y-63320795D01*
X148274009Y-63320803D01*
X148267500Y-63381350D01*
X148267500Y-65078649D01*
X148274009Y-65139196D01*
X148274011Y-65139204D01*
X148325110Y-65276202D01*
X148325112Y-65276207D01*
X148412739Y-65393261D01*
X148420582Y-65399133D01*
X148463128Y-65455969D01*
X148468192Y-65526784D01*
X148434167Y-65589096D01*
X148420582Y-65600867D01*
X148412739Y-65606738D01*
X148325112Y-65723792D01*
X148325110Y-65723797D01*
X148274011Y-65860795D01*
X148274009Y-65860803D01*
X148267500Y-65921350D01*
X148267500Y-67618649D01*
X148274009Y-67679196D01*
X148274011Y-67679204D01*
X148325110Y-67816202D01*
X148325112Y-67816207D01*
X148412738Y-67933261D01*
X148529792Y-68020887D01*
X148529794Y-68020888D01*
X148529796Y-68020889D01*
X148588875Y-68042924D01*
X148666795Y-68071988D01*
X148666803Y-68071990D01*
X148727350Y-68078499D01*
X148727355Y-68078499D01*
X148727362Y-68078500D01*
X148727368Y-68078500D01*
X150624632Y-68078500D01*
X150624638Y-68078500D01*
X150624645Y-68078499D01*
X150624649Y-68078499D01*
X150685196Y-68071990D01*
X150685199Y-68071989D01*
X150685201Y-68071989D01*
X150822204Y-68020889D01*
X150822799Y-68020444D01*
X150939261Y-67933261D01*
X151026887Y-67816207D01*
X151026887Y-67816206D01*
X151026889Y-67816204D01*
X151070960Y-67698045D01*
X151077988Y-67679204D01*
X151077990Y-67679196D01*
X151084499Y-67618649D01*
X151084500Y-67618632D01*
X151084500Y-67334500D01*
X151104502Y-67266379D01*
X151158158Y-67219886D01*
X151210500Y-67208500D01*
X152015500Y-67208500D01*
X152083621Y-67228502D01*
X152130114Y-67282158D01*
X152141500Y-67334500D01*
X152141500Y-69265500D01*
X152121498Y-69333621D01*
X152067842Y-69380114D01*
X152015500Y-69391500D01*
X150058853Y-69391500D01*
X150043011Y-69389750D01*
X150042984Y-69390044D01*
X150035092Y-69389298D01*
X150035091Y-69389298D01*
X149965042Y-69391500D01*
X149935144Y-69391500D01*
X149935140Y-69391500D01*
X149935130Y-69391501D01*
X149928179Y-69392379D01*
X149922267Y-69392844D01*
X149875112Y-69394326D01*
X149875110Y-69394327D01*
X149855655Y-69399978D01*
X149836302Y-69403986D01*
X149816210Y-69406524D01*
X149816202Y-69406526D01*
X149772336Y-69423893D01*
X149766721Y-69425816D01*
X149721407Y-69438982D01*
X149721402Y-69438984D01*
X149703963Y-69449297D01*
X149686218Y-69457990D01*
X149667380Y-69465449D01*
X149645278Y-69481507D01*
X149629212Y-69493180D01*
X149624261Y-69496433D01*
X149583640Y-69520455D01*
X149569307Y-69534787D01*
X149554281Y-69547620D01*
X149537895Y-69559526D01*
X149537894Y-69559526D01*
X149507818Y-69595880D01*
X149503823Y-69600271D01*
X148611336Y-70492757D01*
X148598901Y-70502721D01*
X148599089Y-70502948D01*
X148592980Y-70508001D01*
X148545016Y-70559078D01*
X148523866Y-70580227D01*
X148519560Y-70585777D01*
X148515714Y-70590279D01*
X148483417Y-70624674D01*
X148483411Y-70624683D01*
X148473651Y-70642435D01*
X148462803Y-70658950D01*
X148450386Y-70674958D01*
X148431645Y-70718264D01*
X148429034Y-70723594D01*
X148406305Y-70764939D01*
X148406303Y-70764944D01*
X148401267Y-70784559D01*
X148394864Y-70803262D01*
X148386819Y-70821852D01*
X148379437Y-70868456D01*
X148378233Y-70874268D01*
X148366500Y-70919968D01*
X148366500Y-70940223D01*
X148364949Y-70959933D01*
X148361780Y-70979942D01*
X148361780Y-70979943D01*
X148366220Y-71026917D01*
X148366500Y-71032850D01*
X148366500Y-72616146D01*
X148364751Y-72631988D01*
X148365044Y-72632016D01*
X148364298Y-72639907D01*
X148366500Y-72709957D01*
X148366500Y-72739851D01*
X148366501Y-72739872D01*
X148367378Y-72746820D01*
X148367844Y-72752732D01*
X148369326Y-72799888D01*
X148369327Y-72799893D01*
X148374977Y-72819339D01*
X148378986Y-72838697D01*
X148381525Y-72858793D01*
X148381526Y-72858799D01*
X148398893Y-72902662D01*
X148400816Y-72908279D01*
X148413982Y-72953593D01*
X148424294Y-72971031D01*
X148432988Y-72988779D01*
X148440444Y-73007609D01*
X148440450Y-73007620D01*
X148468177Y-73045783D01*
X148471437Y-73050746D01*
X148495460Y-73091365D01*
X148509779Y-73105684D01*
X148522617Y-73120714D01*
X148532156Y-73133843D01*
X148534528Y-73137107D01*
X148562794Y-73160491D01*
X148570886Y-73167185D01*
X148575267Y-73171171D01*
X148669568Y-73265472D01*
X148705062Y-73300966D01*
X148717900Y-73315995D01*
X148743176Y-73350785D01*
X148746427Y-73355735D01*
X148770449Y-73396353D01*
X148770452Y-73396357D01*
X148784769Y-73410674D01*
X148797607Y-73425704D01*
X148807146Y-73438833D01*
X148809518Y-73442097D01*
X148837784Y-73465481D01*
X148845876Y-73472175D01*
X148850257Y-73476161D01*
X148925458Y-73551362D01*
X148927753Y-73553657D01*
X148937720Y-73566097D01*
X148937947Y-73565910D01*
X148942999Y-73572017D01*
X148994095Y-73619999D01*
X149015225Y-73641130D01*
X149020768Y-73645430D01*
X149025281Y-73649285D01*
X149059679Y-73681586D01*
X149059680Y-73681586D01*
X149059682Y-73681588D01*
X149077429Y-73691344D01*
X149093959Y-73702202D01*
X149109959Y-73714613D01*
X149148316Y-73731211D01*
X149202892Y-73776621D01*
X149224253Y-73844328D01*
X149206732Y-73910987D01*
X149141319Y-74021596D01*
X149095007Y-74181000D01*
X150703000Y-74181000D01*
X150771121Y-74201002D01*
X150817614Y-74254658D01*
X150829000Y-74307000D01*
X150829000Y-74563000D01*
X150808998Y-74631121D01*
X150755342Y-74677614D01*
X150703000Y-74689000D01*
X149095007Y-74689000D01*
X149141318Y-74848401D01*
X149225946Y-74991498D01*
X149226616Y-74992362D01*
X149226930Y-74993162D01*
X149229981Y-74998321D01*
X149229148Y-74998813D01*
X149252563Y-75058448D01*
X149238662Y-75128070D01*
X149226625Y-75146802D01*
X149225551Y-75148186D01*
X149140856Y-75291396D01*
X149094437Y-75451170D01*
X149091500Y-75488494D01*
X149091500Y-75921506D01*
X149094437Y-75958829D01*
X149140857Y-76118607D01*
X149144005Y-76125882D01*
X149141065Y-76127153D01*
X149154881Y-76181616D01*
X149132362Y-76248947D01*
X149118063Y-76266030D01*
X148896992Y-76487101D01*
X148834680Y-76521127D01*
X148820705Y-76523353D01*
X148785622Y-76526937D01*
X148620080Y-76581791D01*
X148471653Y-76673342D01*
X148471647Y-76673347D01*
X148348345Y-76796649D01*
X148347321Y-76797945D01*
X148346392Y-76798602D01*
X148343152Y-76801843D01*
X148342597Y-76801288D01*
X148289377Y-76838970D01*
X148218452Y-76842156D01*
X148174427Y-76821724D01*
X148156753Y-76808882D01*
X147982288Y-76731206D01*
X147795487Y-76691500D01*
X147604513Y-76691500D01*
X147417711Y-76731206D01*
X147243247Y-76808882D01*
X147088744Y-76921135D01*
X146960965Y-77063048D01*
X146960958Y-77063058D01*
X146879526Y-77204103D01*
X146865473Y-77228444D01*
X146859769Y-77246000D01*
X146806457Y-77410072D01*
X146786496Y-77600000D01*
X140602160Y-77600000D01*
X140597069Y-77587142D01*
X140595731Y-77583422D01*
X140577763Y-77528123D01*
X140573350Y-77521170D01*
X140562582Y-77500037D01*
X140556634Y-77485014D01*
X140558382Y-77484321D01*
X140545279Y-77424897D01*
X140569902Y-77358307D01*
X140626617Y-77315600D01*
X140670983Y-77307531D01*
X143542116Y-77307531D01*
X143557957Y-77309280D01*
X143557985Y-77308987D01*
X143565871Y-77309731D01*
X143565878Y-77309733D01*
X143635927Y-77307531D01*
X143665825Y-77307531D01*
X143672787Y-77306650D01*
X143678688Y-77306185D01*
X143725858Y-77304704D01*
X143745316Y-77299050D01*
X143764663Y-77295044D01*
X143784766Y-77292505D01*
X143828648Y-77275130D01*
X143834243Y-77273214D01*
X143862785Y-77264922D01*
X143879560Y-77260050D01*
X143879564Y-77260048D01*
X143896995Y-77249739D01*
X143914749Y-77241040D01*
X143933586Y-77233583D01*
X143971755Y-77205849D01*
X143976713Y-77202593D01*
X144017331Y-77178573D01*
X144031654Y-77164249D01*
X144046693Y-77151405D01*
X144063076Y-77139503D01*
X144093162Y-77103134D01*
X144097130Y-77098772D01*
X144645500Y-76550402D01*
X144707810Y-76516379D01*
X144734593Y-76513500D01*
X146516506Y-76513500D01*
X146541388Y-76511541D01*
X146553831Y-76510562D01*
X146713601Y-76464145D01*
X146713603Y-76464143D01*
X146713605Y-76464143D01*
X146785204Y-76421799D01*
X146856807Y-76379453D01*
X146974453Y-76261807D01*
X147021878Y-76181616D01*
X147059143Y-76118605D01*
X147059143Y-76118603D01*
X147059145Y-76118601D01*
X147105562Y-75958831D01*
X147108500Y-75921502D01*
X147108500Y-75488498D01*
X147105562Y-75451169D01*
X147059145Y-75291399D01*
X147059143Y-75291397D01*
X147059143Y-75291394D01*
X146974456Y-75148198D01*
X146974455Y-75148197D01*
X146974453Y-75148193D01*
X146974449Y-75148189D01*
X146973708Y-75147233D01*
X146973356Y-75146337D01*
X146970418Y-75141369D01*
X146971219Y-75140895D01*
X146947756Y-75081150D01*
X146961652Y-75011526D01*
X146973708Y-74992767D01*
X146974445Y-74991814D01*
X146974453Y-74991807D01*
X147050475Y-74863261D01*
X147059143Y-74848605D01*
X147059143Y-74848603D01*
X147059145Y-74848601D01*
X147105562Y-74688831D01*
X147108500Y-74651502D01*
X147108500Y-74218498D01*
X147105562Y-74181169D01*
X147059145Y-74021399D01*
X147059143Y-74021397D01*
X147059143Y-74021394D01*
X146974456Y-73878198D01*
X146974455Y-73878197D01*
X146974453Y-73878193D01*
X146974449Y-73878189D01*
X146973708Y-73877233D01*
X146973356Y-73876337D01*
X146970418Y-73871369D01*
X146971219Y-73870895D01*
X146947756Y-73811150D01*
X146961652Y-73741526D01*
X146973708Y-73722767D01*
X146974445Y-73721814D01*
X146974453Y-73721807D01*
X147059145Y-73578601D01*
X147105562Y-73418831D01*
X147108500Y-73381502D01*
X147108500Y-72948498D01*
X147108178Y-72944412D01*
X147105562Y-72911170D01*
X147103900Y-72905448D01*
X147059145Y-72751399D01*
X147059143Y-72751397D01*
X147059143Y-72751394D01*
X146974456Y-72608198D01*
X146974455Y-72608197D01*
X146974453Y-72608193D01*
X146974449Y-72608189D01*
X146973708Y-72607233D01*
X146973356Y-72606337D01*
X146970418Y-72601369D01*
X146971219Y-72600895D01*
X146947756Y-72541150D01*
X146961652Y-72471526D01*
X146973708Y-72452767D01*
X146974445Y-72451814D01*
X146974453Y-72451807D01*
X147059145Y-72308601D01*
X147105562Y-72148831D01*
X147107742Y-72121134D01*
X147108500Y-72111506D01*
X147108500Y-71678494D01*
X147105562Y-71641170D01*
X147087008Y-71577306D01*
X147059145Y-71481399D01*
X147059143Y-71481397D01*
X147059143Y-71481394D01*
X146974455Y-71338196D01*
X146974450Y-71338189D01*
X146856810Y-71220549D01*
X146856803Y-71220544D01*
X146713605Y-71135856D01*
X146553829Y-71089437D01*
X146516506Y-71086500D01*
X146516502Y-71086500D01*
X144733498Y-71086500D01*
X144733494Y-71086500D01*
X144696170Y-71089437D01*
X144536394Y-71135856D01*
X144393196Y-71220544D01*
X144393189Y-71220549D01*
X144389144Y-71224595D01*
X144326832Y-71258621D01*
X144300049Y-71261500D01*
X143688853Y-71261500D01*
X143673011Y-71259750D01*
X143672984Y-71260044D01*
X143665092Y-71259298D01*
X143665091Y-71259298D01*
X143595042Y-71261500D01*
X143565144Y-71261500D01*
X143565140Y-71261500D01*
X143565130Y-71261501D01*
X143558179Y-71262379D01*
X143552267Y-71262844D01*
X143505112Y-71264326D01*
X143505110Y-71264327D01*
X143485655Y-71269978D01*
X143466302Y-71273986D01*
X143446210Y-71276524D01*
X143446202Y-71276526D01*
X143402336Y-71293893D01*
X143396721Y-71295816D01*
X143351407Y-71308982D01*
X143351402Y-71308984D01*
X143333963Y-71319297D01*
X143316218Y-71327990D01*
X143297380Y-71335449D01*
X143275278Y-71351507D01*
X143259212Y-71363180D01*
X143254261Y-71366433D01*
X143213640Y-71390455D01*
X143199307Y-71404787D01*
X143184281Y-71417620D01*
X143161483Y-71434185D01*
X143160190Y-71432405D01*
X143106889Y-71459365D01*
X143036268Y-71452070D01*
X142980802Y-71407753D01*
X142958100Y-71340484D01*
X142958000Y-71335461D01*
X142958000Y-70951414D01*
X142957999Y-70951402D01*
X142951494Y-70890906D01*
X142900444Y-70754035D01*
X142900444Y-70754034D01*
X142812904Y-70637095D01*
X142695965Y-70549555D01*
X142559093Y-70498505D01*
X142498597Y-70492000D01*
X141954000Y-70492000D01*
X141954000Y-71628000D01*
X141933998Y-71696121D01*
X141880342Y-71742614D01*
X141828000Y-71754000D01*
X140442000Y-71754000D01*
X140442000Y-71852813D01*
X140421998Y-71920934D01*
X140368342Y-71967427D01*
X140298068Y-71977531D01*
X140264752Y-71967920D01*
X140182290Y-71931206D01*
X139995487Y-71891500D01*
X139804513Y-71891500D01*
X139617711Y-71931206D01*
X139524512Y-71972701D01*
X139443248Y-72008882D01*
X139443246Y-72008882D01*
X139437216Y-72011568D01*
X139436222Y-72009336D01*
X139377974Y-72023452D01*
X139310887Y-72000215D01*
X139267014Y-71944397D01*
X139258000Y-71897596D01*
X139258000Y-71654000D01*
X136742000Y-71654000D01*
X136742000Y-71948597D01*
X136748505Y-72009096D01*
X136750318Y-72016766D01*
X136747938Y-72017328D01*
X136752133Y-72076082D01*
X136748833Y-72087319D01*
X136746197Y-72098475D01*
X136744021Y-72097960D01*
X136721200Y-72153057D01*
X136662882Y-72193548D01*
X136591931Y-72196082D01*
X136533996Y-72163091D01*
X135616905Y-71246000D01*
X140442000Y-71246000D01*
X141446000Y-71246000D01*
X141446000Y-70492000D01*
X140901402Y-70492000D01*
X140840906Y-70498505D01*
X140704035Y-70549555D01*
X140704034Y-70549555D01*
X140587095Y-70637095D01*
X140499555Y-70754034D01*
X140499555Y-70754035D01*
X140448505Y-70890906D01*
X140442000Y-70951402D01*
X140442000Y-71246000D01*
X135616905Y-71246000D01*
X135516905Y-71146000D01*
X136742000Y-71146000D01*
X137746000Y-71146000D01*
X137746000Y-70392000D01*
X138254000Y-70392000D01*
X138254000Y-71146000D01*
X139258000Y-71146000D01*
X139258000Y-70851414D01*
X139257999Y-70851402D01*
X139251494Y-70790906D01*
X139200444Y-70654035D01*
X139200444Y-70654034D01*
X139112904Y-70537095D01*
X138995965Y-70449555D01*
X138859093Y-70398505D01*
X138798597Y-70392000D01*
X138254000Y-70392000D01*
X137746000Y-70392000D01*
X137201402Y-70392000D01*
X137140906Y-70398505D01*
X137004035Y-70449555D01*
X137004034Y-70449555D01*
X136887095Y-70537095D01*
X136799555Y-70654034D01*
X136799555Y-70654035D01*
X136748505Y-70790906D01*
X136742000Y-70851402D01*
X136742000Y-71146000D01*
X135516905Y-71146000D01*
X134845404Y-70474499D01*
X134811378Y-70412187D01*
X134808499Y-70385404D01*
X134808499Y-70012787D01*
X134798062Y-69910619D01*
X134766500Y-69815369D01*
X134743209Y-69745080D01*
X134651658Y-69596654D01*
X134651657Y-69596653D01*
X134651652Y-69596647D01*
X134528346Y-69473341D01*
X134468352Y-69436336D01*
X134420875Y-69383550D01*
X134408500Y-69329096D01*
X134408500Y-69270902D01*
X134428502Y-69202781D01*
X134468352Y-69163662D01*
X134528346Y-69126658D01*
X134651658Y-69003346D01*
X134743209Y-68854920D01*
X134798062Y-68689381D01*
X134808500Y-68587213D01*
X134808499Y-68012788D01*
X134798062Y-67910619D01*
X134743209Y-67745080D01*
X134651658Y-67596654D01*
X134651657Y-67596653D01*
X134651652Y-67596647D01*
X134528346Y-67473341D01*
X134468352Y-67436336D01*
X134420875Y-67383550D01*
X134408500Y-67329096D01*
X134408500Y-67024000D01*
X138516000Y-67024000D01*
X138516000Y-67618597D01*
X138522505Y-67679093D01*
X138573555Y-67815964D01*
X138573555Y-67815965D01*
X138661095Y-67932904D01*
X138778034Y-68020444D01*
X138914906Y-68071494D01*
X138975402Y-68077999D01*
X138975415Y-68078000D01*
X139670000Y-68078000D01*
X139670000Y-67024000D01*
X140178000Y-67024000D01*
X140178000Y-68078000D01*
X140872585Y-68078000D01*
X140872597Y-68077999D01*
X140933093Y-68071494D01*
X141069964Y-68020444D01*
X141069965Y-68020444D01*
X141186904Y-67932904D01*
X141274444Y-67815965D01*
X141274444Y-67815964D01*
X141325494Y-67679093D01*
X141331999Y-67618597D01*
X141332000Y-67618585D01*
X141332000Y-67024000D01*
X140178000Y-67024000D01*
X139670000Y-67024000D01*
X138516000Y-67024000D01*
X134408500Y-67024000D01*
X134408500Y-65078649D01*
X138515500Y-65078649D01*
X138522009Y-65139196D01*
X138522011Y-65139204D01*
X138573110Y-65276202D01*
X138573112Y-65276207D01*
X138660738Y-65393261D01*
X138668998Y-65399444D01*
X138711545Y-65456280D01*
X138716609Y-65527096D01*
X138682584Y-65589408D01*
X138668999Y-65601179D01*
X138661096Y-65607094D01*
X138573555Y-65724034D01*
X138573555Y-65724035D01*
X138522505Y-65860906D01*
X138516000Y-65921402D01*
X138516000Y-66516000D01*
X141332000Y-66516000D01*
X141332000Y-65921414D01*
X141331999Y-65921402D01*
X141325494Y-65860906D01*
X141274444Y-65724035D01*
X141274444Y-65724034D01*
X141186905Y-65607097D01*
X141179003Y-65601182D01*
X141136455Y-65544347D01*
X141131389Y-65473531D01*
X141165413Y-65411218D01*
X141179004Y-65399442D01*
X141179417Y-65399133D01*
X141187261Y-65393261D01*
X141274889Y-65276204D01*
X141325989Y-65139201D01*
X141332500Y-65078638D01*
X141332500Y-63381362D01*
X141332499Y-63381350D01*
X141325990Y-63320803D01*
X141325988Y-63320795D01*
X141296924Y-63242875D01*
X141274889Y-63183796D01*
X141274888Y-63183794D01*
X141274887Y-63183792D01*
X141187261Y-63066738D01*
X141070207Y-62979112D01*
X141070202Y-62979110D01*
X140933204Y-62928011D01*
X140933196Y-62928009D01*
X140872649Y-62921500D01*
X140872638Y-62921500D01*
X140683500Y-62921500D01*
X140615379Y-62901498D01*
X140568886Y-62847842D01*
X140557500Y-62795500D01*
X140557500Y-62741475D01*
X140577502Y-62673354D01*
X140631158Y-62626861D01*
X140643858Y-62621874D01*
X140654920Y-62618209D01*
X140803346Y-62526658D01*
X140832310Y-62497694D01*
X140910905Y-62419100D01*
X140973217Y-62385074D01*
X141044032Y-62390139D01*
X141089095Y-62419100D01*
X141196647Y-62526652D01*
X141196653Y-62526657D01*
X141196654Y-62526658D01*
X141345080Y-62618209D01*
X141510619Y-62673062D01*
X141612787Y-62683500D01*
X142212212Y-62683499D01*
X142314381Y-62673062D01*
X142479920Y-62618209D01*
X142628346Y-62526658D01*
X142751658Y-62403346D01*
X142843209Y-62254920D01*
X142898062Y-62089381D01*
X142908500Y-61987213D01*
X142908499Y-61614592D01*
X142928501Y-61546473D01*
X142945399Y-61525503D01*
X145248657Y-59222245D01*
X145261092Y-59212284D01*
X145260905Y-59212057D01*
X145267009Y-59207005D01*
X145267018Y-59207000D01*
X145314999Y-59155904D01*
X145336134Y-59134770D01*
X145340429Y-59129232D01*
X145344271Y-59124731D01*
X145376586Y-59090321D01*
X145386345Y-59072567D01*
X145397197Y-59056046D01*
X145409613Y-59040041D01*
X145428347Y-58996748D01*
X145430961Y-58991412D01*
X145453694Y-58950061D01*
X145453695Y-58950060D01*
X145458733Y-58930435D01*
X145465138Y-58911730D01*
X145473181Y-58893145D01*
X145480563Y-58846525D01*
X145481761Y-58840744D01*
X145493500Y-58795030D01*
X145493500Y-58774769D01*
X145495051Y-58755058D01*
X145498219Y-58735056D01*
X145493780Y-58688089D01*
X145493500Y-58682157D01*
X145493500Y-57516281D01*
X145513502Y-57448160D01*
X145527647Y-57430031D01*
X145554999Y-57400904D01*
X145576134Y-57379770D01*
X145580429Y-57374232D01*
X145584271Y-57369731D01*
X145616586Y-57335321D01*
X145626345Y-57317567D01*
X145637197Y-57301046D01*
X145649613Y-57285041D01*
X145668347Y-57241748D01*
X145670961Y-57236412D01*
X145693694Y-57195061D01*
X145693695Y-57195060D01*
X145698733Y-57175435D01*
X145705138Y-57156730D01*
X145707989Y-57150142D01*
X145713181Y-57138145D01*
X145720561Y-57091547D01*
X145721762Y-57085740D01*
X145733500Y-57040030D01*
X145733500Y-57019775D01*
X145735051Y-57000063D01*
X145735985Y-56994165D01*
X145738220Y-56980057D01*
X145735629Y-56952651D01*
X145733780Y-56933080D01*
X145733500Y-56927148D01*
X145733500Y-55099674D01*
X145753502Y-55031553D01*
X145786414Y-54997037D01*
X145829215Y-54966559D01*
X145918596Y-54872818D01*
X145980080Y-54837321D01*
X146050996Y-54840699D01*
X146108828Y-54881880D01*
X146117026Y-54893621D01*
X146150968Y-54948650D01*
X146150975Y-54948658D01*
X146276341Y-55074024D01*
X146276347Y-55074029D01*
X146276348Y-55074030D01*
X146427262Y-55167115D01*
X146595574Y-55222887D01*
X146699455Y-55233500D01*
X147500544Y-55233499D01*
X147604426Y-55222887D01*
X147772738Y-55167115D01*
X147923652Y-55074030D01*
X148049030Y-54948652D01*
X148142115Y-54797738D01*
X148197887Y-54629426D01*
X148208500Y-54525545D01*
X148208499Y-53174456D01*
X148197887Y-53070574D01*
X148142115Y-52902262D01*
X148049030Y-52751348D01*
X148049029Y-52751347D01*
X148049024Y-52751341D01*
X147923658Y-52625975D01*
X147923652Y-52625970D01*
X147898805Y-52610644D01*
X147772738Y-52532885D01*
X147651903Y-52492845D01*
X147604427Y-52477113D01*
X147604420Y-52477112D01*
X147500553Y-52466500D01*
X146699455Y-52466500D01*
X146595574Y-52477112D01*
X146427261Y-52532885D01*
X146276347Y-52625970D01*
X146276341Y-52625975D01*
X146150975Y-52751341D01*
X146150970Y-52751347D01*
X146118895Y-52803350D01*
X146066109Y-52850828D01*
X145996034Y-52862231D01*
X145930918Y-52833938D01*
X145912612Y-52815092D01*
X145905906Y-52806565D01*
X145745922Y-52667938D01*
X145745911Y-52667930D01*
X145562587Y-52562089D01*
X145562580Y-52562086D01*
X145362530Y-52492848D01*
X145362529Y-52492847D01*
X145362527Y-52492847D01*
X145362525Y-52492846D01*
X145362519Y-52492845D01*
X145152985Y-52462718D01*
X144941536Y-52472790D01*
X144941523Y-52472792D01*
X144735801Y-52522700D01*
X144735795Y-52522702D01*
X144543228Y-52610644D01*
X144543221Y-52610648D01*
X144370791Y-52733435D01*
X144370781Y-52733444D01*
X144224695Y-52886656D01*
X144110244Y-53064745D01*
X144031563Y-53261281D01*
X143991500Y-53469146D01*
X143991500Y-54177801D01*
X143991501Y-54177822D01*
X144006579Y-54335728D01*
X144006582Y-54335743D01*
X144066223Y-54538864D01*
X144163227Y-54727023D01*
X144163229Y-54727026D01*
X144228660Y-54810229D01*
X144294094Y-54893435D01*
X144423012Y-55005143D01*
X144461396Y-55064869D01*
X144466500Y-55100367D01*
X144466500Y-56643717D01*
X144446498Y-56711838D01*
X144432350Y-56729970D01*
X144405016Y-56759078D01*
X144383866Y-56780227D01*
X144379560Y-56785777D01*
X144375714Y-56790279D01*
X144343417Y-56824674D01*
X144343411Y-56824683D01*
X144333651Y-56842435D01*
X144322803Y-56858950D01*
X144310386Y-56874958D01*
X144291645Y-56918264D01*
X144289034Y-56923594D01*
X144266305Y-56964939D01*
X144266303Y-56964944D01*
X144261267Y-56984559D01*
X144254864Y-57003262D01*
X144246819Y-57021852D01*
X144239437Y-57068456D01*
X144238233Y-57074268D01*
X144226500Y-57119968D01*
X144226500Y-57140223D01*
X144224949Y-57159933D01*
X144221780Y-57179942D01*
X144221780Y-57179943D01*
X144226220Y-57226917D01*
X144226500Y-57232850D01*
X144226500Y-58400404D01*
X144206498Y-58468525D01*
X144189595Y-58489499D01*
X141999498Y-60679595D01*
X141937186Y-60713621D01*
X141910403Y-60716500D01*
X141612787Y-60716500D01*
X141510619Y-60726937D01*
X141345079Y-60781791D01*
X141196653Y-60873342D01*
X141196647Y-60873347D01*
X141089095Y-60980900D01*
X141026783Y-61014926D01*
X140955968Y-61009861D01*
X140910905Y-60980900D01*
X140803352Y-60873347D01*
X140803346Y-60873342D01*
X140654920Y-60781791D01*
X140489381Y-60726938D01*
X140489379Y-60726937D01*
X140489377Y-60726937D01*
X140387221Y-60716500D01*
X139787787Y-60716500D01*
X139685619Y-60726937D01*
X139520079Y-60781791D01*
X139371653Y-60873342D01*
X139371647Y-60873347D01*
X139248347Y-60996647D01*
X139248342Y-60996653D01*
X139156791Y-61145080D01*
X139101937Y-61310622D01*
X139091500Y-61412778D01*
X139091500Y-61987212D01*
X139101937Y-62089380D01*
X139156791Y-62254919D01*
X139156791Y-62254920D01*
X139248342Y-62403346D01*
X139253592Y-62408596D01*
X139287619Y-62470905D01*
X139290500Y-62497694D01*
X139290500Y-62795500D01*
X139270498Y-62863621D01*
X139216842Y-62910114D01*
X139164500Y-62921500D01*
X138975350Y-62921500D01*
X138914803Y-62928009D01*
X138914795Y-62928011D01*
X138777797Y-62979110D01*
X138777792Y-62979112D01*
X138660738Y-63066738D01*
X138573112Y-63183792D01*
X138573110Y-63183797D01*
X138522011Y-63320795D01*
X138522009Y-63320803D01*
X138515500Y-63381350D01*
X138515500Y-65078649D01*
X134408500Y-65078649D01*
X134408500Y-61439594D01*
X134428502Y-61371473D01*
X134445405Y-61350499D01*
X134650499Y-61145405D01*
X134712811Y-61111379D01*
X134739594Y-61108500D01*
X134795487Y-61108500D01*
X134982288Y-61068794D01*
X135156752Y-60991118D01*
X135311253Y-60878866D01*
X135311255Y-60878864D01*
X135439034Y-60736951D01*
X135439035Y-60736949D01*
X135439040Y-60736944D01*
X135534527Y-60571556D01*
X135593542Y-60389928D01*
X135613504Y-60200000D01*
X135593542Y-60010072D01*
X135534527Y-59828444D01*
X135439040Y-59663056D01*
X135439038Y-59663054D01*
X135439034Y-59663048D01*
X135311255Y-59521135D01*
X135156752Y-59408882D01*
X134982288Y-59331206D01*
X134795487Y-59291500D01*
X134643679Y-59291500D01*
X134575558Y-59271498D01*
X134534560Y-59228501D01*
X134496743Y-59163001D01*
X134480005Y-59094005D01*
X134496743Y-59036999D01*
X134519982Y-58996748D01*
X134534527Y-58971556D01*
X134593542Y-58789928D01*
X134610907Y-58624703D01*
X134637920Y-58559048D01*
X134647113Y-58548789D01*
X137088657Y-56107245D01*
X137101092Y-56097284D01*
X137100905Y-56097057D01*
X137107009Y-56092005D01*
X137107018Y-56092000D01*
X137154999Y-56040904D01*
X137176135Y-56019769D01*
X137180437Y-56014221D01*
X137184267Y-56009735D01*
X137216586Y-55975321D01*
X137226339Y-55957578D01*
X137237193Y-55941051D01*
X137249614Y-55925041D01*
X137268359Y-55881719D01*
X137270958Y-55876415D01*
X137293695Y-55835060D01*
X137298733Y-55815434D01*
X137305137Y-55796732D01*
X137313180Y-55778147D01*
X137313179Y-55778147D01*
X137313181Y-55778145D01*
X137320561Y-55731547D01*
X137321762Y-55725740D01*
X137333500Y-55680030D01*
X137333500Y-55659775D01*
X137335051Y-55640063D01*
X137338220Y-55620057D01*
X137335629Y-55592651D01*
X137333780Y-55573080D01*
X137333500Y-55567148D01*
X137333500Y-52149950D01*
X137353502Y-52081829D01*
X137370404Y-52060855D01*
X137374453Y-52056807D01*
X137425750Y-51970069D01*
X137459143Y-51913605D01*
X137459143Y-51913603D01*
X137459145Y-51913601D01*
X137505562Y-51753831D01*
X137508500Y-51716502D01*
X137508500Y-51000006D01*
X152286411Y-51000006D01*
X152306752Y-51388167D01*
X152367561Y-51772097D01*
X152468168Y-52147568D01*
X152607463Y-52510443D01*
X152607467Y-52510451D01*
X152783938Y-52856795D01*
X152995637Y-53182785D01*
X152995649Y-53182802D01*
X153240253Y-53484862D01*
X153240267Y-53484877D01*
X153515122Y-53759732D01*
X153515137Y-53759746D01*
X153817197Y-54004350D01*
X153817214Y-54004362D01*
X154001185Y-54123833D01*
X154143205Y-54216062D01*
X154489547Y-54392532D01*
X154489551Y-54392533D01*
X154489556Y-54392536D01*
X154852431Y-54531831D01*
X154852436Y-54531832D01*
X154852438Y-54531833D01*
X155227901Y-54632438D01*
X155611824Y-54693246D01*
X155611826Y-54693246D01*
X155611832Y-54693247D01*
X155999994Y-54713589D01*
X156000000Y-54713589D01*
X156000006Y-54713589D01*
X156388167Y-54693247D01*
X156388171Y-54693246D01*
X156388176Y-54693246D01*
X156772099Y-54632438D01*
X157147562Y-54531833D01*
X157147565Y-54531831D01*
X157147568Y-54531831D01*
X157510443Y-54392536D01*
X157510444Y-54392535D01*
X157510453Y-54392532D01*
X157856795Y-54216062D01*
X158182793Y-54004357D01*
X158223299Y-53971556D01*
X158484862Y-53759746D01*
X158484867Y-53759740D01*
X158484876Y-53759734D01*
X158759734Y-53484876D01*
X158759740Y-53484867D01*
X158759746Y-53484862D01*
X159004350Y-53182802D01*
X159004351Y-53182799D01*
X159004357Y-53182793D01*
X159216062Y-52856795D01*
X159392532Y-52510453D01*
X159405330Y-52477113D01*
X159531831Y-52147568D01*
X159555067Y-52060850D01*
X159632438Y-51772099D01*
X159693246Y-51388176D01*
X159693246Y-51388171D01*
X159693247Y-51388167D01*
X159713589Y-51000006D01*
X159713589Y-50999993D01*
X159693247Y-50611832D01*
X159649169Y-50333539D01*
X159632438Y-50227901D01*
X159531833Y-49852438D01*
X159531832Y-49852436D01*
X159531831Y-49852431D01*
X159392536Y-49489556D01*
X159392532Y-49489548D01*
X159392532Y-49489547D01*
X159216062Y-49143206D01*
X159004357Y-48817207D01*
X159004354Y-48817203D01*
X159004352Y-48817200D01*
X158759746Y-48515137D01*
X158759732Y-48515122D01*
X158484877Y-48240267D01*
X158484862Y-48240253D01*
X158182802Y-47995649D01*
X158182785Y-47995637D01*
X157856795Y-47783938D01*
X157510451Y-47607467D01*
X157510443Y-47607463D01*
X157147568Y-47468168D01*
X156772097Y-47367561D01*
X156388167Y-47306752D01*
X156000006Y-47286411D01*
X155999994Y-47286411D01*
X155611832Y-47306752D01*
X155227902Y-47367561D01*
X154852431Y-47468168D01*
X154489556Y-47607463D01*
X154489548Y-47607467D01*
X154143205Y-47783938D01*
X153817203Y-47995645D01*
X153817200Y-47995647D01*
X153515137Y-48240253D01*
X153515122Y-48240267D01*
X153240267Y-48515122D01*
X153240253Y-48515137D01*
X152995647Y-48817200D01*
X152995645Y-48817203D01*
X152783938Y-49143205D01*
X152607467Y-49489548D01*
X152607463Y-49489556D01*
X152468168Y-49852431D01*
X152367561Y-50227902D01*
X152306752Y-50611832D01*
X152286411Y-50999993D01*
X152286411Y-51000006D01*
X137508500Y-51000006D01*
X137508500Y-50333498D01*
X137505562Y-50296169D01*
X137459145Y-50136399D01*
X137433741Y-50093443D01*
X137416282Y-50024631D01*
X137438798Y-49957299D01*
X137494141Y-49912829D01*
X137555002Y-49903959D01*
X137593676Y-49907909D01*
X137599455Y-49908500D01*
X138400544Y-49908499D01*
X138504426Y-49897887D01*
X138672738Y-49842115D01*
X138823652Y-49749030D01*
X138949030Y-49623652D01*
X139042115Y-49472738D01*
X139097887Y-49304426D01*
X139108500Y-49200545D01*
X139108499Y-47799456D01*
X139097887Y-47695574D01*
X139042115Y-47527262D01*
X138949030Y-47376348D01*
X138949029Y-47376347D01*
X138949024Y-47376341D01*
X138823656Y-47250973D01*
X138822854Y-47250339D01*
X138822446Y-47249763D01*
X138818463Y-47245780D01*
X138819143Y-47245099D01*
X138781823Y-47192400D01*
X138778630Y-47121475D01*
X138814288Y-47060083D01*
X138877477Y-47027715D01*
X138901000Y-47025500D01*
X159848500Y-47025500D01*
X159916621Y-47045502D01*
G37*
%TD.AperFunction*%
%TA.AperFunction,Conductor*%
G36*
X147849694Y-84758002D02*
G01*
X147896187Y-84811658D01*
X147906291Y-84881932D01*
X147876797Y-84946512D01*
X147870668Y-84953095D01*
X146773595Y-86050169D01*
X146711283Y-86084194D01*
X146640468Y-86079130D01*
X146583632Y-86036583D01*
X146558821Y-85970063D01*
X146558500Y-85961074D01*
X146558500Y-85463642D01*
X146578502Y-85395521D01*
X146632158Y-85349028D01*
X146672146Y-85338250D01*
X146786672Y-85326970D01*
X146817655Y-85323919D01*
X146817656Y-85323918D01*
X146817663Y-85323918D01*
X147007766Y-85266251D01*
X147182966Y-85172605D01*
X147336530Y-85046578D01*
X147462557Y-84893014D01*
X147509813Y-84804604D01*
X147559565Y-84753956D01*
X147620935Y-84738000D01*
X147781573Y-84738000D01*
X147849694Y-84758002D01*
G37*
%TD.AperFunction*%
%TA.AperFunction,Conductor*%
G36*
X131567121Y-47045502D02*
G01*
X131613614Y-47099158D01*
X131623718Y-47169432D01*
X131594224Y-47234012D01*
X131577146Y-47250339D01*
X131576343Y-47250973D01*
X131450975Y-47376341D01*
X131450970Y-47376347D01*
X131357885Y-47527262D01*
X131302113Y-47695572D01*
X131302112Y-47695579D01*
X131291500Y-47799446D01*
X131291500Y-49200544D01*
X131302112Y-49304425D01*
X131357885Y-49472738D01*
X131450970Y-49623652D01*
X131450975Y-49623658D01*
X131576341Y-49749024D01*
X131576347Y-49749029D01*
X131576348Y-49749030D01*
X131727262Y-49842115D01*
X131895574Y-49897887D01*
X131999455Y-49908500D01*
X132800544Y-49908499D01*
X132845619Y-49903894D01*
X132915418Y-49916869D01*
X132967123Y-49965522D01*
X132984317Y-50034405D01*
X132966877Y-50093380D01*
X132941319Y-50136596D01*
X132894934Y-50296250D01*
X132892000Y-50333539D01*
X132892000Y-50771000D01*
X133446000Y-50771000D01*
X133446000Y-49745007D01*
X133420516Y-49725874D01*
X133378051Y-49668977D01*
X133373087Y-49598155D01*
X133388926Y-49558970D01*
X133442115Y-49472738D01*
X133497887Y-49304426D01*
X133508500Y-49200545D01*
X133508499Y-47799456D01*
X133497887Y-47695574D01*
X133442115Y-47527262D01*
X133349030Y-47376348D01*
X133349029Y-47376347D01*
X133349024Y-47376341D01*
X133223656Y-47250973D01*
X133222854Y-47250339D01*
X133222446Y-47249763D01*
X133218463Y-47245780D01*
X133219143Y-47245099D01*
X133181823Y-47192400D01*
X133178630Y-47121475D01*
X133214288Y-47060083D01*
X133277477Y-47027715D01*
X133301000Y-47025500D01*
X137099000Y-47025500D01*
X137167121Y-47045502D01*
X137213614Y-47099158D01*
X137223718Y-47169432D01*
X137194224Y-47234012D01*
X137177146Y-47250339D01*
X137176343Y-47250973D01*
X137050975Y-47376341D01*
X137050970Y-47376347D01*
X136957885Y-47527262D01*
X136902113Y-47695572D01*
X136902112Y-47695579D01*
X136891500Y-47799446D01*
X136891500Y-49200544D01*
X136902112Y-49304425D01*
X136902113Y-49304427D01*
X136957885Y-49472738D01*
X136968258Y-49489556D01*
X137005142Y-49549353D01*
X137023879Y-49617833D01*
X137002620Y-49685571D01*
X136948112Y-49731063D01*
X136897901Y-49741500D01*
X136483494Y-49741500D01*
X136446170Y-49744437D01*
X136310885Y-49783741D01*
X136286403Y-49790854D01*
X136286396Y-49790856D01*
X136264137Y-49804020D01*
X136195321Y-49821478D01*
X136135863Y-49804020D01*
X136113603Y-49790856D01*
X136113602Y-49790855D01*
X136113601Y-49790855D01*
X136033716Y-49767646D01*
X135953829Y-49744437D01*
X135916506Y-49741500D01*
X135916502Y-49741500D01*
X135483498Y-49741500D01*
X135483494Y-49741500D01*
X135446170Y-49744437D01*
X135310885Y-49783741D01*
X135286403Y-49790854D01*
X135286396Y-49790856D01*
X135264137Y-49804020D01*
X135195321Y-49821478D01*
X135135863Y-49804020D01*
X135113603Y-49790856D01*
X135113602Y-49790855D01*
X135113601Y-49790855D01*
X135033716Y-49767646D01*
X134953829Y-49744437D01*
X134916506Y-49741500D01*
X134916502Y-49741500D01*
X134483498Y-49741500D01*
X134483494Y-49741500D01*
X134446170Y-49744437D01*
X134446167Y-49744438D01*
X134286401Y-49790853D01*
X134286398Y-49790854D01*
X134263644Y-49804311D01*
X134194827Y-49821769D01*
X134135372Y-49804311D01*
X134113403Y-49791319D01*
X134113401Y-49791318D01*
X133954000Y-49745007D01*
X133954000Y-50079928D01*
X133943641Y-50129961D01*
X133940855Y-50136399D01*
X133894437Y-50296170D01*
X133891500Y-50333494D01*
X133891500Y-51716506D01*
X133894437Y-51753829D01*
X133940855Y-51913601D01*
X133943635Y-51920024D01*
X133954000Y-51970069D01*
X133954000Y-52304991D01*
X133973083Y-52319319D01*
X133976340Y-52319329D01*
X134035958Y-52357881D01*
X134065268Y-52422545D01*
X134066500Y-52440124D01*
X134066500Y-52897474D01*
X134046498Y-52965595D01*
X134034137Y-52981784D01*
X133960957Y-53063059D01*
X133865476Y-53228438D01*
X133865473Y-53228445D01*
X133806457Y-53410072D01*
X133786496Y-53600000D01*
X133806457Y-53789927D01*
X133836526Y-53882470D01*
X133865473Y-53971556D01*
X133865476Y-53971561D01*
X133960958Y-54136941D01*
X133960965Y-54136951D01*
X134088744Y-54278864D01*
X134088747Y-54278866D01*
X134243248Y-54391118D01*
X134417712Y-54468794D01*
X134604513Y-54508500D01*
X134795491Y-54508500D01*
X134914302Y-54483245D01*
X134985093Y-54488646D01*
X135041726Y-54531462D01*
X135066220Y-54598100D01*
X135066500Y-54606491D01*
X135066500Y-55185404D01*
X135046498Y-55253525D01*
X135029595Y-55274499D01*
X132511336Y-57792757D01*
X132498901Y-57802721D01*
X132499089Y-57802948D01*
X132492980Y-57808001D01*
X132445016Y-57859078D01*
X132423866Y-57880227D01*
X132423863Y-57880231D01*
X132419559Y-57885777D01*
X132415714Y-57890279D01*
X132393567Y-57913866D01*
X132332356Y-57949835D01*
X132261416Y-57947001D01*
X132212617Y-57916713D01*
X130574111Y-56278207D01*
X129826680Y-55530775D01*
X129792655Y-55468465D01*
X129789777Y-55441664D01*
X129790776Y-51279000D01*
X132892001Y-51279000D01*
X132892001Y-51716458D01*
X132894934Y-51753750D01*
X132941318Y-51913400D01*
X133025948Y-52056501D01*
X133025949Y-52056503D01*
X133143497Y-52174051D01*
X133286600Y-52258681D01*
X133446000Y-52304991D01*
X133446000Y-51279000D01*
X132892001Y-51279000D01*
X129790776Y-51279000D01*
X129791075Y-50034467D01*
X129811093Y-49966353D01*
X129864760Y-49919873D01*
X129917074Y-49908499D01*
X130000544Y-49908499D01*
X130104426Y-49897887D01*
X130272738Y-49842115D01*
X130423652Y-49749030D01*
X130549030Y-49623652D01*
X130642115Y-49472738D01*
X130697887Y-49304426D01*
X130708500Y-49200545D01*
X130708499Y-47799456D01*
X130697887Y-47695574D01*
X130642115Y-47527262D01*
X130549030Y-47376348D01*
X130549029Y-47376347D01*
X130549024Y-47376341D01*
X130423656Y-47250973D01*
X130422854Y-47250339D01*
X130422446Y-47249763D01*
X130418463Y-47245780D01*
X130419143Y-47245099D01*
X130381823Y-47192400D01*
X130378630Y-47121475D01*
X130414288Y-47060083D01*
X130477477Y-47027715D01*
X130501000Y-47025500D01*
X131499000Y-47025500D01*
X131567121Y-47045502D01*
G37*
%TD.AperFunction*%
%TD*%
M02*
