%TF.GenerationSoftware,KiCad,Pcbnew,7.0.9*%
%TF.CreationDate,2024-10-15T17:06:46-06:00*%
%TF.ProjectId,TPS61165-heater-v8,54505336-3131-4363-952d-686561746572,rev?*%
%TF.SameCoordinates,Original*%
%TF.FileFunction,Soldermask,Top*%
%TF.FilePolarity,Negative*%
%FSLAX46Y46*%
G04 Gerber Fmt 4.6, Leading zero omitted, Abs format (unit mm)*
G04 Created by KiCad (PCBNEW 7.0.9) date 2024-10-15 17:06:46*
%MOMM*%
%LPD*%
G01*
G04 APERTURE LIST*
G04 APERTURE END LIST*
G36*
X119525953Y-90791827D02*
G01*
X119869735Y-90867499D01*
X120203319Y-90979897D01*
X120522796Y-91127702D01*
X120824419Y-91309183D01*
X121104653Y-91522211D01*
X121360211Y-91764289D01*
X121588099Y-92032579D01*
X121785643Y-92323934D01*
X121950528Y-92634941D01*
X122080820Y-92961951D01*
X122174993Y-93301131D01*
X122231942Y-93648505D01*
X122251000Y-94000000D01*
X122231942Y-94351495D01*
X122174993Y-94698869D01*
X122080820Y-95038049D01*
X121950528Y-95365059D01*
X121785643Y-95676066D01*
X121588099Y-95967421D01*
X121360211Y-96235711D01*
X121104653Y-96477789D01*
X120824419Y-96690817D01*
X120522796Y-96872298D01*
X120203319Y-97020103D01*
X119869735Y-97132501D01*
X119525953Y-97208173D01*
X119176006Y-97246232D01*
X118823994Y-97246232D01*
X118474047Y-97208173D01*
X118130265Y-97132501D01*
X117796681Y-97020103D01*
X117477204Y-96872298D01*
X117175581Y-96690817D01*
X116895347Y-96477789D01*
X116639789Y-96235711D01*
X116411901Y-95967421D01*
X116214357Y-95676066D01*
X116049472Y-95365059D01*
X115919180Y-95038049D01*
X115825007Y-94698869D01*
X115768058Y-94351495D01*
X115749000Y-94000000D01*
X115768058Y-93648505D01*
X115825007Y-93301131D01*
X115919180Y-92961951D01*
X116049472Y-92634941D01*
X116214357Y-92323934D01*
X116411901Y-92032579D01*
X116639789Y-91764289D01*
X116895347Y-91522211D01*
X117175581Y-91309183D01*
X117477204Y-91127702D01*
X117796681Y-90979897D01*
X118130265Y-90867499D01*
X118474047Y-90791827D01*
X118823994Y-90753768D01*
X119176006Y-90753768D01*
X119525953Y-90791827D01*
G37*
G36*
X156525953Y-90791827D02*
G01*
X156869735Y-90867499D01*
X157203319Y-90979897D01*
X157522796Y-91127702D01*
X157824419Y-91309183D01*
X158104653Y-91522211D01*
X158360211Y-91764289D01*
X158588099Y-92032579D01*
X158785643Y-92323934D01*
X158950528Y-92634941D01*
X159080820Y-92961951D01*
X159174993Y-93301131D01*
X159231942Y-93648505D01*
X159251000Y-94000000D01*
X159231942Y-94351495D01*
X159174993Y-94698869D01*
X159080820Y-95038049D01*
X158950528Y-95365059D01*
X158785643Y-95676066D01*
X158588099Y-95967421D01*
X158360211Y-96235711D01*
X158104653Y-96477789D01*
X157824419Y-96690817D01*
X157522796Y-96872298D01*
X157203319Y-97020103D01*
X156869735Y-97132501D01*
X156525953Y-97208173D01*
X156176006Y-97246232D01*
X155823994Y-97246232D01*
X155474047Y-97208173D01*
X155130265Y-97132501D01*
X154796681Y-97020103D01*
X154477204Y-96872298D01*
X154175581Y-96690817D01*
X153895347Y-96477789D01*
X153639789Y-96235711D01*
X153411901Y-95967421D01*
X153214357Y-95676066D01*
X153049472Y-95365059D01*
X152919180Y-95038049D01*
X152825007Y-94698869D01*
X152768058Y-94351495D01*
X152749000Y-94000000D01*
X152768058Y-93648505D01*
X152825007Y-93301131D01*
X152919180Y-92961951D01*
X153049472Y-92634941D01*
X153214357Y-92323934D01*
X153411901Y-92032579D01*
X153639789Y-91764289D01*
X153895347Y-91522211D01*
X154175581Y-91309183D01*
X154477204Y-91127702D01*
X154796681Y-90979897D01*
X155130265Y-90867499D01*
X155474047Y-90791827D01*
X155823994Y-90753768D01*
X156176006Y-90753768D01*
X156525953Y-90791827D01*
G37*
G36*
X133761040Y-93752190D02*
G01*
X133793987Y-93756528D01*
X133802274Y-93760392D01*
X133821919Y-93764300D01*
X133847938Y-93781686D01*
X133859180Y-93786928D01*
X133866019Y-93793767D01*
X133887128Y-93807872D01*
X133901232Y-93828980D01*
X133908071Y-93835819D01*
X133913312Y-93847058D01*
X133930700Y-93873081D01*
X133934607Y-93892727D01*
X133938471Y-93901012D01*
X133942806Y-93933946D01*
X133946000Y-93950000D01*
X133946000Y-95600000D01*
X133942806Y-95616054D01*
X133938471Y-95648987D01*
X133934608Y-95657270D01*
X133930700Y-95676919D01*
X133913310Y-95702943D01*
X133908071Y-95714180D01*
X133901234Y-95721016D01*
X133887128Y-95742128D01*
X133866016Y-95756234D01*
X133859180Y-95763071D01*
X133847943Y-95768310D01*
X133821919Y-95785700D01*
X133802270Y-95789608D01*
X133793987Y-95793471D01*
X133761054Y-95797806D01*
X133745000Y-95801000D01*
X133445000Y-95801000D01*
X133428946Y-95797806D01*
X133396012Y-95793471D01*
X133387727Y-95789607D01*
X133368081Y-95785700D01*
X133342058Y-95768312D01*
X133330819Y-95763071D01*
X133323980Y-95756232D01*
X133302872Y-95742128D01*
X133288767Y-95721019D01*
X133281928Y-95714180D01*
X133276686Y-95702938D01*
X133259300Y-95676919D01*
X133255392Y-95657274D01*
X133251528Y-95648987D01*
X133247190Y-95616040D01*
X133244000Y-95600000D01*
X133244000Y-93950000D01*
X133247190Y-93933961D01*
X133251528Y-93901012D01*
X133255392Y-93892723D01*
X133259300Y-93873081D01*
X133276684Y-93847063D01*
X133281928Y-93835819D01*
X133288769Y-93828977D01*
X133302872Y-93807872D01*
X133323977Y-93793769D01*
X133330819Y-93786928D01*
X133342063Y-93781684D01*
X133368081Y-93764300D01*
X133387723Y-93760392D01*
X133396012Y-93756528D01*
X133428961Y-93752190D01*
X133445000Y-93749000D01*
X133745000Y-93749000D01*
X133761040Y-93752190D01*
G37*
G36*
X135031040Y-93752190D02*
G01*
X135063987Y-93756528D01*
X135072274Y-93760392D01*
X135091919Y-93764300D01*
X135117938Y-93781686D01*
X135129180Y-93786928D01*
X135136019Y-93793767D01*
X135157128Y-93807872D01*
X135171232Y-93828980D01*
X135178071Y-93835819D01*
X135183312Y-93847058D01*
X135200700Y-93873081D01*
X135204607Y-93892727D01*
X135208471Y-93901012D01*
X135212806Y-93933946D01*
X135216000Y-93950000D01*
X135216000Y-95600000D01*
X135212806Y-95616054D01*
X135208471Y-95648987D01*
X135204608Y-95657270D01*
X135200700Y-95676919D01*
X135183310Y-95702943D01*
X135178071Y-95714180D01*
X135171234Y-95721016D01*
X135157128Y-95742128D01*
X135136016Y-95756234D01*
X135129180Y-95763071D01*
X135117943Y-95768310D01*
X135091919Y-95785700D01*
X135072270Y-95789608D01*
X135063987Y-95793471D01*
X135031054Y-95797806D01*
X135015000Y-95801000D01*
X134715000Y-95801000D01*
X134698946Y-95797806D01*
X134666012Y-95793471D01*
X134657727Y-95789607D01*
X134638081Y-95785700D01*
X134612058Y-95768312D01*
X134600819Y-95763071D01*
X134593980Y-95756232D01*
X134572872Y-95742128D01*
X134558767Y-95721019D01*
X134551928Y-95714180D01*
X134546686Y-95702938D01*
X134529300Y-95676919D01*
X134525392Y-95657274D01*
X134521528Y-95648987D01*
X134517190Y-95616040D01*
X134514000Y-95600000D01*
X134514000Y-93950000D01*
X134517190Y-93933961D01*
X134521528Y-93901012D01*
X134525392Y-93892723D01*
X134529300Y-93873081D01*
X134546684Y-93847063D01*
X134551928Y-93835819D01*
X134558769Y-93828977D01*
X134572872Y-93807872D01*
X134593977Y-93793769D01*
X134600819Y-93786928D01*
X134612063Y-93781684D01*
X134638081Y-93764300D01*
X134657723Y-93760392D01*
X134666012Y-93756528D01*
X134698961Y-93752190D01*
X134715000Y-93749000D01*
X135015000Y-93749000D01*
X135031040Y-93752190D01*
G37*
G36*
X136301040Y-93752190D02*
G01*
X136333987Y-93756528D01*
X136342274Y-93760392D01*
X136361919Y-93764300D01*
X136387938Y-93781686D01*
X136399180Y-93786928D01*
X136406019Y-93793767D01*
X136427128Y-93807872D01*
X136441232Y-93828980D01*
X136448071Y-93835819D01*
X136453312Y-93847058D01*
X136470700Y-93873081D01*
X136474607Y-93892727D01*
X136478471Y-93901012D01*
X136482806Y-93933946D01*
X136486000Y-93950000D01*
X136486000Y-95600000D01*
X136482806Y-95616054D01*
X136478471Y-95648987D01*
X136474608Y-95657270D01*
X136470700Y-95676919D01*
X136453310Y-95702943D01*
X136448071Y-95714180D01*
X136441234Y-95721016D01*
X136427128Y-95742128D01*
X136406016Y-95756234D01*
X136399180Y-95763071D01*
X136387943Y-95768310D01*
X136361919Y-95785700D01*
X136342270Y-95789608D01*
X136333987Y-95793471D01*
X136301054Y-95797806D01*
X136285000Y-95801000D01*
X135985000Y-95801000D01*
X135968946Y-95797806D01*
X135936012Y-95793471D01*
X135927727Y-95789607D01*
X135908081Y-95785700D01*
X135882058Y-95768312D01*
X135870819Y-95763071D01*
X135863980Y-95756232D01*
X135842872Y-95742128D01*
X135828767Y-95721019D01*
X135821928Y-95714180D01*
X135816686Y-95702938D01*
X135799300Y-95676919D01*
X135795392Y-95657274D01*
X135791528Y-95648987D01*
X135787190Y-95616040D01*
X135784000Y-95600000D01*
X135784000Y-93950000D01*
X135787190Y-93933961D01*
X135791528Y-93901012D01*
X135795392Y-93892723D01*
X135799300Y-93873081D01*
X135816684Y-93847063D01*
X135821928Y-93835819D01*
X135828769Y-93828977D01*
X135842872Y-93807872D01*
X135863977Y-93793769D01*
X135870819Y-93786928D01*
X135882063Y-93781684D01*
X135908081Y-93764300D01*
X135927723Y-93760392D01*
X135936012Y-93756528D01*
X135968961Y-93752190D01*
X135985000Y-93749000D01*
X136285000Y-93749000D01*
X136301040Y-93752190D01*
G37*
G36*
X137571040Y-93752190D02*
G01*
X137603987Y-93756528D01*
X137612274Y-93760392D01*
X137631919Y-93764300D01*
X137657938Y-93781686D01*
X137669180Y-93786928D01*
X137676019Y-93793767D01*
X137697128Y-93807872D01*
X137711232Y-93828980D01*
X137718071Y-93835819D01*
X137723312Y-93847058D01*
X137740700Y-93873081D01*
X137744607Y-93892727D01*
X137748471Y-93901012D01*
X137752806Y-93933946D01*
X137756000Y-93950000D01*
X137756000Y-95600000D01*
X137752806Y-95616054D01*
X137748471Y-95648987D01*
X137744608Y-95657270D01*
X137740700Y-95676919D01*
X137723310Y-95702943D01*
X137718071Y-95714180D01*
X137711234Y-95721016D01*
X137697128Y-95742128D01*
X137676016Y-95756234D01*
X137669180Y-95763071D01*
X137657943Y-95768310D01*
X137631919Y-95785700D01*
X137612270Y-95789608D01*
X137603987Y-95793471D01*
X137571054Y-95797806D01*
X137555000Y-95801000D01*
X137255000Y-95801000D01*
X137238946Y-95797806D01*
X137206012Y-95793471D01*
X137197727Y-95789607D01*
X137178081Y-95785700D01*
X137152058Y-95768312D01*
X137140819Y-95763071D01*
X137133980Y-95756232D01*
X137112872Y-95742128D01*
X137098767Y-95721019D01*
X137091928Y-95714180D01*
X137086686Y-95702938D01*
X137069300Y-95676919D01*
X137065392Y-95657274D01*
X137061528Y-95648987D01*
X137057190Y-95616040D01*
X137054000Y-95600000D01*
X137054000Y-93950000D01*
X137057190Y-93933961D01*
X137061528Y-93901012D01*
X137065392Y-93892723D01*
X137069300Y-93873081D01*
X137086684Y-93847063D01*
X137091928Y-93835819D01*
X137098769Y-93828977D01*
X137112872Y-93807872D01*
X137133977Y-93793769D01*
X137140819Y-93786928D01*
X137152063Y-93781684D01*
X137178081Y-93764300D01*
X137197723Y-93760392D01*
X137206012Y-93756528D01*
X137238961Y-93752190D01*
X137255000Y-93749000D01*
X137555000Y-93749000D01*
X137571040Y-93752190D01*
G37*
G36*
X133761040Y-88802190D02*
G01*
X133793987Y-88806528D01*
X133802274Y-88810392D01*
X133821919Y-88814300D01*
X133847938Y-88831686D01*
X133859180Y-88836928D01*
X133866019Y-88843767D01*
X133887128Y-88857872D01*
X133901232Y-88878980D01*
X133908071Y-88885819D01*
X133913312Y-88897058D01*
X133930700Y-88923081D01*
X133934607Y-88942727D01*
X133938471Y-88951012D01*
X133942806Y-88983946D01*
X133946000Y-89000000D01*
X133946000Y-90650000D01*
X133942806Y-90666054D01*
X133938471Y-90698987D01*
X133934608Y-90707270D01*
X133930700Y-90726919D01*
X133913310Y-90752943D01*
X133908071Y-90764180D01*
X133901234Y-90771016D01*
X133887128Y-90792128D01*
X133866016Y-90806234D01*
X133859180Y-90813071D01*
X133847943Y-90818310D01*
X133821919Y-90835700D01*
X133802270Y-90839608D01*
X133793987Y-90843471D01*
X133761054Y-90847806D01*
X133745000Y-90851000D01*
X133445000Y-90851000D01*
X133428946Y-90847806D01*
X133396012Y-90843471D01*
X133387727Y-90839607D01*
X133368081Y-90835700D01*
X133342058Y-90818312D01*
X133330819Y-90813071D01*
X133323980Y-90806232D01*
X133302872Y-90792128D01*
X133288767Y-90771019D01*
X133281928Y-90764180D01*
X133276686Y-90752938D01*
X133259300Y-90726919D01*
X133255392Y-90707274D01*
X133251528Y-90698987D01*
X133247190Y-90666040D01*
X133244000Y-90650000D01*
X133244000Y-89000000D01*
X133247190Y-88983961D01*
X133251528Y-88951012D01*
X133255392Y-88942723D01*
X133259300Y-88923081D01*
X133276684Y-88897063D01*
X133281928Y-88885819D01*
X133288769Y-88878977D01*
X133302872Y-88857872D01*
X133323977Y-88843769D01*
X133330819Y-88836928D01*
X133342063Y-88831684D01*
X133368081Y-88814300D01*
X133387723Y-88810392D01*
X133396012Y-88806528D01*
X133428961Y-88802190D01*
X133445000Y-88799000D01*
X133745000Y-88799000D01*
X133761040Y-88802190D01*
G37*
G36*
X135031040Y-88802190D02*
G01*
X135063987Y-88806528D01*
X135072274Y-88810392D01*
X135091919Y-88814300D01*
X135117938Y-88831686D01*
X135129180Y-88836928D01*
X135136019Y-88843767D01*
X135157128Y-88857872D01*
X135171232Y-88878980D01*
X135178071Y-88885819D01*
X135183312Y-88897058D01*
X135200700Y-88923081D01*
X135204607Y-88942727D01*
X135208471Y-88951012D01*
X135212806Y-88983946D01*
X135216000Y-89000000D01*
X135216000Y-90650000D01*
X135212806Y-90666054D01*
X135208471Y-90698987D01*
X135204608Y-90707270D01*
X135200700Y-90726919D01*
X135183310Y-90752943D01*
X135178071Y-90764180D01*
X135171234Y-90771016D01*
X135157128Y-90792128D01*
X135136016Y-90806234D01*
X135129180Y-90813071D01*
X135117943Y-90818310D01*
X135091919Y-90835700D01*
X135072270Y-90839608D01*
X135063987Y-90843471D01*
X135031054Y-90847806D01*
X135015000Y-90851000D01*
X134715000Y-90851000D01*
X134698946Y-90847806D01*
X134666012Y-90843471D01*
X134657727Y-90839607D01*
X134638081Y-90835700D01*
X134612058Y-90818312D01*
X134600819Y-90813071D01*
X134593980Y-90806232D01*
X134572872Y-90792128D01*
X134558767Y-90771019D01*
X134551928Y-90764180D01*
X134546686Y-90752938D01*
X134529300Y-90726919D01*
X134525392Y-90707274D01*
X134521528Y-90698987D01*
X134517190Y-90666040D01*
X134514000Y-90650000D01*
X134514000Y-89000000D01*
X134517190Y-88983961D01*
X134521528Y-88951012D01*
X134525392Y-88942723D01*
X134529300Y-88923081D01*
X134546684Y-88897063D01*
X134551928Y-88885819D01*
X134558769Y-88878977D01*
X134572872Y-88857872D01*
X134593977Y-88843769D01*
X134600819Y-88836928D01*
X134612063Y-88831684D01*
X134638081Y-88814300D01*
X134657723Y-88810392D01*
X134666012Y-88806528D01*
X134698961Y-88802190D01*
X134715000Y-88799000D01*
X135015000Y-88799000D01*
X135031040Y-88802190D01*
G37*
G36*
X136301040Y-88802190D02*
G01*
X136333987Y-88806528D01*
X136342274Y-88810392D01*
X136361919Y-88814300D01*
X136387938Y-88831686D01*
X136399180Y-88836928D01*
X136406019Y-88843767D01*
X136427128Y-88857872D01*
X136441232Y-88878980D01*
X136448071Y-88885819D01*
X136453312Y-88897058D01*
X136470700Y-88923081D01*
X136474607Y-88942727D01*
X136478471Y-88951012D01*
X136482806Y-88983946D01*
X136486000Y-89000000D01*
X136486000Y-90650000D01*
X136482806Y-90666054D01*
X136478471Y-90698987D01*
X136474608Y-90707270D01*
X136470700Y-90726919D01*
X136453310Y-90752943D01*
X136448071Y-90764180D01*
X136441234Y-90771016D01*
X136427128Y-90792128D01*
X136406016Y-90806234D01*
X136399180Y-90813071D01*
X136387943Y-90818310D01*
X136361919Y-90835700D01*
X136342270Y-90839608D01*
X136333987Y-90843471D01*
X136301054Y-90847806D01*
X136285000Y-90851000D01*
X135985000Y-90851000D01*
X135968946Y-90847806D01*
X135936012Y-90843471D01*
X135927727Y-90839607D01*
X135908081Y-90835700D01*
X135882058Y-90818312D01*
X135870819Y-90813071D01*
X135863980Y-90806232D01*
X135842872Y-90792128D01*
X135828767Y-90771019D01*
X135821928Y-90764180D01*
X135816686Y-90752938D01*
X135799300Y-90726919D01*
X135795392Y-90707274D01*
X135791528Y-90698987D01*
X135787190Y-90666040D01*
X135784000Y-90650000D01*
X135784000Y-89000000D01*
X135787190Y-88983961D01*
X135791528Y-88951012D01*
X135795392Y-88942723D01*
X135799300Y-88923081D01*
X135816684Y-88897063D01*
X135821928Y-88885819D01*
X135828769Y-88878977D01*
X135842872Y-88857872D01*
X135863977Y-88843769D01*
X135870819Y-88836928D01*
X135882063Y-88831684D01*
X135908081Y-88814300D01*
X135927723Y-88810392D01*
X135936012Y-88806528D01*
X135968961Y-88802190D01*
X135985000Y-88799000D01*
X136285000Y-88799000D01*
X136301040Y-88802190D01*
G37*
G36*
X137571040Y-88802190D02*
G01*
X137603987Y-88806528D01*
X137612274Y-88810392D01*
X137631919Y-88814300D01*
X137657938Y-88831686D01*
X137669180Y-88836928D01*
X137676019Y-88843767D01*
X137697128Y-88857872D01*
X137711232Y-88878980D01*
X137718071Y-88885819D01*
X137723312Y-88897058D01*
X137740700Y-88923081D01*
X137744607Y-88942727D01*
X137748471Y-88951012D01*
X137752806Y-88983946D01*
X137756000Y-89000000D01*
X137756000Y-90650000D01*
X137752806Y-90666054D01*
X137748471Y-90698987D01*
X137744608Y-90707270D01*
X137740700Y-90726919D01*
X137723310Y-90752943D01*
X137718071Y-90764180D01*
X137711234Y-90771016D01*
X137697128Y-90792128D01*
X137676016Y-90806234D01*
X137669180Y-90813071D01*
X137657943Y-90818310D01*
X137631919Y-90835700D01*
X137612270Y-90839608D01*
X137603987Y-90843471D01*
X137571054Y-90847806D01*
X137555000Y-90851000D01*
X137255000Y-90851000D01*
X137238946Y-90847806D01*
X137206012Y-90843471D01*
X137197727Y-90839607D01*
X137178081Y-90835700D01*
X137152058Y-90818312D01*
X137140819Y-90813071D01*
X137133980Y-90806232D01*
X137112872Y-90792128D01*
X137098767Y-90771019D01*
X137091928Y-90764180D01*
X137086686Y-90752938D01*
X137069300Y-90726919D01*
X137065392Y-90707274D01*
X137061528Y-90698987D01*
X137057190Y-90666040D01*
X137054000Y-90650000D01*
X137054000Y-89000000D01*
X137057190Y-88983961D01*
X137061528Y-88951012D01*
X137065392Y-88942723D01*
X137069300Y-88923081D01*
X137086684Y-88897063D01*
X137091928Y-88885819D01*
X137098769Y-88878977D01*
X137112872Y-88857872D01*
X137133977Y-88843769D01*
X137140819Y-88836928D01*
X137152063Y-88831684D01*
X137178081Y-88814300D01*
X137197723Y-88810392D01*
X137206012Y-88806528D01*
X137238961Y-88802190D01*
X137255000Y-88799000D01*
X137555000Y-88799000D01*
X137571040Y-88802190D01*
G37*
G36*
X145503552Y-89781663D02*
G01*
X145518934Y-89788455D01*
X145526170Y-89789601D01*
X145556302Y-89804954D01*
X145600542Y-89824488D01*
X145675512Y-89899458D01*
X145695048Y-89943704D01*
X145710398Y-89973829D01*
X145711543Y-89981062D01*
X145718337Y-89996448D01*
X145726000Y-90062500D01*
X145726000Y-90537500D01*
X145718337Y-90603552D01*
X145711543Y-90618938D01*
X145710398Y-90626170D01*
X145695052Y-90656287D01*
X145675512Y-90700542D01*
X145600542Y-90775512D01*
X145556287Y-90795052D01*
X145526170Y-90810398D01*
X145518938Y-90811543D01*
X145503552Y-90818337D01*
X145437500Y-90826000D01*
X144937500Y-90826000D01*
X144871448Y-90818337D01*
X144856062Y-90811543D01*
X144848829Y-90810398D01*
X144818704Y-90795048D01*
X144774458Y-90775512D01*
X144699488Y-90700542D01*
X144679954Y-90656302D01*
X144664601Y-90626170D01*
X144663455Y-90618934D01*
X144656663Y-90603552D01*
X144649000Y-90537500D01*
X144649000Y-90062500D01*
X144656663Y-89996448D01*
X144663454Y-89981065D01*
X144664601Y-89973829D01*
X144679957Y-89943690D01*
X144699488Y-89899458D01*
X144774458Y-89824488D01*
X144818690Y-89804957D01*
X144848829Y-89789601D01*
X144856065Y-89788454D01*
X144871448Y-89781663D01*
X144937500Y-89774000D01*
X145437500Y-89774000D01*
X145503552Y-89781663D01*
G37*
G36*
X147328552Y-89781663D02*
G01*
X147343934Y-89788455D01*
X147351170Y-89789601D01*
X147381302Y-89804954D01*
X147425542Y-89824488D01*
X147500512Y-89899458D01*
X147520048Y-89943704D01*
X147535398Y-89973829D01*
X147536543Y-89981062D01*
X147543337Y-89996448D01*
X147551000Y-90062500D01*
X147551000Y-90537500D01*
X147543337Y-90603552D01*
X147536543Y-90618938D01*
X147535398Y-90626170D01*
X147520052Y-90656287D01*
X147500512Y-90700542D01*
X147425542Y-90775512D01*
X147381287Y-90795052D01*
X147351170Y-90810398D01*
X147343938Y-90811543D01*
X147328552Y-90818337D01*
X147262500Y-90826000D01*
X146762500Y-90826000D01*
X146696448Y-90818337D01*
X146681062Y-90811543D01*
X146673829Y-90810398D01*
X146643704Y-90795048D01*
X146599458Y-90775512D01*
X146524488Y-90700542D01*
X146504954Y-90656302D01*
X146489601Y-90626170D01*
X146488455Y-90618934D01*
X146481663Y-90603552D01*
X146474000Y-90537500D01*
X146474000Y-90062500D01*
X146481663Y-89996448D01*
X146488454Y-89981065D01*
X146489601Y-89973829D01*
X146504957Y-89943690D01*
X146524488Y-89899458D01*
X146599458Y-89824488D01*
X146643690Y-89804957D01*
X146673829Y-89789601D01*
X146681065Y-89788454D01*
X146696448Y-89781663D01*
X146762500Y-89774000D01*
X147262500Y-89774000D01*
X147328552Y-89781663D01*
G37*
G36*
X132303552Y-89181663D02*
G01*
X132318934Y-89188455D01*
X132326170Y-89189601D01*
X132356302Y-89204954D01*
X132400542Y-89224488D01*
X132475512Y-89299458D01*
X132495048Y-89343704D01*
X132510398Y-89373829D01*
X132511543Y-89381062D01*
X132518337Y-89396448D01*
X132526000Y-89462500D01*
X132526000Y-90062500D01*
X132518337Y-90128552D01*
X132511543Y-90143938D01*
X132510398Y-90151170D01*
X132495052Y-90181287D01*
X132475512Y-90225542D01*
X132400542Y-90300512D01*
X132356287Y-90320052D01*
X132326170Y-90335398D01*
X132318938Y-90336543D01*
X132303552Y-90343337D01*
X132237500Y-90351000D01*
X131762500Y-90351000D01*
X131696448Y-90343337D01*
X131681062Y-90336543D01*
X131673829Y-90335398D01*
X131643704Y-90320048D01*
X131599458Y-90300512D01*
X131524488Y-90225542D01*
X131504954Y-90181302D01*
X131489601Y-90151170D01*
X131488455Y-90143934D01*
X131481663Y-90128552D01*
X131474000Y-90062500D01*
X131474000Y-89462500D01*
X131481663Y-89396448D01*
X131488454Y-89381065D01*
X131489601Y-89373829D01*
X131504957Y-89343690D01*
X131524488Y-89299458D01*
X131599458Y-89224488D01*
X131643690Y-89204957D01*
X131673829Y-89189601D01*
X131681065Y-89188454D01*
X131696448Y-89181663D01*
X131762500Y-89174000D01*
X132237500Y-89174000D01*
X132303552Y-89181663D01*
G37*
G36*
X118766891Y-87519380D02*
G01*
X118830097Y-87523062D01*
X118874144Y-87533501D01*
X118919550Y-87539479D01*
X118946539Y-87550658D01*
X118969264Y-87556044D01*
X119015018Y-87579023D01*
X119064500Y-87599519D01*
X119080928Y-87612125D01*
X119093789Y-87618584D01*
X119141297Y-87658447D01*
X119188971Y-87695029D01*
X119196341Y-87704635D01*
X119200531Y-87708150D01*
X119249110Y-87773404D01*
X119284481Y-87819500D01*
X119306715Y-87873180D01*
X119338935Y-87947873D01*
X119339884Y-87953255D01*
X119344521Y-87964450D01*
X119352367Y-88024049D01*
X119363134Y-88085106D01*
X119362297Y-88099470D01*
X119365000Y-88120000D01*
X119358007Y-88173111D01*
X119355031Y-88224211D01*
X119348335Y-88246575D01*
X119344521Y-88275550D01*
X119326993Y-88317865D01*
X119315065Y-88357710D01*
X119298871Y-88385757D01*
X119284481Y-88420500D01*
X119261588Y-88450333D01*
X119245394Y-88478384D01*
X119216849Y-88508638D01*
X119188971Y-88544971D01*
X119165788Y-88562759D01*
X119149769Y-88579739D01*
X119107006Y-88607864D01*
X119064500Y-88640481D01*
X119045366Y-88648406D01*
X119033345Y-88656313D01*
X118975084Y-88677518D01*
X118919550Y-88700521D01*
X118907539Y-88702102D01*
X118902405Y-88703971D01*
X118821632Y-88713412D01*
X118764000Y-88721000D01*
X118756719Y-88721000D01*
X118067645Y-88721000D01*
X118064000Y-88721000D01*
X118061106Y-88720619D01*
X117997902Y-88716937D01*
X117953862Y-88706499D01*
X117908450Y-88700521D01*
X117881456Y-88689339D01*
X117858735Y-88683955D01*
X117812987Y-88660979D01*
X117763500Y-88640481D01*
X117747069Y-88627873D01*
X117734210Y-88621415D01*
X117686705Y-88581554D01*
X117639029Y-88544971D01*
X117631657Y-88535364D01*
X117627468Y-88531849D01*
X117578881Y-88466584D01*
X117543519Y-88420500D01*
X117521297Y-88366853D01*
X117489064Y-88292126D01*
X117488114Y-88286740D01*
X117483479Y-88275550D01*
X117475634Y-88215968D01*
X117464865Y-88154893D01*
X117465702Y-88140523D01*
X117463000Y-88120000D01*
X117469990Y-88066903D01*
X117472968Y-88015788D01*
X117479665Y-87993416D01*
X117483479Y-87964450D01*
X117501002Y-87922145D01*
X117512934Y-87882289D01*
X117529132Y-87854232D01*
X117543519Y-87819500D01*
X117566404Y-87789674D01*
X117582605Y-87761615D01*
X117611158Y-87731350D01*
X117639029Y-87695029D01*
X117662204Y-87677245D01*
X117678230Y-87660260D01*
X117721008Y-87632123D01*
X117763500Y-87599519D01*
X117782626Y-87591596D01*
X117794654Y-87583686D01*
X117852942Y-87562470D01*
X117908450Y-87539479D01*
X117920454Y-87537898D01*
X117925594Y-87536028D01*
X118006400Y-87526583D01*
X118064000Y-87519000D01*
X118764000Y-87519000D01*
X118766891Y-87519380D01*
G37*
G36*
X122566891Y-87519380D02*
G01*
X122630097Y-87523062D01*
X122674144Y-87533501D01*
X122719550Y-87539479D01*
X122746539Y-87550658D01*
X122769264Y-87556044D01*
X122815018Y-87579023D01*
X122864500Y-87599519D01*
X122880928Y-87612125D01*
X122893789Y-87618584D01*
X122941297Y-87658447D01*
X122988971Y-87695029D01*
X122996341Y-87704635D01*
X123000531Y-87708150D01*
X123049110Y-87773404D01*
X123084481Y-87819500D01*
X123106715Y-87873180D01*
X123138935Y-87947873D01*
X123139884Y-87953255D01*
X123144521Y-87964450D01*
X123152367Y-88024049D01*
X123163134Y-88085106D01*
X123162297Y-88099470D01*
X123165000Y-88120000D01*
X123158007Y-88173111D01*
X123155031Y-88224211D01*
X123148335Y-88246575D01*
X123144521Y-88275550D01*
X123126993Y-88317865D01*
X123115065Y-88357710D01*
X123098871Y-88385757D01*
X123084481Y-88420500D01*
X123061588Y-88450333D01*
X123045394Y-88478384D01*
X123016849Y-88508638D01*
X122988971Y-88544971D01*
X122965788Y-88562759D01*
X122949769Y-88579739D01*
X122907006Y-88607864D01*
X122864500Y-88640481D01*
X122845366Y-88648406D01*
X122833345Y-88656313D01*
X122775084Y-88677518D01*
X122719550Y-88700521D01*
X122707539Y-88702102D01*
X122702405Y-88703971D01*
X122621632Y-88713412D01*
X122564000Y-88721000D01*
X122556719Y-88721000D01*
X121867645Y-88721000D01*
X121864000Y-88721000D01*
X121861106Y-88720619D01*
X121797902Y-88716937D01*
X121753862Y-88706499D01*
X121708450Y-88700521D01*
X121681456Y-88689339D01*
X121658735Y-88683955D01*
X121612987Y-88660979D01*
X121563500Y-88640481D01*
X121547069Y-88627873D01*
X121534210Y-88621415D01*
X121486705Y-88581554D01*
X121439029Y-88544971D01*
X121431657Y-88535364D01*
X121427468Y-88531849D01*
X121378881Y-88466584D01*
X121343519Y-88420500D01*
X121321297Y-88366853D01*
X121289064Y-88292126D01*
X121288114Y-88286740D01*
X121283479Y-88275550D01*
X121275634Y-88215968D01*
X121264865Y-88154893D01*
X121265702Y-88140523D01*
X121263000Y-88120000D01*
X121269990Y-88066903D01*
X121272968Y-88015788D01*
X121279665Y-87993416D01*
X121283479Y-87964450D01*
X121301002Y-87922145D01*
X121312934Y-87882289D01*
X121329132Y-87854232D01*
X121343519Y-87819500D01*
X121366404Y-87789674D01*
X121382605Y-87761615D01*
X121411158Y-87731350D01*
X121439029Y-87695029D01*
X121462204Y-87677245D01*
X121478230Y-87660260D01*
X121521008Y-87632123D01*
X121563500Y-87599519D01*
X121582626Y-87591596D01*
X121594654Y-87583686D01*
X121652942Y-87562470D01*
X121708450Y-87539479D01*
X121720454Y-87537898D01*
X121725594Y-87536028D01*
X121806400Y-87526583D01*
X121864000Y-87519000D01*
X122564000Y-87519000D01*
X122566891Y-87519380D01*
G37*
G36*
X132303552Y-87456663D02*
G01*
X132318934Y-87463455D01*
X132326170Y-87464601D01*
X132356302Y-87479954D01*
X132400542Y-87499488D01*
X132475512Y-87574458D01*
X132495048Y-87618704D01*
X132510398Y-87648829D01*
X132511543Y-87656062D01*
X132518337Y-87671448D01*
X132526000Y-87737500D01*
X132526000Y-88337500D01*
X132518337Y-88403552D01*
X132511543Y-88418938D01*
X132510398Y-88426170D01*
X132495052Y-88456287D01*
X132475512Y-88500542D01*
X132400542Y-88575512D01*
X132356287Y-88595052D01*
X132326170Y-88610398D01*
X132318938Y-88611543D01*
X132303552Y-88618337D01*
X132237500Y-88626000D01*
X131762500Y-88626000D01*
X131696448Y-88618337D01*
X131681062Y-88611543D01*
X131673829Y-88610398D01*
X131643704Y-88595048D01*
X131599458Y-88575512D01*
X131524488Y-88500542D01*
X131504954Y-88456302D01*
X131489601Y-88426170D01*
X131488455Y-88418934D01*
X131481663Y-88403552D01*
X131474000Y-88337500D01*
X131474000Y-87737500D01*
X131481663Y-87671448D01*
X131488454Y-87656065D01*
X131489601Y-87648829D01*
X131504957Y-87618690D01*
X131524488Y-87574458D01*
X131599458Y-87499488D01*
X131643690Y-87479957D01*
X131673829Y-87464601D01*
X131681065Y-87463454D01*
X131696448Y-87456663D01*
X131762500Y-87449000D01*
X132237500Y-87449000D01*
X132303552Y-87456663D01*
G37*
G36*
X145769517Y-86902882D02*
G01*
X145786062Y-86913938D01*
X145797118Y-86930483D01*
X145798342Y-86936638D01*
X145833188Y-86988786D01*
X145966812Y-86988786D01*
X146001657Y-86936636D01*
X146002882Y-86930483D01*
X146013938Y-86913938D01*
X146030483Y-86902882D01*
X146050000Y-86899000D01*
X146550000Y-86899000D01*
X146569517Y-86902882D01*
X146571323Y-86904089D01*
X146612215Y-86904089D01*
X146621157Y-86904089D01*
X146635525Y-86906155D01*
X146644097Y-86908672D01*
X146644104Y-86908673D01*
X146763502Y-86943732D01*
X146763504Y-86943733D01*
X146772076Y-86946250D01*
X146785281Y-86952280D01*
X146792798Y-86957111D01*
X146861090Y-87001000D01*
X146905003Y-87029221D01*
X146915973Y-87038727D01*
X147009170Y-87146282D01*
X147017018Y-87158494D01*
X147020729Y-87166621D01*
X147020732Y-87166625D01*
X147072423Y-87279815D01*
X147076137Y-87287948D01*
X147080227Y-87301876D01*
X147100481Y-87442742D01*
X147101000Y-87450000D01*
X147101000Y-87950000D01*
X147100481Y-87957258D01*
X147080227Y-88098124D01*
X147076137Y-88112052D01*
X147072423Y-88120184D01*
X147024917Y-88224211D01*
X147017018Y-88241506D01*
X147009170Y-88253718D01*
X146915973Y-88361273D01*
X146905003Y-88370779D01*
X146785281Y-88447720D01*
X146772076Y-88453750D01*
X146635525Y-88493845D01*
X146621157Y-88495911D01*
X146571323Y-88495911D01*
X146569517Y-88497118D01*
X146550000Y-88501000D01*
X146537690Y-88501000D01*
X146062310Y-88501000D01*
X146050000Y-88501000D01*
X146030483Y-88497118D01*
X146013938Y-88486062D01*
X146002882Y-88469517D01*
X146001657Y-88463360D01*
X145966813Y-88411213D01*
X145833187Y-88411213D01*
X145798342Y-88463359D01*
X145797118Y-88469517D01*
X145786062Y-88486062D01*
X145769517Y-88497118D01*
X145750000Y-88501000D01*
X145737690Y-88501000D01*
X145262310Y-88501000D01*
X145250000Y-88501000D01*
X145230483Y-88497118D01*
X145228677Y-88495911D01*
X145187785Y-88495911D01*
X145178843Y-88495911D01*
X145164475Y-88493845D01*
X145155897Y-88491326D01*
X145155895Y-88491326D01*
X145090458Y-88472111D01*
X145027924Y-88453750D01*
X145014719Y-88447720D01*
X144894997Y-88370779D01*
X144884027Y-88361273D01*
X144854903Y-88327662D01*
X144796681Y-88260471D01*
X144796679Y-88260468D01*
X144790830Y-88253718D01*
X144782982Y-88241506D01*
X144779271Y-88233380D01*
X144779267Y-88233374D01*
X144727576Y-88120184D01*
X144727574Y-88120179D01*
X144723863Y-88112052D01*
X144719773Y-88098124D01*
X144699519Y-87957258D01*
X144699000Y-87950000D01*
X144699000Y-87450000D01*
X144699519Y-87442742D01*
X144719773Y-87301876D01*
X144723863Y-87287948D01*
X144727573Y-87279822D01*
X144727576Y-87279815D01*
X144779267Y-87166625D01*
X144779273Y-87166615D01*
X144782982Y-87158494D01*
X144790830Y-87146282D01*
X144796677Y-87139534D01*
X144796681Y-87139528D01*
X144878173Y-87045482D01*
X144878176Y-87045479D01*
X144884027Y-87038727D01*
X144894997Y-87029221D01*
X144902512Y-87024391D01*
X144902516Y-87024388D01*
X145007201Y-86957111D01*
X145007203Y-86957109D01*
X145014719Y-86952280D01*
X145027924Y-86946250D01*
X145036492Y-86943734D01*
X145036497Y-86943732D01*
X145155895Y-86908673D01*
X145155903Y-86908671D01*
X145164475Y-86906155D01*
X145178843Y-86904089D01*
X145228677Y-86904089D01*
X145230483Y-86902882D01*
X145250000Y-86899000D01*
X145750000Y-86899000D01*
X145769517Y-86902882D01*
G37*
G36*
X149803552Y-86781663D02*
G01*
X149818934Y-86788455D01*
X149826170Y-86789601D01*
X149856302Y-86804954D01*
X149900542Y-86824488D01*
X149975512Y-86899458D01*
X149995048Y-86943704D01*
X150010398Y-86973829D01*
X150011543Y-86981062D01*
X150018337Y-86996448D01*
X150026000Y-87062500D01*
X150026000Y-87562500D01*
X150018337Y-87628552D01*
X150011543Y-87643938D01*
X150010398Y-87651170D01*
X149995052Y-87681287D01*
X149975512Y-87725542D01*
X149900542Y-87800512D01*
X149856287Y-87820052D01*
X149826170Y-87835398D01*
X149818938Y-87836543D01*
X149803552Y-87843337D01*
X149737500Y-87851000D01*
X149262500Y-87851000D01*
X149196448Y-87843337D01*
X149181062Y-87836543D01*
X149173829Y-87835398D01*
X149143704Y-87820048D01*
X149099458Y-87800512D01*
X149024488Y-87725542D01*
X149004954Y-87681302D01*
X148989601Y-87651170D01*
X148988455Y-87643934D01*
X148981663Y-87628552D01*
X148974000Y-87562500D01*
X148974000Y-87062500D01*
X148981663Y-86996448D01*
X148988454Y-86981065D01*
X148989601Y-86973829D01*
X149004957Y-86943690D01*
X149024488Y-86899458D01*
X149099458Y-86824488D01*
X149143690Y-86804957D01*
X149173829Y-86789601D01*
X149181065Y-86788454D01*
X149196448Y-86781663D01*
X149262500Y-86774000D01*
X149737500Y-86774000D01*
X149803552Y-86781663D01*
G37*
G36*
X123133517Y-86102882D02*
G01*
X123150062Y-86113938D01*
X123161118Y-86130483D01*
X123165000Y-86150000D01*
X123165000Y-86950000D01*
X123161118Y-86969517D01*
X123150062Y-86986062D01*
X123133517Y-86997118D01*
X123114000Y-87001000D01*
X121614000Y-87001000D01*
X121594483Y-86997118D01*
X121577938Y-86986062D01*
X121566882Y-86969517D01*
X121563000Y-86950000D01*
X121563000Y-86150000D01*
X121566882Y-86130483D01*
X121577938Y-86113938D01*
X121594483Y-86102882D01*
X121614000Y-86099000D01*
X123114000Y-86099000D01*
X123133517Y-86102882D01*
G37*
G36*
X151919517Y-85452882D02*
G01*
X151936062Y-85463938D01*
X151947118Y-85480483D01*
X151951000Y-85500000D01*
X151951000Y-86700000D01*
X151947118Y-86719517D01*
X151936062Y-86736062D01*
X151919517Y-86747118D01*
X151900000Y-86751000D01*
X151000000Y-86751000D01*
X150980483Y-86747118D01*
X150963938Y-86736062D01*
X150952882Y-86719517D01*
X150949000Y-86700000D01*
X150949000Y-85500000D01*
X150952882Y-85480483D01*
X150963938Y-85463938D01*
X150980483Y-85452882D01*
X151000000Y-85449000D01*
X151900000Y-85449000D01*
X151919517Y-85452882D01*
G37*
G36*
X155219517Y-85452882D02*
G01*
X155236062Y-85463938D01*
X155247118Y-85480483D01*
X155251000Y-85500000D01*
X155251000Y-86700000D01*
X155247118Y-86719517D01*
X155236062Y-86736062D01*
X155219517Y-86747118D01*
X155200000Y-86751000D01*
X154300000Y-86751000D01*
X154280483Y-86747118D01*
X154263938Y-86736062D01*
X154252882Y-86719517D01*
X154249000Y-86700000D01*
X154249000Y-85500000D01*
X154252882Y-85480483D01*
X154263938Y-85463938D01*
X154280483Y-85452882D01*
X154300000Y-85449000D01*
X155200000Y-85449000D01*
X155219517Y-85452882D01*
G37*
G36*
X146069517Y-83952882D02*
G01*
X146086062Y-83963938D01*
X146097118Y-83980483D01*
X146101000Y-84000000D01*
X146101000Y-86000000D01*
X146097118Y-86019517D01*
X146086062Y-86036062D01*
X146069517Y-86047118D01*
X146050000Y-86051000D01*
X140750000Y-86051000D01*
X140730483Y-86047118D01*
X140713938Y-86036062D01*
X140702882Y-86019517D01*
X140699000Y-86000000D01*
X140699000Y-84000000D01*
X140702882Y-83980483D01*
X140713938Y-83963938D01*
X140730483Y-83952882D01*
X140750000Y-83949000D01*
X146050000Y-83949000D01*
X146069517Y-83952882D01*
G37*
G36*
X149803552Y-84956663D02*
G01*
X149818934Y-84963455D01*
X149826170Y-84964601D01*
X149856302Y-84979954D01*
X149900542Y-84999488D01*
X149975512Y-85074458D01*
X149995048Y-85118704D01*
X150010398Y-85148829D01*
X150011543Y-85156062D01*
X150018337Y-85171448D01*
X150026000Y-85237500D01*
X150026000Y-85737500D01*
X150018337Y-85803552D01*
X150011543Y-85818938D01*
X150010398Y-85826170D01*
X149995052Y-85856287D01*
X149975512Y-85900542D01*
X149900542Y-85975512D01*
X149856287Y-85995052D01*
X149826170Y-86010398D01*
X149818938Y-86011543D01*
X149803552Y-86018337D01*
X149737500Y-86026000D01*
X149262500Y-86026000D01*
X149196448Y-86018337D01*
X149181062Y-86011543D01*
X149173829Y-86010398D01*
X149143704Y-85995048D01*
X149099458Y-85975512D01*
X149024488Y-85900542D01*
X149004954Y-85856302D01*
X148989601Y-85826170D01*
X148988455Y-85818934D01*
X148981663Y-85803552D01*
X148974000Y-85737500D01*
X148974000Y-85237500D01*
X148981663Y-85171448D01*
X148988454Y-85156065D01*
X148989601Y-85148829D01*
X149004957Y-85118690D01*
X149024488Y-85074458D01*
X149099458Y-84999488D01*
X149143690Y-84979957D01*
X149173829Y-84964601D01*
X149181065Y-84963454D01*
X149196448Y-84956663D01*
X149262500Y-84949000D01*
X149737500Y-84949000D01*
X149803552Y-84956663D01*
G37*
G36*
X123133517Y-81852882D02*
G01*
X123150062Y-81863938D01*
X123161118Y-81880483D01*
X123165000Y-81900000D01*
X123165000Y-82660000D01*
X123161118Y-82679517D01*
X123150062Y-82696062D01*
X123133517Y-82707118D01*
X123127359Y-82708342D01*
X123082696Y-82738187D01*
X123082696Y-82871813D01*
X123127360Y-82901657D01*
X123133517Y-82902882D01*
X123150062Y-82913938D01*
X123161118Y-82930483D01*
X123165000Y-82950000D01*
X123165000Y-83650000D01*
X123161118Y-83669517D01*
X123150062Y-83686062D01*
X123133517Y-83697118D01*
X123127359Y-83698342D01*
X123075213Y-83733187D01*
X123075213Y-83866813D01*
X123127360Y-83901657D01*
X123133517Y-83902882D01*
X123150062Y-83913938D01*
X123161118Y-83930483D01*
X123165000Y-83950000D01*
X123165000Y-84650000D01*
X123161118Y-84669517D01*
X123150062Y-84686062D01*
X123133517Y-84697118D01*
X123127359Y-84698342D01*
X123082696Y-84728187D01*
X123082696Y-84861813D01*
X123127360Y-84891657D01*
X123133517Y-84892882D01*
X123150062Y-84903938D01*
X123161118Y-84920483D01*
X123165000Y-84940000D01*
X123165000Y-85700000D01*
X123161118Y-85719517D01*
X123150062Y-85736062D01*
X123133517Y-85747118D01*
X123114000Y-85751000D01*
X121614000Y-85751000D01*
X121594483Y-85747118D01*
X121577938Y-85736062D01*
X121566882Y-85719517D01*
X121563000Y-85700000D01*
X121563000Y-84940000D01*
X121566882Y-84920483D01*
X121577938Y-84903938D01*
X121594483Y-84892882D01*
X121600635Y-84891658D01*
X121645303Y-84861812D01*
X121645303Y-84728188D01*
X121600637Y-84698342D01*
X121594483Y-84697118D01*
X121577938Y-84686062D01*
X121566882Y-84669517D01*
X121563000Y-84650000D01*
X121563000Y-83950000D01*
X121566882Y-83930483D01*
X121577938Y-83913938D01*
X121594483Y-83902882D01*
X121600636Y-83901657D01*
X121652786Y-83866812D01*
X121652786Y-83733188D01*
X121600638Y-83698342D01*
X121594483Y-83697118D01*
X121577938Y-83686062D01*
X121566882Y-83669517D01*
X121563000Y-83650000D01*
X121563000Y-82950000D01*
X121566882Y-82930483D01*
X121577938Y-82913938D01*
X121594483Y-82902882D01*
X121600635Y-82901658D01*
X121645303Y-82871812D01*
X121645303Y-82738188D01*
X121600637Y-82708342D01*
X121594483Y-82707118D01*
X121577938Y-82696062D01*
X121566882Y-82679517D01*
X121563000Y-82660000D01*
X121563000Y-81900000D01*
X121566882Y-81880483D01*
X121577938Y-81863938D01*
X121594483Y-81852882D01*
X121614000Y-81849000D01*
X123114000Y-81849000D01*
X123133517Y-81852882D01*
G37*
G36*
X128195017Y-84022882D02*
G01*
X128211562Y-84033938D01*
X128222618Y-84050483D01*
X128226500Y-84070000D01*
X128226500Y-85470000D01*
X128222618Y-85489517D01*
X128211562Y-85506062D01*
X128195017Y-85517118D01*
X128175500Y-85521000D01*
X125350500Y-85521000D01*
X125330983Y-85517118D01*
X125314438Y-85506062D01*
X125303382Y-85489517D01*
X125299500Y-85470000D01*
X125299500Y-84070000D01*
X125303382Y-84050483D01*
X125314438Y-84033938D01*
X125330983Y-84022882D01*
X125350500Y-84019000D01*
X128175500Y-84019000D01*
X128195017Y-84022882D01*
G37*
G36*
X136669017Y-84022882D02*
G01*
X136685562Y-84033938D01*
X136696618Y-84050483D01*
X136700500Y-84070000D01*
X136700500Y-85470000D01*
X136696618Y-85489517D01*
X136685562Y-85506062D01*
X136669017Y-85517118D01*
X136649500Y-85521000D01*
X133824500Y-85521000D01*
X133804983Y-85517118D01*
X133788438Y-85506062D01*
X133777382Y-85489517D01*
X133773500Y-85470000D01*
X133773500Y-84070000D01*
X133777382Y-84050483D01*
X133788438Y-84033938D01*
X133804983Y-84022882D01*
X133824500Y-84019000D01*
X136649500Y-84019000D01*
X136669017Y-84022882D01*
G37*
G36*
X139143914Y-84106995D02*
G01*
X139159726Y-84113976D01*
X139167531Y-84115213D01*
X139200039Y-84131776D01*
X139245106Y-84151676D01*
X139323324Y-84229894D01*
X139343226Y-84274967D01*
X139359786Y-84307468D01*
X139361021Y-84315270D01*
X139368005Y-84331086D01*
X139376000Y-84400000D01*
X139376000Y-85075000D01*
X139368005Y-85143914D01*
X139361021Y-85159729D01*
X139359786Y-85167531D01*
X139343229Y-85200024D01*
X139323324Y-85245106D01*
X139245106Y-85323324D01*
X139200024Y-85343229D01*
X139167531Y-85359786D01*
X139159729Y-85361021D01*
X139143914Y-85368005D01*
X139075000Y-85376000D01*
X138125000Y-85376000D01*
X138056086Y-85368005D01*
X138040270Y-85361021D01*
X138032468Y-85359786D01*
X137999967Y-85343226D01*
X137954894Y-85323324D01*
X137876676Y-85245106D01*
X137856776Y-85200039D01*
X137840213Y-85167531D01*
X137838976Y-85159726D01*
X137831995Y-85143914D01*
X137824000Y-85075000D01*
X137824000Y-84400000D01*
X137831995Y-84331086D01*
X137838976Y-84315274D01*
X137840213Y-84307468D01*
X137856780Y-84274953D01*
X137876676Y-84229894D01*
X137954894Y-84151676D01*
X137999953Y-84131780D01*
X138032468Y-84115213D01*
X138040274Y-84113976D01*
X138056086Y-84106995D01*
X138125000Y-84099000D01*
X139075000Y-84099000D01*
X139143914Y-84106995D01*
G37*
G36*
X150903552Y-83281663D02*
G01*
X150918934Y-83288455D01*
X150926170Y-83289601D01*
X150956302Y-83304954D01*
X151000542Y-83324488D01*
X151075512Y-83399458D01*
X151095048Y-83443704D01*
X151110398Y-83473829D01*
X151111543Y-83481062D01*
X151118337Y-83496448D01*
X151126000Y-83562500D01*
X151126000Y-84162500D01*
X151118337Y-84228552D01*
X151111543Y-84243938D01*
X151110398Y-84251170D01*
X151095052Y-84281287D01*
X151075512Y-84325542D01*
X151000542Y-84400512D01*
X150956287Y-84420052D01*
X150926170Y-84435398D01*
X150918938Y-84436543D01*
X150903552Y-84443337D01*
X150837500Y-84451000D01*
X150362500Y-84451000D01*
X150296448Y-84443337D01*
X150281062Y-84436543D01*
X150273829Y-84435398D01*
X150243704Y-84420048D01*
X150199458Y-84400512D01*
X150124488Y-84325542D01*
X150104954Y-84281302D01*
X150089601Y-84251170D01*
X150088455Y-84243934D01*
X150081663Y-84228552D01*
X150074000Y-84162500D01*
X150074000Y-83562500D01*
X150081663Y-83496448D01*
X150088454Y-83481065D01*
X150089601Y-83473829D01*
X150104957Y-83443690D01*
X150124488Y-83399458D01*
X150199458Y-83324488D01*
X150243690Y-83304957D01*
X150273829Y-83289601D01*
X150281065Y-83288454D01*
X150296448Y-83281663D01*
X150362500Y-83274000D01*
X150837500Y-83274000D01*
X150903552Y-83281663D01*
G37*
G36*
X147191643Y-82540018D02*
G01*
X147238604Y-82571396D01*
X147258949Y-82601845D01*
X147357178Y-82621385D01*
X147390453Y-82599152D01*
X147393938Y-82593938D01*
X147410483Y-82582882D01*
X147430000Y-82579000D01*
X148430000Y-82579000D01*
X148449517Y-82582882D01*
X148466062Y-82593938D01*
X148469547Y-82599154D01*
X148502816Y-82621383D01*
X148601047Y-82601849D01*
X148621396Y-82571396D01*
X148668357Y-82540018D01*
X148723750Y-82529000D01*
X148911250Y-82529000D01*
X148966643Y-82540018D01*
X149013604Y-82571396D01*
X149044982Y-82618357D01*
X149056000Y-82673750D01*
X149056000Y-82886250D01*
X149044982Y-82941643D01*
X149013604Y-82988604D01*
X148966643Y-83019982D01*
X148960486Y-83021206D01*
X148935074Y-83038187D01*
X148935074Y-83171813D01*
X148960486Y-83188793D01*
X148966643Y-83190018D01*
X149013604Y-83221396D01*
X149044982Y-83268357D01*
X149056000Y-83323750D01*
X149056000Y-83536250D01*
X149044982Y-83591643D01*
X149013604Y-83638604D01*
X148966643Y-83669982D01*
X148960486Y-83671206D01*
X148935074Y-83688187D01*
X148935074Y-83821813D01*
X148960486Y-83838793D01*
X148966643Y-83840018D01*
X149013604Y-83871396D01*
X149044982Y-83918357D01*
X149056000Y-83973750D01*
X149056000Y-84186250D01*
X149044982Y-84241643D01*
X149013604Y-84288604D01*
X148966643Y-84319982D01*
X148911250Y-84331000D01*
X148723750Y-84331000D01*
X148668357Y-84319982D01*
X148621396Y-84288604D01*
X148601048Y-84258150D01*
X148502816Y-84238615D01*
X148469549Y-84260843D01*
X148466062Y-84266062D01*
X148449517Y-84277118D01*
X148430000Y-84281000D01*
X147430000Y-84281000D01*
X147410483Y-84277118D01*
X147393938Y-84266062D01*
X147390451Y-84260845D01*
X147357178Y-84238612D01*
X147258949Y-84258154D01*
X147238604Y-84288604D01*
X147191643Y-84319982D01*
X147136250Y-84331000D01*
X146948750Y-84331000D01*
X146893357Y-84319982D01*
X146846396Y-84288604D01*
X146815018Y-84241643D01*
X146804000Y-84186250D01*
X146804000Y-83973750D01*
X146815018Y-83918357D01*
X146846396Y-83871396D01*
X146893357Y-83840018D01*
X146899510Y-83838794D01*
X146924925Y-83821812D01*
X146924925Y-83688188D01*
X146899510Y-83671206D01*
X146893357Y-83669982D01*
X146846396Y-83638604D01*
X146815018Y-83591643D01*
X146804000Y-83536250D01*
X146804000Y-83323750D01*
X146815018Y-83268357D01*
X146846396Y-83221396D01*
X146893357Y-83190018D01*
X146899510Y-83188794D01*
X146924925Y-83171812D01*
X146924925Y-83038188D01*
X146899510Y-83021206D01*
X146893357Y-83019982D01*
X146846396Y-82988604D01*
X146815018Y-82941643D01*
X146804000Y-82886250D01*
X146804000Y-82673750D01*
X146815018Y-82618357D01*
X146846396Y-82571396D01*
X146893357Y-82540018D01*
X146948750Y-82529000D01*
X147136250Y-82529000D01*
X147191643Y-82540018D01*
G37*
G36*
X159224517Y-80017882D02*
G01*
X159241062Y-80028938D01*
X159252118Y-80045483D01*
X159256000Y-80065000D01*
X159256000Y-81245000D01*
X159252118Y-81264517D01*
X159241062Y-81281062D01*
X159224517Y-81292118D01*
X159205000Y-81296000D01*
X159192679Y-81296000D01*
X159085022Y-81317412D01*
X159085018Y-81522582D01*
X159192695Y-81544000D01*
X159205000Y-81544000D01*
X159224517Y-81547882D01*
X159241062Y-81558938D01*
X159252118Y-81575483D01*
X159256000Y-81595000D01*
X159256000Y-83495000D01*
X159252118Y-83514517D01*
X159241062Y-83531062D01*
X159224517Y-83542118D01*
X159205000Y-83546000D01*
X158195000Y-83546000D01*
X158175483Y-83542118D01*
X158158938Y-83531062D01*
X158147882Y-83514517D01*
X158144000Y-83495000D01*
X158144000Y-81595000D01*
X158147882Y-81575483D01*
X158158938Y-81558938D01*
X158175483Y-81547882D01*
X158195000Y-81544000D01*
X158207311Y-81544000D01*
X158314979Y-81522585D01*
X158314979Y-81317415D01*
X158207315Y-81296000D01*
X158195000Y-81296000D01*
X158175483Y-81292118D01*
X158158938Y-81281062D01*
X158147882Y-81264517D01*
X158144000Y-81245000D01*
X158144000Y-80065000D01*
X158147882Y-80045483D01*
X158158938Y-80028938D01*
X158175483Y-80017882D01*
X158195000Y-80014000D01*
X159205000Y-80014000D01*
X159224517Y-80017882D01*
G37*
G36*
X139143914Y-82031995D02*
G01*
X139159726Y-82038976D01*
X139167531Y-82040213D01*
X139200039Y-82056776D01*
X139245106Y-82076676D01*
X139323324Y-82154894D01*
X139343226Y-82199967D01*
X139359786Y-82232468D01*
X139361021Y-82240270D01*
X139368005Y-82256086D01*
X139376000Y-82325000D01*
X139376000Y-83000000D01*
X139368005Y-83068914D01*
X139361021Y-83084729D01*
X139359786Y-83092531D01*
X139343229Y-83125024D01*
X139323324Y-83170106D01*
X139245106Y-83248324D01*
X139200024Y-83268229D01*
X139167531Y-83284786D01*
X139159729Y-83286021D01*
X139143914Y-83293005D01*
X139075000Y-83301000D01*
X138125000Y-83301000D01*
X138056086Y-83293005D01*
X138040270Y-83286021D01*
X138032468Y-83284786D01*
X137999967Y-83268226D01*
X137954894Y-83248324D01*
X137876676Y-83170106D01*
X137856776Y-83125039D01*
X137840213Y-83092531D01*
X137838976Y-83084726D01*
X137831995Y-83068914D01*
X137824000Y-83000000D01*
X137824000Y-82325000D01*
X137831995Y-82256086D01*
X137838976Y-82240274D01*
X137840213Y-82232468D01*
X137856780Y-82199953D01*
X137876676Y-82154894D01*
X137954894Y-82076676D01*
X137999953Y-82056780D01*
X138032468Y-82040213D01*
X138040274Y-82038976D01*
X138056086Y-82031995D01*
X138125000Y-82024000D01*
X139075000Y-82024000D01*
X139143914Y-82031995D01*
G37*
G36*
X128195017Y-81482882D02*
G01*
X128211562Y-81493938D01*
X128222618Y-81510483D01*
X128226500Y-81530000D01*
X128226500Y-82930000D01*
X128222618Y-82949517D01*
X128211562Y-82966062D01*
X128195017Y-82977118D01*
X128175500Y-82981000D01*
X125350500Y-82981000D01*
X125330983Y-82977118D01*
X125314438Y-82966062D01*
X125303382Y-82949517D01*
X125299500Y-82930000D01*
X125299500Y-81530000D01*
X125303382Y-81510483D01*
X125314438Y-81493938D01*
X125330983Y-81482882D01*
X125350500Y-81479000D01*
X128175500Y-81479000D01*
X128195017Y-81482882D01*
G37*
G36*
X136669017Y-81482882D02*
G01*
X136685562Y-81493938D01*
X136696618Y-81510483D01*
X136700500Y-81530000D01*
X136700500Y-82930000D01*
X136696618Y-82949517D01*
X136685562Y-82966062D01*
X136669017Y-82977118D01*
X136649500Y-82981000D01*
X133824500Y-82981000D01*
X133804983Y-82977118D01*
X133788438Y-82966062D01*
X133777382Y-82949517D01*
X133773500Y-82930000D01*
X133773500Y-81530000D01*
X133777382Y-81510483D01*
X133788438Y-81493938D01*
X133804983Y-81482882D01*
X133824500Y-81479000D01*
X136649500Y-81479000D01*
X136669017Y-81482882D01*
G37*
G36*
X153243914Y-81481995D02*
G01*
X153259726Y-81488976D01*
X153267531Y-81490213D01*
X153300039Y-81506776D01*
X153345106Y-81526676D01*
X153423324Y-81604894D01*
X153443226Y-81649967D01*
X153459786Y-81682468D01*
X153461021Y-81690270D01*
X153468005Y-81706086D01*
X153476000Y-81775000D01*
X153476000Y-82450000D01*
X153468005Y-82518914D01*
X153461021Y-82534729D01*
X153459786Y-82542531D01*
X153443229Y-82575024D01*
X153423324Y-82620106D01*
X153345106Y-82698324D01*
X153300024Y-82718229D01*
X153267531Y-82734786D01*
X153259729Y-82736021D01*
X153243914Y-82743005D01*
X153175000Y-82751000D01*
X152225000Y-82751000D01*
X152156086Y-82743005D01*
X152140270Y-82736021D01*
X152132468Y-82734786D01*
X152099967Y-82718226D01*
X152054894Y-82698324D01*
X151976676Y-82620106D01*
X151956776Y-82575039D01*
X151940213Y-82542531D01*
X151938976Y-82534726D01*
X151931995Y-82518914D01*
X151924000Y-82450000D01*
X151924000Y-81775000D01*
X151931995Y-81706086D01*
X151938976Y-81690274D01*
X151940213Y-81682468D01*
X151956780Y-81649953D01*
X151976676Y-81604894D01*
X152054894Y-81526676D01*
X152099953Y-81506780D01*
X152132468Y-81490213D01*
X152140274Y-81488976D01*
X152156086Y-81481995D01*
X152225000Y-81474000D01*
X153175000Y-81474000D01*
X153243914Y-81481995D01*
G37*
G36*
X150903552Y-81556663D02*
G01*
X150918934Y-81563455D01*
X150926170Y-81564601D01*
X150956302Y-81579954D01*
X151000542Y-81599488D01*
X151075512Y-81674458D01*
X151095048Y-81718704D01*
X151110398Y-81748829D01*
X151111543Y-81756062D01*
X151118337Y-81771448D01*
X151126000Y-81837500D01*
X151126000Y-82437500D01*
X151118337Y-82503552D01*
X151111543Y-82518938D01*
X151110398Y-82526170D01*
X151095052Y-82556287D01*
X151075512Y-82600542D01*
X151000542Y-82675512D01*
X150956287Y-82695052D01*
X150926170Y-82710398D01*
X150918938Y-82711543D01*
X150903552Y-82718337D01*
X150837500Y-82726000D01*
X150362500Y-82726000D01*
X150296448Y-82718337D01*
X150281062Y-82711543D01*
X150273829Y-82710398D01*
X150243704Y-82695048D01*
X150199458Y-82675512D01*
X150124488Y-82600542D01*
X150104954Y-82556302D01*
X150089601Y-82526170D01*
X150088455Y-82518934D01*
X150081663Y-82503552D01*
X150074000Y-82437500D01*
X150074000Y-81837500D01*
X150081663Y-81771448D01*
X150088454Y-81756065D01*
X150089601Y-81748829D01*
X150104957Y-81718690D01*
X150124488Y-81674458D01*
X150199458Y-81599488D01*
X150243690Y-81579957D01*
X150273829Y-81564601D01*
X150281065Y-81563454D01*
X150296448Y-81556663D01*
X150362500Y-81549000D01*
X150837500Y-81549000D01*
X150903552Y-81556663D01*
G37*
G36*
X146069517Y-80552882D02*
G01*
X146086062Y-80563938D01*
X146097118Y-80580483D01*
X146101000Y-80600000D01*
X146101000Y-82600000D01*
X146097118Y-82619517D01*
X146086062Y-82636062D01*
X146069517Y-82647118D01*
X146050000Y-82651000D01*
X140750000Y-82651000D01*
X140730483Y-82647118D01*
X140713938Y-82636062D01*
X140702882Y-82619517D01*
X140699000Y-82600000D01*
X140699000Y-80600000D01*
X140702882Y-80580483D01*
X140713938Y-80563938D01*
X140730483Y-80552882D01*
X140750000Y-80549000D01*
X146050000Y-80549000D01*
X146069517Y-80552882D01*
G37*
G36*
X156457258Y-80199519D02*
G01*
X156598124Y-80219773D01*
X156612052Y-80223863D01*
X156620179Y-80227574D01*
X156620184Y-80227576D01*
X156733374Y-80279267D01*
X156733380Y-80279271D01*
X156741506Y-80282982D01*
X156753718Y-80290830D01*
X156760468Y-80296679D01*
X156760471Y-80296681D01*
X156837725Y-80363623D01*
X156861273Y-80384027D01*
X156870779Y-80394997D01*
X156947720Y-80514719D01*
X156953750Y-80527924D01*
X156961743Y-80555145D01*
X156989888Y-80651000D01*
X156993845Y-80664475D01*
X156995911Y-80678843D01*
X156995911Y-80728676D01*
X156997118Y-80730483D01*
X157001000Y-80750000D01*
X157001000Y-81250000D01*
X156997118Y-81269517D01*
X156986062Y-81286062D01*
X156969517Y-81297118D01*
X156963359Y-81298342D01*
X156911213Y-81333187D01*
X156911213Y-81466813D01*
X156963360Y-81501657D01*
X156969517Y-81502882D01*
X156986062Y-81513938D01*
X156997118Y-81530483D01*
X157001000Y-81550000D01*
X157001000Y-82050000D01*
X156997118Y-82069517D01*
X156995911Y-82071323D01*
X156995911Y-82121157D01*
X156993845Y-82135525D01*
X156953750Y-82272076D01*
X156947720Y-82285281D01*
X156870779Y-82405003D01*
X156861273Y-82415973D01*
X156753718Y-82509170D01*
X156741506Y-82517018D01*
X156733375Y-82520731D01*
X156733374Y-82520732D01*
X156686189Y-82542280D01*
X156612052Y-82576137D01*
X156598124Y-82580227D01*
X156457258Y-82600481D01*
X156450000Y-82601000D01*
X156445539Y-82601000D01*
X155954461Y-82601000D01*
X155950000Y-82601000D01*
X155942742Y-82600481D01*
X155801876Y-82580227D01*
X155787948Y-82576137D01*
X155779815Y-82572423D01*
X155666625Y-82520732D01*
X155666621Y-82520729D01*
X155658494Y-82517018D01*
X155646282Y-82509170D01*
X155538727Y-82415973D01*
X155529221Y-82405003D01*
X155452280Y-82285281D01*
X155446250Y-82272076D01*
X155443732Y-82263502D01*
X155408673Y-82144104D01*
X155408672Y-82144097D01*
X155406155Y-82135525D01*
X155404089Y-82121157D01*
X155404089Y-82071323D01*
X155402882Y-82069517D01*
X155399000Y-82050000D01*
X155399000Y-81550000D01*
X155402882Y-81530483D01*
X155413938Y-81513938D01*
X155430483Y-81502882D01*
X155436636Y-81501657D01*
X155488786Y-81466812D01*
X155488786Y-81333188D01*
X155436638Y-81298342D01*
X155430483Y-81297118D01*
X155413938Y-81286062D01*
X155402882Y-81269517D01*
X155399000Y-81250000D01*
X155399000Y-80750000D01*
X155402882Y-80730483D01*
X155404089Y-80728676D01*
X155404089Y-80678843D01*
X155406155Y-80664475D01*
X155408671Y-80655903D01*
X155408673Y-80655895D01*
X155443732Y-80536497D01*
X155443734Y-80536492D01*
X155446250Y-80527924D01*
X155452280Y-80514719D01*
X155457109Y-80507203D01*
X155457111Y-80507201D01*
X155524388Y-80402516D01*
X155524391Y-80402512D01*
X155529221Y-80394997D01*
X155538727Y-80384027D01*
X155545479Y-80378176D01*
X155545482Y-80378173D01*
X155639528Y-80296681D01*
X155639534Y-80296677D01*
X155646282Y-80290830D01*
X155658494Y-80282982D01*
X155666615Y-80279273D01*
X155666625Y-80279267D01*
X155779815Y-80227576D01*
X155779822Y-80227573D01*
X155787948Y-80223863D01*
X155801876Y-80219773D01*
X155942742Y-80199519D01*
X155950000Y-80199000D01*
X156450000Y-80199000D01*
X156457258Y-80199519D01*
G37*
G36*
X123133517Y-80602882D02*
G01*
X123150062Y-80613938D01*
X123161118Y-80630483D01*
X123165000Y-80650000D01*
X123165000Y-81450000D01*
X123161118Y-81469517D01*
X123150062Y-81486062D01*
X123133517Y-81497118D01*
X123114000Y-81501000D01*
X121614000Y-81501000D01*
X121594483Y-81497118D01*
X121577938Y-81486062D01*
X121566882Y-81469517D01*
X121563000Y-81450000D01*
X121563000Y-80650000D01*
X121566882Y-80630483D01*
X121577938Y-80613938D01*
X121594483Y-80602882D01*
X121614000Y-80599000D01*
X123114000Y-80599000D01*
X123133517Y-80602882D01*
G37*
G36*
X153243914Y-79406995D02*
G01*
X153259726Y-79413976D01*
X153267531Y-79415213D01*
X153300039Y-79431776D01*
X153345106Y-79451676D01*
X153423324Y-79529894D01*
X153443226Y-79574967D01*
X153459786Y-79607468D01*
X153461021Y-79615270D01*
X153468005Y-79631086D01*
X153476000Y-79700000D01*
X153476000Y-80375000D01*
X153468005Y-80443914D01*
X153461021Y-80459729D01*
X153459786Y-80467531D01*
X153443229Y-80500024D01*
X153423324Y-80545106D01*
X153345106Y-80623324D01*
X153300024Y-80643229D01*
X153267531Y-80659786D01*
X153259729Y-80661021D01*
X153243914Y-80668005D01*
X153175000Y-80676000D01*
X152225000Y-80676000D01*
X152156086Y-80668005D01*
X152140270Y-80661021D01*
X152132468Y-80659786D01*
X152099967Y-80643226D01*
X152054894Y-80623324D01*
X151976676Y-80545106D01*
X151956776Y-80500039D01*
X151940213Y-80467531D01*
X151938976Y-80459726D01*
X151931995Y-80443914D01*
X151924000Y-80375000D01*
X151924000Y-79700000D01*
X151931995Y-79631086D01*
X151938976Y-79615274D01*
X151940213Y-79607468D01*
X151956780Y-79574953D01*
X151976676Y-79529894D01*
X152054894Y-79451676D01*
X152099953Y-79431780D01*
X152132468Y-79415213D01*
X152140274Y-79413976D01*
X152156086Y-79406995D01*
X152225000Y-79399000D01*
X153175000Y-79399000D01*
X153243914Y-79406995D01*
G37*
G36*
X147719517Y-79352882D02*
G01*
X147736062Y-79363938D01*
X147747118Y-79380483D01*
X147751000Y-79400000D01*
X147751000Y-80600000D01*
X147747118Y-80619517D01*
X147736062Y-80636062D01*
X147719517Y-80647118D01*
X147700000Y-80651000D01*
X146800000Y-80651000D01*
X146780483Y-80647118D01*
X146763938Y-80636062D01*
X146752882Y-80619517D01*
X146749000Y-80600000D01*
X146749000Y-79400000D01*
X146752882Y-79380483D01*
X146763938Y-79363938D01*
X146780483Y-79352882D01*
X146800000Y-79349000D01*
X147700000Y-79349000D01*
X147719517Y-79352882D01*
G37*
G36*
X151019517Y-79352882D02*
G01*
X151036062Y-79363938D01*
X151047118Y-79380483D01*
X151051000Y-79400000D01*
X151051000Y-80600000D01*
X151047118Y-80619517D01*
X151036062Y-80636062D01*
X151019517Y-80647118D01*
X151000000Y-80651000D01*
X150100000Y-80651000D01*
X150080483Y-80647118D01*
X150063938Y-80636062D01*
X150052882Y-80619517D01*
X150049000Y-80600000D01*
X150049000Y-79400000D01*
X150052882Y-79380483D01*
X150063938Y-79363938D01*
X150080483Y-79352882D01*
X150100000Y-79349000D01*
X151000000Y-79349000D01*
X151019517Y-79352882D01*
G37*
G36*
X118766891Y-78879380D02*
G01*
X118830097Y-78883062D01*
X118874144Y-78893501D01*
X118919550Y-78899479D01*
X118946539Y-78910658D01*
X118969264Y-78916044D01*
X119015018Y-78939023D01*
X119064500Y-78959519D01*
X119080928Y-78972125D01*
X119093789Y-78978584D01*
X119141297Y-79018447D01*
X119188971Y-79055029D01*
X119196341Y-79064635D01*
X119200531Y-79068150D01*
X119249110Y-79133404D01*
X119284481Y-79179500D01*
X119306715Y-79233180D01*
X119338935Y-79307873D01*
X119339884Y-79313255D01*
X119344521Y-79324450D01*
X119352367Y-79384049D01*
X119363134Y-79445106D01*
X119362297Y-79459470D01*
X119365000Y-79480000D01*
X119358007Y-79533111D01*
X119355031Y-79584211D01*
X119348335Y-79606575D01*
X119344521Y-79635550D01*
X119326993Y-79677865D01*
X119315065Y-79717710D01*
X119298871Y-79745757D01*
X119284481Y-79780500D01*
X119261588Y-79810333D01*
X119245394Y-79838384D01*
X119216849Y-79868638D01*
X119188971Y-79904971D01*
X119165788Y-79922759D01*
X119149769Y-79939739D01*
X119107006Y-79967864D01*
X119064500Y-80000481D01*
X119045366Y-80008406D01*
X119033345Y-80016313D01*
X118975084Y-80037518D01*
X118919550Y-80060521D01*
X118907539Y-80062102D01*
X118902405Y-80063971D01*
X118821632Y-80073412D01*
X118764000Y-80081000D01*
X118756719Y-80081000D01*
X118067645Y-80081000D01*
X118064000Y-80081000D01*
X118061106Y-80080619D01*
X117997902Y-80076937D01*
X117953862Y-80066499D01*
X117908450Y-80060521D01*
X117881456Y-80049339D01*
X117858735Y-80043955D01*
X117812987Y-80020979D01*
X117763500Y-80000481D01*
X117747069Y-79987873D01*
X117734210Y-79981415D01*
X117686705Y-79941554D01*
X117639029Y-79904971D01*
X117631657Y-79895364D01*
X117627468Y-79891849D01*
X117578881Y-79826584D01*
X117543519Y-79780500D01*
X117521297Y-79726853D01*
X117489064Y-79652126D01*
X117488114Y-79646740D01*
X117483479Y-79635550D01*
X117475634Y-79575968D01*
X117464865Y-79514893D01*
X117465702Y-79500523D01*
X117463000Y-79480000D01*
X117469990Y-79426903D01*
X117472968Y-79375788D01*
X117479665Y-79353416D01*
X117483479Y-79324450D01*
X117501002Y-79282145D01*
X117512934Y-79242289D01*
X117529132Y-79214232D01*
X117543519Y-79179500D01*
X117566404Y-79149674D01*
X117582605Y-79121615D01*
X117611158Y-79091350D01*
X117639029Y-79055029D01*
X117662204Y-79037245D01*
X117678230Y-79020260D01*
X117721008Y-78992123D01*
X117763500Y-78959519D01*
X117782626Y-78951596D01*
X117794654Y-78943686D01*
X117852942Y-78922470D01*
X117908450Y-78899479D01*
X117920454Y-78897898D01*
X117925594Y-78896028D01*
X118006400Y-78886583D01*
X118064000Y-78879000D01*
X118764000Y-78879000D01*
X118766891Y-78879380D01*
G37*
G36*
X122566891Y-78879380D02*
G01*
X122630097Y-78883062D01*
X122674144Y-78893501D01*
X122719550Y-78899479D01*
X122746539Y-78910658D01*
X122769264Y-78916044D01*
X122815018Y-78939023D01*
X122864500Y-78959519D01*
X122880928Y-78972125D01*
X122893789Y-78978584D01*
X122941297Y-79018447D01*
X122988971Y-79055029D01*
X122996341Y-79064635D01*
X123000531Y-79068150D01*
X123049110Y-79133404D01*
X123084481Y-79179500D01*
X123106715Y-79233180D01*
X123138935Y-79307873D01*
X123139884Y-79313255D01*
X123144521Y-79324450D01*
X123152367Y-79384049D01*
X123163134Y-79445106D01*
X123162297Y-79459470D01*
X123165000Y-79480000D01*
X123158007Y-79533111D01*
X123155031Y-79584211D01*
X123148335Y-79606575D01*
X123144521Y-79635550D01*
X123126993Y-79677865D01*
X123115065Y-79717710D01*
X123098871Y-79745757D01*
X123084481Y-79780500D01*
X123061588Y-79810333D01*
X123045394Y-79838384D01*
X123016849Y-79868638D01*
X122988971Y-79904971D01*
X122965788Y-79922759D01*
X122949769Y-79939739D01*
X122907006Y-79967864D01*
X122864500Y-80000481D01*
X122845366Y-80008406D01*
X122833345Y-80016313D01*
X122775084Y-80037518D01*
X122719550Y-80060521D01*
X122707539Y-80062102D01*
X122702405Y-80063971D01*
X122621632Y-80073412D01*
X122564000Y-80081000D01*
X122556719Y-80081000D01*
X121867645Y-80081000D01*
X121864000Y-80081000D01*
X121861106Y-80080619D01*
X121797902Y-80076937D01*
X121753862Y-80066499D01*
X121708450Y-80060521D01*
X121681456Y-80049339D01*
X121658735Y-80043955D01*
X121612987Y-80020979D01*
X121563500Y-80000481D01*
X121547069Y-79987873D01*
X121534210Y-79981415D01*
X121486705Y-79941554D01*
X121439029Y-79904971D01*
X121431657Y-79895364D01*
X121427468Y-79891849D01*
X121378881Y-79826584D01*
X121343519Y-79780500D01*
X121321297Y-79726853D01*
X121289064Y-79652126D01*
X121288114Y-79646740D01*
X121283479Y-79635550D01*
X121275634Y-79575968D01*
X121264865Y-79514893D01*
X121265702Y-79500523D01*
X121263000Y-79480000D01*
X121269990Y-79426903D01*
X121272968Y-79375788D01*
X121279665Y-79353416D01*
X121283479Y-79324450D01*
X121301002Y-79282145D01*
X121312934Y-79242289D01*
X121329132Y-79214232D01*
X121343519Y-79179500D01*
X121366404Y-79149674D01*
X121382605Y-79121615D01*
X121411158Y-79091350D01*
X121439029Y-79055029D01*
X121462204Y-79037245D01*
X121478230Y-79020260D01*
X121521008Y-78992123D01*
X121563500Y-78959519D01*
X121582626Y-78951596D01*
X121594654Y-78943686D01*
X121652942Y-78922470D01*
X121708450Y-78899479D01*
X121720454Y-78897898D01*
X121725594Y-78896028D01*
X121806400Y-78886583D01*
X121864000Y-78879000D01*
X122564000Y-78879000D01*
X122566891Y-78879380D01*
G37*
G36*
X149603552Y-76981663D02*
G01*
X149618934Y-76988455D01*
X149626170Y-76989601D01*
X149656302Y-77004954D01*
X149700542Y-77024488D01*
X149775512Y-77099458D01*
X149795048Y-77143704D01*
X149810398Y-77173829D01*
X149811543Y-77181062D01*
X149818337Y-77196448D01*
X149826000Y-77262500D01*
X149826000Y-77737500D01*
X149818337Y-77803552D01*
X149811543Y-77818938D01*
X149810398Y-77826170D01*
X149795052Y-77856287D01*
X149775512Y-77900542D01*
X149700542Y-77975512D01*
X149656287Y-77995052D01*
X149626170Y-78010398D01*
X149618938Y-78011543D01*
X149603552Y-78018337D01*
X149537500Y-78026000D01*
X148937500Y-78026000D01*
X148871448Y-78018337D01*
X148856062Y-78011543D01*
X148848829Y-78010398D01*
X148818704Y-77995048D01*
X148774458Y-77975512D01*
X148699488Y-77900542D01*
X148679954Y-77856302D01*
X148664601Y-77826170D01*
X148663455Y-77818934D01*
X148656663Y-77803552D01*
X148649000Y-77737500D01*
X148649000Y-77262500D01*
X148656663Y-77196448D01*
X148663454Y-77181065D01*
X148664601Y-77173829D01*
X148679957Y-77143690D01*
X148699488Y-77099458D01*
X148774458Y-77024488D01*
X148818690Y-77004957D01*
X148848829Y-76989601D01*
X148856065Y-76988454D01*
X148871448Y-76981663D01*
X148937500Y-76974000D01*
X149537500Y-76974000D01*
X149603552Y-76981663D01*
G37*
G36*
X151328552Y-76981663D02*
G01*
X151343934Y-76988455D01*
X151351170Y-76989601D01*
X151381302Y-77004954D01*
X151425542Y-77024488D01*
X151500512Y-77099458D01*
X151520048Y-77143704D01*
X151535398Y-77173829D01*
X151536543Y-77181062D01*
X151543337Y-77196448D01*
X151551000Y-77262500D01*
X151551000Y-77737500D01*
X151543337Y-77803552D01*
X151536543Y-77818938D01*
X151535398Y-77826170D01*
X151520052Y-77856287D01*
X151500512Y-77900542D01*
X151425542Y-77975512D01*
X151381287Y-77995052D01*
X151351170Y-78010398D01*
X151343938Y-78011543D01*
X151328552Y-78018337D01*
X151262500Y-78026000D01*
X150662500Y-78026000D01*
X150596448Y-78018337D01*
X150581062Y-78011543D01*
X150573829Y-78010398D01*
X150543704Y-77995048D01*
X150499458Y-77975512D01*
X150424488Y-77900542D01*
X150404954Y-77856302D01*
X150389601Y-77826170D01*
X150388455Y-77818934D01*
X150381663Y-77803552D01*
X150374000Y-77737500D01*
X150374000Y-77262500D01*
X150381663Y-77196448D01*
X150388454Y-77181065D01*
X150389601Y-77173829D01*
X150404957Y-77143690D01*
X150424488Y-77099458D01*
X150499458Y-77024488D01*
X150543690Y-77004957D01*
X150573829Y-76989601D01*
X150581065Y-76988454D01*
X150596448Y-76981663D01*
X150662500Y-76974000D01*
X151262500Y-76974000D01*
X151328552Y-76981663D01*
G37*
G36*
X146466040Y-75357190D02*
G01*
X146498987Y-75361528D01*
X146507274Y-75365392D01*
X146526919Y-75369300D01*
X146552938Y-75386686D01*
X146564180Y-75391928D01*
X146571019Y-75398767D01*
X146592128Y-75412872D01*
X146606232Y-75433980D01*
X146613071Y-75440819D01*
X146618312Y-75452058D01*
X146635700Y-75478081D01*
X146639607Y-75497727D01*
X146643471Y-75506012D01*
X146647806Y-75538946D01*
X146651000Y-75555000D01*
X146651000Y-75855000D01*
X146647806Y-75871054D01*
X146643471Y-75903987D01*
X146639608Y-75912270D01*
X146635700Y-75931919D01*
X146618310Y-75957943D01*
X146613071Y-75969180D01*
X146606234Y-75976016D01*
X146592128Y-75997128D01*
X146571016Y-76011234D01*
X146564180Y-76018071D01*
X146552943Y-76023310D01*
X146526919Y-76040700D01*
X146507270Y-76044608D01*
X146498987Y-76048471D01*
X146466054Y-76052806D01*
X146450000Y-76056000D01*
X144800000Y-76056000D01*
X144783946Y-76052806D01*
X144751012Y-76048471D01*
X144742727Y-76044607D01*
X144723081Y-76040700D01*
X144697058Y-76023312D01*
X144685819Y-76018071D01*
X144678980Y-76011232D01*
X144657872Y-75997128D01*
X144643767Y-75976019D01*
X144636928Y-75969180D01*
X144631686Y-75957938D01*
X144614300Y-75931919D01*
X144610392Y-75912274D01*
X144606528Y-75903987D01*
X144602190Y-75871040D01*
X144599000Y-75855000D01*
X144599000Y-75555000D01*
X144602190Y-75538961D01*
X144606528Y-75506012D01*
X144610392Y-75497723D01*
X144614300Y-75478081D01*
X144631684Y-75452063D01*
X144636928Y-75440819D01*
X144643769Y-75433977D01*
X144657872Y-75412872D01*
X144678977Y-75398769D01*
X144685819Y-75391928D01*
X144697063Y-75386684D01*
X144723081Y-75369300D01*
X144742723Y-75365392D01*
X144751012Y-75361528D01*
X144783961Y-75357190D01*
X144800000Y-75354000D01*
X146450000Y-75354000D01*
X146466040Y-75357190D01*
G37*
G36*
X151416040Y-75357190D02*
G01*
X151448987Y-75361528D01*
X151457274Y-75365392D01*
X151476919Y-75369300D01*
X151502938Y-75386686D01*
X151514180Y-75391928D01*
X151521019Y-75398767D01*
X151542128Y-75412872D01*
X151556232Y-75433980D01*
X151563071Y-75440819D01*
X151568312Y-75452058D01*
X151585700Y-75478081D01*
X151589607Y-75497727D01*
X151593471Y-75506012D01*
X151597806Y-75538946D01*
X151601000Y-75555000D01*
X151601000Y-75855000D01*
X151597806Y-75871054D01*
X151593471Y-75903987D01*
X151589608Y-75912270D01*
X151585700Y-75931919D01*
X151568310Y-75957943D01*
X151563071Y-75969180D01*
X151556234Y-75976016D01*
X151542128Y-75997128D01*
X151521016Y-76011234D01*
X151514180Y-76018071D01*
X151502943Y-76023310D01*
X151476919Y-76040700D01*
X151457270Y-76044608D01*
X151448987Y-76048471D01*
X151416054Y-76052806D01*
X151400000Y-76056000D01*
X149750000Y-76056000D01*
X149733946Y-76052806D01*
X149701012Y-76048471D01*
X149692727Y-76044607D01*
X149673081Y-76040700D01*
X149647058Y-76023312D01*
X149635819Y-76018071D01*
X149628980Y-76011232D01*
X149607872Y-75997128D01*
X149593767Y-75976019D01*
X149586928Y-75969180D01*
X149581686Y-75957938D01*
X149564300Y-75931919D01*
X149560392Y-75912274D01*
X149556528Y-75903987D01*
X149552190Y-75871040D01*
X149549000Y-75855000D01*
X149549000Y-75555000D01*
X149552190Y-75538961D01*
X149556528Y-75506012D01*
X149560392Y-75497723D01*
X149564300Y-75478081D01*
X149581684Y-75452063D01*
X149586928Y-75440819D01*
X149593769Y-75433977D01*
X149607872Y-75412872D01*
X149628977Y-75398769D01*
X149635819Y-75391928D01*
X149647063Y-75386684D01*
X149673081Y-75369300D01*
X149692723Y-75365392D01*
X149701012Y-75361528D01*
X149733961Y-75357190D01*
X149750000Y-75354000D01*
X151400000Y-75354000D01*
X151416040Y-75357190D01*
G37*
G36*
X122156592Y-74754133D02*
G01*
X122190259Y-74762777D01*
X122219686Y-74766093D01*
X122265204Y-74782020D01*
X122314649Y-74794716D01*
X122337697Y-74807386D01*
X122357114Y-74814181D01*
X122406485Y-74845203D01*
X122457648Y-74873330D01*
X122470589Y-74885482D01*
X122480395Y-74891644D01*
X122530393Y-74941642D01*
X122576604Y-74985037D01*
X122581494Y-74992743D01*
X122583355Y-74994604D01*
X122651455Y-75102984D01*
X122664042Y-75122818D01*
X122683516Y-75182753D01*
X122708906Y-75255313D01*
X122709868Y-75263856D01*
X122714469Y-75278015D01*
X122718267Y-75338397D01*
X122725209Y-75400000D01*
X122723241Y-75417459D01*
X122724715Y-75440877D01*
X122714668Y-75493541D01*
X122708906Y-75544686D01*
X122700126Y-75569776D01*
X122694138Y-75601170D01*
X122674650Y-75642581D01*
X122660818Y-75682114D01*
X122641822Y-75712345D01*
X122624657Y-75748823D01*
X122600722Y-75777755D01*
X122583355Y-75805395D01*
X122551525Y-75837224D01*
X122520640Y-75874559D01*
X122497056Y-75891693D01*
X122480395Y-75908355D01*
X122433997Y-75937508D01*
X122388622Y-75970476D01*
X122369450Y-75978066D01*
X122357114Y-75985818D01*
X122294802Y-76007621D01*
X122236897Y-76030548D01*
X122224980Y-76032053D01*
X122219686Y-76033906D01*
X122132954Y-76043678D01*
X122075000Y-76051000D01*
X122067980Y-76051000D01*
X121532020Y-76051000D01*
X121525000Y-76051000D01*
X121443408Y-76045867D01*
X121409736Y-76037221D01*
X121380313Y-76033906D01*
X121334802Y-76017981D01*
X121285351Y-76005284D01*
X121262299Y-75992611D01*
X121242885Y-75985818D01*
X121193519Y-75954799D01*
X121142352Y-75926670D01*
X121129409Y-75914516D01*
X121119604Y-75908355D01*
X121069606Y-75858357D01*
X121023396Y-75814963D01*
X121018505Y-75807256D01*
X121016644Y-75805395D01*
X120948507Y-75696956D01*
X120935958Y-75677182D01*
X120916492Y-75617272D01*
X120891093Y-75544686D01*
X120890129Y-75536138D01*
X120885531Y-75521985D01*
X120881733Y-75461621D01*
X120874790Y-75400000D01*
X120876757Y-75382535D01*
X120875285Y-75359123D01*
X120885328Y-75306472D01*
X120891093Y-75255313D01*
X120899875Y-75230215D01*
X120905862Y-75198830D01*
X120925343Y-75157429D01*
X120939181Y-75117885D01*
X120958182Y-75087644D01*
X120975343Y-75051177D01*
X120999271Y-75022252D01*
X121016644Y-74994604D01*
X121048483Y-74962764D01*
X121079360Y-74925441D01*
X121102936Y-74908311D01*
X121119604Y-74891644D01*
X121166018Y-74862479D01*
X121211378Y-74829524D01*
X121230542Y-74821936D01*
X121242885Y-74814181D01*
X121305227Y-74792366D01*
X121363103Y-74769452D01*
X121375013Y-74767947D01*
X121380313Y-74766093D01*
X121467080Y-74756316D01*
X121525000Y-74749000D01*
X122075000Y-74749000D01*
X122156592Y-74754133D01*
G37*
G36*
X146466040Y-74087190D02*
G01*
X146498987Y-74091528D01*
X146507274Y-74095392D01*
X146526919Y-74099300D01*
X146552938Y-74116686D01*
X146564180Y-74121928D01*
X146571019Y-74128767D01*
X146592128Y-74142872D01*
X146606232Y-74163980D01*
X146613071Y-74170819D01*
X146618312Y-74182058D01*
X146635700Y-74208081D01*
X146639607Y-74227727D01*
X146643471Y-74236012D01*
X146647806Y-74268946D01*
X146651000Y-74285000D01*
X146651000Y-74585000D01*
X146647806Y-74601054D01*
X146643471Y-74633987D01*
X146639608Y-74642270D01*
X146635700Y-74661919D01*
X146618310Y-74687943D01*
X146613071Y-74699180D01*
X146606234Y-74706016D01*
X146592128Y-74727128D01*
X146571016Y-74741234D01*
X146564180Y-74748071D01*
X146552943Y-74753310D01*
X146526919Y-74770700D01*
X146507270Y-74774608D01*
X146498987Y-74778471D01*
X146466054Y-74782806D01*
X146450000Y-74786000D01*
X144800000Y-74786000D01*
X144783946Y-74782806D01*
X144751012Y-74778471D01*
X144742727Y-74774607D01*
X144723081Y-74770700D01*
X144697058Y-74753312D01*
X144685819Y-74748071D01*
X144678980Y-74741232D01*
X144657872Y-74727128D01*
X144643767Y-74706019D01*
X144636928Y-74699180D01*
X144631686Y-74687938D01*
X144614300Y-74661919D01*
X144610392Y-74642274D01*
X144606528Y-74633987D01*
X144602190Y-74601040D01*
X144599000Y-74585000D01*
X144599000Y-74285000D01*
X144602190Y-74268961D01*
X144606528Y-74236012D01*
X144610392Y-74227723D01*
X144614300Y-74208081D01*
X144631684Y-74182063D01*
X144636928Y-74170819D01*
X144643769Y-74163977D01*
X144657872Y-74142872D01*
X144678977Y-74128769D01*
X144685819Y-74121928D01*
X144697063Y-74116684D01*
X144723081Y-74099300D01*
X144742723Y-74095392D01*
X144751012Y-74091528D01*
X144783961Y-74087190D01*
X144800000Y-74084000D01*
X146450000Y-74084000D01*
X146466040Y-74087190D01*
G37*
G36*
X151416040Y-74087190D02*
G01*
X151448987Y-74091528D01*
X151457274Y-74095392D01*
X151476919Y-74099300D01*
X151502938Y-74116686D01*
X151514180Y-74121928D01*
X151521019Y-74128767D01*
X151542128Y-74142872D01*
X151556232Y-74163980D01*
X151563071Y-74170819D01*
X151568312Y-74182058D01*
X151585700Y-74208081D01*
X151589607Y-74227727D01*
X151593471Y-74236012D01*
X151597806Y-74268946D01*
X151601000Y-74285000D01*
X151601000Y-74585000D01*
X151597806Y-74601054D01*
X151593471Y-74633987D01*
X151589608Y-74642270D01*
X151585700Y-74661919D01*
X151568310Y-74687943D01*
X151563071Y-74699180D01*
X151556234Y-74706016D01*
X151542128Y-74727128D01*
X151521016Y-74741234D01*
X151514180Y-74748071D01*
X151502943Y-74753310D01*
X151476919Y-74770700D01*
X151457270Y-74774608D01*
X151448987Y-74778471D01*
X151416054Y-74782806D01*
X151400000Y-74786000D01*
X149750000Y-74786000D01*
X149733946Y-74782806D01*
X149701012Y-74778471D01*
X149692727Y-74774607D01*
X149673081Y-74770700D01*
X149647058Y-74753312D01*
X149635819Y-74748071D01*
X149628980Y-74741232D01*
X149607872Y-74727128D01*
X149593767Y-74706019D01*
X149586928Y-74699180D01*
X149581686Y-74687938D01*
X149564300Y-74661919D01*
X149560392Y-74642274D01*
X149556528Y-74633987D01*
X149552190Y-74601040D01*
X149549000Y-74585000D01*
X149549000Y-74285000D01*
X149552190Y-74268961D01*
X149556528Y-74236012D01*
X149560392Y-74227723D01*
X149564300Y-74208081D01*
X149581684Y-74182063D01*
X149586928Y-74170819D01*
X149593769Y-74163977D01*
X149607872Y-74142872D01*
X149628977Y-74128769D01*
X149635819Y-74121928D01*
X149647063Y-74116684D01*
X149673081Y-74099300D01*
X149692723Y-74095392D01*
X149701012Y-74091528D01*
X149733961Y-74087190D01*
X149750000Y-74084000D01*
X151400000Y-74084000D01*
X151416040Y-74087190D01*
G37*
G36*
X142469517Y-70952882D02*
G01*
X142486062Y-70963938D01*
X142497118Y-70980483D01*
X142501000Y-71000000D01*
X142501000Y-72000000D01*
X142497118Y-72019517D01*
X142486062Y-72036062D01*
X142469517Y-72047118D01*
X142463359Y-72048342D01*
X142411213Y-72083187D01*
X142411213Y-72216813D01*
X142463360Y-72251657D01*
X142469517Y-72252882D01*
X142486062Y-72263938D01*
X142497118Y-72280483D01*
X142501000Y-72300000D01*
X142501000Y-73300000D01*
X142497118Y-73319517D01*
X142486062Y-73336062D01*
X142469517Y-73347118D01*
X142463359Y-73348342D01*
X142411213Y-73383187D01*
X142411213Y-73516813D01*
X142463360Y-73551657D01*
X142469517Y-73552882D01*
X142486062Y-73563938D01*
X142497118Y-73580483D01*
X142501000Y-73600000D01*
X142501000Y-74600000D01*
X142497118Y-74619517D01*
X142486062Y-74636062D01*
X142469517Y-74647118D01*
X142450000Y-74651000D01*
X140950000Y-74651000D01*
X140930483Y-74647118D01*
X140913938Y-74636062D01*
X140902882Y-74619517D01*
X140899000Y-74600000D01*
X140899000Y-73600000D01*
X140902882Y-73580483D01*
X140913938Y-73563938D01*
X140930483Y-73552882D01*
X140936636Y-73551657D01*
X140988786Y-73516812D01*
X140988786Y-73383188D01*
X140936638Y-73348342D01*
X140930483Y-73347118D01*
X140913938Y-73336062D01*
X140902882Y-73319517D01*
X140899000Y-73300000D01*
X140899000Y-72300000D01*
X140902882Y-72280483D01*
X140913938Y-72263938D01*
X140930483Y-72252882D01*
X140936636Y-72251657D01*
X140988786Y-72216812D01*
X140988786Y-72083188D01*
X140936638Y-72048342D01*
X140930483Y-72047118D01*
X140913938Y-72036062D01*
X140902882Y-72019517D01*
X140899000Y-72000000D01*
X140899000Y-71000000D01*
X140902882Y-70980483D01*
X140913938Y-70963938D01*
X140930483Y-70952882D01*
X140950000Y-70949000D01*
X142450000Y-70949000D01*
X142469517Y-70952882D01*
G37*
G36*
X138769517Y-70852882D02*
G01*
X138786062Y-70863938D01*
X138797118Y-70880483D01*
X138801000Y-70900000D01*
X138801000Y-71900000D01*
X138797118Y-71919517D01*
X138786062Y-71936062D01*
X138769517Y-71947118D01*
X138763359Y-71948342D01*
X138711213Y-71983187D01*
X138711213Y-72116813D01*
X138763360Y-72151657D01*
X138769517Y-72152882D01*
X138786062Y-72163938D01*
X138797118Y-72180483D01*
X138801000Y-72200000D01*
X138801000Y-73200000D01*
X138797118Y-73219517D01*
X138786062Y-73236062D01*
X138769517Y-73247118D01*
X138763359Y-73248342D01*
X138711213Y-73283187D01*
X138711213Y-73416813D01*
X138763360Y-73451657D01*
X138769517Y-73452882D01*
X138786062Y-73463938D01*
X138797118Y-73480483D01*
X138801000Y-73500000D01*
X138801000Y-74500000D01*
X138797118Y-74519517D01*
X138786062Y-74536062D01*
X138769517Y-74547118D01*
X138750000Y-74551000D01*
X137250000Y-74551000D01*
X137230483Y-74547118D01*
X137213938Y-74536062D01*
X137202882Y-74519517D01*
X137199000Y-74500000D01*
X137199000Y-73500000D01*
X137202882Y-73480483D01*
X137213938Y-73463938D01*
X137230483Y-73452882D01*
X137236636Y-73451657D01*
X137288786Y-73416812D01*
X137288786Y-73283188D01*
X137236638Y-73248342D01*
X137230483Y-73247118D01*
X137213938Y-73236062D01*
X137202882Y-73219517D01*
X137199000Y-73200000D01*
X137199000Y-72200000D01*
X137202882Y-72180483D01*
X137213938Y-72163938D01*
X137230483Y-72152882D01*
X137236636Y-72151657D01*
X137288786Y-72116812D01*
X137288786Y-71983188D01*
X137236638Y-71948342D01*
X137230483Y-71947118D01*
X137213938Y-71936062D01*
X137202882Y-71919517D01*
X137199000Y-71900000D01*
X137199000Y-70900000D01*
X137202882Y-70880483D01*
X137213938Y-70863938D01*
X137230483Y-70852882D01*
X137250000Y-70849000D01*
X138750000Y-70849000D01*
X138769517Y-70852882D01*
G37*
G36*
X122493914Y-72756995D02*
G01*
X122509726Y-72763976D01*
X122517531Y-72765213D01*
X122550039Y-72781776D01*
X122595106Y-72801676D01*
X122673324Y-72879894D01*
X122693226Y-72924967D01*
X122709786Y-72957468D01*
X122711021Y-72965270D01*
X122718005Y-72981086D01*
X122726000Y-73050000D01*
X122726000Y-73750000D01*
X122718005Y-73818914D01*
X122711021Y-73834729D01*
X122709786Y-73842531D01*
X122693229Y-73875024D01*
X122673324Y-73920106D01*
X122595106Y-73998324D01*
X122550024Y-74018229D01*
X122517531Y-74034786D01*
X122509729Y-74036021D01*
X122493914Y-74043005D01*
X122425000Y-74051000D01*
X121175000Y-74051000D01*
X121106086Y-74043005D01*
X121090270Y-74036021D01*
X121082468Y-74034786D01*
X121049967Y-74018226D01*
X121004894Y-73998324D01*
X120926676Y-73920106D01*
X120906776Y-73875039D01*
X120890213Y-73842531D01*
X120888976Y-73834726D01*
X120881995Y-73818914D01*
X120874000Y-73750000D01*
X120874000Y-73050000D01*
X120881995Y-72981086D01*
X120888976Y-72965274D01*
X120890213Y-72957468D01*
X120906780Y-72924953D01*
X120926676Y-72879894D01*
X121004894Y-72801676D01*
X121049953Y-72781780D01*
X121082468Y-72765213D01*
X121090274Y-72763976D01*
X121106086Y-72756995D01*
X121175000Y-72749000D01*
X122425000Y-72749000D01*
X122493914Y-72756995D01*
G37*
G36*
X146466040Y-72817190D02*
G01*
X146498987Y-72821528D01*
X146507274Y-72825392D01*
X146526919Y-72829300D01*
X146552938Y-72846686D01*
X146564180Y-72851928D01*
X146571019Y-72858767D01*
X146592128Y-72872872D01*
X146606232Y-72893980D01*
X146613071Y-72900819D01*
X146618312Y-72912058D01*
X146635700Y-72938081D01*
X146639607Y-72957727D01*
X146643471Y-72966012D01*
X146647806Y-72998946D01*
X146651000Y-73015000D01*
X146651000Y-73315000D01*
X146647806Y-73331054D01*
X146643471Y-73363987D01*
X146639608Y-73372270D01*
X146635700Y-73391919D01*
X146618310Y-73417943D01*
X146613071Y-73429180D01*
X146606234Y-73436016D01*
X146592128Y-73457128D01*
X146571016Y-73471234D01*
X146564180Y-73478071D01*
X146552943Y-73483310D01*
X146526919Y-73500700D01*
X146507270Y-73504608D01*
X146498987Y-73508471D01*
X146466054Y-73512806D01*
X146450000Y-73516000D01*
X144800000Y-73516000D01*
X144783946Y-73512806D01*
X144751012Y-73508471D01*
X144742727Y-73504607D01*
X144723081Y-73500700D01*
X144697058Y-73483312D01*
X144685819Y-73478071D01*
X144678980Y-73471232D01*
X144657872Y-73457128D01*
X144643767Y-73436019D01*
X144636928Y-73429180D01*
X144631686Y-73417938D01*
X144614300Y-73391919D01*
X144610392Y-73372274D01*
X144606528Y-73363987D01*
X144602190Y-73331040D01*
X144599000Y-73315000D01*
X144599000Y-73015000D01*
X144602190Y-72998961D01*
X144606528Y-72966012D01*
X144610392Y-72957723D01*
X144614300Y-72938081D01*
X144631684Y-72912063D01*
X144636928Y-72900819D01*
X144643769Y-72893977D01*
X144657872Y-72872872D01*
X144678977Y-72858769D01*
X144685819Y-72851928D01*
X144697063Y-72846684D01*
X144723081Y-72829300D01*
X144742723Y-72825392D01*
X144751012Y-72821528D01*
X144783961Y-72817190D01*
X144800000Y-72814000D01*
X146450000Y-72814000D01*
X146466040Y-72817190D01*
G37*
G36*
X151416040Y-72817190D02*
G01*
X151448987Y-72821528D01*
X151457274Y-72825392D01*
X151476919Y-72829300D01*
X151502938Y-72846686D01*
X151514180Y-72851928D01*
X151521019Y-72858767D01*
X151542128Y-72872872D01*
X151556232Y-72893980D01*
X151563071Y-72900819D01*
X151568312Y-72912058D01*
X151585700Y-72938081D01*
X151589607Y-72957727D01*
X151593471Y-72966012D01*
X151597806Y-72998946D01*
X151601000Y-73015000D01*
X151601000Y-73315000D01*
X151597806Y-73331054D01*
X151593471Y-73363987D01*
X151589608Y-73372270D01*
X151585700Y-73391919D01*
X151568310Y-73417943D01*
X151563071Y-73429180D01*
X151556234Y-73436016D01*
X151542128Y-73457128D01*
X151521016Y-73471234D01*
X151514180Y-73478071D01*
X151502943Y-73483310D01*
X151476919Y-73500700D01*
X151457270Y-73504608D01*
X151448987Y-73508471D01*
X151416054Y-73512806D01*
X151400000Y-73516000D01*
X149750000Y-73516000D01*
X149733946Y-73512806D01*
X149701012Y-73508471D01*
X149692727Y-73504607D01*
X149673081Y-73500700D01*
X149647058Y-73483312D01*
X149635819Y-73478071D01*
X149628980Y-73471232D01*
X149607872Y-73457128D01*
X149593767Y-73436019D01*
X149586928Y-73429180D01*
X149581686Y-73417938D01*
X149564300Y-73391919D01*
X149560392Y-73372274D01*
X149556528Y-73363987D01*
X149552190Y-73331040D01*
X149549000Y-73315000D01*
X149549000Y-73015000D01*
X149552190Y-72998961D01*
X149556528Y-72966012D01*
X149560392Y-72957723D01*
X149564300Y-72938081D01*
X149581684Y-72912063D01*
X149586928Y-72900819D01*
X149593769Y-72893977D01*
X149607872Y-72872872D01*
X149628977Y-72858769D01*
X149635819Y-72851928D01*
X149647063Y-72846684D01*
X149673081Y-72829300D01*
X149692723Y-72825392D01*
X149701012Y-72821528D01*
X149733961Y-72817190D01*
X149750000Y-72814000D01*
X151400000Y-72814000D01*
X151416040Y-72817190D01*
G37*
G36*
X153403552Y-71281663D02*
G01*
X153418934Y-71288455D01*
X153426170Y-71289601D01*
X153456302Y-71304954D01*
X153500542Y-71324488D01*
X153575512Y-71399458D01*
X153595048Y-71443704D01*
X153610398Y-71473829D01*
X153611543Y-71481062D01*
X153618337Y-71496448D01*
X153626000Y-71562500D01*
X153626000Y-72062500D01*
X153618337Y-72128552D01*
X153611543Y-72143938D01*
X153610398Y-72151170D01*
X153595052Y-72181287D01*
X153575512Y-72225542D01*
X153500542Y-72300512D01*
X153456287Y-72320052D01*
X153426170Y-72335398D01*
X153418938Y-72336543D01*
X153403552Y-72343337D01*
X153337500Y-72351000D01*
X152862500Y-72351000D01*
X152796448Y-72343337D01*
X152781062Y-72336543D01*
X152773829Y-72335398D01*
X152743704Y-72320048D01*
X152699458Y-72300512D01*
X152624488Y-72225542D01*
X152604954Y-72181302D01*
X152589601Y-72151170D01*
X152588455Y-72143934D01*
X152581663Y-72128552D01*
X152574000Y-72062500D01*
X152574000Y-71562500D01*
X152581663Y-71496448D01*
X152588454Y-71481065D01*
X152589601Y-71473829D01*
X152604957Y-71443690D01*
X152624488Y-71399458D01*
X152699458Y-71324488D01*
X152743690Y-71304957D01*
X152773829Y-71289601D01*
X152781065Y-71288454D01*
X152796448Y-71281663D01*
X152862500Y-71274000D01*
X153337500Y-71274000D01*
X153403552Y-71281663D01*
G37*
G36*
X146466040Y-71547190D02*
G01*
X146498987Y-71551528D01*
X146507274Y-71555392D01*
X146526919Y-71559300D01*
X146552938Y-71576686D01*
X146564180Y-71581928D01*
X146571019Y-71588767D01*
X146592128Y-71602872D01*
X146606232Y-71623980D01*
X146613071Y-71630819D01*
X146618312Y-71642058D01*
X146635700Y-71668081D01*
X146639607Y-71687727D01*
X146643471Y-71696012D01*
X146647806Y-71728946D01*
X146651000Y-71745000D01*
X146651000Y-72045000D01*
X146647806Y-72061054D01*
X146643471Y-72093987D01*
X146639608Y-72102270D01*
X146635700Y-72121919D01*
X146618310Y-72147943D01*
X146613071Y-72159180D01*
X146606234Y-72166016D01*
X146592128Y-72187128D01*
X146571016Y-72201234D01*
X146564180Y-72208071D01*
X146552943Y-72213310D01*
X146526919Y-72230700D01*
X146507270Y-72234608D01*
X146498987Y-72238471D01*
X146466054Y-72242806D01*
X146450000Y-72246000D01*
X144800000Y-72246000D01*
X144783946Y-72242806D01*
X144751012Y-72238471D01*
X144742727Y-72234607D01*
X144723081Y-72230700D01*
X144697058Y-72213312D01*
X144685819Y-72208071D01*
X144678980Y-72201232D01*
X144657872Y-72187128D01*
X144643767Y-72166019D01*
X144636928Y-72159180D01*
X144631686Y-72147938D01*
X144614300Y-72121919D01*
X144610392Y-72102274D01*
X144606528Y-72093987D01*
X144602190Y-72061040D01*
X144599000Y-72045000D01*
X144599000Y-71745000D01*
X144602190Y-71728961D01*
X144606528Y-71696012D01*
X144610392Y-71687723D01*
X144614300Y-71668081D01*
X144631684Y-71642063D01*
X144636928Y-71630819D01*
X144643769Y-71623977D01*
X144657872Y-71602872D01*
X144678977Y-71588769D01*
X144685819Y-71581928D01*
X144697063Y-71576684D01*
X144723081Y-71559300D01*
X144742723Y-71555392D01*
X144751012Y-71551528D01*
X144783961Y-71547190D01*
X144800000Y-71544000D01*
X146450000Y-71544000D01*
X146466040Y-71547190D01*
G37*
G36*
X151416040Y-71547190D02*
G01*
X151448987Y-71551528D01*
X151457274Y-71555392D01*
X151476919Y-71559300D01*
X151502938Y-71576686D01*
X151514180Y-71581928D01*
X151521019Y-71588767D01*
X151542128Y-71602872D01*
X151556232Y-71623980D01*
X151563071Y-71630819D01*
X151568312Y-71642058D01*
X151585700Y-71668081D01*
X151589607Y-71687727D01*
X151593471Y-71696012D01*
X151597806Y-71728946D01*
X151601000Y-71745000D01*
X151601000Y-72045000D01*
X151597806Y-72061054D01*
X151593471Y-72093987D01*
X151589608Y-72102270D01*
X151585700Y-72121919D01*
X151568310Y-72147943D01*
X151563071Y-72159180D01*
X151556234Y-72166016D01*
X151542128Y-72187128D01*
X151521016Y-72201234D01*
X151514180Y-72208071D01*
X151502943Y-72213310D01*
X151476919Y-72230700D01*
X151457270Y-72234608D01*
X151448987Y-72238471D01*
X151416054Y-72242806D01*
X151400000Y-72246000D01*
X149750000Y-72246000D01*
X149733946Y-72242806D01*
X149701012Y-72238471D01*
X149692727Y-72234607D01*
X149673081Y-72230700D01*
X149647058Y-72213312D01*
X149635819Y-72208071D01*
X149628980Y-72201232D01*
X149607872Y-72187128D01*
X149593767Y-72166019D01*
X149586928Y-72159180D01*
X149581686Y-72147938D01*
X149564300Y-72121919D01*
X149560392Y-72102274D01*
X149556528Y-72093987D01*
X149552190Y-72061040D01*
X149549000Y-72045000D01*
X149549000Y-71745000D01*
X149552190Y-71728961D01*
X149556528Y-71696012D01*
X149560392Y-71687723D01*
X149564300Y-71668081D01*
X149581684Y-71642063D01*
X149586928Y-71630819D01*
X149593769Y-71623977D01*
X149607872Y-71602872D01*
X149628977Y-71588769D01*
X149635819Y-71581928D01*
X149647063Y-71576684D01*
X149673081Y-71559300D01*
X149692723Y-71555392D01*
X149701012Y-71551528D01*
X149733961Y-71547190D01*
X149750000Y-71544000D01*
X151400000Y-71544000D01*
X151416040Y-71547190D01*
G37*
G36*
X132303552Y-69781663D02*
G01*
X132318934Y-69788455D01*
X132326170Y-69789601D01*
X132356302Y-69804954D01*
X132400542Y-69824488D01*
X132475512Y-69899458D01*
X132495048Y-69943704D01*
X132510398Y-69973829D01*
X132511543Y-69981062D01*
X132518337Y-69996448D01*
X132526000Y-70062500D01*
X132526000Y-70537500D01*
X132518337Y-70603552D01*
X132511543Y-70618938D01*
X132510398Y-70626170D01*
X132495052Y-70656287D01*
X132475512Y-70700542D01*
X132400542Y-70775512D01*
X132356287Y-70795052D01*
X132326170Y-70810398D01*
X132318938Y-70811543D01*
X132303552Y-70818337D01*
X132237500Y-70826000D01*
X131737500Y-70826000D01*
X131671448Y-70818337D01*
X131656062Y-70811543D01*
X131648829Y-70810398D01*
X131618704Y-70795048D01*
X131574458Y-70775512D01*
X131499488Y-70700542D01*
X131479954Y-70656302D01*
X131464601Y-70626170D01*
X131463455Y-70618934D01*
X131456663Y-70603552D01*
X131449000Y-70537500D01*
X131449000Y-70062500D01*
X131456663Y-69996448D01*
X131463454Y-69981065D01*
X131464601Y-69973829D01*
X131479957Y-69943690D01*
X131499488Y-69899458D01*
X131574458Y-69824488D01*
X131618690Y-69804957D01*
X131648829Y-69789601D01*
X131656065Y-69788454D01*
X131671448Y-69781663D01*
X131737500Y-69774000D01*
X132237500Y-69774000D01*
X132303552Y-69781663D01*
G37*
G36*
X134128552Y-69781663D02*
G01*
X134143934Y-69788455D01*
X134151170Y-69789601D01*
X134181302Y-69804954D01*
X134225542Y-69824488D01*
X134300512Y-69899458D01*
X134320048Y-69943704D01*
X134335398Y-69973829D01*
X134336543Y-69981062D01*
X134343337Y-69996448D01*
X134351000Y-70062500D01*
X134351000Y-70537500D01*
X134343337Y-70603552D01*
X134336543Y-70618938D01*
X134335398Y-70626170D01*
X134320052Y-70656287D01*
X134300512Y-70700542D01*
X134225542Y-70775512D01*
X134181287Y-70795052D01*
X134151170Y-70810398D01*
X134143938Y-70811543D01*
X134128552Y-70818337D01*
X134062500Y-70826000D01*
X133562500Y-70826000D01*
X133496448Y-70818337D01*
X133481062Y-70811543D01*
X133473829Y-70810398D01*
X133443704Y-70795048D01*
X133399458Y-70775512D01*
X133324488Y-70700542D01*
X133304954Y-70656302D01*
X133289601Y-70626170D01*
X133288455Y-70618934D01*
X133281663Y-70603552D01*
X133274000Y-70537500D01*
X133274000Y-70062500D01*
X133281663Y-69996448D01*
X133288454Y-69981065D01*
X133289601Y-69973829D01*
X133304957Y-69943690D01*
X133324488Y-69899458D01*
X133399458Y-69824488D01*
X133443690Y-69804957D01*
X133473829Y-69789601D01*
X133481065Y-69788454D01*
X133496448Y-69781663D01*
X133562500Y-69774000D01*
X134062500Y-69774000D01*
X134128552Y-69781663D01*
G37*
G36*
X153403552Y-69456663D02*
G01*
X153418934Y-69463455D01*
X153426170Y-69464601D01*
X153456302Y-69479954D01*
X153500542Y-69499488D01*
X153575512Y-69574458D01*
X153595048Y-69618704D01*
X153610398Y-69648829D01*
X153611543Y-69656062D01*
X153618337Y-69671448D01*
X153626000Y-69737500D01*
X153626000Y-70237500D01*
X153618337Y-70303552D01*
X153611543Y-70318938D01*
X153610398Y-70326170D01*
X153595052Y-70356287D01*
X153575512Y-70400542D01*
X153500542Y-70475512D01*
X153456287Y-70495052D01*
X153426170Y-70510398D01*
X153418938Y-70511543D01*
X153403552Y-70518337D01*
X153337500Y-70526000D01*
X152862500Y-70526000D01*
X152796448Y-70518337D01*
X152781062Y-70511543D01*
X152773829Y-70510398D01*
X152743704Y-70495048D01*
X152699458Y-70475512D01*
X152624488Y-70400542D01*
X152604954Y-70356302D01*
X152589601Y-70326170D01*
X152588455Y-70318934D01*
X152581663Y-70303552D01*
X152574000Y-70237500D01*
X152574000Y-69737500D01*
X152581663Y-69671448D01*
X152588454Y-69656065D01*
X152589601Y-69648829D01*
X152604957Y-69618690D01*
X152624488Y-69574458D01*
X152699458Y-69499488D01*
X152743690Y-69479957D01*
X152773829Y-69464601D01*
X152781065Y-69463454D01*
X152796448Y-69456663D01*
X152862500Y-69449000D01*
X153337500Y-69449000D01*
X153403552Y-69456663D01*
G37*
G36*
X132303552Y-67781663D02*
G01*
X132318934Y-67788455D01*
X132326170Y-67789601D01*
X132356302Y-67804954D01*
X132400542Y-67824488D01*
X132475512Y-67899458D01*
X132495048Y-67943704D01*
X132510398Y-67973829D01*
X132511543Y-67981062D01*
X132518337Y-67996448D01*
X132526000Y-68062500D01*
X132526000Y-68537500D01*
X132518337Y-68603552D01*
X132511543Y-68618938D01*
X132510398Y-68626170D01*
X132495052Y-68656287D01*
X132475512Y-68700542D01*
X132400542Y-68775512D01*
X132356287Y-68795052D01*
X132326170Y-68810398D01*
X132318938Y-68811543D01*
X132303552Y-68818337D01*
X132237500Y-68826000D01*
X131737500Y-68826000D01*
X131671448Y-68818337D01*
X131656062Y-68811543D01*
X131648829Y-68810398D01*
X131618704Y-68795048D01*
X131574458Y-68775512D01*
X131499488Y-68700542D01*
X131479954Y-68656302D01*
X131464601Y-68626170D01*
X131463455Y-68618934D01*
X131456663Y-68603552D01*
X131449000Y-68537500D01*
X131449000Y-68062500D01*
X131456663Y-67996448D01*
X131463454Y-67981065D01*
X131464601Y-67973829D01*
X131479957Y-67943690D01*
X131499488Y-67899458D01*
X131574458Y-67824488D01*
X131618690Y-67804957D01*
X131648829Y-67789601D01*
X131656065Y-67788454D01*
X131671448Y-67781663D01*
X131737500Y-67774000D01*
X132237500Y-67774000D01*
X132303552Y-67781663D01*
G37*
G36*
X134128552Y-67781663D02*
G01*
X134143934Y-67788455D01*
X134151170Y-67789601D01*
X134181302Y-67804954D01*
X134225542Y-67824488D01*
X134300512Y-67899458D01*
X134320048Y-67943704D01*
X134335398Y-67973829D01*
X134336543Y-67981062D01*
X134343337Y-67996448D01*
X134351000Y-68062500D01*
X134351000Y-68537500D01*
X134343337Y-68603552D01*
X134336543Y-68618938D01*
X134335398Y-68626170D01*
X134320052Y-68656287D01*
X134300512Y-68700542D01*
X134225542Y-68775512D01*
X134181287Y-68795052D01*
X134151170Y-68810398D01*
X134143938Y-68811543D01*
X134128552Y-68818337D01*
X134062500Y-68826000D01*
X133562500Y-68826000D01*
X133496448Y-68818337D01*
X133481062Y-68811543D01*
X133473829Y-68810398D01*
X133443704Y-68795048D01*
X133399458Y-68775512D01*
X133324488Y-68700542D01*
X133304954Y-68656302D01*
X133289601Y-68626170D01*
X133288455Y-68618934D01*
X133281663Y-68603552D01*
X133274000Y-68537500D01*
X133274000Y-68062500D01*
X133281663Y-67996448D01*
X133288454Y-67981065D01*
X133289601Y-67973829D01*
X133304957Y-67943690D01*
X133324488Y-67899458D01*
X133399458Y-67824488D01*
X133443690Y-67804957D01*
X133473829Y-67789601D01*
X133481065Y-67788454D01*
X133496448Y-67781663D01*
X133562500Y-67774000D01*
X134062500Y-67774000D01*
X134128552Y-67781663D01*
G37*
G36*
X122156592Y-66554133D02*
G01*
X122190259Y-66562777D01*
X122219686Y-66566093D01*
X122265204Y-66582020D01*
X122314649Y-66594716D01*
X122337697Y-66607386D01*
X122357114Y-66614181D01*
X122406485Y-66645203D01*
X122457648Y-66673330D01*
X122470589Y-66685482D01*
X122480395Y-66691644D01*
X122530393Y-66741642D01*
X122576604Y-66785037D01*
X122581494Y-66792743D01*
X122583355Y-66794604D01*
X122651455Y-66902984D01*
X122664042Y-66922818D01*
X122683516Y-66982753D01*
X122708906Y-67055313D01*
X122709868Y-67063856D01*
X122714469Y-67078015D01*
X122718267Y-67138397D01*
X122725209Y-67200000D01*
X122723241Y-67217459D01*
X122724715Y-67240877D01*
X122714668Y-67293541D01*
X122708906Y-67344686D01*
X122700126Y-67369776D01*
X122694138Y-67401170D01*
X122674650Y-67442581D01*
X122660818Y-67482114D01*
X122641822Y-67512345D01*
X122624657Y-67548823D01*
X122600722Y-67577755D01*
X122583355Y-67605395D01*
X122551525Y-67637224D01*
X122520640Y-67674559D01*
X122497056Y-67691693D01*
X122480395Y-67708355D01*
X122433997Y-67737508D01*
X122388622Y-67770476D01*
X122369450Y-67778066D01*
X122357114Y-67785818D01*
X122294802Y-67807621D01*
X122236897Y-67830548D01*
X122224980Y-67832053D01*
X122219686Y-67833906D01*
X122132954Y-67843678D01*
X122075000Y-67851000D01*
X122067980Y-67851000D01*
X121532020Y-67851000D01*
X121525000Y-67851000D01*
X121443408Y-67845867D01*
X121409736Y-67837221D01*
X121380313Y-67833906D01*
X121334802Y-67817981D01*
X121285351Y-67805284D01*
X121262299Y-67792611D01*
X121242885Y-67785818D01*
X121193519Y-67754799D01*
X121142352Y-67726670D01*
X121129409Y-67714516D01*
X121119604Y-67708355D01*
X121069606Y-67658357D01*
X121023396Y-67614963D01*
X121018505Y-67607256D01*
X121016644Y-67605395D01*
X120948507Y-67496956D01*
X120935958Y-67477182D01*
X120916492Y-67417272D01*
X120891093Y-67344686D01*
X120890129Y-67336138D01*
X120885531Y-67321985D01*
X120881733Y-67261621D01*
X120874790Y-67200000D01*
X120876757Y-67182535D01*
X120875285Y-67159123D01*
X120885328Y-67106472D01*
X120891093Y-67055313D01*
X120899875Y-67030215D01*
X120905862Y-66998830D01*
X120925343Y-66957429D01*
X120939181Y-66917885D01*
X120958182Y-66887644D01*
X120975343Y-66851177D01*
X120999271Y-66822252D01*
X121016644Y-66794604D01*
X121048483Y-66762764D01*
X121079360Y-66725441D01*
X121102936Y-66708311D01*
X121119604Y-66691644D01*
X121166018Y-66662479D01*
X121211378Y-66629524D01*
X121230542Y-66621936D01*
X121242885Y-66614181D01*
X121305227Y-66592366D01*
X121363103Y-66569452D01*
X121375013Y-66567947D01*
X121380313Y-66566093D01*
X121467080Y-66556316D01*
X121525000Y-66549000D01*
X122075000Y-66549000D01*
X122156592Y-66554133D01*
G37*
G36*
X140843517Y-65922882D02*
G01*
X140860062Y-65933938D01*
X140871118Y-65950483D01*
X140875000Y-65970000D01*
X140875000Y-67570000D01*
X140871118Y-67589517D01*
X140860062Y-67606062D01*
X140843517Y-67617118D01*
X140824000Y-67621000D01*
X139024000Y-67621000D01*
X139004483Y-67617118D01*
X138987938Y-67606062D01*
X138976882Y-67589517D01*
X138973000Y-67570000D01*
X138973000Y-65970000D01*
X138976882Y-65950483D01*
X138987938Y-65933938D01*
X139004483Y-65922882D01*
X139024000Y-65919000D01*
X140824000Y-65919000D01*
X140843517Y-65922882D01*
G37*
G36*
X150595517Y-65922882D02*
G01*
X150612062Y-65933938D01*
X150623118Y-65950483D01*
X150627000Y-65970000D01*
X150627000Y-67570000D01*
X150623118Y-67589517D01*
X150612062Y-67606062D01*
X150595517Y-67617118D01*
X150576000Y-67621000D01*
X148776000Y-67621000D01*
X148756483Y-67617118D01*
X148739938Y-67606062D01*
X148728882Y-67589517D01*
X148725000Y-67570000D01*
X148725000Y-65970000D01*
X148728882Y-65950483D01*
X148739938Y-65933938D01*
X148756483Y-65922882D01*
X148776000Y-65919000D01*
X150576000Y-65919000D01*
X150595517Y-65922882D01*
G37*
G36*
X153843914Y-65556995D02*
G01*
X153859726Y-65563976D01*
X153867531Y-65565213D01*
X153900039Y-65581776D01*
X153945106Y-65601676D01*
X154023324Y-65679894D01*
X154043226Y-65724967D01*
X154059786Y-65757468D01*
X154061021Y-65765270D01*
X154068005Y-65781086D01*
X154076000Y-65850000D01*
X154076000Y-66550000D01*
X154068005Y-66618914D01*
X154061021Y-66634729D01*
X154059786Y-66642531D01*
X154043229Y-66675024D01*
X154023324Y-66720106D01*
X153945106Y-66798324D01*
X153900024Y-66818229D01*
X153867531Y-66834786D01*
X153859729Y-66836021D01*
X153843914Y-66843005D01*
X153775000Y-66851000D01*
X152525000Y-66851000D01*
X152456086Y-66843005D01*
X152440270Y-66836021D01*
X152432468Y-66834786D01*
X152399967Y-66818226D01*
X152354894Y-66798324D01*
X152276676Y-66720106D01*
X152256776Y-66675039D01*
X152240213Y-66642531D01*
X152238976Y-66634726D01*
X152231995Y-66618914D01*
X152224000Y-66550000D01*
X152224000Y-65850000D01*
X152231995Y-65781086D01*
X152238976Y-65765274D01*
X152240213Y-65757468D01*
X152256780Y-65724953D01*
X152276676Y-65679894D01*
X152354894Y-65601676D01*
X152399953Y-65581780D01*
X152432468Y-65565213D01*
X152440274Y-65563976D01*
X152456086Y-65556995D01*
X152525000Y-65549000D01*
X153775000Y-65549000D01*
X153843914Y-65556995D01*
G37*
G36*
X122493914Y-64556995D02*
G01*
X122509726Y-64563976D01*
X122517531Y-64565213D01*
X122550039Y-64581776D01*
X122595106Y-64601676D01*
X122673324Y-64679894D01*
X122693226Y-64724967D01*
X122709786Y-64757468D01*
X122711021Y-64765270D01*
X122718005Y-64781086D01*
X122726000Y-64850000D01*
X122726000Y-65550000D01*
X122718005Y-65618914D01*
X122711021Y-65634729D01*
X122709786Y-65642531D01*
X122693229Y-65675024D01*
X122673324Y-65720106D01*
X122595106Y-65798324D01*
X122550024Y-65818229D01*
X122517531Y-65834786D01*
X122509729Y-65836021D01*
X122493914Y-65843005D01*
X122425000Y-65851000D01*
X121175000Y-65851000D01*
X121106086Y-65843005D01*
X121090270Y-65836021D01*
X121082468Y-65834786D01*
X121049967Y-65818226D01*
X121004894Y-65798324D01*
X120926676Y-65720106D01*
X120906776Y-65675039D01*
X120890213Y-65642531D01*
X120888976Y-65634726D01*
X120881995Y-65618914D01*
X120874000Y-65550000D01*
X120874000Y-64850000D01*
X120881995Y-64781086D01*
X120888976Y-64765274D01*
X120890213Y-64757468D01*
X120906780Y-64724953D01*
X120926676Y-64679894D01*
X121004894Y-64601676D01*
X121049953Y-64581780D01*
X121082468Y-64565213D01*
X121090274Y-64563976D01*
X121106086Y-64556995D01*
X121175000Y-64549000D01*
X122425000Y-64549000D01*
X122493914Y-64556995D01*
G37*
G36*
X140843517Y-63382882D02*
G01*
X140860062Y-63393938D01*
X140871118Y-63410483D01*
X140875000Y-63430000D01*
X140875000Y-65030000D01*
X140871118Y-65049517D01*
X140860062Y-65066062D01*
X140843517Y-65077118D01*
X140824000Y-65081000D01*
X139024000Y-65081000D01*
X139004483Y-65077118D01*
X138987938Y-65066062D01*
X138976882Y-65049517D01*
X138973000Y-65030000D01*
X138973000Y-63430000D01*
X138976882Y-63410483D01*
X138987938Y-63393938D01*
X139004483Y-63382882D01*
X139024000Y-63379000D01*
X140824000Y-63379000D01*
X140843517Y-63382882D01*
G37*
G36*
X150595517Y-63382882D02*
G01*
X150612062Y-63393938D01*
X150623118Y-63410483D01*
X150627000Y-63430000D01*
X150627000Y-65030000D01*
X150623118Y-65049517D01*
X150612062Y-65066062D01*
X150595517Y-65077118D01*
X150576000Y-65081000D01*
X148776000Y-65081000D01*
X148756483Y-65077118D01*
X148739938Y-65066062D01*
X148728882Y-65049517D01*
X148725000Y-65030000D01*
X148725000Y-63430000D01*
X148728882Y-63410483D01*
X148739938Y-63393938D01*
X148756483Y-63382882D01*
X148776000Y-63379000D01*
X150576000Y-63379000D01*
X150595517Y-63382882D01*
G37*
G36*
X153506592Y-63554133D02*
G01*
X153540259Y-63562777D01*
X153569686Y-63566093D01*
X153615204Y-63582020D01*
X153664649Y-63594716D01*
X153687697Y-63607386D01*
X153707114Y-63614181D01*
X153756485Y-63645203D01*
X153807648Y-63673330D01*
X153820589Y-63685482D01*
X153830395Y-63691644D01*
X153880393Y-63741642D01*
X153926604Y-63785037D01*
X153931494Y-63792743D01*
X153933355Y-63794604D01*
X154001455Y-63902984D01*
X154014042Y-63922818D01*
X154033516Y-63982753D01*
X154058906Y-64055313D01*
X154059868Y-64063856D01*
X154064469Y-64078015D01*
X154068267Y-64138397D01*
X154075209Y-64200000D01*
X154073241Y-64217459D01*
X154074715Y-64240877D01*
X154064668Y-64293541D01*
X154058906Y-64344686D01*
X154050126Y-64369776D01*
X154044138Y-64401170D01*
X154024650Y-64442581D01*
X154010818Y-64482114D01*
X153991822Y-64512345D01*
X153974657Y-64548823D01*
X153950722Y-64577755D01*
X153933355Y-64605395D01*
X153901525Y-64637224D01*
X153870640Y-64674559D01*
X153847056Y-64691693D01*
X153830395Y-64708355D01*
X153783997Y-64737508D01*
X153738622Y-64770476D01*
X153719450Y-64778066D01*
X153707114Y-64785818D01*
X153644802Y-64807621D01*
X153586897Y-64830548D01*
X153574980Y-64832053D01*
X153569686Y-64833906D01*
X153482954Y-64843678D01*
X153425000Y-64851000D01*
X153417980Y-64851000D01*
X152882020Y-64851000D01*
X152875000Y-64851000D01*
X152793408Y-64845867D01*
X152759736Y-64837221D01*
X152730313Y-64833906D01*
X152684802Y-64817981D01*
X152635351Y-64805284D01*
X152612299Y-64792611D01*
X152592885Y-64785818D01*
X152543519Y-64754799D01*
X152492352Y-64726670D01*
X152479409Y-64714516D01*
X152469604Y-64708355D01*
X152419606Y-64658357D01*
X152373396Y-64614963D01*
X152368505Y-64607256D01*
X152366644Y-64605395D01*
X152298507Y-64496956D01*
X152285958Y-64477182D01*
X152266492Y-64417272D01*
X152241093Y-64344686D01*
X152240129Y-64336138D01*
X152235531Y-64321985D01*
X152231733Y-64261621D01*
X152224790Y-64200000D01*
X152226757Y-64182535D01*
X152225285Y-64159123D01*
X152235328Y-64106472D01*
X152241093Y-64055313D01*
X152249875Y-64030215D01*
X152255862Y-63998830D01*
X152275343Y-63957429D01*
X152289181Y-63917885D01*
X152308182Y-63887644D01*
X152325343Y-63851177D01*
X152349271Y-63822252D01*
X152366644Y-63794604D01*
X152398483Y-63762764D01*
X152429360Y-63725441D01*
X152452936Y-63708311D01*
X152469604Y-63691644D01*
X152516018Y-63662479D01*
X152561378Y-63629524D01*
X152580542Y-63621936D01*
X152592885Y-63614181D01*
X152655227Y-63592366D01*
X152713103Y-63569452D01*
X152725013Y-63567947D01*
X152730313Y-63566093D01*
X152817080Y-63556316D01*
X152875000Y-63549000D01*
X153425000Y-63549000D01*
X153506592Y-63554133D01*
G37*
G36*
X140403552Y-61181663D02*
G01*
X140418934Y-61188455D01*
X140426170Y-61189601D01*
X140456302Y-61204954D01*
X140500542Y-61224488D01*
X140575512Y-61299458D01*
X140595048Y-61343704D01*
X140610398Y-61373829D01*
X140611543Y-61381062D01*
X140618337Y-61396448D01*
X140626000Y-61462500D01*
X140626000Y-61937500D01*
X140618337Y-62003552D01*
X140611543Y-62018938D01*
X140610398Y-62026170D01*
X140595052Y-62056287D01*
X140575512Y-62100542D01*
X140500542Y-62175512D01*
X140456287Y-62195052D01*
X140426170Y-62210398D01*
X140418938Y-62211543D01*
X140403552Y-62218337D01*
X140337500Y-62226000D01*
X139837500Y-62226000D01*
X139771448Y-62218337D01*
X139756062Y-62211543D01*
X139748829Y-62210398D01*
X139718704Y-62195048D01*
X139674458Y-62175512D01*
X139599488Y-62100542D01*
X139579954Y-62056302D01*
X139564601Y-62026170D01*
X139563455Y-62018934D01*
X139556663Y-62003552D01*
X139549000Y-61937500D01*
X139549000Y-61462500D01*
X139556663Y-61396448D01*
X139563454Y-61381065D01*
X139564601Y-61373829D01*
X139579957Y-61343690D01*
X139599488Y-61299458D01*
X139674458Y-61224488D01*
X139718690Y-61204957D01*
X139748829Y-61189601D01*
X139756065Y-61188454D01*
X139771448Y-61181663D01*
X139837500Y-61174000D01*
X140337500Y-61174000D01*
X140403552Y-61181663D01*
G37*
G36*
X142228552Y-61181663D02*
G01*
X142243934Y-61188455D01*
X142251170Y-61189601D01*
X142281302Y-61204954D01*
X142325542Y-61224488D01*
X142400512Y-61299458D01*
X142420048Y-61343704D01*
X142435398Y-61373829D01*
X142436543Y-61381062D01*
X142443337Y-61396448D01*
X142451000Y-61462500D01*
X142451000Y-61937500D01*
X142443337Y-62003552D01*
X142436543Y-62018938D01*
X142435398Y-62026170D01*
X142420052Y-62056287D01*
X142400512Y-62100542D01*
X142325542Y-62175512D01*
X142281287Y-62195052D01*
X142251170Y-62210398D01*
X142243938Y-62211543D01*
X142228552Y-62218337D01*
X142162500Y-62226000D01*
X141662500Y-62226000D01*
X141596448Y-62218337D01*
X141581062Y-62211543D01*
X141573829Y-62210398D01*
X141543704Y-62195048D01*
X141499458Y-62175512D01*
X141424488Y-62100542D01*
X141404954Y-62056302D01*
X141389601Y-62026170D01*
X141388455Y-62018934D01*
X141381663Y-62003552D01*
X141374000Y-61937500D01*
X141374000Y-61462500D01*
X141381663Y-61396448D01*
X141388454Y-61381065D01*
X141389601Y-61373829D01*
X141404957Y-61343690D01*
X141424488Y-61299458D01*
X141499458Y-61224488D01*
X141543690Y-61204957D01*
X141573829Y-61189601D01*
X141581065Y-61188454D01*
X141596448Y-61181663D01*
X141662500Y-61174000D01*
X142162500Y-61174000D01*
X142228552Y-61181663D01*
G37*
G36*
X147518914Y-52931995D02*
G01*
X147534726Y-52938976D01*
X147542531Y-52940213D01*
X147575039Y-52956776D01*
X147620106Y-52976676D01*
X147698324Y-53054894D01*
X147718226Y-53099967D01*
X147734786Y-53132468D01*
X147736021Y-53140270D01*
X147743005Y-53156086D01*
X147751000Y-53225000D01*
X147751000Y-54475000D01*
X147743005Y-54543914D01*
X147736021Y-54559729D01*
X147734786Y-54567531D01*
X147718229Y-54600024D01*
X147698324Y-54645106D01*
X147620106Y-54723324D01*
X147575024Y-54743229D01*
X147542531Y-54759786D01*
X147534729Y-54761021D01*
X147518914Y-54768005D01*
X147450000Y-54776000D01*
X146750000Y-54776000D01*
X146681086Y-54768005D01*
X146665270Y-54761021D01*
X146657468Y-54759786D01*
X146624967Y-54743226D01*
X146579894Y-54723324D01*
X146501676Y-54645106D01*
X146481776Y-54600039D01*
X146465213Y-54567531D01*
X146463976Y-54559726D01*
X146456995Y-54543914D01*
X146449000Y-54475000D01*
X146449000Y-53225000D01*
X146456995Y-53156086D01*
X146463976Y-53140274D01*
X146465213Y-53132468D01*
X146481780Y-53099953D01*
X146501676Y-53054894D01*
X146579894Y-52976676D01*
X146624953Y-52956780D01*
X146657468Y-52940213D01*
X146665274Y-52938976D01*
X146681086Y-52931995D01*
X146750000Y-52924000D01*
X147450000Y-52924000D01*
X147518914Y-52931995D01*
G37*
G36*
X145117464Y-52926757D02*
G01*
X145140877Y-52925285D01*
X145193528Y-52935328D01*
X145244686Y-52941093D01*
X145269782Y-52949874D01*
X145301170Y-52955862D01*
X145342573Y-52975345D01*
X145382114Y-52989181D01*
X145412351Y-53008180D01*
X145448823Y-53025343D01*
X145477750Y-53049273D01*
X145505395Y-53066644D01*
X145537230Y-53098479D01*
X145574559Y-53129360D01*
X145591690Y-53152939D01*
X145608355Y-53169604D01*
X145637513Y-53216008D01*
X145670476Y-53261378D01*
X145678065Y-53280547D01*
X145685818Y-53292885D01*
X145707624Y-53355205D01*
X145730548Y-53413103D01*
X145732053Y-53425017D01*
X145733906Y-53430313D01*
X145743679Y-53517049D01*
X145751000Y-53575000D01*
X145751000Y-54125000D01*
X145745867Y-54206592D01*
X145737221Y-54240264D01*
X145733906Y-54269686D01*
X145717982Y-54315193D01*
X145705284Y-54364649D01*
X145692610Y-54387702D01*
X145685818Y-54407114D01*
X145654803Y-54456472D01*
X145626670Y-54507648D01*
X145614514Y-54520592D01*
X145608355Y-54530395D01*
X145558372Y-54580377D01*
X145514963Y-54626604D01*
X145507253Y-54631496D01*
X145505395Y-54633355D01*
X145397116Y-54701391D01*
X145377182Y-54714042D01*
X145317232Y-54733520D01*
X145244686Y-54758906D01*
X145236143Y-54759868D01*
X145221985Y-54764469D01*
X145161601Y-54768267D01*
X145100000Y-54775209D01*
X145082540Y-54773241D01*
X145059123Y-54774715D01*
X145006459Y-54764669D01*
X144955313Y-54758906D01*
X144930221Y-54750126D01*
X144898830Y-54744138D01*
X144857421Y-54724652D01*
X144817885Y-54710818D01*
X144787650Y-54691820D01*
X144751177Y-54674657D01*
X144722247Y-54650724D01*
X144694604Y-54633355D01*
X144662769Y-54601520D01*
X144625441Y-54570640D01*
X144608309Y-54547060D01*
X144591644Y-54530395D01*
X144562484Y-54483987D01*
X144529524Y-54438622D01*
X144521935Y-54419454D01*
X144514181Y-54407114D01*
X144492369Y-54344780D01*
X144469452Y-54286897D01*
X144467947Y-54274984D01*
X144466093Y-54269686D01*
X144456317Y-54182927D01*
X144449000Y-54125000D01*
X144449000Y-53575000D01*
X144454133Y-53493408D01*
X144462777Y-53459741D01*
X144466093Y-53430313D01*
X144482021Y-53384792D01*
X144494716Y-53335351D01*
X144507385Y-53312304D01*
X144514181Y-53292885D01*
X144545207Y-53243506D01*
X144573330Y-53192352D01*
X144585480Y-53179412D01*
X144591644Y-53169604D01*
X144641657Y-53119590D01*
X144685037Y-53073396D01*
X144692741Y-53068506D01*
X144694604Y-53066644D01*
X144803143Y-52998443D01*
X144822818Y-52985958D01*
X144882713Y-52966496D01*
X144955313Y-52941093D01*
X144963861Y-52940129D01*
X144978015Y-52935531D01*
X145038377Y-52931733D01*
X145100000Y-52924790D01*
X145117464Y-52926757D01*
G37*
G36*
X119525953Y-47791827D02*
G01*
X119869735Y-47867499D01*
X120203319Y-47979897D01*
X120522796Y-48127702D01*
X120824419Y-48309183D01*
X121104653Y-48522211D01*
X121360211Y-48764289D01*
X121588099Y-49032579D01*
X121785643Y-49323934D01*
X121950528Y-49634941D01*
X122080820Y-49961951D01*
X122174993Y-50301131D01*
X122231942Y-50648505D01*
X122251000Y-51000000D01*
X122231942Y-51351495D01*
X122174993Y-51698869D01*
X122080820Y-52038049D01*
X121950528Y-52365059D01*
X121785643Y-52676066D01*
X121588099Y-52967421D01*
X121360211Y-53235711D01*
X121104653Y-53477789D01*
X120824419Y-53690817D01*
X120522796Y-53872298D01*
X120203319Y-54020103D01*
X119869735Y-54132501D01*
X119525953Y-54208173D01*
X119176006Y-54246232D01*
X118823994Y-54246232D01*
X118474047Y-54208173D01*
X118130265Y-54132501D01*
X117796681Y-54020103D01*
X117477204Y-53872298D01*
X117175581Y-53690817D01*
X116895347Y-53477789D01*
X116639789Y-53235711D01*
X116411901Y-52967421D01*
X116214357Y-52676066D01*
X116049472Y-52365059D01*
X115919180Y-52038049D01*
X115825007Y-51698869D01*
X115768058Y-51351495D01*
X115749000Y-51000000D01*
X115768058Y-50648505D01*
X115825007Y-50301131D01*
X115919180Y-49961951D01*
X116049472Y-49634941D01*
X116214357Y-49323934D01*
X116411901Y-49032579D01*
X116639789Y-48764289D01*
X116895347Y-48522211D01*
X117175581Y-48309183D01*
X117477204Y-48127702D01*
X117796681Y-47979897D01*
X118130265Y-47867499D01*
X118474047Y-47791827D01*
X118823994Y-47753768D01*
X119176006Y-47753768D01*
X119525953Y-47791827D01*
G37*
G36*
X156525953Y-47791827D02*
G01*
X156869735Y-47867499D01*
X157203319Y-47979897D01*
X157522796Y-48127702D01*
X157824419Y-48309183D01*
X158104653Y-48522211D01*
X158360211Y-48764289D01*
X158588099Y-49032579D01*
X158785643Y-49323934D01*
X158950528Y-49634941D01*
X159080820Y-49961951D01*
X159174993Y-50301131D01*
X159231942Y-50648505D01*
X159251000Y-51000000D01*
X159231942Y-51351495D01*
X159174993Y-51698869D01*
X159080820Y-52038049D01*
X158950528Y-52365059D01*
X158785643Y-52676066D01*
X158588099Y-52967421D01*
X158360211Y-53235711D01*
X158104653Y-53477789D01*
X157824419Y-53690817D01*
X157522796Y-53872298D01*
X157203319Y-54020103D01*
X156869735Y-54132501D01*
X156525953Y-54208173D01*
X156176006Y-54246232D01*
X155823994Y-54246232D01*
X155474047Y-54208173D01*
X155130265Y-54132501D01*
X154796681Y-54020103D01*
X154477204Y-53872298D01*
X154175581Y-53690817D01*
X153895347Y-53477789D01*
X153639789Y-53235711D01*
X153411901Y-52967421D01*
X153214357Y-52676066D01*
X153049472Y-52365059D01*
X152919180Y-52038049D01*
X152825007Y-51698869D01*
X152768058Y-51351495D01*
X152749000Y-51000000D01*
X152768058Y-50648505D01*
X152825007Y-50301131D01*
X152919180Y-49961951D01*
X153049472Y-49634941D01*
X153214357Y-49323934D01*
X153411901Y-49032579D01*
X153639789Y-48764289D01*
X153895347Y-48522211D01*
X154175581Y-48309183D01*
X154477204Y-48127702D01*
X154796681Y-47979897D01*
X155130265Y-47867499D01*
X155474047Y-47791827D01*
X155823994Y-47753768D01*
X156176006Y-47753768D01*
X156525953Y-47791827D01*
G37*
G36*
X125466040Y-50202190D02*
G01*
X125498987Y-50206528D01*
X125507274Y-50210392D01*
X125526919Y-50214300D01*
X125552938Y-50231686D01*
X125564180Y-50236928D01*
X125571019Y-50243767D01*
X125592128Y-50257872D01*
X125606232Y-50278980D01*
X125613071Y-50285819D01*
X125618312Y-50297058D01*
X125635700Y-50323081D01*
X125639607Y-50342727D01*
X125643471Y-50351012D01*
X125647806Y-50383946D01*
X125651000Y-50400000D01*
X125651000Y-51650000D01*
X125647806Y-51666054D01*
X125643471Y-51698987D01*
X125639608Y-51707270D01*
X125635700Y-51726919D01*
X125618310Y-51752943D01*
X125613071Y-51764180D01*
X125606234Y-51771016D01*
X125592128Y-51792128D01*
X125571016Y-51806234D01*
X125564180Y-51813071D01*
X125552943Y-51818310D01*
X125526919Y-51835700D01*
X125507270Y-51839608D01*
X125498987Y-51843471D01*
X125466054Y-51847806D01*
X125450000Y-51851000D01*
X125150000Y-51851000D01*
X125133946Y-51847806D01*
X125101012Y-51843471D01*
X125092727Y-51839607D01*
X125073081Y-51835700D01*
X125047058Y-51818312D01*
X125035819Y-51813071D01*
X125028980Y-51806232D01*
X125007872Y-51792128D01*
X124993767Y-51771019D01*
X124986928Y-51764180D01*
X124981686Y-51752938D01*
X124964300Y-51726919D01*
X124960392Y-51707274D01*
X124956528Y-51698987D01*
X124952190Y-51666040D01*
X124949000Y-51650000D01*
X124949000Y-50400000D01*
X124952190Y-50383961D01*
X124956528Y-50351012D01*
X124960392Y-50342723D01*
X124964300Y-50323081D01*
X124981684Y-50297063D01*
X124986928Y-50285819D01*
X124993769Y-50278977D01*
X125007872Y-50257872D01*
X125028977Y-50243769D01*
X125035819Y-50236928D01*
X125047063Y-50231684D01*
X125073081Y-50214300D01*
X125092723Y-50210392D01*
X125101012Y-50206528D01*
X125133961Y-50202190D01*
X125150000Y-50199000D01*
X125450000Y-50199000D01*
X125466040Y-50202190D01*
G37*
G36*
X126466040Y-50202190D02*
G01*
X126498987Y-50206528D01*
X126507274Y-50210392D01*
X126526919Y-50214300D01*
X126552938Y-50231686D01*
X126564180Y-50236928D01*
X126571019Y-50243767D01*
X126592128Y-50257872D01*
X126606232Y-50278980D01*
X126613071Y-50285819D01*
X126618312Y-50297058D01*
X126635700Y-50323081D01*
X126639607Y-50342727D01*
X126643471Y-50351012D01*
X126647806Y-50383946D01*
X126651000Y-50400000D01*
X126651000Y-51650000D01*
X126647806Y-51666054D01*
X126643471Y-51698987D01*
X126639608Y-51707270D01*
X126635700Y-51726919D01*
X126618310Y-51752943D01*
X126613071Y-51764180D01*
X126606234Y-51771016D01*
X126592128Y-51792128D01*
X126571016Y-51806234D01*
X126564180Y-51813071D01*
X126552943Y-51818310D01*
X126526919Y-51835700D01*
X126507270Y-51839608D01*
X126498987Y-51843471D01*
X126466054Y-51847806D01*
X126450000Y-51851000D01*
X126150000Y-51851000D01*
X126133946Y-51847806D01*
X126101012Y-51843471D01*
X126092727Y-51839607D01*
X126073081Y-51835700D01*
X126047058Y-51818312D01*
X126035819Y-51813071D01*
X126028980Y-51806232D01*
X126007872Y-51792128D01*
X125993767Y-51771019D01*
X125986928Y-51764180D01*
X125981686Y-51752938D01*
X125964300Y-51726919D01*
X125960392Y-51707274D01*
X125956528Y-51698987D01*
X125952190Y-51666040D01*
X125949000Y-51650000D01*
X125949000Y-50400000D01*
X125952190Y-50383961D01*
X125956528Y-50351012D01*
X125960392Y-50342723D01*
X125964300Y-50323081D01*
X125981684Y-50297063D01*
X125986928Y-50285819D01*
X125993769Y-50278977D01*
X126007872Y-50257872D01*
X126028977Y-50243769D01*
X126035819Y-50236928D01*
X126047063Y-50231684D01*
X126073081Y-50214300D01*
X126092723Y-50210392D01*
X126101012Y-50206528D01*
X126133961Y-50202190D01*
X126150000Y-50199000D01*
X126450000Y-50199000D01*
X126466040Y-50202190D01*
G37*
G36*
X127466040Y-50202190D02*
G01*
X127498987Y-50206528D01*
X127507274Y-50210392D01*
X127526919Y-50214300D01*
X127552938Y-50231686D01*
X127564180Y-50236928D01*
X127571019Y-50243767D01*
X127592128Y-50257872D01*
X127606232Y-50278980D01*
X127613071Y-50285819D01*
X127618312Y-50297058D01*
X127635700Y-50323081D01*
X127639607Y-50342727D01*
X127643471Y-50351012D01*
X127647806Y-50383946D01*
X127651000Y-50400000D01*
X127651000Y-51650000D01*
X127647806Y-51666054D01*
X127643471Y-51698987D01*
X127639608Y-51707270D01*
X127635700Y-51726919D01*
X127618310Y-51752943D01*
X127613071Y-51764180D01*
X127606234Y-51771016D01*
X127592128Y-51792128D01*
X127571016Y-51806234D01*
X127564180Y-51813071D01*
X127552943Y-51818310D01*
X127526919Y-51835700D01*
X127507270Y-51839608D01*
X127498987Y-51843471D01*
X127466054Y-51847806D01*
X127450000Y-51851000D01*
X127150000Y-51851000D01*
X127133946Y-51847806D01*
X127101012Y-51843471D01*
X127092727Y-51839607D01*
X127073081Y-51835700D01*
X127047058Y-51818312D01*
X127035819Y-51813071D01*
X127028980Y-51806232D01*
X127007872Y-51792128D01*
X126993767Y-51771019D01*
X126986928Y-51764180D01*
X126981686Y-51752938D01*
X126964300Y-51726919D01*
X126960392Y-51707274D01*
X126956528Y-51698987D01*
X126952190Y-51666040D01*
X126949000Y-51650000D01*
X126949000Y-50400000D01*
X126952190Y-50383961D01*
X126956528Y-50351012D01*
X126960392Y-50342723D01*
X126964300Y-50323081D01*
X126981684Y-50297063D01*
X126986928Y-50285819D01*
X126993769Y-50278977D01*
X127007872Y-50257872D01*
X127028977Y-50243769D01*
X127035819Y-50236928D01*
X127047063Y-50231684D01*
X127073081Y-50214300D01*
X127092723Y-50210392D01*
X127101012Y-50206528D01*
X127133961Y-50202190D01*
X127150000Y-50199000D01*
X127450000Y-50199000D01*
X127466040Y-50202190D01*
G37*
G36*
X128466040Y-50202190D02*
G01*
X128498987Y-50206528D01*
X128507274Y-50210392D01*
X128526919Y-50214300D01*
X128552938Y-50231686D01*
X128564180Y-50236928D01*
X128571019Y-50243767D01*
X128592128Y-50257872D01*
X128606232Y-50278980D01*
X128613071Y-50285819D01*
X128618312Y-50297058D01*
X128635700Y-50323081D01*
X128639607Y-50342727D01*
X128643471Y-50351012D01*
X128647806Y-50383946D01*
X128651000Y-50400000D01*
X128651000Y-51650000D01*
X128647806Y-51666054D01*
X128643471Y-51698987D01*
X128639608Y-51707270D01*
X128635700Y-51726919D01*
X128618310Y-51752943D01*
X128613071Y-51764180D01*
X128606234Y-51771016D01*
X128592128Y-51792128D01*
X128571016Y-51806234D01*
X128564180Y-51813071D01*
X128552943Y-51818310D01*
X128526919Y-51835700D01*
X128507270Y-51839608D01*
X128498987Y-51843471D01*
X128466054Y-51847806D01*
X128450000Y-51851000D01*
X128150000Y-51851000D01*
X128133946Y-51847806D01*
X128101012Y-51843471D01*
X128092727Y-51839607D01*
X128073081Y-51835700D01*
X128047058Y-51818312D01*
X128035819Y-51813071D01*
X128028980Y-51806232D01*
X128007872Y-51792128D01*
X127993767Y-51771019D01*
X127986928Y-51764180D01*
X127981686Y-51752938D01*
X127964300Y-51726919D01*
X127960392Y-51707274D01*
X127956528Y-51698987D01*
X127952190Y-51666040D01*
X127949000Y-51650000D01*
X127949000Y-50400000D01*
X127952190Y-50383961D01*
X127956528Y-50351012D01*
X127960392Y-50342723D01*
X127964300Y-50323081D01*
X127981684Y-50297063D01*
X127986928Y-50285819D01*
X127993769Y-50278977D01*
X128007872Y-50257872D01*
X128028977Y-50243769D01*
X128035819Y-50236928D01*
X128047063Y-50231684D01*
X128073081Y-50214300D01*
X128092723Y-50210392D01*
X128101012Y-50206528D01*
X128133961Y-50202190D01*
X128150000Y-50199000D01*
X128450000Y-50199000D01*
X128466040Y-50202190D01*
G37*
G36*
X133866040Y-50202190D02*
G01*
X133898987Y-50206528D01*
X133907274Y-50210392D01*
X133926919Y-50214300D01*
X133952938Y-50231686D01*
X133964180Y-50236928D01*
X133971019Y-50243767D01*
X133992128Y-50257872D01*
X134006232Y-50278980D01*
X134013071Y-50285819D01*
X134018312Y-50297058D01*
X134035700Y-50323081D01*
X134039607Y-50342727D01*
X134043471Y-50351012D01*
X134047806Y-50383946D01*
X134051000Y-50400000D01*
X134051000Y-51650000D01*
X134047806Y-51666054D01*
X134043471Y-51698987D01*
X134039608Y-51707270D01*
X134035700Y-51726919D01*
X134018310Y-51752943D01*
X134013071Y-51764180D01*
X134006234Y-51771016D01*
X133992128Y-51792128D01*
X133971016Y-51806234D01*
X133964180Y-51813071D01*
X133952943Y-51818310D01*
X133926919Y-51835700D01*
X133907270Y-51839608D01*
X133898987Y-51843471D01*
X133866054Y-51847806D01*
X133850000Y-51851000D01*
X133550000Y-51851000D01*
X133533946Y-51847806D01*
X133501012Y-51843471D01*
X133492727Y-51839607D01*
X133473081Y-51835700D01*
X133447058Y-51818312D01*
X133435819Y-51813071D01*
X133428980Y-51806232D01*
X133407872Y-51792128D01*
X133393767Y-51771019D01*
X133386928Y-51764180D01*
X133381686Y-51752938D01*
X133364300Y-51726919D01*
X133360392Y-51707274D01*
X133356528Y-51698987D01*
X133352190Y-51666040D01*
X133349000Y-51650000D01*
X133349000Y-50400000D01*
X133352190Y-50383961D01*
X133356528Y-50351012D01*
X133360392Y-50342723D01*
X133364300Y-50323081D01*
X133381684Y-50297063D01*
X133386928Y-50285819D01*
X133393769Y-50278977D01*
X133407872Y-50257872D01*
X133428977Y-50243769D01*
X133435819Y-50236928D01*
X133447063Y-50231684D01*
X133473081Y-50214300D01*
X133492723Y-50210392D01*
X133501012Y-50206528D01*
X133533961Y-50202190D01*
X133550000Y-50199000D01*
X133850000Y-50199000D01*
X133866040Y-50202190D01*
G37*
G36*
X134866040Y-50202190D02*
G01*
X134898987Y-50206528D01*
X134907274Y-50210392D01*
X134926919Y-50214300D01*
X134952938Y-50231686D01*
X134964180Y-50236928D01*
X134971019Y-50243767D01*
X134992128Y-50257872D01*
X135006232Y-50278980D01*
X135013071Y-50285819D01*
X135018312Y-50297058D01*
X135035700Y-50323081D01*
X135039607Y-50342727D01*
X135043471Y-50351012D01*
X135047806Y-50383946D01*
X135051000Y-50400000D01*
X135051000Y-51650000D01*
X135047806Y-51666054D01*
X135043471Y-51698987D01*
X135039608Y-51707270D01*
X135035700Y-51726919D01*
X135018310Y-51752943D01*
X135013071Y-51764180D01*
X135006234Y-51771016D01*
X134992128Y-51792128D01*
X134971016Y-51806234D01*
X134964180Y-51813071D01*
X134952943Y-51818310D01*
X134926919Y-51835700D01*
X134907270Y-51839608D01*
X134898987Y-51843471D01*
X134866054Y-51847806D01*
X134850000Y-51851000D01*
X134550000Y-51851000D01*
X134533946Y-51847806D01*
X134501012Y-51843471D01*
X134492727Y-51839607D01*
X134473081Y-51835700D01*
X134447058Y-51818312D01*
X134435819Y-51813071D01*
X134428980Y-51806232D01*
X134407872Y-51792128D01*
X134393767Y-51771019D01*
X134386928Y-51764180D01*
X134381686Y-51752938D01*
X134364300Y-51726919D01*
X134360392Y-51707274D01*
X134356528Y-51698987D01*
X134352190Y-51666040D01*
X134349000Y-51650000D01*
X134349000Y-50400000D01*
X134352190Y-50383961D01*
X134356528Y-50351012D01*
X134360392Y-50342723D01*
X134364300Y-50323081D01*
X134381684Y-50297063D01*
X134386928Y-50285819D01*
X134393769Y-50278977D01*
X134407872Y-50257872D01*
X134428977Y-50243769D01*
X134435819Y-50236928D01*
X134447063Y-50231684D01*
X134473081Y-50214300D01*
X134492723Y-50210392D01*
X134501012Y-50206528D01*
X134533961Y-50202190D01*
X134550000Y-50199000D01*
X134850000Y-50199000D01*
X134866040Y-50202190D01*
G37*
G36*
X135866040Y-50202190D02*
G01*
X135898987Y-50206528D01*
X135907274Y-50210392D01*
X135926919Y-50214300D01*
X135952938Y-50231686D01*
X135964180Y-50236928D01*
X135971019Y-50243767D01*
X135992128Y-50257872D01*
X136006232Y-50278980D01*
X136013071Y-50285819D01*
X136018312Y-50297058D01*
X136035700Y-50323081D01*
X136039607Y-50342727D01*
X136043471Y-50351012D01*
X136047806Y-50383946D01*
X136051000Y-50400000D01*
X136051000Y-51650000D01*
X136047806Y-51666054D01*
X136043471Y-51698987D01*
X136039608Y-51707270D01*
X136035700Y-51726919D01*
X136018310Y-51752943D01*
X136013071Y-51764180D01*
X136006234Y-51771016D01*
X135992128Y-51792128D01*
X135971016Y-51806234D01*
X135964180Y-51813071D01*
X135952943Y-51818310D01*
X135926919Y-51835700D01*
X135907270Y-51839608D01*
X135898987Y-51843471D01*
X135866054Y-51847806D01*
X135850000Y-51851000D01*
X135550000Y-51851000D01*
X135533946Y-51847806D01*
X135501012Y-51843471D01*
X135492727Y-51839607D01*
X135473081Y-51835700D01*
X135447058Y-51818312D01*
X135435819Y-51813071D01*
X135428980Y-51806232D01*
X135407872Y-51792128D01*
X135393767Y-51771019D01*
X135386928Y-51764180D01*
X135381686Y-51752938D01*
X135364300Y-51726919D01*
X135360392Y-51707274D01*
X135356528Y-51698987D01*
X135352190Y-51666040D01*
X135349000Y-51650000D01*
X135349000Y-50400000D01*
X135352190Y-50383961D01*
X135356528Y-50351012D01*
X135360392Y-50342723D01*
X135364300Y-50323081D01*
X135381684Y-50297063D01*
X135386928Y-50285819D01*
X135393769Y-50278977D01*
X135407872Y-50257872D01*
X135428977Y-50243769D01*
X135435819Y-50236928D01*
X135447063Y-50231684D01*
X135473081Y-50214300D01*
X135492723Y-50210392D01*
X135501012Y-50206528D01*
X135533961Y-50202190D01*
X135550000Y-50199000D01*
X135850000Y-50199000D01*
X135866040Y-50202190D01*
G37*
G36*
X136866040Y-50202190D02*
G01*
X136898987Y-50206528D01*
X136907274Y-50210392D01*
X136926919Y-50214300D01*
X136952938Y-50231686D01*
X136964180Y-50236928D01*
X136971019Y-50243767D01*
X136992128Y-50257872D01*
X137006232Y-50278980D01*
X137013071Y-50285819D01*
X137018312Y-50297058D01*
X137035700Y-50323081D01*
X137039607Y-50342727D01*
X137043471Y-50351012D01*
X137047806Y-50383946D01*
X137051000Y-50400000D01*
X137051000Y-51650000D01*
X137047806Y-51666054D01*
X137043471Y-51698987D01*
X137039608Y-51707270D01*
X137035700Y-51726919D01*
X137018310Y-51752943D01*
X137013071Y-51764180D01*
X137006234Y-51771016D01*
X136992128Y-51792128D01*
X136971016Y-51806234D01*
X136964180Y-51813071D01*
X136952943Y-51818310D01*
X136926919Y-51835700D01*
X136907270Y-51839608D01*
X136898987Y-51843471D01*
X136866054Y-51847806D01*
X136850000Y-51851000D01*
X136550000Y-51851000D01*
X136533946Y-51847806D01*
X136501012Y-51843471D01*
X136492727Y-51839607D01*
X136473081Y-51835700D01*
X136447058Y-51818312D01*
X136435819Y-51813071D01*
X136428980Y-51806232D01*
X136407872Y-51792128D01*
X136393767Y-51771019D01*
X136386928Y-51764180D01*
X136381686Y-51752938D01*
X136364300Y-51726919D01*
X136360392Y-51707274D01*
X136356528Y-51698987D01*
X136352190Y-51666040D01*
X136349000Y-51650000D01*
X136349000Y-50400000D01*
X136352190Y-50383961D01*
X136356528Y-50351012D01*
X136360392Y-50342723D01*
X136364300Y-50323081D01*
X136381684Y-50297063D01*
X136386928Y-50285819D01*
X136393769Y-50278977D01*
X136407872Y-50257872D01*
X136428977Y-50243769D01*
X136435819Y-50236928D01*
X136447063Y-50231684D01*
X136473081Y-50214300D01*
X136492723Y-50210392D01*
X136501012Y-50206528D01*
X136533961Y-50202190D01*
X136550000Y-50199000D01*
X136850000Y-50199000D01*
X136866040Y-50202190D01*
G37*
G36*
X124418914Y-47556995D02*
G01*
X124434726Y-47563976D01*
X124442531Y-47565213D01*
X124475039Y-47581776D01*
X124520106Y-47601676D01*
X124598324Y-47679894D01*
X124618226Y-47724967D01*
X124634786Y-47757468D01*
X124636021Y-47765270D01*
X124643005Y-47781086D01*
X124651000Y-47850000D01*
X124651000Y-49150000D01*
X124643005Y-49218914D01*
X124636021Y-49234729D01*
X124634786Y-49242531D01*
X124618229Y-49275024D01*
X124598324Y-49320106D01*
X124520106Y-49398324D01*
X124475024Y-49418229D01*
X124442531Y-49434786D01*
X124434729Y-49436021D01*
X124418914Y-49443005D01*
X124350000Y-49451000D01*
X123650000Y-49451000D01*
X123581086Y-49443005D01*
X123565270Y-49436021D01*
X123557468Y-49434786D01*
X123524967Y-49418226D01*
X123479894Y-49398324D01*
X123401676Y-49320106D01*
X123381776Y-49275039D01*
X123365213Y-49242531D01*
X123363976Y-49234726D01*
X123356995Y-49218914D01*
X123349000Y-49150000D01*
X123349000Y-47850000D01*
X123356995Y-47781086D01*
X123363976Y-47765274D01*
X123365213Y-47757468D01*
X123381780Y-47724953D01*
X123401676Y-47679894D01*
X123479894Y-47601676D01*
X123524953Y-47581780D01*
X123557468Y-47565213D01*
X123565274Y-47563976D01*
X123581086Y-47556995D01*
X123650000Y-47549000D01*
X124350000Y-47549000D01*
X124418914Y-47556995D01*
G37*
G36*
X130018914Y-47556995D02*
G01*
X130034726Y-47563976D01*
X130042531Y-47565213D01*
X130075039Y-47581776D01*
X130120106Y-47601676D01*
X130198324Y-47679894D01*
X130218226Y-47724967D01*
X130234786Y-47757468D01*
X130236021Y-47765270D01*
X130243005Y-47781086D01*
X130251000Y-47850000D01*
X130251000Y-49150000D01*
X130243005Y-49218914D01*
X130236021Y-49234729D01*
X130234786Y-49242531D01*
X130218229Y-49275024D01*
X130198324Y-49320106D01*
X130120106Y-49398324D01*
X130075024Y-49418229D01*
X130042531Y-49434786D01*
X130034729Y-49436021D01*
X130018914Y-49443005D01*
X129950000Y-49451000D01*
X129250000Y-49451000D01*
X129181086Y-49443005D01*
X129165270Y-49436021D01*
X129157468Y-49434786D01*
X129124967Y-49418226D01*
X129079894Y-49398324D01*
X129001676Y-49320106D01*
X128981776Y-49275039D01*
X128965213Y-49242531D01*
X128963976Y-49234726D01*
X128956995Y-49218914D01*
X128949000Y-49150000D01*
X128949000Y-47850000D01*
X128956995Y-47781086D01*
X128963976Y-47765274D01*
X128965213Y-47757468D01*
X128981780Y-47724953D01*
X129001676Y-47679894D01*
X129079894Y-47601676D01*
X129124953Y-47581780D01*
X129157468Y-47565213D01*
X129165274Y-47563976D01*
X129181086Y-47556995D01*
X129250000Y-47549000D01*
X129950000Y-47549000D01*
X130018914Y-47556995D01*
G37*
G36*
X132818914Y-47556995D02*
G01*
X132834726Y-47563976D01*
X132842531Y-47565213D01*
X132875039Y-47581776D01*
X132920106Y-47601676D01*
X132998324Y-47679894D01*
X133018226Y-47724967D01*
X133034786Y-47757468D01*
X133036021Y-47765270D01*
X133043005Y-47781086D01*
X133051000Y-47850000D01*
X133051000Y-49150000D01*
X133043005Y-49218914D01*
X133036021Y-49234729D01*
X133034786Y-49242531D01*
X133018229Y-49275024D01*
X132998324Y-49320106D01*
X132920106Y-49398324D01*
X132875024Y-49418229D01*
X132842531Y-49434786D01*
X132834729Y-49436021D01*
X132818914Y-49443005D01*
X132750000Y-49451000D01*
X132050000Y-49451000D01*
X131981086Y-49443005D01*
X131965270Y-49436021D01*
X131957468Y-49434786D01*
X131924967Y-49418226D01*
X131879894Y-49398324D01*
X131801676Y-49320106D01*
X131781776Y-49275039D01*
X131765213Y-49242531D01*
X131763976Y-49234726D01*
X131756995Y-49218914D01*
X131749000Y-49150000D01*
X131749000Y-47850000D01*
X131756995Y-47781086D01*
X131763976Y-47765274D01*
X131765213Y-47757468D01*
X131781780Y-47724953D01*
X131801676Y-47679894D01*
X131879894Y-47601676D01*
X131924953Y-47581780D01*
X131957468Y-47565213D01*
X131965274Y-47563976D01*
X131981086Y-47556995D01*
X132050000Y-47549000D01*
X132750000Y-47549000D01*
X132818914Y-47556995D01*
G37*
G36*
X138418914Y-47556995D02*
G01*
X138434726Y-47563976D01*
X138442531Y-47565213D01*
X138475039Y-47581776D01*
X138520106Y-47601676D01*
X138598324Y-47679894D01*
X138618226Y-47724967D01*
X138634786Y-47757468D01*
X138636021Y-47765270D01*
X138643005Y-47781086D01*
X138651000Y-47850000D01*
X138651000Y-49150000D01*
X138643005Y-49218914D01*
X138636021Y-49234729D01*
X138634786Y-49242531D01*
X138618229Y-49275024D01*
X138598324Y-49320106D01*
X138520106Y-49398324D01*
X138475024Y-49418229D01*
X138442531Y-49434786D01*
X138434729Y-49436021D01*
X138418914Y-49443005D01*
X138350000Y-49451000D01*
X137650000Y-49451000D01*
X137581086Y-49443005D01*
X137565270Y-49436021D01*
X137557468Y-49434786D01*
X137524967Y-49418226D01*
X137479894Y-49398324D01*
X137401676Y-49320106D01*
X137381776Y-49275039D01*
X137365213Y-49242531D01*
X137363976Y-49234726D01*
X137356995Y-49218914D01*
X137349000Y-49150000D01*
X137349000Y-47850000D01*
X137356995Y-47781086D01*
X137363976Y-47765274D01*
X137365213Y-47757468D01*
X137381780Y-47724953D01*
X137401676Y-47679894D01*
X137479894Y-47601676D01*
X137524953Y-47581780D01*
X137557468Y-47565213D01*
X137565274Y-47563976D01*
X137581086Y-47556995D01*
X137650000Y-47549000D01*
X138350000Y-47549000D01*
X138418914Y-47556995D01*
G37*
M02*
