M48
; DRILL file {KiCad 7.0.9} date Tue Oct 15 17:03:29 2024
; FORMAT={-:-/ absolute / inch / decimal}
; #@! TF.CreationDate,2024-10-15T17:03:29-06:00
; #@! TF.GenerationSoftware,Kicad,Pcbnew,7.0.9
; #@! TF.FileFunction,Plated,1,4,PTH
FMAT,2
INCH
; #@! TA.AperFunction,Plated,PTH,ViaDrill
T1C0.0157
; #@! TA.AperFunction,Plated,PTH,ComponentDrill
T2C0.0300
; #@! TA.AperFunction,Plated,PTH,ComponentDrill
T3C0.1260
%
G90
G05
T1
X4.4193Y-3.1594
X4.435Y-3.4941
X4.435Y-3.687
X4.5728Y-3.5098
X4.6043Y-3.1673
X4.7067Y-3.565
X4.7303Y-3.6713
X4.7736Y-3.4587
X4.7736Y-3.8169
X4.8215Y-3.8175
X4.8346Y-3.1575
X4.8406Y-3.4823
X4.8563Y-3.7303
X4.9665Y-3.4744
X4.9744Y-3.5413
X5.0217Y-3.3839
X5.0256Y-3.6043
X5.0689Y-3.6949
X5.1713Y-3.9028
X5.1807Y-3.6557
X5.1969Y-3.5039
X5.1988Y-3.6299
X5.1988Y-3.7106
X5.2251Y-3.1842
X5.2933Y-3.6634
X5.3248Y-3.4922
X5.3327Y-3.5413
X5.3327Y-3.5925
X5.3917Y-3.1713
X5.4035Y-3.5138
T2
X4.9185Y-3.1898
X4.9185Y-3.3898
X5.0185Y-3.2898
T3
X4.0551Y-3.3071
X4.0551Y-3.8189
X5.3543Y-3.3071
X5.3543Y-3.8189
T0
M30
