%TF.GenerationSoftware,KiCad,Pcbnew,7.0.9*%
%TF.CreationDate,2024-10-15T17:03:29-06:00*%
%TF.ProjectId,howland,686f776c-616e-4642-9e6b-696361645f70,rev?*%
%TF.SameCoordinates,Original*%
%TF.FileFunction,Legend,Bot*%
%TF.FilePolarity,Positive*%
%FSLAX46Y46*%
G04 Gerber Fmt 4.6, Leading zero omitted, Abs format (unit mm)*
G04 Created by KiCad (PCBNEW 7.0.9) date 2024-10-15 17:03:29*
%MOMM*%
%LPD*%
G01*
G04 APERTURE LIST*
G04 Aperture macros list*
%AMRoundRect*
0 Rectangle with rounded corners*
0 $1 Rounding radius*
0 $2 $3 $4 $5 $6 $7 $8 $9 X,Y pos of 4 corners*
0 Add a 4 corners polygon primitive as box body*
4,1,4,$2,$3,$4,$5,$6,$7,$8,$9,$2,$3,0*
0 Add four circle primitives for the rounded corners*
1,1,$1+$1,$2,$3*
1,1,$1+$1,$4,$5*
1,1,$1+$1,$6,$7*
1,1,$1+$1,$8,$9*
0 Add four rect primitives between the rounded corners*
20,1,$1+$1,$2,$3,$4,$5,0*
20,1,$1+$1,$4,$5,$6,$7,0*
20,1,$1+$1,$6,$7,$8,$9,0*
20,1,$1+$1,$8,$9,$2,$3,0*%
G04 Aperture macros list end*
%ADD10C,0.150000*%
%ADD11C,0.120000*%
%ADD12C,6.000000*%
%ADD13C,1.920000*%
%ADD14RoundRect,0.350000X-0.625000X0.150000X-0.625000X-0.150000X0.625000X-0.150000X0.625000X0.150000X0*%
%ADD15RoundRect,0.450000X-0.650000X0.350000X-0.650000X-0.350000X0.650000X-0.350000X0.650000X0.350000X0*%
G04 APERTURE END LIST*
D10*
X107810000Y-91260000D02*
X112810000Y-91260000D01*
X112810000Y-96260000D01*
X107810000Y-96260000D01*
X107810000Y-91260000D01*
G36*
X107810000Y-91260000D02*
G01*
X112810000Y-91260000D01*
X112810000Y-96260000D01*
X107810000Y-96260000D01*
X107810000Y-91260000D01*
G37*
X131573220Y-88879819D02*
X131573220Y-87879819D01*
X131573220Y-87879819D02*
X131192268Y-87879819D01*
X131192268Y-87879819D02*
X131097030Y-87927438D01*
X131097030Y-87927438D02*
X131049411Y-87975057D01*
X131049411Y-87975057D02*
X131001792Y-88070295D01*
X131001792Y-88070295D02*
X131001792Y-88213152D01*
X131001792Y-88213152D02*
X131049411Y-88308390D01*
X131049411Y-88308390D02*
X131097030Y-88356009D01*
X131097030Y-88356009D02*
X131192268Y-88403628D01*
X131192268Y-88403628D02*
X131573220Y-88403628D01*
X130001792Y-88784580D02*
X130049411Y-88832200D01*
X130049411Y-88832200D02*
X130192268Y-88879819D01*
X130192268Y-88879819D02*
X130287506Y-88879819D01*
X130287506Y-88879819D02*
X130430363Y-88832200D01*
X130430363Y-88832200D02*
X130525601Y-88736961D01*
X130525601Y-88736961D02*
X130573220Y-88641723D01*
X130573220Y-88641723D02*
X130620839Y-88451247D01*
X130620839Y-88451247D02*
X130620839Y-88308390D01*
X130620839Y-88308390D02*
X130573220Y-88117914D01*
X130573220Y-88117914D02*
X130525601Y-88022676D01*
X130525601Y-88022676D02*
X130430363Y-87927438D01*
X130430363Y-87927438D02*
X130287506Y-87879819D01*
X130287506Y-87879819D02*
X130192268Y-87879819D01*
X130192268Y-87879819D02*
X130049411Y-87927438D01*
X130049411Y-87927438D02*
X130001792Y-87975057D01*
X129239887Y-88356009D02*
X129097030Y-88403628D01*
X129097030Y-88403628D02*
X129049411Y-88451247D01*
X129049411Y-88451247D02*
X129001792Y-88546485D01*
X129001792Y-88546485D02*
X129001792Y-88689342D01*
X129001792Y-88689342D02*
X129049411Y-88784580D01*
X129049411Y-88784580D02*
X129097030Y-88832200D01*
X129097030Y-88832200D02*
X129192268Y-88879819D01*
X129192268Y-88879819D02*
X129573220Y-88879819D01*
X129573220Y-88879819D02*
X129573220Y-87879819D01*
X129573220Y-87879819D02*
X129239887Y-87879819D01*
X129239887Y-87879819D02*
X129144649Y-87927438D01*
X129144649Y-87927438D02*
X129097030Y-87975057D01*
X129097030Y-87975057D02*
X129049411Y-88070295D01*
X129049411Y-88070295D02*
X129049411Y-88165533D01*
X129049411Y-88165533D02*
X129097030Y-88260771D01*
X129097030Y-88260771D02*
X129144649Y-88308390D01*
X129144649Y-88308390D02*
X129239887Y-88356009D01*
X129239887Y-88356009D02*
X129573220Y-88356009D01*
X128573220Y-88784580D02*
X128525601Y-88832200D01*
X128525601Y-88832200D02*
X128573220Y-88879819D01*
X128573220Y-88879819D02*
X128620839Y-88832200D01*
X128620839Y-88832200D02*
X128573220Y-88784580D01*
X128573220Y-88784580D02*
X128573220Y-88879819D01*
X128573220Y-88260771D02*
X128525601Y-88308390D01*
X128525601Y-88308390D02*
X128573220Y-88356009D01*
X128573220Y-88356009D02*
X128620839Y-88308390D01*
X128620839Y-88308390D02*
X128573220Y-88260771D01*
X128573220Y-88260771D02*
X128573220Y-88356009D01*
X126811316Y-88879819D02*
X127382744Y-88879819D01*
X127097030Y-88879819D02*
X127097030Y-87879819D01*
X127097030Y-87879819D02*
X127192268Y-88022676D01*
X127192268Y-88022676D02*
X127287506Y-88117914D01*
X127287506Y-88117914D02*
X127382744Y-88165533D01*
X126192268Y-87879819D02*
X126097030Y-87879819D01*
X126097030Y-87879819D02*
X126001792Y-87927438D01*
X126001792Y-87927438D02*
X125954173Y-87975057D01*
X125954173Y-87975057D02*
X125906554Y-88070295D01*
X125906554Y-88070295D02*
X125858935Y-88260771D01*
X125858935Y-88260771D02*
X125858935Y-88498866D01*
X125858935Y-88498866D02*
X125906554Y-88689342D01*
X125906554Y-88689342D02*
X125954173Y-88784580D01*
X125954173Y-88784580D02*
X126001792Y-88832200D01*
X126001792Y-88832200D02*
X126097030Y-88879819D01*
X126097030Y-88879819D02*
X126192268Y-88879819D01*
X126192268Y-88879819D02*
X126287506Y-88832200D01*
X126287506Y-88832200D02*
X126335125Y-88784580D01*
X126335125Y-88784580D02*
X126382744Y-88689342D01*
X126382744Y-88689342D02*
X126430363Y-88498866D01*
X126430363Y-88498866D02*
X126430363Y-88260771D01*
X126430363Y-88260771D02*
X126382744Y-88070295D01*
X126382744Y-88070295D02*
X126335125Y-87975057D01*
X126335125Y-87975057D02*
X126287506Y-87927438D01*
X126287506Y-87927438D02*
X126192268Y-87879819D01*
X125239887Y-87879819D02*
X125144649Y-87879819D01*
X125144649Y-87879819D02*
X125049411Y-87927438D01*
X125049411Y-87927438D02*
X125001792Y-87975057D01*
X125001792Y-87975057D02*
X124954173Y-88070295D01*
X124954173Y-88070295D02*
X124906554Y-88260771D01*
X124906554Y-88260771D02*
X124906554Y-88498866D01*
X124906554Y-88498866D02*
X124954173Y-88689342D01*
X124954173Y-88689342D02*
X125001792Y-88784580D01*
X125001792Y-88784580D02*
X125049411Y-88832200D01*
X125049411Y-88832200D02*
X125144649Y-88879819D01*
X125144649Y-88879819D02*
X125239887Y-88879819D01*
X125239887Y-88879819D02*
X125335125Y-88832200D01*
X125335125Y-88832200D02*
X125382744Y-88784580D01*
X125382744Y-88784580D02*
X125430363Y-88689342D01*
X125430363Y-88689342D02*
X125477982Y-88498866D01*
X125477982Y-88498866D02*
X125477982Y-88260771D01*
X125477982Y-88260771D02*
X125430363Y-88070295D01*
X125430363Y-88070295D02*
X125382744Y-87975057D01*
X125382744Y-87975057D02*
X125335125Y-87927438D01*
X125335125Y-87927438D02*
X125239887Y-87879819D01*
X124287506Y-87879819D02*
X124192268Y-87879819D01*
X124192268Y-87879819D02*
X124097030Y-87927438D01*
X124097030Y-87927438D02*
X124049411Y-87975057D01*
X124049411Y-87975057D02*
X124001792Y-88070295D01*
X124001792Y-88070295D02*
X123954173Y-88260771D01*
X123954173Y-88260771D02*
X123954173Y-88498866D01*
X123954173Y-88498866D02*
X124001792Y-88689342D01*
X124001792Y-88689342D02*
X124049411Y-88784580D01*
X124049411Y-88784580D02*
X124097030Y-88832200D01*
X124097030Y-88832200D02*
X124192268Y-88879819D01*
X124192268Y-88879819D02*
X124287506Y-88879819D01*
X124287506Y-88879819D02*
X124382744Y-88832200D01*
X124382744Y-88832200D02*
X124430363Y-88784580D01*
X124430363Y-88784580D02*
X124477982Y-88689342D01*
X124477982Y-88689342D02*
X124525601Y-88498866D01*
X124525601Y-88498866D02*
X124525601Y-88260771D01*
X124525601Y-88260771D02*
X124477982Y-88070295D01*
X124477982Y-88070295D02*
X124430363Y-87975057D01*
X124430363Y-87975057D02*
X124382744Y-87927438D01*
X124382744Y-87927438D02*
X124287506Y-87879819D01*
X123477982Y-88879819D02*
X123287506Y-88879819D01*
X123287506Y-88879819D02*
X123192268Y-88832200D01*
X123192268Y-88832200D02*
X123144649Y-88784580D01*
X123144649Y-88784580D02*
X123049411Y-88641723D01*
X123049411Y-88641723D02*
X123001792Y-88451247D01*
X123001792Y-88451247D02*
X123001792Y-88070295D01*
X123001792Y-88070295D02*
X123049411Y-87975057D01*
X123049411Y-87975057D02*
X123097030Y-87927438D01*
X123097030Y-87927438D02*
X123192268Y-87879819D01*
X123192268Y-87879819D02*
X123382744Y-87879819D01*
X123382744Y-87879819D02*
X123477982Y-87927438D01*
X123477982Y-87927438D02*
X123525601Y-87975057D01*
X123525601Y-87975057D02*
X123573220Y-88070295D01*
X123573220Y-88070295D02*
X123573220Y-88308390D01*
X123573220Y-88308390D02*
X123525601Y-88403628D01*
X123525601Y-88403628D02*
X123477982Y-88451247D01*
X123477982Y-88451247D02*
X123382744Y-88498866D01*
X123382744Y-88498866D02*
X123192268Y-88498866D01*
X123192268Y-88498866D02*
X123097030Y-88451247D01*
X123097030Y-88451247D02*
X123049411Y-88403628D01*
X123049411Y-88403628D02*
X123001792Y-88308390D01*
X122573220Y-88498866D02*
X121811316Y-88498866D01*
X120906554Y-88213152D02*
X120906554Y-88879819D01*
X121144649Y-87832200D02*
X121382744Y-88546485D01*
X121382744Y-88546485D02*
X120763697Y-88546485D01*
X120192268Y-87879819D02*
X120097030Y-87879819D01*
X120097030Y-87879819D02*
X120001792Y-87927438D01*
X120001792Y-87927438D02*
X119954173Y-87975057D01*
X119954173Y-87975057D02*
X119906554Y-88070295D01*
X119906554Y-88070295D02*
X119858935Y-88260771D01*
X119858935Y-88260771D02*
X119858935Y-88498866D01*
X119858935Y-88498866D02*
X119906554Y-88689342D01*
X119906554Y-88689342D02*
X119954173Y-88784580D01*
X119954173Y-88784580D02*
X120001792Y-88832200D01*
X120001792Y-88832200D02*
X120097030Y-88879819D01*
X120097030Y-88879819D02*
X120192268Y-88879819D01*
X120192268Y-88879819D02*
X120287506Y-88832200D01*
X120287506Y-88832200D02*
X120335125Y-88784580D01*
X120335125Y-88784580D02*
X120382744Y-88689342D01*
X120382744Y-88689342D02*
X120430363Y-88498866D01*
X120430363Y-88498866D02*
X120430363Y-88260771D01*
X120430363Y-88260771D02*
X120382744Y-88070295D01*
X120382744Y-88070295D02*
X120335125Y-87975057D01*
X120335125Y-87975057D02*
X120287506Y-87927438D01*
X120287506Y-87927438D02*
X120192268Y-87879819D01*
X119239887Y-87879819D02*
X119144649Y-87879819D01*
X119144649Y-87879819D02*
X119049411Y-87927438D01*
X119049411Y-87927438D02*
X119001792Y-87975057D01*
X119001792Y-87975057D02*
X118954173Y-88070295D01*
X118954173Y-88070295D02*
X118906554Y-88260771D01*
X118906554Y-88260771D02*
X118906554Y-88498866D01*
X118906554Y-88498866D02*
X118954173Y-88689342D01*
X118954173Y-88689342D02*
X119001792Y-88784580D01*
X119001792Y-88784580D02*
X119049411Y-88832200D01*
X119049411Y-88832200D02*
X119144649Y-88879819D01*
X119144649Y-88879819D02*
X119239887Y-88879819D01*
X119239887Y-88879819D02*
X119335125Y-88832200D01*
X119335125Y-88832200D02*
X119382744Y-88784580D01*
X119382744Y-88784580D02*
X119430363Y-88689342D01*
X119430363Y-88689342D02*
X119477982Y-88498866D01*
X119477982Y-88498866D02*
X119477982Y-88260771D01*
X119477982Y-88260771D02*
X119430363Y-88070295D01*
X119430363Y-88070295D02*
X119382744Y-87975057D01*
X119382744Y-87975057D02*
X119335125Y-87927438D01*
X119335125Y-87927438D02*
X119239887Y-87879819D01*
X118430363Y-88879819D02*
X118239887Y-88879819D01*
X118239887Y-88879819D02*
X118144649Y-88832200D01*
X118144649Y-88832200D02*
X118097030Y-88784580D01*
X118097030Y-88784580D02*
X118001792Y-88641723D01*
X118001792Y-88641723D02*
X117954173Y-88451247D01*
X117954173Y-88451247D02*
X117954173Y-88070295D01*
X117954173Y-88070295D02*
X118001792Y-87975057D01*
X118001792Y-87975057D02*
X118049411Y-87927438D01*
X118049411Y-87927438D02*
X118144649Y-87879819D01*
X118144649Y-87879819D02*
X118335125Y-87879819D01*
X118335125Y-87879819D02*
X118430363Y-87927438D01*
X118430363Y-87927438D02*
X118477982Y-87975057D01*
X118477982Y-87975057D02*
X118525601Y-88070295D01*
X118525601Y-88070295D02*
X118525601Y-88308390D01*
X118525601Y-88308390D02*
X118477982Y-88403628D01*
X118477982Y-88403628D02*
X118430363Y-88451247D01*
X118430363Y-88451247D02*
X118335125Y-88498866D01*
X118335125Y-88498866D02*
X118144649Y-88498866D01*
X118144649Y-88498866D02*
X118049411Y-88451247D01*
X118049411Y-88451247D02*
X118001792Y-88403628D01*
X118001792Y-88403628D02*
X117954173Y-88308390D01*
X117525601Y-88498866D02*
X116763697Y-88498866D01*
X116097030Y-87879819D02*
X116001792Y-87879819D01*
X116001792Y-87879819D02*
X115906554Y-87927438D01*
X115906554Y-87927438D02*
X115858935Y-87975057D01*
X115858935Y-87975057D02*
X115811316Y-88070295D01*
X115811316Y-88070295D02*
X115763697Y-88260771D01*
X115763697Y-88260771D02*
X115763697Y-88498866D01*
X115763697Y-88498866D02*
X115811316Y-88689342D01*
X115811316Y-88689342D02*
X115858935Y-88784580D01*
X115858935Y-88784580D02*
X115906554Y-88832200D01*
X115906554Y-88832200D02*
X116001792Y-88879819D01*
X116001792Y-88879819D02*
X116097030Y-88879819D01*
X116097030Y-88879819D02*
X116192268Y-88832200D01*
X116192268Y-88832200D02*
X116239887Y-88784580D01*
X116239887Y-88784580D02*
X116287506Y-88689342D01*
X116287506Y-88689342D02*
X116335125Y-88498866D01*
X116335125Y-88498866D02*
X116335125Y-88260771D01*
X116335125Y-88260771D02*
X116287506Y-88070295D01*
X116287506Y-88070295D02*
X116239887Y-87975057D01*
X116239887Y-87975057D02*
X116192268Y-87927438D01*
X116192268Y-87927438D02*
X116097030Y-87879819D01*
X115144649Y-87879819D02*
X115049411Y-87879819D01*
X115049411Y-87879819D02*
X114954173Y-87927438D01*
X114954173Y-87927438D02*
X114906554Y-87975057D01*
X114906554Y-87975057D02*
X114858935Y-88070295D01*
X114858935Y-88070295D02*
X114811316Y-88260771D01*
X114811316Y-88260771D02*
X114811316Y-88498866D01*
X114811316Y-88498866D02*
X114858935Y-88689342D01*
X114858935Y-88689342D02*
X114906554Y-88784580D01*
X114906554Y-88784580D02*
X114954173Y-88832200D01*
X114954173Y-88832200D02*
X115049411Y-88879819D01*
X115049411Y-88879819D02*
X115144649Y-88879819D01*
X115144649Y-88879819D02*
X115239887Y-88832200D01*
X115239887Y-88832200D02*
X115287506Y-88784580D01*
X115287506Y-88784580D02*
X115335125Y-88689342D01*
X115335125Y-88689342D02*
X115382744Y-88498866D01*
X115382744Y-88498866D02*
X115382744Y-88260771D01*
X115382744Y-88260771D02*
X115335125Y-88070295D01*
X115335125Y-88070295D02*
X115287506Y-87975057D01*
X115287506Y-87975057D02*
X115239887Y-87927438D01*
X115239887Y-87927438D02*
X115144649Y-87879819D01*
X113049411Y-88879819D02*
X113382744Y-88403628D01*
X113620839Y-88879819D02*
X113620839Y-87879819D01*
X113620839Y-87879819D02*
X113239887Y-87879819D01*
X113239887Y-87879819D02*
X113144649Y-87927438D01*
X113144649Y-87927438D02*
X113097030Y-87975057D01*
X113097030Y-87975057D02*
X113049411Y-88070295D01*
X113049411Y-88070295D02*
X113049411Y-88213152D01*
X113049411Y-88213152D02*
X113097030Y-88308390D01*
X113097030Y-88308390D02*
X113144649Y-88356009D01*
X113144649Y-88356009D02*
X113239887Y-88403628D01*
X113239887Y-88403628D02*
X113620839Y-88403628D01*
X112239887Y-88832200D02*
X112335125Y-88879819D01*
X112335125Y-88879819D02*
X112525601Y-88879819D01*
X112525601Y-88879819D02*
X112620839Y-88832200D01*
X112620839Y-88832200D02*
X112668458Y-88736961D01*
X112668458Y-88736961D02*
X112668458Y-88356009D01*
X112668458Y-88356009D02*
X112620839Y-88260771D01*
X112620839Y-88260771D02*
X112525601Y-88213152D01*
X112525601Y-88213152D02*
X112335125Y-88213152D01*
X112335125Y-88213152D02*
X112239887Y-88260771D01*
X112239887Y-88260771D02*
X112192268Y-88356009D01*
X112192268Y-88356009D02*
X112192268Y-88451247D01*
X112192268Y-88451247D02*
X112668458Y-88546485D01*
X111858934Y-88213152D02*
X111620839Y-88879819D01*
X111620839Y-88879819D02*
X111382744Y-88213152D01*
X111001791Y-88879819D02*
X111001791Y-88213152D01*
X111001791Y-87879819D02*
X111049410Y-87927438D01*
X111049410Y-87927438D02*
X111001791Y-87975057D01*
X111001791Y-87975057D02*
X110954172Y-87927438D01*
X110954172Y-87927438D02*
X111001791Y-87879819D01*
X111001791Y-87879819D02*
X111001791Y-87975057D01*
X110573220Y-88832200D02*
X110477982Y-88879819D01*
X110477982Y-88879819D02*
X110287506Y-88879819D01*
X110287506Y-88879819D02*
X110192268Y-88832200D01*
X110192268Y-88832200D02*
X110144649Y-88736961D01*
X110144649Y-88736961D02*
X110144649Y-88689342D01*
X110144649Y-88689342D02*
X110192268Y-88594104D01*
X110192268Y-88594104D02*
X110287506Y-88546485D01*
X110287506Y-88546485D02*
X110430363Y-88546485D01*
X110430363Y-88546485D02*
X110525601Y-88498866D01*
X110525601Y-88498866D02*
X110573220Y-88403628D01*
X110573220Y-88403628D02*
X110573220Y-88356009D01*
X110573220Y-88356009D02*
X110525601Y-88260771D01*
X110525601Y-88260771D02*
X110430363Y-88213152D01*
X110430363Y-88213152D02*
X110287506Y-88213152D01*
X110287506Y-88213152D02*
X110192268Y-88260771D01*
X109716077Y-88879819D02*
X109716077Y-88213152D01*
X109716077Y-87879819D02*
X109763696Y-87927438D01*
X109763696Y-87927438D02*
X109716077Y-87975057D01*
X109716077Y-87975057D02*
X109668458Y-87927438D01*
X109668458Y-87927438D02*
X109716077Y-87879819D01*
X109716077Y-87879819D02*
X109716077Y-87975057D01*
X109097030Y-88879819D02*
X109192268Y-88832200D01*
X109192268Y-88832200D02*
X109239887Y-88784580D01*
X109239887Y-88784580D02*
X109287506Y-88689342D01*
X109287506Y-88689342D02*
X109287506Y-88403628D01*
X109287506Y-88403628D02*
X109239887Y-88308390D01*
X109239887Y-88308390D02*
X109192268Y-88260771D01*
X109192268Y-88260771D02*
X109097030Y-88213152D01*
X109097030Y-88213152D02*
X108954173Y-88213152D01*
X108954173Y-88213152D02*
X108858935Y-88260771D01*
X108858935Y-88260771D02*
X108811316Y-88308390D01*
X108811316Y-88308390D02*
X108763697Y-88403628D01*
X108763697Y-88403628D02*
X108763697Y-88689342D01*
X108763697Y-88689342D02*
X108811316Y-88784580D01*
X108811316Y-88784580D02*
X108858935Y-88832200D01*
X108858935Y-88832200D02*
X108954173Y-88879819D01*
X108954173Y-88879819D02*
X109097030Y-88879819D01*
X108335125Y-88213152D02*
X108335125Y-88879819D01*
X108335125Y-88308390D02*
X108287506Y-88260771D01*
X108287506Y-88260771D02*
X108192268Y-88213152D01*
X108192268Y-88213152D02*
X108049411Y-88213152D01*
X108049411Y-88213152D02*
X107954173Y-88260771D01*
X107954173Y-88260771D02*
X107906554Y-88356009D01*
X107906554Y-88356009D02*
X107906554Y-88879819D01*
X107430363Y-88784580D02*
X107382744Y-88832200D01*
X107382744Y-88832200D02*
X107430363Y-88879819D01*
X107430363Y-88879819D02*
X107477982Y-88832200D01*
X107477982Y-88832200D02*
X107430363Y-88784580D01*
X107430363Y-88784580D02*
X107430363Y-88879819D01*
X107430363Y-88260771D02*
X107382744Y-88308390D01*
X107382744Y-88308390D02*
X107430363Y-88356009D01*
X107430363Y-88356009D02*
X107477982Y-88308390D01*
X107477982Y-88308390D02*
X107430363Y-88260771D01*
X107430363Y-88260771D02*
X107430363Y-88356009D01*
X105668459Y-88879819D02*
X106239887Y-88879819D01*
X105954173Y-88879819D02*
X105954173Y-87879819D01*
X105954173Y-87879819D02*
X106049411Y-88022676D01*
X106049411Y-88022676D02*
X106144649Y-88117914D01*
X106144649Y-88117914D02*
X106239887Y-88165533D01*
X131573220Y-90489819D02*
X131573220Y-89489819D01*
X131573220Y-89489819D02*
X131192268Y-89489819D01*
X131192268Y-89489819D02*
X131097030Y-89537438D01*
X131097030Y-89537438D02*
X131049411Y-89585057D01*
X131049411Y-89585057D02*
X131001792Y-89680295D01*
X131001792Y-89680295D02*
X131001792Y-89823152D01*
X131001792Y-89823152D02*
X131049411Y-89918390D01*
X131049411Y-89918390D02*
X131097030Y-89966009D01*
X131097030Y-89966009D02*
X131192268Y-90013628D01*
X131192268Y-90013628D02*
X131573220Y-90013628D01*
X130001792Y-90394580D02*
X130049411Y-90442200D01*
X130049411Y-90442200D02*
X130192268Y-90489819D01*
X130192268Y-90489819D02*
X130287506Y-90489819D01*
X130287506Y-90489819D02*
X130430363Y-90442200D01*
X130430363Y-90442200D02*
X130525601Y-90346961D01*
X130525601Y-90346961D02*
X130573220Y-90251723D01*
X130573220Y-90251723D02*
X130620839Y-90061247D01*
X130620839Y-90061247D02*
X130620839Y-89918390D01*
X130620839Y-89918390D02*
X130573220Y-89727914D01*
X130573220Y-89727914D02*
X130525601Y-89632676D01*
X130525601Y-89632676D02*
X130430363Y-89537438D01*
X130430363Y-89537438D02*
X130287506Y-89489819D01*
X130287506Y-89489819D02*
X130192268Y-89489819D01*
X130192268Y-89489819D02*
X130049411Y-89537438D01*
X130049411Y-89537438D02*
X130001792Y-89585057D01*
X129620839Y-90204104D02*
X129144649Y-90204104D01*
X129716077Y-90489819D02*
X129382744Y-89489819D01*
X129382744Y-89489819D02*
X129049411Y-90489819D01*
X128716077Y-90394580D02*
X128668458Y-90442200D01*
X128668458Y-90442200D02*
X128716077Y-90489819D01*
X128716077Y-90489819D02*
X128763696Y-90442200D01*
X128763696Y-90442200D02*
X128716077Y-90394580D01*
X128716077Y-90394580D02*
X128716077Y-90489819D01*
X128716077Y-89870771D02*
X128668458Y-89918390D01*
X128668458Y-89918390D02*
X128716077Y-89966009D01*
X128716077Y-89966009D02*
X128763696Y-89918390D01*
X128763696Y-89918390D02*
X128716077Y-89870771D01*
X128716077Y-89870771D02*
X128716077Y-89966009D01*
X126954173Y-90489819D02*
X127525601Y-90489819D01*
X127239887Y-90489819D02*
X127239887Y-89489819D01*
X127239887Y-89489819D02*
X127335125Y-89632676D01*
X127335125Y-89632676D02*
X127430363Y-89727914D01*
X127430363Y-89727914D02*
X127525601Y-89775533D01*
X126335125Y-89489819D02*
X126239887Y-89489819D01*
X126239887Y-89489819D02*
X126144649Y-89537438D01*
X126144649Y-89537438D02*
X126097030Y-89585057D01*
X126097030Y-89585057D02*
X126049411Y-89680295D01*
X126049411Y-89680295D02*
X126001792Y-89870771D01*
X126001792Y-89870771D02*
X126001792Y-90108866D01*
X126001792Y-90108866D02*
X126049411Y-90299342D01*
X126049411Y-90299342D02*
X126097030Y-90394580D01*
X126097030Y-90394580D02*
X126144649Y-90442200D01*
X126144649Y-90442200D02*
X126239887Y-90489819D01*
X126239887Y-90489819D02*
X126335125Y-90489819D01*
X126335125Y-90489819D02*
X126430363Y-90442200D01*
X126430363Y-90442200D02*
X126477982Y-90394580D01*
X126477982Y-90394580D02*
X126525601Y-90299342D01*
X126525601Y-90299342D02*
X126573220Y-90108866D01*
X126573220Y-90108866D02*
X126573220Y-89870771D01*
X126573220Y-89870771D02*
X126525601Y-89680295D01*
X126525601Y-89680295D02*
X126477982Y-89585057D01*
X126477982Y-89585057D02*
X126430363Y-89537438D01*
X126430363Y-89537438D02*
X126335125Y-89489819D01*
X125382744Y-89489819D02*
X125287506Y-89489819D01*
X125287506Y-89489819D02*
X125192268Y-89537438D01*
X125192268Y-89537438D02*
X125144649Y-89585057D01*
X125144649Y-89585057D02*
X125097030Y-89680295D01*
X125097030Y-89680295D02*
X125049411Y-89870771D01*
X125049411Y-89870771D02*
X125049411Y-90108866D01*
X125049411Y-90108866D02*
X125097030Y-90299342D01*
X125097030Y-90299342D02*
X125144649Y-90394580D01*
X125144649Y-90394580D02*
X125192268Y-90442200D01*
X125192268Y-90442200D02*
X125287506Y-90489819D01*
X125287506Y-90489819D02*
X125382744Y-90489819D01*
X125382744Y-90489819D02*
X125477982Y-90442200D01*
X125477982Y-90442200D02*
X125525601Y-90394580D01*
X125525601Y-90394580D02*
X125573220Y-90299342D01*
X125573220Y-90299342D02*
X125620839Y-90108866D01*
X125620839Y-90108866D02*
X125620839Y-89870771D01*
X125620839Y-89870771D02*
X125573220Y-89680295D01*
X125573220Y-89680295D02*
X125525601Y-89585057D01*
X125525601Y-89585057D02*
X125477982Y-89537438D01*
X125477982Y-89537438D02*
X125382744Y-89489819D01*
X124430363Y-89489819D02*
X124335125Y-89489819D01*
X124335125Y-89489819D02*
X124239887Y-89537438D01*
X124239887Y-89537438D02*
X124192268Y-89585057D01*
X124192268Y-89585057D02*
X124144649Y-89680295D01*
X124144649Y-89680295D02*
X124097030Y-89870771D01*
X124097030Y-89870771D02*
X124097030Y-90108866D01*
X124097030Y-90108866D02*
X124144649Y-90299342D01*
X124144649Y-90299342D02*
X124192268Y-90394580D01*
X124192268Y-90394580D02*
X124239887Y-90442200D01*
X124239887Y-90442200D02*
X124335125Y-90489819D01*
X124335125Y-90489819D02*
X124430363Y-90489819D01*
X124430363Y-90489819D02*
X124525601Y-90442200D01*
X124525601Y-90442200D02*
X124573220Y-90394580D01*
X124573220Y-90394580D02*
X124620839Y-90299342D01*
X124620839Y-90299342D02*
X124668458Y-90108866D01*
X124668458Y-90108866D02*
X124668458Y-89870771D01*
X124668458Y-89870771D02*
X124620839Y-89680295D01*
X124620839Y-89680295D02*
X124573220Y-89585057D01*
X124573220Y-89585057D02*
X124525601Y-89537438D01*
X124525601Y-89537438D02*
X124430363Y-89489819D01*
X123620839Y-90489819D02*
X123430363Y-90489819D01*
X123430363Y-90489819D02*
X123335125Y-90442200D01*
X123335125Y-90442200D02*
X123287506Y-90394580D01*
X123287506Y-90394580D02*
X123192268Y-90251723D01*
X123192268Y-90251723D02*
X123144649Y-90061247D01*
X123144649Y-90061247D02*
X123144649Y-89680295D01*
X123144649Y-89680295D02*
X123192268Y-89585057D01*
X123192268Y-89585057D02*
X123239887Y-89537438D01*
X123239887Y-89537438D02*
X123335125Y-89489819D01*
X123335125Y-89489819D02*
X123525601Y-89489819D01*
X123525601Y-89489819D02*
X123620839Y-89537438D01*
X123620839Y-89537438D02*
X123668458Y-89585057D01*
X123668458Y-89585057D02*
X123716077Y-89680295D01*
X123716077Y-89680295D02*
X123716077Y-89918390D01*
X123716077Y-89918390D02*
X123668458Y-90013628D01*
X123668458Y-90013628D02*
X123620839Y-90061247D01*
X123620839Y-90061247D02*
X123525601Y-90108866D01*
X123525601Y-90108866D02*
X123335125Y-90108866D01*
X123335125Y-90108866D02*
X123239887Y-90061247D01*
X123239887Y-90061247D02*
X123192268Y-90013628D01*
X123192268Y-90013628D02*
X123144649Y-89918390D01*
X122716077Y-90108866D02*
X121954173Y-90108866D01*
X121049411Y-89823152D02*
X121049411Y-90489819D01*
X121287506Y-89442200D02*
X121525601Y-90156485D01*
X121525601Y-90156485D02*
X120906554Y-90156485D01*
X120335125Y-89489819D02*
X120239887Y-89489819D01*
X120239887Y-89489819D02*
X120144649Y-89537438D01*
X120144649Y-89537438D02*
X120097030Y-89585057D01*
X120097030Y-89585057D02*
X120049411Y-89680295D01*
X120049411Y-89680295D02*
X120001792Y-89870771D01*
X120001792Y-89870771D02*
X120001792Y-90108866D01*
X120001792Y-90108866D02*
X120049411Y-90299342D01*
X120049411Y-90299342D02*
X120097030Y-90394580D01*
X120097030Y-90394580D02*
X120144649Y-90442200D01*
X120144649Y-90442200D02*
X120239887Y-90489819D01*
X120239887Y-90489819D02*
X120335125Y-90489819D01*
X120335125Y-90489819D02*
X120430363Y-90442200D01*
X120430363Y-90442200D02*
X120477982Y-90394580D01*
X120477982Y-90394580D02*
X120525601Y-90299342D01*
X120525601Y-90299342D02*
X120573220Y-90108866D01*
X120573220Y-90108866D02*
X120573220Y-89870771D01*
X120573220Y-89870771D02*
X120525601Y-89680295D01*
X120525601Y-89680295D02*
X120477982Y-89585057D01*
X120477982Y-89585057D02*
X120430363Y-89537438D01*
X120430363Y-89537438D02*
X120335125Y-89489819D01*
X119382744Y-89489819D02*
X119287506Y-89489819D01*
X119287506Y-89489819D02*
X119192268Y-89537438D01*
X119192268Y-89537438D02*
X119144649Y-89585057D01*
X119144649Y-89585057D02*
X119097030Y-89680295D01*
X119097030Y-89680295D02*
X119049411Y-89870771D01*
X119049411Y-89870771D02*
X119049411Y-90108866D01*
X119049411Y-90108866D02*
X119097030Y-90299342D01*
X119097030Y-90299342D02*
X119144649Y-90394580D01*
X119144649Y-90394580D02*
X119192268Y-90442200D01*
X119192268Y-90442200D02*
X119287506Y-90489819D01*
X119287506Y-90489819D02*
X119382744Y-90489819D01*
X119382744Y-90489819D02*
X119477982Y-90442200D01*
X119477982Y-90442200D02*
X119525601Y-90394580D01*
X119525601Y-90394580D02*
X119573220Y-90299342D01*
X119573220Y-90299342D02*
X119620839Y-90108866D01*
X119620839Y-90108866D02*
X119620839Y-89870771D01*
X119620839Y-89870771D02*
X119573220Y-89680295D01*
X119573220Y-89680295D02*
X119525601Y-89585057D01*
X119525601Y-89585057D02*
X119477982Y-89537438D01*
X119477982Y-89537438D02*
X119382744Y-89489819D01*
X118477982Y-89918390D02*
X118573220Y-89870771D01*
X118573220Y-89870771D02*
X118620839Y-89823152D01*
X118620839Y-89823152D02*
X118668458Y-89727914D01*
X118668458Y-89727914D02*
X118668458Y-89680295D01*
X118668458Y-89680295D02*
X118620839Y-89585057D01*
X118620839Y-89585057D02*
X118573220Y-89537438D01*
X118573220Y-89537438D02*
X118477982Y-89489819D01*
X118477982Y-89489819D02*
X118287506Y-89489819D01*
X118287506Y-89489819D02*
X118192268Y-89537438D01*
X118192268Y-89537438D02*
X118144649Y-89585057D01*
X118144649Y-89585057D02*
X118097030Y-89680295D01*
X118097030Y-89680295D02*
X118097030Y-89727914D01*
X118097030Y-89727914D02*
X118144649Y-89823152D01*
X118144649Y-89823152D02*
X118192268Y-89870771D01*
X118192268Y-89870771D02*
X118287506Y-89918390D01*
X118287506Y-89918390D02*
X118477982Y-89918390D01*
X118477982Y-89918390D02*
X118573220Y-89966009D01*
X118573220Y-89966009D02*
X118620839Y-90013628D01*
X118620839Y-90013628D02*
X118668458Y-90108866D01*
X118668458Y-90108866D02*
X118668458Y-90299342D01*
X118668458Y-90299342D02*
X118620839Y-90394580D01*
X118620839Y-90394580D02*
X118573220Y-90442200D01*
X118573220Y-90442200D02*
X118477982Y-90489819D01*
X118477982Y-90489819D02*
X118287506Y-90489819D01*
X118287506Y-90489819D02*
X118192268Y-90442200D01*
X118192268Y-90442200D02*
X118144649Y-90394580D01*
X118144649Y-90394580D02*
X118097030Y-90299342D01*
X118097030Y-90299342D02*
X118097030Y-90108866D01*
X118097030Y-90108866D02*
X118144649Y-90013628D01*
X118144649Y-90013628D02*
X118192268Y-89966009D01*
X118192268Y-89966009D02*
X118287506Y-89918390D01*
X117668458Y-90108866D02*
X116906554Y-90108866D01*
X116239887Y-89489819D02*
X116144649Y-89489819D01*
X116144649Y-89489819D02*
X116049411Y-89537438D01*
X116049411Y-89537438D02*
X116001792Y-89585057D01*
X116001792Y-89585057D02*
X115954173Y-89680295D01*
X115954173Y-89680295D02*
X115906554Y-89870771D01*
X115906554Y-89870771D02*
X115906554Y-90108866D01*
X115906554Y-90108866D02*
X115954173Y-90299342D01*
X115954173Y-90299342D02*
X116001792Y-90394580D01*
X116001792Y-90394580D02*
X116049411Y-90442200D01*
X116049411Y-90442200D02*
X116144649Y-90489819D01*
X116144649Y-90489819D02*
X116239887Y-90489819D01*
X116239887Y-90489819D02*
X116335125Y-90442200D01*
X116335125Y-90442200D02*
X116382744Y-90394580D01*
X116382744Y-90394580D02*
X116430363Y-90299342D01*
X116430363Y-90299342D02*
X116477982Y-90108866D01*
X116477982Y-90108866D02*
X116477982Y-89870771D01*
X116477982Y-89870771D02*
X116430363Y-89680295D01*
X116430363Y-89680295D02*
X116382744Y-89585057D01*
X116382744Y-89585057D02*
X116335125Y-89537438D01*
X116335125Y-89537438D02*
X116239887Y-89489819D01*
X115287506Y-89489819D02*
X115192268Y-89489819D01*
X115192268Y-89489819D02*
X115097030Y-89537438D01*
X115097030Y-89537438D02*
X115049411Y-89585057D01*
X115049411Y-89585057D02*
X115001792Y-89680295D01*
X115001792Y-89680295D02*
X114954173Y-89870771D01*
X114954173Y-89870771D02*
X114954173Y-90108866D01*
X114954173Y-90108866D02*
X115001792Y-90299342D01*
X115001792Y-90299342D02*
X115049411Y-90394580D01*
X115049411Y-90394580D02*
X115097030Y-90442200D01*
X115097030Y-90442200D02*
X115192268Y-90489819D01*
X115192268Y-90489819D02*
X115287506Y-90489819D01*
X115287506Y-90489819D02*
X115382744Y-90442200D01*
X115382744Y-90442200D02*
X115430363Y-90394580D01*
X115430363Y-90394580D02*
X115477982Y-90299342D01*
X115477982Y-90299342D02*
X115525601Y-90108866D01*
X115525601Y-90108866D02*
X115525601Y-89870771D01*
X115525601Y-89870771D02*
X115477982Y-89680295D01*
X115477982Y-89680295D02*
X115430363Y-89585057D01*
X115430363Y-89585057D02*
X115382744Y-89537438D01*
X115382744Y-89537438D02*
X115287506Y-89489819D01*
X113192268Y-90489819D02*
X113525601Y-90013628D01*
X113763696Y-90489819D02*
X113763696Y-89489819D01*
X113763696Y-89489819D02*
X113382744Y-89489819D01*
X113382744Y-89489819D02*
X113287506Y-89537438D01*
X113287506Y-89537438D02*
X113239887Y-89585057D01*
X113239887Y-89585057D02*
X113192268Y-89680295D01*
X113192268Y-89680295D02*
X113192268Y-89823152D01*
X113192268Y-89823152D02*
X113239887Y-89918390D01*
X113239887Y-89918390D02*
X113287506Y-89966009D01*
X113287506Y-89966009D02*
X113382744Y-90013628D01*
X113382744Y-90013628D02*
X113763696Y-90013628D01*
X112382744Y-90442200D02*
X112477982Y-90489819D01*
X112477982Y-90489819D02*
X112668458Y-90489819D01*
X112668458Y-90489819D02*
X112763696Y-90442200D01*
X112763696Y-90442200D02*
X112811315Y-90346961D01*
X112811315Y-90346961D02*
X112811315Y-89966009D01*
X112811315Y-89966009D02*
X112763696Y-89870771D01*
X112763696Y-89870771D02*
X112668458Y-89823152D01*
X112668458Y-89823152D02*
X112477982Y-89823152D01*
X112477982Y-89823152D02*
X112382744Y-89870771D01*
X112382744Y-89870771D02*
X112335125Y-89966009D01*
X112335125Y-89966009D02*
X112335125Y-90061247D01*
X112335125Y-90061247D02*
X112811315Y-90156485D01*
X112001791Y-89823152D02*
X111763696Y-90489819D01*
X111763696Y-90489819D02*
X111525601Y-89823152D01*
X111144648Y-90489819D02*
X111144648Y-89823152D01*
X111144648Y-89489819D02*
X111192267Y-89537438D01*
X111192267Y-89537438D02*
X111144648Y-89585057D01*
X111144648Y-89585057D02*
X111097029Y-89537438D01*
X111097029Y-89537438D02*
X111144648Y-89489819D01*
X111144648Y-89489819D02*
X111144648Y-89585057D01*
X110716077Y-90442200D02*
X110620839Y-90489819D01*
X110620839Y-90489819D02*
X110430363Y-90489819D01*
X110430363Y-90489819D02*
X110335125Y-90442200D01*
X110335125Y-90442200D02*
X110287506Y-90346961D01*
X110287506Y-90346961D02*
X110287506Y-90299342D01*
X110287506Y-90299342D02*
X110335125Y-90204104D01*
X110335125Y-90204104D02*
X110430363Y-90156485D01*
X110430363Y-90156485D02*
X110573220Y-90156485D01*
X110573220Y-90156485D02*
X110668458Y-90108866D01*
X110668458Y-90108866D02*
X110716077Y-90013628D01*
X110716077Y-90013628D02*
X110716077Y-89966009D01*
X110716077Y-89966009D02*
X110668458Y-89870771D01*
X110668458Y-89870771D02*
X110573220Y-89823152D01*
X110573220Y-89823152D02*
X110430363Y-89823152D01*
X110430363Y-89823152D02*
X110335125Y-89870771D01*
X109858934Y-90489819D02*
X109858934Y-89823152D01*
X109858934Y-89489819D02*
X109906553Y-89537438D01*
X109906553Y-89537438D02*
X109858934Y-89585057D01*
X109858934Y-89585057D02*
X109811315Y-89537438D01*
X109811315Y-89537438D02*
X109858934Y-89489819D01*
X109858934Y-89489819D02*
X109858934Y-89585057D01*
X109239887Y-90489819D02*
X109335125Y-90442200D01*
X109335125Y-90442200D02*
X109382744Y-90394580D01*
X109382744Y-90394580D02*
X109430363Y-90299342D01*
X109430363Y-90299342D02*
X109430363Y-90013628D01*
X109430363Y-90013628D02*
X109382744Y-89918390D01*
X109382744Y-89918390D02*
X109335125Y-89870771D01*
X109335125Y-89870771D02*
X109239887Y-89823152D01*
X109239887Y-89823152D02*
X109097030Y-89823152D01*
X109097030Y-89823152D02*
X109001792Y-89870771D01*
X109001792Y-89870771D02*
X108954173Y-89918390D01*
X108954173Y-89918390D02*
X108906554Y-90013628D01*
X108906554Y-90013628D02*
X108906554Y-90299342D01*
X108906554Y-90299342D02*
X108954173Y-90394580D01*
X108954173Y-90394580D02*
X109001792Y-90442200D01*
X109001792Y-90442200D02*
X109097030Y-90489819D01*
X109097030Y-90489819D02*
X109239887Y-90489819D01*
X108477982Y-89823152D02*
X108477982Y-90489819D01*
X108477982Y-89918390D02*
X108430363Y-89870771D01*
X108430363Y-89870771D02*
X108335125Y-89823152D01*
X108335125Y-89823152D02*
X108192268Y-89823152D01*
X108192268Y-89823152D02*
X108097030Y-89870771D01*
X108097030Y-89870771D02*
X108049411Y-89966009D01*
X108049411Y-89966009D02*
X108049411Y-90489819D01*
X107573220Y-90394580D02*
X107525601Y-90442200D01*
X107525601Y-90442200D02*
X107573220Y-90489819D01*
X107573220Y-90489819D02*
X107620839Y-90442200D01*
X107620839Y-90442200D02*
X107573220Y-90394580D01*
X107573220Y-90394580D02*
X107573220Y-90489819D01*
X107573220Y-89870771D02*
X107525601Y-89918390D01*
X107525601Y-89918390D02*
X107573220Y-89966009D01*
X107573220Y-89966009D02*
X107620839Y-89918390D01*
X107620839Y-89918390D02*
X107573220Y-89870771D01*
X107573220Y-89870771D02*
X107573220Y-89966009D01*
X137104819Y-89906666D02*
X137819104Y-89906666D01*
X137819104Y-89906666D02*
X137961961Y-89859047D01*
X137961961Y-89859047D02*
X138057200Y-89763809D01*
X138057200Y-89763809D02*
X138104819Y-89620952D01*
X138104819Y-89620952D02*
X138104819Y-89525714D01*
X137104819Y-90287619D02*
X137104819Y-90906666D01*
X137104819Y-90906666D02*
X137485771Y-90573333D01*
X137485771Y-90573333D02*
X137485771Y-90716190D01*
X137485771Y-90716190D02*
X137533390Y-90811428D01*
X137533390Y-90811428D02*
X137581009Y-90859047D01*
X137581009Y-90859047D02*
X137676247Y-90906666D01*
X137676247Y-90906666D02*
X137914342Y-90906666D01*
X137914342Y-90906666D02*
X138009580Y-90859047D01*
X138009580Y-90859047D02*
X138057200Y-90811428D01*
X138057200Y-90811428D02*
X138104819Y-90716190D01*
X138104819Y-90716190D02*
X138104819Y-90430476D01*
X138104819Y-90430476D02*
X138057200Y-90335238D01*
X138057200Y-90335238D02*
X138009580Y-90287619D01*
D11*
%TO.C,J3*%
X136465000Y-87390000D02*
X133965000Y-87390000D01*
X133965000Y-87390000D02*
X133965000Y-88440000D01*
X133965000Y-88440000D02*
X132975000Y-88440000D01*
X138435000Y-88560000D02*
X138435000Y-92440000D01*
X136465000Y-93610000D02*
X133965000Y-93610000D01*
X133965000Y-93610000D02*
X133965000Y-92560000D01*
%TD*%
%LPC*%
D12*
%TO.C,MH1*%
X103000000Y-84000000D03*
%TD*%
%TO.C,MH2*%
X136000000Y-84000000D03*
%TD*%
%TO.C,MH3*%
X103000000Y-97000000D03*
%TD*%
%TO.C,MH4*%
X136000000Y-97000000D03*
%TD*%
D13*
%TO.C,RV1*%
X124930000Y-86100000D03*
X127470000Y-83560000D03*
X124930000Y-81020000D03*
%TD*%
D14*
%TO.C,J3*%
X133750000Y-89000000D03*
X133750000Y-90000000D03*
X133750000Y-91000000D03*
X133750000Y-92000000D03*
D15*
X137625000Y-87700000D03*
X137625000Y-93300000D03*
%TD*%
%LPD*%
M02*
