%TF.GenerationSoftware,KiCad,Pcbnew,7.0.9*%
%TF.CreationDate,2024-10-15T17:03:29-06:00*%
%TF.ProjectId,howland,686f776c-616e-4642-9e6b-696361645f70,rev?*%
%TF.SameCoordinates,Original*%
%TF.FileFunction,Soldermask,Top*%
%TF.FilePolarity,Negative*%
%FSLAX46Y46*%
G04 Gerber Fmt 4.6, Leading zero omitted, Abs format (unit mm)*
G04 Created by KiCad (PCBNEW 7.0.9) date 2024-10-15 17:03:29*
%MOMM*%
%LPD*%
G01*
G04 APERTURE LIST*
G04 Aperture macros list*
%AMRoundRect*
0 Rectangle with rounded corners*
0 $1 Rounding radius*
0 $2 $3 $4 $5 $6 $7 $8 $9 X,Y pos of 4 corners*
0 Add a 4 corners polygon primitive as box body*
4,1,4,$2,$3,$4,$5,$6,$7,$8,$9,$2,$3,0*
0 Add four circle primitives for the rounded corners*
1,1,$1+$1,$2,$3*
1,1,$1+$1,$4,$5*
1,1,$1+$1,$6,$7*
1,1,$1+$1,$8,$9*
0 Add four rect primitives between the rounded corners*
20,1,$1+$1,$2,$3,$4,$5,0*
20,1,$1+$1,$4,$5,$6,$7,0*
20,1,$1+$1,$6,$7,$8,$9,0*
20,1,$1+$1,$8,$9,$2,$3,0*%
%AMFreePoly0*
4,1,40,0.586777,0.930194,0.656366,0.874698,0.694986,0.794504,0.700000,0.750000,0.700000,-0.750000,0.680194,-0.836777,0.624698,-0.906366,0.544504,-0.944986,0.500000,-0.950000,0.000000,-0.950000,-0.022297,-0.944911,-0.071157,-0.944911,-0.127504,-0.936810,-0.264055,-0.896715,-0.315837,-0.873066,-0.435559,-0.796125,-0.478580,-0.758847,-0.571777,-0.651292,-0.602554,-0.603402,-0.661673,-0.473948,
-0.677710,-0.419330,-0.697964,-0.278464,-0.700000,-0.250000,-0.700000,0.250000,-0.697964,0.278464,-0.677710,0.419330,-0.661673,0.473948,-0.602554,0.603402,-0.571777,0.651292,-0.478580,0.758847,-0.435559,0.796125,-0.315837,0.873066,-0.264055,0.896715,-0.127504,0.936810,-0.071157,0.944911,-0.044660,0.944911,-0.044504,0.944986,0.000000,0.950000,0.500000,0.950000,0.586777,0.930194,
0.586777,0.930194,$1*%
%AMFreePoly1*
4,1,40,0.022297,0.944911,0.071157,0.944911,0.127504,0.936810,0.264055,0.896715,0.315837,0.873066,0.435559,0.796125,0.478580,0.758847,0.571777,0.651292,0.602554,0.603402,0.661673,0.473948,0.677710,0.419330,0.697964,0.278464,0.700000,0.250000,0.700000,-0.250000,0.697964,-0.278464,0.677710,-0.419330,0.661673,-0.473948,0.602554,-0.603402,0.571777,-0.651292,0.478580,-0.758847,
0.435559,-0.796125,0.315837,-0.873066,0.264055,-0.896715,0.127504,-0.936810,0.071157,-0.944911,0.044660,-0.944911,0.044504,-0.944986,0.000000,-0.950000,-0.500000,-0.950000,-0.586777,-0.930194,-0.656366,-0.874698,-0.694986,-0.794504,-0.700000,-0.750000,-0.700000,0.750000,-0.680194,0.836777,-0.624698,0.906366,-0.544504,0.944986,-0.500000,0.950000,0.000000,0.950000,0.022297,0.944911,
0.022297,0.944911,$1*%
G04 Aperture macros list end*
%ADD10C,6.000000*%
%ADD11RoundRect,0.347500X0.147500X0.172500X-0.147500X0.172500X-0.147500X-0.172500X0.147500X-0.172500X0*%
%ADD12RoundRect,0.450000X0.325000X0.450000X-0.325000X0.450000X-0.325000X-0.450000X0.325000X-0.450000X0*%
%ADD13RoundRect,0.347500X-0.172500X0.147500X-0.172500X-0.147500X0.172500X-0.147500X0.172500X0.147500X0*%
%ADD14RoundRect,0.347500X-0.147500X-0.172500X0.147500X-0.172500X0.147500X0.172500X-0.147500X0.172500X0*%
%ADD15RoundRect,0.350000X-0.625000X0.150000X-0.625000X-0.150000X0.625000X-0.150000X0.625000X0.150000X0*%
%ADD16RoundRect,0.450000X-0.650000X0.350000X-0.650000X-0.350000X0.650000X-0.350000X0.650000X0.350000X0*%
%ADD17FreePoly0,270.000000*%
%ADD18FreePoly1,270.000000*%
%ADD19RoundRect,0.437500X0.237500X-0.287500X0.237500X0.287500X-0.237500X0.287500X-0.237500X-0.287500X0*%
%ADD20RoundRect,0.350000X0.625000X-0.150000X0.625000X0.150000X-0.625000X0.150000X-0.625000X-0.150000X0*%
%ADD21RoundRect,0.450000X0.650000X-0.350000X0.650000X0.350000X-0.650000X0.350000X-0.650000X-0.350000X0*%
%ADD22RoundRect,0.200000X0.225000X0.725000X-0.225000X0.725000X-0.225000X-0.725000X0.225000X-0.725000X0*%
%ADD23RoundRect,0.350000X-0.512500X-0.150000X0.512500X-0.150000X0.512500X0.150000X-0.512500X0.150000X0*%
%ADD24RoundRect,0.350000X0.512500X0.150000X-0.512500X0.150000X-0.512500X-0.150000X0.512500X-0.150000X0*%
%ADD25RoundRect,0.335000X-0.185000X0.135000X-0.185000X-0.135000X0.185000X-0.135000X0.185000X0.135000X0*%
%ADD26C,1.400000*%
%ADD27RoundRect,0.200000X-0.500000X0.500000X-0.500000X-0.500000X0.500000X-0.500000X0.500000X0.500000X0*%
%ADD28RoundRect,0.200000X0.325000X-0.780000X0.325000X0.780000X-0.325000X0.780000X-0.325000X-0.780000X0*%
%ADD29RoundRect,0.340000X0.170000X-0.140000X0.170000X0.140000X-0.170000X0.140000X-0.170000X-0.140000X0*%
%ADD30RoundRect,0.437500X0.250000X0.237500X-0.250000X0.237500X-0.250000X-0.237500X0.250000X-0.237500X0*%
%ADD31RoundRect,0.350000X0.150000X-0.825000X0.150000X0.825000X-0.150000X0.825000X-0.150000X-0.825000X0*%
%ADD32RoundRect,0.450000X-0.262500X-0.450000X0.262500X-0.450000X0.262500X0.450000X-0.262500X0.450000X0*%
%ADD33C,1.920000*%
%ADD34RoundRect,0.350000X0.825000X0.150000X-0.825000X0.150000X-0.825000X-0.150000X0.825000X-0.150000X0*%
%ADD35RoundRect,0.437500X-0.300000X-0.237500X0.300000X-0.237500X0.300000X0.237500X-0.300000X0.237500X0*%
%ADD36RoundRect,0.450000X0.262500X0.450000X-0.262500X0.450000X-0.262500X-0.450000X0.262500X-0.450000X0*%
%ADD37RoundRect,0.450000X-0.450000X0.262500X-0.450000X-0.262500X0.450000X-0.262500X0.450000X0.262500X0*%
%ADD38RoundRect,0.437500X0.300000X0.237500X-0.300000X0.237500X-0.300000X-0.237500X0.300000X-0.237500X0*%
%ADD39FreePoly0,90.000000*%
%ADD40FreePoly1,90.000000*%
G04 APERTURE END LIST*
D10*
%TO.C,MH1*%
X103000000Y-84000000D03*
%TD*%
%TO.C,MH2*%
X136000000Y-84000000D03*
%TD*%
%TO.C,MH3*%
X103000000Y-97000000D03*
%TD*%
%TO.C,MH4*%
X136000000Y-97000000D03*
%TD*%
D11*
%TO.C,R5*%
X111250000Y-90550000D03*
X110280000Y-90550000D03*
%TD*%
%TO.C,R6*%
X111235000Y-91650000D03*
X110265000Y-91650000D03*
%TD*%
D12*
%TO.C,L1*%
X122660000Y-98450000D03*
X120610000Y-98450000D03*
%TD*%
D13*
%TO.C,C2*%
X112650000Y-89565000D03*
X112650000Y-90535000D03*
%TD*%
%TO.C,C3*%
X112650000Y-91650000D03*
X112650000Y-92620000D03*
%TD*%
%TO.C,C4*%
X114050000Y-90590000D03*
X114050000Y-91560000D03*
%TD*%
D14*
%TO.C,C5*%
X124165000Y-88350000D03*
X125135000Y-88350000D03*
%TD*%
D15*
%TO.C,J1*%
X105250000Y-89050000D03*
X105250000Y-90050000D03*
X105250000Y-91050000D03*
X105250000Y-92050000D03*
D16*
X101375000Y-87750000D03*
X101375000Y-93350000D03*
%TD*%
D17*
%TO.C,JP1*%
X107950000Y-88100000D03*
D18*
X107950000Y-89400000D03*
%TD*%
D17*
%TO.C,JP2*%
X107950000Y-91600000D03*
D18*
X107950000Y-92900000D03*
%TD*%
D19*
%TO.C,R1*%
X132050000Y-97375000D03*
X132050000Y-95625000D03*
%TD*%
%TO.C,R2*%
X130400000Y-97375000D03*
X130400000Y-95625000D03*
%TD*%
D20*
%TO.C,J2*%
X133750000Y-92000000D03*
X133750000Y-91000000D03*
X133750000Y-90000000D03*
X133750000Y-89000000D03*
D21*
X137625000Y-93300000D03*
X137625000Y-87700000D03*
%TD*%
D22*
%TO.C,U3*%
X118225000Y-90750000D03*
X117575000Y-90750000D03*
X116925000Y-90750000D03*
X116275000Y-90750000D03*
X116275000Y-95150000D03*
X116925000Y-95150000D03*
X117575000Y-95150000D03*
X118225000Y-95150000D03*
%TD*%
D23*
%TO.C,U6*%
X112912500Y-82200000D03*
X112912500Y-83150000D03*
X112912500Y-84100000D03*
X115187500Y-84100000D03*
X115187500Y-82200000D03*
%TD*%
D24*
%TO.C,U4*%
X131977500Y-85300000D03*
X131977500Y-84350000D03*
X131977500Y-83400000D03*
X129702500Y-83400000D03*
X129702500Y-84350000D03*
X129702500Y-85300000D03*
%TD*%
D25*
%TO.C,R3*%
X109850000Y-87340000D03*
X109850000Y-88360000D03*
%TD*%
D26*
%TO.C,J4*%
X108850000Y-98750000D03*
D27*
X110250000Y-97350000D03*
X107450000Y-97350000D03*
X110250000Y-100150000D03*
X107450000Y-100150000D03*
%TD*%
D28*
%TO.C,U2*%
X121600000Y-93000000D03*
X122550000Y-93000000D03*
X123500000Y-93000000D03*
X123500000Y-90300000D03*
X122550000Y-90300000D03*
X121600000Y-90300000D03*
%TD*%
D29*
%TO.C,C1*%
X123450000Y-96630000D03*
X123450000Y-95670000D03*
%TD*%
D30*
%TO.C,R12*%
X109662500Y-85750000D03*
X107837500Y-85750000D03*
%TD*%
D31*
%TO.C,U1*%
X124945000Y-100525000D03*
X126215000Y-100525000D03*
X127485000Y-100525000D03*
X128755000Y-100525000D03*
X128755000Y-95575000D03*
X127485000Y-95575000D03*
X126215000Y-95575000D03*
X124945000Y-95575000D03*
%TD*%
D32*
%TO.C,R8*%
X129747500Y-81170000D03*
X131572500Y-81170000D03*
%TD*%
D33*
%TO.C,RV1*%
X124930000Y-86100000D03*
X127470000Y-83560000D03*
X124930000Y-81020000D03*
%TD*%
D34*
%TO.C,U5*%
X122365000Y-86145000D03*
X122365000Y-84875000D03*
X122365000Y-83605000D03*
X122365000Y-82335000D03*
X117415000Y-82335000D03*
X117415000Y-83605000D03*
X117415000Y-84875000D03*
X117415000Y-86145000D03*
%TD*%
D35*
%TO.C,C8*%
X117387500Y-87950000D03*
X119112500Y-87950000D03*
%TD*%
D36*
%TO.C,R11*%
X110962500Y-95350000D03*
X109137500Y-95350000D03*
%TD*%
D37*
%TO.C,R10*%
X108050000Y-82337500D03*
X108050000Y-84162500D03*
%TD*%
D36*
%TO.C,R7*%
X129362500Y-90250000D03*
X127537500Y-90250000D03*
%TD*%
%TO.C,R9*%
X115162500Y-86350000D03*
X113337500Y-86350000D03*
%TD*%
D25*
%TO.C,R4*%
X110050000Y-92740000D03*
X110050000Y-93760000D03*
%TD*%
D38*
%TO.C,C6*%
X118212500Y-97350000D03*
X116487500Y-97350000D03*
%TD*%
D39*
%TO.C,JP3*%
X110350000Y-83900000D03*
D40*
X110350000Y-82600000D03*
%TD*%
D35*
%TO.C,C10*%
X129812500Y-87955000D03*
X131537500Y-87955000D03*
%TD*%
%TO.C,C9*%
X113987500Y-80450000D03*
X115712500Y-80450000D03*
%TD*%
D38*
%TO.C,C7*%
X135462500Y-79800000D03*
X133737500Y-79800000D03*
%TD*%
M02*
