%TF.GenerationSoftware,KiCad,Pcbnew,7.0.9*%
%TF.CreationDate,2024-10-15T17:03:29-06:00*%
%TF.ProjectId,howland,686f776c-616e-4642-9e6b-696361645f70,rev?*%
%TF.SameCoordinates,Original*%
%TF.FileFunction,Copper,L1,Top*%
%TF.FilePolarity,Positive*%
%FSLAX46Y46*%
G04 Gerber Fmt 4.6, Leading zero omitted, Abs format (unit mm)*
G04 Created by KiCad (PCBNEW 7.0.9) date 2024-10-15 17:03:29*
%MOMM*%
%LPD*%
G01*
G04 APERTURE LIST*
G04 Aperture macros list*
%AMRoundRect*
0 Rectangle with rounded corners*
0 $1 Rounding radius*
0 $2 $3 $4 $5 $6 $7 $8 $9 X,Y pos of 4 corners*
0 Add a 4 corners polygon primitive as box body*
4,1,4,$2,$3,$4,$5,$6,$7,$8,$9,$2,$3,0*
0 Add four circle primitives for the rounded corners*
1,1,$1+$1,$2,$3*
1,1,$1+$1,$4,$5*
1,1,$1+$1,$6,$7*
1,1,$1+$1,$8,$9*
0 Add four rect primitives between the rounded corners*
20,1,$1+$1,$2,$3,$4,$5,0*
20,1,$1+$1,$4,$5,$6,$7,0*
20,1,$1+$1,$6,$7,$8,$9,0*
20,1,$1+$1,$8,$9,$2,$3,0*%
%AMFreePoly0*
4,1,19,0.500000,-0.750000,0.000000,-0.750000,0.000000,-0.744911,-0.071157,-0.744911,-0.207708,-0.704816,-0.327430,-0.627875,-0.420627,-0.520320,-0.479746,-0.390866,-0.500000,-0.250000,-0.500000,0.250000,-0.479746,0.390866,-0.420627,0.520320,-0.327430,0.627875,-0.207708,0.704816,-0.071157,0.744911,0.000000,0.744911,0.000000,0.750000,0.500000,0.750000,0.500000,-0.750000,0.500000,-0.750000,
$1*%
%AMFreePoly1*
4,1,19,0.000000,0.744911,0.071157,0.744911,0.207708,0.704816,0.327430,0.627875,0.420627,0.520320,0.479746,0.390866,0.500000,0.250000,0.500000,-0.250000,0.479746,-0.390866,0.420627,-0.520320,0.327430,-0.627875,0.207708,-0.704816,0.071157,-0.744911,0.000000,-0.744911,0.000000,-0.750000,-0.500000,-0.750000,-0.500000,0.750000,0.000000,0.750000,0.000000,0.744911,0.000000,0.744911,
$1*%
G04 Aperture macros list end*
%TA.AperFunction,ComponentPad*%
%ADD10C,5.600000*%
%TD*%
%TA.AperFunction,SMDPad,CuDef*%
%ADD11RoundRect,0.147500X0.147500X0.172500X-0.147500X0.172500X-0.147500X-0.172500X0.147500X-0.172500X0*%
%TD*%
%TA.AperFunction,SMDPad,CuDef*%
%ADD12RoundRect,0.250000X0.325000X0.450000X-0.325000X0.450000X-0.325000X-0.450000X0.325000X-0.450000X0*%
%TD*%
%TA.AperFunction,SMDPad,CuDef*%
%ADD13RoundRect,0.147500X-0.172500X0.147500X-0.172500X-0.147500X0.172500X-0.147500X0.172500X0.147500X0*%
%TD*%
%TA.AperFunction,SMDPad,CuDef*%
%ADD14RoundRect,0.147500X-0.147500X-0.172500X0.147500X-0.172500X0.147500X0.172500X-0.147500X0.172500X0*%
%TD*%
%TA.AperFunction,SMDPad,CuDef*%
%ADD15RoundRect,0.150000X-0.625000X0.150000X-0.625000X-0.150000X0.625000X-0.150000X0.625000X0.150000X0*%
%TD*%
%TA.AperFunction,SMDPad,CuDef*%
%ADD16RoundRect,0.250000X-0.650000X0.350000X-0.650000X-0.350000X0.650000X-0.350000X0.650000X0.350000X0*%
%TD*%
%TA.AperFunction,SMDPad,CuDef*%
%ADD17FreePoly0,270.000000*%
%TD*%
%TA.AperFunction,SMDPad,CuDef*%
%ADD18FreePoly1,270.000000*%
%TD*%
%TA.AperFunction,SMDPad,CuDef*%
%ADD19RoundRect,0.237500X0.237500X-0.287500X0.237500X0.287500X-0.237500X0.287500X-0.237500X-0.287500X0*%
%TD*%
%TA.AperFunction,SMDPad,CuDef*%
%ADD20RoundRect,0.150000X0.625000X-0.150000X0.625000X0.150000X-0.625000X0.150000X-0.625000X-0.150000X0*%
%TD*%
%TA.AperFunction,SMDPad,CuDef*%
%ADD21RoundRect,0.250000X0.650000X-0.350000X0.650000X0.350000X-0.650000X0.350000X-0.650000X-0.350000X0*%
%TD*%
%TA.AperFunction,SMDPad,CuDef*%
%ADD22R,0.450000X1.450000*%
%TD*%
%TA.AperFunction,SMDPad,CuDef*%
%ADD23RoundRect,0.150000X-0.512500X-0.150000X0.512500X-0.150000X0.512500X0.150000X-0.512500X0.150000X0*%
%TD*%
%TA.AperFunction,SMDPad,CuDef*%
%ADD24RoundRect,0.150000X0.512500X0.150000X-0.512500X0.150000X-0.512500X-0.150000X0.512500X-0.150000X0*%
%TD*%
%TA.AperFunction,SMDPad,CuDef*%
%ADD25RoundRect,0.135000X-0.185000X0.135000X-0.185000X-0.135000X0.185000X-0.135000X0.185000X0.135000X0*%
%TD*%
%TA.AperFunction,SMDPad,CuDef*%
%ADD26C,1.000000*%
%TD*%
%TA.AperFunction,SMDPad,CuDef*%
%ADD27R,1.000000X1.000000*%
%TD*%
%TA.AperFunction,SMDPad,CuDef*%
%ADD28R,0.650000X1.560000*%
%TD*%
%TA.AperFunction,SMDPad,CuDef*%
%ADD29RoundRect,0.140000X0.170000X-0.140000X0.170000X0.140000X-0.170000X0.140000X-0.170000X-0.140000X0*%
%TD*%
%TA.AperFunction,SMDPad,CuDef*%
%ADD30RoundRect,0.237500X0.250000X0.237500X-0.250000X0.237500X-0.250000X-0.237500X0.250000X-0.237500X0*%
%TD*%
%TA.AperFunction,SMDPad,CuDef*%
%ADD31RoundRect,0.150000X0.150000X-0.825000X0.150000X0.825000X-0.150000X0.825000X-0.150000X-0.825000X0*%
%TD*%
%TA.AperFunction,SMDPad,CuDef*%
%ADD32RoundRect,0.250000X-0.262500X-0.450000X0.262500X-0.450000X0.262500X0.450000X-0.262500X0.450000X0*%
%TD*%
%TA.AperFunction,ComponentPad*%
%ADD33C,1.520000*%
%TD*%
%TA.AperFunction,SMDPad,CuDef*%
%ADD34RoundRect,0.150000X0.825000X0.150000X-0.825000X0.150000X-0.825000X-0.150000X0.825000X-0.150000X0*%
%TD*%
%TA.AperFunction,SMDPad,CuDef*%
%ADD35RoundRect,0.237500X-0.300000X-0.237500X0.300000X-0.237500X0.300000X0.237500X-0.300000X0.237500X0*%
%TD*%
%TA.AperFunction,SMDPad,CuDef*%
%ADD36RoundRect,0.250000X0.262500X0.450000X-0.262500X0.450000X-0.262500X-0.450000X0.262500X-0.450000X0*%
%TD*%
%TA.AperFunction,SMDPad,CuDef*%
%ADD37RoundRect,0.250000X-0.450000X0.262500X-0.450000X-0.262500X0.450000X-0.262500X0.450000X0.262500X0*%
%TD*%
%TA.AperFunction,SMDPad,CuDef*%
%ADD38RoundRect,0.237500X0.300000X0.237500X-0.300000X0.237500X-0.300000X-0.237500X0.300000X-0.237500X0*%
%TD*%
%TA.AperFunction,SMDPad,CuDef*%
%ADD39FreePoly0,90.000000*%
%TD*%
%TA.AperFunction,SMDPad,CuDef*%
%ADD40FreePoly1,90.000000*%
%TD*%
%TA.AperFunction,ViaPad*%
%ADD41C,0.600000*%
%TD*%
%TA.AperFunction,Conductor*%
%ADD42C,0.250000*%
%TD*%
%TA.AperFunction,Conductor*%
%ADD43C,0.200000*%
%TD*%
G04 APERTURE END LIST*
D10*
%TO.P,MH1,1,Pin_1*%
%TO.N,GNDPWR*%
X103000000Y-84000000D03*
%TD*%
%TO.P,MH2,1,Pin_1*%
%TO.N,GNDPWR*%
X136000000Y-84000000D03*
%TD*%
%TO.P,MH3,1,Pin_1*%
%TO.N,GNDPWR*%
X103000000Y-97000000D03*
%TD*%
%TO.P,MH4,1,Pin_1*%
%TO.N,GNDPWR*%
X136000000Y-97000000D03*
%TD*%
D11*
%TO.P,R5,1*%
%TO.N,/Channel1/buffer/in+*%
X111250000Y-90550000D03*
%TO.P,R5,2*%
%TO.N,/Channel1/V+*%
X110280000Y-90550000D03*
%TD*%
%TO.P,R6,1*%
%TO.N,/Channel1/buffer/in-*%
X111235000Y-91650000D03*
%TO.P,R6,2*%
%TO.N,/Channel1/V-*%
X110265000Y-91650000D03*
%TD*%
D12*
%TO.P,L1,1*%
%TO.N,VD*%
X122660000Y-98450000D03*
%TO.P,L1,2*%
%TO.N,+3V3*%
X120610000Y-98450000D03*
%TD*%
D13*
%TO.P,C2,1*%
%TO.N,GND*%
X112650000Y-89565000D03*
%TO.P,C2,2*%
%TO.N,/Channel1/buffer/in+*%
X112650000Y-90535000D03*
%TD*%
%TO.P,C3,1*%
%TO.N,/Channel1/buffer/in-*%
X112650000Y-91650000D03*
%TO.P,C3,2*%
%TO.N,GND*%
X112650000Y-92620000D03*
%TD*%
%TO.P,C4,1*%
%TO.N,/Channel1/buffer/in+*%
X114050000Y-90590000D03*
%TO.P,C4,2*%
%TO.N,/Channel1/buffer/in-*%
X114050000Y-91560000D03*
%TD*%
D14*
%TO.P,C5,1*%
%TO.N,VD*%
X124165000Y-88350000D03*
%TO.P,C5,2*%
%TO.N,GND*%
X125135000Y-88350000D03*
%TD*%
D15*
%TO.P,J1,1,Pin_1*%
%TO.N,/Channel1/I+*%
X105250000Y-89050000D03*
%TO.P,J1,2,Pin_2*%
%TO.N,/Channel1/V+*%
X105250000Y-90050000D03*
%TO.P,J1,3,Pin_3*%
%TO.N,/Channel1/V-*%
X105250000Y-91050000D03*
%TO.P,J1,4,Pin_4*%
%TO.N,/Channel1/I-*%
X105250000Y-92050000D03*
D16*
%TO.P,J1,MP*%
%TO.N,N/C*%
X101375000Y-87750000D03*
X101375000Y-93350000D03*
%TD*%
D17*
%TO.P,JP1,1,1*%
%TO.N,/Channel1/I+*%
X107950000Y-88100000D03*
D18*
%TO.P,JP1,2,2*%
%TO.N,/Channel1/V+*%
X107950000Y-89400000D03*
%TD*%
D17*
%TO.P,JP2,1,1*%
%TO.N,/Channel1/V-*%
X107950000Y-91600000D03*
D18*
%TO.P,JP2,2,2*%
%TO.N,/Channel1/I-*%
X107950000Y-92900000D03*
%TD*%
D19*
%TO.P,R1,1*%
%TO.N,VD*%
X132050000Y-97375000D03*
%TO.P,R1,2*%
%TO.N,/sda-tx*%
X132050000Y-95625000D03*
%TD*%
%TO.P,R2,1*%
%TO.N,VD*%
X130400000Y-97375000D03*
%TO.P,R2,2*%
%TO.N,/scl-rx*%
X130400000Y-95625000D03*
%TD*%
D20*
%TO.P,J2,1,gnd*%
%TO.N,GND*%
X133750000Y-92000000D03*
%TO.P,J2,2,VCC*%
%TO.N,VD*%
X133750000Y-91000000D03*
%TO.P,J2,3,SDA*%
%TO.N,/sda-tx*%
X133750000Y-90000000D03*
%TO.P,J2,4,SCL*%
%TO.N,/scl-rx*%
X133750000Y-89000000D03*
D21*
%TO.P,J2,MP*%
%TO.N,N/C*%
X137625000Y-93300000D03*
X137625000Y-87700000D03*
%TD*%
D22*
%TO.P,U3,1*%
%TO.N,/Channel1/buffer/out+*%
X118225000Y-90750000D03*
%TO.P,U3,2,-*%
X117575000Y-90750000D03*
%TO.P,U3,3,+*%
%TO.N,/Channel1/buffer/in+*%
X116925000Y-90750000D03*
%TO.P,U3,4,V-*%
%TO.N,GND*%
X116275000Y-90750000D03*
%TO.P,U3,5,+*%
%TO.N,/Channel1/buffer/in-*%
X116275000Y-95150000D03*
%TO.P,U3,6,-*%
%TO.N,/Channel1/buffer/out-*%
X116925000Y-95150000D03*
%TO.P,U3,7*%
X117575000Y-95150000D03*
%TO.P,U3,8,V+*%
%TO.N,+3V3*%
X118225000Y-95150000D03*
%TD*%
D23*
%TO.P,U6,1*%
%TO.N,Net-(U5-Ref)*%
X112912500Y-82200000D03*
%TO.P,U6,2,V-*%
%TO.N,GND*%
X112912500Y-83150000D03*
%TO.P,U6,3,+*%
%TO.N,/Channel1/I+*%
X112912500Y-84100000D03*
%TO.P,U6,4,-*%
%TO.N,Net-(U5-Ref)*%
X115187500Y-84100000D03*
%TO.P,U6,5,V+*%
%TO.N,+3V3*%
X115187500Y-82200000D03*
%TD*%
D24*
%TO.P,U4,1,GNDF*%
%TO.N,GND*%
X131977500Y-85300000D03*
%TO.P,U4,2,GNDS*%
X131977500Y-84350000D03*
%TO.P,U4,3,ENABLE*%
%TO.N,+3V3*%
X131977500Y-83400000D03*
%TO.P,U4,4,VIN*%
X129702500Y-83400000D03*
%TO.P,U4,5,OUT_S*%
%TO.N,Net-(U4-OUT_F)*%
X129702500Y-84350000D03*
%TO.P,U4,6,OUT_F*%
X129702500Y-85300000D03*
%TD*%
D25*
%TO.P,R3,1*%
%TO.N,/Channel1/I+*%
X109850000Y-87340000D03*
%TO.P,R3,2*%
%TO.N,/Channel1/V+*%
X109850000Y-88360000D03*
%TD*%
D26*
%TO.P,J4,1,In*%
%TO.N,/Channel1/I-*%
X108850000Y-98750000D03*
D27*
%TO.P,J4,2,Ext*%
%TO.N,GND*%
X110250000Y-97350000D03*
X107450000Y-97350000D03*
X110250000Y-100150000D03*
X107450000Y-100150000D03*
%TD*%
D28*
%TO.P,U2,1,Vin+*%
%TO.N,/Channel1/buffer/out+*%
X121600000Y-93000000D03*
%TO.P,U2,2,Vss*%
%TO.N,GND*%
X122550000Y-93000000D03*
%TO.P,U2,3,SCL*%
%TO.N,/scl-rx*%
X123500000Y-93000000D03*
%TO.P,U2,4,SDA*%
%TO.N,/sda-tx*%
X123500000Y-90300000D03*
%TO.P,U2,5,Vdd*%
%TO.N,VD*%
X122550000Y-90300000D03*
%TO.P,U2,6,Vin-*%
%TO.N,/Channel1/buffer/out-*%
X121600000Y-90300000D03*
%TD*%
D29*
%TO.P,C1,1*%
%TO.N,VD*%
X123450000Y-96630000D03*
%TO.P,C1,2*%
%TO.N,unconnected-(C1-Pad2)*%
X123450000Y-95670000D03*
%TD*%
D30*
%TO.P,R12,1*%
%TO.N,Net-(R10-Pad2)*%
X109662500Y-85750000D03*
%TO.P,R12,2*%
%TO.N,/Channel1/I+*%
X107837500Y-85750000D03*
%TD*%
D31*
%TO.P,U1,1,A0*%
%TO.N,GND*%
X124945000Y-100525000D03*
%TO.P,U1,2,A1*%
X126215000Y-100525000D03*
%TO.P,U1,3,A2*%
X127485000Y-100525000D03*
%TO.P,U1,4,VSS*%
X128755000Y-100525000D03*
%TO.P,U1,5,SDA*%
%TO.N,/sda-tx*%
X128755000Y-95575000D03*
%TO.P,U1,6,SCL*%
%TO.N,/scl-rx*%
X127485000Y-95575000D03*
%TO.P,U1,7,WP*%
%TO.N,unconnected-(U1-WP-Pad7)*%
X126215000Y-95575000D03*
%TO.P,U1,8,VDD*%
%TO.N,VD*%
X124945000Y-95575000D03*
%TD*%
D32*
%TO.P,R8,1*%
%TO.N,Net-(R8-Pad1)*%
X129747500Y-81170000D03*
%TO.P,R8,2*%
%TO.N,GND*%
X131572500Y-81170000D03*
%TD*%
D33*
%TO.P,RV1,1,1*%
%TO.N,Net-(R7-Pad2)*%
X124930000Y-86100000D03*
%TO.P,RV1,2,2*%
%TO.N,Net-(U5-+)*%
X127470000Y-83560000D03*
%TO.P,RV1,3,3*%
%TO.N,Net-(R8-Pad1)*%
X124930000Y-81020000D03*
%TD*%
D34*
%TO.P,U5,1,-*%
%TO.N,GND*%
X122365000Y-86145000D03*
%TO.P,U5,2,Rg*%
%TO.N,unconnected-(U5-Rg-Pad2)*%
X122365000Y-84875000D03*
%TO.P,U5,3,Rg*%
%TO.N,unconnected-(U5-Rg-Pad3)*%
X122365000Y-83605000D03*
%TO.P,U5,4,+*%
%TO.N,Net-(U5-+)*%
X122365000Y-82335000D03*
%TO.P,U5,5,V-*%
%TO.N,GND*%
X117415000Y-82335000D03*
%TO.P,U5,6,Ref*%
%TO.N,Net-(U5-Ref)*%
X117415000Y-83605000D03*
%TO.P,U5,7*%
%TO.N,Net-(JP3-A)*%
X117415000Y-84875000D03*
%TO.P,U5,8,V+*%
%TO.N,+3V3*%
X117415000Y-86145000D03*
%TD*%
D35*
%TO.P,C8,1*%
%TO.N,GND*%
X117387500Y-87950000D03*
%TO.P,C8,2*%
%TO.N,+3V3*%
X119112500Y-87950000D03*
%TD*%
D36*
%TO.P,R11,1*%
%TO.N,GND*%
X110962500Y-95350000D03*
%TO.P,R11,2*%
%TO.N,/Channel1/I-*%
X109137500Y-95350000D03*
%TD*%
D37*
%TO.P,R10,1*%
%TO.N,Net-(JP3-B)*%
X108050000Y-82337500D03*
%TO.P,R10,2*%
%TO.N,Net-(R10-Pad2)*%
X108050000Y-84162500D03*
%TD*%
D36*
%TO.P,R7,1*%
%TO.N,Net-(U4-OUT_F)*%
X129362500Y-90250000D03*
%TO.P,R7,2*%
%TO.N,Net-(R7-Pad2)*%
X127537500Y-90250000D03*
%TD*%
%TO.P,R9,1*%
%TO.N,Net-(JP3-A)*%
X115162500Y-86350000D03*
%TO.P,R9,2*%
%TO.N,Net-(R10-Pad2)*%
X113337500Y-86350000D03*
%TD*%
D25*
%TO.P,R4,1*%
%TO.N,/Channel1/V-*%
X110050000Y-92740000D03*
%TO.P,R4,2*%
%TO.N,/Channel1/I-*%
X110050000Y-93760000D03*
%TD*%
D38*
%TO.P,C6,1*%
%TO.N,+3V3*%
X118212500Y-97350000D03*
%TO.P,C6,2*%
%TO.N,GND*%
X116487500Y-97350000D03*
%TD*%
D39*
%TO.P,JP3,1,A*%
%TO.N,Net-(JP3-A)*%
X110350000Y-83900000D03*
D40*
%TO.P,JP3,2,B*%
%TO.N,Net-(JP3-B)*%
X110350000Y-82600000D03*
%TD*%
D35*
%TO.P,C10,1*%
%TO.N,Net-(U4-OUT_F)*%
X129812500Y-87955000D03*
%TO.P,C10,2*%
%TO.N,GND*%
X131537500Y-87955000D03*
%TD*%
%TO.P,C9,1*%
%TO.N,GND*%
X113987500Y-80450000D03*
%TO.P,C9,2*%
%TO.N,+3V3*%
X115712500Y-80450000D03*
%TD*%
D38*
%TO.P,C7,1*%
%TO.N,GND*%
X135462500Y-79800000D03*
%TO.P,C7,2*%
%TO.N,+3V3*%
X133737500Y-79800000D03*
%TD*%
D41*
%TO.N,GND*%
X136950000Y-80550000D03*
X132718411Y-80878411D03*
X135250000Y-88700989D03*
X112250000Y-80250000D03*
X132050000Y-92200000D03*
X112650000Y-88750000D03*
X127550000Y-85950000D03*
X137250000Y-89250000D03*
X123350000Y-94750000D03*
X116150000Y-89150000D03*
X126150000Y-88250000D03*
X112650000Y-93650000D03*
X127650000Y-91550000D03*
X134450000Y-93050000D03*
%TO.N,+3V3*%
X116950000Y-80450000D03*
X121250000Y-87850000D03*
X121250000Y-96950000D03*
X122800000Y-80200000D03*
%TO.N,VD*%
X135450000Y-91250000D03*
X122465000Y-96965000D03*
X131590145Y-92854016D03*
X131350000Y-99130000D03*
X122950000Y-88450000D03*
%TO.N,/Channel1/buffer/out+*%
X120150000Y-93250000D03*
X119550000Y-90550000D03*
%TO.N,/scl-rx*%
X132000000Y-89000000D03*
%TO.N,/sda-tx*%
X128750000Y-93850000D03*
X135450000Y-89950000D03*
X126350000Y-89950000D03*
X132050000Y-94249990D03*
%TD*%
D42*
%TO.N,GND*%
X133750000Y-92000000D02*
X132250000Y-92000000D01*
X112550000Y-80450000D02*
X113987500Y-80450000D01*
X112650000Y-89565000D02*
X114365000Y-87850000D01*
X112650000Y-92620000D02*
X112650000Y-93650000D01*
X136950000Y-80550000D02*
X136212500Y-80550000D01*
X122550000Y-93950000D02*
X123350000Y-94750000D01*
X131864089Y-80878411D02*
X131572500Y-81170000D01*
X111950000Y-81050000D02*
X112550000Y-80450000D01*
X133750000Y-92000000D02*
X133750000Y-92350000D01*
X111850000Y-82471072D02*
X111850000Y-81928928D01*
X112450000Y-80450000D02*
X112250000Y-80250000D01*
X112528928Y-83150000D02*
X111850000Y-82471072D01*
X125605000Y-87705000D02*
X123975000Y-87705000D01*
X132250000Y-92000000D02*
X132050000Y-92200000D01*
X133750000Y-92350000D02*
X134450000Y-93050000D01*
X136212500Y-80550000D02*
X135462500Y-79800000D01*
X111950000Y-81050000D02*
X111950000Y-81828928D01*
X116275000Y-90750000D02*
X116275000Y-88962500D01*
X116275000Y-88962500D02*
X117387500Y-87850000D01*
X122550000Y-93000000D02*
X122550000Y-93950000D01*
X114365000Y-87850000D02*
X117387500Y-87850000D01*
X132718411Y-80878411D02*
X131864089Y-80878411D01*
X116275000Y-89275000D02*
X116150000Y-89150000D01*
X112650000Y-89565000D02*
X112650000Y-88750000D01*
X126150000Y-88250000D02*
X125605000Y-87705000D01*
X111950000Y-81828928D02*
X111850000Y-81928928D01*
X132100000Y-92250000D02*
X132050000Y-92200000D01*
X116275000Y-90750000D02*
X116275000Y-89275000D01*
X113987500Y-80450000D02*
X112450000Y-80450000D01*
%TO.N,/Channel1/V+*%
X107300000Y-90050000D02*
X107950000Y-89400000D01*
D43*
X108810000Y-89400000D02*
X107950000Y-89400000D01*
X109850000Y-88360000D02*
X108810000Y-89400000D01*
D42*
X107950000Y-89400000D02*
X109130000Y-89400000D01*
X109130000Y-89400000D02*
X110280000Y-90550000D01*
X105250000Y-90050000D02*
X107300000Y-90050000D01*
D43*
%TO.N,/Channel1/buffer/in+*%
X116925000Y-91675000D02*
X116925000Y-90750000D01*
X115950000Y-92250000D02*
X116350000Y-92250000D01*
X116350000Y-92250000D02*
X116925000Y-91675000D01*
X114290000Y-90590000D02*
X115950000Y-92250000D01*
X114050000Y-90590000D02*
X114290000Y-90590000D01*
D42*
X111250000Y-90550000D02*
X114010000Y-90550000D01*
D43*
%TO.N,/Channel1/buffer/in-*%
X114050000Y-91560000D02*
X116275000Y-93785000D01*
D42*
X111235000Y-91650000D02*
X113960000Y-91650000D01*
D43*
X116275000Y-93785000D02*
X116275000Y-95150000D01*
%TO.N,/Channel1/V-*%
X110050000Y-91865000D02*
X110265000Y-91650000D01*
X110050000Y-92740000D02*
X110050000Y-91865000D01*
D42*
X107400000Y-91050000D02*
X107950000Y-91600000D01*
X105250000Y-91050000D02*
X107400000Y-91050000D01*
X107950000Y-91600000D02*
X110215000Y-91600000D01*
%TO.N,+3V3*%
X131977500Y-82652500D02*
X133737500Y-80892500D01*
X133737500Y-80892500D02*
X133737500Y-79800000D01*
X131977500Y-83400000D02*
X131977500Y-82652500D01*
X119112500Y-87850000D02*
X121250000Y-87850000D01*
X132750000Y-79650000D02*
X132900000Y-79800000D01*
X115712500Y-80450000D02*
X116950000Y-80450000D01*
X118225000Y-97962500D02*
X118712500Y-98450000D01*
X132900000Y-79800000D02*
X133737500Y-79800000D01*
X117415000Y-86145000D02*
X118695000Y-86145000D01*
X115712500Y-80450000D02*
X115712500Y-81875000D01*
X115712500Y-81875000D02*
X115387500Y-82200000D01*
X118695000Y-86145000D02*
X119250000Y-86700000D01*
X120610000Y-98450000D02*
X118712500Y-98450000D01*
X118225000Y-95150000D02*
X118225000Y-97962500D01*
X132750000Y-79650000D02*
X123350000Y-79650000D01*
X123350000Y-79650000D02*
X122800000Y-80200000D01*
X129702500Y-83400000D02*
X131977500Y-83400000D01*
X121250000Y-97810000D02*
X120610000Y-98450000D01*
X119250000Y-86700000D02*
X119250000Y-87712500D01*
X121250000Y-96950000D02*
X121250000Y-97810000D01*
%TO.N,VD*%
X135200000Y-91000000D02*
X135450000Y-91250000D01*
X122660000Y-98450000D02*
X128950000Y-98450000D01*
X122660000Y-97160000D02*
X122465000Y-96965000D01*
X132050000Y-97375000D02*
X130400000Y-97375000D01*
X122550000Y-88850000D02*
X122950000Y-88450000D01*
X130400000Y-97375000D02*
X130025000Y-97375000D01*
X130025000Y-97375000D02*
X128950000Y-98450000D01*
X131425000Y-92688871D02*
X131590145Y-92854016D01*
X122660000Y-98450000D02*
X122660000Y-97160000D01*
X122465000Y-96965000D02*
X123115000Y-96965000D01*
X123890000Y-96630000D02*
X124945000Y-95575000D01*
X123450000Y-96630000D02*
X123890000Y-96630000D01*
X131350000Y-98075000D02*
X132050000Y-97375000D01*
X122950000Y-88450000D02*
X124065000Y-88450000D01*
X122550000Y-90300000D02*
X122550000Y-88850000D01*
X133750000Y-91000000D02*
X132366116Y-91000000D01*
X133750000Y-91000000D02*
X135200000Y-91000000D01*
X132366116Y-91000000D02*
X131425000Y-91941116D01*
X135400000Y-91300000D02*
X135450000Y-91250000D01*
X123115000Y-96965000D02*
X123450000Y-96630000D01*
X131425000Y-91941116D02*
X131425000Y-92688871D01*
X131350000Y-99130000D02*
X131350000Y-98075000D01*
D43*
%TO.N,/Channel1/I+*%
X111425480Y-82646914D02*
X111425480Y-81225480D01*
X109850000Y-87340000D02*
X108710000Y-87340000D01*
X111425480Y-81225480D02*
X111350000Y-81150000D01*
X111539283Y-83139283D02*
X111539283Y-82760717D01*
X108710000Y-87340000D02*
X107950000Y-88100000D01*
X111539283Y-82760717D02*
X111425480Y-82646914D01*
D42*
X107950000Y-86237500D02*
X108437500Y-85750000D01*
X108437500Y-85750000D02*
X107050000Y-85750000D01*
X107950000Y-88100000D02*
X107950000Y-86237500D01*
X107050000Y-85750000D02*
X106550000Y-85250000D01*
X106550000Y-85250000D02*
X106550000Y-81350000D01*
X107202408Y-88100000D02*
X107950000Y-88100000D01*
X106550000Y-81350000D02*
X106750000Y-81150000D01*
D43*
X112500000Y-84100000D02*
X111539283Y-83139283D01*
D42*
X106975000Y-88100000D02*
X107202408Y-88100000D01*
X106750000Y-81150000D02*
X111350000Y-81150000D01*
X106025000Y-89050000D02*
X106975000Y-88100000D01*
X105250000Y-89050000D02*
X106025000Y-89050000D01*
%TO.N,/Channel1/I-*%
X105250000Y-92050000D02*
X106100000Y-92900000D01*
X107950000Y-94062500D02*
X108837500Y-94950000D01*
D43*
X109137500Y-95350000D02*
X109137500Y-94672500D01*
D42*
X108850000Y-94962500D02*
X108850000Y-98750000D01*
X107950000Y-92900000D02*
X107950000Y-94062500D01*
X106100000Y-92900000D02*
X107950000Y-92900000D01*
D43*
X109137500Y-94672500D02*
X110050000Y-93760000D01*
D42*
%TO.N,Net-(JP3-A)*%
X117415000Y-84875000D02*
X116637500Y-84875000D01*
X113862500Y-85050000D02*
X111600000Y-85050000D01*
X111600000Y-85050000D02*
X110450000Y-83900000D01*
X115162500Y-86350000D02*
X113862500Y-85050000D01*
X116637500Y-84875000D02*
X115162500Y-86350000D01*
D43*
%TO.N,/Channel1/buffer/out-*%
X117575000Y-94225000D02*
X117575000Y-95150000D01*
X116925000Y-95150000D02*
X117575000Y-95150000D01*
X121500000Y-90300000D02*
X117575000Y-94225000D01*
%TO.N,/Channel1/buffer/out+*%
X120150000Y-93250000D02*
X120400000Y-93000000D01*
X118225000Y-90750000D02*
X119350000Y-90750000D01*
X117575000Y-90750000D02*
X118225000Y-90750000D01*
X121600000Y-93000000D02*
X120400000Y-93000000D01*
X119350000Y-90750000D02*
X119550000Y-90550000D01*
D42*
%TO.N,Net-(JP3-B)*%
X110450000Y-82600000D02*
X108312500Y-82600000D01*
%TO.N,/scl-rx*%
X127500000Y-93000000D02*
X130000000Y-93000000D01*
X130225010Y-90774990D02*
X130225010Y-93225010D01*
X133750000Y-89000000D02*
X132000000Y-89000000D01*
X130400000Y-94399980D02*
X130400000Y-95625000D01*
X127485000Y-95575000D02*
X127485000Y-93015000D01*
X130000000Y-93000000D02*
X130225010Y-93225010D01*
X130225010Y-93225010D02*
X130225010Y-94224990D01*
X130225010Y-94224990D02*
X130400000Y-94399980D01*
X127485000Y-93015000D02*
X127500000Y-93000000D01*
X123500000Y-93000000D02*
X127500000Y-93000000D01*
X132000000Y-89000000D02*
X130225010Y-90774990D01*
%TO.N,/sda-tx*%
X128755000Y-93855000D02*
X128750000Y-93850000D01*
X133750000Y-90000000D02*
X131725020Y-90000000D01*
X130850010Y-90875010D02*
X131725020Y-90000000D01*
X133800000Y-89950000D02*
X135450000Y-89950000D01*
X126350000Y-89950000D02*
X125450000Y-89950000D01*
X132050000Y-94249990D02*
X132050000Y-95625000D01*
X125450000Y-89950000D02*
X125100000Y-90300000D01*
X123500000Y-90300000D02*
X125100000Y-90300000D01*
X130850010Y-90875010D02*
X130850010Y-93050000D01*
X128755000Y-95575000D02*
X128755000Y-93855000D01*
X130850010Y-93050000D02*
X132050000Y-94249990D01*
%TO.N,Net-(U4-OUT_F)*%
X129702500Y-87845000D02*
X129812500Y-87955000D01*
X129702500Y-84350000D02*
X129702500Y-85300000D01*
X129812500Y-87955000D02*
X129812500Y-89800000D01*
X129702500Y-85300000D02*
X129702500Y-87845000D01*
X129812500Y-89800000D02*
X129362500Y-90250000D01*
%TO.N,Net-(R7-Pad2)*%
X127537500Y-88707500D02*
X124930000Y-86100000D01*
X127537500Y-90250000D02*
X127537500Y-88707500D01*
%TO.N,Net-(R8-Pad1)*%
X125320000Y-81150000D02*
X125180000Y-81010000D01*
X125080000Y-81170000D02*
X124930000Y-81020000D01*
X129747500Y-81170000D02*
X125080000Y-81170000D01*
%TO.N,Net-(R10-Pad2)*%
X108675000Y-84162500D02*
X110262500Y-85750000D01*
X108050000Y-84162500D02*
X108675000Y-84162500D01*
X113337500Y-86350000D02*
X110862500Y-86350000D01*
X110862500Y-86350000D02*
X110262500Y-85750000D01*
%TO.N,Net-(U5-+)*%
X126245000Y-82335000D02*
X127470000Y-83560000D01*
X122365000Y-82335000D02*
X126245000Y-82335000D01*
%TO.N,Net-(U5-Ref)*%
X115387500Y-83787500D02*
X115387500Y-84100000D01*
X116920000Y-84100000D02*
X117415000Y-83605000D01*
X113112500Y-82200000D02*
X113800000Y-82200000D01*
X113800000Y-82200000D02*
X115387500Y-83787500D01*
X115387500Y-84100000D02*
X116920000Y-84100000D01*
%TD*%
%TA.AperFunction,Conductor*%
%TO.N,GND*%
G36*
X106039465Y-85637509D02*
G01*
X106054301Y-85650206D01*
X106059779Y-85655684D01*
X106072617Y-85670714D01*
X106084526Y-85687104D01*
X106084530Y-85687109D01*
X106120880Y-85717180D01*
X106125273Y-85721177D01*
X106542757Y-86138662D01*
X106552719Y-86151096D01*
X106552946Y-86150909D01*
X106558000Y-86157018D01*
X106609079Y-86204984D01*
X106630223Y-86226129D01*
X106630227Y-86226132D01*
X106630230Y-86226135D01*
X106635782Y-86230442D01*
X106640269Y-86234273D01*
X106662959Y-86255581D01*
X106674677Y-86266585D01*
X106674679Y-86266586D01*
X106692428Y-86276343D01*
X106708953Y-86287198D01*
X106724959Y-86299614D01*
X106766686Y-86317670D01*
X106768262Y-86318352D01*
X106773583Y-86320958D01*
X106814940Y-86343695D01*
X106814948Y-86343697D01*
X106834558Y-86348732D01*
X106853267Y-86355137D01*
X106871855Y-86363181D01*
X106893246Y-86366569D01*
X106957400Y-86396981D01*
X106980777Y-86424869D01*
X106998343Y-86453347D01*
X106998347Y-86453352D01*
X107121647Y-86576652D01*
X107121653Y-86576657D01*
X107121654Y-86576658D01*
X107256647Y-86659923D01*
X107304125Y-86712709D01*
X107316500Y-86767164D01*
X107316500Y-87079724D01*
X107296498Y-87147845D01*
X107242845Y-87194337D01*
X107213485Y-87207745D01*
X107090478Y-87286797D01*
X107090472Y-87286802D01*
X106983506Y-87379487D01*
X106982632Y-87380191D01*
X106981819Y-87380949D01*
X106939732Y-87429520D01*
X106880005Y-87467903D01*
X106879656Y-87468005D01*
X106855651Y-87474978D01*
X106836304Y-87478985D01*
X106816206Y-87481525D01*
X106816197Y-87481527D01*
X106772331Y-87498894D01*
X106766716Y-87500817D01*
X106721408Y-87513981D01*
X106703964Y-87524297D01*
X106686218Y-87532990D01*
X106667382Y-87540448D01*
X106629209Y-87568181D01*
X106624248Y-87571440D01*
X106583638Y-87595458D01*
X106569311Y-87609784D01*
X106554285Y-87622617D01*
X106537895Y-87634525D01*
X106537893Y-87634527D01*
X106507808Y-87670892D01*
X106503812Y-87675283D01*
X105974498Y-88204596D01*
X105912188Y-88238620D01*
X105885405Y-88241500D01*
X104558494Y-88241500D01*
X104521170Y-88244437D01*
X104361394Y-88290856D01*
X104218196Y-88375544D01*
X104218189Y-88375549D01*
X104100549Y-88493189D01*
X104100544Y-88493196D01*
X104015856Y-88636394D01*
X103969437Y-88796170D01*
X103966500Y-88833494D01*
X103966500Y-89266506D01*
X103969437Y-89303829D01*
X103983895Y-89353594D01*
X104009869Y-89442998D01*
X104015856Y-89463603D01*
X104029020Y-89485863D01*
X104046478Y-89554679D01*
X104029020Y-89614137D01*
X104015856Y-89636396D01*
X103969437Y-89796170D01*
X103966500Y-89833494D01*
X103966500Y-90266506D01*
X103969437Y-90303829D01*
X103983428Y-90351985D01*
X104014018Y-90457279D01*
X104015856Y-90463603D01*
X104029020Y-90485863D01*
X104046478Y-90554679D01*
X104029020Y-90614137D01*
X104015856Y-90636396D01*
X104015855Y-90636398D01*
X104015855Y-90636399D01*
X104012665Y-90647380D01*
X103969437Y-90796170D01*
X103966500Y-90833494D01*
X103966500Y-91266506D01*
X103969437Y-91303829D01*
X103991132Y-91378502D01*
X104011289Y-91447886D01*
X104015856Y-91463603D01*
X104029020Y-91485863D01*
X104046478Y-91554679D01*
X104029020Y-91614137D01*
X104015856Y-91636396D01*
X103969437Y-91796170D01*
X103966500Y-91833494D01*
X103966500Y-92266506D01*
X103969437Y-92303829D01*
X104015856Y-92463605D01*
X104100544Y-92606803D01*
X104100549Y-92606810D01*
X104218189Y-92724450D01*
X104218196Y-92724455D01*
X104361394Y-92809143D01*
X104361397Y-92809143D01*
X104361399Y-92809145D01*
X104521169Y-92855562D01*
X104528634Y-92856149D01*
X104558494Y-92858500D01*
X104558498Y-92858500D01*
X105110406Y-92858500D01*
X105178527Y-92878502D01*
X105199501Y-92895405D01*
X105592753Y-93288657D01*
X105602720Y-93301097D01*
X105602947Y-93300910D01*
X105607999Y-93307017D01*
X105608000Y-93307018D01*
X105659095Y-93354999D01*
X105680231Y-93376135D01*
X105685770Y-93380431D01*
X105690282Y-93384285D01*
X105724678Y-93416585D01*
X105724682Y-93416588D01*
X105742430Y-93426345D01*
X105758957Y-93437201D01*
X105774160Y-93448994D01*
X105774960Y-93449614D01*
X105818259Y-93468351D01*
X105823585Y-93470960D01*
X105864935Y-93493693D01*
X105864938Y-93493694D01*
X105864940Y-93493695D01*
X105884562Y-93498733D01*
X105903263Y-93505135D01*
X105915814Y-93510567D01*
X105921852Y-93513180D01*
X105921853Y-93513180D01*
X105921855Y-93513181D01*
X105968477Y-93520564D01*
X105974262Y-93521763D01*
X106019970Y-93533500D01*
X106040224Y-93533500D01*
X106059934Y-93535051D01*
X106062141Y-93535400D01*
X106079943Y-93538220D01*
X106113870Y-93535012D01*
X106126917Y-93533780D01*
X106132850Y-93533500D01*
X106850148Y-93533500D01*
X106918269Y-93553502D01*
X106945372Y-93576987D01*
X106981817Y-93619047D01*
X106981821Y-93619051D01*
X107090482Y-93713205D01*
X107187629Y-93775637D01*
X107211553Y-93791013D01*
X107213488Y-93792256D01*
X107242843Y-93805662D01*
X107296498Y-93852154D01*
X107316500Y-93920274D01*
X107316500Y-93978646D01*
X107314751Y-93994488D01*
X107315044Y-93994516D01*
X107314298Y-94002407D01*
X107316500Y-94072457D01*
X107316500Y-94102351D01*
X107316501Y-94102372D01*
X107317378Y-94109320D01*
X107317844Y-94115232D01*
X107319326Y-94162388D01*
X107319327Y-94162393D01*
X107324977Y-94181839D01*
X107328986Y-94201197D01*
X107331525Y-94221293D01*
X107331526Y-94221299D01*
X107348893Y-94265162D01*
X107350816Y-94270779D01*
X107363982Y-94316093D01*
X107374294Y-94333531D01*
X107382988Y-94351279D01*
X107390444Y-94370109D01*
X107390450Y-94370120D01*
X107418177Y-94408283D01*
X107421437Y-94413246D01*
X107445460Y-94453865D01*
X107459779Y-94468184D01*
X107472617Y-94483214D01*
X107479653Y-94492897D01*
X107484528Y-94499607D01*
X107490507Y-94504553D01*
X107520886Y-94529685D01*
X107525267Y-94533671D01*
X107805091Y-94813495D01*
X108079595Y-95087999D01*
X108113621Y-95150311D01*
X108116500Y-95177094D01*
X108116500Y-95850544D01*
X108127112Y-95954425D01*
X108136979Y-95984201D01*
X108182885Y-96122738D01*
X108197740Y-96146821D01*
X108216500Y-96212969D01*
X108216500Y-96226456D01*
X108196498Y-96294577D01*
X108142842Y-96341070D01*
X108072568Y-96351174D01*
X108061531Y-96349081D01*
X108059095Y-96348505D01*
X107998597Y-96342000D01*
X107704000Y-96342000D01*
X107704000Y-98358000D01*
X107745141Y-98358000D01*
X107813262Y-98378002D01*
X107859755Y-98431658D01*
X107869859Y-98501932D01*
X107865718Y-98520564D01*
X107856092Y-98552299D01*
X107856090Y-98552307D01*
X107836620Y-98749996D01*
X107836620Y-98750003D01*
X107856090Y-98947692D01*
X107856091Y-98947697D01*
X107856092Y-98947701D01*
X107865716Y-98979427D01*
X107866349Y-99050418D01*
X107828500Y-99110484D01*
X107764185Y-99140553D01*
X107745141Y-99142000D01*
X107704000Y-99142000D01*
X107704000Y-99896000D01*
X108458000Y-99896000D01*
X108458000Y-99854858D01*
X108478002Y-99786737D01*
X108531658Y-99740244D01*
X108601932Y-99730140D01*
X108620556Y-99734278D01*
X108652299Y-99743908D01*
X108652305Y-99743908D01*
X108652307Y-99743909D01*
X108849997Y-99763380D01*
X108850000Y-99763380D01*
X108850003Y-99763380D01*
X109047692Y-99743909D01*
X109047692Y-99743908D01*
X109047701Y-99743908D01*
X109079427Y-99734283D01*
X109150415Y-99733649D01*
X109210482Y-99771497D01*
X109240552Y-99835811D01*
X109242000Y-99854858D01*
X109242000Y-99896000D01*
X109996000Y-99896000D01*
X109996000Y-99142000D01*
X110504000Y-99142000D01*
X110504000Y-99896000D01*
X111258000Y-99896000D01*
X111258000Y-99601414D01*
X111257999Y-99601402D01*
X111251494Y-99540906D01*
X111200444Y-99404035D01*
X111200444Y-99404034D01*
X111112904Y-99287095D01*
X110995965Y-99199555D01*
X110859093Y-99148505D01*
X110798597Y-99142000D01*
X110504000Y-99142000D01*
X109996000Y-99142000D01*
X109954859Y-99142000D01*
X109886738Y-99121998D01*
X109840245Y-99068342D01*
X109830141Y-98998068D01*
X109834281Y-98979435D01*
X109843908Y-98947701D01*
X109845429Y-98932255D01*
X109863380Y-98750003D01*
X109863380Y-98749996D01*
X109843909Y-98552307D01*
X109843908Y-98552305D01*
X109843908Y-98552299D01*
X109834283Y-98520572D01*
X109833651Y-98449582D01*
X109871500Y-98389516D01*
X109935815Y-98359447D01*
X109954859Y-98358000D01*
X109996000Y-98358000D01*
X109996000Y-97604000D01*
X110504000Y-97604000D01*
X110504000Y-98358000D01*
X110798585Y-98358000D01*
X110798597Y-98357999D01*
X110859093Y-98351494D01*
X110995964Y-98300444D01*
X110995965Y-98300444D01*
X111112904Y-98212904D01*
X111200444Y-98095965D01*
X111200444Y-98095964D01*
X111251494Y-97959093D01*
X111257999Y-97898597D01*
X111258000Y-97898585D01*
X111258000Y-97604000D01*
X115442000Y-97604000D01*
X115442000Y-97637184D01*
X115452430Y-97739273D01*
X115452431Y-97739276D01*
X115507248Y-97904707D01*
X115598737Y-98053033D01*
X115598742Y-98053039D01*
X115721960Y-98176257D01*
X115721966Y-98176262D01*
X115870292Y-98267751D01*
X116035723Y-98322568D01*
X116035726Y-98322569D01*
X116137815Y-98332999D01*
X116137815Y-98333000D01*
X116233500Y-98333000D01*
X116233500Y-97604000D01*
X115442000Y-97604000D01*
X111258000Y-97604000D01*
X110504000Y-97604000D01*
X109996000Y-97604000D01*
X109996000Y-97222000D01*
X110016002Y-97153879D01*
X110069658Y-97107386D01*
X110122000Y-97096000D01*
X111258000Y-97096000D01*
X111258000Y-96801414D01*
X111257999Y-96801402D01*
X111251494Y-96740907D01*
X111243653Y-96719884D01*
X111238587Y-96649068D01*
X111272611Y-96586755D01*
X111334922Y-96552729D01*
X111348902Y-96550501D01*
X111379324Y-96547393D01*
X111547525Y-96491657D01*
X111698339Y-96398634D01*
X111698345Y-96398629D01*
X111823629Y-96273345D01*
X111823634Y-96273339D01*
X111916657Y-96122525D01*
X111972393Y-95954321D01*
X111972394Y-95954318D01*
X111982999Y-95850516D01*
X111983000Y-95850516D01*
X111983000Y-95604000D01*
X110834500Y-95604000D01*
X110766379Y-95583998D01*
X110719886Y-95530342D01*
X110708500Y-95478000D01*
X110708500Y-94383737D01*
X110728502Y-94315616D01*
X110745405Y-94294641D01*
X110747506Y-94292541D01*
X110814774Y-94178797D01*
X110830267Y-94152600D01*
X110830267Y-94152598D01*
X110830269Y-94152596D01*
X110833347Y-94142000D01*
X111216500Y-94142000D01*
X111216500Y-95096000D01*
X111983000Y-95096000D01*
X111983000Y-94849483D01*
X111972394Y-94745681D01*
X111972393Y-94745678D01*
X111916657Y-94577474D01*
X111823634Y-94426660D01*
X111823629Y-94426654D01*
X111698345Y-94301370D01*
X111698339Y-94301365D01*
X111547525Y-94208342D01*
X111379321Y-94152606D01*
X111379318Y-94152605D01*
X111275516Y-94142000D01*
X111216500Y-94142000D01*
X110833347Y-94142000D01*
X110875629Y-93996466D01*
X110876352Y-93987278D01*
X110878500Y-93959993D01*
X110878499Y-93560010D01*
X110875629Y-93523535D01*
X110874765Y-93520560D01*
X110830269Y-93367404D01*
X110798767Y-93314137D01*
X110781308Y-93245325D01*
X110798766Y-93185862D01*
X110830269Y-93132596D01*
X110875629Y-92976466D01*
X110878500Y-92939989D01*
X110878500Y-92874000D01*
X111825837Y-92874000D01*
X111871131Y-93029902D01*
X111955436Y-93172453D01*
X111955439Y-93172457D01*
X112072542Y-93289560D01*
X112072546Y-93289563D01*
X112215098Y-93373869D01*
X112374143Y-93420076D01*
X112396000Y-93421795D01*
X112396000Y-92874000D01*
X112904000Y-92874000D01*
X112904000Y-93421794D01*
X112925860Y-93420075D01*
X113084901Y-93373869D01*
X113227453Y-93289563D01*
X113227457Y-93289560D01*
X113344560Y-93172457D01*
X113344563Y-93172453D01*
X113428868Y-93029902D01*
X113474163Y-92874000D01*
X112904000Y-92874000D01*
X112396000Y-92874000D01*
X111825837Y-92874000D01*
X110878500Y-92874000D01*
X110878499Y-92603570D01*
X110898501Y-92535451D01*
X110952156Y-92488958D01*
X111014389Y-92477960D01*
X111015829Y-92478073D01*
X111021253Y-92478500D01*
X111448746Y-92478499D01*
X111448748Y-92478499D01*
X111467341Y-92477036D01*
X111485937Y-92475573D01*
X111645100Y-92429332D01*
X111722520Y-92383545D01*
X111786659Y-92366000D01*
X112115614Y-92366000D01*
X112179753Y-92383547D01*
X112214895Y-92404330D01*
X112214898Y-92404330D01*
X112214900Y-92404332D01*
X112374063Y-92450573D01*
X112411253Y-92453500D01*
X112888746Y-92453499D01*
X112888748Y-92453499D01*
X112907341Y-92452036D01*
X112925937Y-92450573D01*
X113085100Y-92404332D01*
X113085102Y-92404330D01*
X113085104Y-92404330D01*
X113120247Y-92383547D01*
X113184386Y-92366000D01*
X113474163Y-92366000D01*
X113478925Y-92359657D01*
X113535821Y-92317192D01*
X113606644Y-92312228D01*
X113614838Y-92314313D01*
X113614896Y-92314330D01*
X113614900Y-92314332D01*
X113774063Y-92360573D01*
X113811253Y-92363500D01*
X113940759Y-92363499D01*
X114008880Y-92383501D01*
X114029855Y-92400404D01*
X115611442Y-93981991D01*
X115645468Y-94044303D01*
X115640403Y-94115118D01*
X115623216Y-94146594D01*
X115599112Y-94178793D01*
X115599110Y-94178797D01*
X115548011Y-94315795D01*
X115548009Y-94315803D01*
X115541500Y-94376350D01*
X115541500Y-95923649D01*
X115548009Y-95984196D01*
X115548011Y-95984204D01*
X115599110Y-96121202D01*
X115599112Y-96121207D01*
X115686738Y-96238261D01*
X115763544Y-96295757D01*
X115806091Y-96352593D01*
X115811155Y-96423408D01*
X115777130Y-96485721D01*
X115754184Y-96503865D01*
X115721965Y-96523738D01*
X115721960Y-96523742D01*
X115598742Y-96646960D01*
X115598737Y-96646966D01*
X115507248Y-96795292D01*
X115452431Y-96960723D01*
X115452430Y-96960726D01*
X115442000Y-97062815D01*
X115442000Y-97096000D01*
X116615500Y-97096000D01*
X116683621Y-97116002D01*
X116730114Y-97169658D01*
X116741500Y-97222000D01*
X116741500Y-98333000D01*
X116837185Y-98333000D01*
X116837184Y-98332999D01*
X116939273Y-98322569D01*
X116939276Y-98322568D01*
X117104707Y-98267751D01*
X117253033Y-98176262D01*
X117260547Y-98168748D01*
X117322858Y-98134721D01*
X117393674Y-98139783D01*
X117438742Y-98168746D01*
X117446654Y-98176658D01*
X117595080Y-98268209D01*
X117621816Y-98277068D01*
X117643217Y-98284160D01*
X117701588Y-98324574D01*
X117712035Y-98339620D01*
X117720459Y-98353863D01*
X117720462Y-98353867D01*
X117734779Y-98368184D01*
X117747617Y-98383214D01*
X117752196Y-98389516D01*
X117758405Y-98398062D01*
X117759526Y-98399604D01*
X117759530Y-98399609D01*
X117795880Y-98429680D01*
X117800273Y-98433677D01*
X118205257Y-98838662D01*
X118215219Y-98851096D01*
X118215446Y-98850909D01*
X118220500Y-98857018D01*
X118271579Y-98904984D01*
X118292723Y-98926129D01*
X118292727Y-98926132D01*
X118292730Y-98926135D01*
X118298282Y-98930442D01*
X118302769Y-98934273D01*
X118324352Y-98954541D01*
X118337177Y-98966585D01*
X118337179Y-98966586D01*
X118354928Y-98976343D01*
X118371454Y-98987199D01*
X118378393Y-98992582D01*
X118387459Y-98999614D01*
X118429186Y-99017670D01*
X118430762Y-99018352D01*
X118436083Y-99020958D01*
X118477440Y-99043695D01*
X118477448Y-99043697D01*
X118497058Y-99048732D01*
X118515767Y-99055137D01*
X118534355Y-99063181D01*
X118580977Y-99070564D01*
X118586762Y-99071763D01*
X118632470Y-99083500D01*
X118652724Y-99083500D01*
X118672434Y-99085051D01*
X118674641Y-99085400D01*
X118692443Y-99088220D01*
X118726370Y-99085012D01*
X118739417Y-99083780D01*
X118745350Y-99083500D01*
X119455761Y-99083500D01*
X119523882Y-99103502D01*
X119570375Y-99157158D01*
X119575365Y-99169867D01*
X119592883Y-99222734D01*
X119592884Y-99222736D01*
X119592885Y-99222738D01*
X119647355Y-99311047D01*
X119685970Y-99373652D01*
X119685975Y-99373658D01*
X119811341Y-99499024D01*
X119811347Y-99499029D01*
X119811348Y-99499030D01*
X119962262Y-99592115D01*
X120130574Y-99647887D01*
X120234455Y-99658500D01*
X120985544Y-99658499D01*
X121089426Y-99647887D01*
X121257738Y-99592115D01*
X121408652Y-99499030D01*
X121534030Y-99373652D01*
X121534031Y-99373649D01*
X121536162Y-99370956D01*
X121538098Y-99369584D01*
X121539220Y-99368463D01*
X121539411Y-99368654D01*
X121594101Y-99329925D01*
X121665026Y-99326733D01*
X121726418Y-99362392D01*
X121733838Y-99370956D01*
X121735971Y-99373654D01*
X121861341Y-99499024D01*
X121861347Y-99499029D01*
X121861348Y-99499030D01*
X122012262Y-99592115D01*
X122180574Y-99647887D01*
X122284455Y-99658500D01*
X123035544Y-99658499D01*
X123139426Y-99647887D01*
X123307738Y-99592115D01*
X123458652Y-99499030D01*
X123584030Y-99373652D01*
X123677115Y-99222738D01*
X123685000Y-99198942D01*
X123694635Y-99169867D01*
X123735049Y-99111496D01*
X123800605Y-99084240D01*
X123814239Y-99083500D01*
X124176756Y-99083500D01*
X124244877Y-99103502D01*
X124291370Y-99157158D01*
X124301474Y-99227432D01*
X124274591Y-99286293D01*
X124275806Y-99287235D01*
X124270948Y-99293498D01*
X124186318Y-99436598D01*
X124139934Y-99596250D01*
X124137000Y-99633539D01*
X124137000Y-100271000D01*
X129562999Y-100271000D01*
X129562999Y-99633542D01*
X129560065Y-99596249D01*
X129513681Y-99436599D01*
X129429051Y-99293498D01*
X129429050Y-99293496D01*
X129311503Y-99175949D01*
X129308963Y-99173979D01*
X129307480Y-99171926D01*
X129305893Y-99170339D01*
X129306149Y-99170082D01*
X129267395Y-99116425D01*
X129263541Y-99045533D01*
X129298627Y-98983811D01*
X129322048Y-98965963D01*
X129341362Y-98954542D01*
X129355685Y-98940218D01*
X129370724Y-98927374D01*
X129387107Y-98915472D01*
X129417193Y-98879103D01*
X129421161Y-98874741D01*
X129870957Y-98424945D01*
X129933267Y-98390921D01*
X129999682Y-98394437D01*
X130010619Y-98398062D01*
X130112787Y-98408500D01*
X130590500Y-98408499D01*
X130658621Y-98428501D01*
X130705114Y-98482156D01*
X130716500Y-98534499D01*
X130716500Y-98582262D01*
X130697187Y-98649298D01*
X130616958Y-98776981D01*
X130616957Y-98776984D01*
X130559839Y-98940220D01*
X130556783Y-98948953D01*
X130536384Y-99130000D01*
X130556783Y-99311047D01*
X130556783Y-99311049D01*
X130556784Y-99311050D01*
X130616957Y-99483015D01*
X130616958Y-99483018D01*
X130713887Y-99637279D01*
X130713888Y-99637281D01*
X130842718Y-99766111D01*
X130842720Y-99766112D01*
X130996981Y-99863041D01*
X130996982Y-99863041D01*
X130996985Y-99863043D01*
X131168953Y-99923217D01*
X131350000Y-99943616D01*
X131531047Y-99923217D01*
X131703015Y-99863043D01*
X131857281Y-99766111D01*
X131986111Y-99637281D01*
X132083043Y-99483015D01*
X132143217Y-99311047D01*
X132163616Y-99130000D01*
X132143217Y-98948953D01*
X132083043Y-98776985D01*
X132083041Y-98776982D01*
X132083041Y-98776981D01*
X132002813Y-98649298D01*
X131983500Y-98582262D01*
X131983500Y-98534499D01*
X132003502Y-98466378D01*
X132057158Y-98419885D01*
X132109500Y-98408499D01*
X132337212Y-98408499D01*
X132439381Y-98398062D01*
X132604920Y-98343209D01*
X132753346Y-98251658D01*
X132753350Y-98251653D01*
X132759104Y-98247105D01*
X132760839Y-98249300D01*
X132811812Y-98221443D01*
X132882630Y-98226482D01*
X132939481Y-98269009D01*
X132955691Y-98297915D01*
X132992876Y-98391242D01*
X133160922Y-98708210D01*
X133160924Y-98708214D01*
X133324147Y-98948949D01*
X133362258Y-99005159D01*
X133502563Y-99170339D01*
X133594516Y-99278595D01*
X133854962Y-99525304D01*
X133854977Y-99525317D01*
X134140586Y-99742431D01*
X134447995Y-99927393D01*
X134773599Y-100078033D01*
X135113583Y-100192587D01*
X135463958Y-100269711D01*
X135820618Y-100308500D01*
X135820626Y-100308500D01*
X136179374Y-100308500D01*
X136179382Y-100308500D01*
X136536042Y-100269711D01*
X136886417Y-100192587D01*
X137226401Y-100078033D01*
X137552005Y-99927393D01*
X137859414Y-99742431D01*
X138145023Y-99525317D01*
X138189678Y-99483018D01*
X138201384Y-99471928D01*
X138405484Y-99278595D01*
X138637742Y-99005159D01*
X138694211Y-98921872D01*
X138748995Y-98876715D01*
X138819496Y-98868344D01*
X138883331Y-98899417D01*
X138920233Y-98960070D01*
X138924500Y-98992582D01*
X138924500Y-102048500D01*
X138904498Y-102116621D01*
X138850842Y-102163114D01*
X138798500Y-102174500D01*
X129264051Y-102174500D01*
X129195930Y-102154498D01*
X129149437Y-102100842D01*
X129139333Y-102030568D01*
X129168827Y-101965988D01*
X129199912Y-101940047D01*
X129311496Y-101874056D01*
X129311503Y-101874050D01*
X129429050Y-101756503D01*
X129429051Y-101756501D01*
X129513681Y-101613401D01*
X129560065Y-101453749D01*
X129563000Y-101416461D01*
X129563000Y-100779000D01*
X124137001Y-100779000D01*
X124137001Y-101416458D01*
X124139934Y-101453750D01*
X124186318Y-101613400D01*
X124270948Y-101756501D01*
X124270949Y-101756503D01*
X124388496Y-101874050D01*
X124388503Y-101874056D01*
X124500088Y-101940047D01*
X124548541Y-101991939D01*
X124561246Y-102061790D01*
X124534171Y-102127421D01*
X124475910Y-102167995D01*
X124435949Y-102174500D01*
X100201500Y-102174500D01*
X100133379Y-102154498D01*
X100086886Y-102100842D01*
X100075500Y-102048500D01*
X100075500Y-100404000D01*
X106442000Y-100404000D01*
X106442000Y-100698597D01*
X106448505Y-100759093D01*
X106499555Y-100895964D01*
X106499555Y-100895965D01*
X106587095Y-101012904D01*
X106704034Y-101100444D01*
X106840906Y-101151494D01*
X106901402Y-101157999D01*
X106901415Y-101158000D01*
X107196000Y-101158000D01*
X107196000Y-100404000D01*
X107704000Y-100404000D01*
X107704000Y-101158000D01*
X107998585Y-101158000D01*
X107998597Y-101157999D01*
X108059093Y-101151494D01*
X108195964Y-101100444D01*
X108195965Y-101100444D01*
X108312904Y-101012904D01*
X108400444Y-100895965D01*
X108400444Y-100895964D01*
X108451494Y-100759093D01*
X108457999Y-100698597D01*
X108458000Y-100698585D01*
X108458000Y-100404000D01*
X109242000Y-100404000D01*
X109242000Y-100698597D01*
X109248505Y-100759093D01*
X109299555Y-100895964D01*
X109299555Y-100895965D01*
X109387095Y-101012904D01*
X109504034Y-101100444D01*
X109640906Y-101151494D01*
X109701402Y-101157999D01*
X109701415Y-101158000D01*
X109996000Y-101158000D01*
X109996000Y-100404000D01*
X110504000Y-100404000D01*
X110504000Y-101158000D01*
X110798585Y-101158000D01*
X110798597Y-101157999D01*
X110859093Y-101151494D01*
X110995964Y-101100444D01*
X110995965Y-101100444D01*
X111112904Y-101012904D01*
X111200444Y-100895965D01*
X111200444Y-100895964D01*
X111251494Y-100759093D01*
X111257999Y-100698597D01*
X111258000Y-100698585D01*
X111258000Y-100404000D01*
X110504000Y-100404000D01*
X109996000Y-100404000D01*
X109242000Y-100404000D01*
X108458000Y-100404000D01*
X107704000Y-100404000D01*
X107196000Y-100404000D01*
X106442000Y-100404000D01*
X100075500Y-100404000D01*
X100075500Y-98992582D01*
X100095502Y-98924461D01*
X100149158Y-98877968D01*
X100219432Y-98867864D01*
X100284012Y-98897358D01*
X100305787Y-98921871D01*
X100362258Y-99005159D01*
X100502563Y-99170339D01*
X100594516Y-99278595D01*
X100854962Y-99525304D01*
X100854977Y-99525317D01*
X101140586Y-99742431D01*
X101447995Y-99927393D01*
X101773599Y-100078033D01*
X102113583Y-100192587D01*
X102463958Y-100269711D01*
X102820618Y-100308500D01*
X102820626Y-100308500D01*
X103179374Y-100308500D01*
X103179382Y-100308500D01*
X103536042Y-100269711D01*
X103886417Y-100192587D01*
X104226401Y-100078033D01*
X104552005Y-99927393D01*
X104604181Y-99896000D01*
X106442000Y-99896000D01*
X107196000Y-99896000D01*
X107196000Y-99142000D01*
X106901402Y-99142000D01*
X106840906Y-99148505D01*
X106704035Y-99199555D01*
X106704034Y-99199555D01*
X106587095Y-99287095D01*
X106499555Y-99404034D01*
X106499555Y-99404035D01*
X106448505Y-99540906D01*
X106442000Y-99601402D01*
X106442000Y-99896000D01*
X104604181Y-99896000D01*
X104859414Y-99742431D01*
X105145023Y-99525317D01*
X105189678Y-99483018D01*
X105201384Y-99471928D01*
X105405484Y-99278595D01*
X105637742Y-99005159D01*
X105839075Y-98708215D01*
X106007123Y-98391243D01*
X106139915Y-98057961D01*
X106194593Y-97861028D01*
X106232090Y-97800743D01*
X106296228Y-97770299D01*
X106366643Y-97779364D01*
X106420980Y-97825059D01*
X106441986Y-97892877D01*
X106442000Y-97894738D01*
X106442000Y-97898597D01*
X106448505Y-97959093D01*
X106499555Y-98095964D01*
X106499555Y-98095965D01*
X106587095Y-98212904D01*
X106704034Y-98300444D01*
X106840906Y-98351494D01*
X106901402Y-98357999D01*
X106901415Y-98358000D01*
X107196000Y-98358000D01*
X107196000Y-96342000D01*
X106901402Y-96342000D01*
X106840906Y-96348505D01*
X106704035Y-96399555D01*
X106704034Y-96399555D01*
X106587097Y-96487094D01*
X106503137Y-96599251D01*
X106446301Y-96641797D01*
X106375485Y-96646861D01*
X106313173Y-96612836D01*
X106279148Y-96550523D01*
X106277929Y-96544125D01*
X106274587Y-96523742D01*
X106259875Y-96433999D01*
X106235896Y-96287730D01*
X106218883Y-96226456D01*
X106139915Y-95942039D01*
X106007123Y-95608757D01*
X105839075Y-95291785D01*
X105637742Y-94994841D01*
X105405484Y-94721405D01*
X105346598Y-94665625D01*
X105145037Y-94474695D01*
X105145022Y-94474682D01*
X104859418Y-94257572D01*
X104859412Y-94257568D01*
X104850563Y-94252244D01*
X104552005Y-94072607D01*
X104226401Y-93921967D01*
X104063585Y-93867108D01*
X103886426Y-93807416D01*
X103886425Y-93807415D01*
X103886417Y-93807413D01*
X103784595Y-93785000D01*
X103536054Y-93730291D01*
X103536030Y-93730287D01*
X103179389Y-93691500D01*
X103179382Y-93691500D01*
X102909499Y-93691500D01*
X102841378Y-93671498D01*
X102794885Y-93617842D01*
X102783499Y-93565500D01*
X102783499Y-92949455D01*
X102772887Y-92845574D01*
X102759464Y-92805065D01*
X102717115Y-92677262D01*
X102624030Y-92526348D01*
X102624029Y-92526347D01*
X102624024Y-92526341D01*
X102498658Y-92400975D01*
X102498652Y-92400970D01*
X102483299Y-92391500D01*
X102347738Y-92307885D01*
X102263582Y-92279999D01*
X102179427Y-92252113D01*
X102179420Y-92252112D01*
X102075553Y-92241500D01*
X100674455Y-92241500D01*
X100570574Y-92252112D01*
X100402261Y-92307885D01*
X100339281Y-92346732D01*
X100267645Y-92390917D01*
X100199168Y-92409654D01*
X100131429Y-92388395D01*
X100085937Y-92333888D01*
X100075500Y-92283676D01*
X100075500Y-88816323D01*
X100095502Y-88748202D01*
X100149158Y-88701709D01*
X100219432Y-88691605D01*
X100267645Y-88709082D01*
X100402259Y-88792113D01*
X100402262Y-88792115D01*
X100570574Y-88847887D01*
X100674455Y-88858500D01*
X102075544Y-88858499D01*
X102179426Y-88847887D01*
X102347738Y-88792115D01*
X102498652Y-88699030D01*
X102624030Y-88573652D01*
X102717115Y-88422738D01*
X102772887Y-88254426D01*
X102783500Y-88150545D01*
X102783499Y-87434499D01*
X102803501Y-87366379D01*
X102857157Y-87319886D01*
X102909499Y-87308500D01*
X103179374Y-87308500D01*
X103179382Y-87308500D01*
X103536042Y-87269711D01*
X103886417Y-87192587D01*
X104226401Y-87078033D01*
X104552005Y-86927393D01*
X104859414Y-86742431D01*
X105145023Y-86525317D01*
X105405484Y-86278595D01*
X105637742Y-86005159D01*
X105839075Y-85708215D01*
X105853883Y-85680283D01*
X105903461Y-85629467D01*
X105972643Y-85613521D01*
X106039465Y-85637509D01*
G37*
%TD.AperFunction*%
%TA.AperFunction,Conductor*%
G36*
X119315122Y-93449591D02*
G01*
X119371958Y-93492138D01*
X119390019Y-93526031D01*
X119416958Y-93603018D01*
X119513887Y-93757279D01*
X119513888Y-93757281D01*
X119642718Y-93886111D01*
X119642720Y-93886112D01*
X119796981Y-93983041D01*
X119796982Y-93983041D01*
X119796985Y-93983043D01*
X119968953Y-94043217D01*
X120150000Y-94063616D01*
X120331047Y-94043217D01*
X120503015Y-93983043D01*
X120619087Y-93910109D01*
X120687408Y-93890804D01*
X120755321Y-93911499D01*
X120801264Y-93965626D01*
X120804178Y-93972763D01*
X120824111Y-94026204D01*
X120824112Y-94026207D01*
X120911738Y-94143261D01*
X121028792Y-94230887D01*
X121028794Y-94230888D01*
X121028796Y-94230889D01*
X121080007Y-94249990D01*
X121165795Y-94281988D01*
X121165803Y-94281990D01*
X121226350Y-94288499D01*
X121226355Y-94288499D01*
X121226362Y-94288500D01*
X121226368Y-94288500D01*
X121973632Y-94288500D01*
X121973638Y-94288500D01*
X122034201Y-94281989D01*
X122034204Y-94281987D01*
X122041878Y-94280175D01*
X122042349Y-94282169D01*
X122102475Y-94277857D01*
X122110563Y-94280232D01*
X122115906Y-94281494D01*
X122176402Y-94287999D01*
X122176415Y-94288000D01*
X122296000Y-94288000D01*
X122296000Y-94174859D01*
X122316002Y-94106738D01*
X122321132Y-94099350D01*
X122375889Y-94026204D01*
X122426989Y-93889201D01*
X122426989Y-93889195D01*
X122427378Y-93887556D01*
X122428030Y-93886410D01*
X122429744Y-93881816D01*
X122430488Y-93882093D01*
X122462512Y-93825862D01*
X122525422Y-93792956D01*
X122596136Y-93799286D01*
X122652202Y-93842842D01*
X122670037Y-93881897D01*
X122670256Y-93881816D01*
X122671393Y-93884866D01*
X122672622Y-93887556D01*
X122673011Y-93889202D01*
X122724109Y-94026201D01*
X122724110Y-94026202D01*
X122724111Y-94026204D01*
X122778868Y-94099350D01*
X122803679Y-94165870D01*
X122804000Y-94174859D01*
X122804000Y-94288000D01*
X122923585Y-94288000D01*
X122923597Y-94287999D01*
X122984094Y-94281494D01*
X122991770Y-94279681D01*
X122992333Y-94282065D01*
X123051059Y-94277862D01*
X123062309Y-94281164D01*
X123065798Y-94281989D01*
X123126350Y-94288499D01*
X123126355Y-94288499D01*
X123126362Y-94288500D01*
X123126368Y-94288500D01*
X123873632Y-94288500D01*
X123873638Y-94288500D01*
X123873645Y-94288499D01*
X123873649Y-94288499D01*
X123934196Y-94281990D01*
X123934199Y-94281989D01*
X123934201Y-94281989D01*
X123939065Y-94280175D01*
X124078290Y-94228246D01*
X124149105Y-94223180D01*
X124211418Y-94257205D01*
X124245443Y-94319517D01*
X124240379Y-94390333D01*
X124230777Y-94410440D01*
X124185855Y-94486397D01*
X124139437Y-94646170D01*
X124136500Y-94683494D01*
X124136500Y-94861136D01*
X124116498Y-94929257D01*
X124062842Y-94975750D01*
X123992568Y-94985854D01*
X123946361Y-94969590D01*
X123879598Y-94930106D01*
X123722252Y-94884393D01*
X123685488Y-94881500D01*
X123685484Y-94881500D01*
X123214516Y-94881500D01*
X123214512Y-94881500D01*
X123177747Y-94884393D01*
X123044516Y-94923100D01*
X123023326Y-94929257D01*
X123020400Y-94930107D01*
X122879369Y-95013513D01*
X122879365Y-95013516D01*
X122763516Y-95129365D01*
X122763513Y-95129369D01*
X122680107Y-95270400D01*
X122634393Y-95427747D01*
X122631500Y-95464512D01*
X122631500Y-95875488D01*
X122634393Y-95912252D01*
X122634394Y-95912255D01*
X122659213Y-95997684D01*
X122659010Y-96068680D01*
X122620455Y-96128296D01*
X122555790Y-96157604D01*
X122524109Y-96158044D01*
X122512926Y-96156784D01*
X122465000Y-96151384D01*
X122283953Y-96171783D01*
X122283950Y-96171783D01*
X122283949Y-96171784D01*
X122111984Y-96231957D01*
X122111981Y-96231958D01*
X121957720Y-96328887D01*
X121954089Y-96332518D01*
X121891775Y-96366539D01*
X121820960Y-96361470D01*
X121775904Y-96332512D01*
X121757281Y-96313889D01*
X121757280Y-96313888D01*
X121757277Y-96313885D01*
X121603018Y-96216958D01*
X121603015Y-96216957D01*
X121431050Y-96156784D01*
X121431049Y-96156783D01*
X121431047Y-96156783D01*
X121250000Y-96136384D01*
X121068953Y-96156783D01*
X121068950Y-96156783D01*
X121068949Y-96156784D01*
X120896984Y-96216957D01*
X120896981Y-96216958D01*
X120742720Y-96313887D01*
X120742718Y-96313888D01*
X120613888Y-96442718D01*
X120613887Y-96442720D01*
X120516958Y-96596981D01*
X120516957Y-96596984D01*
X120466597Y-96740907D01*
X120456783Y-96768953D01*
X120436384Y-96950000D01*
X120452774Y-97095470D01*
X120453442Y-97101393D01*
X120441193Y-97171324D01*
X120393080Y-97223533D01*
X120328235Y-97241500D01*
X120234456Y-97241500D01*
X120130574Y-97252112D01*
X119962261Y-97307885D01*
X119811347Y-97400970D01*
X119811341Y-97400975D01*
X119685975Y-97526341D01*
X119685970Y-97526347D01*
X119592883Y-97677265D01*
X119575365Y-97730133D01*
X119534951Y-97788504D01*
X119469395Y-97815760D01*
X119455761Y-97816500D01*
X119379712Y-97816500D01*
X119311591Y-97796498D01*
X119265098Y-97742842D01*
X119254365Y-97677693D01*
X119258499Y-97637221D01*
X119258500Y-97637213D01*
X119258499Y-97062788D01*
X119258123Y-97059112D01*
X119248062Y-96960619D01*
X119235831Y-96923708D01*
X119193209Y-96795080D01*
X119101658Y-96646654D01*
X119101657Y-96646653D01*
X119101652Y-96646647D01*
X118978346Y-96523341D01*
X118918352Y-96486336D01*
X118870875Y-96433550D01*
X118858500Y-96379096D01*
X118858500Y-96219765D01*
X118878502Y-96151644D01*
X118883624Y-96144266D01*
X118900889Y-96121204D01*
X118951989Y-95984201D01*
X118955202Y-95954321D01*
X118958499Y-95923649D01*
X118958500Y-95923632D01*
X118958500Y-94376367D01*
X118958499Y-94376350D01*
X118951990Y-94315803D01*
X118951988Y-94315795D01*
X118919333Y-94228246D01*
X118900889Y-94178796D01*
X118900887Y-94178793D01*
X118900887Y-94178792D01*
X118813261Y-94061738D01*
X118807028Y-94057073D01*
X118764479Y-94000239D01*
X118759413Y-93929423D01*
X118793433Y-93867114D01*
X119181997Y-93478550D01*
X119244307Y-93444526D01*
X119315122Y-93449591D01*
G37*
%TD.AperFunction*%
%TA.AperFunction,Conductor*%
G36*
X132173621Y-84228502D02*
G01*
X132220114Y-84282158D01*
X132231500Y-84334500D01*
X132231500Y-86107999D01*
X132556458Y-86107999D01*
X132593750Y-86105065D01*
X132753400Y-86058681D01*
X132896501Y-85974051D01*
X132896503Y-85974050D01*
X133014050Y-85856503D01*
X133014053Y-85856499D01*
X133028129Y-85832699D01*
X133080021Y-85784246D01*
X133149872Y-85771540D01*
X133215503Y-85798615D01*
X133240869Y-85826124D01*
X133362258Y-86005159D01*
X133554023Y-86230923D01*
X133594516Y-86278595D01*
X133854962Y-86525304D01*
X133854977Y-86525317D01*
X134140586Y-86742431D01*
X134447995Y-86927393D01*
X134773599Y-87078033D01*
X135113583Y-87192587D01*
X135463958Y-87269711D01*
X135820618Y-87308500D01*
X135820626Y-87308500D01*
X136090500Y-87308500D01*
X136158621Y-87328502D01*
X136205114Y-87382158D01*
X136216500Y-87434500D01*
X136216500Y-88100544D01*
X136227112Y-88204425D01*
X136282885Y-88372738D01*
X136375970Y-88523652D01*
X136375975Y-88523658D01*
X136501341Y-88649024D01*
X136501347Y-88649029D01*
X136501348Y-88649030D01*
X136652262Y-88742115D01*
X136820574Y-88797887D01*
X136924455Y-88808500D01*
X138325544Y-88808499D01*
X138429426Y-88797887D01*
X138597738Y-88742115D01*
X138732354Y-88659082D01*
X138800832Y-88640345D01*
X138868571Y-88661604D01*
X138914063Y-88716111D01*
X138924500Y-88766323D01*
X138924500Y-92233676D01*
X138904498Y-92301797D01*
X138850842Y-92348290D01*
X138780568Y-92358394D01*
X138732354Y-92340917D01*
X138597738Y-92257885D01*
X138513582Y-92229999D01*
X138429427Y-92202113D01*
X138429420Y-92202112D01*
X138325553Y-92191500D01*
X136924455Y-92191500D01*
X136820574Y-92202112D01*
X136652261Y-92257885D01*
X136501347Y-92350970D01*
X136501341Y-92350975D01*
X136375975Y-92476341D01*
X136375970Y-92476347D01*
X136282885Y-92627262D01*
X136227113Y-92795572D01*
X136227112Y-92795579D01*
X136216500Y-92899446D01*
X136216500Y-93565500D01*
X136196498Y-93633621D01*
X136142842Y-93680114D01*
X136090500Y-93691500D01*
X135820610Y-93691500D01*
X135463969Y-93730287D01*
X135463945Y-93730291D01*
X135113587Y-93807412D01*
X135113573Y-93807416D01*
X134773601Y-93921966D01*
X134773599Y-93921967D01*
X134448320Y-94072457D01*
X134447989Y-94072610D01*
X134140587Y-94257568D01*
X134140581Y-94257572D01*
X133854977Y-94474682D01*
X133854962Y-94474695D01*
X133594516Y-94721404D01*
X133362259Y-94994839D01*
X133289168Y-95102641D01*
X133238688Y-95177094D01*
X133235427Y-95181903D01*
X133180643Y-95227061D01*
X133110141Y-95235431D01*
X133046306Y-95204357D01*
X133011533Y-95150826D01*
X133011030Y-95149310D01*
X132968209Y-95020080D01*
X132876658Y-94871654D01*
X132876657Y-94871653D01*
X132876652Y-94871647D01*
X132786552Y-94781547D01*
X132752526Y-94719235D01*
X132757591Y-94648420D01*
X132768958Y-94625420D01*
X132783043Y-94603005D01*
X132843217Y-94431037D01*
X132863616Y-94249990D01*
X132843217Y-94068943D01*
X132783043Y-93896975D01*
X132783041Y-93896972D01*
X132783041Y-93896971D01*
X132686112Y-93742710D01*
X132686111Y-93742708D01*
X132557281Y-93613878D01*
X132557279Y-93613877D01*
X132403017Y-93516948D01*
X132403016Y-93516947D01*
X132403015Y-93516947D01*
X132358010Y-93501199D01*
X132327072Y-93490373D01*
X132269381Y-93448994D01*
X132243218Y-93382994D01*
X132256892Y-93313326D01*
X132261986Y-93304433D01*
X132323188Y-93207031D01*
X132383362Y-93035063D01*
X132403761Y-92854016D01*
X132383362Y-92672969D01*
X132383358Y-92672960D01*
X132381787Y-92666070D01*
X132384880Y-92665363D01*
X132382023Y-92608402D01*
X132417366Y-92546828D01*
X132480388Y-92514136D01*
X132551080Y-92520706D01*
X132593572Y-92552659D01*
X132595339Y-92550893D01*
X132718496Y-92674050D01*
X132718498Y-92674051D01*
X132861598Y-92758681D01*
X133021251Y-92805065D01*
X133021249Y-92805065D01*
X133058539Y-92808000D01*
X133058540Y-92808000D01*
X133496000Y-92807999D01*
X133496000Y-92254000D01*
X132470007Y-92254000D01*
X132478715Y-92283974D01*
X132478512Y-92354970D01*
X132439958Y-92414587D01*
X132375294Y-92443895D01*
X132305049Y-92433591D01*
X132251526Y-92386945D01*
X132251030Y-92386163D01*
X132249386Y-92383547D01*
X132226256Y-92346735D01*
X132226255Y-92346734D01*
X132226254Y-92346732D01*
X132159866Y-92280344D01*
X132125840Y-92218032D01*
X132130905Y-92147217D01*
X132159866Y-92102153D01*
X132218803Y-92043217D01*
X132379862Y-91882158D01*
X132479117Y-91782904D01*
X132541429Y-91748879D01*
X132568212Y-91746000D01*
X132804929Y-91746000D01*
X132854965Y-91756361D01*
X132861395Y-91759143D01*
X132861396Y-91759143D01*
X132861399Y-91759145D01*
X133021169Y-91805562D01*
X133028634Y-91806149D01*
X133058494Y-91808500D01*
X133878000Y-91808500D01*
X133946121Y-91828502D01*
X133992614Y-91882158D01*
X134004000Y-91934500D01*
X134004000Y-92807999D01*
X134441458Y-92807999D01*
X134478750Y-92805065D01*
X134638400Y-92758681D01*
X134781501Y-92674051D01*
X134781503Y-92674050D01*
X134899050Y-92556503D01*
X134899051Y-92556501D01*
X134983681Y-92413401D01*
X135030065Y-92253749D01*
X135033000Y-92216461D01*
X135032999Y-92138235D01*
X135053000Y-92070114D01*
X135106655Y-92023620D01*
X135176929Y-92013515D01*
X135200611Y-92019303D01*
X135268953Y-92043217D01*
X135450000Y-92063616D01*
X135631047Y-92043217D01*
X135803015Y-91983043D01*
X135957281Y-91886111D01*
X136086111Y-91757281D01*
X136183043Y-91603015D01*
X136243217Y-91431047D01*
X136263616Y-91250000D01*
X136243217Y-91068953D01*
X136183043Y-90896985D01*
X136183041Y-90896982D01*
X136183041Y-90896981D01*
X136086112Y-90742720D01*
X136086111Y-90742718D01*
X136032488Y-90689095D01*
X135998462Y-90626783D01*
X136003527Y-90555968D01*
X136032488Y-90510905D01*
X136086111Y-90457281D01*
X136086112Y-90457279D01*
X136092158Y-90447658D01*
X136183043Y-90303015D01*
X136243217Y-90131047D01*
X136263616Y-89950000D01*
X136243217Y-89768953D01*
X136183043Y-89596985D01*
X136183041Y-89596982D01*
X136183041Y-89596981D01*
X136086112Y-89442720D01*
X136086111Y-89442718D01*
X135957281Y-89313888D01*
X135957279Y-89313887D01*
X135803018Y-89216958D01*
X135803015Y-89216957D01*
X135631050Y-89156784D01*
X135631049Y-89156783D01*
X135631047Y-89156783D01*
X135450000Y-89136384D01*
X135268952Y-89156783D01*
X135249382Y-89163631D01*
X135201113Y-89180521D01*
X135130210Y-89184139D01*
X135068605Y-89148850D01*
X135035859Y-89085856D01*
X135033500Y-89061591D01*
X135033500Y-88783494D01*
X135030562Y-88746170D01*
X135030562Y-88746169D01*
X134984145Y-88586399D01*
X134984143Y-88586397D01*
X134984143Y-88586394D01*
X134899455Y-88443196D01*
X134899450Y-88443189D01*
X134781810Y-88325549D01*
X134781803Y-88325544D01*
X134638605Y-88240856D01*
X134478829Y-88194437D01*
X134441506Y-88191500D01*
X134441502Y-88191500D01*
X133058498Y-88191500D01*
X133058494Y-88191500D01*
X133021170Y-88194437D01*
X132861394Y-88240856D01*
X132773139Y-88293051D01*
X132704323Y-88310511D01*
X132636992Y-88287994D01*
X132592522Y-88232650D01*
X132589030Y-88215029D01*
X132583001Y-88209000D01*
X132204959Y-88209000D01*
X132188132Y-88207103D01*
X132188079Y-88207575D01*
X132000000Y-88186384D01*
X131811921Y-88207575D01*
X131811867Y-88207103D01*
X131795041Y-88209000D01*
X131409500Y-88209000D01*
X131341379Y-88188998D01*
X131294886Y-88135342D01*
X131283500Y-88083000D01*
X131283500Y-86972000D01*
X131791500Y-86972000D01*
X131791500Y-87701000D01*
X132583000Y-87701000D01*
X132583000Y-87667815D01*
X132572569Y-87565726D01*
X132572568Y-87565723D01*
X132517751Y-87400292D01*
X132426262Y-87251966D01*
X132426257Y-87251960D01*
X132303039Y-87128742D01*
X132303033Y-87128737D01*
X132154707Y-87037248D01*
X131989276Y-86982431D01*
X131989273Y-86982430D01*
X131887184Y-86972000D01*
X131791500Y-86972000D01*
X131283500Y-86972000D01*
X131187815Y-86972000D01*
X131085726Y-86982430D01*
X131085723Y-86982431D01*
X130920292Y-87037248D01*
X130771966Y-87128737D01*
X130764445Y-87136258D01*
X130702131Y-87170281D01*
X130631316Y-87165213D01*
X130586256Y-87136252D01*
X130578346Y-87128342D01*
X130429920Y-87036791D01*
X130429918Y-87036790D01*
X130429916Y-87036789D01*
X130422360Y-87034285D01*
X130363991Y-86993868D01*
X130336739Y-86928310D01*
X130336000Y-86914683D01*
X130336000Y-86195177D01*
X130356002Y-86127056D01*
X130409658Y-86080563D01*
X130426843Y-86074181D01*
X130478601Y-86059145D01*
X130621807Y-85974453D01*
X130739453Y-85856807D01*
X130739456Y-85856800D01*
X130740759Y-85855123D01*
X130742123Y-85854137D01*
X130745059Y-85851202D01*
X130745532Y-85851675D01*
X130798315Y-85813556D01*
X130869207Y-85809705D01*
X130930927Y-85844793D01*
X130939881Y-85855126D01*
X130940949Y-85856503D01*
X131058496Y-85974050D01*
X131058498Y-85974051D01*
X131201598Y-86058681D01*
X131361251Y-86105065D01*
X131361249Y-86105065D01*
X131398539Y-86108000D01*
X131723500Y-86107999D01*
X131723500Y-84334500D01*
X131743502Y-84266379D01*
X131797158Y-84219886D01*
X131849500Y-84208500D01*
X132105500Y-84208500D01*
X132173621Y-84228502D01*
G37*
%TD.AperFunction*%
%TA.AperFunction,Conductor*%
G36*
X125869299Y-90602813D02*
G01*
X125940939Y-90647827D01*
X125996985Y-90683043D01*
X126168953Y-90743217D01*
X126350000Y-90763616D01*
X126390536Y-90759048D01*
X126460466Y-90771297D01*
X126512675Y-90819409D01*
X126524034Y-90848198D01*
X126524949Y-90847895D01*
X126527112Y-90854425D01*
X126527113Y-90854426D01*
X126572494Y-90991379D01*
X126582885Y-91022738D01*
X126675970Y-91173652D01*
X126675975Y-91173658D01*
X126801341Y-91299024D01*
X126801347Y-91299029D01*
X126801348Y-91299030D01*
X126952262Y-91392115D01*
X127120574Y-91447887D01*
X127224455Y-91458500D01*
X127850544Y-91458499D01*
X127954426Y-91447887D01*
X128122738Y-91392115D01*
X128273652Y-91299030D01*
X128306180Y-91266502D01*
X128360905Y-91211778D01*
X128423217Y-91177752D01*
X128494032Y-91182817D01*
X128539095Y-91211778D01*
X128626341Y-91299024D01*
X128626347Y-91299029D01*
X128626348Y-91299030D01*
X128777262Y-91392115D01*
X128945574Y-91447887D01*
X129049455Y-91458500D01*
X129465510Y-91458499D01*
X129533630Y-91478501D01*
X129580124Y-91532156D01*
X129591510Y-91584499D01*
X129591510Y-92240500D01*
X129571508Y-92308621D01*
X129517852Y-92355114D01*
X129465510Y-92366500D01*
X127583853Y-92366500D01*
X127568011Y-92364750D01*
X127567984Y-92365044D01*
X127560092Y-92364298D01*
X127560091Y-92364298D01*
X127490042Y-92366500D01*
X124459500Y-92366500D01*
X124391379Y-92346498D01*
X124344886Y-92292842D01*
X124333500Y-92240500D01*
X124333500Y-92171367D01*
X124333499Y-92171350D01*
X124326990Y-92110803D01*
X124326988Y-92110795D01*
X124292863Y-92019304D01*
X124275889Y-91973796D01*
X124275888Y-91973794D01*
X124275887Y-91973792D01*
X124188261Y-91856738D01*
X124071208Y-91769113D01*
X124071205Y-91769112D01*
X124071204Y-91769111D01*
X124068370Y-91768054D01*
X124065951Y-91766243D01*
X124063299Y-91764795D01*
X124063507Y-91764413D01*
X124011538Y-91725509D01*
X123986727Y-91658989D01*
X124001819Y-91589614D01*
X124052021Y-91539412D01*
X124068362Y-91531949D01*
X124071204Y-91530889D01*
X124188261Y-91443261D01*
X124243189Y-91369886D01*
X124275887Y-91326207D01*
X124275887Y-91326206D01*
X124275889Y-91326204D01*
X124326989Y-91189201D01*
X124327676Y-91182817D01*
X124333499Y-91128649D01*
X124333500Y-91128632D01*
X124333500Y-91059500D01*
X124353502Y-90991379D01*
X124407158Y-90944886D01*
X124459500Y-90933500D01*
X125016147Y-90933500D01*
X125031988Y-90935249D01*
X125032016Y-90934956D01*
X125039902Y-90935700D01*
X125039909Y-90935702D01*
X125109958Y-90933500D01*
X125139856Y-90933500D01*
X125146818Y-90932619D01*
X125152719Y-90932154D01*
X125199889Y-90930673D01*
X125219347Y-90925019D01*
X125238694Y-90921013D01*
X125258797Y-90918474D01*
X125302679Y-90901099D01*
X125308274Y-90899183D01*
X125336816Y-90890891D01*
X125353591Y-90886019D01*
X125353595Y-90886017D01*
X125371026Y-90875708D01*
X125388780Y-90867009D01*
X125407617Y-90859552D01*
X125445786Y-90831818D01*
X125450744Y-90828562D01*
X125491362Y-90804542D01*
X125505685Y-90790218D01*
X125520724Y-90777374D01*
X125529089Y-90771297D01*
X125537107Y-90765472D01*
X125567187Y-90729110D01*
X125571166Y-90724737D01*
X125675501Y-90620404D01*
X125737814Y-90586379D01*
X125764596Y-90583500D01*
X125802263Y-90583500D01*
X125869299Y-90602813D01*
G37*
%TD.AperFunction*%
%TA.AperFunction,Conductor*%
G36*
X116317967Y-86904752D02*
G01*
X116318787Y-86901933D01*
X116326397Y-86904143D01*
X116326399Y-86904145D01*
X116486169Y-86950562D01*
X116489317Y-86950809D01*
X116500129Y-86951661D01*
X116566469Y-86976947D01*
X116608608Y-87034086D01*
X116613166Y-87104936D01*
X116579336Y-87166367D01*
X116498737Y-87246966D01*
X116407248Y-87395292D01*
X116352431Y-87560723D01*
X116352430Y-87560726D01*
X116342000Y-87662815D01*
X116342000Y-87696000D01*
X117515500Y-87696000D01*
X117583621Y-87716002D01*
X117630114Y-87769658D01*
X117641500Y-87822000D01*
X117641500Y-88933000D01*
X117737185Y-88933000D01*
X117737184Y-88932999D01*
X117839273Y-88922569D01*
X117839276Y-88922568D01*
X118004707Y-88867751D01*
X118153033Y-88776262D01*
X118160547Y-88768748D01*
X118222858Y-88734721D01*
X118293674Y-88739783D01*
X118338742Y-88768746D01*
X118346654Y-88776658D01*
X118495080Y-88868209D01*
X118660619Y-88923062D01*
X118762787Y-88933500D01*
X119462212Y-88933499D01*
X119564381Y-88923062D01*
X119729920Y-88868209D01*
X119878346Y-88776658D01*
X120001658Y-88653346D01*
X120069504Y-88543350D01*
X120122288Y-88495875D01*
X120176743Y-88483500D01*
X120702263Y-88483500D01*
X120769299Y-88502813D01*
X120842333Y-88548703D01*
X120896985Y-88583043D01*
X121068953Y-88643217D01*
X121250000Y-88663616D01*
X121431047Y-88643217D01*
X121603015Y-88583043D01*
X121657667Y-88548703D01*
X121763273Y-88482347D01*
X121764384Y-88484115D01*
X121820676Y-88461123D01*
X121890482Y-88474073D01*
X121942205Y-88522706D01*
X121959424Y-88591583D01*
X121955571Y-88617796D01*
X121951269Y-88634554D01*
X121944864Y-88653262D01*
X121936819Y-88671852D01*
X121929437Y-88718456D01*
X121928233Y-88724268D01*
X121916500Y-88769968D01*
X121916500Y-88790223D01*
X121914949Y-88809933D01*
X121911780Y-88829942D01*
X121911780Y-88829943D01*
X121915140Y-88865492D01*
X121915911Y-88873642D01*
X121902408Y-88943343D01*
X121853367Y-88994679D01*
X121790470Y-89011500D01*
X121226350Y-89011500D01*
X121165803Y-89018009D01*
X121165795Y-89018011D01*
X121028797Y-89069110D01*
X121028792Y-89069112D01*
X120911738Y-89156738D01*
X120824112Y-89273792D01*
X120824110Y-89273797D01*
X120773011Y-89410795D01*
X120773009Y-89410803D01*
X120766500Y-89471350D01*
X120766500Y-90120759D01*
X120746498Y-90188880D01*
X120729595Y-90209855D01*
X120543924Y-90395525D01*
X120481612Y-90429550D01*
X120410796Y-90424485D01*
X120353961Y-90381938D01*
X120335903Y-90348053D01*
X120283043Y-90196985D01*
X120283040Y-90196981D01*
X120283040Y-90196979D01*
X120186112Y-90042720D01*
X120186111Y-90042718D01*
X120057281Y-89913888D01*
X120057279Y-89913887D01*
X119903018Y-89816958D01*
X119903015Y-89816957D01*
X119731050Y-89756784D01*
X119731049Y-89756783D01*
X119731047Y-89756783D01*
X119550000Y-89736384D01*
X119368953Y-89756783D01*
X119368950Y-89756783D01*
X119368949Y-89756784D01*
X119196984Y-89816957D01*
X119196983Y-89816957D01*
X119099653Y-89878113D01*
X119031332Y-89897418D01*
X118963419Y-89876722D01*
X118917476Y-89822594D01*
X118914573Y-89815484D01*
X118900889Y-89778796D01*
X118900887Y-89778794D01*
X118900887Y-89778792D01*
X118813261Y-89661738D01*
X118696207Y-89574112D01*
X118696202Y-89574110D01*
X118559204Y-89523011D01*
X118559196Y-89523009D01*
X118498649Y-89516500D01*
X118498638Y-89516500D01*
X117951362Y-89516500D01*
X117951357Y-89516500D01*
X117951345Y-89516501D01*
X117913466Y-89520573D01*
X117886534Y-89520573D01*
X117848654Y-89516501D01*
X117848642Y-89516500D01*
X117848638Y-89516500D01*
X117301362Y-89516500D01*
X117301357Y-89516500D01*
X117301345Y-89516501D01*
X117263466Y-89520573D01*
X117236534Y-89520573D01*
X117198654Y-89516501D01*
X117198642Y-89516500D01*
X117198638Y-89516500D01*
X116651362Y-89516500D01*
X116651356Y-89516500D01*
X116651348Y-89516501D01*
X116611116Y-89520826D01*
X116584181Y-89520826D01*
X116548601Y-89517000D01*
X116499999Y-89517000D01*
X116483145Y-89533853D01*
X116479998Y-89544573D01*
X116449509Y-89577320D01*
X116336738Y-89661738D01*
X116276868Y-89741716D01*
X116220032Y-89784263D01*
X116149216Y-89789327D01*
X116086904Y-89755302D01*
X116052879Y-89692990D01*
X116050000Y-89666207D01*
X116050000Y-89517000D01*
X116001402Y-89517000D01*
X115940906Y-89523505D01*
X115804035Y-89574555D01*
X115804034Y-89574555D01*
X115687095Y-89662095D01*
X115599555Y-89779034D01*
X115599555Y-89779035D01*
X115548505Y-89915906D01*
X115542000Y-89976402D01*
X115542000Y-90525000D01*
X116065500Y-90525000D01*
X116133621Y-90545002D01*
X116180114Y-90598658D01*
X116191500Y-90651000D01*
X116191500Y-90849000D01*
X116171498Y-90917121D01*
X116117842Y-90963614D01*
X116065500Y-90975000D01*
X115587739Y-90975000D01*
X115519618Y-90954998D01*
X115498644Y-90938095D01*
X114888605Y-90328056D01*
X114856704Y-90274115D01*
X114829332Y-90179900D01*
X114829330Y-90179898D01*
X114829330Y-90179895D01*
X114744963Y-90037238D01*
X114744957Y-90037231D01*
X114627768Y-89920042D01*
X114627761Y-89920036D01*
X114485104Y-89835669D01*
X114325942Y-89789428D01*
X114325938Y-89789427D01*
X114325937Y-89789427D01*
X114325935Y-89789426D01*
X114325930Y-89789426D01*
X114288749Y-89786500D01*
X114288747Y-89786500D01*
X114050000Y-89786500D01*
X113811252Y-89786501D01*
X113774064Y-89789426D01*
X113614893Y-89835670D01*
X113609276Y-89838101D01*
X113538814Y-89846795D01*
X113481043Y-89819000D01*
X113184386Y-89819000D01*
X113120247Y-89801453D01*
X113085104Y-89780669D01*
X112925942Y-89734428D01*
X112925938Y-89734427D01*
X112925937Y-89734427D01*
X112925935Y-89734426D01*
X112925930Y-89734426D01*
X112888749Y-89731500D01*
X112888747Y-89731500D01*
X112650000Y-89731500D01*
X112411252Y-89731501D01*
X112374064Y-89734426D01*
X112214895Y-89780669D01*
X112179753Y-89801453D01*
X112115614Y-89819000D01*
X111776295Y-89819000D01*
X111712156Y-89801453D01*
X111660104Y-89770669D01*
X111500942Y-89724428D01*
X111500938Y-89724427D01*
X111500937Y-89724427D01*
X111500935Y-89724426D01*
X111500930Y-89724426D01*
X111463749Y-89721500D01*
X111463747Y-89721500D01*
X111250000Y-89721500D01*
X111036252Y-89721501D01*
X110999064Y-89724426D01*
X110839897Y-89770669D01*
X110839896Y-89770669D01*
X110829136Y-89777033D01*
X110760319Y-89794491D01*
X110700864Y-89777033D01*
X110690102Y-89770669D01*
X110690101Y-89770668D01*
X110690100Y-89770668D01*
X110613597Y-89748442D01*
X110530942Y-89724428D01*
X110530938Y-89724427D01*
X110530937Y-89724427D01*
X110530935Y-89724426D01*
X110530930Y-89724426D01*
X110493749Y-89721500D01*
X110493747Y-89721500D01*
X110399594Y-89721500D01*
X110331473Y-89701498D01*
X110310499Y-89684595D01*
X109979498Y-89353594D01*
X109956239Y-89311000D01*
X111825837Y-89311000D01*
X112396000Y-89311000D01*
X112396000Y-88763204D01*
X112374144Y-88764923D01*
X112374143Y-88764923D01*
X112215098Y-88811130D01*
X112072546Y-88895436D01*
X112072542Y-88895439D01*
X111955439Y-89012542D01*
X111955436Y-89012546D01*
X111871131Y-89155097D01*
X111825837Y-89311000D01*
X109956239Y-89311000D01*
X109945472Y-89291282D01*
X109950537Y-89220467D01*
X109993084Y-89163631D01*
X110059604Y-89138820D01*
X110068593Y-89138499D01*
X110099990Y-89138499D01*
X110118227Y-89137064D01*
X110136466Y-89135629D01*
X110292596Y-89090269D01*
X110292598Y-89090267D01*
X110292600Y-89090267D01*
X110424019Y-89012546D01*
X110432541Y-89007506D01*
X110547506Y-88892541D01*
X110586638Y-88826372D01*
X110623997Y-88763202D01*
X112904000Y-88763202D01*
X112904000Y-89311000D01*
X113474163Y-89311000D01*
X113428868Y-89155097D01*
X113344563Y-89012546D01*
X113344560Y-89012542D01*
X113227457Y-88895439D01*
X113227453Y-88895436D01*
X113084901Y-88811130D01*
X112925860Y-88764924D01*
X112925855Y-88764923D01*
X112904000Y-88763202D01*
X110623997Y-88763202D01*
X110630267Y-88752600D01*
X110630267Y-88752598D01*
X110630269Y-88752596D01*
X110675629Y-88596466D01*
X110676422Y-88586394D01*
X110678500Y-88559993D01*
X110678499Y-88204000D01*
X116342000Y-88204000D01*
X116342000Y-88237184D01*
X116352430Y-88339273D01*
X116352431Y-88339276D01*
X116407248Y-88504707D01*
X116498737Y-88653033D01*
X116498742Y-88653039D01*
X116621960Y-88776257D01*
X116621966Y-88776262D01*
X116770292Y-88867751D01*
X116935723Y-88922568D01*
X116935726Y-88922569D01*
X117037815Y-88932999D01*
X117037815Y-88933000D01*
X117133500Y-88933000D01*
X117133500Y-88204000D01*
X116342000Y-88204000D01*
X110678499Y-88204000D01*
X110678499Y-88160010D01*
X110675629Y-88123535D01*
X110675629Y-88123534D01*
X110630269Y-87967404D01*
X110598767Y-87914137D01*
X110581308Y-87845325D01*
X110598766Y-87785862D01*
X110630269Y-87732596D01*
X110675629Y-87576466D01*
X110677043Y-87558499D01*
X110678500Y-87539993D01*
X110678499Y-87140010D01*
X110676876Y-87119383D01*
X110691474Y-87049903D01*
X110741317Y-86999345D01*
X110802488Y-86983500D01*
X110802724Y-86983500D01*
X110822434Y-86985051D01*
X110824641Y-86985400D01*
X110842443Y-86988220D01*
X110876370Y-86985012D01*
X110889417Y-86983780D01*
X110895350Y-86983500D01*
X112245761Y-86983500D01*
X112313882Y-87003502D01*
X112360375Y-87057158D01*
X112365365Y-87069867D01*
X112382883Y-87122734D01*
X112382884Y-87122736D01*
X112382885Y-87122738D01*
X112462590Y-87251960D01*
X112475970Y-87273652D01*
X112475975Y-87273658D01*
X112601341Y-87399024D01*
X112601347Y-87399029D01*
X112601348Y-87399030D01*
X112752262Y-87492115D01*
X112920574Y-87547887D01*
X113024455Y-87558500D01*
X113650544Y-87558499D01*
X113754426Y-87547887D01*
X113922738Y-87492115D01*
X114073652Y-87399030D01*
X114106303Y-87366379D01*
X114160905Y-87311778D01*
X114223217Y-87277752D01*
X114294032Y-87282817D01*
X114339095Y-87311778D01*
X114426341Y-87399024D01*
X114426347Y-87399029D01*
X114426348Y-87399030D01*
X114577262Y-87492115D01*
X114745574Y-87547887D01*
X114849455Y-87558500D01*
X115475544Y-87558499D01*
X115579426Y-87547887D01*
X115747738Y-87492115D01*
X115898652Y-87399030D01*
X116024030Y-87273652D01*
X116117115Y-87122738D01*
X116163410Y-86983025D01*
X116203822Y-86924657D01*
X116269378Y-86897401D01*
X116317967Y-86904752D01*
G37*
%TD.AperFunction*%
%TA.AperFunction,Conductor*%
G36*
X126046027Y-88116002D02*
G01*
X126067001Y-88132905D01*
X126867095Y-88932999D01*
X126901121Y-88995311D01*
X126904000Y-89022094D01*
X126904000Y-89067330D01*
X126883998Y-89135451D01*
X126844146Y-89174571D01*
X126800313Y-89201607D01*
X126731833Y-89220344D01*
X126692553Y-89213296D01*
X126531047Y-89156783D01*
X126350000Y-89136384D01*
X126168953Y-89156783D01*
X126168950Y-89156783D01*
X126168949Y-89156784D01*
X125996984Y-89216957D01*
X125996982Y-89216958D01*
X125869299Y-89297187D01*
X125802263Y-89316500D01*
X125688213Y-89316500D01*
X125620092Y-89296498D01*
X125573599Y-89242842D01*
X125563495Y-89172568D01*
X125592989Y-89107988D01*
X125624073Y-89082047D01*
X125687453Y-89044563D01*
X125687457Y-89044560D01*
X125804560Y-88927457D01*
X125804563Y-88927453D01*
X125888869Y-88784901D01*
X125935076Y-88625856D01*
X125935076Y-88625855D01*
X125936796Y-88604000D01*
X125389000Y-88604000D01*
X125389000Y-89208680D01*
X125368998Y-89276801D01*
X125315342Y-89323294D01*
X125294340Y-89330720D01*
X125291202Y-89331525D01*
X125247331Y-89348894D01*
X125241716Y-89350817D01*
X125196408Y-89363981D01*
X125178964Y-89374297D01*
X125161218Y-89382990D01*
X125142382Y-89390448D01*
X125104209Y-89418181D01*
X125099248Y-89421440D01*
X125058638Y-89445458D01*
X125044311Y-89459784D01*
X125029285Y-89472617D01*
X125012895Y-89484525D01*
X125012892Y-89484528D01*
X124982814Y-89520883D01*
X124978820Y-89525273D01*
X124874500Y-89629595D01*
X124812188Y-89663620D01*
X124785404Y-89666500D01*
X124459500Y-89666500D01*
X124391379Y-89646498D01*
X124344886Y-89592842D01*
X124333500Y-89540500D01*
X124333500Y-89471367D01*
X124333499Y-89471350D01*
X124326990Y-89410803D01*
X124326989Y-89410799D01*
X124319398Y-89390448D01*
X124302676Y-89345616D01*
X124297611Y-89274804D01*
X124331635Y-89212491D01*
X124393947Y-89178465D01*
X124410851Y-89175973D01*
X124415937Y-89175573D01*
X124575100Y-89129332D01*
X124586349Y-89122679D01*
X124655162Y-89105218D01*
X124714631Y-89122678D01*
X124725099Y-89128869D01*
X124881000Y-89174162D01*
X124881000Y-88884386D01*
X124898547Y-88820247D01*
X124919330Y-88785104D01*
X124919330Y-88785102D01*
X124919332Y-88785100D01*
X124965573Y-88625937D01*
X124967435Y-88602270D01*
X124968500Y-88588751D01*
X124968500Y-88409078D01*
X124968499Y-88221999D01*
X124988501Y-88153880D01*
X125042156Y-88107387D01*
X125094499Y-88096000D01*
X125977906Y-88096000D01*
X126046027Y-88116002D01*
G37*
%TD.AperFunction*%
%TA.AperFunction,Conductor*%
G36*
X125998527Y-82988502D02*
G01*
X126019501Y-83005405D01*
X126193507Y-83179411D01*
X126227533Y-83241723D01*
X126226119Y-83301114D01*
X126216002Y-83338874D01*
X126216001Y-83338880D01*
X126216000Y-83338883D01*
X126216000Y-83338886D01*
X126208418Y-83425547D01*
X126196655Y-83560000D01*
X126216000Y-83781117D01*
X126273446Y-83995507D01*
X126273448Y-83995512D01*
X126367250Y-84196671D01*
X126367251Y-84196673D01*
X126494554Y-84378481D01*
X126494558Y-84378486D01*
X126494561Y-84378490D01*
X126651510Y-84535439D01*
X126651514Y-84535442D01*
X126651518Y-84535445D01*
X126695872Y-84566502D01*
X126833327Y-84662749D01*
X127034490Y-84756553D01*
X127248886Y-84814000D01*
X127470000Y-84833345D01*
X127691114Y-84814000D01*
X127905510Y-84756553D01*
X128106673Y-84662749D01*
X128288490Y-84535439D01*
X128318243Y-84505685D01*
X128380551Y-84471662D01*
X128451367Y-84476726D01*
X128508203Y-84519272D01*
X128532947Y-84584893D01*
X128534437Y-84603829D01*
X128534438Y-84603831D01*
X128578807Y-84756553D01*
X128580857Y-84763607D01*
X128584005Y-84770882D01*
X128581999Y-84771749D01*
X128596693Y-84829693D01*
X128582385Y-84878417D01*
X128584005Y-84879118D01*
X128580857Y-84886392D01*
X128534437Y-85046170D01*
X128531500Y-85083494D01*
X128531500Y-85516506D01*
X128534437Y-85553829D01*
X128580856Y-85713605D01*
X128665544Y-85856803D01*
X128665549Y-85856810D01*
X128783189Y-85974450D01*
X128783196Y-85974455D01*
X128926396Y-86059144D01*
X128926398Y-86059144D01*
X128926399Y-86059145D01*
X128978151Y-86074179D01*
X129037987Y-86112391D01*
X129067665Y-86176886D01*
X129069000Y-86195177D01*
X129069000Y-87053805D01*
X129048998Y-87121926D01*
X129032095Y-87142900D01*
X128923347Y-87251647D01*
X128923342Y-87251653D01*
X128831791Y-87400080D01*
X128776937Y-87565622D01*
X128766500Y-87667778D01*
X128766500Y-88242212D01*
X128776937Y-88344380D01*
X128831791Y-88509920D01*
X128923342Y-88658346D01*
X128923347Y-88658352D01*
X129046650Y-88781655D01*
X129046652Y-88781656D01*
X129046654Y-88781658D01*
X129092541Y-88809961D01*
X129140016Y-88862744D01*
X129151420Y-88932819D01*
X129123128Y-88997935D01*
X129064123Y-89037418D01*
X129039198Y-89042548D01*
X128945574Y-89052112D01*
X128777261Y-89107885D01*
X128626347Y-89200970D01*
X128626341Y-89200975D01*
X128539095Y-89288222D01*
X128476783Y-89322248D01*
X128405968Y-89317183D01*
X128360905Y-89288222D01*
X128273658Y-89200975D01*
X128273649Y-89200968D01*
X128230852Y-89174570D01*
X128183374Y-89121784D01*
X128171000Y-89067330D01*
X128171000Y-88791353D01*
X128172749Y-88775511D01*
X128172456Y-88775484D01*
X128173202Y-88767591D01*
X128171000Y-88697528D01*
X128171000Y-88667650D01*
X128171000Y-88667644D01*
X128170120Y-88660682D01*
X128169656Y-88654793D01*
X128168174Y-88607611D01*
X128162517Y-88588142D01*
X128158512Y-88568798D01*
X128155974Y-88548703D01*
X128138600Y-88504822D01*
X128136681Y-88499216D01*
X128135710Y-88495875D01*
X128123518Y-88453907D01*
X128117182Y-88443193D01*
X128113206Y-88436470D01*
X128104510Y-88418721D01*
X128097052Y-88399883D01*
X128069312Y-88361703D01*
X128066064Y-88356758D01*
X128042042Y-88316138D01*
X128027714Y-88301810D01*
X128014884Y-88286789D01*
X128002972Y-88270393D01*
X128002969Y-88270391D01*
X128002969Y-88270390D01*
X127966607Y-88240308D01*
X127962226Y-88236322D01*
X126206491Y-86480586D01*
X126172465Y-86418274D01*
X126173879Y-86358881D01*
X126184000Y-86321114D01*
X126203345Y-86100000D01*
X126184000Y-85878886D01*
X126126553Y-85664490D01*
X126032749Y-85463328D01*
X125905439Y-85281510D01*
X125748490Y-85124561D01*
X125748486Y-85124558D01*
X125748481Y-85124554D01*
X125566673Y-84997251D01*
X125566671Y-84997250D01*
X125365512Y-84903448D01*
X125365507Y-84903446D01*
X125151117Y-84846000D01*
X124930000Y-84826655D01*
X124708882Y-84846000D01*
X124494492Y-84903446D01*
X124494487Y-84903448D01*
X124293327Y-84997251D01*
X124111513Y-85124558D01*
X124111507Y-85124563D01*
X124063595Y-85172476D01*
X124001283Y-85206502D01*
X123930468Y-85201437D01*
X123873632Y-85158890D01*
X123848821Y-85092370D01*
X123848500Y-85083381D01*
X123848500Y-84658494D01*
X123845562Y-84621170D01*
X123820655Y-84535439D01*
X123799145Y-84461399D01*
X123799143Y-84461397D01*
X123799143Y-84461394D01*
X123714456Y-84318198D01*
X123714455Y-84318197D01*
X123714453Y-84318193D01*
X123714449Y-84318189D01*
X123713708Y-84317233D01*
X123713356Y-84316337D01*
X123710418Y-84311369D01*
X123711219Y-84310895D01*
X123687756Y-84251150D01*
X123701652Y-84181526D01*
X123713708Y-84162767D01*
X123714445Y-84161814D01*
X123714453Y-84161807D01*
X123799145Y-84018601D01*
X123845562Y-83858831D01*
X123848500Y-83821502D01*
X123848500Y-83388498D01*
X123845562Y-83351169D01*
X123799145Y-83191399D01*
X123799142Y-83191394D01*
X123779771Y-83158639D01*
X123762312Y-83089822D01*
X123784829Y-83022491D01*
X123840174Y-82978022D01*
X123888225Y-82968500D01*
X125930406Y-82968500D01*
X125998527Y-82988502D01*
G37*
%TD.AperFunction*%
%TA.AperFunction,Conductor*%
G36*
X138866621Y-78345502D02*
G01*
X138913114Y-78399158D01*
X138924500Y-78451500D01*
X138924500Y-82007417D01*
X138904498Y-82075538D01*
X138850842Y-82122031D01*
X138780568Y-82132135D01*
X138715988Y-82102641D01*
X138694211Y-82078127D01*
X138684456Y-82063739D01*
X138637742Y-81994841D01*
X138405484Y-81721405D01*
X138351792Y-81670545D01*
X138145037Y-81474695D01*
X138145022Y-81474682D01*
X137859418Y-81257572D01*
X137859412Y-81257568D01*
X137835560Y-81243217D01*
X137552005Y-81072607D01*
X137226401Y-80921967D01*
X136886417Y-80807413D01*
X136838915Y-80796956D01*
X136536054Y-80730291D01*
X136536046Y-80730289D01*
X136536042Y-80730289D01*
X136526133Y-80729211D01*
X136425822Y-80718301D01*
X136360263Y-80691051D01*
X136319845Y-80632683D01*
X136317399Y-80561728D01*
X136347316Y-80509270D01*
X136346710Y-80508791D01*
X136349866Y-80504798D01*
X136350358Y-80503937D01*
X136351263Y-80503031D01*
X136442751Y-80354707D01*
X136497568Y-80189276D01*
X136497569Y-80189273D01*
X136507999Y-80087184D01*
X136508000Y-80087184D01*
X136508000Y-80054000D01*
X135334500Y-80054000D01*
X135266379Y-80033998D01*
X135219886Y-79980342D01*
X135208500Y-79928000D01*
X135208500Y-78817000D01*
X135716500Y-78817000D01*
X135716500Y-79546000D01*
X136508000Y-79546000D01*
X136508000Y-79512815D01*
X136497569Y-79410726D01*
X136497568Y-79410723D01*
X136442751Y-79245292D01*
X136351262Y-79096966D01*
X136351257Y-79096960D01*
X136228039Y-78973742D01*
X136228033Y-78973737D01*
X136079707Y-78882248D01*
X135914276Y-78827431D01*
X135914273Y-78827430D01*
X135812184Y-78817000D01*
X135716500Y-78817000D01*
X135208500Y-78817000D01*
X135112815Y-78817000D01*
X135010726Y-78827430D01*
X135010723Y-78827431D01*
X134845292Y-78882248D01*
X134696966Y-78973737D01*
X134689445Y-78981258D01*
X134627131Y-79015281D01*
X134556316Y-79010213D01*
X134511256Y-78981252D01*
X134503346Y-78973342D01*
X134354920Y-78881791D01*
X134189381Y-78826938D01*
X134189379Y-78826937D01*
X134189377Y-78826937D01*
X134087221Y-78816500D01*
X133387787Y-78816500D01*
X133285619Y-78826937D01*
X133120079Y-78881791D01*
X132971653Y-78973342D01*
X132971649Y-78973345D01*
X132959192Y-78985802D01*
X132896878Y-79019823D01*
X132838773Y-79018744D01*
X132830031Y-79016500D01*
X132830030Y-79016500D01*
X132809776Y-79016500D01*
X132790066Y-79014949D01*
X132770057Y-79011780D01*
X132770056Y-79011780D01*
X132723083Y-79016220D01*
X132717150Y-79016500D01*
X123433849Y-79016500D01*
X123418010Y-79014751D01*
X123417983Y-79015045D01*
X123410091Y-79014299D01*
X123340060Y-79016500D01*
X123310144Y-79016500D01*
X123303172Y-79017379D01*
X123297265Y-79017844D01*
X123250110Y-79019326D01*
X123250105Y-79019327D01*
X123230660Y-79024977D01*
X123211302Y-79028986D01*
X123191207Y-79031524D01*
X123191205Y-79031525D01*
X123147324Y-79048897D01*
X123141709Y-79050819D01*
X123096410Y-79063980D01*
X123096404Y-79063982D01*
X123078966Y-79074295D01*
X123061220Y-79082989D01*
X123042381Y-79090448D01*
X123042380Y-79090449D01*
X123004213Y-79118178D01*
X122999252Y-79121437D01*
X122958637Y-79145458D01*
X122944307Y-79159787D01*
X122929281Y-79172620D01*
X122912895Y-79184526D01*
X122912894Y-79184526D01*
X122882818Y-79220880D01*
X122878823Y-79225271D01*
X122738437Y-79365656D01*
X122676125Y-79399682D01*
X122663452Y-79401768D01*
X122618957Y-79406782D01*
X122618950Y-79406783D01*
X122446984Y-79466957D01*
X122446981Y-79466958D01*
X122292720Y-79563887D01*
X122292718Y-79563888D01*
X122163888Y-79692718D01*
X122163887Y-79692720D01*
X122066958Y-79846981D01*
X122066957Y-79846984D01*
X122020294Y-79980342D01*
X122006783Y-80018953D01*
X121986384Y-80200000D01*
X122006783Y-80381047D01*
X122006783Y-80381049D01*
X122006784Y-80381050D01*
X122066957Y-80553015D01*
X122066958Y-80553018D01*
X122163887Y-80707279D01*
X122163888Y-80707281D01*
X122292718Y-80836111D01*
X122292720Y-80836112D01*
X122446981Y-80933041D01*
X122446982Y-80933041D01*
X122446985Y-80933043D01*
X122618953Y-80993217D01*
X122800000Y-81013616D01*
X122981047Y-80993217D01*
X123153015Y-80933043D01*
X123307281Y-80836111D01*
X123436111Y-80707281D01*
X123452393Y-80681367D01*
X123505570Y-80634330D01*
X123575737Y-80623509D01*
X123640616Y-80652340D01*
X123679608Y-80711671D01*
X123680789Y-80781011D01*
X123676000Y-80798882D01*
X123656655Y-81020000D01*
X123676000Y-81241117D01*
X123733446Y-81455507D01*
X123733450Y-81455517D01*
X123745471Y-81481297D01*
X123756132Y-81551488D01*
X123727152Y-81616301D01*
X123667732Y-81655157D01*
X123596737Y-81655720D01*
X123567137Y-81643000D01*
X123453602Y-81575855D01*
X123293829Y-81529437D01*
X123256506Y-81526500D01*
X123256502Y-81526500D01*
X121473498Y-81526500D01*
X121473494Y-81526500D01*
X121436170Y-81529437D01*
X121276394Y-81575856D01*
X121133196Y-81660544D01*
X121133189Y-81660549D01*
X121015549Y-81778189D01*
X121015544Y-81778196D01*
X120930856Y-81921394D01*
X120884437Y-82081170D01*
X120881500Y-82118494D01*
X120881500Y-82551506D01*
X120884437Y-82588829D01*
X120930856Y-82748605D01*
X121015543Y-82891802D01*
X121016298Y-82892775D01*
X121016652Y-82893676D01*
X121019582Y-82898631D01*
X121018782Y-82899103D01*
X121042244Y-82958861D01*
X121028342Y-83028483D01*
X121016298Y-83047225D01*
X121015543Y-83048197D01*
X120930856Y-83191394D01*
X120884437Y-83351170D01*
X120881500Y-83388494D01*
X120881500Y-83821506D01*
X120884437Y-83858829D01*
X120930856Y-84018605D01*
X121015543Y-84161802D01*
X121016298Y-84162775D01*
X121016652Y-84163676D01*
X121019582Y-84168631D01*
X121018782Y-84169103D01*
X121042244Y-84228861D01*
X121028342Y-84298483D01*
X121016298Y-84317225D01*
X121015543Y-84318197D01*
X120930856Y-84461394D01*
X120884437Y-84621170D01*
X120881500Y-84658494D01*
X120881500Y-85091506D01*
X120884437Y-85128829D01*
X120930856Y-85288605D01*
X121015544Y-85431803D01*
X121016615Y-85433184D01*
X121017117Y-85434463D01*
X121019582Y-85438631D01*
X121018909Y-85439028D01*
X121042562Y-85499270D01*
X121028662Y-85568892D01*
X121016614Y-85587639D01*
X121015946Y-85588499D01*
X120931318Y-85731598D01*
X120885007Y-85891000D01*
X122493000Y-85891000D01*
X122561121Y-85911002D01*
X122607614Y-85964658D01*
X122619000Y-86017000D01*
X122619000Y-86952999D01*
X123256458Y-86952999D01*
X123293750Y-86950065D01*
X123453400Y-86903681D01*
X123596499Y-86819052D01*
X123659965Y-86755587D01*
X123722277Y-86721562D01*
X123793093Y-86726626D01*
X123849929Y-86769172D01*
X123852274Y-86772411D01*
X123951895Y-86914683D01*
X123954561Y-86918490D01*
X124111510Y-87075439D01*
X124111514Y-87075442D01*
X124111518Y-87075445D01*
X124207854Y-87142900D01*
X124293327Y-87202749D01*
X124466835Y-87283657D01*
X124520120Y-87330574D01*
X124539581Y-87398852D01*
X124519039Y-87466811D01*
X124465016Y-87512877D01*
X124403699Y-87523463D01*
X124392941Y-87522617D01*
X124378750Y-87521500D01*
X124378747Y-87521500D01*
X124122251Y-87521500D01*
X123951252Y-87521501D01*
X123914064Y-87524426D01*
X123754895Y-87570669D01*
X123612238Y-87655036D01*
X123612235Y-87655038D01*
X123525940Y-87741334D01*
X123463628Y-87775359D01*
X123392812Y-87770293D01*
X123369810Y-87758926D01*
X123303015Y-87716957D01*
X123131050Y-87656784D01*
X123131049Y-87656783D01*
X123131047Y-87656783D01*
X122950000Y-87636384D01*
X122768953Y-87656783D01*
X122768950Y-87656783D01*
X122768949Y-87656784D01*
X122596984Y-87716957D01*
X122596981Y-87716958D01*
X122442720Y-87813887D01*
X122442718Y-87813888D01*
X122313887Y-87942719D01*
X122289904Y-87980888D01*
X122236725Y-88027925D01*
X122166557Y-88038744D01*
X122101679Y-88009910D01*
X122062690Y-87950577D01*
X122058011Y-87899743D01*
X122063616Y-87850000D01*
X122043217Y-87668953D01*
X121983043Y-87496985D01*
X121983041Y-87496982D01*
X121983041Y-87496981D01*
X121886112Y-87342720D01*
X121886111Y-87342718D01*
X121757281Y-87213888D01*
X121757279Y-87213887D01*
X121712398Y-87185686D01*
X121665360Y-87132507D01*
X121654540Y-87062340D01*
X121683373Y-86997462D01*
X121742705Y-86958471D01*
X121779434Y-86952999D01*
X122111000Y-86952999D01*
X122111000Y-86399000D01*
X120885007Y-86399000D01*
X120931318Y-86558401D01*
X121015948Y-86701501D01*
X121015949Y-86701503D01*
X121133496Y-86819050D01*
X121133500Y-86819053D01*
X121136954Y-86821096D01*
X121139108Y-86823403D01*
X121139763Y-86823911D01*
X121139681Y-86824016D01*
X121185407Y-86872988D01*
X121198113Y-86942838D01*
X121171039Y-87008469D01*
X121112779Y-87049045D01*
X121086928Y-87054757D01*
X121068956Y-87056782D01*
X121068950Y-87056783D01*
X120896984Y-87116957D01*
X120896982Y-87116958D01*
X120769299Y-87197187D01*
X120702263Y-87216500D01*
X120023694Y-87216500D01*
X119955573Y-87196498D01*
X119934599Y-87179595D01*
X119920405Y-87165401D01*
X119886379Y-87103089D01*
X119883500Y-87076306D01*
X119883500Y-86783854D01*
X119885249Y-86768012D01*
X119884956Y-86767985D01*
X119885700Y-86760099D01*
X119885702Y-86760092D01*
X119883500Y-86690028D01*
X119883500Y-86660144D01*
X119882620Y-86653182D01*
X119882156Y-86647293D01*
X119880674Y-86600111D01*
X119875020Y-86580652D01*
X119871012Y-86561297D01*
X119868474Y-86541203D01*
X119851103Y-86497329D01*
X119849189Y-86491740D01*
X119836019Y-86446407D01*
X119825703Y-86428964D01*
X119817005Y-86411209D01*
X119809552Y-86392383D01*
X119788336Y-86363181D01*
X119781818Y-86354210D01*
X119778558Y-86349247D01*
X119754542Y-86308638D01*
X119740214Y-86294310D01*
X119727384Y-86279289D01*
X119715472Y-86262893D01*
X119715469Y-86262891D01*
X119715469Y-86262890D01*
X119679113Y-86232813D01*
X119674721Y-86228817D01*
X119202242Y-85756337D01*
X119192280Y-85743901D01*
X119192053Y-85744090D01*
X119187000Y-85737982D01*
X119135920Y-85690015D01*
X119114777Y-85668871D01*
X119114772Y-85668866D01*
X119109225Y-85664563D01*
X119104717Y-85660712D01*
X119070325Y-85628417D01*
X119070319Y-85628413D01*
X119052563Y-85618651D01*
X119036047Y-85607802D01*
X119020041Y-85595386D01*
X118987078Y-85581122D01*
X118976740Y-85576648D01*
X118971408Y-85574036D01*
X118930061Y-85551305D01*
X118910436Y-85546266D01*
X118891732Y-85539862D01*
X118870671Y-85530748D01*
X118816097Y-85485337D01*
X118794737Y-85417629D01*
X118812259Y-85350971D01*
X118849145Y-85288601D01*
X118895562Y-85128831D01*
X118898500Y-85091502D01*
X118898500Y-84658498D01*
X118895562Y-84621169D01*
X118849145Y-84461399D01*
X118849143Y-84461397D01*
X118849143Y-84461394D01*
X118764456Y-84318198D01*
X118764455Y-84318197D01*
X118764453Y-84318193D01*
X118764449Y-84318189D01*
X118763708Y-84317233D01*
X118763356Y-84316337D01*
X118760418Y-84311369D01*
X118761219Y-84310895D01*
X118737756Y-84251150D01*
X118751652Y-84181526D01*
X118763708Y-84162767D01*
X118764445Y-84161814D01*
X118764453Y-84161807D01*
X118849145Y-84018601D01*
X118895562Y-83858831D01*
X118898500Y-83821502D01*
X118898500Y-83388498D01*
X118895562Y-83351169D01*
X118849145Y-83191399D01*
X118849143Y-83191397D01*
X118849143Y-83191394D01*
X118764455Y-83048196D01*
X118763385Y-83046816D01*
X118762882Y-83045536D01*
X118760418Y-83041369D01*
X118761090Y-83040971D01*
X118737437Y-82980732D01*
X118751336Y-82911109D01*
X118763390Y-82892353D01*
X118764056Y-82891493D01*
X118848681Y-82748401D01*
X118894993Y-82589000D01*
X117287000Y-82589000D01*
X117218879Y-82568998D01*
X117172386Y-82515342D01*
X117161000Y-82463000D01*
X117161000Y-81527000D01*
X117669000Y-81527000D01*
X117669000Y-82081000D01*
X118894992Y-82081000D01*
X118848681Y-81921598D01*
X118764051Y-81778498D01*
X118764050Y-81778496D01*
X118646503Y-81660949D01*
X118646501Y-81660948D01*
X118503401Y-81576318D01*
X118343748Y-81529934D01*
X118343750Y-81529934D01*
X118306461Y-81527000D01*
X117669000Y-81527000D01*
X117161000Y-81527000D01*
X116523536Y-81527001D01*
X116521402Y-81527085D01*
X116452551Y-81509763D01*
X116403995Y-81457967D01*
X116391150Y-81388142D01*
X116418094Y-81322457D01*
X116450322Y-81293943D01*
X116478346Y-81276658D01*
X116522465Y-81232538D01*
X116584776Y-81198514D01*
X116653175Y-81202705D01*
X116683408Y-81213283D01*
X116768953Y-81243217D01*
X116950000Y-81263616D01*
X117131047Y-81243217D01*
X117303015Y-81183043D01*
X117457281Y-81086111D01*
X117586111Y-80957281D01*
X117683043Y-80803015D01*
X117743217Y-80631047D01*
X117763616Y-80450000D01*
X117743217Y-80268953D01*
X117683043Y-80096985D01*
X117683041Y-80096982D01*
X117683041Y-80096981D01*
X117586112Y-79942720D01*
X117586111Y-79942718D01*
X117457281Y-79813888D01*
X117457279Y-79813887D01*
X117303018Y-79716958D01*
X117303015Y-79716957D01*
X117131050Y-79656784D01*
X117131049Y-79656783D01*
X117131047Y-79656783D01*
X116950000Y-79636384D01*
X116768953Y-79656783D01*
X116768950Y-79656783D01*
X116768949Y-79656784D01*
X116653175Y-79697295D01*
X116582270Y-79700914D01*
X116522466Y-79667462D01*
X116478346Y-79623342D01*
X116329920Y-79531791D01*
X116164381Y-79476938D01*
X116164379Y-79476937D01*
X116164377Y-79476937D01*
X116062221Y-79466500D01*
X115362787Y-79466500D01*
X115260619Y-79476937D01*
X115095079Y-79531791D01*
X114946653Y-79623342D01*
X114946647Y-79623347D01*
X114938741Y-79631254D01*
X114876429Y-79665280D01*
X114805614Y-79660215D01*
X114760551Y-79631254D01*
X114753039Y-79623742D01*
X114753033Y-79623737D01*
X114604707Y-79532248D01*
X114439276Y-79477431D01*
X114439273Y-79477430D01*
X114337184Y-79467000D01*
X114241500Y-79467000D01*
X114241500Y-80578000D01*
X114221498Y-80646121D01*
X114167842Y-80692614D01*
X114115500Y-80704000D01*
X112942000Y-80704000D01*
X112942000Y-80737184D01*
X112952430Y-80839273D01*
X112952431Y-80839276D01*
X113007248Y-81004707D01*
X113098737Y-81153033D01*
X113098742Y-81153039D01*
X113122108Y-81176405D01*
X113156134Y-81238717D01*
X113151069Y-81309532D01*
X113108522Y-81366368D01*
X113042002Y-81391179D01*
X113033013Y-81391500D01*
X112333494Y-81391500D01*
X112296170Y-81394437D01*
X112296167Y-81394438D01*
X112195132Y-81423791D01*
X112124136Y-81423588D01*
X112064520Y-81385033D01*
X112035212Y-81320368D01*
X112033980Y-81302794D01*
X112033980Y-81269491D01*
X112034520Y-81261259D01*
X112039230Y-81225480D01*
X112039230Y-81225479D01*
X112033980Y-81185601D01*
X112033980Y-81185600D01*
X112033980Y-81185595D01*
X112018318Y-81066630D01*
X112003291Y-81030350D01*
X111957004Y-80918604D01*
X111949696Y-80909080D01*
X111938914Y-80895028D01*
X111932505Y-80884504D01*
X111932012Y-80884818D01*
X111842001Y-80742984D01*
X111842000Y-80742982D01*
X111760866Y-80666793D01*
X111725321Y-80633414D01*
X111645953Y-80589781D01*
X111585059Y-80556304D01*
X111585057Y-80556303D01*
X111430037Y-80516501D01*
X111430031Y-80516500D01*
X111430030Y-80516500D01*
X111430027Y-80516500D01*
X106833854Y-80516500D01*
X106818012Y-80514750D01*
X106817985Y-80515044D01*
X106810092Y-80514297D01*
X106740029Y-80516500D01*
X106710144Y-80516500D01*
X106710140Y-80516500D01*
X106710129Y-80516501D01*
X106703190Y-80517377D01*
X106697277Y-80517843D01*
X106650114Y-80519325D01*
X106650107Y-80519327D01*
X106630649Y-80524979D01*
X106611304Y-80528985D01*
X106591206Y-80531525D01*
X106591197Y-80531527D01*
X106547331Y-80548894D01*
X106541716Y-80550817D01*
X106496408Y-80563981D01*
X106478964Y-80574297D01*
X106461218Y-80582990D01*
X106442382Y-80590448D01*
X106404209Y-80618181D01*
X106399248Y-80621440D01*
X106358637Y-80645458D01*
X106344308Y-80659786D01*
X106329287Y-80672615D01*
X106312894Y-80684526D01*
X106312893Y-80684527D01*
X106282814Y-80720885D01*
X106278818Y-80725276D01*
X106161334Y-80842759D01*
X106148902Y-80852719D01*
X106149090Y-80852946D01*
X106142983Y-80857998D01*
X106095016Y-80909079D01*
X106073860Y-80930234D01*
X106069560Y-80935777D01*
X106065713Y-80940280D01*
X106033417Y-80974674D01*
X106033411Y-80974683D01*
X106023651Y-80992435D01*
X106012803Y-81008950D01*
X106000386Y-81024958D01*
X105981645Y-81068264D01*
X105979034Y-81073594D01*
X105956305Y-81114939D01*
X105956303Y-81114944D01*
X105951267Y-81134559D01*
X105944864Y-81153262D01*
X105936819Y-81171852D01*
X105929437Y-81218456D01*
X105928233Y-81224268D01*
X105916500Y-81269968D01*
X105916500Y-81290223D01*
X105914949Y-81309933D01*
X105911780Y-81329942D01*
X105911780Y-81329943D01*
X105916220Y-81376917D01*
X105916500Y-81382850D01*
X105916500Y-81995618D01*
X105896498Y-82063739D01*
X105842842Y-82110232D01*
X105772568Y-82120336D01*
X105707988Y-82090842D01*
X105686211Y-82066328D01*
X105684456Y-82063739D01*
X105637742Y-81994841D01*
X105405484Y-81721405D01*
X105351792Y-81670545D01*
X105145037Y-81474695D01*
X105145022Y-81474682D01*
X104859418Y-81257572D01*
X104859412Y-81257568D01*
X104835560Y-81243217D01*
X104552005Y-81072607D01*
X104226401Y-80921967D01*
X103886417Y-80807413D01*
X103838915Y-80796956D01*
X103536054Y-80730291D01*
X103536030Y-80730287D01*
X103179389Y-80691500D01*
X103179382Y-80691500D01*
X102820618Y-80691500D01*
X102820610Y-80691500D01*
X102463969Y-80730287D01*
X102463945Y-80730291D01*
X102113587Y-80807412D01*
X102113573Y-80807416D01*
X101773601Y-80921966D01*
X101743749Y-80935777D01*
X101451493Y-81070989D01*
X101447989Y-81072610D01*
X101140587Y-81257568D01*
X101140581Y-81257572D01*
X100854977Y-81474682D01*
X100854962Y-81474695D01*
X100594516Y-81721404D01*
X100362259Y-81994839D01*
X100305789Y-82078127D01*
X100251005Y-82123285D01*
X100180503Y-82131655D01*
X100116668Y-82100581D01*
X100079767Y-82039928D01*
X100075500Y-82007417D01*
X100075500Y-80196000D01*
X112942000Y-80196000D01*
X113733500Y-80196000D01*
X113733500Y-79467000D01*
X113637815Y-79467000D01*
X113535726Y-79477430D01*
X113535723Y-79477431D01*
X113370292Y-79532248D01*
X113221966Y-79623737D01*
X113221960Y-79623742D01*
X113098742Y-79746960D01*
X113098737Y-79746966D01*
X113007248Y-79895292D01*
X112952431Y-80060723D01*
X112952430Y-80060726D01*
X112942000Y-80162815D01*
X112942000Y-80196000D01*
X100075500Y-80196000D01*
X100075500Y-78451500D01*
X100095502Y-78383379D01*
X100149158Y-78336886D01*
X100201500Y-78325500D01*
X138798500Y-78325500D01*
X138866621Y-78345502D01*
G37*
%TD.AperFunction*%
%TA.AperFunction,Conductor*%
G36*
X132725063Y-80413689D02*
G01*
X132743247Y-80416569D01*
X132807400Y-80446981D01*
X132830777Y-80474869D01*
X132842403Y-80493718D01*
X132848343Y-80503347D01*
X132848347Y-80503352D01*
X132950449Y-80605454D01*
X132984475Y-80667766D01*
X132979410Y-80738581D01*
X132950449Y-80783644D01*
X132808095Y-80925998D01*
X132745783Y-80960024D01*
X132674968Y-80954959D01*
X132618132Y-80912412D01*
X132593321Y-80845892D01*
X132593000Y-80836903D01*
X132593000Y-80669483D01*
X132582394Y-80565682D01*
X132582145Y-80564516D01*
X132582200Y-80563778D01*
X132581695Y-80558834D01*
X132582576Y-80558743D01*
X132587443Y-80493718D01*
X132630176Y-80437022D01*
X132696778Y-80412430D01*
X132725063Y-80413689D01*
G37*
%TD.AperFunction*%
%TD*%
%TA.AperFunction,Conductor*%
%TO.N,GND*%
G36*
X106039465Y-85637509D02*
G01*
X106054301Y-85650206D01*
X106059779Y-85655684D01*
X106072617Y-85670714D01*
X106084526Y-85687104D01*
X106084530Y-85687109D01*
X106120880Y-85717180D01*
X106125273Y-85721177D01*
X106542757Y-86138662D01*
X106552719Y-86151096D01*
X106552946Y-86150909D01*
X106558000Y-86157018D01*
X106609079Y-86204984D01*
X106630223Y-86226129D01*
X106630227Y-86226132D01*
X106630230Y-86226135D01*
X106635782Y-86230442D01*
X106640269Y-86234273D01*
X106662959Y-86255581D01*
X106674677Y-86266585D01*
X106674679Y-86266586D01*
X106692428Y-86276343D01*
X106708953Y-86287198D01*
X106724959Y-86299614D01*
X106766686Y-86317670D01*
X106768262Y-86318352D01*
X106773583Y-86320958D01*
X106814940Y-86343695D01*
X106814948Y-86343697D01*
X106834558Y-86348732D01*
X106853267Y-86355137D01*
X106871855Y-86363181D01*
X106893246Y-86366569D01*
X106957400Y-86396981D01*
X106980777Y-86424869D01*
X106998343Y-86453347D01*
X106998347Y-86453352D01*
X107121647Y-86576652D01*
X107121653Y-86576657D01*
X107121654Y-86576658D01*
X107256647Y-86659923D01*
X107304125Y-86712709D01*
X107316500Y-86767164D01*
X107316500Y-87079724D01*
X107296498Y-87147845D01*
X107242845Y-87194337D01*
X107213485Y-87207745D01*
X107090478Y-87286797D01*
X107090472Y-87286802D01*
X106983506Y-87379487D01*
X106982632Y-87380191D01*
X106981819Y-87380949D01*
X106939732Y-87429520D01*
X106880005Y-87467903D01*
X106879656Y-87468005D01*
X106855651Y-87474978D01*
X106836304Y-87478985D01*
X106816206Y-87481525D01*
X106816197Y-87481527D01*
X106772331Y-87498894D01*
X106766716Y-87500817D01*
X106721408Y-87513981D01*
X106703964Y-87524297D01*
X106686218Y-87532990D01*
X106667382Y-87540448D01*
X106629209Y-87568181D01*
X106624248Y-87571440D01*
X106583638Y-87595458D01*
X106569311Y-87609784D01*
X106554285Y-87622617D01*
X106537895Y-87634525D01*
X106537893Y-87634527D01*
X106507808Y-87670892D01*
X106503812Y-87675283D01*
X105974498Y-88204596D01*
X105912188Y-88238620D01*
X105885405Y-88241500D01*
X104558494Y-88241500D01*
X104521170Y-88244437D01*
X104361394Y-88290856D01*
X104218196Y-88375544D01*
X104218189Y-88375549D01*
X104100549Y-88493189D01*
X104100544Y-88493196D01*
X104015856Y-88636394D01*
X103969437Y-88796170D01*
X103966500Y-88833494D01*
X103966500Y-89266506D01*
X103969437Y-89303829D01*
X103983895Y-89353594D01*
X104009869Y-89442998D01*
X104015856Y-89463603D01*
X104029020Y-89485863D01*
X104046478Y-89554679D01*
X104029020Y-89614137D01*
X104015856Y-89636396D01*
X103969437Y-89796170D01*
X103966500Y-89833494D01*
X103966500Y-90266506D01*
X103969437Y-90303829D01*
X103983428Y-90351985D01*
X104014018Y-90457279D01*
X104015856Y-90463603D01*
X104029020Y-90485863D01*
X104046478Y-90554679D01*
X104029020Y-90614137D01*
X104015856Y-90636396D01*
X104015855Y-90636398D01*
X104015855Y-90636399D01*
X104012665Y-90647380D01*
X103969437Y-90796170D01*
X103966500Y-90833494D01*
X103966500Y-91266506D01*
X103969437Y-91303829D01*
X103991132Y-91378502D01*
X104011289Y-91447886D01*
X104015856Y-91463603D01*
X104029020Y-91485863D01*
X104046478Y-91554679D01*
X104029020Y-91614137D01*
X104015856Y-91636396D01*
X103969437Y-91796170D01*
X103966500Y-91833494D01*
X103966500Y-92266506D01*
X103969437Y-92303829D01*
X104015856Y-92463605D01*
X104100544Y-92606803D01*
X104100549Y-92606810D01*
X104218189Y-92724450D01*
X104218196Y-92724455D01*
X104361394Y-92809143D01*
X104361397Y-92809143D01*
X104361399Y-92809145D01*
X104521169Y-92855562D01*
X104528634Y-92856149D01*
X104558494Y-92858500D01*
X104558498Y-92858500D01*
X105110406Y-92858500D01*
X105178527Y-92878502D01*
X105199501Y-92895405D01*
X105592753Y-93288657D01*
X105602720Y-93301097D01*
X105602947Y-93300910D01*
X105607999Y-93307017D01*
X105608000Y-93307018D01*
X105659095Y-93354999D01*
X105680231Y-93376135D01*
X105685770Y-93380431D01*
X105690282Y-93384285D01*
X105724678Y-93416585D01*
X105724682Y-93416588D01*
X105742430Y-93426345D01*
X105758957Y-93437201D01*
X105774160Y-93448994D01*
X105774960Y-93449614D01*
X105818259Y-93468351D01*
X105823585Y-93470960D01*
X105864935Y-93493693D01*
X105864938Y-93493694D01*
X105864940Y-93493695D01*
X105884562Y-93498733D01*
X105903263Y-93505135D01*
X105915814Y-93510567D01*
X105921852Y-93513180D01*
X105921853Y-93513180D01*
X105921855Y-93513181D01*
X105968477Y-93520564D01*
X105974262Y-93521763D01*
X106019970Y-93533500D01*
X106040224Y-93533500D01*
X106059934Y-93535051D01*
X106062141Y-93535400D01*
X106079943Y-93538220D01*
X106113870Y-93535012D01*
X106126917Y-93533780D01*
X106132850Y-93533500D01*
X106850148Y-93533500D01*
X106918269Y-93553502D01*
X106945372Y-93576987D01*
X106981817Y-93619047D01*
X106981821Y-93619051D01*
X107090482Y-93713205D01*
X107187629Y-93775637D01*
X107211553Y-93791013D01*
X107213488Y-93792256D01*
X107242843Y-93805662D01*
X107296498Y-93852154D01*
X107316500Y-93920274D01*
X107316500Y-93978646D01*
X107314751Y-93994488D01*
X107315044Y-93994516D01*
X107314298Y-94002407D01*
X107316500Y-94072457D01*
X107316500Y-94102351D01*
X107316501Y-94102372D01*
X107317378Y-94109320D01*
X107317844Y-94115232D01*
X107319326Y-94162388D01*
X107319327Y-94162393D01*
X107324977Y-94181839D01*
X107328986Y-94201197D01*
X107331525Y-94221293D01*
X107331526Y-94221299D01*
X107348893Y-94265162D01*
X107350816Y-94270779D01*
X107363982Y-94316093D01*
X107374294Y-94333531D01*
X107382988Y-94351279D01*
X107390444Y-94370109D01*
X107390450Y-94370120D01*
X107418177Y-94408283D01*
X107421437Y-94413246D01*
X107445460Y-94453865D01*
X107459779Y-94468184D01*
X107472617Y-94483214D01*
X107479653Y-94492897D01*
X107484528Y-94499607D01*
X107490507Y-94504553D01*
X107520886Y-94529685D01*
X107525267Y-94533671D01*
X107805091Y-94813495D01*
X108079595Y-95087999D01*
X108113621Y-95150311D01*
X108116500Y-95177094D01*
X108116500Y-95850544D01*
X108127112Y-95954425D01*
X108136979Y-95984201D01*
X108182885Y-96122738D01*
X108197740Y-96146821D01*
X108216500Y-96212969D01*
X108216500Y-96226456D01*
X108196498Y-96294577D01*
X108142842Y-96341070D01*
X108072568Y-96351174D01*
X108061531Y-96349081D01*
X108059095Y-96348505D01*
X107998597Y-96342000D01*
X107704000Y-96342000D01*
X107704000Y-98358000D01*
X107745141Y-98358000D01*
X107813262Y-98378002D01*
X107859755Y-98431658D01*
X107869859Y-98501932D01*
X107865718Y-98520564D01*
X107856092Y-98552299D01*
X107856090Y-98552307D01*
X107836620Y-98749996D01*
X107836620Y-98750003D01*
X107856090Y-98947692D01*
X107856091Y-98947697D01*
X107856092Y-98947701D01*
X107865716Y-98979427D01*
X107866349Y-99050418D01*
X107828500Y-99110484D01*
X107764185Y-99140553D01*
X107745141Y-99142000D01*
X107704000Y-99142000D01*
X107704000Y-99896000D01*
X108458000Y-99896000D01*
X108458000Y-99854858D01*
X108478002Y-99786737D01*
X108531658Y-99740244D01*
X108601932Y-99730140D01*
X108620556Y-99734278D01*
X108652299Y-99743908D01*
X108652305Y-99743908D01*
X108652307Y-99743909D01*
X108849997Y-99763380D01*
X108850000Y-99763380D01*
X108850003Y-99763380D01*
X109047692Y-99743909D01*
X109047692Y-99743908D01*
X109047701Y-99743908D01*
X109079427Y-99734283D01*
X109150415Y-99733649D01*
X109210482Y-99771497D01*
X109240552Y-99835811D01*
X109242000Y-99854858D01*
X109242000Y-99896000D01*
X109996000Y-99896000D01*
X109996000Y-99142000D01*
X110504000Y-99142000D01*
X110504000Y-99896000D01*
X111258000Y-99896000D01*
X111258000Y-99601414D01*
X111257999Y-99601402D01*
X111251494Y-99540906D01*
X111200444Y-99404035D01*
X111200444Y-99404034D01*
X111112904Y-99287095D01*
X110995965Y-99199555D01*
X110859093Y-99148505D01*
X110798597Y-99142000D01*
X110504000Y-99142000D01*
X109996000Y-99142000D01*
X109954859Y-99142000D01*
X109886738Y-99121998D01*
X109840245Y-99068342D01*
X109830141Y-98998068D01*
X109834281Y-98979435D01*
X109843908Y-98947701D01*
X109845429Y-98932255D01*
X109863380Y-98750003D01*
X109863380Y-98749996D01*
X109843909Y-98552307D01*
X109843908Y-98552305D01*
X109843908Y-98552299D01*
X109834283Y-98520572D01*
X109833651Y-98449582D01*
X109871500Y-98389516D01*
X109935815Y-98359447D01*
X109954859Y-98358000D01*
X109996000Y-98358000D01*
X109996000Y-97604000D01*
X110504000Y-97604000D01*
X110504000Y-98358000D01*
X110798585Y-98358000D01*
X110798597Y-98357999D01*
X110859093Y-98351494D01*
X110995964Y-98300444D01*
X110995965Y-98300444D01*
X111112904Y-98212904D01*
X111200444Y-98095965D01*
X111200444Y-98095964D01*
X111251494Y-97959093D01*
X111257999Y-97898597D01*
X111258000Y-97898585D01*
X111258000Y-97604000D01*
X115442000Y-97604000D01*
X115442000Y-97637184D01*
X115452430Y-97739273D01*
X115452431Y-97739276D01*
X115507248Y-97904707D01*
X115598737Y-98053033D01*
X115598742Y-98053039D01*
X115721960Y-98176257D01*
X115721966Y-98176262D01*
X115870292Y-98267751D01*
X116035723Y-98322568D01*
X116035726Y-98322569D01*
X116137815Y-98332999D01*
X116137815Y-98333000D01*
X116233500Y-98333000D01*
X116233500Y-97604000D01*
X115442000Y-97604000D01*
X111258000Y-97604000D01*
X110504000Y-97604000D01*
X109996000Y-97604000D01*
X109996000Y-97222000D01*
X110016002Y-97153879D01*
X110069658Y-97107386D01*
X110122000Y-97096000D01*
X111258000Y-97096000D01*
X111258000Y-96801414D01*
X111257999Y-96801402D01*
X111251494Y-96740907D01*
X111243653Y-96719884D01*
X111238587Y-96649068D01*
X111272611Y-96586755D01*
X111334922Y-96552729D01*
X111348902Y-96550501D01*
X111379324Y-96547393D01*
X111547525Y-96491657D01*
X111698339Y-96398634D01*
X111698345Y-96398629D01*
X111823629Y-96273345D01*
X111823634Y-96273339D01*
X111916657Y-96122525D01*
X111972393Y-95954321D01*
X111972394Y-95954318D01*
X111982999Y-95850516D01*
X111983000Y-95850516D01*
X111983000Y-95604000D01*
X110834500Y-95604000D01*
X110766379Y-95583998D01*
X110719886Y-95530342D01*
X110708500Y-95478000D01*
X110708500Y-94383737D01*
X110728502Y-94315616D01*
X110745405Y-94294641D01*
X110747506Y-94292541D01*
X110814774Y-94178797D01*
X110830267Y-94152600D01*
X110830267Y-94152598D01*
X110830269Y-94152596D01*
X110833347Y-94142000D01*
X111216500Y-94142000D01*
X111216500Y-95096000D01*
X111983000Y-95096000D01*
X111983000Y-94849483D01*
X111972394Y-94745681D01*
X111972393Y-94745678D01*
X111916657Y-94577474D01*
X111823634Y-94426660D01*
X111823629Y-94426654D01*
X111698345Y-94301370D01*
X111698339Y-94301365D01*
X111547525Y-94208342D01*
X111379321Y-94152606D01*
X111379318Y-94152605D01*
X111275516Y-94142000D01*
X111216500Y-94142000D01*
X110833347Y-94142000D01*
X110875629Y-93996466D01*
X110876352Y-93987278D01*
X110878500Y-93959993D01*
X110878499Y-93560010D01*
X110875629Y-93523535D01*
X110874765Y-93520560D01*
X110830269Y-93367404D01*
X110798767Y-93314137D01*
X110781308Y-93245325D01*
X110798766Y-93185862D01*
X110830269Y-93132596D01*
X110875629Y-92976466D01*
X110878500Y-92939989D01*
X110878500Y-92874000D01*
X111825837Y-92874000D01*
X111871131Y-93029902D01*
X111955436Y-93172453D01*
X111955439Y-93172457D01*
X112072542Y-93289560D01*
X112072546Y-93289563D01*
X112215098Y-93373869D01*
X112374143Y-93420076D01*
X112396000Y-93421795D01*
X112396000Y-92874000D01*
X112904000Y-92874000D01*
X112904000Y-93421794D01*
X112925860Y-93420075D01*
X113084901Y-93373869D01*
X113227453Y-93289563D01*
X113227457Y-93289560D01*
X113344560Y-93172457D01*
X113344563Y-93172453D01*
X113428868Y-93029902D01*
X113474163Y-92874000D01*
X112904000Y-92874000D01*
X112396000Y-92874000D01*
X111825837Y-92874000D01*
X110878500Y-92874000D01*
X110878499Y-92603570D01*
X110898501Y-92535451D01*
X110952156Y-92488958D01*
X111014389Y-92477960D01*
X111015829Y-92478073D01*
X111021253Y-92478500D01*
X111448746Y-92478499D01*
X111448748Y-92478499D01*
X111467341Y-92477036D01*
X111485937Y-92475573D01*
X111645100Y-92429332D01*
X111722520Y-92383545D01*
X111786659Y-92366000D01*
X112115614Y-92366000D01*
X112179753Y-92383547D01*
X112214895Y-92404330D01*
X112214898Y-92404330D01*
X112214900Y-92404332D01*
X112374063Y-92450573D01*
X112411253Y-92453500D01*
X112888746Y-92453499D01*
X112888748Y-92453499D01*
X112907341Y-92452036D01*
X112925937Y-92450573D01*
X113085100Y-92404332D01*
X113085102Y-92404330D01*
X113085104Y-92404330D01*
X113120247Y-92383547D01*
X113184386Y-92366000D01*
X113474163Y-92366000D01*
X113478925Y-92359657D01*
X113535821Y-92317192D01*
X113606644Y-92312228D01*
X113614838Y-92314313D01*
X113614896Y-92314330D01*
X113614900Y-92314332D01*
X113774063Y-92360573D01*
X113811253Y-92363500D01*
X113940759Y-92363499D01*
X114008880Y-92383501D01*
X114029855Y-92400404D01*
X115611442Y-93981991D01*
X115645468Y-94044303D01*
X115640403Y-94115118D01*
X115623216Y-94146594D01*
X115599112Y-94178793D01*
X115599110Y-94178797D01*
X115548011Y-94315795D01*
X115548009Y-94315803D01*
X115541500Y-94376350D01*
X115541500Y-95923649D01*
X115548009Y-95984196D01*
X115548011Y-95984204D01*
X115599110Y-96121202D01*
X115599112Y-96121207D01*
X115686738Y-96238261D01*
X115763544Y-96295757D01*
X115806091Y-96352593D01*
X115811155Y-96423408D01*
X115777130Y-96485721D01*
X115754184Y-96503865D01*
X115721965Y-96523738D01*
X115721960Y-96523742D01*
X115598742Y-96646960D01*
X115598737Y-96646966D01*
X115507248Y-96795292D01*
X115452431Y-96960723D01*
X115452430Y-96960726D01*
X115442000Y-97062815D01*
X115442000Y-97096000D01*
X116615500Y-97096000D01*
X116683621Y-97116002D01*
X116730114Y-97169658D01*
X116741500Y-97222000D01*
X116741500Y-98333000D01*
X116837185Y-98333000D01*
X116837184Y-98332999D01*
X116939273Y-98322569D01*
X116939276Y-98322568D01*
X117104707Y-98267751D01*
X117253033Y-98176262D01*
X117260547Y-98168748D01*
X117322858Y-98134721D01*
X117393674Y-98139783D01*
X117438742Y-98168746D01*
X117446654Y-98176658D01*
X117595080Y-98268209D01*
X117621816Y-98277068D01*
X117643217Y-98284160D01*
X117701588Y-98324574D01*
X117712035Y-98339620D01*
X117720459Y-98353863D01*
X117720462Y-98353867D01*
X117734779Y-98368184D01*
X117747617Y-98383214D01*
X117752196Y-98389516D01*
X117758405Y-98398062D01*
X117759526Y-98399604D01*
X117759530Y-98399609D01*
X117795880Y-98429680D01*
X117800273Y-98433677D01*
X118205257Y-98838662D01*
X118215219Y-98851096D01*
X118215446Y-98850909D01*
X118220500Y-98857018D01*
X118271579Y-98904984D01*
X118292723Y-98926129D01*
X118292727Y-98926132D01*
X118292730Y-98926135D01*
X118298282Y-98930442D01*
X118302769Y-98934273D01*
X118324352Y-98954541D01*
X118337177Y-98966585D01*
X118337179Y-98966586D01*
X118354928Y-98976343D01*
X118371454Y-98987199D01*
X118378393Y-98992582D01*
X118387459Y-98999614D01*
X118429186Y-99017670D01*
X118430762Y-99018352D01*
X118436083Y-99020958D01*
X118477440Y-99043695D01*
X118477448Y-99043697D01*
X118497058Y-99048732D01*
X118515767Y-99055137D01*
X118534355Y-99063181D01*
X118580977Y-99070564D01*
X118586762Y-99071763D01*
X118632470Y-99083500D01*
X118652724Y-99083500D01*
X118672434Y-99085051D01*
X118674641Y-99085400D01*
X118692443Y-99088220D01*
X118726370Y-99085012D01*
X118739417Y-99083780D01*
X118745350Y-99083500D01*
X119455761Y-99083500D01*
X119523882Y-99103502D01*
X119570375Y-99157158D01*
X119575365Y-99169867D01*
X119592883Y-99222734D01*
X119592884Y-99222736D01*
X119592885Y-99222738D01*
X119647355Y-99311047D01*
X119685970Y-99373652D01*
X119685975Y-99373658D01*
X119811341Y-99499024D01*
X119811347Y-99499029D01*
X119811348Y-99499030D01*
X119962262Y-99592115D01*
X120130574Y-99647887D01*
X120234455Y-99658500D01*
X120985544Y-99658499D01*
X121089426Y-99647887D01*
X121257738Y-99592115D01*
X121408652Y-99499030D01*
X121534030Y-99373652D01*
X121534031Y-99373649D01*
X121536162Y-99370956D01*
X121538098Y-99369584D01*
X121539220Y-99368463D01*
X121539411Y-99368654D01*
X121594101Y-99329925D01*
X121665026Y-99326733D01*
X121726418Y-99362392D01*
X121733838Y-99370956D01*
X121735971Y-99373654D01*
X121861341Y-99499024D01*
X121861347Y-99499029D01*
X121861348Y-99499030D01*
X122012262Y-99592115D01*
X122180574Y-99647887D01*
X122284455Y-99658500D01*
X123035544Y-99658499D01*
X123139426Y-99647887D01*
X123307738Y-99592115D01*
X123458652Y-99499030D01*
X123584030Y-99373652D01*
X123677115Y-99222738D01*
X123685000Y-99198942D01*
X123694635Y-99169867D01*
X123735049Y-99111496D01*
X123800605Y-99084240D01*
X123814239Y-99083500D01*
X124176756Y-99083500D01*
X124244877Y-99103502D01*
X124291370Y-99157158D01*
X124301474Y-99227432D01*
X124274591Y-99286293D01*
X124275806Y-99287235D01*
X124270948Y-99293498D01*
X124186318Y-99436598D01*
X124139934Y-99596250D01*
X124137000Y-99633539D01*
X124137000Y-100271000D01*
X129562999Y-100271000D01*
X129562999Y-99633542D01*
X129560065Y-99596249D01*
X129513681Y-99436599D01*
X129429051Y-99293498D01*
X129429050Y-99293496D01*
X129311503Y-99175949D01*
X129308963Y-99173979D01*
X129307480Y-99171926D01*
X129305893Y-99170339D01*
X129306149Y-99170082D01*
X129267395Y-99116425D01*
X129263541Y-99045533D01*
X129298627Y-98983811D01*
X129322048Y-98965963D01*
X129341362Y-98954542D01*
X129355685Y-98940218D01*
X129370724Y-98927374D01*
X129387107Y-98915472D01*
X129417193Y-98879103D01*
X129421161Y-98874741D01*
X129870957Y-98424945D01*
X129933267Y-98390921D01*
X129999682Y-98394437D01*
X130010619Y-98398062D01*
X130112787Y-98408500D01*
X130590500Y-98408499D01*
X130658621Y-98428501D01*
X130705114Y-98482156D01*
X130716500Y-98534499D01*
X130716500Y-98582262D01*
X130697187Y-98649298D01*
X130616958Y-98776981D01*
X130616957Y-98776984D01*
X130559839Y-98940220D01*
X130556783Y-98948953D01*
X130536384Y-99130000D01*
X130556783Y-99311047D01*
X130556783Y-99311049D01*
X130556784Y-99311050D01*
X130616957Y-99483015D01*
X130616958Y-99483018D01*
X130713887Y-99637279D01*
X130713888Y-99637281D01*
X130842718Y-99766111D01*
X130842720Y-99766112D01*
X130996981Y-99863041D01*
X130996982Y-99863041D01*
X130996985Y-99863043D01*
X131168953Y-99923217D01*
X131350000Y-99943616D01*
X131531047Y-99923217D01*
X131703015Y-99863043D01*
X131857281Y-99766111D01*
X131986111Y-99637281D01*
X132083043Y-99483015D01*
X132143217Y-99311047D01*
X132163616Y-99130000D01*
X132143217Y-98948953D01*
X132083043Y-98776985D01*
X132083041Y-98776982D01*
X132083041Y-98776981D01*
X132002813Y-98649298D01*
X131983500Y-98582262D01*
X131983500Y-98534499D01*
X132003502Y-98466378D01*
X132057158Y-98419885D01*
X132109500Y-98408499D01*
X132337212Y-98408499D01*
X132439381Y-98398062D01*
X132604920Y-98343209D01*
X132753346Y-98251658D01*
X132753350Y-98251653D01*
X132759104Y-98247105D01*
X132760839Y-98249300D01*
X132811812Y-98221443D01*
X132882630Y-98226482D01*
X132939481Y-98269009D01*
X132955691Y-98297915D01*
X132992876Y-98391242D01*
X133160922Y-98708210D01*
X133160924Y-98708214D01*
X133324147Y-98948949D01*
X133362258Y-99005159D01*
X133502563Y-99170339D01*
X133594516Y-99278595D01*
X133854962Y-99525304D01*
X133854977Y-99525317D01*
X134140586Y-99742431D01*
X134447995Y-99927393D01*
X134773599Y-100078033D01*
X135113583Y-100192587D01*
X135463958Y-100269711D01*
X135820618Y-100308500D01*
X135820626Y-100308500D01*
X136179374Y-100308500D01*
X136179382Y-100308500D01*
X136536042Y-100269711D01*
X136886417Y-100192587D01*
X137226401Y-100078033D01*
X137552005Y-99927393D01*
X137859414Y-99742431D01*
X138145023Y-99525317D01*
X138189678Y-99483018D01*
X138201384Y-99471928D01*
X138405484Y-99278595D01*
X138637742Y-99005159D01*
X138694211Y-98921872D01*
X138748995Y-98876715D01*
X138819496Y-98868344D01*
X138883331Y-98899417D01*
X138920233Y-98960070D01*
X138924500Y-98992582D01*
X138924500Y-102048500D01*
X138904498Y-102116621D01*
X138850842Y-102163114D01*
X138798500Y-102174500D01*
X129264051Y-102174500D01*
X129195930Y-102154498D01*
X129149437Y-102100842D01*
X129139333Y-102030568D01*
X129168827Y-101965988D01*
X129199912Y-101940047D01*
X129311496Y-101874056D01*
X129311503Y-101874050D01*
X129429050Y-101756503D01*
X129429051Y-101756501D01*
X129513681Y-101613401D01*
X129560065Y-101453749D01*
X129563000Y-101416461D01*
X129563000Y-100779000D01*
X124137001Y-100779000D01*
X124137001Y-101416458D01*
X124139934Y-101453750D01*
X124186318Y-101613400D01*
X124270948Y-101756501D01*
X124270949Y-101756503D01*
X124388496Y-101874050D01*
X124388503Y-101874056D01*
X124500088Y-101940047D01*
X124548541Y-101991939D01*
X124561246Y-102061790D01*
X124534171Y-102127421D01*
X124475910Y-102167995D01*
X124435949Y-102174500D01*
X100201500Y-102174500D01*
X100133379Y-102154498D01*
X100086886Y-102100842D01*
X100075500Y-102048500D01*
X100075500Y-100404000D01*
X106442000Y-100404000D01*
X106442000Y-100698597D01*
X106448505Y-100759093D01*
X106499555Y-100895964D01*
X106499555Y-100895965D01*
X106587095Y-101012904D01*
X106704034Y-101100444D01*
X106840906Y-101151494D01*
X106901402Y-101157999D01*
X106901415Y-101158000D01*
X107196000Y-101158000D01*
X107196000Y-100404000D01*
X107704000Y-100404000D01*
X107704000Y-101158000D01*
X107998585Y-101158000D01*
X107998597Y-101157999D01*
X108059093Y-101151494D01*
X108195964Y-101100444D01*
X108195965Y-101100444D01*
X108312904Y-101012904D01*
X108400444Y-100895965D01*
X108400444Y-100895964D01*
X108451494Y-100759093D01*
X108457999Y-100698597D01*
X108458000Y-100698585D01*
X108458000Y-100404000D01*
X109242000Y-100404000D01*
X109242000Y-100698597D01*
X109248505Y-100759093D01*
X109299555Y-100895964D01*
X109299555Y-100895965D01*
X109387095Y-101012904D01*
X109504034Y-101100444D01*
X109640906Y-101151494D01*
X109701402Y-101157999D01*
X109701415Y-101158000D01*
X109996000Y-101158000D01*
X109996000Y-100404000D01*
X110504000Y-100404000D01*
X110504000Y-101158000D01*
X110798585Y-101158000D01*
X110798597Y-101157999D01*
X110859093Y-101151494D01*
X110995964Y-101100444D01*
X110995965Y-101100444D01*
X111112904Y-101012904D01*
X111200444Y-100895965D01*
X111200444Y-100895964D01*
X111251494Y-100759093D01*
X111257999Y-100698597D01*
X111258000Y-100698585D01*
X111258000Y-100404000D01*
X110504000Y-100404000D01*
X109996000Y-100404000D01*
X109242000Y-100404000D01*
X108458000Y-100404000D01*
X107704000Y-100404000D01*
X107196000Y-100404000D01*
X106442000Y-100404000D01*
X100075500Y-100404000D01*
X100075500Y-98992582D01*
X100095502Y-98924461D01*
X100149158Y-98877968D01*
X100219432Y-98867864D01*
X100284012Y-98897358D01*
X100305787Y-98921871D01*
X100362258Y-99005159D01*
X100502563Y-99170339D01*
X100594516Y-99278595D01*
X100854962Y-99525304D01*
X100854977Y-99525317D01*
X101140586Y-99742431D01*
X101447995Y-99927393D01*
X101773599Y-100078033D01*
X102113583Y-100192587D01*
X102463958Y-100269711D01*
X102820618Y-100308500D01*
X102820626Y-100308500D01*
X103179374Y-100308500D01*
X103179382Y-100308500D01*
X103536042Y-100269711D01*
X103886417Y-100192587D01*
X104226401Y-100078033D01*
X104552005Y-99927393D01*
X104604181Y-99896000D01*
X106442000Y-99896000D01*
X107196000Y-99896000D01*
X107196000Y-99142000D01*
X106901402Y-99142000D01*
X106840906Y-99148505D01*
X106704035Y-99199555D01*
X106704034Y-99199555D01*
X106587095Y-99287095D01*
X106499555Y-99404034D01*
X106499555Y-99404035D01*
X106448505Y-99540906D01*
X106442000Y-99601402D01*
X106442000Y-99896000D01*
X104604181Y-99896000D01*
X104859414Y-99742431D01*
X105145023Y-99525317D01*
X105189678Y-99483018D01*
X105201384Y-99471928D01*
X105405484Y-99278595D01*
X105637742Y-99005159D01*
X105839075Y-98708215D01*
X106007123Y-98391243D01*
X106139915Y-98057961D01*
X106194593Y-97861028D01*
X106232090Y-97800743D01*
X106296228Y-97770299D01*
X106366643Y-97779364D01*
X106420980Y-97825059D01*
X106441986Y-97892877D01*
X106442000Y-97894738D01*
X106442000Y-97898597D01*
X106448505Y-97959093D01*
X106499555Y-98095964D01*
X106499555Y-98095965D01*
X106587095Y-98212904D01*
X106704034Y-98300444D01*
X106840906Y-98351494D01*
X106901402Y-98357999D01*
X106901415Y-98358000D01*
X107196000Y-98358000D01*
X107196000Y-96342000D01*
X106901402Y-96342000D01*
X106840906Y-96348505D01*
X106704035Y-96399555D01*
X106704034Y-96399555D01*
X106587097Y-96487094D01*
X106503137Y-96599251D01*
X106446301Y-96641797D01*
X106375485Y-96646861D01*
X106313173Y-96612836D01*
X106279148Y-96550523D01*
X106277929Y-96544125D01*
X106274587Y-96523742D01*
X106259875Y-96433999D01*
X106235896Y-96287730D01*
X106218883Y-96226456D01*
X106139915Y-95942039D01*
X106007123Y-95608757D01*
X105839075Y-95291785D01*
X105637742Y-94994841D01*
X105405484Y-94721405D01*
X105346598Y-94665625D01*
X105145037Y-94474695D01*
X105145022Y-94474682D01*
X104859418Y-94257572D01*
X104859412Y-94257568D01*
X104850563Y-94252244D01*
X104552005Y-94072607D01*
X104226401Y-93921967D01*
X104063585Y-93867108D01*
X103886426Y-93807416D01*
X103886425Y-93807415D01*
X103886417Y-93807413D01*
X103784595Y-93785000D01*
X103536054Y-93730291D01*
X103536030Y-93730287D01*
X103179389Y-93691500D01*
X103179382Y-93691500D01*
X102909499Y-93691500D01*
X102841378Y-93671498D01*
X102794885Y-93617842D01*
X102783499Y-93565500D01*
X102783499Y-92949455D01*
X102772887Y-92845574D01*
X102759464Y-92805065D01*
X102717115Y-92677262D01*
X102624030Y-92526348D01*
X102624029Y-92526347D01*
X102624024Y-92526341D01*
X102498658Y-92400975D01*
X102498652Y-92400970D01*
X102483299Y-92391500D01*
X102347738Y-92307885D01*
X102263582Y-92279999D01*
X102179427Y-92252113D01*
X102179420Y-92252112D01*
X102075553Y-92241500D01*
X100674455Y-92241500D01*
X100570574Y-92252112D01*
X100402261Y-92307885D01*
X100339281Y-92346732D01*
X100267645Y-92390917D01*
X100199168Y-92409654D01*
X100131429Y-92388395D01*
X100085937Y-92333888D01*
X100075500Y-92283676D01*
X100075500Y-88816323D01*
X100095502Y-88748202D01*
X100149158Y-88701709D01*
X100219432Y-88691605D01*
X100267645Y-88709082D01*
X100402259Y-88792113D01*
X100402262Y-88792115D01*
X100570574Y-88847887D01*
X100674455Y-88858500D01*
X102075544Y-88858499D01*
X102179426Y-88847887D01*
X102347738Y-88792115D01*
X102498652Y-88699030D01*
X102624030Y-88573652D01*
X102717115Y-88422738D01*
X102772887Y-88254426D01*
X102783500Y-88150545D01*
X102783499Y-87434499D01*
X102803501Y-87366379D01*
X102857157Y-87319886D01*
X102909499Y-87308500D01*
X103179374Y-87308500D01*
X103179382Y-87308500D01*
X103536042Y-87269711D01*
X103886417Y-87192587D01*
X104226401Y-87078033D01*
X104552005Y-86927393D01*
X104859414Y-86742431D01*
X105145023Y-86525317D01*
X105405484Y-86278595D01*
X105637742Y-86005159D01*
X105839075Y-85708215D01*
X105853883Y-85680283D01*
X105903461Y-85629467D01*
X105972643Y-85613521D01*
X106039465Y-85637509D01*
G37*
%TD.AperFunction*%
%TA.AperFunction,Conductor*%
G36*
X119315122Y-93449591D02*
G01*
X119371958Y-93492138D01*
X119390019Y-93526031D01*
X119416958Y-93603018D01*
X119513887Y-93757279D01*
X119513888Y-93757281D01*
X119642718Y-93886111D01*
X119642720Y-93886112D01*
X119796981Y-93983041D01*
X119796982Y-93983041D01*
X119796985Y-93983043D01*
X119968953Y-94043217D01*
X120150000Y-94063616D01*
X120331047Y-94043217D01*
X120503015Y-93983043D01*
X120619087Y-93910109D01*
X120687408Y-93890804D01*
X120755321Y-93911499D01*
X120801264Y-93965626D01*
X120804178Y-93972763D01*
X120824111Y-94026204D01*
X120824112Y-94026207D01*
X120911738Y-94143261D01*
X121028792Y-94230887D01*
X121028794Y-94230888D01*
X121028796Y-94230889D01*
X121080007Y-94249990D01*
X121165795Y-94281988D01*
X121165803Y-94281990D01*
X121226350Y-94288499D01*
X121226355Y-94288499D01*
X121226362Y-94288500D01*
X121226368Y-94288500D01*
X121973632Y-94288500D01*
X121973638Y-94288500D01*
X122034201Y-94281989D01*
X122034204Y-94281987D01*
X122041878Y-94280175D01*
X122042349Y-94282169D01*
X122102475Y-94277857D01*
X122110563Y-94280232D01*
X122115906Y-94281494D01*
X122176402Y-94287999D01*
X122176415Y-94288000D01*
X122296000Y-94288000D01*
X122296000Y-94174859D01*
X122316002Y-94106738D01*
X122321132Y-94099350D01*
X122375889Y-94026204D01*
X122426989Y-93889201D01*
X122426989Y-93889195D01*
X122427378Y-93887556D01*
X122428030Y-93886410D01*
X122429744Y-93881816D01*
X122430488Y-93882093D01*
X122462512Y-93825862D01*
X122525422Y-93792956D01*
X122596136Y-93799286D01*
X122652202Y-93842842D01*
X122670037Y-93881897D01*
X122670256Y-93881816D01*
X122671393Y-93884866D01*
X122672622Y-93887556D01*
X122673011Y-93889202D01*
X122724109Y-94026201D01*
X122724110Y-94026202D01*
X122724111Y-94026204D01*
X122778868Y-94099350D01*
X122803679Y-94165870D01*
X122804000Y-94174859D01*
X122804000Y-94288000D01*
X122923585Y-94288000D01*
X122923597Y-94287999D01*
X122984094Y-94281494D01*
X122991770Y-94279681D01*
X122992333Y-94282065D01*
X123051059Y-94277862D01*
X123062309Y-94281164D01*
X123065798Y-94281989D01*
X123126350Y-94288499D01*
X123126355Y-94288499D01*
X123126362Y-94288500D01*
X123126368Y-94288500D01*
X123873632Y-94288500D01*
X123873638Y-94288500D01*
X123873645Y-94288499D01*
X123873649Y-94288499D01*
X123934196Y-94281990D01*
X123934199Y-94281989D01*
X123934201Y-94281989D01*
X123939065Y-94280175D01*
X124078290Y-94228246D01*
X124149105Y-94223180D01*
X124211418Y-94257205D01*
X124245443Y-94319517D01*
X124240379Y-94390333D01*
X124230777Y-94410440D01*
X124185855Y-94486397D01*
X124139437Y-94646170D01*
X124136500Y-94683494D01*
X124136500Y-94861136D01*
X124116498Y-94929257D01*
X124062842Y-94975750D01*
X123992568Y-94985854D01*
X123946361Y-94969590D01*
X123879598Y-94930106D01*
X123722252Y-94884393D01*
X123685488Y-94881500D01*
X123685484Y-94881500D01*
X123214516Y-94881500D01*
X123214512Y-94881500D01*
X123177747Y-94884393D01*
X123044516Y-94923100D01*
X123023326Y-94929257D01*
X123020400Y-94930107D01*
X122879369Y-95013513D01*
X122879365Y-95013516D01*
X122763516Y-95129365D01*
X122763513Y-95129369D01*
X122680107Y-95270400D01*
X122634393Y-95427747D01*
X122631500Y-95464512D01*
X122631500Y-95875488D01*
X122634393Y-95912252D01*
X122634394Y-95912255D01*
X122659213Y-95997684D01*
X122659010Y-96068680D01*
X122620455Y-96128296D01*
X122555790Y-96157604D01*
X122524109Y-96158044D01*
X122512926Y-96156784D01*
X122465000Y-96151384D01*
X122283953Y-96171783D01*
X122283950Y-96171783D01*
X122283949Y-96171784D01*
X122111984Y-96231957D01*
X122111981Y-96231958D01*
X121957720Y-96328887D01*
X121954089Y-96332518D01*
X121891775Y-96366539D01*
X121820960Y-96361470D01*
X121775904Y-96332512D01*
X121757281Y-96313889D01*
X121757280Y-96313888D01*
X121757277Y-96313885D01*
X121603018Y-96216958D01*
X121603015Y-96216957D01*
X121431050Y-96156784D01*
X121431049Y-96156783D01*
X121431047Y-96156783D01*
X121250000Y-96136384D01*
X121068953Y-96156783D01*
X121068950Y-96156783D01*
X121068949Y-96156784D01*
X120896984Y-96216957D01*
X120896981Y-96216958D01*
X120742720Y-96313887D01*
X120742718Y-96313888D01*
X120613888Y-96442718D01*
X120613887Y-96442720D01*
X120516958Y-96596981D01*
X120516957Y-96596984D01*
X120466597Y-96740907D01*
X120456783Y-96768953D01*
X120436384Y-96950000D01*
X120452774Y-97095470D01*
X120453442Y-97101393D01*
X120441193Y-97171324D01*
X120393080Y-97223533D01*
X120328235Y-97241500D01*
X120234456Y-97241500D01*
X120130574Y-97252112D01*
X119962261Y-97307885D01*
X119811347Y-97400970D01*
X119811341Y-97400975D01*
X119685975Y-97526341D01*
X119685970Y-97526347D01*
X119592883Y-97677265D01*
X119575365Y-97730133D01*
X119534951Y-97788504D01*
X119469395Y-97815760D01*
X119455761Y-97816500D01*
X119379712Y-97816500D01*
X119311591Y-97796498D01*
X119265098Y-97742842D01*
X119254365Y-97677693D01*
X119258499Y-97637221D01*
X119258500Y-97637213D01*
X119258499Y-97062788D01*
X119258123Y-97059112D01*
X119248062Y-96960619D01*
X119235831Y-96923708D01*
X119193209Y-96795080D01*
X119101658Y-96646654D01*
X119101657Y-96646653D01*
X119101652Y-96646647D01*
X118978346Y-96523341D01*
X118918352Y-96486336D01*
X118870875Y-96433550D01*
X118858500Y-96379096D01*
X118858500Y-96219765D01*
X118878502Y-96151644D01*
X118883624Y-96144266D01*
X118900889Y-96121204D01*
X118951989Y-95984201D01*
X118955202Y-95954321D01*
X118958499Y-95923649D01*
X118958500Y-95923632D01*
X118958500Y-94376367D01*
X118958499Y-94376350D01*
X118951990Y-94315803D01*
X118951988Y-94315795D01*
X118919333Y-94228246D01*
X118900889Y-94178796D01*
X118900887Y-94178793D01*
X118900887Y-94178792D01*
X118813261Y-94061738D01*
X118807028Y-94057073D01*
X118764479Y-94000239D01*
X118759413Y-93929423D01*
X118793433Y-93867114D01*
X119181997Y-93478550D01*
X119244307Y-93444526D01*
X119315122Y-93449591D01*
G37*
%TD.AperFunction*%
%TA.AperFunction,Conductor*%
G36*
X132173621Y-84228502D02*
G01*
X132220114Y-84282158D01*
X132231500Y-84334500D01*
X132231500Y-86107999D01*
X132556458Y-86107999D01*
X132593750Y-86105065D01*
X132753400Y-86058681D01*
X132896501Y-85974051D01*
X132896503Y-85974050D01*
X133014050Y-85856503D01*
X133014053Y-85856499D01*
X133028129Y-85832699D01*
X133080021Y-85784246D01*
X133149872Y-85771540D01*
X133215503Y-85798615D01*
X133240869Y-85826124D01*
X133362258Y-86005159D01*
X133554023Y-86230923D01*
X133594516Y-86278595D01*
X133854962Y-86525304D01*
X133854977Y-86525317D01*
X134140586Y-86742431D01*
X134447995Y-86927393D01*
X134773599Y-87078033D01*
X135113583Y-87192587D01*
X135463958Y-87269711D01*
X135820618Y-87308500D01*
X135820626Y-87308500D01*
X136090500Y-87308500D01*
X136158621Y-87328502D01*
X136205114Y-87382158D01*
X136216500Y-87434500D01*
X136216500Y-88100544D01*
X136227112Y-88204425D01*
X136282885Y-88372738D01*
X136375970Y-88523652D01*
X136375975Y-88523658D01*
X136501341Y-88649024D01*
X136501347Y-88649029D01*
X136501348Y-88649030D01*
X136652262Y-88742115D01*
X136820574Y-88797887D01*
X136924455Y-88808500D01*
X138325544Y-88808499D01*
X138429426Y-88797887D01*
X138597738Y-88742115D01*
X138732354Y-88659082D01*
X138800832Y-88640345D01*
X138868571Y-88661604D01*
X138914063Y-88716111D01*
X138924500Y-88766323D01*
X138924500Y-92233676D01*
X138904498Y-92301797D01*
X138850842Y-92348290D01*
X138780568Y-92358394D01*
X138732354Y-92340917D01*
X138597738Y-92257885D01*
X138513582Y-92229999D01*
X138429427Y-92202113D01*
X138429420Y-92202112D01*
X138325553Y-92191500D01*
X136924455Y-92191500D01*
X136820574Y-92202112D01*
X136652261Y-92257885D01*
X136501347Y-92350970D01*
X136501341Y-92350975D01*
X136375975Y-92476341D01*
X136375970Y-92476347D01*
X136282885Y-92627262D01*
X136227113Y-92795572D01*
X136227112Y-92795579D01*
X136216500Y-92899446D01*
X136216500Y-93565500D01*
X136196498Y-93633621D01*
X136142842Y-93680114D01*
X136090500Y-93691500D01*
X135820610Y-93691500D01*
X135463969Y-93730287D01*
X135463945Y-93730291D01*
X135113587Y-93807412D01*
X135113573Y-93807416D01*
X134773601Y-93921966D01*
X134773599Y-93921967D01*
X134448320Y-94072457D01*
X134447989Y-94072610D01*
X134140587Y-94257568D01*
X134140581Y-94257572D01*
X133854977Y-94474682D01*
X133854962Y-94474695D01*
X133594516Y-94721404D01*
X133362259Y-94994839D01*
X133289168Y-95102641D01*
X133238688Y-95177094D01*
X133235427Y-95181903D01*
X133180643Y-95227061D01*
X133110141Y-95235431D01*
X133046306Y-95204357D01*
X133011533Y-95150826D01*
X133011030Y-95149310D01*
X132968209Y-95020080D01*
X132876658Y-94871654D01*
X132876657Y-94871653D01*
X132876652Y-94871647D01*
X132786552Y-94781547D01*
X132752526Y-94719235D01*
X132757591Y-94648420D01*
X132768958Y-94625420D01*
X132783043Y-94603005D01*
X132843217Y-94431037D01*
X132863616Y-94249990D01*
X132843217Y-94068943D01*
X132783043Y-93896975D01*
X132783041Y-93896972D01*
X132783041Y-93896971D01*
X132686112Y-93742710D01*
X132686111Y-93742708D01*
X132557281Y-93613878D01*
X132557279Y-93613877D01*
X132403017Y-93516948D01*
X132403016Y-93516947D01*
X132403015Y-93516947D01*
X132358010Y-93501199D01*
X132327072Y-93490373D01*
X132269381Y-93448994D01*
X132243218Y-93382994D01*
X132256892Y-93313326D01*
X132261986Y-93304433D01*
X132323188Y-93207031D01*
X132383362Y-93035063D01*
X132403761Y-92854016D01*
X132383362Y-92672969D01*
X132383358Y-92672960D01*
X132381787Y-92666070D01*
X132384880Y-92665363D01*
X132382023Y-92608402D01*
X132417366Y-92546828D01*
X132480388Y-92514136D01*
X132551080Y-92520706D01*
X132593572Y-92552659D01*
X132595339Y-92550893D01*
X132718496Y-92674050D01*
X132718498Y-92674051D01*
X132861598Y-92758681D01*
X133021251Y-92805065D01*
X133021249Y-92805065D01*
X133058539Y-92808000D01*
X133058540Y-92808000D01*
X133496000Y-92807999D01*
X133496000Y-92254000D01*
X132470007Y-92254000D01*
X132478715Y-92283974D01*
X132478512Y-92354970D01*
X132439958Y-92414587D01*
X132375294Y-92443895D01*
X132305049Y-92433591D01*
X132251526Y-92386945D01*
X132251030Y-92386163D01*
X132249386Y-92383547D01*
X132226256Y-92346735D01*
X132226255Y-92346734D01*
X132226254Y-92346732D01*
X132159866Y-92280344D01*
X132125840Y-92218032D01*
X132130905Y-92147217D01*
X132159866Y-92102153D01*
X132218803Y-92043217D01*
X132379862Y-91882158D01*
X132479117Y-91782904D01*
X132541429Y-91748879D01*
X132568212Y-91746000D01*
X132804929Y-91746000D01*
X132854965Y-91756361D01*
X132861395Y-91759143D01*
X132861396Y-91759143D01*
X132861399Y-91759145D01*
X133021169Y-91805562D01*
X133028634Y-91806149D01*
X133058494Y-91808500D01*
X133878000Y-91808500D01*
X133946121Y-91828502D01*
X133992614Y-91882158D01*
X134004000Y-91934500D01*
X134004000Y-92807999D01*
X134441458Y-92807999D01*
X134478750Y-92805065D01*
X134638400Y-92758681D01*
X134781501Y-92674051D01*
X134781503Y-92674050D01*
X134899050Y-92556503D01*
X134899051Y-92556501D01*
X134983681Y-92413401D01*
X135030065Y-92253749D01*
X135033000Y-92216461D01*
X135032999Y-92138235D01*
X135053000Y-92070114D01*
X135106655Y-92023620D01*
X135176929Y-92013515D01*
X135200611Y-92019303D01*
X135268953Y-92043217D01*
X135450000Y-92063616D01*
X135631047Y-92043217D01*
X135803015Y-91983043D01*
X135957281Y-91886111D01*
X136086111Y-91757281D01*
X136183043Y-91603015D01*
X136243217Y-91431047D01*
X136263616Y-91250000D01*
X136243217Y-91068953D01*
X136183043Y-90896985D01*
X136183041Y-90896982D01*
X136183041Y-90896981D01*
X136086112Y-90742720D01*
X136086111Y-90742718D01*
X136032488Y-90689095D01*
X135998462Y-90626783D01*
X136003527Y-90555968D01*
X136032488Y-90510905D01*
X136086111Y-90457281D01*
X136086112Y-90457279D01*
X136092158Y-90447658D01*
X136183043Y-90303015D01*
X136243217Y-90131047D01*
X136263616Y-89950000D01*
X136243217Y-89768953D01*
X136183043Y-89596985D01*
X136183041Y-89596982D01*
X136183041Y-89596981D01*
X136086112Y-89442720D01*
X136086111Y-89442718D01*
X135957281Y-89313888D01*
X135957279Y-89313887D01*
X135803018Y-89216958D01*
X135803015Y-89216957D01*
X135631050Y-89156784D01*
X135631049Y-89156783D01*
X135631047Y-89156783D01*
X135450000Y-89136384D01*
X135268952Y-89156783D01*
X135249382Y-89163631D01*
X135201113Y-89180521D01*
X135130210Y-89184139D01*
X135068605Y-89148850D01*
X135035859Y-89085856D01*
X135033500Y-89061591D01*
X135033500Y-88783494D01*
X135030562Y-88746170D01*
X135030562Y-88746169D01*
X134984145Y-88586399D01*
X134984143Y-88586397D01*
X134984143Y-88586394D01*
X134899455Y-88443196D01*
X134899450Y-88443189D01*
X134781810Y-88325549D01*
X134781803Y-88325544D01*
X134638605Y-88240856D01*
X134478829Y-88194437D01*
X134441506Y-88191500D01*
X134441502Y-88191500D01*
X133058498Y-88191500D01*
X133058494Y-88191500D01*
X133021170Y-88194437D01*
X132861394Y-88240856D01*
X132773139Y-88293051D01*
X132704323Y-88310511D01*
X132636992Y-88287994D01*
X132592522Y-88232650D01*
X132589030Y-88215029D01*
X132583001Y-88209000D01*
X132204959Y-88209000D01*
X132188132Y-88207103D01*
X132188079Y-88207575D01*
X132000000Y-88186384D01*
X131811921Y-88207575D01*
X131811867Y-88207103D01*
X131795041Y-88209000D01*
X131409500Y-88209000D01*
X131341379Y-88188998D01*
X131294886Y-88135342D01*
X131283500Y-88083000D01*
X131283500Y-86972000D01*
X131791500Y-86972000D01*
X131791500Y-87701000D01*
X132583000Y-87701000D01*
X132583000Y-87667815D01*
X132572569Y-87565726D01*
X132572568Y-87565723D01*
X132517751Y-87400292D01*
X132426262Y-87251966D01*
X132426257Y-87251960D01*
X132303039Y-87128742D01*
X132303033Y-87128737D01*
X132154707Y-87037248D01*
X131989276Y-86982431D01*
X131989273Y-86982430D01*
X131887184Y-86972000D01*
X131791500Y-86972000D01*
X131283500Y-86972000D01*
X131187815Y-86972000D01*
X131085726Y-86982430D01*
X131085723Y-86982431D01*
X130920292Y-87037248D01*
X130771966Y-87128737D01*
X130764445Y-87136258D01*
X130702131Y-87170281D01*
X130631316Y-87165213D01*
X130586256Y-87136252D01*
X130578346Y-87128342D01*
X130429920Y-87036791D01*
X130429918Y-87036790D01*
X130429916Y-87036789D01*
X130422360Y-87034285D01*
X130363991Y-86993868D01*
X130336739Y-86928310D01*
X130336000Y-86914683D01*
X130336000Y-86195177D01*
X130356002Y-86127056D01*
X130409658Y-86080563D01*
X130426843Y-86074181D01*
X130478601Y-86059145D01*
X130621807Y-85974453D01*
X130739453Y-85856807D01*
X130739456Y-85856800D01*
X130740759Y-85855123D01*
X130742123Y-85854137D01*
X130745059Y-85851202D01*
X130745532Y-85851675D01*
X130798315Y-85813556D01*
X130869207Y-85809705D01*
X130930927Y-85844793D01*
X130939881Y-85855126D01*
X130940949Y-85856503D01*
X131058496Y-85974050D01*
X131058498Y-85974051D01*
X131201598Y-86058681D01*
X131361251Y-86105065D01*
X131361249Y-86105065D01*
X131398539Y-86108000D01*
X131723500Y-86107999D01*
X131723500Y-84334500D01*
X131743502Y-84266379D01*
X131797158Y-84219886D01*
X131849500Y-84208500D01*
X132105500Y-84208500D01*
X132173621Y-84228502D01*
G37*
%TD.AperFunction*%
%TA.AperFunction,Conductor*%
G36*
X125869299Y-90602813D02*
G01*
X125940939Y-90647827D01*
X125996985Y-90683043D01*
X126168953Y-90743217D01*
X126350000Y-90763616D01*
X126390536Y-90759048D01*
X126460466Y-90771297D01*
X126512675Y-90819409D01*
X126524034Y-90848198D01*
X126524949Y-90847895D01*
X126527112Y-90854425D01*
X126527113Y-90854426D01*
X126572494Y-90991379D01*
X126582885Y-91022738D01*
X126675970Y-91173652D01*
X126675975Y-91173658D01*
X126801341Y-91299024D01*
X126801347Y-91299029D01*
X126801348Y-91299030D01*
X126952262Y-91392115D01*
X127120574Y-91447887D01*
X127224455Y-91458500D01*
X127850544Y-91458499D01*
X127954426Y-91447887D01*
X128122738Y-91392115D01*
X128273652Y-91299030D01*
X128306180Y-91266502D01*
X128360905Y-91211778D01*
X128423217Y-91177752D01*
X128494032Y-91182817D01*
X128539095Y-91211778D01*
X128626341Y-91299024D01*
X128626347Y-91299029D01*
X128626348Y-91299030D01*
X128777262Y-91392115D01*
X128945574Y-91447887D01*
X129049455Y-91458500D01*
X129465510Y-91458499D01*
X129533630Y-91478501D01*
X129580124Y-91532156D01*
X129591510Y-91584499D01*
X129591510Y-92240500D01*
X129571508Y-92308621D01*
X129517852Y-92355114D01*
X129465510Y-92366500D01*
X127583853Y-92366500D01*
X127568011Y-92364750D01*
X127567984Y-92365044D01*
X127560092Y-92364298D01*
X127560091Y-92364298D01*
X127490042Y-92366500D01*
X124459500Y-92366500D01*
X124391379Y-92346498D01*
X124344886Y-92292842D01*
X124333500Y-92240500D01*
X124333500Y-92171367D01*
X124333499Y-92171350D01*
X124326990Y-92110803D01*
X124326988Y-92110795D01*
X124292863Y-92019304D01*
X124275889Y-91973796D01*
X124275888Y-91973794D01*
X124275887Y-91973792D01*
X124188261Y-91856738D01*
X124071208Y-91769113D01*
X124071205Y-91769112D01*
X124071204Y-91769111D01*
X124068370Y-91768054D01*
X124065951Y-91766243D01*
X124063299Y-91764795D01*
X124063507Y-91764413D01*
X124011538Y-91725509D01*
X123986727Y-91658989D01*
X124001819Y-91589614D01*
X124052021Y-91539412D01*
X124068362Y-91531949D01*
X124071204Y-91530889D01*
X124188261Y-91443261D01*
X124243189Y-91369886D01*
X124275887Y-91326207D01*
X124275887Y-91326206D01*
X124275889Y-91326204D01*
X124326989Y-91189201D01*
X124327676Y-91182817D01*
X124333499Y-91128649D01*
X124333500Y-91128632D01*
X124333500Y-91059500D01*
X124353502Y-90991379D01*
X124407158Y-90944886D01*
X124459500Y-90933500D01*
X125016147Y-90933500D01*
X125031988Y-90935249D01*
X125032016Y-90934956D01*
X125039902Y-90935700D01*
X125039909Y-90935702D01*
X125109958Y-90933500D01*
X125139856Y-90933500D01*
X125146818Y-90932619D01*
X125152719Y-90932154D01*
X125199889Y-90930673D01*
X125219347Y-90925019D01*
X125238694Y-90921013D01*
X125258797Y-90918474D01*
X125302679Y-90901099D01*
X125308274Y-90899183D01*
X125336816Y-90890891D01*
X125353591Y-90886019D01*
X125353595Y-90886017D01*
X125371026Y-90875708D01*
X125388780Y-90867009D01*
X125407617Y-90859552D01*
X125445786Y-90831818D01*
X125450744Y-90828562D01*
X125491362Y-90804542D01*
X125505685Y-90790218D01*
X125520724Y-90777374D01*
X125529089Y-90771297D01*
X125537107Y-90765472D01*
X125567187Y-90729110D01*
X125571166Y-90724737D01*
X125675501Y-90620404D01*
X125737814Y-90586379D01*
X125764596Y-90583500D01*
X125802263Y-90583500D01*
X125869299Y-90602813D01*
G37*
%TD.AperFunction*%
%TA.AperFunction,Conductor*%
G36*
X116317967Y-86904752D02*
G01*
X116318787Y-86901933D01*
X116326397Y-86904143D01*
X116326399Y-86904145D01*
X116486169Y-86950562D01*
X116489317Y-86950809D01*
X116500129Y-86951661D01*
X116566469Y-86976947D01*
X116608608Y-87034086D01*
X116613166Y-87104936D01*
X116579336Y-87166367D01*
X116498737Y-87246966D01*
X116407248Y-87395292D01*
X116352431Y-87560723D01*
X116352430Y-87560726D01*
X116342000Y-87662815D01*
X116342000Y-87696000D01*
X117515500Y-87696000D01*
X117583621Y-87716002D01*
X117630114Y-87769658D01*
X117641500Y-87822000D01*
X117641500Y-88933000D01*
X117737185Y-88933000D01*
X117737184Y-88932999D01*
X117839273Y-88922569D01*
X117839276Y-88922568D01*
X118004707Y-88867751D01*
X118153033Y-88776262D01*
X118160547Y-88768748D01*
X118222858Y-88734721D01*
X118293674Y-88739783D01*
X118338742Y-88768746D01*
X118346654Y-88776658D01*
X118495080Y-88868209D01*
X118660619Y-88923062D01*
X118762787Y-88933500D01*
X119462212Y-88933499D01*
X119564381Y-88923062D01*
X119729920Y-88868209D01*
X119878346Y-88776658D01*
X120001658Y-88653346D01*
X120069504Y-88543350D01*
X120122288Y-88495875D01*
X120176743Y-88483500D01*
X120702263Y-88483500D01*
X120769299Y-88502813D01*
X120842333Y-88548703D01*
X120896985Y-88583043D01*
X121068953Y-88643217D01*
X121250000Y-88663616D01*
X121431047Y-88643217D01*
X121603015Y-88583043D01*
X121657667Y-88548703D01*
X121763273Y-88482347D01*
X121764384Y-88484115D01*
X121820676Y-88461123D01*
X121890482Y-88474073D01*
X121942205Y-88522706D01*
X121959424Y-88591583D01*
X121955571Y-88617796D01*
X121951269Y-88634554D01*
X121944864Y-88653262D01*
X121936819Y-88671852D01*
X121929437Y-88718456D01*
X121928233Y-88724268D01*
X121916500Y-88769968D01*
X121916500Y-88790223D01*
X121914949Y-88809933D01*
X121911780Y-88829942D01*
X121911780Y-88829943D01*
X121915140Y-88865492D01*
X121915911Y-88873642D01*
X121902408Y-88943343D01*
X121853367Y-88994679D01*
X121790470Y-89011500D01*
X121226350Y-89011500D01*
X121165803Y-89018009D01*
X121165795Y-89018011D01*
X121028797Y-89069110D01*
X121028792Y-89069112D01*
X120911738Y-89156738D01*
X120824112Y-89273792D01*
X120824110Y-89273797D01*
X120773011Y-89410795D01*
X120773009Y-89410803D01*
X120766500Y-89471350D01*
X120766500Y-90120759D01*
X120746498Y-90188880D01*
X120729595Y-90209855D01*
X120543924Y-90395525D01*
X120481612Y-90429550D01*
X120410796Y-90424485D01*
X120353961Y-90381938D01*
X120335903Y-90348053D01*
X120283043Y-90196985D01*
X120283040Y-90196981D01*
X120283040Y-90196979D01*
X120186112Y-90042720D01*
X120186111Y-90042718D01*
X120057281Y-89913888D01*
X120057279Y-89913887D01*
X119903018Y-89816958D01*
X119903015Y-89816957D01*
X119731050Y-89756784D01*
X119731049Y-89756783D01*
X119731047Y-89756783D01*
X119550000Y-89736384D01*
X119368953Y-89756783D01*
X119368950Y-89756783D01*
X119368949Y-89756784D01*
X119196984Y-89816957D01*
X119196983Y-89816957D01*
X119099653Y-89878113D01*
X119031332Y-89897418D01*
X118963419Y-89876722D01*
X118917476Y-89822594D01*
X118914573Y-89815484D01*
X118900889Y-89778796D01*
X118900887Y-89778794D01*
X118900887Y-89778792D01*
X118813261Y-89661738D01*
X118696207Y-89574112D01*
X118696202Y-89574110D01*
X118559204Y-89523011D01*
X118559196Y-89523009D01*
X118498649Y-89516500D01*
X118498638Y-89516500D01*
X117951362Y-89516500D01*
X117951357Y-89516500D01*
X117951345Y-89516501D01*
X117913466Y-89520573D01*
X117886534Y-89520573D01*
X117848654Y-89516501D01*
X117848642Y-89516500D01*
X117848638Y-89516500D01*
X117301362Y-89516500D01*
X117301357Y-89516500D01*
X117301345Y-89516501D01*
X117263466Y-89520573D01*
X117236534Y-89520573D01*
X117198654Y-89516501D01*
X117198642Y-89516500D01*
X117198638Y-89516500D01*
X116651362Y-89516500D01*
X116651356Y-89516500D01*
X116651348Y-89516501D01*
X116611116Y-89520826D01*
X116584181Y-89520826D01*
X116548601Y-89517000D01*
X116499999Y-89517000D01*
X116483145Y-89533853D01*
X116479998Y-89544573D01*
X116449509Y-89577320D01*
X116336738Y-89661738D01*
X116276868Y-89741716D01*
X116220032Y-89784263D01*
X116149216Y-89789327D01*
X116086904Y-89755302D01*
X116052879Y-89692990D01*
X116050000Y-89666207D01*
X116050000Y-89517000D01*
X116001402Y-89517000D01*
X115940906Y-89523505D01*
X115804035Y-89574555D01*
X115804034Y-89574555D01*
X115687095Y-89662095D01*
X115599555Y-89779034D01*
X115599555Y-89779035D01*
X115548505Y-89915906D01*
X115542000Y-89976402D01*
X115542000Y-90525000D01*
X116065500Y-90525000D01*
X116133621Y-90545002D01*
X116180114Y-90598658D01*
X116191500Y-90651000D01*
X116191500Y-90849000D01*
X116171498Y-90917121D01*
X116117842Y-90963614D01*
X116065500Y-90975000D01*
X115587739Y-90975000D01*
X115519618Y-90954998D01*
X115498644Y-90938095D01*
X114888605Y-90328056D01*
X114856704Y-90274115D01*
X114829332Y-90179900D01*
X114829330Y-90179898D01*
X114829330Y-90179895D01*
X114744963Y-90037238D01*
X114744957Y-90037231D01*
X114627768Y-89920042D01*
X114627761Y-89920036D01*
X114485104Y-89835669D01*
X114325942Y-89789428D01*
X114325938Y-89789427D01*
X114325937Y-89789427D01*
X114325935Y-89789426D01*
X114325930Y-89789426D01*
X114288749Y-89786500D01*
X114288747Y-89786500D01*
X114050000Y-89786500D01*
X113811252Y-89786501D01*
X113774064Y-89789426D01*
X113614893Y-89835670D01*
X113609276Y-89838101D01*
X113538814Y-89846795D01*
X113481043Y-89819000D01*
X113184386Y-89819000D01*
X113120247Y-89801453D01*
X113085104Y-89780669D01*
X112925942Y-89734428D01*
X112925938Y-89734427D01*
X112925937Y-89734427D01*
X112925935Y-89734426D01*
X112925930Y-89734426D01*
X112888749Y-89731500D01*
X112888747Y-89731500D01*
X112650000Y-89731500D01*
X112411252Y-89731501D01*
X112374064Y-89734426D01*
X112214895Y-89780669D01*
X112179753Y-89801453D01*
X112115614Y-89819000D01*
X111776295Y-89819000D01*
X111712156Y-89801453D01*
X111660104Y-89770669D01*
X111500942Y-89724428D01*
X111500938Y-89724427D01*
X111500937Y-89724427D01*
X111500935Y-89724426D01*
X111500930Y-89724426D01*
X111463749Y-89721500D01*
X111463747Y-89721500D01*
X111250000Y-89721500D01*
X111036252Y-89721501D01*
X110999064Y-89724426D01*
X110839897Y-89770669D01*
X110839896Y-89770669D01*
X110829136Y-89777033D01*
X110760319Y-89794491D01*
X110700864Y-89777033D01*
X110690102Y-89770669D01*
X110690101Y-89770668D01*
X110690100Y-89770668D01*
X110613597Y-89748442D01*
X110530942Y-89724428D01*
X110530938Y-89724427D01*
X110530937Y-89724427D01*
X110530935Y-89724426D01*
X110530930Y-89724426D01*
X110493749Y-89721500D01*
X110493747Y-89721500D01*
X110399594Y-89721500D01*
X110331473Y-89701498D01*
X110310499Y-89684595D01*
X109979498Y-89353594D01*
X109956239Y-89311000D01*
X111825837Y-89311000D01*
X112396000Y-89311000D01*
X112396000Y-88763204D01*
X112374144Y-88764923D01*
X112374143Y-88764923D01*
X112215098Y-88811130D01*
X112072546Y-88895436D01*
X112072542Y-88895439D01*
X111955439Y-89012542D01*
X111955436Y-89012546D01*
X111871131Y-89155097D01*
X111825837Y-89311000D01*
X109956239Y-89311000D01*
X109945472Y-89291282D01*
X109950537Y-89220467D01*
X109993084Y-89163631D01*
X110059604Y-89138820D01*
X110068593Y-89138499D01*
X110099990Y-89138499D01*
X110118227Y-89137064D01*
X110136466Y-89135629D01*
X110292596Y-89090269D01*
X110292598Y-89090267D01*
X110292600Y-89090267D01*
X110424019Y-89012546D01*
X110432541Y-89007506D01*
X110547506Y-88892541D01*
X110586638Y-88826372D01*
X110623997Y-88763202D01*
X112904000Y-88763202D01*
X112904000Y-89311000D01*
X113474163Y-89311000D01*
X113428868Y-89155097D01*
X113344563Y-89012546D01*
X113344560Y-89012542D01*
X113227457Y-88895439D01*
X113227453Y-88895436D01*
X113084901Y-88811130D01*
X112925860Y-88764924D01*
X112925855Y-88764923D01*
X112904000Y-88763202D01*
X110623997Y-88763202D01*
X110630267Y-88752600D01*
X110630267Y-88752598D01*
X110630269Y-88752596D01*
X110675629Y-88596466D01*
X110676422Y-88586394D01*
X110678500Y-88559993D01*
X110678499Y-88204000D01*
X116342000Y-88204000D01*
X116342000Y-88237184D01*
X116352430Y-88339273D01*
X116352431Y-88339276D01*
X116407248Y-88504707D01*
X116498737Y-88653033D01*
X116498742Y-88653039D01*
X116621960Y-88776257D01*
X116621966Y-88776262D01*
X116770292Y-88867751D01*
X116935723Y-88922568D01*
X116935726Y-88922569D01*
X117037815Y-88932999D01*
X117037815Y-88933000D01*
X117133500Y-88933000D01*
X117133500Y-88204000D01*
X116342000Y-88204000D01*
X110678499Y-88204000D01*
X110678499Y-88160010D01*
X110675629Y-88123535D01*
X110675629Y-88123534D01*
X110630269Y-87967404D01*
X110598767Y-87914137D01*
X110581308Y-87845325D01*
X110598766Y-87785862D01*
X110630269Y-87732596D01*
X110675629Y-87576466D01*
X110677043Y-87558499D01*
X110678500Y-87539993D01*
X110678499Y-87140010D01*
X110676876Y-87119383D01*
X110691474Y-87049903D01*
X110741317Y-86999345D01*
X110802488Y-86983500D01*
X110802724Y-86983500D01*
X110822434Y-86985051D01*
X110824641Y-86985400D01*
X110842443Y-86988220D01*
X110876370Y-86985012D01*
X110889417Y-86983780D01*
X110895350Y-86983500D01*
X112245761Y-86983500D01*
X112313882Y-87003502D01*
X112360375Y-87057158D01*
X112365365Y-87069867D01*
X112382883Y-87122734D01*
X112382884Y-87122736D01*
X112382885Y-87122738D01*
X112462590Y-87251960D01*
X112475970Y-87273652D01*
X112475975Y-87273658D01*
X112601341Y-87399024D01*
X112601347Y-87399029D01*
X112601348Y-87399030D01*
X112752262Y-87492115D01*
X112920574Y-87547887D01*
X113024455Y-87558500D01*
X113650544Y-87558499D01*
X113754426Y-87547887D01*
X113922738Y-87492115D01*
X114073652Y-87399030D01*
X114106303Y-87366379D01*
X114160905Y-87311778D01*
X114223217Y-87277752D01*
X114294032Y-87282817D01*
X114339095Y-87311778D01*
X114426341Y-87399024D01*
X114426347Y-87399029D01*
X114426348Y-87399030D01*
X114577262Y-87492115D01*
X114745574Y-87547887D01*
X114849455Y-87558500D01*
X115475544Y-87558499D01*
X115579426Y-87547887D01*
X115747738Y-87492115D01*
X115898652Y-87399030D01*
X116024030Y-87273652D01*
X116117115Y-87122738D01*
X116163410Y-86983025D01*
X116203822Y-86924657D01*
X116269378Y-86897401D01*
X116317967Y-86904752D01*
G37*
%TD.AperFunction*%
%TA.AperFunction,Conductor*%
G36*
X126046027Y-88116002D02*
G01*
X126067001Y-88132905D01*
X126867095Y-88932999D01*
X126901121Y-88995311D01*
X126904000Y-89022094D01*
X126904000Y-89067330D01*
X126883998Y-89135451D01*
X126844146Y-89174571D01*
X126800313Y-89201607D01*
X126731833Y-89220344D01*
X126692553Y-89213296D01*
X126531047Y-89156783D01*
X126350000Y-89136384D01*
X126168953Y-89156783D01*
X126168950Y-89156783D01*
X126168949Y-89156784D01*
X125996984Y-89216957D01*
X125996982Y-89216958D01*
X125869299Y-89297187D01*
X125802263Y-89316500D01*
X125688213Y-89316500D01*
X125620092Y-89296498D01*
X125573599Y-89242842D01*
X125563495Y-89172568D01*
X125592989Y-89107988D01*
X125624073Y-89082047D01*
X125687453Y-89044563D01*
X125687457Y-89044560D01*
X125804560Y-88927457D01*
X125804563Y-88927453D01*
X125888869Y-88784901D01*
X125935076Y-88625856D01*
X125935076Y-88625855D01*
X125936796Y-88604000D01*
X125389000Y-88604000D01*
X125389000Y-89208680D01*
X125368998Y-89276801D01*
X125315342Y-89323294D01*
X125294340Y-89330720D01*
X125291202Y-89331525D01*
X125247331Y-89348894D01*
X125241716Y-89350817D01*
X125196408Y-89363981D01*
X125178964Y-89374297D01*
X125161218Y-89382990D01*
X125142382Y-89390448D01*
X125104209Y-89418181D01*
X125099248Y-89421440D01*
X125058638Y-89445458D01*
X125044311Y-89459784D01*
X125029285Y-89472617D01*
X125012895Y-89484525D01*
X125012892Y-89484528D01*
X124982814Y-89520883D01*
X124978820Y-89525273D01*
X124874500Y-89629595D01*
X124812188Y-89663620D01*
X124785404Y-89666500D01*
X124459500Y-89666500D01*
X124391379Y-89646498D01*
X124344886Y-89592842D01*
X124333500Y-89540500D01*
X124333500Y-89471367D01*
X124333499Y-89471350D01*
X124326990Y-89410803D01*
X124326989Y-89410799D01*
X124319398Y-89390448D01*
X124302676Y-89345616D01*
X124297611Y-89274804D01*
X124331635Y-89212491D01*
X124393947Y-89178465D01*
X124410851Y-89175973D01*
X124415937Y-89175573D01*
X124575100Y-89129332D01*
X124586349Y-89122679D01*
X124655162Y-89105218D01*
X124714631Y-89122678D01*
X124725099Y-89128869D01*
X124881000Y-89174162D01*
X124881000Y-88884386D01*
X124898547Y-88820247D01*
X124919330Y-88785104D01*
X124919330Y-88785102D01*
X124919332Y-88785100D01*
X124965573Y-88625937D01*
X124967435Y-88602270D01*
X124968500Y-88588751D01*
X124968500Y-88409078D01*
X124968499Y-88221999D01*
X124988501Y-88153880D01*
X125042156Y-88107387D01*
X125094499Y-88096000D01*
X125977906Y-88096000D01*
X126046027Y-88116002D01*
G37*
%TD.AperFunction*%
%TA.AperFunction,Conductor*%
G36*
X125998527Y-82988502D02*
G01*
X126019501Y-83005405D01*
X126193507Y-83179411D01*
X126227533Y-83241723D01*
X126226119Y-83301114D01*
X126216002Y-83338874D01*
X126216001Y-83338880D01*
X126216000Y-83338883D01*
X126216000Y-83338886D01*
X126208418Y-83425547D01*
X126196655Y-83560000D01*
X126216000Y-83781117D01*
X126273446Y-83995507D01*
X126273448Y-83995512D01*
X126367250Y-84196671D01*
X126367251Y-84196673D01*
X126494554Y-84378481D01*
X126494558Y-84378486D01*
X126494561Y-84378490D01*
X126651510Y-84535439D01*
X126651514Y-84535442D01*
X126651518Y-84535445D01*
X126695872Y-84566502D01*
X126833327Y-84662749D01*
X127034490Y-84756553D01*
X127248886Y-84814000D01*
X127470000Y-84833345D01*
X127691114Y-84814000D01*
X127905510Y-84756553D01*
X128106673Y-84662749D01*
X128288490Y-84535439D01*
X128318243Y-84505685D01*
X128380551Y-84471662D01*
X128451367Y-84476726D01*
X128508203Y-84519272D01*
X128532947Y-84584893D01*
X128534437Y-84603829D01*
X128534438Y-84603831D01*
X128578807Y-84756553D01*
X128580857Y-84763607D01*
X128584005Y-84770882D01*
X128581999Y-84771749D01*
X128596693Y-84829693D01*
X128582385Y-84878417D01*
X128584005Y-84879118D01*
X128580857Y-84886392D01*
X128534437Y-85046170D01*
X128531500Y-85083494D01*
X128531500Y-85516506D01*
X128534437Y-85553829D01*
X128580856Y-85713605D01*
X128665544Y-85856803D01*
X128665549Y-85856810D01*
X128783189Y-85974450D01*
X128783196Y-85974455D01*
X128926396Y-86059144D01*
X128926398Y-86059144D01*
X128926399Y-86059145D01*
X128978151Y-86074179D01*
X129037987Y-86112391D01*
X129067665Y-86176886D01*
X129069000Y-86195177D01*
X129069000Y-87053805D01*
X129048998Y-87121926D01*
X129032095Y-87142900D01*
X128923347Y-87251647D01*
X128923342Y-87251653D01*
X128831791Y-87400080D01*
X128776937Y-87565622D01*
X128766500Y-87667778D01*
X128766500Y-88242212D01*
X128776937Y-88344380D01*
X128831791Y-88509920D01*
X128923342Y-88658346D01*
X128923347Y-88658352D01*
X129046650Y-88781655D01*
X129046652Y-88781656D01*
X129046654Y-88781658D01*
X129092541Y-88809961D01*
X129140016Y-88862744D01*
X129151420Y-88932819D01*
X129123128Y-88997935D01*
X129064123Y-89037418D01*
X129039198Y-89042548D01*
X128945574Y-89052112D01*
X128777261Y-89107885D01*
X128626347Y-89200970D01*
X128626341Y-89200975D01*
X128539095Y-89288222D01*
X128476783Y-89322248D01*
X128405968Y-89317183D01*
X128360905Y-89288222D01*
X128273658Y-89200975D01*
X128273649Y-89200968D01*
X128230852Y-89174570D01*
X128183374Y-89121784D01*
X128171000Y-89067330D01*
X128171000Y-88791353D01*
X128172749Y-88775511D01*
X128172456Y-88775484D01*
X128173202Y-88767591D01*
X128171000Y-88697528D01*
X128171000Y-88667650D01*
X128171000Y-88667644D01*
X128170120Y-88660682D01*
X128169656Y-88654793D01*
X128168174Y-88607611D01*
X128162517Y-88588142D01*
X128158512Y-88568798D01*
X128155974Y-88548703D01*
X128138600Y-88504822D01*
X128136681Y-88499216D01*
X128135710Y-88495875D01*
X128123518Y-88453907D01*
X128117182Y-88443193D01*
X128113206Y-88436470D01*
X128104510Y-88418721D01*
X128097052Y-88399883D01*
X128069312Y-88361703D01*
X128066064Y-88356758D01*
X128042042Y-88316138D01*
X128027714Y-88301810D01*
X128014884Y-88286789D01*
X128002972Y-88270393D01*
X128002969Y-88270391D01*
X128002969Y-88270390D01*
X127966607Y-88240308D01*
X127962226Y-88236322D01*
X126206491Y-86480586D01*
X126172465Y-86418274D01*
X126173879Y-86358881D01*
X126184000Y-86321114D01*
X126203345Y-86100000D01*
X126184000Y-85878886D01*
X126126553Y-85664490D01*
X126032749Y-85463328D01*
X125905439Y-85281510D01*
X125748490Y-85124561D01*
X125748486Y-85124558D01*
X125748481Y-85124554D01*
X125566673Y-84997251D01*
X125566671Y-84997250D01*
X125365512Y-84903448D01*
X125365507Y-84903446D01*
X125151117Y-84846000D01*
X124930000Y-84826655D01*
X124708882Y-84846000D01*
X124494492Y-84903446D01*
X124494487Y-84903448D01*
X124293327Y-84997251D01*
X124111513Y-85124558D01*
X124111507Y-85124563D01*
X124063595Y-85172476D01*
X124001283Y-85206502D01*
X123930468Y-85201437D01*
X123873632Y-85158890D01*
X123848821Y-85092370D01*
X123848500Y-85083381D01*
X123848500Y-84658494D01*
X123845562Y-84621170D01*
X123820655Y-84535439D01*
X123799145Y-84461399D01*
X123799143Y-84461397D01*
X123799143Y-84461394D01*
X123714456Y-84318198D01*
X123714455Y-84318197D01*
X123714453Y-84318193D01*
X123714449Y-84318189D01*
X123713708Y-84317233D01*
X123713356Y-84316337D01*
X123710418Y-84311369D01*
X123711219Y-84310895D01*
X123687756Y-84251150D01*
X123701652Y-84181526D01*
X123713708Y-84162767D01*
X123714445Y-84161814D01*
X123714453Y-84161807D01*
X123799145Y-84018601D01*
X123845562Y-83858831D01*
X123848500Y-83821502D01*
X123848500Y-83388498D01*
X123845562Y-83351169D01*
X123799145Y-83191399D01*
X123799142Y-83191394D01*
X123779771Y-83158639D01*
X123762312Y-83089822D01*
X123784829Y-83022491D01*
X123840174Y-82978022D01*
X123888225Y-82968500D01*
X125930406Y-82968500D01*
X125998527Y-82988502D01*
G37*
%TD.AperFunction*%
%TA.AperFunction,Conductor*%
G36*
X138866621Y-78345502D02*
G01*
X138913114Y-78399158D01*
X138924500Y-78451500D01*
X138924500Y-82007417D01*
X138904498Y-82075538D01*
X138850842Y-82122031D01*
X138780568Y-82132135D01*
X138715988Y-82102641D01*
X138694211Y-82078127D01*
X138684456Y-82063739D01*
X138637742Y-81994841D01*
X138405484Y-81721405D01*
X138351792Y-81670545D01*
X138145037Y-81474695D01*
X138145022Y-81474682D01*
X137859418Y-81257572D01*
X137859412Y-81257568D01*
X137835560Y-81243217D01*
X137552005Y-81072607D01*
X137226401Y-80921967D01*
X136886417Y-80807413D01*
X136838915Y-80796956D01*
X136536054Y-80730291D01*
X136536046Y-80730289D01*
X136536042Y-80730289D01*
X136526133Y-80729211D01*
X136425822Y-80718301D01*
X136360263Y-80691051D01*
X136319845Y-80632683D01*
X136317399Y-80561728D01*
X136347316Y-80509270D01*
X136346710Y-80508791D01*
X136349866Y-80504798D01*
X136350358Y-80503937D01*
X136351263Y-80503031D01*
X136442751Y-80354707D01*
X136497568Y-80189276D01*
X136497569Y-80189273D01*
X136507999Y-80087184D01*
X136508000Y-80087184D01*
X136508000Y-80054000D01*
X135334500Y-80054000D01*
X135266379Y-80033998D01*
X135219886Y-79980342D01*
X135208500Y-79928000D01*
X135208500Y-78817000D01*
X135716500Y-78817000D01*
X135716500Y-79546000D01*
X136508000Y-79546000D01*
X136508000Y-79512815D01*
X136497569Y-79410726D01*
X136497568Y-79410723D01*
X136442751Y-79245292D01*
X136351262Y-79096966D01*
X136351257Y-79096960D01*
X136228039Y-78973742D01*
X136228033Y-78973737D01*
X136079707Y-78882248D01*
X135914276Y-78827431D01*
X135914273Y-78827430D01*
X135812184Y-78817000D01*
X135716500Y-78817000D01*
X135208500Y-78817000D01*
X135112815Y-78817000D01*
X135010726Y-78827430D01*
X135010723Y-78827431D01*
X134845292Y-78882248D01*
X134696966Y-78973737D01*
X134689445Y-78981258D01*
X134627131Y-79015281D01*
X134556316Y-79010213D01*
X134511256Y-78981252D01*
X134503346Y-78973342D01*
X134354920Y-78881791D01*
X134189381Y-78826938D01*
X134189379Y-78826937D01*
X134189377Y-78826937D01*
X134087221Y-78816500D01*
X133387787Y-78816500D01*
X133285619Y-78826937D01*
X133120079Y-78881791D01*
X132971653Y-78973342D01*
X132971649Y-78973345D01*
X132959192Y-78985802D01*
X132896878Y-79019823D01*
X132838773Y-79018744D01*
X132830031Y-79016500D01*
X132830030Y-79016500D01*
X132809776Y-79016500D01*
X132790066Y-79014949D01*
X132770057Y-79011780D01*
X132770056Y-79011780D01*
X132723083Y-79016220D01*
X132717150Y-79016500D01*
X123433849Y-79016500D01*
X123418010Y-79014751D01*
X123417983Y-79015045D01*
X123410091Y-79014299D01*
X123340060Y-79016500D01*
X123310144Y-79016500D01*
X123303172Y-79017379D01*
X123297265Y-79017844D01*
X123250110Y-79019326D01*
X123250105Y-79019327D01*
X123230660Y-79024977D01*
X123211302Y-79028986D01*
X123191207Y-79031524D01*
X123191205Y-79031525D01*
X123147324Y-79048897D01*
X123141709Y-79050819D01*
X123096410Y-79063980D01*
X123096404Y-79063982D01*
X123078966Y-79074295D01*
X123061220Y-79082989D01*
X123042381Y-79090448D01*
X123042380Y-79090449D01*
X123004213Y-79118178D01*
X122999252Y-79121437D01*
X122958637Y-79145458D01*
X122944307Y-79159787D01*
X122929281Y-79172620D01*
X122912895Y-79184526D01*
X122912894Y-79184526D01*
X122882818Y-79220880D01*
X122878823Y-79225271D01*
X122738437Y-79365656D01*
X122676125Y-79399682D01*
X122663452Y-79401768D01*
X122618957Y-79406782D01*
X122618950Y-79406783D01*
X122446984Y-79466957D01*
X122446981Y-79466958D01*
X122292720Y-79563887D01*
X122292718Y-79563888D01*
X122163888Y-79692718D01*
X122163887Y-79692720D01*
X122066958Y-79846981D01*
X122066957Y-79846984D01*
X122020294Y-79980342D01*
X122006783Y-80018953D01*
X121986384Y-80200000D01*
X122006783Y-80381047D01*
X122006783Y-80381049D01*
X122006784Y-80381050D01*
X122066957Y-80553015D01*
X122066958Y-80553018D01*
X122163887Y-80707279D01*
X122163888Y-80707281D01*
X122292718Y-80836111D01*
X122292720Y-80836112D01*
X122446981Y-80933041D01*
X122446982Y-80933041D01*
X122446985Y-80933043D01*
X122618953Y-80993217D01*
X122800000Y-81013616D01*
X122981047Y-80993217D01*
X123153015Y-80933043D01*
X123307281Y-80836111D01*
X123436111Y-80707281D01*
X123452393Y-80681367D01*
X123505570Y-80634330D01*
X123575737Y-80623509D01*
X123640616Y-80652340D01*
X123679608Y-80711671D01*
X123680789Y-80781011D01*
X123676000Y-80798882D01*
X123656655Y-81020000D01*
X123676000Y-81241117D01*
X123733446Y-81455507D01*
X123733450Y-81455517D01*
X123745471Y-81481297D01*
X123756132Y-81551488D01*
X123727152Y-81616301D01*
X123667732Y-81655157D01*
X123596737Y-81655720D01*
X123567137Y-81643000D01*
X123453602Y-81575855D01*
X123293829Y-81529437D01*
X123256506Y-81526500D01*
X123256502Y-81526500D01*
X121473498Y-81526500D01*
X121473494Y-81526500D01*
X121436170Y-81529437D01*
X121276394Y-81575856D01*
X121133196Y-81660544D01*
X121133189Y-81660549D01*
X121015549Y-81778189D01*
X121015544Y-81778196D01*
X120930856Y-81921394D01*
X120884437Y-82081170D01*
X120881500Y-82118494D01*
X120881500Y-82551506D01*
X120884437Y-82588829D01*
X120930856Y-82748605D01*
X121015543Y-82891802D01*
X121016298Y-82892775D01*
X121016652Y-82893676D01*
X121019582Y-82898631D01*
X121018782Y-82899103D01*
X121042244Y-82958861D01*
X121028342Y-83028483D01*
X121016298Y-83047225D01*
X121015543Y-83048197D01*
X120930856Y-83191394D01*
X120884437Y-83351170D01*
X120881500Y-83388494D01*
X120881500Y-83821506D01*
X120884437Y-83858829D01*
X120930856Y-84018605D01*
X121015543Y-84161802D01*
X121016298Y-84162775D01*
X121016652Y-84163676D01*
X121019582Y-84168631D01*
X121018782Y-84169103D01*
X121042244Y-84228861D01*
X121028342Y-84298483D01*
X121016298Y-84317225D01*
X121015543Y-84318197D01*
X120930856Y-84461394D01*
X120884437Y-84621170D01*
X120881500Y-84658494D01*
X120881500Y-85091506D01*
X120884437Y-85128829D01*
X120930856Y-85288605D01*
X121015544Y-85431803D01*
X121016615Y-85433184D01*
X121017117Y-85434463D01*
X121019582Y-85438631D01*
X121018909Y-85439028D01*
X121042562Y-85499270D01*
X121028662Y-85568892D01*
X121016614Y-85587639D01*
X121015946Y-85588499D01*
X120931318Y-85731598D01*
X120885007Y-85891000D01*
X122493000Y-85891000D01*
X122561121Y-85911002D01*
X122607614Y-85964658D01*
X122619000Y-86017000D01*
X122619000Y-86952999D01*
X123256458Y-86952999D01*
X123293750Y-86950065D01*
X123453400Y-86903681D01*
X123596499Y-86819052D01*
X123659965Y-86755587D01*
X123722277Y-86721562D01*
X123793093Y-86726626D01*
X123849929Y-86769172D01*
X123852274Y-86772411D01*
X123951895Y-86914683D01*
X123954561Y-86918490D01*
X124111510Y-87075439D01*
X124111514Y-87075442D01*
X124111518Y-87075445D01*
X124207854Y-87142900D01*
X124293327Y-87202749D01*
X124466835Y-87283657D01*
X124520120Y-87330574D01*
X124539581Y-87398852D01*
X124519039Y-87466811D01*
X124465016Y-87512877D01*
X124403699Y-87523463D01*
X124392941Y-87522617D01*
X124378750Y-87521500D01*
X124378747Y-87521500D01*
X124122251Y-87521500D01*
X123951252Y-87521501D01*
X123914064Y-87524426D01*
X123754895Y-87570669D01*
X123612238Y-87655036D01*
X123612235Y-87655038D01*
X123525940Y-87741334D01*
X123463628Y-87775359D01*
X123392812Y-87770293D01*
X123369810Y-87758926D01*
X123303015Y-87716957D01*
X123131050Y-87656784D01*
X123131049Y-87656783D01*
X123131047Y-87656783D01*
X122950000Y-87636384D01*
X122768953Y-87656783D01*
X122768950Y-87656783D01*
X122768949Y-87656784D01*
X122596984Y-87716957D01*
X122596981Y-87716958D01*
X122442720Y-87813887D01*
X122442718Y-87813888D01*
X122313887Y-87942719D01*
X122289904Y-87980888D01*
X122236725Y-88027925D01*
X122166557Y-88038744D01*
X122101679Y-88009910D01*
X122062690Y-87950577D01*
X122058011Y-87899743D01*
X122063616Y-87850000D01*
X122043217Y-87668953D01*
X121983043Y-87496985D01*
X121983041Y-87496982D01*
X121983041Y-87496981D01*
X121886112Y-87342720D01*
X121886111Y-87342718D01*
X121757281Y-87213888D01*
X121757279Y-87213887D01*
X121712398Y-87185686D01*
X121665360Y-87132507D01*
X121654540Y-87062340D01*
X121683373Y-86997462D01*
X121742705Y-86958471D01*
X121779434Y-86952999D01*
X122111000Y-86952999D01*
X122111000Y-86399000D01*
X120885007Y-86399000D01*
X120931318Y-86558401D01*
X121015948Y-86701501D01*
X121015949Y-86701503D01*
X121133496Y-86819050D01*
X121133500Y-86819053D01*
X121136954Y-86821096D01*
X121139108Y-86823403D01*
X121139763Y-86823911D01*
X121139681Y-86824016D01*
X121185407Y-86872988D01*
X121198113Y-86942838D01*
X121171039Y-87008469D01*
X121112779Y-87049045D01*
X121086928Y-87054757D01*
X121068956Y-87056782D01*
X121068950Y-87056783D01*
X120896984Y-87116957D01*
X120896982Y-87116958D01*
X120769299Y-87197187D01*
X120702263Y-87216500D01*
X120023694Y-87216500D01*
X119955573Y-87196498D01*
X119934599Y-87179595D01*
X119920405Y-87165401D01*
X119886379Y-87103089D01*
X119883500Y-87076306D01*
X119883500Y-86783854D01*
X119885249Y-86768012D01*
X119884956Y-86767985D01*
X119885700Y-86760099D01*
X119885702Y-86760092D01*
X119883500Y-86690028D01*
X119883500Y-86660144D01*
X119882620Y-86653182D01*
X119882156Y-86647293D01*
X119880674Y-86600111D01*
X119875020Y-86580652D01*
X119871012Y-86561297D01*
X119868474Y-86541203D01*
X119851103Y-86497329D01*
X119849189Y-86491740D01*
X119836019Y-86446407D01*
X119825703Y-86428964D01*
X119817005Y-86411209D01*
X119809552Y-86392383D01*
X119788336Y-86363181D01*
X119781818Y-86354210D01*
X119778558Y-86349247D01*
X119754542Y-86308638D01*
X119740214Y-86294310D01*
X119727384Y-86279289D01*
X119715472Y-86262893D01*
X119715469Y-86262891D01*
X119715469Y-86262890D01*
X119679113Y-86232813D01*
X119674721Y-86228817D01*
X119202242Y-85756337D01*
X119192280Y-85743901D01*
X119192053Y-85744090D01*
X119187000Y-85737982D01*
X119135920Y-85690015D01*
X119114777Y-85668871D01*
X119114772Y-85668866D01*
X119109225Y-85664563D01*
X119104717Y-85660712D01*
X119070325Y-85628417D01*
X119070319Y-85628413D01*
X119052563Y-85618651D01*
X119036047Y-85607802D01*
X119020041Y-85595386D01*
X118987078Y-85581122D01*
X118976740Y-85576648D01*
X118971408Y-85574036D01*
X118930061Y-85551305D01*
X118910436Y-85546266D01*
X118891732Y-85539862D01*
X118870671Y-85530748D01*
X118816097Y-85485337D01*
X118794737Y-85417629D01*
X118812259Y-85350971D01*
X118849145Y-85288601D01*
X118895562Y-85128831D01*
X118898500Y-85091502D01*
X118898500Y-84658498D01*
X118895562Y-84621169D01*
X118849145Y-84461399D01*
X118849143Y-84461397D01*
X118849143Y-84461394D01*
X118764456Y-84318198D01*
X118764455Y-84318197D01*
X118764453Y-84318193D01*
X118764449Y-84318189D01*
X118763708Y-84317233D01*
X118763356Y-84316337D01*
X118760418Y-84311369D01*
X118761219Y-84310895D01*
X118737756Y-84251150D01*
X118751652Y-84181526D01*
X118763708Y-84162767D01*
X118764445Y-84161814D01*
X118764453Y-84161807D01*
X118849145Y-84018601D01*
X118895562Y-83858831D01*
X118898500Y-83821502D01*
X118898500Y-83388498D01*
X118895562Y-83351169D01*
X118849145Y-83191399D01*
X118849143Y-83191397D01*
X118849143Y-83191394D01*
X118764455Y-83048196D01*
X118763385Y-83046816D01*
X118762882Y-83045536D01*
X118760418Y-83041369D01*
X118761090Y-83040971D01*
X118737437Y-82980732D01*
X118751336Y-82911109D01*
X118763390Y-82892353D01*
X118764056Y-82891493D01*
X118848681Y-82748401D01*
X118894993Y-82589000D01*
X117287000Y-82589000D01*
X117218879Y-82568998D01*
X117172386Y-82515342D01*
X117161000Y-82463000D01*
X117161000Y-81527000D01*
X117669000Y-81527000D01*
X117669000Y-82081000D01*
X118894992Y-82081000D01*
X118848681Y-81921598D01*
X118764051Y-81778498D01*
X118764050Y-81778496D01*
X118646503Y-81660949D01*
X118646501Y-81660948D01*
X118503401Y-81576318D01*
X118343748Y-81529934D01*
X118343750Y-81529934D01*
X118306461Y-81527000D01*
X117669000Y-81527000D01*
X117161000Y-81527000D01*
X116523536Y-81527001D01*
X116521402Y-81527085D01*
X116452551Y-81509763D01*
X116403995Y-81457967D01*
X116391150Y-81388142D01*
X116418094Y-81322457D01*
X116450322Y-81293943D01*
X116478346Y-81276658D01*
X116522465Y-81232538D01*
X116584776Y-81198514D01*
X116653175Y-81202705D01*
X116683408Y-81213283D01*
X116768953Y-81243217D01*
X116950000Y-81263616D01*
X117131047Y-81243217D01*
X117303015Y-81183043D01*
X117457281Y-81086111D01*
X117586111Y-80957281D01*
X117683043Y-80803015D01*
X117743217Y-80631047D01*
X117763616Y-80450000D01*
X117743217Y-80268953D01*
X117683043Y-80096985D01*
X117683041Y-80096982D01*
X117683041Y-80096981D01*
X117586112Y-79942720D01*
X117586111Y-79942718D01*
X117457281Y-79813888D01*
X117457279Y-79813887D01*
X117303018Y-79716958D01*
X117303015Y-79716957D01*
X117131050Y-79656784D01*
X117131049Y-79656783D01*
X117131047Y-79656783D01*
X116950000Y-79636384D01*
X116768953Y-79656783D01*
X116768950Y-79656783D01*
X116768949Y-79656784D01*
X116653175Y-79697295D01*
X116582270Y-79700914D01*
X116522466Y-79667462D01*
X116478346Y-79623342D01*
X116329920Y-79531791D01*
X116164381Y-79476938D01*
X116164379Y-79476937D01*
X116164377Y-79476937D01*
X116062221Y-79466500D01*
X115362787Y-79466500D01*
X115260619Y-79476937D01*
X115095079Y-79531791D01*
X114946653Y-79623342D01*
X114946647Y-79623347D01*
X114938741Y-79631254D01*
X114876429Y-79665280D01*
X114805614Y-79660215D01*
X114760551Y-79631254D01*
X114753039Y-79623742D01*
X114753033Y-79623737D01*
X114604707Y-79532248D01*
X114439276Y-79477431D01*
X114439273Y-79477430D01*
X114337184Y-79467000D01*
X114241500Y-79467000D01*
X114241500Y-80578000D01*
X114221498Y-80646121D01*
X114167842Y-80692614D01*
X114115500Y-80704000D01*
X112942000Y-80704000D01*
X112942000Y-80737184D01*
X112952430Y-80839273D01*
X112952431Y-80839276D01*
X113007248Y-81004707D01*
X113098737Y-81153033D01*
X113098742Y-81153039D01*
X113122108Y-81176405D01*
X113156134Y-81238717D01*
X113151069Y-81309532D01*
X113108522Y-81366368D01*
X113042002Y-81391179D01*
X113033013Y-81391500D01*
X112333494Y-81391500D01*
X112296170Y-81394437D01*
X112296167Y-81394438D01*
X112195132Y-81423791D01*
X112124136Y-81423588D01*
X112064520Y-81385033D01*
X112035212Y-81320368D01*
X112033980Y-81302794D01*
X112033980Y-81269491D01*
X112034520Y-81261259D01*
X112039230Y-81225480D01*
X112039230Y-81225479D01*
X112033980Y-81185601D01*
X112033980Y-81185600D01*
X112033980Y-81185595D01*
X112018318Y-81066630D01*
X112003291Y-81030350D01*
X111957004Y-80918604D01*
X111949696Y-80909080D01*
X111938914Y-80895028D01*
X111932505Y-80884504D01*
X111932012Y-80884818D01*
X111842001Y-80742984D01*
X111842000Y-80742982D01*
X111760866Y-80666793D01*
X111725321Y-80633414D01*
X111645953Y-80589781D01*
X111585059Y-80556304D01*
X111585057Y-80556303D01*
X111430037Y-80516501D01*
X111430031Y-80516500D01*
X111430030Y-80516500D01*
X111430027Y-80516500D01*
X106833854Y-80516500D01*
X106818012Y-80514750D01*
X106817985Y-80515044D01*
X106810092Y-80514297D01*
X106740029Y-80516500D01*
X106710144Y-80516500D01*
X106710140Y-80516500D01*
X106710129Y-80516501D01*
X106703190Y-80517377D01*
X106697277Y-80517843D01*
X106650114Y-80519325D01*
X106650107Y-80519327D01*
X106630649Y-80524979D01*
X106611304Y-80528985D01*
X106591206Y-80531525D01*
X106591197Y-80531527D01*
X106547331Y-80548894D01*
X106541716Y-80550817D01*
X106496408Y-80563981D01*
X106478964Y-80574297D01*
X106461218Y-80582990D01*
X106442382Y-80590448D01*
X106404209Y-80618181D01*
X106399248Y-80621440D01*
X106358637Y-80645458D01*
X106344308Y-80659786D01*
X106329287Y-80672615D01*
X106312894Y-80684526D01*
X106312893Y-80684527D01*
X106282814Y-80720885D01*
X106278818Y-80725276D01*
X106161334Y-80842759D01*
X106148902Y-80852719D01*
X106149090Y-80852946D01*
X106142983Y-80857998D01*
X106095016Y-80909079D01*
X106073860Y-80930234D01*
X106069560Y-80935777D01*
X106065713Y-80940280D01*
X106033417Y-80974674D01*
X106033411Y-80974683D01*
X106023651Y-80992435D01*
X106012803Y-81008950D01*
X106000386Y-81024958D01*
X105981645Y-81068264D01*
X105979034Y-81073594D01*
X105956305Y-81114939D01*
X105956303Y-81114944D01*
X105951267Y-81134559D01*
X105944864Y-81153262D01*
X105936819Y-81171852D01*
X105929437Y-81218456D01*
X105928233Y-81224268D01*
X105916500Y-81269968D01*
X105916500Y-81290223D01*
X105914949Y-81309933D01*
X105911780Y-81329942D01*
X105911780Y-81329943D01*
X105916220Y-81376917D01*
X105916500Y-81382850D01*
X105916500Y-81995618D01*
X105896498Y-82063739D01*
X105842842Y-82110232D01*
X105772568Y-82120336D01*
X105707988Y-82090842D01*
X105686211Y-82066328D01*
X105684456Y-82063739D01*
X105637742Y-81994841D01*
X105405484Y-81721405D01*
X105351792Y-81670545D01*
X105145037Y-81474695D01*
X105145022Y-81474682D01*
X104859418Y-81257572D01*
X104859412Y-81257568D01*
X104835560Y-81243217D01*
X104552005Y-81072607D01*
X104226401Y-80921967D01*
X103886417Y-80807413D01*
X103838915Y-80796956D01*
X103536054Y-80730291D01*
X103536030Y-80730287D01*
X103179389Y-80691500D01*
X103179382Y-80691500D01*
X102820618Y-80691500D01*
X102820610Y-80691500D01*
X102463969Y-80730287D01*
X102463945Y-80730291D01*
X102113587Y-80807412D01*
X102113573Y-80807416D01*
X101773601Y-80921966D01*
X101743749Y-80935777D01*
X101451493Y-81070989D01*
X101447989Y-81072610D01*
X101140587Y-81257568D01*
X101140581Y-81257572D01*
X100854977Y-81474682D01*
X100854962Y-81474695D01*
X100594516Y-81721404D01*
X100362259Y-81994839D01*
X100305789Y-82078127D01*
X100251005Y-82123285D01*
X100180503Y-82131655D01*
X100116668Y-82100581D01*
X100079767Y-82039928D01*
X100075500Y-82007417D01*
X100075500Y-80196000D01*
X112942000Y-80196000D01*
X113733500Y-80196000D01*
X113733500Y-79467000D01*
X113637815Y-79467000D01*
X113535726Y-79477430D01*
X113535723Y-79477431D01*
X113370292Y-79532248D01*
X113221966Y-79623737D01*
X113221960Y-79623742D01*
X113098742Y-79746960D01*
X113098737Y-79746966D01*
X113007248Y-79895292D01*
X112952431Y-80060723D01*
X112952430Y-80060726D01*
X112942000Y-80162815D01*
X112942000Y-80196000D01*
X100075500Y-80196000D01*
X100075500Y-78451500D01*
X100095502Y-78383379D01*
X100149158Y-78336886D01*
X100201500Y-78325500D01*
X138798500Y-78325500D01*
X138866621Y-78345502D01*
G37*
%TD.AperFunction*%
%TA.AperFunction,Conductor*%
G36*
X132725063Y-80413689D02*
G01*
X132743247Y-80416569D01*
X132807400Y-80446981D01*
X132830777Y-80474869D01*
X132842403Y-80493718D01*
X132848343Y-80503347D01*
X132848347Y-80503352D01*
X132950449Y-80605454D01*
X132984475Y-80667766D01*
X132979410Y-80738581D01*
X132950449Y-80783644D01*
X132808095Y-80925998D01*
X132745783Y-80960024D01*
X132674968Y-80954959D01*
X132618132Y-80912412D01*
X132593321Y-80845892D01*
X132593000Y-80836903D01*
X132593000Y-80669483D01*
X132582394Y-80565682D01*
X132582145Y-80564516D01*
X132582200Y-80563778D01*
X132581695Y-80558834D01*
X132582576Y-80558743D01*
X132587443Y-80493718D01*
X132630176Y-80437022D01*
X132696778Y-80412430D01*
X132725063Y-80413689D01*
G37*
%TD.AperFunction*%
%TD*%
M02*
