%TF.GenerationSoftware,KiCad,Pcbnew,7.0.6*%
%TF.CreationDate,2023-09-07T21:54:39-06:00*%
%TF.ProjectId,low_power_heater,6c6f775f-706f-4776-9572-5f6865617465,rev?*%
%TF.SameCoordinates,Original*%
%TF.FileFunction,Legend,Bot*%
%TF.FilePolarity,Positive*%
%FSLAX46Y46*%
G04 Gerber Fmt 4.6, Leading zero omitted, Abs format (unit mm)*
G04 Created by KiCad (PCBNEW 7.0.6) date 2023-09-07 21:54:39*
%MOMM*%
%LPD*%
G01*
G04 APERTURE LIST*
%ADD10C,0.150000*%
%ADD11C,0.120000*%
%ADD12C,1.240000*%
%ADD13C,0.700000*%
%ADD14C,4.400000*%
%ADD15R,1.400000X1.800000*%
%ADD16O,1.400000X1.800000*%
%ADD17R,1.700000X1.700000*%
%ADD18O,1.700000X1.700000*%
G04 APERTURE END LIST*
D10*
X135059523Y-80124819D02*
X135059523Y-80839104D01*
X135059523Y-80839104D02*
X135107142Y-80981961D01*
X135107142Y-80981961D02*
X135202380Y-81077200D01*
X135202380Y-81077200D02*
X135345237Y-81124819D01*
X135345237Y-81124819D02*
X135440475Y-81124819D01*
X134059523Y-81124819D02*
X134630951Y-81124819D01*
X134345237Y-81124819D02*
X134345237Y-80124819D01*
X134345237Y-80124819D02*
X134440475Y-80267676D01*
X134440475Y-80267676D02*
X134535713Y-80362914D01*
X134535713Y-80362914D02*
X134630951Y-80410533D01*
X133107142Y-81124819D02*
X133678570Y-81124819D01*
X133392856Y-81124819D02*
X133392856Y-80124819D01*
X133392856Y-80124819D02*
X133488094Y-80267676D01*
X133488094Y-80267676D02*
X133583332Y-80362914D01*
X133583332Y-80362914D02*
X133678570Y-80410533D01*
D11*
%TO.C,J11*%
X135580000Y-94490000D02*
X132920000Y-94490000D01*
X135580000Y-84270000D02*
X135580000Y-94490000D01*
X135580000Y-84270000D02*
X132920000Y-84270000D01*
X135580000Y-83000000D02*
X135580000Y-81670000D01*
X135580000Y-81670000D02*
X134250000Y-81670000D01*
X132920000Y-84270000D02*
X132920000Y-94490000D01*
%TD*%
%LPC*%
D12*
%TO.C,J14*%
X102370000Y-81130000D03*
X101100000Y-79860000D03*
X101100000Y-82400000D03*
X103640000Y-79860000D03*
X103640000Y-82400000D03*
%TD*%
%TO.C,J13*%
X119870000Y-71730000D03*
X118600000Y-70460000D03*
X118600000Y-73000000D03*
X121140000Y-70460000D03*
X121140000Y-73000000D03*
%TD*%
%TO.C,J12*%
X110130000Y-75130000D03*
X108860000Y-73860000D03*
X108860000Y-76400000D03*
X111400000Y-73860000D03*
X111400000Y-76400000D03*
%TD*%
D13*
%TO.C,H3*%
X85850000Y-67000000D03*
X86333274Y-65833274D03*
X86333274Y-68166726D03*
X87500000Y-65350000D03*
D14*
X87500000Y-67000000D03*
D13*
X87500000Y-68650000D03*
X88666726Y-65833274D03*
X88666726Y-68166726D03*
X89150000Y-67000000D03*
%TD*%
%TO.C,H4*%
X179350000Y-67000000D03*
X179833274Y-65833274D03*
X179833274Y-68166726D03*
X181000000Y-65350000D03*
D14*
X181000000Y-67000000D03*
D13*
X181000000Y-68650000D03*
X182166726Y-65833274D03*
X182166726Y-68166726D03*
X182650000Y-67000000D03*
%TD*%
D15*
%TO.C,PS2*%
X159012500Y-70132500D03*
D16*
X156472500Y-70132500D03*
X153932500Y-70132500D03*
X151392500Y-70132500D03*
%TD*%
D13*
%TO.C,H2*%
X179350000Y-92000000D03*
X179833274Y-90833274D03*
X179833274Y-93166726D03*
X181000000Y-90350000D03*
D14*
X181000000Y-92000000D03*
D13*
X181000000Y-93650000D03*
X182166726Y-90833274D03*
X182166726Y-93166726D03*
X182650000Y-92000000D03*
%TD*%
%TO.C,H1*%
X85850000Y-92000000D03*
X86333274Y-90833274D03*
X86333274Y-93166726D03*
X87500000Y-90350000D03*
D14*
X87500000Y-92000000D03*
D13*
X87500000Y-93650000D03*
X88666726Y-90833274D03*
X88666726Y-93166726D03*
X89150000Y-92000000D03*
%TD*%
D15*
%TO.C,PS1*%
X144237500Y-80867500D03*
D16*
X146777500Y-80867500D03*
X149317500Y-80867500D03*
X151857500Y-80867500D03*
%TD*%
D17*
%TO.C,J11*%
X134250000Y-83000000D03*
D18*
X134250000Y-85540000D03*
X134250000Y-88080000D03*
X134250000Y-90620000D03*
X134250000Y-93160000D03*
%TD*%
%LPD*%
M02*
