M48
; DRILL file {KiCad 7.0.6} date Thu Sep  7 21:54:39 2023
; FORMAT={-:-/ absolute / inch / decimal}
; #@! TF.CreationDate,2023-09-07T21:54:39-06:00
; #@! TF.GenerationSoftware,Kicad,Pcbnew,7.0.6
; #@! TF.FileFunction,Plated,1,2,PTH
FMAT,2
INCH
; #@! TA.AperFunction,Plated,PTH,ViaDrill
T1C0.0157
; #@! TA.AperFunction,Plated,PTH,ComponentDrill
T2C0.0157
; #@! TA.AperFunction,Plated,PTH,ComponentDrill
T3C0.0331
; #@! TA.AperFunction,Plated,PTH,ComponentDrill
T4C0.0394
; #@! TA.AperFunction,Plated,PTH,ComponentDrill
T5C0.0866
%
G90
G05
T1
X3.4075Y-3.1835
X3.4079Y-3.0709
X3.7031Y-3.1205
X3.7449Y-3.563
X3.8189Y-3.3252
X3.8441Y-3.4579
X3.8894Y-3.5748
X3.8927Y-2.9808
X4.2138Y-3.62
X4.3356Y-2.5541
X4.5965Y-2.5197
X4.626Y-3.3819
X4.7982Y-2.5148
X4.8661Y-3.5157
X5.187Y-2.4705
X5.561Y-2.4508
X5.9843Y-3.4843
X5.9843Y-3.5236
X5.9843Y-3.5827
X6.063Y-2.4311
X6.1857Y-3.3061
X6.2795Y-3.4016
X6.3228Y-2.7638
X6.3377Y-3.468
X6.3473Y-3.4299
X6.3569Y-3.3917
X6.3819Y-2.8937
X6.3917Y-3.3735
X6.3977Y-3.3268
X6.437Y-3.3268
X6.4764Y-3.3268
X6.5979Y-3.4089
X6.6257Y-3.4367
X6.6535Y-3.4646
X6.7835Y-3.2165
T2
X3.3799Y-2.6378
X3.3799Y-3.622
X3.3989Y-2.5919
X3.3989Y-2.6837
X3.3989Y-3.5761
X3.3989Y-3.668
X3.4449Y-2.5728
X3.4449Y-2.7028
X3.4449Y-3.5571
X3.4449Y-3.687
X3.4908Y-2.5919
X3.4908Y-2.6837
X3.4908Y-3.5761
X3.4908Y-3.668
X3.5098Y-2.6378
X3.5098Y-3.622
X7.061Y-2.6378
X7.061Y-3.622
X7.0801Y-2.5919
X7.0801Y-2.6837
X7.0801Y-3.5761
X7.0801Y-3.668
X7.126Y-2.5728
X7.126Y-2.7028
X7.126Y-3.5571
X7.126Y-3.687
X7.1719Y-2.5919
X7.1719Y-2.6837
X7.1719Y-3.5761
X7.1719Y-3.668
X7.1909Y-2.6378
X7.1909Y-3.622
T3
X3.9803Y-3.1441
X3.9803Y-3.2441
X4.0303Y-3.1941
X4.0803Y-3.1441
X4.0803Y-3.2441
X4.2858Y-2.9079
X4.2858Y-3.0079
X4.3358Y-2.9579
X4.3858Y-2.9079
X4.3858Y-3.0079
X4.6693Y-2.774
X4.6693Y-2.874
X4.7193Y-2.824
X4.7693Y-2.774
X4.7693Y-2.874
T4
X5.2854Y-3.2677
X5.2854Y-3.3677
X5.2854Y-3.4677
X5.2854Y-3.5677
X5.2854Y-3.6677
X5.6786Y-3.1838
X5.7786Y-3.1838
X5.8786Y-3.1838
X5.9603Y-2.7611
X5.9786Y-3.1838
X6.0603Y-2.7611
X6.1603Y-2.7611
X6.2603Y-2.7611
T5
X3.4449Y-2.6378
X3.4449Y-3.622
X7.126Y-2.6378
X7.126Y-3.622
T0
M30
