%TF.GenerationSoftware,KiCad,Pcbnew,7.0.6*%
%TF.CreationDate,2023-09-07T21:54:39-06:00*%
%TF.ProjectId,low_power_heater,6c6f775f-706f-4776-9572-5f6865617465,rev?*%
%TF.SameCoordinates,Original*%
%TF.FileFunction,Legend,Top*%
%TF.FilePolarity,Positive*%
%FSLAX46Y46*%
G04 Gerber Fmt 4.6, Leading zero omitted, Abs format (unit mm)*
G04 Created by KiCad (PCBNEW 7.0.6) date 2023-09-07 21:54:39*
%MOMM*%
%LPD*%
G01*
G04 APERTURE LIST*
G04 Aperture macros list*
%AMRoundRect*
0 Rectangle with rounded corners*
0 $1 Rounding radius*
0 $2 $3 $4 $5 $6 $7 $8 $9 X,Y pos of 4 corners*
0 Add a 4 corners polygon primitive as box body*
4,1,4,$2,$3,$4,$5,$6,$7,$8,$9,$2,$3,0*
0 Add four circle primitives for the rounded corners*
1,1,$1+$1,$2,$3*
1,1,$1+$1,$4,$5*
1,1,$1+$1,$6,$7*
1,1,$1+$1,$8,$9*
0 Add four rect primitives between the rounded corners*
20,1,$1+$1,$2,$3,$4,$5,0*
20,1,$1+$1,$4,$5,$6,$7,0*
20,1,$1+$1,$6,$7,$8,$9,0*
20,1,$1+$1,$8,$9,$2,$3,0*%
G04 Aperture macros list end*
%ADD10C,0.150000*%
%ADD11C,0.120000*%
%ADD12C,0.152400*%
%ADD13C,0.152000*%
%ADD14C,0.300000*%
%ADD15C,1.240000*%
%ADD16RoundRect,0.237500X-0.300000X-0.237500X0.300000X-0.237500X0.300000X0.237500X-0.300000X0.237500X0*%
%ADD17R,1.327899X0.431000*%
%ADD18R,1.570000X1.890000*%
%ADD19RoundRect,0.237500X-0.237500X0.300000X-0.237500X-0.300000X0.237500X-0.300000X0.237500X0.300000X0*%
%ADD20RoundRect,0.237500X0.300000X0.237500X-0.300000X0.237500X-0.300000X-0.237500X0.300000X-0.237500X0*%
%ADD21RoundRect,0.237500X0.250000X0.237500X-0.250000X0.237500X-0.250000X-0.237500X0.250000X-0.237500X0*%
%ADD22RoundRect,0.150000X-0.512500X-0.150000X0.512500X-0.150000X0.512500X0.150000X-0.512500X0.150000X0*%
%ADD23RoundRect,0.250000X0.250000X1.500000X-0.250000X1.500000X-0.250000X-1.500000X0.250000X-1.500000X0*%
%ADD24RoundRect,0.250001X0.499999X1.449999X-0.499999X1.449999X-0.499999X-1.449999X0.499999X-1.449999X0*%
%ADD25RoundRect,0.237500X0.237500X-0.250000X0.237500X0.250000X-0.237500X0.250000X-0.237500X-0.250000X0*%
%ADD26C,0.700000*%
%ADD27C,4.400000*%
%ADD28RoundRect,0.250000X0.537500X1.450000X-0.537500X1.450000X-0.537500X-1.450000X0.537500X-1.450000X0*%
%ADD29RoundRect,0.237500X-0.237500X0.250000X-0.237500X-0.250000X0.237500X-0.250000X0.237500X0.250000X0*%
%ADD30RoundRect,0.237500X0.237500X-0.300000X0.237500X0.300000X-0.237500X0.300000X-0.237500X-0.300000X0*%
%ADD31RoundRect,0.250000X-0.412500X-0.650000X0.412500X-0.650000X0.412500X0.650000X-0.412500X0.650000X0*%
%ADD32RoundRect,0.150000X-0.825000X-0.150000X0.825000X-0.150000X0.825000X0.150000X-0.825000X0.150000X0*%
%ADD33RoundRect,0.250001X-1.074999X0.462499X-1.074999X-0.462499X1.074999X-0.462499X1.074999X0.462499X0*%
%ADD34RoundRect,0.250000X-0.550000X1.250000X-0.550000X-1.250000X0.550000X-1.250000X0.550000X1.250000X0*%
%ADD35RoundRect,0.250000X-0.475000X0.337500X-0.475000X-0.337500X0.475000X-0.337500X0.475000X0.337500X0*%
%ADD36R,1.400000X1.800000*%
%ADD37O,1.400000X1.800000*%
%ADD38RoundRect,0.150000X-0.587500X-0.150000X0.587500X-0.150000X0.587500X0.150000X-0.587500X0.150000X0*%
%ADD39RoundRect,0.250000X0.650000X-0.412500X0.650000X0.412500X-0.650000X0.412500X-0.650000X-0.412500X0*%
%ADD40RoundRect,0.250001X-0.462499X-1.074999X0.462499X-1.074999X0.462499X1.074999X-0.462499X1.074999X0*%
%ADD41RoundRect,0.250000X0.412500X0.650000X-0.412500X0.650000X-0.412500X-0.650000X0.412500X-0.650000X0*%
%ADD42O,0.588000X2.045000*%
%ADD43RoundRect,0.237500X-0.237500X0.287500X-0.237500X-0.287500X0.237500X-0.287500X0.237500X0.287500X0*%
%ADD44R,1.000000X0.400000*%
%ADD45R,1.700000X1.700000*%
%ADD46O,1.700000X1.700000*%
G04 APERTURE END LIST*
D10*
X160583333Y-80359580D02*
X160535714Y-80407200D01*
X160535714Y-80407200D02*
X160392857Y-80454819D01*
X160392857Y-80454819D02*
X160297619Y-80454819D01*
X160297619Y-80454819D02*
X160154762Y-80407200D01*
X160154762Y-80407200D02*
X160059524Y-80311961D01*
X160059524Y-80311961D02*
X160011905Y-80216723D01*
X160011905Y-80216723D02*
X159964286Y-80026247D01*
X159964286Y-80026247D02*
X159964286Y-79883390D01*
X159964286Y-79883390D02*
X160011905Y-79692914D01*
X160011905Y-79692914D02*
X160059524Y-79597676D01*
X160059524Y-79597676D02*
X160154762Y-79502438D01*
X160154762Y-79502438D02*
X160297619Y-79454819D01*
X160297619Y-79454819D02*
X160392857Y-79454819D01*
X160392857Y-79454819D02*
X160535714Y-79502438D01*
X160535714Y-79502438D02*
X160583333Y-79550057D01*
X161440476Y-79454819D02*
X161250000Y-79454819D01*
X161250000Y-79454819D02*
X161154762Y-79502438D01*
X161154762Y-79502438D02*
X161107143Y-79550057D01*
X161107143Y-79550057D02*
X161011905Y-79692914D01*
X161011905Y-79692914D02*
X160964286Y-79883390D01*
X160964286Y-79883390D02*
X160964286Y-80264342D01*
X160964286Y-80264342D02*
X161011905Y-80359580D01*
X161011905Y-80359580D02*
X161059524Y-80407200D01*
X161059524Y-80407200D02*
X161154762Y-80454819D01*
X161154762Y-80454819D02*
X161345238Y-80454819D01*
X161345238Y-80454819D02*
X161440476Y-80407200D01*
X161440476Y-80407200D02*
X161488095Y-80359580D01*
X161488095Y-80359580D02*
X161535714Y-80264342D01*
X161535714Y-80264342D02*
X161535714Y-80026247D01*
X161535714Y-80026247D02*
X161488095Y-79931009D01*
X161488095Y-79931009D02*
X161440476Y-79883390D01*
X161440476Y-79883390D02*
X161345238Y-79835771D01*
X161345238Y-79835771D02*
X161154762Y-79835771D01*
X161154762Y-79835771D02*
X161059524Y-79883390D01*
X161059524Y-79883390D02*
X161011905Y-79931009D01*
X161011905Y-79931009D02*
X160964286Y-80026247D01*
X105260476Y-79084819D02*
X105260476Y-79799104D01*
X105260476Y-79799104D02*
X105212857Y-79941961D01*
X105212857Y-79941961D02*
X105117619Y-80037200D01*
X105117619Y-80037200D02*
X104974762Y-80084819D01*
X104974762Y-80084819D02*
X104879524Y-80084819D01*
X106260476Y-80084819D02*
X105689048Y-80084819D01*
X105974762Y-80084819D02*
X105974762Y-79084819D01*
X105974762Y-79084819D02*
X105879524Y-79227676D01*
X105879524Y-79227676D02*
X105784286Y-79322914D01*
X105784286Y-79322914D02*
X105689048Y-79370533D01*
X107117619Y-79418152D02*
X107117619Y-80084819D01*
X106879524Y-79037200D02*
X106641429Y-79751485D01*
X106641429Y-79751485D02*
X107260476Y-79751485D01*
X122760476Y-69684819D02*
X122760476Y-70399104D01*
X122760476Y-70399104D02*
X122712857Y-70541961D01*
X122712857Y-70541961D02*
X122617619Y-70637200D01*
X122617619Y-70637200D02*
X122474762Y-70684819D01*
X122474762Y-70684819D02*
X122379524Y-70684819D01*
X123760476Y-70684819D02*
X123189048Y-70684819D01*
X123474762Y-70684819D02*
X123474762Y-69684819D01*
X123474762Y-69684819D02*
X123379524Y-69827676D01*
X123379524Y-69827676D02*
X123284286Y-69922914D01*
X123284286Y-69922914D02*
X123189048Y-69970533D01*
X124093810Y-69684819D02*
X124712857Y-69684819D01*
X124712857Y-69684819D02*
X124379524Y-70065771D01*
X124379524Y-70065771D02*
X124522381Y-70065771D01*
X124522381Y-70065771D02*
X124617619Y-70113390D01*
X124617619Y-70113390D02*
X124665238Y-70161009D01*
X124665238Y-70161009D02*
X124712857Y-70256247D01*
X124712857Y-70256247D02*
X124712857Y-70494342D01*
X124712857Y-70494342D02*
X124665238Y-70589580D01*
X124665238Y-70589580D02*
X124617619Y-70637200D01*
X124617619Y-70637200D02*
X124522381Y-70684819D01*
X124522381Y-70684819D02*
X124236667Y-70684819D01*
X124236667Y-70684819D02*
X124141429Y-70637200D01*
X124141429Y-70637200D02*
X124093810Y-70589580D01*
X113020476Y-73084819D02*
X113020476Y-73799104D01*
X113020476Y-73799104D02*
X112972857Y-73941961D01*
X112972857Y-73941961D02*
X112877619Y-74037200D01*
X112877619Y-74037200D02*
X112734762Y-74084819D01*
X112734762Y-74084819D02*
X112639524Y-74084819D01*
X114020476Y-74084819D02*
X113449048Y-74084819D01*
X113734762Y-74084819D02*
X113734762Y-73084819D01*
X113734762Y-73084819D02*
X113639524Y-73227676D01*
X113639524Y-73227676D02*
X113544286Y-73322914D01*
X113544286Y-73322914D02*
X113449048Y-73370533D01*
X114401429Y-73180057D02*
X114449048Y-73132438D01*
X114449048Y-73132438D02*
X114544286Y-73084819D01*
X114544286Y-73084819D02*
X114782381Y-73084819D01*
X114782381Y-73084819D02*
X114877619Y-73132438D01*
X114877619Y-73132438D02*
X114925238Y-73180057D01*
X114925238Y-73180057D02*
X114972857Y-73275295D01*
X114972857Y-73275295D02*
X114972857Y-73370533D01*
X114972857Y-73370533D02*
X114925238Y-73513390D01*
X114925238Y-73513390D02*
X114353810Y-74084819D01*
X114353810Y-74084819D02*
X114972857Y-74084819D01*
X157833333Y-86929580D02*
X157785714Y-86977200D01*
X157785714Y-86977200D02*
X157642857Y-87024819D01*
X157642857Y-87024819D02*
X157547619Y-87024819D01*
X157547619Y-87024819D02*
X157404762Y-86977200D01*
X157404762Y-86977200D02*
X157309524Y-86881961D01*
X157309524Y-86881961D02*
X157261905Y-86786723D01*
X157261905Y-86786723D02*
X157214286Y-86596247D01*
X157214286Y-86596247D02*
X157214286Y-86453390D01*
X157214286Y-86453390D02*
X157261905Y-86262914D01*
X157261905Y-86262914D02*
X157309524Y-86167676D01*
X157309524Y-86167676D02*
X157404762Y-86072438D01*
X157404762Y-86072438D02*
X157547619Y-86024819D01*
X157547619Y-86024819D02*
X157642857Y-86024819D01*
X157642857Y-86024819D02*
X157785714Y-86072438D01*
X157785714Y-86072438D02*
X157833333Y-86120057D01*
X158166667Y-86024819D02*
X158833333Y-86024819D01*
X158833333Y-86024819D02*
X158404762Y-87024819D01*
X94358095Y-92404819D02*
X94358095Y-93214342D01*
X94358095Y-93214342D02*
X94405714Y-93309580D01*
X94405714Y-93309580D02*
X94453333Y-93357200D01*
X94453333Y-93357200D02*
X94548571Y-93404819D01*
X94548571Y-93404819D02*
X94739047Y-93404819D01*
X94739047Y-93404819D02*
X94834285Y-93357200D01*
X94834285Y-93357200D02*
X94881904Y-93309580D01*
X94881904Y-93309580D02*
X94929523Y-93214342D01*
X94929523Y-93214342D02*
X94929523Y-92404819D01*
X95834285Y-92404819D02*
X95643809Y-92404819D01*
X95643809Y-92404819D02*
X95548571Y-92452438D01*
X95548571Y-92452438D02*
X95500952Y-92500057D01*
X95500952Y-92500057D02*
X95405714Y-92642914D01*
X95405714Y-92642914D02*
X95358095Y-92833390D01*
X95358095Y-92833390D02*
X95358095Y-93214342D01*
X95358095Y-93214342D02*
X95405714Y-93309580D01*
X95405714Y-93309580D02*
X95453333Y-93357200D01*
X95453333Y-93357200D02*
X95548571Y-93404819D01*
X95548571Y-93404819D02*
X95739047Y-93404819D01*
X95739047Y-93404819D02*
X95834285Y-93357200D01*
X95834285Y-93357200D02*
X95881904Y-93309580D01*
X95881904Y-93309580D02*
X95929523Y-93214342D01*
X95929523Y-93214342D02*
X95929523Y-92976247D01*
X95929523Y-92976247D02*
X95881904Y-92881009D01*
X95881904Y-92881009D02*
X95834285Y-92833390D01*
X95834285Y-92833390D02*
X95739047Y-92785771D01*
X95739047Y-92785771D02*
X95548571Y-92785771D01*
X95548571Y-92785771D02*
X95453333Y-92833390D01*
X95453333Y-92833390D02*
X95405714Y-92881009D01*
X95405714Y-92881009D02*
X95358095Y-92976247D01*
X92280000Y-87974819D02*
X92280000Y-88212914D01*
X92041905Y-88117676D02*
X92280000Y-88212914D01*
X92280000Y-88212914D02*
X92518095Y-88117676D01*
X92137143Y-88403390D02*
X92280000Y-88212914D01*
X92280000Y-88212914D02*
X92422857Y-88403390D01*
X108819580Y-93452857D02*
X108867200Y-93500476D01*
X108867200Y-93500476D02*
X108914819Y-93643333D01*
X108914819Y-93643333D02*
X108914819Y-93738571D01*
X108914819Y-93738571D02*
X108867200Y-93881428D01*
X108867200Y-93881428D02*
X108771961Y-93976666D01*
X108771961Y-93976666D02*
X108676723Y-94024285D01*
X108676723Y-94024285D02*
X108486247Y-94071904D01*
X108486247Y-94071904D02*
X108343390Y-94071904D01*
X108343390Y-94071904D02*
X108152914Y-94024285D01*
X108152914Y-94024285D02*
X108057676Y-93976666D01*
X108057676Y-93976666D02*
X107962438Y-93881428D01*
X107962438Y-93881428D02*
X107914819Y-93738571D01*
X107914819Y-93738571D02*
X107914819Y-93643333D01*
X107914819Y-93643333D02*
X107962438Y-93500476D01*
X107962438Y-93500476D02*
X108010057Y-93452857D01*
X108010057Y-93071904D02*
X107962438Y-93024285D01*
X107962438Y-93024285D02*
X107914819Y-92929047D01*
X107914819Y-92929047D02*
X107914819Y-92690952D01*
X107914819Y-92690952D02*
X107962438Y-92595714D01*
X107962438Y-92595714D02*
X108010057Y-92548095D01*
X108010057Y-92548095D02*
X108105295Y-92500476D01*
X108105295Y-92500476D02*
X108200533Y-92500476D01*
X108200533Y-92500476D02*
X108343390Y-92548095D01*
X108343390Y-92548095D02*
X108914819Y-93119523D01*
X108914819Y-93119523D02*
X108914819Y-92500476D01*
X108010057Y-92119523D02*
X107962438Y-92071904D01*
X107962438Y-92071904D02*
X107914819Y-91976666D01*
X107914819Y-91976666D02*
X107914819Y-91738571D01*
X107914819Y-91738571D02*
X107962438Y-91643333D01*
X107962438Y-91643333D02*
X108010057Y-91595714D01*
X108010057Y-91595714D02*
X108105295Y-91548095D01*
X108105295Y-91548095D02*
X108200533Y-91548095D01*
X108200533Y-91548095D02*
X108343390Y-91595714D01*
X108343390Y-91595714D02*
X108914819Y-92167142D01*
X108914819Y-92167142D02*
X108914819Y-91548095D01*
X138278333Y-81224580D02*
X138230714Y-81272200D01*
X138230714Y-81272200D02*
X138087857Y-81319819D01*
X138087857Y-81319819D02*
X137992619Y-81319819D01*
X137992619Y-81319819D02*
X137849762Y-81272200D01*
X137849762Y-81272200D02*
X137754524Y-81176961D01*
X137754524Y-81176961D02*
X137706905Y-81081723D01*
X137706905Y-81081723D02*
X137659286Y-80891247D01*
X137659286Y-80891247D02*
X137659286Y-80748390D01*
X137659286Y-80748390D02*
X137706905Y-80557914D01*
X137706905Y-80557914D02*
X137754524Y-80462676D01*
X137754524Y-80462676D02*
X137849762Y-80367438D01*
X137849762Y-80367438D02*
X137992619Y-80319819D01*
X137992619Y-80319819D02*
X138087857Y-80319819D01*
X138087857Y-80319819D02*
X138230714Y-80367438D01*
X138230714Y-80367438D02*
X138278333Y-80415057D01*
X139230714Y-81319819D02*
X138659286Y-81319819D01*
X138945000Y-81319819D02*
X138945000Y-80319819D01*
X138945000Y-80319819D02*
X138849762Y-80462676D01*
X138849762Y-80462676D02*
X138754524Y-80557914D01*
X138754524Y-80557914D02*
X138659286Y-80605533D01*
X126120833Y-88484819D02*
X125787500Y-88008628D01*
X125549405Y-88484819D02*
X125549405Y-87484819D01*
X125549405Y-87484819D02*
X125930357Y-87484819D01*
X125930357Y-87484819D02*
X126025595Y-87532438D01*
X126025595Y-87532438D02*
X126073214Y-87580057D01*
X126073214Y-87580057D02*
X126120833Y-87675295D01*
X126120833Y-87675295D02*
X126120833Y-87818152D01*
X126120833Y-87818152D02*
X126073214Y-87913390D01*
X126073214Y-87913390D02*
X126025595Y-87961009D01*
X126025595Y-87961009D02*
X125930357Y-88008628D01*
X125930357Y-88008628D02*
X125549405Y-88008628D01*
X127025595Y-87484819D02*
X126549405Y-87484819D01*
X126549405Y-87484819D02*
X126501786Y-87961009D01*
X126501786Y-87961009D02*
X126549405Y-87913390D01*
X126549405Y-87913390D02*
X126644643Y-87865771D01*
X126644643Y-87865771D02*
X126882738Y-87865771D01*
X126882738Y-87865771D02*
X126977976Y-87913390D01*
X126977976Y-87913390D02*
X127025595Y-87961009D01*
X127025595Y-87961009D02*
X127073214Y-88056247D01*
X127073214Y-88056247D02*
X127073214Y-88294342D01*
X127073214Y-88294342D02*
X127025595Y-88389580D01*
X127025595Y-88389580D02*
X126977976Y-88437200D01*
X126977976Y-88437200D02*
X126882738Y-88484819D01*
X126882738Y-88484819D02*
X126644643Y-88484819D01*
X126644643Y-88484819D02*
X126549405Y-88437200D01*
X126549405Y-88437200D02*
X126501786Y-88389580D01*
X157605595Y-81004819D02*
X157605595Y-81814342D01*
X157605595Y-81814342D02*
X157653214Y-81909580D01*
X157653214Y-81909580D02*
X157700833Y-81957200D01*
X157700833Y-81957200D02*
X157796071Y-82004819D01*
X157796071Y-82004819D02*
X157986547Y-82004819D01*
X157986547Y-82004819D02*
X158081785Y-81957200D01*
X158081785Y-81957200D02*
X158129404Y-81909580D01*
X158129404Y-81909580D02*
X158177023Y-81814342D01*
X158177023Y-81814342D02*
X158177023Y-81004819D01*
X158557976Y-81004819D02*
X159177023Y-81004819D01*
X159177023Y-81004819D02*
X158843690Y-81385771D01*
X158843690Y-81385771D02*
X158986547Y-81385771D01*
X158986547Y-81385771D02*
X159081785Y-81433390D01*
X159081785Y-81433390D02*
X159129404Y-81481009D01*
X159129404Y-81481009D02*
X159177023Y-81576247D01*
X159177023Y-81576247D02*
X159177023Y-81814342D01*
X159177023Y-81814342D02*
X159129404Y-81909580D01*
X159129404Y-81909580D02*
X159081785Y-81957200D01*
X159081785Y-81957200D02*
X158986547Y-82004819D01*
X158986547Y-82004819D02*
X158700833Y-82004819D01*
X158700833Y-82004819D02*
X158605595Y-81957200D01*
X158605595Y-81957200D02*
X158557976Y-81909580D01*
X90984580Y-77679166D02*
X91032200Y-77726785D01*
X91032200Y-77726785D02*
X91079819Y-77869642D01*
X91079819Y-77869642D02*
X91079819Y-77964880D01*
X91079819Y-77964880D02*
X91032200Y-78107737D01*
X91032200Y-78107737D02*
X90936961Y-78202975D01*
X90936961Y-78202975D02*
X90841723Y-78250594D01*
X90841723Y-78250594D02*
X90651247Y-78298213D01*
X90651247Y-78298213D02*
X90508390Y-78298213D01*
X90508390Y-78298213D02*
X90317914Y-78250594D01*
X90317914Y-78250594D02*
X90222676Y-78202975D01*
X90222676Y-78202975D02*
X90127438Y-78107737D01*
X90127438Y-78107737D02*
X90079819Y-77964880D01*
X90079819Y-77964880D02*
X90079819Y-77869642D01*
X90079819Y-77869642D02*
X90127438Y-77726785D01*
X90127438Y-77726785D02*
X90175057Y-77679166D01*
X91079819Y-77202975D02*
X91079819Y-77012499D01*
X91079819Y-77012499D02*
X91032200Y-76917261D01*
X91032200Y-76917261D02*
X90984580Y-76869642D01*
X90984580Y-76869642D02*
X90841723Y-76774404D01*
X90841723Y-76774404D02*
X90651247Y-76726785D01*
X90651247Y-76726785D02*
X90270295Y-76726785D01*
X90270295Y-76726785D02*
X90175057Y-76774404D01*
X90175057Y-76774404D02*
X90127438Y-76822023D01*
X90127438Y-76822023D02*
X90079819Y-76917261D01*
X90079819Y-76917261D02*
X90079819Y-77107737D01*
X90079819Y-77107737D02*
X90127438Y-77202975D01*
X90127438Y-77202975D02*
X90175057Y-77250594D01*
X90175057Y-77250594D02*
X90270295Y-77298213D01*
X90270295Y-77298213D02*
X90508390Y-77298213D01*
X90508390Y-77298213D02*
X90603628Y-77250594D01*
X90603628Y-77250594D02*
X90651247Y-77202975D01*
X90651247Y-77202975D02*
X90698866Y-77107737D01*
X90698866Y-77107737D02*
X90698866Y-76917261D01*
X90698866Y-76917261D02*
X90651247Y-76822023D01*
X90651247Y-76822023D02*
X90603628Y-76774404D01*
X90603628Y-76774404D02*
X90508390Y-76726785D01*
X138616666Y-63354819D02*
X138616666Y-64069104D01*
X138616666Y-64069104D02*
X138569047Y-64211961D01*
X138569047Y-64211961D02*
X138473809Y-64307200D01*
X138473809Y-64307200D02*
X138330952Y-64354819D01*
X138330952Y-64354819D02*
X138235714Y-64354819D01*
X139569047Y-63354819D02*
X139092857Y-63354819D01*
X139092857Y-63354819D02*
X139045238Y-63831009D01*
X139045238Y-63831009D02*
X139092857Y-63783390D01*
X139092857Y-63783390D02*
X139188095Y-63735771D01*
X139188095Y-63735771D02*
X139426190Y-63735771D01*
X139426190Y-63735771D02*
X139521428Y-63783390D01*
X139521428Y-63783390D02*
X139569047Y-63831009D01*
X139569047Y-63831009D02*
X139616666Y-63926247D01*
X139616666Y-63926247D02*
X139616666Y-64164342D01*
X139616666Y-64164342D02*
X139569047Y-64259580D01*
X139569047Y-64259580D02*
X139521428Y-64307200D01*
X139521428Y-64307200D02*
X139426190Y-64354819D01*
X139426190Y-64354819D02*
X139188095Y-64354819D01*
X139188095Y-64354819D02*
X139092857Y-64307200D01*
X139092857Y-64307200D02*
X139045238Y-64259580D01*
X128616666Y-63354819D02*
X128616666Y-64069104D01*
X128616666Y-64069104D02*
X128569047Y-64211961D01*
X128569047Y-64211961D02*
X128473809Y-64307200D01*
X128473809Y-64307200D02*
X128330952Y-64354819D01*
X128330952Y-64354819D02*
X128235714Y-64354819D01*
X129521428Y-63354819D02*
X129330952Y-63354819D01*
X129330952Y-63354819D02*
X129235714Y-63402438D01*
X129235714Y-63402438D02*
X129188095Y-63450057D01*
X129188095Y-63450057D02*
X129092857Y-63592914D01*
X129092857Y-63592914D02*
X129045238Y-63783390D01*
X129045238Y-63783390D02*
X129045238Y-64164342D01*
X129045238Y-64164342D02*
X129092857Y-64259580D01*
X129092857Y-64259580D02*
X129140476Y-64307200D01*
X129140476Y-64307200D02*
X129235714Y-64354819D01*
X129235714Y-64354819D02*
X129426190Y-64354819D01*
X129426190Y-64354819D02*
X129521428Y-64307200D01*
X129521428Y-64307200D02*
X129569047Y-64259580D01*
X129569047Y-64259580D02*
X129616666Y-64164342D01*
X129616666Y-64164342D02*
X129616666Y-63926247D01*
X129616666Y-63926247D02*
X129569047Y-63831009D01*
X129569047Y-63831009D02*
X129521428Y-63783390D01*
X129521428Y-63783390D02*
X129426190Y-63735771D01*
X129426190Y-63735771D02*
X129235714Y-63735771D01*
X129235714Y-63735771D02*
X129140476Y-63783390D01*
X129140476Y-63783390D02*
X129092857Y-63831009D01*
X129092857Y-63831009D02*
X129045238Y-63926247D01*
X89704819Y-86666666D02*
X89228628Y-86999999D01*
X89704819Y-87238094D02*
X88704819Y-87238094D01*
X88704819Y-87238094D02*
X88704819Y-86857142D01*
X88704819Y-86857142D02*
X88752438Y-86761904D01*
X88752438Y-86761904D02*
X88800057Y-86714285D01*
X88800057Y-86714285D02*
X88895295Y-86666666D01*
X88895295Y-86666666D02*
X89038152Y-86666666D01*
X89038152Y-86666666D02*
X89133390Y-86714285D01*
X89133390Y-86714285D02*
X89181009Y-86761904D01*
X89181009Y-86761904D02*
X89228628Y-86857142D01*
X89228628Y-86857142D02*
X89228628Y-87238094D01*
X88704819Y-85809523D02*
X88704819Y-85999999D01*
X88704819Y-85999999D02*
X88752438Y-86095237D01*
X88752438Y-86095237D02*
X88800057Y-86142856D01*
X88800057Y-86142856D02*
X88942914Y-86238094D01*
X88942914Y-86238094D02*
X89133390Y-86285713D01*
X89133390Y-86285713D02*
X89514342Y-86285713D01*
X89514342Y-86285713D02*
X89609580Y-86238094D01*
X89609580Y-86238094D02*
X89657200Y-86190475D01*
X89657200Y-86190475D02*
X89704819Y-86095237D01*
X89704819Y-86095237D02*
X89704819Y-85904761D01*
X89704819Y-85904761D02*
X89657200Y-85809523D01*
X89657200Y-85809523D02*
X89609580Y-85761904D01*
X89609580Y-85761904D02*
X89514342Y-85714285D01*
X89514342Y-85714285D02*
X89276247Y-85714285D01*
X89276247Y-85714285D02*
X89181009Y-85761904D01*
X89181009Y-85761904D02*
X89133390Y-85809523D01*
X89133390Y-85809523D02*
X89085771Y-85904761D01*
X89085771Y-85904761D02*
X89085771Y-86095237D01*
X89085771Y-86095237D02*
X89133390Y-86190475D01*
X89133390Y-86190475D02*
X89181009Y-86238094D01*
X89181009Y-86238094D02*
X89276247Y-86285713D01*
X83988095Y-65204819D02*
X83988095Y-64204819D01*
X83988095Y-64681009D02*
X84559523Y-64681009D01*
X84559523Y-65204819D02*
X84559523Y-64204819D01*
X84940476Y-64204819D02*
X85559523Y-64204819D01*
X85559523Y-64204819D02*
X85226190Y-64585771D01*
X85226190Y-64585771D02*
X85369047Y-64585771D01*
X85369047Y-64585771D02*
X85464285Y-64633390D01*
X85464285Y-64633390D02*
X85511904Y-64681009D01*
X85511904Y-64681009D02*
X85559523Y-64776247D01*
X85559523Y-64776247D02*
X85559523Y-65014342D01*
X85559523Y-65014342D02*
X85511904Y-65109580D01*
X85511904Y-65109580D02*
X85464285Y-65157200D01*
X85464285Y-65157200D02*
X85369047Y-65204819D01*
X85369047Y-65204819D02*
X85083333Y-65204819D01*
X85083333Y-65204819D02*
X84988095Y-65157200D01*
X84988095Y-65157200D02*
X84940476Y-65109580D01*
X118616666Y-63354819D02*
X118616666Y-64069104D01*
X118616666Y-64069104D02*
X118569047Y-64211961D01*
X118569047Y-64211961D02*
X118473809Y-64307200D01*
X118473809Y-64307200D02*
X118330952Y-64354819D01*
X118330952Y-64354819D02*
X118235714Y-64354819D01*
X118997619Y-63354819D02*
X119664285Y-63354819D01*
X119664285Y-63354819D02*
X119235714Y-64354819D01*
X159357142Y-67109580D02*
X159309523Y-67157200D01*
X159309523Y-67157200D02*
X159166666Y-67204819D01*
X159166666Y-67204819D02*
X159071428Y-67204819D01*
X159071428Y-67204819D02*
X158928571Y-67157200D01*
X158928571Y-67157200D02*
X158833333Y-67061961D01*
X158833333Y-67061961D02*
X158785714Y-66966723D01*
X158785714Y-66966723D02*
X158738095Y-66776247D01*
X158738095Y-66776247D02*
X158738095Y-66633390D01*
X158738095Y-66633390D02*
X158785714Y-66442914D01*
X158785714Y-66442914D02*
X158833333Y-66347676D01*
X158833333Y-66347676D02*
X158928571Y-66252438D01*
X158928571Y-66252438D02*
X159071428Y-66204819D01*
X159071428Y-66204819D02*
X159166666Y-66204819D01*
X159166666Y-66204819D02*
X159309523Y-66252438D01*
X159309523Y-66252438D02*
X159357142Y-66300057D01*
X160309523Y-67204819D02*
X159738095Y-67204819D01*
X160023809Y-67204819D02*
X160023809Y-66204819D01*
X160023809Y-66204819D02*
X159928571Y-66347676D01*
X159928571Y-66347676D02*
X159833333Y-66442914D01*
X159833333Y-66442914D02*
X159738095Y-66490533D01*
X160642857Y-66204819D02*
X161261904Y-66204819D01*
X161261904Y-66204819D02*
X160928571Y-66585771D01*
X160928571Y-66585771D02*
X161071428Y-66585771D01*
X161071428Y-66585771D02*
X161166666Y-66633390D01*
X161166666Y-66633390D02*
X161214285Y-66681009D01*
X161214285Y-66681009D02*
X161261904Y-66776247D01*
X161261904Y-66776247D02*
X161261904Y-67014342D01*
X161261904Y-67014342D02*
X161214285Y-67109580D01*
X161214285Y-67109580D02*
X161166666Y-67157200D01*
X161166666Y-67157200D02*
X161071428Y-67204819D01*
X161071428Y-67204819D02*
X160785714Y-67204819D01*
X160785714Y-67204819D02*
X160690476Y-67157200D01*
X160690476Y-67157200D02*
X160642857Y-67109580D01*
X92724819Y-86616666D02*
X92248628Y-86949999D01*
X92724819Y-87188094D02*
X91724819Y-87188094D01*
X91724819Y-87188094D02*
X91724819Y-86807142D01*
X91724819Y-86807142D02*
X91772438Y-86711904D01*
X91772438Y-86711904D02*
X91820057Y-86664285D01*
X91820057Y-86664285D02*
X91915295Y-86616666D01*
X91915295Y-86616666D02*
X92058152Y-86616666D01*
X92058152Y-86616666D02*
X92153390Y-86664285D01*
X92153390Y-86664285D02*
X92201009Y-86711904D01*
X92201009Y-86711904D02*
X92248628Y-86807142D01*
X92248628Y-86807142D02*
X92248628Y-87188094D01*
X91724819Y-86283332D02*
X91724819Y-85616666D01*
X91724819Y-85616666D02*
X92724819Y-86045237D01*
X88545833Y-81030518D02*
X88212500Y-80554327D01*
X87974405Y-81030518D02*
X87974405Y-80030518D01*
X87974405Y-80030518D02*
X88355357Y-80030518D01*
X88355357Y-80030518D02*
X88450595Y-80078137D01*
X88450595Y-80078137D02*
X88498214Y-80125756D01*
X88498214Y-80125756D02*
X88545833Y-80220994D01*
X88545833Y-80220994D02*
X88545833Y-80363851D01*
X88545833Y-80363851D02*
X88498214Y-80459089D01*
X88498214Y-80459089D02*
X88450595Y-80506708D01*
X88450595Y-80506708D02*
X88355357Y-80554327D01*
X88355357Y-80554327D02*
X87974405Y-80554327D01*
X89498214Y-81030518D02*
X88926786Y-81030518D01*
X89212500Y-81030518D02*
X89212500Y-80030518D01*
X89212500Y-80030518D02*
X89117262Y-80173375D01*
X89117262Y-80173375D02*
X89022024Y-80268613D01*
X89022024Y-80268613D02*
X88926786Y-80316232D01*
X119929580Y-80642857D02*
X119977200Y-80690476D01*
X119977200Y-80690476D02*
X120024819Y-80833333D01*
X120024819Y-80833333D02*
X120024819Y-80928571D01*
X120024819Y-80928571D02*
X119977200Y-81071428D01*
X119977200Y-81071428D02*
X119881961Y-81166666D01*
X119881961Y-81166666D02*
X119786723Y-81214285D01*
X119786723Y-81214285D02*
X119596247Y-81261904D01*
X119596247Y-81261904D02*
X119453390Y-81261904D01*
X119453390Y-81261904D02*
X119262914Y-81214285D01*
X119262914Y-81214285D02*
X119167676Y-81166666D01*
X119167676Y-81166666D02*
X119072438Y-81071428D01*
X119072438Y-81071428D02*
X119024819Y-80928571D01*
X119024819Y-80928571D02*
X119024819Y-80833333D01*
X119024819Y-80833333D02*
X119072438Y-80690476D01*
X119072438Y-80690476D02*
X119120057Y-80642857D01*
X120024819Y-79690476D02*
X120024819Y-80261904D01*
X120024819Y-79976190D02*
X119024819Y-79976190D01*
X119024819Y-79976190D02*
X119167676Y-80071428D01*
X119167676Y-80071428D02*
X119262914Y-80166666D01*
X119262914Y-80166666D02*
X119310533Y-80261904D01*
X119024819Y-79071428D02*
X119024819Y-78976190D01*
X119024819Y-78976190D02*
X119072438Y-78880952D01*
X119072438Y-78880952D02*
X119120057Y-78833333D01*
X119120057Y-78833333D02*
X119215295Y-78785714D01*
X119215295Y-78785714D02*
X119405771Y-78738095D01*
X119405771Y-78738095D02*
X119643866Y-78738095D01*
X119643866Y-78738095D02*
X119834342Y-78785714D01*
X119834342Y-78785714D02*
X119929580Y-78833333D01*
X119929580Y-78833333D02*
X119977200Y-78880952D01*
X119977200Y-78880952D02*
X120024819Y-78976190D01*
X120024819Y-78976190D02*
X120024819Y-79071428D01*
X120024819Y-79071428D02*
X119977200Y-79166666D01*
X119977200Y-79166666D02*
X119929580Y-79214285D01*
X119929580Y-79214285D02*
X119834342Y-79261904D01*
X119834342Y-79261904D02*
X119643866Y-79309523D01*
X119643866Y-79309523D02*
X119405771Y-79309523D01*
X119405771Y-79309523D02*
X119215295Y-79261904D01*
X119215295Y-79261904D02*
X119120057Y-79214285D01*
X119120057Y-79214285D02*
X119072438Y-79166666D01*
X119072438Y-79166666D02*
X119024819Y-79071428D01*
X157770833Y-76359580D02*
X157723214Y-76407200D01*
X157723214Y-76407200D02*
X157580357Y-76454819D01*
X157580357Y-76454819D02*
X157485119Y-76454819D01*
X157485119Y-76454819D02*
X157342262Y-76407200D01*
X157342262Y-76407200D02*
X157247024Y-76311961D01*
X157247024Y-76311961D02*
X157199405Y-76216723D01*
X157199405Y-76216723D02*
X157151786Y-76026247D01*
X157151786Y-76026247D02*
X157151786Y-75883390D01*
X157151786Y-75883390D02*
X157199405Y-75692914D01*
X157199405Y-75692914D02*
X157247024Y-75597676D01*
X157247024Y-75597676D02*
X157342262Y-75502438D01*
X157342262Y-75502438D02*
X157485119Y-75454819D01*
X157485119Y-75454819D02*
X157580357Y-75454819D01*
X157580357Y-75454819D02*
X157723214Y-75502438D01*
X157723214Y-75502438D02*
X157770833Y-75550057D01*
X158675595Y-75454819D02*
X158199405Y-75454819D01*
X158199405Y-75454819D02*
X158151786Y-75931009D01*
X158151786Y-75931009D02*
X158199405Y-75883390D01*
X158199405Y-75883390D02*
X158294643Y-75835771D01*
X158294643Y-75835771D02*
X158532738Y-75835771D01*
X158532738Y-75835771D02*
X158627976Y-75883390D01*
X158627976Y-75883390D02*
X158675595Y-75931009D01*
X158675595Y-75931009D02*
X158723214Y-76026247D01*
X158723214Y-76026247D02*
X158723214Y-76264342D01*
X158723214Y-76264342D02*
X158675595Y-76359580D01*
X158675595Y-76359580D02*
X158627976Y-76407200D01*
X158627976Y-76407200D02*
X158532738Y-76454819D01*
X158532738Y-76454819D02*
X158294643Y-76454819D01*
X158294643Y-76454819D02*
X158199405Y-76407200D01*
X158199405Y-76407200D02*
X158151786Y-76359580D01*
X147238095Y-83554819D02*
X147238095Y-84364342D01*
X147238095Y-84364342D02*
X147285714Y-84459580D01*
X147285714Y-84459580D02*
X147333333Y-84507200D01*
X147333333Y-84507200D02*
X147428571Y-84554819D01*
X147428571Y-84554819D02*
X147619047Y-84554819D01*
X147619047Y-84554819D02*
X147714285Y-84507200D01*
X147714285Y-84507200D02*
X147761904Y-84459580D01*
X147761904Y-84459580D02*
X147809523Y-84364342D01*
X147809523Y-84364342D02*
X147809523Y-83554819D01*
X148238095Y-83650057D02*
X148285714Y-83602438D01*
X148285714Y-83602438D02*
X148380952Y-83554819D01*
X148380952Y-83554819D02*
X148619047Y-83554819D01*
X148619047Y-83554819D02*
X148714285Y-83602438D01*
X148714285Y-83602438D02*
X148761904Y-83650057D01*
X148761904Y-83650057D02*
X148809523Y-83745295D01*
X148809523Y-83745295D02*
X148809523Y-83840533D01*
X148809523Y-83840533D02*
X148761904Y-83983390D01*
X148761904Y-83983390D02*
X148190476Y-84554819D01*
X148190476Y-84554819D02*
X148809523Y-84554819D01*
X117734819Y-80166666D02*
X117734819Y-80642856D01*
X117734819Y-80642856D02*
X116734819Y-80642856D01*
X117068152Y-79404761D02*
X117734819Y-79404761D01*
X116687200Y-79642856D02*
X117401485Y-79880951D01*
X117401485Y-79880951D02*
X117401485Y-79261904D01*
X88545833Y-84030518D02*
X88212500Y-83554327D01*
X87974405Y-84030518D02*
X87974405Y-83030518D01*
X87974405Y-83030518D02*
X88355357Y-83030518D01*
X88355357Y-83030518D02*
X88450595Y-83078137D01*
X88450595Y-83078137D02*
X88498214Y-83125756D01*
X88498214Y-83125756D02*
X88545833Y-83220994D01*
X88545833Y-83220994D02*
X88545833Y-83363851D01*
X88545833Y-83363851D02*
X88498214Y-83459089D01*
X88498214Y-83459089D02*
X88450595Y-83506708D01*
X88450595Y-83506708D02*
X88355357Y-83554327D01*
X88355357Y-83554327D02*
X87974405Y-83554327D01*
X88926786Y-83125756D02*
X88974405Y-83078137D01*
X88974405Y-83078137D02*
X89069643Y-83030518D01*
X89069643Y-83030518D02*
X89307738Y-83030518D01*
X89307738Y-83030518D02*
X89402976Y-83078137D01*
X89402976Y-83078137D02*
X89450595Y-83125756D01*
X89450595Y-83125756D02*
X89498214Y-83220994D01*
X89498214Y-83220994D02*
X89498214Y-83316232D01*
X89498214Y-83316232D02*
X89450595Y-83459089D01*
X89450595Y-83459089D02*
X88879167Y-84030518D01*
X88879167Y-84030518D02*
X89498214Y-84030518D01*
X95549819Y-73291666D02*
X95073628Y-73624999D01*
X95549819Y-73863094D02*
X94549819Y-73863094D01*
X94549819Y-73863094D02*
X94549819Y-73482142D01*
X94549819Y-73482142D02*
X94597438Y-73386904D01*
X94597438Y-73386904D02*
X94645057Y-73339285D01*
X94645057Y-73339285D02*
X94740295Y-73291666D01*
X94740295Y-73291666D02*
X94883152Y-73291666D01*
X94883152Y-73291666D02*
X94978390Y-73339285D01*
X94978390Y-73339285D02*
X95026009Y-73386904D01*
X95026009Y-73386904D02*
X95073628Y-73482142D01*
X95073628Y-73482142D02*
X95073628Y-73863094D01*
X94549819Y-72958332D02*
X94549819Y-72339285D01*
X94549819Y-72339285D02*
X94930771Y-72672618D01*
X94930771Y-72672618D02*
X94930771Y-72529761D01*
X94930771Y-72529761D02*
X94978390Y-72434523D01*
X94978390Y-72434523D02*
X95026009Y-72386904D01*
X95026009Y-72386904D02*
X95121247Y-72339285D01*
X95121247Y-72339285D02*
X95359342Y-72339285D01*
X95359342Y-72339285D02*
X95454580Y-72386904D01*
X95454580Y-72386904D02*
X95502200Y-72434523D01*
X95502200Y-72434523D02*
X95549819Y-72529761D01*
X95549819Y-72529761D02*
X95549819Y-72815475D01*
X95549819Y-72815475D02*
X95502200Y-72910713D01*
X95502200Y-72910713D02*
X95454580Y-72958332D01*
X123659580Y-88042857D02*
X123707200Y-88090476D01*
X123707200Y-88090476D02*
X123754819Y-88233333D01*
X123754819Y-88233333D02*
X123754819Y-88328571D01*
X123754819Y-88328571D02*
X123707200Y-88471428D01*
X123707200Y-88471428D02*
X123611961Y-88566666D01*
X123611961Y-88566666D02*
X123516723Y-88614285D01*
X123516723Y-88614285D02*
X123326247Y-88661904D01*
X123326247Y-88661904D02*
X123183390Y-88661904D01*
X123183390Y-88661904D02*
X122992914Y-88614285D01*
X122992914Y-88614285D02*
X122897676Y-88566666D01*
X122897676Y-88566666D02*
X122802438Y-88471428D01*
X122802438Y-88471428D02*
X122754819Y-88328571D01*
X122754819Y-88328571D02*
X122754819Y-88233333D01*
X122754819Y-88233333D02*
X122802438Y-88090476D01*
X122802438Y-88090476D02*
X122850057Y-88042857D01*
X123754819Y-87090476D02*
X123754819Y-87661904D01*
X123754819Y-87376190D02*
X122754819Y-87376190D01*
X122754819Y-87376190D02*
X122897676Y-87471428D01*
X122897676Y-87471428D02*
X122992914Y-87566666D01*
X122992914Y-87566666D02*
X123040533Y-87661904D01*
X122754819Y-86233333D02*
X122754819Y-86423809D01*
X122754819Y-86423809D02*
X122802438Y-86519047D01*
X122802438Y-86519047D02*
X122850057Y-86566666D01*
X122850057Y-86566666D02*
X122992914Y-86661904D01*
X122992914Y-86661904D02*
X123183390Y-86709523D01*
X123183390Y-86709523D02*
X123564342Y-86709523D01*
X123564342Y-86709523D02*
X123659580Y-86661904D01*
X123659580Y-86661904D02*
X123707200Y-86614285D01*
X123707200Y-86614285D02*
X123754819Y-86519047D01*
X123754819Y-86519047D02*
X123754819Y-86328571D01*
X123754819Y-86328571D02*
X123707200Y-86233333D01*
X123707200Y-86233333D02*
X123659580Y-86185714D01*
X123659580Y-86185714D02*
X123564342Y-86138095D01*
X123564342Y-86138095D02*
X123326247Y-86138095D01*
X123326247Y-86138095D02*
X123231009Y-86185714D01*
X123231009Y-86185714D02*
X123183390Y-86233333D01*
X123183390Y-86233333D02*
X123135771Y-86328571D01*
X123135771Y-86328571D02*
X123135771Y-86519047D01*
X123135771Y-86519047D02*
X123183390Y-86614285D01*
X123183390Y-86614285D02*
X123231009Y-86661904D01*
X123231009Y-86661904D02*
X123326247Y-86709523D01*
X108616666Y-63354819D02*
X108616666Y-64069104D01*
X108616666Y-64069104D02*
X108569047Y-64211961D01*
X108569047Y-64211961D02*
X108473809Y-64307200D01*
X108473809Y-64307200D02*
X108330952Y-64354819D01*
X108330952Y-64354819D02*
X108235714Y-64354819D01*
X109235714Y-63783390D02*
X109140476Y-63735771D01*
X109140476Y-63735771D02*
X109092857Y-63688152D01*
X109092857Y-63688152D02*
X109045238Y-63592914D01*
X109045238Y-63592914D02*
X109045238Y-63545295D01*
X109045238Y-63545295D02*
X109092857Y-63450057D01*
X109092857Y-63450057D02*
X109140476Y-63402438D01*
X109140476Y-63402438D02*
X109235714Y-63354819D01*
X109235714Y-63354819D02*
X109426190Y-63354819D01*
X109426190Y-63354819D02*
X109521428Y-63402438D01*
X109521428Y-63402438D02*
X109569047Y-63450057D01*
X109569047Y-63450057D02*
X109616666Y-63545295D01*
X109616666Y-63545295D02*
X109616666Y-63592914D01*
X109616666Y-63592914D02*
X109569047Y-63688152D01*
X109569047Y-63688152D02*
X109521428Y-63735771D01*
X109521428Y-63735771D02*
X109426190Y-63783390D01*
X109426190Y-63783390D02*
X109235714Y-63783390D01*
X109235714Y-63783390D02*
X109140476Y-63831009D01*
X109140476Y-63831009D02*
X109092857Y-63878628D01*
X109092857Y-63878628D02*
X109045238Y-63973866D01*
X109045238Y-63973866D02*
X109045238Y-64164342D01*
X109045238Y-64164342D02*
X109092857Y-64259580D01*
X109092857Y-64259580D02*
X109140476Y-64307200D01*
X109140476Y-64307200D02*
X109235714Y-64354819D01*
X109235714Y-64354819D02*
X109426190Y-64354819D01*
X109426190Y-64354819D02*
X109521428Y-64307200D01*
X109521428Y-64307200D02*
X109569047Y-64259580D01*
X109569047Y-64259580D02*
X109616666Y-64164342D01*
X109616666Y-64164342D02*
X109616666Y-63973866D01*
X109616666Y-63973866D02*
X109569047Y-63878628D01*
X109569047Y-63878628D02*
X109521428Y-63831009D01*
X109521428Y-63831009D02*
X109426190Y-63783390D01*
X180238095Y-64254819D02*
X180238095Y-63254819D01*
X180238095Y-63731009D02*
X180809523Y-63731009D01*
X180809523Y-64254819D02*
X180809523Y-63254819D01*
X181714285Y-63588152D02*
X181714285Y-64254819D01*
X181476190Y-63207200D02*
X181238095Y-63921485D01*
X181238095Y-63921485D02*
X181857142Y-63921485D01*
X88179580Y-86442857D02*
X88227200Y-86490476D01*
X88227200Y-86490476D02*
X88274819Y-86633333D01*
X88274819Y-86633333D02*
X88274819Y-86728571D01*
X88274819Y-86728571D02*
X88227200Y-86871428D01*
X88227200Y-86871428D02*
X88131961Y-86966666D01*
X88131961Y-86966666D02*
X88036723Y-87014285D01*
X88036723Y-87014285D02*
X87846247Y-87061904D01*
X87846247Y-87061904D02*
X87703390Y-87061904D01*
X87703390Y-87061904D02*
X87512914Y-87014285D01*
X87512914Y-87014285D02*
X87417676Y-86966666D01*
X87417676Y-86966666D02*
X87322438Y-86871428D01*
X87322438Y-86871428D02*
X87274819Y-86728571D01*
X87274819Y-86728571D02*
X87274819Y-86633333D01*
X87274819Y-86633333D02*
X87322438Y-86490476D01*
X87322438Y-86490476D02*
X87370057Y-86442857D01*
X88274819Y-85490476D02*
X88274819Y-86061904D01*
X88274819Y-85776190D02*
X87274819Y-85776190D01*
X87274819Y-85776190D02*
X87417676Y-85871428D01*
X87417676Y-85871428D02*
X87512914Y-85966666D01*
X87512914Y-85966666D02*
X87560533Y-86061904D01*
X88274819Y-85014285D02*
X88274819Y-84823809D01*
X88274819Y-84823809D02*
X88227200Y-84728571D01*
X88227200Y-84728571D02*
X88179580Y-84680952D01*
X88179580Y-84680952D02*
X88036723Y-84585714D01*
X88036723Y-84585714D02*
X87846247Y-84538095D01*
X87846247Y-84538095D02*
X87465295Y-84538095D01*
X87465295Y-84538095D02*
X87370057Y-84585714D01*
X87370057Y-84585714D02*
X87322438Y-84633333D01*
X87322438Y-84633333D02*
X87274819Y-84728571D01*
X87274819Y-84728571D02*
X87274819Y-84919047D01*
X87274819Y-84919047D02*
X87322438Y-85014285D01*
X87322438Y-85014285D02*
X87370057Y-85061904D01*
X87370057Y-85061904D02*
X87465295Y-85109523D01*
X87465295Y-85109523D02*
X87703390Y-85109523D01*
X87703390Y-85109523D02*
X87798628Y-85061904D01*
X87798628Y-85061904D02*
X87846247Y-85014285D01*
X87846247Y-85014285D02*
X87893866Y-84919047D01*
X87893866Y-84919047D02*
X87893866Y-84728571D01*
X87893866Y-84728571D02*
X87846247Y-84633333D01*
X87846247Y-84633333D02*
X87798628Y-84585714D01*
X87798628Y-84585714D02*
X87703390Y-84538095D01*
X115989580Y-85505357D02*
X116037200Y-85552976D01*
X116037200Y-85552976D02*
X116084819Y-85695833D01*
X116084819Y-85695833D02*
X116084819Y-85791071D01*
X116084819Y-85791071D02*
X116037200Y-85933928D01*
X116037200Y-85933928D02*
X115941961Y-86029166D01*
X115941961Y-86029166D02*
X115846723Y-86076785D01*
X115846723Y-86076785D02*
X115656247Y-86124404D01*
X115656247Y-86124404D02*
X115513390Y-86124404D01*
X115513390Y-86124404D02*
X115322914Y-86076785D01*
X115322914Y-86076785D02*
X115227676Y-86029166D01*
X115227676Y-86029166D02*
X115132438Y-85933928D01*
X115132438Y-85933928D02*
X115084819Y-85791071D01*
X115084819Y-85791071D02*
X115084819Y-85695833D01*
X115084819Y-85695833D02*
X115132438Y-85552976D01*
X115132438Y-85552976D02*
X115180057Y-85505357D01*
X116084819Y-84552976D02*
X116084819Y-85124404D01*
X116084819Y-84838690D02*
X115084819Y-84838690D01*
X115084819Y-84838690D02*
X115227676Y-84933928D01*
X115227676Y-84933928D02*
X115322914Y-85029166D01*
X115322914Y-85029166D02*
X115370533Y-85124404D01*
X115084819Y-83648214D02*
X115084819Y-84124404D01*
X115084819Y-84124404D02*
X115561009Y-84172023D01*
X115561009Y-84172023D02*
X115513390Y-84124404D01*
X115513390Y-84124404D02*
X115465771Y-84029166D01*
X115465771Y-84029166D02*
X115465771Y-83791071D01*
X115465771Y-83791071D02*
X115513390Y-83695833D01*
X115513390Y-83695833D02*
X115561009Y-83648214D01*
X115561009Y-83648214D02*
X115656247Y-83600595D01*
X115656247Y-83600595D02*
X115894342Y-83600595D01*
X115894342Y-83600595D02*
X115989580Y-83648214D01*
X115989580Y-83648214D02*
X116037200Y-83695833D01*
X116037200Y-83695833D02*
X116084819Y-83791071D01*
X116084819Y-83791071D02*
X116084819Y-84029166D01*
X116084819Y-84029166D02*
X116037200Y-84124404D01*
X116037200Y-84124404D02*
X115989580Y-84172023D01*
X212528819Y-68646785D02*
X211528819Y-68646785D01*
X211528819Y-68646785D02*
X211528819Y-68265833D01*
X211528819Y-68265833D02*
X211576438Y-68170595D01*
X211576438Y-68170595D02*
X211624057Y-68122976D01*
X211624057Y-68122976D02*
X211719295Y-68075357D01*
X211719295Y-68075357D02*
X211862152Y-68075357D01*
X211862152Y-68075357D02*
X211957390Y-68122976D01*
X211957390Y-68122976D02*
X212005009Y-68170595D01*
X212005009Y-68170595D02*
X212052628Y-68265833D01*
X212052628Y-68265833D02*
X212052628Y-68646785D01*
X212481200Y-67694404D02*
X212528819Y-67551547D01*
X212528819Y-67551547D02*
X212528819Y-67313452D01*
X212528819Y-67313452D02*
X212481200Y-67218214D01*
X212481200Y-67218214D02*
X212433580Y-67170595D01*
X212433580Y-67170595D02*
X212338342Y-67122976D01*
X212338342Y-67122976D02*
X212243104Y-67122976D01*
X212243104Y-67122976D02*
X212147866Y-67170595D01*
X212147866Y-67170595D02*
X212100247Y-67218214D01*
X212100247Y-67218214D02*
X212052628Y-67313452D01*
X212052628Y-67313452D02*
X212005009Y-67503928D01*
X212005009Y-67503928D02*
X211957390Y-67599166D01*
X211957390Y-67599166D02*
X211909771Y-67646785D01*
X211909771Y-67646785D02*
X211814533Y-67694404D01*
X211814533Y-67694404D02*
X211719295Y-67694404D01*
X211719295Y-67694404D02*
X211624057Y-67646785D01*
X211624057Y-67646785D02*
X211576438Y-67599166D01*
X211576438Y-67599166D02*
X211528819Y-67503928D01*
X211528819Y-67503928D02*
X211528819Y-67265833D01*
X211528819Y-67265833D02*
X211576438Y-67122976D01*
X211624057Y-66742023D02*
X211576438Y-66694404D01*
X211576438Y-66694404D02*
X211528819Y-66599166D01*
X211528819Y-66599166D02*
X211528819Y-66361071D01*
X211528819Y-66361071D02*
X211576438Y-66265833D01*
X211576438Y-66265833D02*
X211624057Y-66218214D01*
X211624057Y-66218214D02*
X211719295Y-66170595D01*
X211719295Y-66170595D02*
X211814533Y-66170595D01*
X211814533Y-66170595D02*
X211957390Y-66218214D01*
X211957390Y-66218214D02*
X212528819Y-66789642D01*
X212528819Y-66789642D02*
X212528819Y-66170595D01*
X180238095Y-89254819D02*
X180238095Y-88254819D01*
X180238095Y-88731009D02*
X180809523Y-88731009D01*
X180809523Y-89254819D02*
X180809523Y-88254819D01*
X181238095Y-88350057D02*
X181285714Y-88302438D01*
X181285714Y-88302438D02*
X181380952Y-88254819D01*
X181380952Y-88254819D02*
X181619047Y-88254819D01*
X181619047Y-88254819D02*
X181714285Y-88302438D01*
X181714285Y-88302438D02*
X181761904Y-88350057D01*
X181761904Y-88350057D02*
X181809523Y-88445295D01*
X181809523Y-88445295D02*
X181809523Y-88540533D01*
X181809523Y-88540533D02*
X181761904Y-88683390D01*
X181761904Y-88683390D02*
X181190476Y-89254819D01*
X181190476Y-89254819D02*
X181809523Y-89254819D01*
X86738095Y-89254819D02*
X86738095Y-88254819D01*
X86738095Y-88731009D02*
X87309523Y-88731009D01*
X87309523Y-89254819D02*
X87309523Y-88254819D01*
X88309523Y-89254819D02*
X87738095Y-89254819D01*
X88023809Y-89254819D02*
X88023809Y-88254819D01*
X88023809Y-88254819D02*
X87928571Y-88397676D01*
X87928571Y-88397676D02*
X87833333Y-88492914D01*
X87833333Y-88492914D02*
X87738095Y-88540533D01*
X142365714Y-75194819D02*
X142365714Y-74194819D01*
X142365714Y-74194819D02*
X142746666Y-74194819D01*
X142746666Y-74194819D02*
X142841904Y-74242438D01*
X142841904Y-74242438D02*
X142889523Y-74290057D01*
X142889523Y-74290057D02*
X142937142Y-74385295D01*
X142937142Y-74385295D02*
X142937142Y-74528152D01*
X142937142Y-74528152D02*
X142889523Y-74623390D01*
X142889523Y-74623390D02*
X142841904Y-74671009D01*
X142841904Y-74671009D02*
X142746666Y-74718628D01*
X142746666Y-74718628D02*
X142365714Y-74718628D01*
X143318095Y-75147200D02*
X143460952Y-75194819D01*
X143460952Y-75194819D02*
X143699047Y-75194819D01*
X143699047Y-75194819D02*
X143794285Y-75147200D01*
X143794285Y-75147200D02*
X143841904Y-75099580D01*
X143841904Y-75099580D02*
X143889523Y-75004342D01*
X143889523Y-75004342D02*
X143889523Y-74909104D01*
X143889523Y-74909104D02*
X143841904Y-74813866D01*
X143841904Y-74813866D02*
X143794285Y-74766247D01*
X143794285Y-74766247D02*
X143699047Y-74718628D01*
X143699047Y-74718628D02*
X143508571Y-74671009D01*
X143508571Y-74671009D02*
X143413333Y-74623390D01*
X143413333Y-74623390D02*
X143365714Y-74575771D01*
X143365714Y-74575771D02*
X143318095Y-74480533D01*
X143318095Y-74480533D02*
X143318095Y-74385295D01*
X143318095Y-74385295D02*
X143365714Y-74290057D01*
X143365714Y-74290057D02*
X143413333Y-74242438D01*
X143413333Y-74242438D02*
X143508571Y-74194819D01*
X143508571Y-74194819D02*
X143746666Y-74194819D01*
X143746666Y-74194819D02*
X143889523Y-74242438D01*
X144841904Y-75194819D02*
X144270476Y-75194819D01*
X144556190Y-75194819D02*
X144556190Y-74194819D01*
X144556190Y-74194819D02*
X144460952Y-74337676D01*
X144460952Y-74337676D02*
X144365714Y-74432914D01*
X144365714Y-74432914D02*
X144270476Y-74480533D01*
X91640476Y-63404819D02*
X91640476Y-64119104D01*
X91640476Y-64119104D02*
X91592857Y-64261961D01*
X91592857Y-64261961D02*
X91497619Y-64357200D01*
X91497619Y-64357200D02*
X91354762Y-64404819D01*
X91354762Y-64404819D02*
X91259524Y-64404819D01*
X92640476Y-64404819D02*
X92069048Y-64404819D01*
X92354762Y-64404819D02*
X92354762Y-63404819D01*
X92354762Y-63404819D02*
X92259524Y-63547676D01*
X92259524Y-63547676D02*
X92164286Y-63642914D01*
X92164286Y-63642914D02*
X92069048Y-63690533D01*
X93259524Y-63404819D02*
X93354762Y-63404819D01*
X93354762Y-63404819D02*
X93450000Y-63452438D01*
X93450000Y-63452438D02*
X93497619Y-63500057D01*
X93497619Y-63500057D02*
X93545238Y-63595295D01*
X93545238Y-63595295D02*
X93592857Y-63785771D01*
X93592857Y-63785771D02*
X93592857Y-64023866D01*
X93592857Y-64023866D02*
X93545238Y-64214342D01*
X93545238Y-64214342D02*
X93497619Y-64309580D01*
X93497619Y-64309580D02*
X93450000Y-64357200D01*
X93450000Y-64357200D02*
X93354762Y-64404819D01*
X93354762Y-64404819D02*
X93259524Y-64404819D01*
X93259524Y-64404819D02*
X93164286Y-64357200D01*
X93164286Y-64357200D02*
X93116667Y-64309580D01*
X93116667Y-64309580D02*
X93069048Y-64214342D01*
X93069048Y-64214342D02*
X93021429Y-64023866D01*
X93021429Y-64023866D02*
X93021429Y-63785771D01*
X93021429Y-63785771D02*
X93069048Y-63595295D01*
X93069048Y-63595295D02*
X93116667Y-63500057D01*
X93116667Y-63500057D02*
X93164286Y-63452438D01*
X93164286Y-63452438D02*
X93259524Y-63404819D01*
X161919580Y-92594166D02*
X161967200Y-92641785D01*
X161967200Y-92641785D02*
X162014819Y-92784642D01*
X162014819Y-92784642D02*
X162014819Y-92879880D01*
X162014819Y-92879880D02*
X161967200Y-93022737D01*
X161967200Y-93022737D02*
X161871961Y-93117975D01*
X161871961Y-93117975D02*
X161776723Y-93165594D01*
X161776723Y-93165594D02*
X161586247Y-93213213D01*
X161586247Y-93213213D02*
X161443390Y-93213213D01*
X161443390Y-93213213D02*
X161252914Y-93165594D01*
X161252914Y-93165594D02*
X161157676Y-93117975D01*
X161157676Y-93117975D02*
X161062438Y-93022737D01*
X161062438Y-93022737D02*
X161014819Y-92879880D01*
X161014819Y-92879880D02*
X161014819Y-92784642D01*
X161014819Y-92784642D02*
X161062438Y-92641785D01*
X161062438Y-92641785D02*
X161110057Y-92594166D01*
X161014819Y-92260832D02*
X161014819Y-91641785D01*
X161014819Y-91641785D02*
X161395771Y-91975118D01*
X161395771Y-91975118D02*
X161395771Y-91832261D01*
X161395771Y-91832261D02*
X161443390Y-91737023D01*
X161443390Y-91737023D02*
X161491009Y-91689404D01*
X161491009Y-91689404D02*
X161586247Y-91641785D01*
X161586247Y-91641785D02*
X161824342Y-91641785D01*
X161824342Y-91641785D02*
X161919580Y-91689404D01*
X161919580Y-91689404D02*
X161967200Y-91737023D01*
X161967200Y-91737023D02*
X162014819Y-91832261D01*
X162014819Y-91832261D02*
X162014819Y-92117975D01*
X162014819Y-92117975D02*
X161967200Y-92213213D01*
X161967200Y-92213213D02*
X161919580Y-92260832D01*
X148616666Y-63354819D02*
X148616666Y-64069104D01*
X148616666Y-64069104D02*
X148569047Y-64211961D01*
X148569047Y-64211961D02*
X148473809Y-64307200D01*
X148473809Y-64307200D02*
X148330952Y-64354819D01*
X148330952Y-64354819D02*
X148235714Y-64354819D01*
X149521428Y-63688152D02*
X149521428Y-64354819D01*
X149283333Y-63307200D02*
X149045238Y-64021485D01*
X149045238Y-64021485D02*
X149664285Y-64021485D01*
X178616666Y-63354819D02*
X178616666Y-64069104D01*
X178616666Y-64069104D02*
X178569047Y-64211961D01*
X178569047Y-64211961D02*
X178473809Y-64307200D01*
X178473809Y-64307200D02*
X178330952Y-64354819D01*
X178330952Y-64354819D02*
X178235714Y-64354819D01*
X179616666Y-64354819D02*
X179045238Y-64354819D01*
X179330952Y-64354819D02*
X179330952Y-63354819D01*
X179330952Y-63354819D02*
X179235714Y-63497676D01*
X179235714Y-63497676D02*
X179140476Y-63592914D01*
X179140476Y-63592914D02*
X179045238Y-63640533D01*
X116159580Y-91842857D02*
X116207200Y-91890476D01*
X116207200Y-91890476D02*
X116254819Y-92033333D01*
X116254819Y-92033333D02*
X116254819Y-92128571D01*
X116254819Y-92128571D02*
X116207200Y-92271428D01*
X116207200Y-92271428D02*
X116111961Y-92366666D01*
X116111961Y-92366666D02*
X116016723Y-92414285D01*
X116016723Y-92414285D02*
X115826247Y-92461904D01*
X115826247Y-92461904D02*
X115683390Y-92461904D01*
X115683390Y-92461904D02*
X115492914Y-92414285D01*
X115492914Y-92414285D02*
X115397676Y-92366666D01*
X115397676Y-92366666D02*
X115302438Y-92271428D01*
X115302438Y-92271428D02*
X115254819Y-92128571D01*
X115254819Y-92128571D02*
X115254819Y-92033333D01*
X115254819Y-92033333D02*
X115302438Y-91890476D01*
X115302438Y-91890476D02*
X115350057Y-91842857D01*
X116254819Y-90890476D02*
X116254819Y-91461904D01*
X116254819Y-91176190D02*
X115254819Y-91176190D01*
X115254819Y-91176190D02*
X115397676Y-91271428D01*
X115397676Y-91271428D02*
X115492914Y-91366666D01*
X115492914Y-91366666D02*
X115540533Y-91461904D01*
X115254819Y-90557142D02*
X115254819Y-89890476D01*
X115254819Y-89890476D02*
X116254819Y-90319047D01*
X158616666Y-63354819D02*
X158616666Y-64069104D01*
X158616666Y-64069104D02*
X158569047Y-64211961D01*
X158569047Y-64211961D02*
X158473809Y-64307200D01*
X158473809Y-64307200D02*
X158330952Y-64354819D01*
X158330952Y-64354819D02*
X158235714Y-64354819D01*
X158997619Y-63354819D02*
X159616666Y-63354819D01*
X159616666Y-63354819D02*
X159283333Y-63735771D01*
X159283333Y-63735771D02*
X159426190Y-63735771D01*
X159426190Y-63735771D02*
X159521428Y-63783390D01*
X159521428Y-63783390D02*
X159569047Y-63831009D01*
X159569047Y-63831009D02*
X159616666Y-63926247D01*
X159616666Y-63926247D02*
X159616666Y-64164342D01*
X159616666Y-64164342D02*
X159569047Y-64259580D01*
X159569047Y-64259580D02*
X159521428Y-64307200D01*
X159521428Y-64307200D02*
X159426190Y-64354819D01*
X159426190Y-64354819D02*
X159140476Y-64354819D01*
X159140476Y-64354819D02*
X159045238Y-64307200D01*
X159045238Y-64307200D02*
X158997619Y-64259580D01*
X97159580Y-87152857D02*
X97207200Y-87200476D01*
X97207200Y-87200476D02*
X97254819Y-87343333D01*
X97254819Y-87343333D02*
X97254819Y-87438571D01*
X97254819Y-87438571D02*
X97207200Y-87581428D01*
X97207200Y-87581428D02*
X97111961Y-87676666D01*
X97111961Y-87676666D02*
X97016723Y-87724285D01*
X97016723Y-87724285D02*
X96826247Y-87771904D01*
X96826247Y-87771904D02*
X96683390Y-87771904D01*
X96683390Y-87771904D02*
X96492914Y-87724285D01*
X96492914Y-87724285D02*
X96397676Y-87676666D01*
X96397676Y-87676666D02*
X96302438Y-87581428D01*
X96302438Y-87581428D02*
X96254819Y-87438571D01*
X96254819Y-87438571D02*
X96254819Y-87343333D01*
X96254819Y-87343333D02*
X96302438Y-87200476D01*
X96302438Y-87200476D02*
X96350057Y-87152857D01*
X96350057Y-86771904D02*
X96302438Y-86724285D01*
X96302438Y-86724285D02*
X96254819Y-86629047D01*
X96254819Y-86629047D02*
X96254819Y-86390952D01*
X96254819Y-86390952D02*
X96302438Y-86295714D01*
X96302438Y-86295714D02*
X96350057Y-86248095D01*
X96350057Y-86248095D02*
X96445295Y-86200476D01*
X96445295Y-86200476D02*
X96540533Y-86200476D01*
X96540533Y-86200476D02*
X96683390Y-86248095D01*
X96683390Y-86248095D02*
X97254819Y-86819523D01*
X97254819Y-86819523D02*
X97254819Y-86200476D01*
X97254819Y-85248095D02*
X97254819Y-85819523D01*
X97254819Y-85533809D02*
X96254819Y-85533809D01*
X96254819Y-85533809D02*
X96397676Y-85629047D01*
X96397676Y-85629047D02*
X96492914Y-85724285D01*
X96492914Y-85724285D02*
X96540533Y-85819523D01*
X113189580Y-85505357D02*
X113237200Y-85552976D01*
X113237200Y-85552976D02*
X113284819Y-85695833D01*
X113284819Y-85695833D02*
X113284819Y-85791071D01*
X113284819Y-85791071D02*
X113237200Y-85933928D01*
X113237200Y-85933928D02*
X113141961Y-86029166D01*
X113141961Y-86029166D02*
X113046723Y-86076785D01*
X113046723Y-86076785D02*
X112856247Y-86124404D01*
X112856247Y-86124404D02*
X112713390Y-86124404D01*
X112713390Y-86124404D02*
X112522914Y-86076785D01*
X112522914Y-86076785D02*
X112427676Y-86029166D01*
X112427676Y-86029166D02*
X112332438Y-85933928D01*
X112332438Y-85933928D02*
X112284819Y-85791071D01*
X112284819Y-85791071D02*
X112284819Y-85695833D01*
X112284819Y-85695833D02*
X112332438Y-85552976D01*
X112332438Y-85552976D02*
X112380057Y-85505357D01*
X113284819Y-84552976D02*
X113284819Y-85124404D01*
X113284819Y-84838690D02*
X112284819Y-84838690D01*
X112284819Y-84838690D02*
X112427676Y-84933928D01*
X112427676Y-84933928D02*
X112522914Y-85029166D01*
X112522914Y-85029166D02*
X112570533Y-85124404D01*
X112618152Y-83695833D02*
X113284819Y-83695833D01*
X112237200Y-83933928D02*
X112951485Y-84172023D01*
X112951485Y-84172023D02*
X112951485Y-83552976D01*
X126304761Y-89750057D02*
X126209523Y-89702438D01*
X126209523Y-89702438D02*
X126114285Y-89607200D01*
X126114285Y-89607200D02*
X125971428Y-89464342D01*
X125971428Y-89464342D02*
X125876190Y-89416723D01*
X125876190Y-89416723D02*
X125780952Y-89416723D01*
X125828571Y-89654819D02*
X125733333Y-89607200D01*
X125733333Y-89607200D02*
X125638095Y-89511961D01*
X125638095Y-89511961D02*
X125590476Y-89321485D01*
X125590476Y-89321485D02*
X125590476Y-88988152D01*
X125590476Y-88988152D02*
X125638095Y-88797676D01*
X125638095Y-88797676D02*
X125733333Y-88702438D01*
X125733333Y-88702438D02*
X125828571Y-88654819D01*
X125828571Y-88654819D02*
X126019047Y-88654819D01*
X126019047Y-88654819D02*
X126114285Y-88702438D01*
X126114285Y-88702438D02*
X126209523Y-88797676D01*
X126209523Y-88797676D02*
X126257142Y-88988152D01*
X126257142Y-88988152D02*
X126257142Y-89321485D01*
X126257142Y-89321485D02*
X126209523Y-89511961D01*
X126209523Y-89511961D02*
X126114285Y-89607200D01*
X126114285Y-89607200D02*
X126019047Y-89654819D01*
X126019047Y-89654819D02*
X125828571Y-89654819D01*
X127209523Y-89654819D02*
X126638095Y-89654819D01*
X126923809Y-89654819D02*
X126923809Y-88654819D01*
X126923809Y-88654819D02*
X126828571Y-88797676D01*
X126828571Y-88797676D02*
X126733333Y-88892914D01*
X126733333Y-88892914D02*
X126638095Y-88940533D01*
X168616666Y-63354819D02*
X168616666Y-64069104D01*
X168616666Y-64069104D02*
X168569047Y-64211961D01*
X168569047Y-64211961D02*
X168473809Y-64307200D01*
X168473809Y-64307200D02*
X168330952Y-64354819D01*
X168330952Y-64354819D02*
X168235714Y-64354819D01*
X169045238Y-63450057D02*
X169092857Y-63402438D01*
X169092857Y-63402438D02*
X169188095Y-63354819D01*
X169188095Y-63354819D02*
X169426190Y-63354819D01*
X169426190Y-63354819D02*
X169521428Y-63402438D01*
X169521428Y-63402438D02*
X169569047Y-63450057D01*
X169569047Y-63450057D02*
X169616666Y-63545295D01*
X169616666Y-63545295D02*
X169616666Y-63640533D01*
X169616666Y-63640533D02*
X169569047Y-63783390D01*
X169569047Y-63783390D02*
X168997619Y-64354819D01*
X168997619Y-64354819D02*
X169616666Y-64354819D01*
X166259580Y-77392857D02*
X166307200Y-77440476D01*
X166307200Y-77440476D02*
X166354819Y-77583333D01*
X166354819Y-77583333D02*
X166354819Y-77678571D01*
X166354819Y-77678571D02*
X166307200Y-77821428D01*
X166307200Y-77821428D02*
X166211961Y-77916666D01*
X166211961Y-77916666D02*
X166116723Y-77964285D01*
X166116723Y-77964285D02*
X165926247Y-78011904D01*
X165926247Y-78011904D02*
X165783390Y-78011904D01*
X165783390Y-78011904D02*
X165592914Y-77964285D01*
X165592914Y-77964285D02*
X165497676Y-77916666D01*
X165497676Y-77916666D02*
X165402438Y-77821428D01*
X165402438Y-77821428D02*
X165354819Y-77678571D01*
X165354819Y-77678571D02*
X165354819Y-77583333D01*
X165354819Y-77583333D02*
X165402438Y-77440476D01*
X165402438Y-77440476D02*
X165450057Y-77392857D01*
X166354819Y-76440476D02*
X166354819Y-77011904D01*
X166354819Y-76726190D02*
X165354819Y-76726190D01*
X165354819Y-76726190D02*
X165497676Y-76821428D01*
X165497676Y-76821428D02*
X165592914Y-76916666D01*
X165592914Y-76916666D02*
X165640533Y-77011904D01*
X165450057Y-76059523D02*
X165402438Y-76011904D01*
X165402438Y-76011904D02*
X165354819Y-75916666D01*
X165354819Y-75916666D02*
X165354819Y-75678571D01*
X165354819Y-75678571D02*
X165402438Y-75583333D01*
X165402438Y-75583333D02*
X165450057Y-75535714D01*
X165450057Y-75535714D02*
X165545295Y-75488095D01*
X165545295Y-75488095D02*
X165640533Y-75488095D01*
X165640533Y-75488095D02*
X165783390Y-75535714D01*
X165783390Y-75535714D02*
X166354819Y-76107142D01*
X166354819Y-76107142D02*
X166354819Y-75488095D01*
X153583333Y-85359580D02*
X153535714Y-85407200D01*
X153535714Y-85407200D02*
X153392857Y-85454819D01*
X153392857Y-85454819D02*
X153297619Y-85454819D01*
X153297619Y-85454819D02*
X153154762Y-85407200D01*
X153154762Y-85407200D02*
X153059524Y-85311961D01*
X153059524Y-85311961D02*
X153011905Y-85216723D01*
X153011905Y-85216723D02*
X152964286Y-85026247D01*
X152964286Y-85026247D02*
X152964286Y-84883390D01*
X152964286Y-84883390D02*
X153011905Y-84692914D01*
X153011905Y-84692914D02*
X153059524Y-84597676D01*
X153059524Y-84597676D02*
X153154762Y-84502438D01*
X153154762Y-84502438D02*
X153297619Y-84454819D01*
X153297619Y-84454819D02*
X153392857Y-84454819D01*
X153392857Y-84454819D02*
X153535714Y-84502438D01*
X153535714Y-84502438D02*
X153583333Y-84550057D01*
X153964286Y-84550057D02*
X154011905Y-84502438D01*
X154011905Y-84502438D02*
X154107143Y-84454819D01*
X154107143Y-84454819D02*
X154345238Y-84454819D01*
X154345238Y-84454819D02*
X154440476Y-84502438D01*
X154440476Y-84502438D02*
X154488095Y-84550057D01*
X154488095Y-84550057D02*
X154535714Y-84645295D01*
X154535714Y-84645295D02*
X154535714Y-84740533D01*
X154535714Y-84740533D02*
X154488095Y-84883390D01*
X154488095Y-84883390D02*
X153916667Y-85454819D01*
X153916667Y-85454819D02*
X154535714Y-85454819D01*
X135083333Y-73674819D02*
X134607143Y-73674819D01*
X134607143Y-73674819D02*
X134607143Y-72674819D01*
X135940476Y-73674819D02*
X135369048Y-73674819D01*
X135654762Y-73674819D02*
X135654762Y-72674819D01*
X135654762Y-72674819D02*
X135559524Y-72817676D01*
X135559524Y-72817676D02*
X135464286Y-72912914D01*
X135464286Y-72912914D02*
X135369048Y-72960533D01*
X135083333Y-80709580D02*
X135035714Y-80757200D01*
X135035714Y-80757200D02*
X134892857Y-80804819D01*
X134892857Y-80804819D02*
X134797619Y-80804819D01*
X134797619Y-80804819D02*
X134654762Y-80757200D01*
X134654762Y-80757200D02*
X134559524Y-80661961D01*
X134559524Y-80661961D02*
X134511905Y-80566723D01*
X134511905Y-80566723D02*
X134464286Y-80376247D01*
X134464286Y-80376247D02*
X134464286Y-80233390D01*
X134464286Y-80233390D02*
X134511905Y-80042914D01*
X134511905Y-80042914D02*
X134559524Y-79947676D01*
X134559524Y-79947676D02*
X134654762Y-79852438D01*
X134654762Y-79852438D02*
X134797619Y-79804819D01*
X134797619Y-79804819D02*
X134892857Y-79804819D01*
X134892857Y-79804819D02*
X135035714Y-79852438D01*
X135035714Y-79852438D02*
X135083333Y-79900057D01*
X135654762Y-80233390D02*
X135559524Y-80185771D01*
X135559524Y-80185771D02*
X135511905Y-80138152D01*
X135511905Y-80138152D02*
X135464286Y-80042914D01*
X135464286Y-80042914D02*
X135464286Y-79995295D01*
X135464286Y-79995295D02*
X135511905Y-79900057D01*
X135511905Y-79900057D02*
X135559524Y-79852438D01*
X135559524Y-79852438D02*
X135654762Y-79804819D01*
X135654762Y-79804819D02*
X135845238Y-79804819D01*
X135845238Y-79804819D02*
X135940476Y-79852438D01*
X135940476Y-79852438D02*
X135988095Y-79900057D01*
X135988095Y-79900057D02*
X136035714Y-79995295D01*
X136035714Y-79995295D02*
X136035714Y-80042914D01*
X136035714Y-80042914D02*
X135988095Y-80138152D01*
X135988095Y-80138152D02*
X135940476Y-80185771D01*
X135940476Y-80185771D02*
X135845238Y-80233390D01*
X135845238Y-80233390D02*
X135654762Y-80233390D01*
X135654762Y-80233390D02*
X135559524Y-80281009D01*
X135559524Y-80281009D02*
X135511905Y-80328628D01*
X135511905Y-80328628D02*
X135464286Y-80423866D01*
X135464286Y-80423866D02*
X135464286Y-80614342D01*
X135464286Y-80614342D02*
X135511905Y-80709580D01*
X135511905Y-80709580D02*
X135559524Y-80757200D01*
X135559524Y-80757200D02*
X135654762Y-80804819D01*
X135654762Y-80804819D02*
X135845238Y-80804819D01*
X135845238Y-80804819D02*
X135940476Y-80757200D01*
X135940476Y-80757200D02*
X135988095Y-80709580D01*
X135988095Y-80709580D02*
X136035714Y-80614342D01*
X136035714Y-80614342D02*
X136035714Y-80423866D01*
X136035714Y-80423866D02*
X135988095Y-80328628D01*
X135988095Y-80328628D02*
X135940476Y-80281009D01*
X135940476Y-80281009D02*
X135845238Y-80233390D01*
X98616666Y-63354819D02*
X98616666Y-64069104D01*
X98616666Y-64069104D02*
X98569047Y-64211961D01*
X98569047Y-64211961D02*
X98473809Y-64307200D01*
X98473809Y-64307200D02*
X98330952Y-64354819D01*
X98330952Y-64354819D02*
X98235714Y-64354819D01*
X99140476Y-64354819D02*
X99330952Y-64354819D01*
X99330952Y-64354819D02*
X99426190Y-64307200D01*
X99426190Y-64307200D02*
X99473809Y-64259580D01*
X99473809Y-64259580D02*
X99569047Y-64116723D01*
X99569047Y-64116723D02*
X99616666Y-63926247D01*
X99616666Y-63926247D02*
X99616666Y-63545295D01*
X99616666Y-63545295D02*
X99569047Y-63450057D01*
X99569047Y-63450057D02*
X99521428Y-63402438D01*
X99521428Y-63402438D02*
X99426190Y-63354819D01*
X99426190Y-63354819D02*
X99235714Y-63354819D01*
X99235714Y-63354819D02*
X99140476Y-63402438D01*
X99140476Y-63402438D02*
X99092857Y-63450057D01*
X99092857Y-63450057D02*
X99045238Y-63545295D01*
X99045238Y-63545295D02*
X99045238Y-63783390D01*
X99045238Y-63783390D02*
X99092857Y-63878628D01*
X99092857Y-63878628D02*
X99140476Y-63926247D01*
X99140476Y-63926247D02*
X99235714Y-63973866D01*
X99235714Y-63973866D02*
X99426190Y-63973866D01*
X99426190Y-63973866D02*
X99521428Y-63926247D01*
X99521428Y-63926247D02*
X99569047Y-63878628D01*
X99569047Y-63878628D02*
X99616666Y-63783390D01*
X93111779Y-74267319D02*
X93111779Y-75076842D01*
X93111779Y-75076842D02*
X93159398Y-75172080D01*
X93159398Y-75172080D02*
X93207017Y-75219700D01*
X93207017Y-75219700D02*
X93302255Y-75267319D01*
X93302255Y-75267319D02*
X93492731Y-75267319D01*
X93492731Y-75267319D02*
X93587969Y-75219700D01*
X93587969Y-75219700D02*
X93635588Y-75172080D01*
X93635588Y-75172080D02*
X93683207Y-75076842D01*
X93683207Y-75076842D02*
X93683207Y-74267319D01*
X94587969Y-74600652D02*
X94587969Y-75267319D01*
X94349874Y-74219700D02*
X94111779Y-74933985D01*
X94111779Y-74933985D02*
X94730826Y-74933985D01*
X175849580Y-92594166D02*
X175897200Y-92641785D01*
X175897200Y-92641785D02*
X175944819Y-92784642D01*
X175944819Y-92784642D02*
X175944819Y-92879880D01*
X175944819Y-92879880D02*
X175897200Y-93022737D01*
X175897200Y-93022737D02*
X175801961Y-93117975D01*
X175801961Y-93117975D02*
X175706723Y-93165594D01*
X175706723Y-93165594D02*
X175516247Y-93213213D01*
X175516247Y-93213213D02*
X175373390Y-93213213D01*
X175373390Y-93213213D02*
X175182914Y-93165594D01*
X175182914Y-93165594D02*
X175087676Y-93117975D01*
X175087676Y-93117975D02*
X174992438Y-93022737D01*
X174992438Y-93022737D02*
X174944819Y-92879880D01*
X174944819Y-92879880D02*
X174944819Y-92784642D01*
X174944819Y-92784642D02*
X174992438Y-92641785D01*
X174992438Y-92641785D02*
X175040057Y-92594166D01*
X175278152Y-91737023D02*
X175944819Y-91737023D01*
X174897200Y-91975118D02*
X175611485Y-92213213D01*
X175611485Y-92213213D02*
X175611485Y-91594166D01*
X104354819Y-65416666D02*
X104354819Y-65892856D01*
X104354819Y-65892856D02*
X103354819Y-65892856D01*
X103354819Y-65178570D02*
X103354819Y-64559523D01*
X103354819Y-64559523D02*
X103735771Y-64892856D01*
X103735771Y-64892856D02*
X103735771Y-64749999D01*
X103735771Y-64749999D02*
X103783390Y-64654761D01*
X103783390Y-64654761D02*
X103831009Y-64607142D01*
X103831009Y-64607142D02*
X103926247Y-64559523D01*
X103926247Y-64559523D02*
X104164342Y-64559523D01*
X104164342Y-64559523D02*
X104259580Y-64607142D01*
X104259580Y-64607142D02*
X104307200Y-64654761D01*
X104307200Y-64654761D02*
X104354819Y-64749999D01*
X104354819Y-64749999D02*
X104354819Y-65035713D01*
X104354819Y-65035713D02*
X104307200Y-65130951D01*
X104307200Y-65130951D02*
X104259580Y-65178570D01*
X98499819Y-73279166D02*
X98023628Y-73612499D01*
X98499819Y-73850594D02*
X97499819Y-73850594D01*
X97499819Y-73850594D02*
X97499819Y-73469642D01*
X97499819Y-73469642D02*
X97547438Y-73374404D01*
X97547438Y-73374404D02*
X97595057Y-73326785D01*
X97595057Y-73326785D02*
X97690295Y-73279166D01*
X97690295Y-73279166D02*
X97833152Y-73279166D01*
X97833152Y-73279166D02*
X97928390Y-73326785D01*
X97928390Y-73326785D02*
X97976009Y-73374404D01*
X97976009Y-73374404D02*
X98023628Y-73469642D01*
X98023628Y-73469642D02*
X98023628Y-73850594D01*
X97833152Y-72422023D02*
X98499819Y-72422023D01*
X97452200Y-72660118D02*
X98166485Y-72898213D01*
X98166485Y-72898213D02*
X98166485Y-72279166D01*
X165583333Y-79954819D02*
X165107143Y-79954819D01*
X165107143Y-79954819D02*
X165107143Y-78954819D01*
X165869048Y-79050057D02*
X165916667Y-79002438D01*
X165916667Y-79002438D02*
X166011905Y-78954819D01*
X166011905Y-78954819D02*
X166250000Y-78954819D01*
X166250000Y-78954819D02*
X166345238Y-79002438D01*
X166345238Y-79002438D02*
X166392857Y-79050057D01*
X166392857Y-79050057D02*
X166440476Y-79145295D01*
X166440476Y-79145295D02*
X166440476Y-79240533D01*
X166440476Y-79240533D02*
X166392857Y-79383390D01*
X166392857Y-79383390D02*
X165821429Y-79954819D01*
X165821429Y-79954819D02*
X166440476Y-79954819D01*
X170238095Y-82454819D02*
X170238095Y-83264342D01*
X170238095Y-83264342D02*
X170285714Y-83359580D01*
X170285714Y-83359580D02*
X170333333Y-83407200D01*
X170333333Y-83407200D02*
X170428571Y-83454819D01*
X170428571Y-83454819D02*
X170619047Y-83454819D01*
X170619047Y-83454819D02*
X170714285Y-83407200D01*
X170714285Y-83407200D02*
X170761904Y-83359580D01*
X170761904Y-83359580D02*
X170809523Y-83264342D01*
X170809523Y-83264342D02*
X170809523Y-82454819D01*
X171809523Y-83454819D02*
X171238095Y-83454819D01*
X171523809Y-83454819D02*
X171523809Y-82454819D01*
X171523809Y-82454819D02*
X171428571Y-82597676D01*
X171428571Y-82597676D02*
X171333333Y-82692914D01*
X171333333Y-82692914D02*
X171238095Y-82740533D01*
X162259580Y-77392857D02*
X162307200Y-77440476D01*
X162307200Y-77440476D02*
X162354819Y-77583333D01*
X162354819Y-77583333D02*
X162354819Y-77678571D01*
X162354819Y-77678571D02*
X162307200Y-77821428D01*
X162307200Y-77821428D02*
X162211961Y-77916666D01*
X162211961Y-77916666D02*
X162116723Y-77964285D01*
X162116723Y-77964285D02*
X161926247Y-78011904D01*
X161926247Y-78011904D02*
X161783390Y-78011904D01*
X161783390Y-78011904D02*
X161592914Y-77964285D01*
X161592914Y-77964285D02*
X161497676Y-77916666D01*
X161497676Y-77916666D02*
X161402438Y-77821428D01*
X161402438Y-77821428D02*
X161354819Y-77678571D01*
X161354819Y-77678571D02*
X161354819Y-77583333D01*
X161354819Y-77583333D02*
X161402438Y-77440476D01*
X161402438Y-77440476D02*
X161450057Y-77392857D01*
X162354819Y-76440476D02*
X162354819Y-77011904D01*
X162354819Y-76726190D02*
X161354819Y-76726190D01*
X161354819Y-76726190D02*
X161497676Y-76821428D01*
X161497676Y-76821428D02*
X161592914Y-76916666D01*
X161592914Y-76916666D02*
X161640533Y-77011904D01*
X162354819Y-75488095D02*
X162354819Y-76059523D01*
X162354819Y-75773809D02*
X161354819Y-75773809D01*
X161354819Y-75773809D02*
X161497676Y-75869047D01*
X161497676Y-75869047D02*
X161592914Y-75964285D01*
X161592914Y-75964285D02*
X161640533Y-76059523D01*
X110149580Y-87452857D02*
X110197200Y-87500476D01*
X110197200Y-87500476D02*
X110244819Y-87643333D01*
X110244819Y-87643333D02*
X110244819Y-87738571D01*
X110244819Y-87738571D02*
X110197200Y-87881428D01*
X110197200Y-87881428D02*
X110101961Y-87976666D01*
X110101961Y-87976666D02*
X110006723Y-88024285D01*
X110006723Y-88024285D02*
X109816247Y-88071904D01*
X109816247Y-88071904D02*
X109673390Y-88071904D01*
X109673390Y-88071904D02*
X109482914Y-88024285D01*
X109482914Y-88024285D02*
X109387676Y-87976666D01*
X109387676Y-87976666D02*
X109292438Y-87881428D01*
X109292438Y-87881428D02*
X109244819Y-87738571D01*
X109244819Y-87738571D02*
X109244819Y-87643333D01*
X109244819Y-87643333D02*
X109292438Y-87500476D01*
X109292438Y-87500476D02*
X109340057Y-87452857D01*
X110244819Y-86500476D02*
X110244819Y-87071904D01*
X110244819Y-86786190D02*
X109244819Y-86786190D01*
X109244819Y-86786190D02*
X109387676Y-86881428D01*
X109387676Y-86881428D02*
X109482914Y-86976666D01*
X109482914Y-86976666D02*
X109530533Y-87071904D01*
X109673390Y-85929047D02*
X109625771Y-86024285D01*
X109625771Y-86024285D02*
X109578152Y-86071904D01*
X109578152Y-86071904D02*
X109482914Y-86119523D01*
X109482914Y-86119523D02*
X109435295Y-86119523D01*
X109435295Y-86119523D02*
X109340057Y-86071904D01*
X109340057Y-86071904D02*
X109292438Y-86024285D01*
X109292438Y-86024285D02*
X109244819Y-85929047D01*
X109244819Y-85929047D02*
X109244819Y-85738571D01*
X109244819Y-85738571D02*
X109292438Y-85643333D01*
X109292438Y-85643333D02*
X109340057Y-85595714D01*
X109340057Y-85595714D02*
X109435295Y-85548095D01*
X109435295Y-85548095D02*
X109482914Y-85548095D01*
X109482914Y-85548095D02*
X109578152Y-85595714D01*
X109578152Y-85595714D02*
X109625771Y-85643333D01*
X109625771Y-85643333D02*
X109673390Y-85738571D01*
X109673390Y-85738571D02*
X109673390Y-85929047D01*
X109673390Y-85929047D02*
X109721009Y-86024285D01*
X109721009Y-86024285D02*
X109768628Y-86071904D01*
X109768628Y-86071904D02*
X109863866Y-86119523D01*
X109863866Y-86119523D02*
X110054342Y-86119523D01*
X110054342Y-86119523D02*
X110149580Y-86071904D01*
X110149580Y-86071904D02*
X110197200Y-86024285D01*
X110197200Y-86024285D02*
X110244819Y-85929047D01*
X110244819Y-85929047D02*
X110244819Y-85738571D01*
X110244819Y-85738571D02*
X110197200Y-85643333D01*
X110197200Y-85643333D02*
X110149580Y-85595714D01*
X110149580Y-85595714D02*
X110054342Y-85548095D01*
X110054342Y-85548095D02*
X109863866Y-85548095D01*
X109863866Y-85548095D02*
X109768628Y-85595714D01*
X109768628Y-85595714D02*
X109721009Y-85643333D01*
X109721009Y-85643333D02*
X109673390Y-85738571D01*
D11*
%TO.C,J14*%
X100500000Y-81750000D02*
X100500000Y-80510000D01*
X102990000Y-79260000D02*
X101750000Y-79260000D01*
X102990000Y-83000000D02*
X101750000Y-83000000D01*
X104240000Y-81750000D02*
X104240000Y-80510000D01*
%TO.C,J13*%
X118000000Y-72350000D02*
X118000000Y-71110000D01*
X120490000Y-69860000D02*
X119250000Y-69860000D01*
X120490000Y-73600000D02*
X119250000Y-73600000D01*
X121740000Y-72350000D02*
X121740000Y-71110000D01*
%TO.C,J12*%
X108260000Y-75750000D02*
X108260000Y-74510000D01*
X110750000Y-73260000D02*
X109510000Y-73260000D01*
X110750000Y-77000000D02*
X109510000Y-77000000D01*
X112000000Y-75750000D02*
X112000000Y-74510000D01*
%TO.C,C7*%
X157853733Y-87490000D02*
X158146267Y-87490000D01*
X157853733Y-88510000D02*
X158146267Y-88510000D01*
D12*
%TO.C,U6*%
X93463600Y-92126400D02*
X96816400Y-92126400D01*
X96816400Y-88773600D02*
X93463600Y-88773600D01*
D11*
%TO.C,C22*%
X107540000Y-92663733D02*
X107540000Y-92956267D01*
X106520000Y-92663733D02*
X106520000Y-92956267D01*
%TO.C,C6*%
X157853733Y-79490000D02*
X158146267Y-79490000D01*
X157853733Y-80510000D02*
X158146267Y-80510000D01*
%TO.C,C1*%
X138841267Y-82875000D02*
X138548733Y-82875000D01*
X138841267Y-81855000D02*
X138548733Y-81855000D01*
%TO.C,R5*%
X126542224Y-87122500D02*
X126032776Y-87122500D01*
X126542224Y-86077500D02*
X126032776Y-86077500D01*
%TO.C,U3*%
X158367500Y-82390000D02*
X156567500Y-82390000D01*
X158367500Y-82390000D02*
X159167500Y-82390000D01*
X158367500Y-85510000D02*
X157567500Y-85510000D01*
X158367500Y-85510000D02*
X159167500Y-85510000D01*
%TO.C,C9*%
X92585000Y-77566233D02*
X92585000Y-77858767D01*
X91565000Y-77566233D02*
X91565000Y-77858767D01*
%TO.C,J5*%
X143010000Y-61410000D02*
X141990000Y-61410000D01*
X143010000Y-57160000D02*
X143010000Y-61410000D01*
X141990000Y-61410000D02*
X141990000Y-59810000D01*
X141990000Y-59810000D02*
X140710000Y-59810000D01*
X141290000Y-53590000D02*
X136610000Y-53590000D01*
X140710000Y-59810000D02*
X140710000Y-62700000D01*
X135910000Y-61410000D02*
X135910000Y-59810000D01*
X135910000Y-59810000D02*
X137190000Y-59810000D01*
X134890000Y-61410000D02*
X135910000Y-61410000D01*
X134890000Y-57160000D02*
X134890000Y-61410000D01*
%TO.C,J6*%
X133010000Y-61410000D02*
X131990000Y-61410000D01*
X133010000Y-57160000D02*
X133010000Y-61410000D01*
X131990000Y-61410000D02*
X131990000Y-59810000D01*
X131990000Y-59810000D02*
X130710000Y-59810000D01*
X131290000Y-53590000D02*
X126610000Y-53590000D01*
X130710000Y-59810000D02*
X130710000Y-62700000D01*
X125910000Y-61410000D02*
X125910000Y-59810000D01*
X125910000Y-59810000D02*
X127190000Y-59810000D01*
X124890000Y-61410000D02*
X125910000Y-61410000D01*
X124890000Y-57160000D02*
X124890000Y-61410000D01*
%TO.C,R6*%
X90157500Y-86754724D02*
X90157500Y-86245276D01*
X91202500Y-86754724D02*
X91202500Y-86245276D01*
%TO.C,J7*%
X123010000Y-61410000D02*
X121990000Y-61410000D01*
X123010000Y-57160000D02*
X123010000Y-61410000D01*
X121990000Y-61410000D02*
X121990000Y-59810000D01*
X121990000Y-59810000D02*
X120710000Y-59810000D01*
X121290000Y-53590000D02*
X116610000Y-53590000D01*
X120710000Y-59810000D02*
X120710000Y-62700000D01*
X115910000Y-61410000D02*
X115910000Y-59810000D01*
X115910000Y-59810000D02*
X117190000Y-59810000D01*
X114890000Y-61410000D02*
X115910000Y-61410000D01*
X114890000Y-57160000D02*
X114890000Y-61410000D01*
%TO.C,C13*%
X156523752Y-68460000D02*
X154201248Y-68460000D01*
X156523752Y-65040000D02*
X154201248Y-65040000D01*
%TO.C,R7*%
X94102500Y-86205276D02*
X94102500Y-86714724D01*
X93057500Y-86205276D02*
X93057500Y-86714724D01*
%TO.C,R1*%
X88967224Y-79668199D02*
X88457776Y-79668199D01*
X88967224Y-78623199D02*
X88457776Y-78623199D01*
%TO.C,C10*%
X120490000Y-80146267D02*
X120490000Y-79853733D01*
X121510000Y-80146267D02*
X121510000Y-79853733D01*
%TO.C,C5*%
X157288748Y-77090000D02*
X158711252Y-77090000D01*
X157288748Y-78910000D02*
X158711252Y-78910000D01*
%TO.C,U2*%
X148000000Y-84940000D02*
X144550000Y-84940000D01*
X148000000Y-84940000D02*
X149950000Y-84940000D01*
X148000000Y-95060000D02*
X146050000Y-95060000D01*
X148000000Y-95060000D02*
X149950000Y-95060000D01*
%TO.C,L4*%
X116360000Y-79397936D02*
X116360000Y-80602064D01*
X113640000Y-79397936D02*
X113640000Y-80602064D01*
%TO.C,R2*%
X88967224Y-82668199D02*
X88457776Y-82668199D01*
X88967224Y-81623199D02*
X88457776Y-81623199D01*
%TO.C,R3*%
X96002500Y-73379724D02*
X96002500Y-72870276D01*
X97047500Y-73379724D02*
X97047500Y-72870276D01*
%TO.C,C16*%
X121285000Y-83775000D02*
X121285000Y-84400000D01*
X121597500Y-84087500D02*
X120972500Y-84087500D01*
X121295563Y-84640000D02*
X120660000Y-84640000D01*
X121295563Y-84640000D02*
X122360000Y-85704437D01*
X117904437Y-84640000D02*
X118540000Y-84640000D01*
X117904437Y-84640000D02*
X116840000Y-85704437D01*
X122360000Y-85704437D02*
X122360000Y-90160000D01*
X116840000Y-85704437D02*
X116840000Y-90160000D01*
X122360000Y-90160000D02*
X120660000Y-90160000D01*
X116840000Y-90160000D02*
X118540000Y-90160000D01*
%TO.C,J8*%
X113010000Y-61410000D02*
X111990000Y-61410000D01*
X113010000Y-57160000D02*
X113010000Y-61410000D01*
X111990000Y-61410000D02*
X111990000Y-59810000D01*
X111990000Y-59810000D02*
X110710000Y-59810000D01*
X111290000Y-53590000D02*
X106610000Y-53590000D01*
X110710000Y-59810000D02*
X110710000Y-62700000D01*
X105910000Y-61410000D02*
X105910000Y-59810000D01*
X105910000Y-59810000D02*
X107190000Y-59810000D01*
X104890000Y-61410000D02*
X105910000Y-61410000D01*
X104890000Y-57160000D02*
X104890000Y-61410000D01*
%TO.C,C19*%
X86875000Y-85538748D02*
X86875000Y-86061252D01*
X85405000Y-85538748D02*
X85405000Y-86061252D01*
%TO.C,C15*%
X114710000Y-84716233D02*
X114710000Y-85008767D01*
X113690000Y-84716233D02*
X113690000Y-85008767D01*
%TO.C,PS2*%
X161282500Y-68682500D02*
X160082500Y-68682500D01*
X161082500Y-68882500D02*
X149312500Y-68882500D01*
X161282500Y-69882500D02*
X161282500Y-68682500D01*
X161082500Y-75222500D02*
X161082500Y-68882500D01*
X161082500Y-75222500D02*
X149312500Y-75222500D01*
X149312500Y-75222500D02*
X149312500Y-68882500D01*
%TO.C,PS1*%
X141967500Y-82317500D02*
X143167500Y-82317500D01*
X142167500Y-82117500D02*
X153937500Y-82117500D01*
X141967500Y-81117500D02*
X141967500Y-82317500D01*
X142167500Y-75777500D02*
X142167500Y-82117500D01*
X142167500Y-75777500D02*
X153937500Y-75777500D01*
X153937500Y-75777500D02*
X153937500Y-82117500D01*
%TO.C,J10*%
X93010000Y-61410000D02*
X91990000Y-61410000D01*
X93010000Y-57160000D02*
X93010000Y-61410000D01*
X91990000Y-61410000D02*
X91990000Y-59810000D01*
X91990000Y-59810000D02*
X90710000Y-59810000D01*
X91290000Y-53590000D02*
X86610000Y-53590000D01*
X90710000Y-59810000D02*
X90710000Y-62700000D01*
X85910000Y-61410000D02*
X85910000Y-59810000D01*
X85910000Y-59810000D02*
X87190000Y-59810000D01*
X84890000Y-61410000D02*
X85910000Y-61410000D01*
X84890000Y-57160000D02*
X84890000Y-61410000D01*
%TO.C,C3*%
X163570000Y-92281233D02*
X163570000Y-92573767D01*
X162550000Y-92281233D02*
X162550000Y-92573767D01*
%TO.C,J4*%
X153010000Y-61410000D02*
X151990000Y-61410000D01*
X153010000Y-57160000D02*
X153010000Y-61410000D01*
X151990000Y-61410000D02*
X151990000Y-59810000D01*
X151990000Y-59810000D02*
X150710000Y-59810000D01*
X151290000Y-53590000D02*
X146610000Y-53590000D01*
X150710000Y-59810000D02*
X150710000Y-62700000D01*
X145910000Y-61410000D02*
X145910000Y-59810000D01*
X145910000Y-59810000D02*
X147190000Y-59810000D01*
X144890000Y-61410000D02*
X145910000Y-61410000D01*
X144890000Y-57160000D02*
X144890000Y-61410000D01*
%TO.C,J1*%
X183010000Y-61410000D02*
X181990000Y-61410000D01*
X183010000Y-57160000D02*
X183010000Y-61410000D01*
X181990000Y-61410000D02*
X181990000Y-59810000D01*
X181990000Y-59810000D02*
X180710000Y-59810000D01*
X181290000Y-53590000D02*
X176610000Y-53590000D01*
X180710000Y-59810000D02*
X180710000Y-62700000D01*
X175910000Y-61410000D02*
X175910000Y-59810000D01*
X175910000Y-59810000D02*
X177190000Y-59810000D01*
X174890000Y-61410000D02*
X175910000Y-61410000D01*
X174890000Y-57160000D02*
X174890000Y-61410000D01*
%TO.C,C17*%
X113885000Y-87175000D02*
X113885000Y-87800000D01*
X114197500Y-87487500D02*
X113572500Y-87487500D01*
X113895563Y-88040000D02*
X113260000Y-88040000D01*
X113895563Y-88040000D02*
X114960000Y-89104437D01*
X110504437Y-88040000D02*
X111140000Y-88040000D01*
X110504437Y-88040000D02*
X109440000Y-89104437D01*
X114960000Y-89104437D02*
X114960000Y-93560000D01*
X109440000Y-89104437D02*
X109440000Y-93560000D01*
X114960000Y-93560000D02*
X113260000Y-93560000D01*
X109440000Y-93560000D02*
X111140000Y-93560000D01*
%TO.C,J3*%
X163010000Y-61410000D02*
X161990000Y-61410000D01*
X163010000Y-57160000D02*
X163010000Y-61410000D01*
X161990000Y-61410000D02*
X161990000Y-59810000D01*
X161990000Y-59810000D02*
X160710000Y-59810000D01*
X161290000Y-53590000D02*
X156610000Y-53590000D01*
X160710000Y-59810000D02*
X160710000Y-62700000D01*
X155910000Y-61410000D02*
X155910000Y-59810000D01*
X155910000Y-59810000D02*
X157190000Y-59810000D01*
X154890000Y-61410000D02*
X155910000Y-61410000D01*
X154890000Y-57160000D02*
X154890000Y-61410000D01*
%TO.C,C21*%
X95880000Y-86363733D02*
X95880000Y-86656267D01*
X94860000Y-86363733D02*
X94860000Y-86656267D01*
%TO.C,C14*%
X111910000Y-84716233D02*
X111910000Y-85008767D01*
X110890000Y-84716233D02*
X110890000Y-85008767D01*
%TO.C,Q1*%
X126400000Y-90040000D02*
X124725000Y-90040000D01*
X126400000Y-90040000D02*
X127050000Y-90040000D01*
X126400000Y-93160000D02*
X125750000Y-93160000D01*
X126400000Y-93160000D02*
X127050000Y-93160000D01*
%TO.C,J2*%
X173010000Y-61410000D02*
X171990000Y-61410000D01*
X173010000Y-57160000D02*
X173010000Y-61410000D01*
X171990000Y-61410000D02*
X171990000Y-59810000D01*
X171990000Y-59810000D02*
X170710000Y-59810000D01*
X171290000Y-53590000D02*
X166610000Y-53590000D01*
X170710000Y-59810000D02*
X170710000Y-62700000D01*
X165910000Y-61410000D02*
X165910000Y-59810000D01*
X165910000Y-59810000D02*
X167190000Y-59810000D01*
X164890000Y-61410000D02*
X165910000Y-61410000D01*
X164890000Y-57160000D02*
X164890000Y-61410000D01*
%TO.C,C12*%
X166840000Y-77461252D02*
X166840000Y-76038748D01*
X168660000Y-77461252D02*
X168660000Y-76038748D01*
%TO.C,C2*%
X151853733Y-82990000D02*
X152146267Y-82990000D01*
X151853733Y-84010000D02*
X152146267Y-84010000D01*
%TO.C,L1*%
X134647936Y-74140000D02*
X135852064Y-74140000D01*
X134647936Y-76860000D02*
X135852064Y-76860000D01*
%TO.C,C8*%
X135961252Y-79410000D02*
X134538748Y-79410000D01*
X135961252Y-77590000D02*
X134538748Y-77590000D01*
%TO.C,J9*%
X103010000Y-61410000D02*
X101990000Y-61410000D01*
X103010000Y-57160000D02*
X103010000Y-61410000D01*
X101990000Y-61410000D02*
X101990000Y-59810000D01*
X101990000Y-59810000D02*
X100710000Y-59810000D01*
X101290000Y-53590000D02*
X96610000Y-53590000D01*
X100710000Y-59810000D02*
X100710000Y-62700000D01*
X95910000Y-61410000D02*
X95910000Y-59810000D01*
X95910000Y-59810000D02*
X97190000Y-59810000D01*
X94890000Y-61410000D02*
X95910000Y-61410000D01*
X94890000Y-57160000D02*
X94890000Y-61410000D01*
D13*
%TO.C,U4*%
X93094000Y-77937000D02*
X98146000Y-77937000D01*
X93094000Y-80979000D02*
X93094000Y-77937000D01*
X98146000Y-77937000D02*
X98146000Y-80979000D01*
X98146000Y-80979000D02*
X93094000Y-80979000D01*
D14*
X93119000Y-82230000D02*
G75*
G03*
X93119000Y-82230000I-151000J0D01*
G01*
X93865000Y-80227000D02*
G75*
G03*
X93865000Y-80227000I-150000J0D01*
G01*
D11*
%TO.C,C4*%
X174570000Y-92281233D02*
X174570000Y-92573767D01*
X173550000Y-92281233D02*
X173550000Y-92573767D01*
%TO.C,L3*%
X105810000Y-65253733D02*
X105810000Y-65596267D01*
X104790000Y-65253733D02*
X104790000Y-65596267D01*
%TO.C,R4*%
X98952500Y-73367224D02*
X98952500Y-72857776D01*
X99997500Y-73367224D02*
X99997500Y-72857776D01*
%TO.C,L2*%
X164647936Y-80390000D02*
X165852064Y-80390000D01*
X164647936Y-83110000D02*
X165852064Y-83110000D01*
D10*
%TO.C,U1*%
X165100000Y-84050000D02*
X170825000Y-84050000D01*
X166175000Y-90875000D02*
X166175000Y-90850000D01*
X166175000Y-90875000D02*
X170825000Y-90875000D01*
X170825000Y-84050000D02*
X170825000Y-84150000D01*
X170825000Y-90875000D02*
X170825000Y-90850000D01*
D11*
%TO.C,C11*%
X162840000Y-77461252D02*
X162840000Y-76038748D01*
X164660000Y-77461252D02*
X164660000Y-76038748D01*
%TO.C,C18*%
X108845000Y-86548748D02*
X108845000Y-87071252D01*
X107375000Y-86548748D02*
X107375000Y-87071252D01*
%TD*%
%LPC*%
D15*
%TO.C,J14*%
X102370000Y-81130000D03*
X101100000Y-79860000D03*
X101100000Y-82400000D03*
X103640000Y-79860000D03*
X103640000Y-82400000D03*
%TD*%
%TO.C,J13*%
X119870000Y-71730000D03*
X118600000Y-70460000D03*
X118600000Y-73000000D03*
X121140000Y-70460000D03*
X121140000Y-73000000D03*
%TD*%
%TO.C,J12*%
X110130000Y-75130000D03*
X108860000Y-73860000D03*
X108860000Y-76400000D03*
X111400000Y-73860000D03*
X111400000Y-76400000D03*
%TD*%
D16*
%TO.C,C7*%
X157137500Y-88000000D03*
X158862500Y-88000000D03*
%TD*%
D17*
%TO.C,U6*%
X92926652Y-89475001D03*
X92926652Y-90124999D03*
X92926652Y-90775001D03*
X92926652Y-91424999D03*
X97353348Y-91424999D03*
X97353348Y-90775001D03*
X97353348Y-90124999D03*
X97353348Y-89475001D03*
D18*
X95140000Y-90450000D03*
%TD*%
D19*
%TO.C,C22*%
X107030000Y-91947500D03*
X107030000Y-93672500D03*
%TD*%
D16*
%TO.C,C6*%
X157137500Y-80000000D03*
X158862500Y-80000000D03*
%TD*%
D20*
%TO.C,C1*%
X139557500Y-82365000D03*
X137832500Y-82365000D03*
%TD*%
D21*
%TO.C,R5*%
X127200000Y-86600000D03*
X125375000Y-86600000D03*
%TD*%
D22*
%TO.C,U3*%
X157230000Y-83000000D03*
X157230000Y-83950000D03*
X157230000Y-84900000D03*
X159505000Y-84900000D03*
X159505000Y-83000000D03*
%TD*%
D19*
%TO.C,C9*%
X92075000Y-76850000D03*
X92075000Y-78575000D03*
%TD*%
D23*
%TO.C,J5*%
X139950000Y-60950000D03*
X137950000Y-60950000D03*
D24*
X142300000Y-55200000D03*
X135600000Y-55200000D03*
%TD*%
D23*
%TO.C,J6*%
X129950000Y-60950000D03*
X127950000Y-60950000D03*
D24*
X132300000Y-55200000D03*
X125600000Y-55200000D03*
%TD*%
D25*
%TO.C,R6*%
X90680000Y-87412500D03*
X90680000Y-85587500D03*
%TD*%
D26*
%TO.C,H3*%
X85850000Y-67000000D03*
X86333274Y-65833274D03*
X86333274Y-68166726D03*
X87500000Y-65350000D03*
D27*
X87500000Y-67000000D03*
D26*
X87500000Y-68650000D03*
X88666726Y-65833274D03*
X88666726Y-68166726D03*
X89150000Y-67000000D03*
%TD*%
D23*
%TO.C,J7*%
X119950000Y-60950000D03*
X117950000Y-60950000D03*
D24*
X122300000Y-55200000D03*
X115600000Y-55200000D03*
%TD*%
D28*
%TO.C,C13*%
X157500000Y-66750000D03*
X153225000Y-66750000D03*
%TD*%
D29*
%TO.C,R7*%
X93580000Y-85547500D03*
X93580000Y-87372500D03*
%TD*%
D21*
%TO.C,R1*%
X89625000Y-79145699D03*
X87800000Y-79145699D03*
%TD*%
D30*
%TO.C,C10*%
X121000000Y-80862500D03*
X121000000Y-79137500D03*
%TD*%
D31*
%TO.C,C5*%
X156437500Y-78000000D03*
X159562500Y-78000000D03*
%TD*%
D32*
%TO.C,U2*%
X145525000Y-85555000D03*
X145525000Y-86825000D03*
X145525000Y-88095000D03*
X145525000Y-89365000D03*
X145525000Y-90635000D03*
X145525000Y-91905000D03*
X145525000Y-93175000D03*
X145525000Y-94445000D03*
X150475000Y-94445000D03*
X150475000Y-93175000D03*
X150475000Y-91905000D03*
X150475000Y-90635000D03*
X150475000Y-89365000D03*
X150475000Y-88095000D03*
X150475000Y-86825000D03*
X150475000Y-85555000D03*
%TD*%
D33*
%TO.C,L4*%
X115000000Y-78512500D03*
X115000000Y-81487500D03*
%TD*%
D21*
%TO.C,R2*%
X89625000Y-82145699D03*
X87800000Y-82145699D03*
%TD*%
D25*
%TO.C,R3*%
X96525000Y-74037500D03*
X96525000Y-72212500D03*
%TD*%
D34*
%TO.C,C16*%
X119600000Y-85200000D03*
X119600000Y-89600000D03*
%TD*%
D23*
%TO.C,J8*%
X109950000Y-60950000D03*
X107950000Y-60950000D03*
D24*
X112300000Y-55200000D03*
X105600000Y-55200000D03*
%TD*%
D26*
%TO.C,H4*%
X179350000Y-67000000D03*
X179833274Y-65833274D03*
X179833274Y-68166726D03*
X181000000Y-65350000D03*
D27*
X181000000Y-67000000D03*
D26*
X181000000Y-68650000D03*
X182166726Y-65833274D03*
X182166726Y-68166726D03*
X182650000Y-67000000D03*
%TD*%
D35*
%TO.C,C19*%
X86140000Y-84762500D03*
X86140000Y-86837500D03*
%TD*%
D19*
%TO.C,C15*%
X114200000Y-84000000D03*
X114200000Y-85725000D03*
%TD*%
D36*
%TO.C,PS2*%
X159012500Y-70132500D03*
D37*
X156472500Y-70132500D03*
X153932500Y-70132500D03*
X151392500Y-70132500D03*
%TD*%
D26*
%TO.C,H2*%
X179350000Y-92000000D03*
X179833274Y-90833274D03*
X179833274Y-93166726D03*
X181000000Y-90350000D03*
D27*
X181000000Y-92000000D03*
D26*
X181000000Y-93650000D03*
X182166726Y-90833274D03*
X182166726Y-93166726D03*
X182650000Y-92000000D03*
%TD*%
%TO.C,H1*%
X85850000Y-92000000D03*
X86333274Y-90833274D03*
X86333274Y-93166726D03*
X87500000Y-90350000D03*
D27*
X87500000Y-92000000D03*
D26*
X87500000Y-93650000D03*
X88666726Y-90833274D03*
X88666726Y-93166726D03*
X89150000Y-92000000D03*
%TD*%
D36*
%TO.C,PS1*%
X144237500Y-80867500D03*
D37*
X146777500Y-80867500D03*
X149317500Y-80867500D03*
X151857500Y-80867500D03*
%TD*%
D23*
%TO.C,J10*%
X89950000Y-60950000D03*
X87950000Y-60950000D03*
D24*
X92300000Y-55200000D03*
X85600000Y-55200000D03*
%TD*%
D19*
%TO.C,C3*%
X163060000Y-91565000D03*
X163060000Y-93290000D03*
%TD*%
D23*
%TO.C,J4*%
X149950000Y-60950000D03*
X147950000Y-60950000D03*
D24*
X152300000Y-55200000D03*
X145600000Y-55200000D03*
%TD*%
D23*
%TO.C,J1*%
X179950000Y-60950000D03*
X177950000Y-60950000D03*
D24*
X182300000Y-55200000D03*
X175600000Y-55200000D03*
%TD*%
D34*
%TO.C,C17*%
X112200000Y-88600000D03*
X112200000Y-93000000D03*
%TD*%
D23*
%TO.C,J3*%
X159950000Y-60950000D03*
X157950000Y-60950000D03*
D24*
X162300000Y-55200000D03*
X155600000Y-55200000D03*
%TD*%
D19*
%TO.C,C21*%
X95370000Y-85647500D03*
X95370000Y-87372500D03*
%TD*%
%TO.C,C14*%
X111400000Y-84000000D03*
X111400000Y-85725000D03*
%TD*%
D38*
%TO.C,Q1*%
X125462500Y-90650000D03*
X125462500Y-92550000D03*
X127337500Y-91600000D03*
%TD*%
D23*
%TO.C,J2*%
X169950000Y-60950000D03*
X167950000Y-60950000D03*
D24*
X172300000Y-55200000D03*
X165600000Y-55200000D03*
%TD*%
D39*
%TO.C,C12*%
X167750000Y-78312500D03*
X167750000Y-75187500D03*
%TD*%
D16*
%TO.C,C2*%
X151137500Y-83500000D03*
X152862500Y-83500000D03*
%TD*%
D40*
%TO.C,L1*%
X133762500Y-75500000D03*
X136737500Y-75500000D03*
%TD*%
D41*
%TO.C,C8*%
X136812500Y-78500000D03*
X133687500Y-78500000D03*
%TD*%
D23*
%TO.C,J9*%
X99950000Y-60950000D03*
X97950000Y-60950000D03*
D24*
X102300000Y-55200000D03*
X95600000Y-55200000D03*
%TD*%
D42*
%TO.C,U4*%
X93715000Y-82230000D03*
X94985000Y-82230000D03*
X96255000Y-82230000D03*
X97525000Y-82230000D03*
X97525000Y-76686000D03*
X96255000Y-76686000D03*
X94985000Y-76686000D03*
X93715000Y-76686000D03*
%TD*%
D19*
%TO.C,C4*%
X174060000Y-91565000D03*
X174060000Y-93290000D03*
%TD*%
D43*
%TO.C,L3*%
X105300000Y-64550000D03*
X105300000Y-66300000D03*
%TD*%
D25*
%TO.C,R4*%
X99475000Y-74025000D03*
X99475000Y-72200000D03*
%TD*%
D40*
%TO.C,L2*%
X163762500Y-81750000D03*
X166737500Y-81750000D03*
%TD*%
D44*
%TO.C,U1*%
X165600000Y-84575000D03*
X165600000Y-85225000D03*
X165600000Y-85875000D03*
X165600000Y-86525000D03*
X165600000Y-87175000D03*
X165600000Y-87825000D03*
X165600000Y-88475000D03*
X165600000Y-89125000D03*
X165600000Y-89775000D03*
X165600000Y-90425000D03*
X171400000Y-90425000D03*
X171400000Y-89775000D03*
X171400000Y-89125000D03*
X171400000Y-88475000D03*
X171400000Y-87825000D03*
X171400000Y-87175000D03*
X171400000Y-86525000D03*
X171400000Y-85875000D03*
X171400000Y-85225000D03*
X171400000Y-84575000D03*
%TD*%
D39*
%TO.C,C11*%
X163750000Y-78312500D03*
X163750000Y-75187500D03*
%TD*%
D35*
%TO.C,C18*%
X108110000Y-85772500D03*
X108110000Y-87847500D03*
%TD*%
D45*
%TO.C,J11*%
X134250000Y-83000000D03*
D46*
X134250000Y-85540000D03*
X134250000Y-88080000D03*
X134250000Y-90620000D03*
X134250000Y-93160000D03*
%TD*%
%LPD*%
M02*
