%TF.GenerationSoftware,KiCad,Pcbnew,7.0.6*%
%TF.CreationDate,2023-09-07T21:54:39-06:00*%
%TF.ProjectId,low_power_heater,6c6f775f-706f-4776-9572-5f6865617465,rev?*%
%TF.SameCoordinates,Original*%
%TF.FileFunction,Copper,L2,Bot*%
%TF.FilePolarity,Positive*%
%FSLAX46Y46*%
G04 Gerber Fmt 4.6, Leading zero omitted, Abs format (unit mm)*
G04 Created by KiCad (PCBNEW 7.0.6) date 2023-09-07 21:54:39*
%MOMM*%
%LPD*%
G01*
G04 APERTURE LIST*
%TA.AperFunction,ComponentPad*%
%ADD10C,1.240000*%
%TD*%
%TA.AperFunction,ComponentPad*%
%ADD11C,0.700000*%
%TD*%
%TA.AperFunction,ComponentPad*%
%ADD12C,4.400000*%
%TD*%
%TA.AperFunction,ComponentPad*%
%ADD13R,1.400000X1.800000*%
%TD*%
%TA.AperFunction,ComponentPad*%
%ADD14O,1.400000X1.800000*%
%TD*%
%TA.AperFunction,ComponentPad*%
%ADD15R,1.700000X1.700000*%
%TD*%
%TA.AperFunction,ComponentPad*%
%ADD16O,1.700000X1.700000*%
%TD*%
%TA.AperFunction,ViaPad*%
%ADD17C,0.800000*%
%TD*%
%TA.AperFunction,Conductor*%
%ADD18C,0.250000*%
%TD*%
G04 APERTURE END LIST*
D10*
%TO.P,J14,1,In*%
%TO.N,/OPA218/10V*%
X102370000Y-81130000D03*
%TO.P,J14,2,Ext*%
%TO.N,GND1*%
X101100000Y-79860000D03*
X101100000Y-82400000D03*
X103640000Y-79860000D03*
X103640000Y-82400000D03*
%TD*%
%TO.P,J13,1,In*%
%TO.N,/OPA218/Power Supply Filter/pos_in*%
X119870000Y-71730000D03*
%TO.P,J13,2,Ext*%
%TO.N,GND1*%
X118600000Y-70460000D03*
X118600000Y-73000000D03*
X121140000Y-70460000D03*
X121140000Y-73000000D03*
%TD*%
%TO.P,J12,1,In*%
%TO.N,/OPA218/12V*%
X110130000Y-75130000D03*
%TO.P,J12,2,Ext*%
%TO.N,GND1*%
X108860000Y-73860000D03*
X108860000Y-76400000D03*
X111400000Y-73860000D03*
X111400000Y-76400000D03*
%TD*%
D11*
%TO.P,H3,1,1*%
%TO.N,GND1*%
X85850000Y-67000000D03*
X86333274Y-65833274D03*
X86333274Y-68166726D03*
X87500000Y-65350000D03*
D12*
X87500000Y-67000000D03*
D11*
X87500000Y-68650000D03*
X88666726Y-65833274D03*
X88666726Y-68166726D03*
X89150000Y-67000000D03*
%TD*%
%TO.P,H4,1,1*%
%TO.N,GND*%
X179350000Y-67000000D03*
X179833274Y-65833274D03*
X179833274Y-68166726D03*
X181000000Y-65350000D03*
D12*
X181000000Y-67000000D03*
D11*
X181000000Y-68650000D03*
X182166726Y-65833274D03*
X182166726Y-68166726D03*
X182650000Y-67000000D03*
%TD*%
D13*
%TO.P,PS2,1,-Vin*%
%TO.N,GND*%
X159012500Y-70132500D03*
D14*
%TO.P,PS2,2,+Vin*%
%TO.N,Net-(PS2-+Vin)*%
X156472500Y-70132500D03*
%TO.P,PS2,3,0V*%
%TO.N,GND1*%
X153932500Y-70132500D03*
%TO.P,PS2,4,+Vout*%
%TO.N,/OPA218/Power Supply Filter/pos_in*%
X151392500Y-70132500D03*
%TD*%
D11*
%TO.P,H2,1,1*%
%TO.N,GND*%
X179350000Y-92000000D03*
X179833274Y-90833274D03*
X179833274Y-93166726D03*
X181000000Y-90350000D03*
D12*
X181000000Y-92000000D03*
D11*
X181000000Y-93650000D03*
X182166726Y-90833274D03*
X182166726Y-93166726D03*
X182650000Y-92000000D03*
%TD*%
%TO.P,H1,1,1*%
%TO.N,GND1*%
X85850000Y-92000000D03*
X86333274Y-90833274D03*
X86333274Y-93166726D03*
X87500000Y-90350000D03*
D12*
X87500000Y-92000000D03*
D11*
X87500000Y-93650000D03*
X88666726Y-90833274D03*
X88666726Y-93166726D03*
X89150000Y-92000000D03*
%TD*%
D13*
%TO.P,PS1,1,-Vin*%
%TO.N,GNDPWR*%
X144237500Y-80867500D03*
D14*
%TO.P,PS1,2,+Vin*%
%TO.N,Net-(PS1-+Vin)*%
X146777500Y-80867500D03*
%TO.P,PS1,3,0V*%
%TO.N,GND*%
X149317500Y-80867500D03*
%TO.P,PS1,4,+Vout*%
%TO.N,+5V*%
X151857500Y-80867500D03*
%TD*%
D15*
%TO.P,J11,1,Pin_1*%
%TO.N,+3.3V*%
X134250000Y-83000000D03*
D16*
%TO.P,J11,2,Pin_2*%
%TO.N,GNDPWR*%
X134250000Y-85540000D03*
%TO.P,J11,3,Pin_3*%
%TO.N,Net-(J11-Pin_3)*%
X134250000Y-88080000D03*
%TO.P,J11,4,Pin_4*%
%TO.N,Net-(J11-Pin_4)*%
X134250000Y-90620000D03*
%TO.P,J11,5,Pin_5*%
%TO.N,Net-(J11-Pin_5)*%
X134250000Y-93160000D03*
%TD*%
D17*
%TO.N,GND*%
X159500000Y-86400000D03*
X157117500Y-83975000D03*
X160600000Y-70200000D03*
X172300000Y-81700000D03*
X162100000Y-73500000D03*
%TO.N,/ch4*%
X164500000Y-84500000D03*
X154000000Y-61750000D03*
%TO.N,/ch5*%
X141250000Y-62250000D03*
X163500497Y-84500000D03*
%TO.N,/ch6*%
X131750000Y-62750000D03*
X162500994Y-84500000D03*
%TO.N,GND1*%
X94060000Y-79260000D03*
X97000000Y-84460000D03*
X86550000Y-80860000D03*
X95120000Y-90500000D03*
X97640000Y-87830000D03*
X117500000Y-85900000D03*
X86560000Y-78000000D03*
X123600000Y-89300000D03*
%TO.N,Net-(U1-LD)*%
X152000000Y-91000000D03*
X169000000Y-88000000D03*
%TO.N,Net-(U1-CLK)*%
X168293245Y-87293245D03*
X152000000Y-89500000D03*
%TO.N,Net-(U1-DI)*%
X167586490Y-86586490D03*
X152000000Y-88500000D03*
%TO.N,/ch7*%
X121875000Y-63875000D03*
X162350422Y-85686416D03*
%TO.N,/ch8*%
X116750000Y-64000000D03*
X161464472Y-86149124D03*
%TO.N,/ch9*%
X110125000Y-64875000D03*
X161220178Y-87118312D03*
%TO.N,/ch10*%
X98875000Y-75712500D03*
X160978016Y-88088035D03*
%TO.N,Net-(U6-NR{slash}SS)*%
X107030000Y-91947500D03*
X98790000Y-90800000D03*
%TD*%
D18*
%TO.N,/ch4*%
X164500000Y-84500000D02*
X164500000Y-72250000D01*
X164500000Y-72250000D02*
X154000000Y-61750000D01*
%TO.N,/ch5*%
X163500497Y-71886893D02*
X154863604Y-63250000D01*
X154863604Y-63250000D02*
X142250000Y-63250000D01*
X142250000Y-63250000D02*
X141250000Y-62250000D01*
X163500497Y-84500000D02*
X163500497Y-71886893D01*
%TO.N,/ch6*%
X151360431Y-71750000D02*
X143310431Y-63700000D01*
X162500994Y-84500000D02*
X162500994Y-75000994D01*
X162500994Y-75000994D02*
X159250000Y-71750000D01*
X132700000Y-63700000D02*
X131750000Y-62750000D01*
X159250000Y-71750000D02*
X151360431Y-71750000D01*
X143310431Y-63700000D02*
X132700000Y-63700000D01*
%TO.N,Net-(U1-LD)*%
X166000000Y-91000000D02*
X152000000Y-91000000D01*
X169000000Y-88000000D02*
X166000000Y-91000000D01*
%TO.N,Net-(U1-CLK)*%
X165086490Y-90500000D02*
X153000000Y-90500000D01*
X168293245Y-87293245D02*
X165086490Y-90500000D01*
X153000000Y-90500000D02*
X152000000Y-89500000D01*
%TO.N,Net-(U1-DI)*%
X167413510Y-86586490D02*
X164000000Y-90000000D01*
X152025305Y-88500000D02*
X152000000Y-88500000D01*
X153525305Y-90000000D02*
X152025305Y-88500000D01*
X164000000Y-90000000D02*
X153525305Y-90000000D01*
X167586490Y-86586490D02*
X167413510Y-86586490D01*
%TO.N,/ch7*%
X151174035Y-72200000D02*
X143124035Y-64150000D01*
X161775994Y-74912390D02*
X159063604Y-72200000D01*
X159063604Y-72200000D02*
X151174035Y-72200000D01*
X122150000Y-64150000D02*
X121875000Y-63875000D01*
X161775994Y-85111988D02*
X161775994Y-74912390D01*
X143124035Y-64150000D02*
X122150000Y-64150000D01*
X162350422Y-85686416D02*
X161775994Y-85111988D01*
%TO.N,/ch8*%
X161464472Y-86149124D02*
X161238604Y-85923256D01*
X158877208Y-72650000D02*
X150987639Y-72650000D01*
X117350000Y-64600000D02*
X116750000Y-64000000D01*
X161238604Y-85923256D02*
X161250000Y-85911860D01*
X142937639Y-64600000D02*
X117350000Y-64600000D01*
X150987639Y-72650000D02*
X142937639Y-64600000D01*
X161250000Y-85911860D02*
X161250000Y-75022792D01*
X161250000Y-75022792D02*
X158877208Y-72650000D01*
%TO.N,/ch9*%
X110300000Y-65050000D02*
X110125000Y-64875000D01*
X142751243Y-65050000D02*
X110300000Y-65050000D01*
X158690812Y-73100000D02*
X150801243Y-73100000D01*
X150801243Y-73100000D02*
X142751243Y-65050000D01*
X160739472Y-86637606D02*
X160739472Y-75148660D01*
X161220178Y-87118312D02*
X160739472Y-86637606D01*
X160739472Y-75148660D02*
X158690812Y-73100000D01*
%TO.N,/ch10*%
X160250000Y-75295584D02*
X158504416Y-73550000D01*
X110750000Y-65500000D02*
X110037701Y-66212299D01*
X160250000Y-87360019D02*
X160250000Y-75295584D01*
X110037701Y-66212299D02*
X108375201Y-66212299D01*
X158504416Y-73550000D02*
X150550000Y-73550000D01*
X108375201Y-66212299D02*
X98875000Y-75712500D01*
X142500000Y-65500000D02*
X110750000Y-65500000D01*
X150550000Y-73550000D02*
X142500000Y-65500000D01*
X160978016Y-88088035D02*
X160250000Y-87360019D01*
%TO.N,Net-(U6-NR{slash}SS)*%
X105800000Y-90800000D02*
X107000000Y-92000000D01*
X107030000Y-91970000D02*
X107030000Y-91947500D01*
X98790000Y-90800000D02*
X105800000Y-90800000D01*
X107000000Y-92000000D02*
X107030000Y-91970000D01*
%TD*%
%TA.AperFunction,Conductor*%
%TO.N,GND*%
G36*
X184499500Y-95875500D02*
G01*
X184479815Y-95942539D01*
X184427011Y-95988294D01*
X184375500Y-95999500D01*
X148103260Y-95999500D01*
X148036221Y-95979815D01*
X147990466Y-95927011D01*
X147979260Y-95875385D01*
X147980638Y-94395101D01*
X147982868Y-92000000D01*
X178295065Y-92000000D01*
X178314786Y-92326038D01*
X178373667Y-92647341D01*
X178470835Y-92959164D01*
X178470839Y-92959175D01*
X178604897Y-93257041D01*
X178604898Y-93257043D01*
X178773887Y-93536586D01*
X178921477Y-93724968D01*
X179434070Y-93212375D01*
X179633274Y-93212375D01*
X179672887Y-93294631D01*
X179744266Y-93351553D01*
X179810742Y-93366726D01*
X179855806Y-93366726D01*
X179922282Y-93351553D01*
X179993661Y-93294631D01*
X180033274Y-93212375D01*
X180033274Y-93121077D01*
X179993661Y-93038821D01*
X179922282Y-92981899D01*
X179855806Y-92966726D01*
X179810742Y-92966726D01*
X179744266Y-92981899D01*
X179672887Y-93038821D01*
X179633274Y-93121077D01*
X179633274Y-93212375D01*
X179434070Y-93212375D01*
X180064211Y-92582235D01*
X180164894Y-92723624D01*
X180316932Y-92868592D01*
X180419222Y-92934330D01*
X179275030Y-94078521D01*
X179275030Y-94078522D01*
X179463414Y-94226112D01*
X179463423Y-94226118D01*
X179742956Y-94395101D01*
X179742958Y-94395102D01*
X180040824Y-94529160D01*
X180040835Y-94529164D01*
X180352658Y-94626332D01*
X180673961Y-94685213D01*
X181000000Y-94704934D01*
X181326038Y-94685213D01*
X181647341Y-94626332D01*
X181959164Y-94529164D01*
X181959175Y-94529160D01*
X182257041Y-94395102D01*
X182257043Y-94395101D01*
X182536576Y-94226118D01*
X182536584Y-94226112D01*
X182724968Y-94078522D01*
X182724968Y-94078521D01*
X181858822Y-93212375D01*
X181966726Y-93212375D01*
X182006339Y-93294631D01*
X182077718Y-93351553D01*
X182144194Y-93366726D01*
X182189258Y-93366726D01*
X182255734Y-93351553D01*
X182327113Y-93294631D01*
X182366726Y-93212375D01*
X182366726Y-93121077D01*
X182327113Y-93038821D01*
X182255734Y-92981899D01*
X182189258Y-92966726D01*
X182144194Y-92966726D01*
X182077718Y-92981899D01*
X182006339Y-93038821D01*
X181966726Y-93121077D01*
X181966726Y-93212375D01*
X181858822Y-93212375D01*
X181583306Y-92936859D01*
X181597410Y-92929589D01*
X181762540Y-92799729D01*
X181900110Y-92640965D01*
X181934665Y-92581112D01*
X183078521Y-93724968D01*
X183078522Y-93724968D01*
X183226112Y-93536584D01*
X183226118Y-93536576D01*
X183395101Y-93257043D01*
X183395102Y-93257041D01*
X183529160Y-92959175D01*
X183529164Y-92959164D01*
X183626332Y-92647341D01*
X183685213Y-92326038D01*
X183704934Y-92000000D01*
X183685213Y-91673961D01*
X183626332Y-91352658D01*
X183529164Y-91040835D01*
X183529160Y-91040824D01*
X183395102Y-90742958D01*
X183395101Y-90742956D01*
X183226118Y-90463423D01*
X183226112Y-90463414D01*
X183078521Y-90275030D01*
X181935788Y-91417763D01*
X181835106Y-91276376D01*
X181683068Y-91131408D01*
X181580777Y-91065669D01*
X181767523Y-90878923D01*
X181966726Y-90878923D01*
X182006339Y-90961179D01*
X182077718Y-91018101D01*
X182144194Y-91033274D01*
X182189258Y-91033274D01*
X182255734Y-91018101D01*
X182327113Y-90961179D01*
X182366726Y-90878923D01*
X182366726Y-90787625D01*
X182327113Y-90705369D01*
X182255734Y-90648447D01*
X182189258Y-90633274D01*
X182144194Y-90633274D01*
X182077718Y-90648447D01*
X182006339Y-90705369D01*
X181966726Y-90787625D01*
X181966726Y-90878923D01*
X181767523Y-90878923D01*
X182724968Y-89921477D01*
X182724968Y-89921476D01*
X182536586Y-89773887D01*
X182257043Y-89604898D01*
X182257041Y-89604897D01*
X181959175Y-89470839D01*
X181959164Y-89470835D01*
X181647341Y-89373667D01*
X181326038Y-89314786D01*
X181000000Y-89295065D01*
X180673961Y-89314786D01*
X180352658Y-89373667D01*
X180040835Y-89470835D01*
X180040824Y-89470839D01*
X179742958Y-89604897D01*
X179742956Y-89604898D01*
X179463423Y-89773881D01*
X179275030Y-89921476D01*
X179275030Y-89921477D01*
X180416693Y-91063140D01*
X180402590Y-91070411D01*
X180237460Y-91200271D01*
X180099890Y-91359035D01*
X180065334Y-91418887D01*
X179525370Y-90878923D01*
X179633274Y-90878923D01*
X179672887Y-90961179D01*
X179744266Y-91018101D01*
X179810742Y-91033274D01*
X179855806Y-91033274D01*
X179922282Y-91018101D01*
X179993661Y-90961179D01*
X180033274Y-90878923D01*
X180033274Y-90787625D01*
X179993661Y-90705369D01*
X179922282Y-90648447D01*
X179855806Y-90633274D01*
X179810742Y-90633274D01*
X179744266Y-90648447D01*
X179672887Y-90705369D01*
X179633274Y-90787625D01*
X179633274Y-90878923D01*
X179525370Y-90878923D01*
X178921477Y-90275030D01*
X178921476Y-90275030D01*
X178773881Y-90463423D01*
X178604898Y-90742956D01*
X178604897Y-90742958D01*
X178470839Y-91040824D01*
X178470835Y-91040835D01*
X178373667Y-91352658D01*
X178314786Y-91673961D01*
X178295065Y-92000000D01*
X147982868Y-92000000D01*
X147983799Y-91000000D01*
X151094540Y-91000000D01*
X151114326Y-91188256D01*
X151114327Y-91188259D01*
X151172818Y-91368277D01*
X151172821Y-91368284D01*
X151267467Y-91532216D01*
X151363246Y-91638589D01*
X151394129Y-91672888D01*
X151547265Y-91784148D01*
X151547270Y-91784151D01*
X151720192Y-91861142D01*
X151720197Y-91861144D01*
X151905354Y-91900500D01*
X151905355Y-91900500D01*
X152094644Y-91900500D01*
X152094646Y-91900500D01*
X152279803Y-91861144D01*
X152452730Y-91784151D01*
X152605871Y-91672888D01*
X152608788Y-91669647D01*
X152611600Y-91666526D01*
X152671087Y-91629879D01*
X152703748Y-91625500D01*
X165917257Y-91625500D01*
X165932877Y-91627224D01*
X165932904Y-91626939D01*
X165940660Y-91627671D01*
X165940667Y-91627673D01*
X166009814Y-91625500D01*
X166039350Y-91625500D01*
X166046228Y-91624630D01*
X166052041Y-91624172D01*
X166098627Y-91622709D01*
X166117869Y-91617117D01*
X166136912Y-91613174D01*
X166156792Y-91610664D01*
X166200122Y-91593507D01*
X166205646Y-91591617D01*
X166209396Y-91590527D01*
X166250390Y-91578618D01*
X166267629Y-91568422D01*
X166285103Y-91559862D01*
X166303727Y-91552488D01*
X166303727Y-91552487D01*
X166303732Y-91552486D01*
X166341449Y-91525082D01*
X166346305Y-91521892D01*
X166386420Y-91498170D01*
X166400589Y-91483999D01*
X166415379Y-91471368D01*
X166431587Y-91459594D01*
X166461299Y-91423676D01*
X166465212Y-91419376D01*
X168947770Y-88936819D01*
X169009094Y-88903334D01*
X169035452Y-88900500D01*
X169094644Y-88900500D01*
X169094646Y-88900500D01*
X169279803Y-88861144D01*
X169452730Y-88784151D01*
X169605871Y-88672888D01*
X169732533Y-88532216D01*
X169827179Y-88368284D01*
X169885674Y-88188256D01*
X169905460Y-88000000D01*
X169885674Y-87811744D01*
X169827179Y-87631716D01*
X169732533Y-87467784D01*
X169605871Y-87327112D01*
X169577599Y-87306571D01*
X169452734Y-87215851D01*
X169452729Y-87215848D01*
X169279807Y-87138857D01*
X169279805Y-87138856D01*
X169253280Y-87133218D01*
X169191799Y-87100024D01*
X169161132Y-87050246D01*
X169120426Y-86924967D01*
X169120425Y-86924966D01*
X169120424Y-86924961D01*
X169025778Y-86761029D01*
X168899116Y-86620357D01*
X168899115Y-86620356D01*
X168745979Y-86509096D01*
X168745974Y-86509093D01*
X168573052Y-86432102D01*
X168573050Y-86432101D01*
X168546525Y-86426463D01*
X168485044Y-86393269D01*
X168454377Y-86343491D01*
X168413671Y-86218212D01*
X168413670Y-86218209D01*
X168413669Y-86218206D01*
X168319023Y-86054274D01*
X168192361Y-85913602D01*
X168192360Y-85913601D01*
X168039224Y-85802341D01*
X168039219Y-85802338D01*
X167866297Y-85725347D01*
X167866292Y-85725345D01*
X167720491Y-85694355D01*
X167681136Y-85685990D01*
X167491844Y-85685990D01*
X167459387Y-85692888D01*
X167306687Y-85725345D01*
X167306682Y-85725347D01*
X167133760Y-85802338D01*
X167133755Y-85802341D01*
X166980619Y-85913601D01*
X166853956Y-86054275D01*
X166759311Y-86218205D01*
X166759309Y-86218209D01*
X166702141Y-86394154D01*
X166671891Y-86443516D01*
X163777228Y-89338181D01*
X163715905Y-89371666D01*
X163689547Y-89374500D01*
X153835758Y-89374500D01*
X153768719Y-89354815D01*
X153748077Y-89338181D01*
X152935989Y-88526093D01*
X152902504Y-88464770D01*
X152900349Y-88451374D01*
X152885674Y-88311744D01*
X152827179Y-88131716D01*
X152732533Y-87967784D01*
X152605871Y-87827112D01*
X152584719Y-87811744D01*
X152452734Y-87715851D01*
X152452729Y-87715848D01*
X152279807Y-87638857D01*
X152279802Y-87638855D01*
X152134001Y-87607865D01*
X152094646Y-87599500D01*
X151905354Y-87599500D01*
X151872897Y-87606398D01*
X151720197Y-87638855D01*
X151720192Y-87638857D01*
X151547270Y-87715848D01*
X151547265Y-87715851D01*
X151394129Y-87827111D01*
X151267466Y-87967785D01*
X151172821Y-88131715D01*
X151172818Y-88131722D01*
X151125845Y-88276291D01*
X151114326Y-88311744D01*
X151094540Y-88500000D01*
X151114326Y-88688256D01*
X151114327Y-88688259D01*
X151172818Y-88868277D01*
X151172821Y-88868284D01*
X151213071Y-88937999D01*
X151229544Y-89005900D01*
X151213071Y-89061999D01*
X151172821Y-89131714D01*
X151119745Y-89295065D01*
X151114326Y-89311744D01*
X151094540Y-89500000D01*
X151114326Y-89688256D01*
X151114327Y-89688259D01*
X151172818Y-89868277D01*
X151172821Y-89868284D01*
X151267466Y-90032215D01*
X151388851Y-90167028D01*
X151419081Y-90230020D01*
X151410455Y-90299355D01*
X151388851Y-90332972D01*
X151267466Y-90467784D01*
X151172821Y-90631715D01*
X151172818Y-90631722D01*
X151114327Y-90811740D01*
X151114326Y-90811744D01*
X151094540Y-91000000D01*
X147983799Y-91000000D01*
X147992527Y-81625854D01*
X148012273Y-81558837D01*
X148065120Y-81513132D01*
X148134287Y-81503253D01*
X148197816Y-81532337D01*
X148227526Y-81570702D01*
X148292868Y-81701925D01*
X148426891Y-81879400D01*
X148591238Y-82029221D01*
X148780320Y-82146297D01*
X148780322Y-82146298D01*
X148987695Y-82226635D01*
X149067500Y-82241552D01*
X149067500Y-81303001D01*
X149175185Y-81352180D01*
X149281737Y-81367500D01*
X149353263Y-81367500D01*
X149459815Y-81352180D01*
X149567500Y-81303001D01*
X149567500Y-82241552D01*
X149647304Y-82226635D01*
X149854677Y-82146298D01*
X149854679Y-82146297D01*
X150043761Y-82029221D01*
X150208108Y-81879400D01*
X150342131Y-81701925D01*
X150441260Y-81502849D01*
X150467973Y-81408961D01*
X150505252Y-81349867D01*
X150568561Y-81320309D01*
X150637801Y-81329670D01*
X150690988Y-81374980D01*
X150706506Y-81408959D01*
X150733270Y-81503025D01*
X150733275Y-81503038D01*
X150832438Y-81702183D01*
X150832443Y-81702191D01*
X150966520Y-81879738D01*
X151130937Y-82029623D01*
X151130939Y-82029625D01*
X151320095Y-82146745D01*
X151320096Y-82146745D01*
X151320099Y-82146747D01*
X151527560Y-82227118D01*
X151746257Y-82268000D01*
X151746259Y-82268000D01*
X151968741Y-82268000D01*
X151968743Y-82268000D01*
X152187440Y-82227118D01*
X152394901Y-82146747D01*
X152584062Y-82029624D01*
X152748481Y-81879736D01*
X152882558Y-81702189D01*
X152981729Y-81503028D01*
X153042615Y-81289036D01*
X153058000Y-81123003D01*
X153058000Y-80611997D01*
X153042615Y-80445964D01*
X152981729Y-80231972D01*
X152981724Y-80231961D01*
X152882561Y-80032816D01*
X152882556Y-80032808D01*
X152748479Y-79855261D01*
X152584062Y-79705376D01*
X152584060Y-79705374D01*
X152394904Y-79588254D01*
X152394898Y-79588252D01*
X152187440Y-79507882D01*
X151968743Y-79467000D01*
X151746257Y-79467000D01*
X151527560Y-79507882D01*
X151396364Y-79558707D01*
X151320101Y-79588252D01*
X151320095Y-79588254D01*
X151130939Y-79705374D01*
X151130937Y-79705376D01*
X150966520Y-79855261D01*
X150832443Y-80032808D01*
X150832438Y-80032816D01*
X150733275Y-80231961D01*
X150733270Y-80231974D01*
X150706506Y-80326040D01*
X150669226Y-80385133D01*
X150605917Y-80414690D01*
X150536677Y-80405328D01*
X150483491Y-80360018D01*
X150467973Y-80326038D01*
X150441260Y-80232150D01*
X150342131Y-80033074D01*
X150208108Y-79855599D01*
X150043761Y-79705778D01*
X149854679Y-79588702D01*
X149854677Y-79588701D01*
X149647299Y-79508364D01*
X149567500Y-79493446D01*
X149567500Y-80431998D01*
X149459815Y-80382820D01*
X149353263Y-80367500D01*
X149281737Y-80367500D01*
X149175185Y-80382820D01*
X149067500Y-80431998D01*
X149067500Y-79493446D01*
X148987700Y-79508364D01*
X148780322Y-79588701D01*
X148780320Y-79588702D01*
X148591238Y-79705778D01*
X148426891Y-79855599D01*
X148292869Y-80033072D01*
X148228941Y-80161456D01*
X148181437Y-80212692D01*
X148113774Y-80230113D01*
X148047434Y-80208187D01*
X148003479Y-80153875D01*
X147993942Y-80106074D01*
X147999836Y-73775377D01*
X148019582Y-73708361D01*
X148072429Y-73662656D01*
X148124776Y-73651503D01*
X148973648Y-73657983D01*
X148993417Y-73657354D01*
X149013383Y-73656322D01*
X149153975Y-73625738D01*
X149202020Y-73607817D01*
X149245353Y-73600000D01*
X149664047Y-73600000D01*
X149731086Y-73619685D01*
X149751728Y-73636319D01*
X150049197Y-73933788D01*
X150059022Y-73946051D01*
X150059243Y-73945869D01*
X150064214Y-73951878D01*
X150090217Y-73976295D01*
X150114635Y-73999226D01*
X150135529Y-74020120D01*
X150141011Y-74024373D01*
X150145443Y-74028157D01*
X150179418Y-74060062D01*
X150196976Y-74069714D01*
X150213235Y-74080395D01*
X150229064Y-74092673D01*
X150271838Y-74111182D01*
X150277056Y-74113738D01*
X150317908Y-74136197D01*
X150337316Y-74141180D01*
X150355717Y-74147480D01*
X150374104Y-74155437D01*
X150417488Y-74162308D01*
X150420119Y-74162725D01*
X150425839Y-74163909D01*
X150470981Y-74175500D01*
X150491016Y-74175500D01*
X150510414Y-74177026D01*
X150530194Y-74180159D01*
X150530195Y-74180160D01*
X150530195Y-74180159D01*
X150530196Y-74180160D01*
X150576583Y-74175775D01*
X150582422Y-74175500D01*
X158193964Y-74175500D01*
X158261003Y-74195185D01*
X158281645Y-74211819D01*
X159588181Y-75518355D01*
X159621666Y-75579678D01*
X159624500Y-75606036D01*
X159624500Y-87277274D01*
X159622775Y-87292891D01*
X159623061Y-87292918D01*
X159622326Y-87300684D01*
X159624500Y-87369833D01*
X159624500Y-87399362D01*
X159624501Y-87399379D01*
X159625368Y-87406250D01*
X159625826Y-87412069D01*
X159627290Y-87458643D01*
X159627291Y-87458646D01*
X159632880Y-87477886D01*
X159636824Y-87496930D01*
X159639336Y-87516810D01*
X159656490Y-87560138D01*
X159658382Y-87565666D01*
X159671381Y-87610407D01*
X159681580Y-87627653D01*
X159690138Y-87645122D01*
X159697514Y-87663751D01*
X159724898Y-87701442D01*
X159728106Y-87706326D01*
X159751827Y-87746435D01*
X159751833Y-87746443D01*
X159765990Y-87760599D01*
X159778628Y-87775395D01*
X159790405Y-87791605D01*
X159790406Y-87791606D01*
X159826309Y-87821307D01*
X159830632Y-87825241D01*
X160039054Y-88033664D01*
X160072539Y-88094987D01*
X160074694Y-88108383D01*
X160082984Y-88187262D01*
X160092342Y-88276291D01*
X160092343Y-88276294D01*
X160150834Y-88456312D01*
X160150837Y-88456319D01*
X160245483Y-88620251D01*
X160306718Y-88688259D01*
X160372145Y-88760923D01*
X160525281Y-88872183D01*
X160525286Y-88872186D01*
X160698208Y-88949177D01*
X160698213Y-88949179D01*
X160883370Y-88988535D01*
X160883371Y-88988535D01*
X161072660Y-88988535D01*
X161072662Y-88988535D01*
X161257819Y-88949179D01*
X161430746Y-88872186D01*
X161583887Y-88760923D01*
X161710549Y-88620251D01*
X161805195Y-88456319D01*
X161863690Y-88276291D01*
X161883476Y-88088035D01*
X161863690Y-87899779D01*
X161849906Y-87857359D01*
X161847912Y-87787519D01*
X161875686Y-87736070D01*
X161952711Y-87650528D01*
X162047357Y-87486596D01*
X162105852Y-87306568D01*
X162125638Y-87118312D01*
X162105852Y-86930056D01*
X162092762Y-86889769D01*
X162090767Y-86819928D01*
X162118543Y-86768479D01*
X162197005Y-86681340D01*
X162215725Y-86648914D01*
X162266292Y-86600700D01*
X162323112Y-86586916D01*
X162445066Y-86586916D01*
X162445068Y-86586916D01*
X162630225Y-86547560D01*
X162803152Y-86470567D01*
X162956293Y-86359304D01*
X163082955Y-86218632D01*
X163177601Y-86054700D01*
X163236096Y-85874672D01*
X163255882Y-85686416D01*
X163239557Y-85531093D01*
X163252127Y-85462367D01*
X163299859Y-85411343D01*
X163367599Y-85394225D01*
X163388646Y-85396843D01*
X163405851Y-85400500D01*
X163405856Y-85400500D01*
X163595141Y-85400500D01*
X163595143Y-85400500D01*
X163780300Y-85361144D01*
X163949813Y-85285670D01*
X164019061Y-85276386D01*
X164050684Y-85285671D01*
X164220192Y-85361142D01*
X164220197Y-85361144D01*
X164405354Y-85400500D01*
X164405355Y-85400500D01*
X164594644Y-85400500D01*
X164594646Y-85400500D01*
X164779803Y-85361144D01*
X164952730Y-85284151D01*
X165105871Y-85172888D01*
X165232533Y-85032216D01*
X165327179Y-84868284D01*
X165385674Y-84688256D01*
X165405460Y-84500000D01*
X165385674Y-84311744D01*
X165327179Y-84131716D01*
X165232533Y-83967784D01*
X165232533Y-83967783D01*
X165157350Y-83884284D01*
X165127120Y-83821292D01*
X165125500Y-83801312D01*
X165125500Y-72332737D01*
X165127224Y-72317124D01*
X165126938Y-72317097D01*
X165127671Y-72309335D01*
X165127672Y-72309332D01*
X165125499Y-72240202D01*
X165125500Y-72210650D01*
X165124629Y-72203758D01*
X165124172Y-72197946D01*
X165122709Y-72151374D01*
X165122709Y-72151372D01*
X165117120Y-72132137D01*
X165113174Y-72113084D01*
X165112742Y-72109664D01*
X165110664Y-72093208D01*
X165093501Y-72049859D01*
X165091614Y-72044346D01*
X165078617Y-71999610D01*
X165078616Y-71999608D01*
X165068421Y-71982369D01*
X165059860Y-71964893D01*
X165052486Y-71946269D01*
X165052486Y-71946267D01*
X165042474Y-71932488D01*
X165025083Y-71908550D01*
X165021900Y-71903705D01*
X164998170Y-71863579D01*
X164998165Y-71863573D01*
X164984005Y-71849413D01*
X164971370Y-71834620D01*
X164959593Y-71818412D01*
X164923693Y-71788713D01*
X164919381Y-71784790D01*
X160134590Y-66999999D01*
X178295065Y-66999999D01*
X178314786Y-67326038D01*
X178373667Y-67647341D01*
X178470835Y-67959164D01*
X178470839Y-67959175D01*
X178604897Y-68257041D01*
X178604898Y-68257043D01*
X178773887Y-68536586D01*
X178921477Y-68724968D01*
X179434070Y-68212375D01*
X179633274Y-68212375D01*
X179672887Y-68294631D01*
X179744266Y-68351553D01*
X179810742Y-68366726D01*
X179855806Y-68366726D01*
X179922282Y-68351553D01*
X179993661Y-68294631D01*
X180033274Y-68212375D01*
X180033274Y-68121077D01*
X179993661Y-68038821D01*
X179922282Y-67981899D01*
X179855806Y-67966726D01*
X179810742Y-67966726D01*
X179744266Y-67981899D01*
X179672887Y-68038821D01*
X179633274Y-68121077D01*
X179633274Y-68212375D01*
X179434070Y-68212375D01*
X180064210Y-67582234D01*
X180164894Y-67723624D01*
X180316932Y-67868592D01*
X180419222Y-67934330D01*
X179275030Y-69078521D01*
X179275030Y-69078522D01*
X179463414Y-69226112D01*
X179463423Y-69226118D01*
X179742956Y-69395101D01*
X179742958Y-69395102D01*
X180040824Y-69529160D01*
X180040835Y-69529164D01*
X180352658Y-69626332D01*
X180673961Y-69685213D01*
X181000000Y-69704934D01*
X181326038Y-69685213D01*
X181647341Y-69626332D01*
X181959164Y-69529164D01*
X181959175Y-69529160D01*
X182257041Y-69395102D01*
X182257043Y-69395101D01*
X182536576Y-69226118D01*
X182536584Y-69226112D01*
X182724968Y-69078522D01*
X182724968Y-69078521D01*
X181858822Y-68212375D01*
X181966726Y-68212375D01*
X182006339Y-68294631D01*
X182077718Y-68351553D01*
X182144194Y-68366726D01*
X182189258Y-68366726D01*
X182255734Y-68351553D01*
X182327113Y-68294631D01*
X182366726Y-68212375D01*
X182366726Y-68121077D01*
X182327113Y-68038821D01*
X182255734Y-67981899D01*
X182189258Y-67966726D01*
X182144194Y-67966726D01*
X182077718Y-67981899D01*
X182006339Y-68038821D01*
X181966726Y-68121077D01*
X181966726Y-68212375D01*
X181858822Y-68212375D01*
X181583306Y-67936859D01*
X181597410Y-67929589D01*
X181762540Y-67799729D01*
X181900110Y-67640965D01*
X181934665Y-67581112D01*
X183078521Y-68724968D01*
X183078522Y-68724968D01*
X183226112Y-68536584D01*
X183226118Y-68536576D01*
X183395101Y-68257043D01*
X183395102Y-68257041D01*
X183529160Y-67959175D01*
X183529164Y-67959164D01*
X183626332Y-67647341D01*
X183685213Y-67326038D01*
X183704934Y-66999999D01*
X183685213Y-66673961D01*
X183626332Y-66352658D01*
X183529164Y-66040835D01*
X183529160Y-66040824D01*
X183395102Y-65742958D01*
X183395101Y-65742956D01*
X183226118Y-65463423D01*
X183226112Y-65463414D01*
X183078521Y-65275030D01*
X181935788Y-66417763D01*
X181835106Y-66276376D01*
X181683068Y-66131408D01*
X181580776Y-66065668D01*
X181767521Y-65878923D01*
X181966726Y-65878923D01*
X182006339Y-65961179D01*
X182077718Y-66018101D01*
X182144194Y-66033274D01*
X182189258Y-66033274D01*
X182255734Y-66018101D01*
X182327113Y-65961179D01*
X182366726Y-65878923D01*
X182366726Y-65787625D01*
X182327113Y-65705369D01*
X182255734Y-65648447D01*
X182189258Y-65633274D01*
X182144194Y-65633274D01*
X182077718Y-65648447D01*
X182006339Y-65705369D01*
X181966726Y-65787625D01*
X181966726Y-65878923D01*
X181767521Y-65878923D01*
X182724968Y-64921477D01*
X182724968Y-64921476D01*
X182536586Y-64773887D01*
X182257043Y-64604898D01*
X182257041Y-64604897D01*
X181959175Y-64470839D01*
X181959164Y-64470835D01*
X181647341Y-64373667D01*
X181326038Y-64314786D01*
X181000000Y-64295065D01*
X180673961Y-64314786D01*
X180352658Y-64373667D01*
X180040835Y-64470835D01*
X180040824Y-64470839D01*
X179742958Y-64604897D01*
X179742956Y-64604898D01*
X179463423Y-64773881D01*
X179275030Y-64921476D01*
X179275030Y-64921477D01*
X180416693Y-66063140D01*
X180402590Y-66070411D01*
X180237460Y-66200271D01*
X180099890Y-66359035D01*
X180065334Y-66418886D01*
X179525371Y-65878923D01*
X179633274Y-65878923D01*
X179672887Y-65961179D01*
X179744266Y-66018101D01*
X179810742Y-66033274D01*
X179855806Y-66033274D01*
X179922282Y-66018101D01*
X179993661Y-65961179D01*
X180033274Y-65878923D01*
X180033274Y-65787625D01*
X179993661Y-65705369D01*
X179922282Y-65648447D01*
X179855806Y-65633274D01*
X179810742Y-65633274D01*
X179744266Y-65648447D01*
X179672887Y-65705369D01*
X179633274Y-65787625D01*
X179633274Y-65878923D01*
X179525371Y-65878923D01*
X178921477Y-65275030D01*
X178921476Y-65275030D01*
X178773881Y-65463423D01*
X178604898Y-65742956D01*
X178604897Y-65742958D01*
X178470839Y-66040824D01*
X178470835Y-66040835D01*
X178373667Y-66352658D01*
X178314786Y-66673961D01*
X178295065Y-66999999D01*
X160134590Y-66999999D01*
X157640581Y-64505990D01*
X184499500Y-64058341D01*
X184499500Y-95875500D01*
G37*
%TD.AperFunction*%
%TA.AperFunction,Conductor*%
G36*
X160417703Y-69689134D02*
G01*
X160424166Y-69695152D01*
X161649861Y-70920847D01*
X162838678Y-72109664D01*
X162872163Y-72170987D01*
X162874997Y-72197345D01*
X162874997Y-74191044D01*
X162855312Y-74258083D01*
X162802508Y-74303838D01*
X162733350Y-74313782D01*
X162669794Y-74284757D01*
X162663316Y-74278725D01*
X160001937Y-71617346D01*
X159968452Y-71556023D01*
X159973436Y-71486331D01*
X160015308Y-71430398D01*
X160069689Y-71389688D01*
X160069690Y-71389687D01*
X160155850Y-71274593D01*
X160155854Y-71274586D01*
X160206096Y-71139879D01*
X160206098Y-71139872D01*
X160212499Y-71080344D01*
X160212499Y-71080327D01*
X160212500Y-70382500D01*
X159446186Y-70382500D01*
X159471993Y-70342344D01*
X159512500Y-70204389D01*
X159512500Y-70060611D01*
X159471993Y-69922656D01*
X159446186Y-69882500D01*
X160212500Y-69882500D01*
X160212500Y-69782847D01*
X160232185Y-69715808D01*
X160284989Y-69670053D01*
X160354147Y-69660109D01*
X160417703Y-69689134D01*
G37*
%TD.AperFunction*%
%TA.AperFunction,Conductor*%
G36*
X155910703Y-65182134D02*
G01*
X155917166Y-65188152D01*
X157597209Y-66868195D01*
X159274326Y-68545312D01*
X159307811Y-68606635D01*
X159302827Y-68676327D01*
X159274326Y-68720674D01*
X159262500Y-68732499D01*
X159262500Y-69696998D01*
X159154815Y-69647820D01*
X159048263Y-69632500D01*
X158976737Y-69632500D01*
X158870185Y-69647820D01*
X158762500Y-69696998D01*
X158762500Y-68732500D01*
X158264655Y-68732500D01*
X158205127Y-68738901D01*
X158205120Y-68738903D01*
X158070413Y-68789145D01*
X158070406Y-68789149D01*
X157955312Y-68875309D01*
X157955309Y-68875312D01*
X157869149Y-68990406D01*
X157869145Y-68990413D01*
X157818903Y-69125120D01*
X157818901Y-69125127D01*
X157812500Y-69184655D01*
X157812500Y-69403082D01*
X157792815Y-69470121D01*
X157740011Y-69515876D01*
X157670853Y-69525820D01*
X157607297Y-69496795D01*
X157577500Y-69458354D01*
X157497561Y-69297816D01*
X157497556Y-69297808D01*
X157363479Y-69120261D01*
X157199062Y-68970376D01*
X157199060Y-68970374D01*
X157009904Y-68853254D01*
X157009898Y-68853252D01*
X157001504Y-68850000D01*
X156802440Y-68772882D01*
X156583743Y-68732000D01*
X156361257Y-68732000D01*
X156142560Y-68772882D01*
X156014745Y-68822398D01*
X155935101Y-68853252D01*
X155935097Y-68853253D01*
X155894776Y-68878219D01*
X155827415Y-68896773D01*
X155760716Y-68875964D01*
X155715855Y-68822398D01*
X155705500Y-68772791D01*
X155705500Y-65275847D01*
X155725185Y-65208808D01*
X155777989Y-65163053D01*
X155847147Y-65153109D01*
X155910703Y-65182134D01*
G37*
%TD.AperFunction*%
%TD*%
%TA.AperFunction,Conductor*%
%TO.N,GNDPWR*%
G36*
X147371332Y-73645751D02*
G01*
X147438218Y-73665946D01*
X147483568Y-73719098D01*
X147492634Y-73770475D01*
X147494340Y-73770477D01*
X147489028Y-79474807D01*
X147469281Y-79541829D01*
X147416434Y-79587534D01*
X147347267Y-79597413D01*
X147320234Y-79590319D01*
X147313045Y-79587534D01*
X147107440Y-79507882D01*
X146888743Y-79467000D01*
X146666257Y-79467000D01*
X146447560Y-79507882D01*
X146359933Y-79541829D01*
X146240101Y-79588252D01*
X146240095Y-79588254D01*
X146050939Y-79705374D01*
X146050937Y-79705376D01*
X145886520Y-79855261D01*
X145752443Y-80032808D01*
X145752438Y-80032816D01*
X145672500Y-80193354D01*
X145624997Y-80244591D01*
X145557334Y-80262012D01*
X145490994Y-80240086D01*
X145447039Y-80185775D01*
X145437500Y-80138082D01*
X145437500Y-79919672D01*
X145437499Y-79919655D01*
X145431098Y-79860127D01*
X145431096Y-79860120D01*
X145380854Y-79725413D01*
X145380850Y-79725406D01*
X145294690Y-79610312D01*
X145294687Y-79610309D01*
X145179593Y-79524149D01*
X145179586Y-79524145D01*
X145044879Y-79473903D01*
X145044872Y-79473901D01*
X144985344Y-79467500D01*
X144487500Y-79467500D01*
X144487500Y-80431998D01*
X144379815Y-80382820D01*
X144273263Y-80367500D01*
X144201737Y-80367500D01*
X144095185Y-80382820D01*
X143987500Y-80431998D01*
X143987500Y-79467500D01*
X143489655Y-79467500D01*
X143430127Y-79473901D01*
X143430120Y-79473903D01*
X143295413Y-79524145D01*
X143295406Y-79524149D01*
X143180312Y-79610309D01*
X143180309Y-79610312D01*
X143094149Y-79725406D01*
X143094145Y-79725413D01*
X143043903Y-79860120D01*
X143043901Y-79860127D01*
X143037500Y-79919655D01*
X143037500Y-80617500D01*
X143803814Y-80617500D01*
X143778007Y-80657656D01*
X143737500Y-80795611D01*
X143737500Y-80939389D01*
X143778007Y-81077344D01*
X143803814Y-81117500D01*
X143037500Y-81117500D01*
X143037500Y-81815344D01*
X143043901Y-81874872D01*
X143043903Y-81874879D01*
X143094145Y-82009586D01*
X143094149Y-82009593D01*
X143180309Y-82124687D01*
X143180312Y-82124690D01*
X143295406Y-82210850D01*
X143295413Y-82210854D01*
X143430120Y-82261096D01*
X143430127Y-82261098D01*
X143489655Y-82267499D01*
X143489672Y-82267500D01*
X143987500Y-82267500D01*
X143987500Y-81303001D01*
X144095185Y-81352180D01*
X144201737Y-81367500D01*
X144273263Y-81367500D01*
X144379815Y-81352180D01*
X144487500Y-81303001D01*
X144487500Y-82267500D01*
X144985328Y-82267500D01*
X144985344Y-82267499D01*
X145044872Y-82261098D01*
X145044879Y-82261096D01*
X145179586Y-82210854D01*
X145179593Y-82210850D01*
X145294687Y-82124690D01*
X145294690Y-82124687D01*
X145380850Y-82009593D01*
X145380854Y-82009586D01*
X145431096Y-81874879D01*
X145431098Y-81874872D01*
X145437499Y-81815344D01*
X145437500Y-81815327D01*
X145437500Y-81596917D01*
X145457185Y-81529878D01*
X145509989Y-81484123D01*
X145579147Y-81474179D01*
X145642703Y-81503204D01*
X145672500Y-81541645D01*
X145752438Y-81702183D01*
X145752443Y-81702191D01*
X145886520Y-81879738D01*
X146050937Y-82029623D01*
X146050939Y-82029625D01*
X146240095Y-82146745D01*
X146240096Y-82146745D01*
X146240099Y-82146747D01*
X146447560Y-82227118D01*
X146666257Y-82268000D01*
X146666259Y-82268000D01*
X146888741Y-82268000D01*
X146888743Y-82268000D01*
X147107440Y-82227118D01*
X147314901Y-82146747D01*
X147314904Y-82146744D01*
X147317640Y-82145685D01*
X147387263Y-82139823D01*
X147449004Y-82172533D01*
X147483258Y-82233429D01*
X147486434Y-82261427D01*
X147478299Y-90999529D01*
X147478299Y-90999998D01*
X147477368Y-91999529D01*
X147477368Y-91999999D01*
X147473759Y-95875615D01*
X147454012Y-95942637D01*
X147401165Y-95988342D01*
X147349759Y-95999500D01*
X129661864Y-95999500D01*
X129594825Y-95979815D01*
X129549070Y-95927011D01*
X129537864Y-95875716D01*
X129537864Y-95875615D01*
X129533131Y-93160000D01*
X132894341Y-93160000D01*
X132914936Y-93395403D01*
X132914938Y-93395413D01*
X132976094Y-93623655D01*
X132976096Y-93623659D01*
X132976097Y-93623663D01*
X133075964Y-93837830D01*
X133075965Y-93837830D01*
X133075967Y-93837834D01*
X133183361Y-93991207D01*
X133211505Y-94031401D01*
X133378599Y-94198495D01*
X133475384Y-94266265D01*
X133572165Y-94334032D01*
X133572167Y-94334033D01*
X133572170Y-94334035D01*
X133786337Y-94433903D01*
X134014592Y-94495063D01*
X134202918Y-94511539D01*
X134249999Y-94515659D01*
X134250000Y-94515659D01*
X134250001Y-94515659D01*
X134289234Y-94512226D01*
X134485408Y-94495063D01*
X134713663Y-94433903D01*
X134927830Y-94334035D01*
X135121401Y-94198495D01*
X135288495Y-94031401D01*
X135424035Y-93837830D01*
X135523903Y-93623663D01*
X135585063Y-93395408D01*
X135605659Y-93160000D01*
X135585063Y-92924592D01*
X135523903Y-92696337D01*
X135424035Y-92482171D01*
X135316342Y-92328368D01*
X135288494Y-92288597D01*
X135121402Y-92121506D01*
X135121401Y-92121505D01*
X134947873Y-91999999D01*
X134935841Y-91991574D01*
X134892216Y-91936997D01*
X134885024Y-91867498D01*
X134916546Y-91805144D01*
X134935836Y-91788428D01*
X135121401Y-91658495D01*
X135288495Y-91491401D01*
X135424035Y-91297830D01*
X135523903Y-91083663D01*
X135585063Y-90855408D01*
X135605659Y-90620000D01*
X135585063Y-90384592D01*
X135523903Y-90156337D01*
X135424035Y-89942171D01*
X135370430Y-89865614D01*
X135288494Y-89748597D01*
X135121402Y-89581506D01*
X135121396Y-89581501D01*
X134935842Y-89451575D01*
X134892217Y-89396998D01*
X134885023Y-89327500D01*
X134916546Y-89265145D01*
X134935842Y-89248425D01*
X134958026Y-89232891D01*
X135121401Y-89118495D01*
X135288495Y-88951401D01*
X135424035Y-88757830D01*
X135523903Y-88543663D01*
X135585063Y-88315408D01*
X135605659Y-88080000D01*
X135585063Y-87844592D01*
X135523903Y-87616337D01*
X135424035Y-87402171D01*
X135405261Y-87375358D01*
X135288494Y-87208597D01*
X135121402Y-87041506D01*
X135121401Y-87041505D01*
X134935405Y-86911269D01*
X134891781Y-86856692D01*
X134884588Y-86787193D01*
X134916110Y-86724839D01*
X134935405Y-86708119D01*
X135121082Y-86578105D01*
X135288105Y-86411082D01*
X135423600Y-86217578D01*
X135523429Y-86003492D01*
X135523432Y-86003486D01*
X135580636Y-85790000D01*
X134683686Y-85790000D01*
X134709493Y-85749844D01*
X134750000Y-85611889D01*
X134750000Y-85468111D01*
X134709493Y-85330156D01*
X134683686Y-85290000D01*
X135580636Y-85290000D01*
X135580635Y-85289999D01*
X135523432Y-85076513D01*
X135523429Y-85076507D01*
X135423600Y-84862422D01*
X135423599Y-84862420D01*
X135288113Y-84668926D01*
X135288108Y-84668920D01*
X135166053Y-84546865D01*
X135132568Y-84485542D01*
X135137552Y-84415850D01*
X135179424Y-84359917D01*
X135210400Y-84343002D01*
X135342331Y-84293796D01*
X135457546Y-84207546D01*
X135543796Y-84092331D01*
X135594091Y-83957483D01*
X135600500Y-83897873D01*
X135600499Y-82102128D01*
X135594091Y-82042517D01*
X135593305Y-82040410D01*
X135543797Y-81907671D01*
X135543793Y-81907664D01*
X135457547Y-81792455D01*
X135457544Y-81792452D01*
X135342335Y-81706206D01*
X135342328Y-81706202D01*
X135207482Y-81655908D01*
X135207483Y-81655908D01*
X135147883Y-81649501D01*
X135147881Y-81649500D01*
X135147873Y-81649500D01*
X135147864Y-81649500D01*
X133352129Y-81649500D01*
X133352123Y-81649501D01*
X133292516Y-81655908D01*
X133157671Y-81706202D01*
X133157664Y-81706206D01*
X133042455Y-81792452D01*
X133042452Y-81792455D01*
X132956206Y-81907664D01*
X132956202Y-81907671D01*
X132905908Y-82042517D01*
X132899501Y-82102116D01*
X132899501Y-82102123D01*
X132899500Y-82102135D01*
X132899500Y-83897870D01*
X132899501Y-83897876D01*
X132905908Y-83957483D01*
X132956202Y-84092328D01*
X132956206Y-84092335D01*
X133042452Y-84207544D01*
X133042455Y-84207547D01*
X133157664Y-84293793D01*
X133157671Y-84293797D01*
X133157674Y-84293798D01*
X133289598Y-84343002D01*
X133345531Y-84384873D01*
X133369949Y-84450337D01*
X133355098Y-84518610D01*
X133333947Y-84546865D01*
X133211886Y-84668926D01*
X133076400Y-84862420D01*
X133076399Y-84862422D01*
X132976570Y-85076507D01*
X132976567Y-85076513D01*
X132919364Y-85289999D01*
X132919364Y-85290000D01*
X133816314Y-85290000D01*
X133790507Y-85330156D01*
X133750000Y-85468111D01*
X133750000Y-85611889D01*
X133790507Y-85749844D01*
X133816314Y-85790000D01*
X132919364Y-85790000D01*
X132976567Y-86003486D01*
X132976570Y-86003492D01*
X133076399Y-86217578D01*
X133211894Y-86411082D01*
X133378917Y-86578105D01*
X133564595Y-86708119D01*
X133608219Y-86762696D01*
X133615412Y-86832195D01*
X133583890Y-86894549D01*
X133564595Y-86911269D01*
X133378594Y-87041508D01*
X133211505Y-87208597D01*
X133075965Y-87402169D01*
X133075964Y-87402171D01*
X132976098Y-87616335D01*
X132976094Y-87616344D01*
X132914938Y-87844586D01*
X132914936Y-87844596D01*
X132894341Y-88079999D01*
X132894341Y-88080000D01*
X132914936Y-88315403D01*
X132914938Y-88315413D01*
X132976094Y-88543655D01*
X132976096Y-88543659D01*
X132976097Y-88543663D01*
X133042120Y-88685249D01*
X133075965Y-88757830D01*
X133075967Y-88757834D01*
X133211501Y-88951395D01*
X133211506Y-88951402D01*
X133378597Y-89118493D01*
X133378603Y-89118498D01*
X133564158Y-89248425D01*
X133607783Y-89303002D01*
X133614977Y-89372500D01*
X133583454Y-89434855D01*
X133564158Y-89451575D01*
X133378597Y-89581505D01*
X133211505Y-89748597D01*
X133075965Y-89942169D01*
X133075964Y-89942171D01*
X132976098Y-90156335D01*
X132976094Y-90156344D01*
X132914938Y-90384586D01*
X132914936Y-90384596D01*
X132894341Y-90619999D01*
X132894341Y-90620000D01*
X132914936Y-90855403D01*
X132914938Y-90855413D01*
X132976094Y-91083655D01*
X132976096Y-91083659D01*
X132976097Y-91083663D01*
X133074718Y-91295156D01*
X133075965Y-91297830D01*
X133075967Y-91297834D01*
X133211501Y-91491395D01*
X133211506Y-91491402D01*
X133378597Y-91658493D01*
X133378603Y-91658498D01*
X133564158Y-91788425D01*
X133607783Y-91843002D01*
X133614977Y-91912500D01*
X133583454Y-91974855D01*
X133564158Y-91991575D01*
X133378597Y-92121505D01*
X133211505Y-92288597D01*
X133075965Y-92482169D01*
X133075964Y-92482171D01*
X132976098Y-92696335D01*
X132976094Y-92696344D01*
X132914938Y-92924586D01*
X132914936Y-92924596D01*
X132894341Y-93159999D01*
X132894341Y-93160000D01*
X129533131Y-93160000D01*
X129505499Y-77306800D01*
X129505500Y-73634317D01*
X129525184Y-73567282D01*
X129577988Y-73521527D01*
X129630442Y-73510325D01*
X147371332Y-73645751D01*
G37*
%TD.AperFunction*%
%TD*%
%TA.AperFunction,Conductor*%
%TO.N,GND1*%
G36*
X103943039Y-53020185D02*
G01*
X103988794Y-53072989D01*
X104000000Y-53124500D01*
X104000000Y-65399999D01*
X104000000Y-65400000D01*
X109214148Y-65229443D01*
X109281793Y-65246926D01*
X109325587Y-65291377D01*
X109388762Y-65400799D01*
X109405235Y-65468699D01*
X109382383Y-65534726D01*
X109327461Y-65577917D01*
X109281375Y-65586799D01*
X108457939Y-65586799D01*
X108442322Y-65585075D01*
X108442295Y-65585361D01*
X108434533Y-65584626D01*
X108365405Y-65586799D01*
X108335851Y-65586799D01*
X108335130Y-65586889D01*
X108328958Y-65587668D01*
X108323146Y-65588125D01*
X108276574Y-65589589D01*
X108276573Y-65589589D01*
X108257330Y-65595180D01*
X108238280Y-65599124D01*
X108218412Y-65601633D01*
X108175085Y-65618787D01*
X108169559Y-65620678D01*
X108124815Y-65633678D01*
X108124811Y-65633680D01*
X108107567Y-65643878D01*
X108090106Y-65652432D01*
X108071475Y-65659809D01*
X108071463Y-65659816D01*
X108033771Y-65687201D01*
X108028888Y-65690408D01*
X107988781Y-65714128D01*
X107974615Y-65728294D01*
X107959825Y-65740926D01*
X107943615Y-65752703D01*
X107943612Y-65752706D01*
X107913911Y-65788608D01*
X107909978Y-65792930D01*
X98927228Y-74775681D01*
X98865905Y-74809166D01*
X98839547Y-74812000D01*
X98780354Y-74812000D01*
X98747897Y-74818898D01*
X98595197Y-74851355D01*
X98595192Y-74851357D01*
X98422270Y-74928348D01*
X98422265Y-74928351D01*
X98269129Y-75039611D01*
X98142466Y-75180285D01*
X98047821Y-75344215D01*
X98047818Y-75344222D01*
X97989327Y-75524240D01*
X97989326Y-75524244D01*
X97969540Y-75712500D01*
X97989326Y-75900756D01*
X97989327Y-75900759D01*
X98047818Y-76080777D01*
X98047821Y-76080784D01*
X98142467Y-76244716D01*
X98207888Y-76317373D01*
X98269129Y-76385388D01*
X98422265Y-76496648D01*
X98422270Y-76496651D01*
X98595192Y-76573642D01*
X98595197Y-76573644D01*
X98780354Y-76613000D01*
X98780355Y-76613000D01*
X98969644Y-76613000D01*
X98969646Y-76613000D01*
X99154803Y-76573644D01*
X99327730Y-76496651D01*
X99460759Y-76400000D01*
X107735202Y-76400000D01*
X107754353Y-76606676D01*
X107811158Y-76806327D01*
X107903673Y-76992123D01*
X107903681Y-76992136D01*
X107908254Y-76998191D01*
X108444565Y-76461880D01*
X108455577Y-76531405D01*
X108515978Y-76649947D01*
X108610053Y-76744022D01*
X108728595Y-76804423D01*
X108798117Y-76815433D01*
X108264785Y-77348767D01*
X108264785Y-77348768D01*
X108358625Y-77406872D01*
X108358634Y-77406877D01*
X108552186Y-77481859D01*
X108756219Y-77520000D01*
X108963781Y-77520000D01*
X109167813Y-77481859D01*
X109167814Y-77481859D01*
X109361370Y-77406875D01*
X109455214Y-77348768D01*
X108921880Y-76815434D01*
X108991405Y-76804423D01*
X109109947Y-76744022D01*
X109204022Y-76649947D01*
X109264423Y-76531405D01*
X109275434Y-76461880D01*
X109811744Y-76998190D01*
X109811745Y-76998190D01*
X109816324Y-76992127D01*
X109816326Y-76992124D01*
X109908840Y-76806330D01*
X109908841Y-76806329D01*
X109965646Y-76606676D01*
X109984797Y-76400001D01*
X109983495Y-76385943D01*
X109996909Y-76317373D01*
X110045265Y-76266941D01*
X110106966Y-76250500D01*
X110153034Y-76250500D01*
X110220073Y-76270185D01*
X110265828Y-76322989D01*
X110276505Y-76385943D01*
X110275202Y-76400001D01*
X110294353Y-76606676D01*
X110351158Y-76806327D01*
X110443673Y-76992123D01*
X110443681Y-76992136D01*
X110448254Y-76998191D01*
X110984565Y-76461880D01*
X110995577Y-76531405D01*
X111055978Y-76649947D01*
X111150053Y-76744022D01*
X111268595Y-76804423D01*
X111338118Y-76815434D01*
X110804785Y-77348767D01*
X110804785Y-77348768D01*
X110898625Y-77406872D01*
X110898634Y-77406877D01*
X111092186Y-77481859D01*
X111296219Y-77520000D01*
X111503781Y-77520000D01*
X111707813Y-77481859D01*
X111707814Y-77481859D01*
X111901370Y-77406875D01*
X111995214Y-77348768D01*
X111995214Y-77348767D01*
X111461881Y-76815434D01*
X111531405Y-76804423D01*
X111649947Y-76744022D01*
X111744022Y-76649947D01*
X111804423Y-76531405D01*
X111815434Y-76461881D01*
X112351744Y-76998190D01*
X112351745Y-76998190D01*
X112356324Y-76992127D01*
X112356326Y-76992124D01*
X112448840Y-76806330D01*
X112448841Y-76806329D01*
X112505646Y-76606676D01*
X112524798Y-76400000D01*
X112524798Y-76399999D01*
X112505646Y-76193323D01*
X112448841Y-75993670D01*
X112448840Y-75993669D01*
X112356328Y-75807879D01*
X112356324Y-75807873D01*
X112351744Y-75801808D01*
X111815434Y-76338118D01*
X111804423Y-76268595D01*
X111744022Y-76150053D01*
X111649947Y-76055978D01*
X111531405Y-75995577D01*
X111461881Y-75984565D01*
X111995214Y-75451231D01*
X111995213Y-75451229D01*
X111901374Y-75393126D01*
X111707813Y-75318140D01*
X111503781Y-75280000D01*
X111377422Y-75280000D01*
X111310383Y-75260315D01*
X111264628Y-75207511D01*
X111253951Y-75144559D01*
X111255300Y-75130000D01*
X111255300Y-75129999D01*
X111253951Y-75115441D01*
X111267366Y-75046871D01*
X111315723Y-74996440D01*
X111377422Y-74980000D01*
X111503781Y-74980000D01*
X111707813Y-74941859D01*
X111707814Y-74941859D01*
X111901370Y-74866875D01*
X111995214Y-74808768D01*
X111995214Y-74808767D01*
X111461881Y-74275434D01*
X111531405Y-74264423D01*
X111649947Y-74204022D01*
X111744022Y-74109947D01*
X111804423Y-73991405D01*
X111815434Y-73921881D01*
X112351744Y-74458190D01*
X112351745Y-74458190D01*
X112356324Y-74452127D01*
X112356326Y-74452124D01*
X112448840Y-74266330D01*
X112448841Y-74266329D01*
X112505646Y-74066676D01*
X112524798Y-73860000D01*
X112524798Y-73859999D01*
X112505646Y-73653323D01*
X112448841Y-73453670D01*
X112448840Y-73453669D01*
X112356328Y-73267879D01*
X112356324Y-73267873D01*
X112351744Y-73261808D01*
X111815434Y-73798118D01*
X111804423Y-73728595D01*
X111744022Y-73610053D01*
X111649947Y-73515978D01*
X111531405Y-73455577D01*
X111461881Y-73444565D01*
X111906445Y-73000000D01*
X117475202Y-73000000D01*
X117494353Y-73206676D01*
X117551158Y-73406327D01*
X117643673Y-73592123D01*
X117643681Y-73592136D01*
X117648254Y-73598191D01*
X118184565Y-73061880D01*
X118195577Y-73131405D01*
X118255978Y-73249947D01*
X118350053Y-73344022D01*
X118468595Y-73404423D01*
X118538118Y-73415434D01*
X118004785Y-73948767D01*
X118004785Y-73948768D01*
X118098625Y-74006872D01*
X118098634Y-74006877D01*
X118292186Y-74081859D01*
X118496219Y-74120000D01*
X118703781Y-74120000D01*
X118907813Y-74081859D01*
X118907814Y-74081859D01*
X119101370Y-74006875D01*
X119195214Y-73948768D01*
X119195214Y-73948767D01*
X118661881Y-73415434D01*
X118731405Y-73404423D01*
X118849947Y-73344022D01*
X118944022Y-73249947D01*
X119004423Y-73131405D01*
X119015434Y-73061880D01*
X119551744Y-73598190D01*
X119551745Y-73598190D01*
X119556324Y-73592127D01*
X119556326Y-73592124D01*
X119648840Y-73406330D01*
X119648841Y-73406329D01*
X119705646Y-73206676D01*
X119724797Y-73000001D01*
X119723495Y-72985943D01*
X119736909Y-72917373D01*
X119785265Y-72866941D01*
X119846966Y-72850500D01*
X119893034Y-72850500D01*
X119960073Y-72870185D01*
X120005828Y-72922989D01*
X120016505Y-72985943D01*
X120015202Y-73000001D01*
X120034353Y-73206676D01*
X120091158Y-73406327D01*
X120183673Y-73592123D01*
X120183681Y-73592136D01*
X120188254Y-73598191D01*
X120724565Y-73061880D01*
X120735577Y-73131405D01*
X120795978Y-73249947D01*
X120890053Y-73344022D01*
X121008595Y-73404423D01*
X121078118Y-73415434D01*
X120544785Y-73948767D01*
X120544785Y-73948768D01*
X120638625Y-74006872D01*
X120638634Y-74006877D01*
X120832186Y-74081859D01*
X121036219Y-74120000D01*
X121243781Y-74120000D01*
X121447813Y-74081859D01*
X121447814Y-74081859D01*
X121641370Y-74006875D01*
X121735214Y-73948768D01*
X121735214Y-73948767D01*
X121201881Y-73415434D01*
X121271405Y-73404423D01*
X121389947Y-73344022D01*
X121484022Y-73249947D01*
X121544423Y-73131405D01*
X121555434Y-73061881D01*
X122091744Y-73598190D01*
X122091745Y-73598190D01*
X122096324Y-73592127D01*
X122096326Y-73592124D01*
X122188840Y-73406330D01*
X122188841Y-73406329D01*
X122245646Y-73206676D01*
X122264798Y-73000000D01*
X122264798Y-72999999D01*
X122245646Y-72793323D01*
X122188841Y-72593670D01*
X122188840Y-72593669D01*
X122096328Y-72407879D01*
X122096324Y-72407873D01*
X122091744Y-72401808D01*
X121555434Y-72938118D01*
X121544423Y-72868595D01*
X121484022Y-72750053D01*
X121389947Y-72655978D01*
X121271405Y-72595577D01*
X121201881Y-72584565D01*
X121735214Y-72051231D01*
X121735213Y-72051229D01*
X121641374Y-71993126D01*
X121447813Y-71918140D01*
X121243781Y-71880000D01*
X121117422Y-71880000D01*
X121050383Y-71860315D01*
X121004628Y-71807511D01*
X120993951Y-71744559D01*
X120995300Y-71730000D01*
X120995300Y-71729999D01*
X120993951Y-71715441D01*
X121007366Y-71646871D01*
X121055723Y-71596440D01*
X121117422Y-71580000D01*
X121243781Y-71580000D01*
X121447813Y-71541859D01*
X121447814Y-71541859D01*
X121641370Y-71466875D01*
X121735214Y-71408768D01*
X121735214Y-71408767D01*
X121201881Y-70875434D01*
X121271405Y-70864423D01*
X121389947Y-70804022D01*
X121484022Y-70709947D01*
X121544423Y-70591405D01*
X121555434Y-70521881D01*
X122091744Y-71058190D01*
X122091745Y-71058190D01*
X122096324Y-71052127D01*
X122096326Y-71052124D01*
X122188840Y-70866330D01*
X122188841Y-70866329D01*
X122245646Y-70666676D01*
X122264798Y-70460000D01*
X122264798Y-70459999D01*
X122245646Y-70253323D01*
X122188841Y-70053670D01*
X122188840Y-70053669D01*
X122096328Y-69867879D01*
X122096324Y-69867873D01*
X122091744Y-69861808D01*
X121555434Y-70398117D01*
X121544423Y-70328595D01*
X121484022Y-70210053D01*
X121389947Y-70115978D01*
X121271405Y-70055577D01*
X121201881Y-70044565D01*
X121735214Y-69511231D01*
X121735213Y-69511229D01*
X121641374Y-69453126D01*
X121447813Y-69378140D01*
X121243781Y-69340000D01*
X121036219Y-69340000D01*
X120832186Y-69378140D01*
X120832185Y-69378140D01*
X120638634Y-69453121D01*
X120638633Y-69453122D01*
X120544784Y-69511231D01*
X121078119Y-70044565D01*
X121008595Y-70055577D01*
X120890053Y-70115978D01*
X120795978Y-70210053D01*
X120735577Y-70328595D01*
X120724565Y-70398118D01*
X120188254Y-69861807D01*
X120188253Y-69861808D01*
X120183679Y-69867866D01*
X120183675Y-69867872D01*
X120091158Y-70053672D01*
X120034353Y-70253323D01*
X120015202Y-70459998D01*
X120016505Y-70474057D01*
X120003091Y-70542627D01*
X119954734Y-70593060D01*
X119893034Y-70609500D01*
X119846966Y-70609500D01*
X119779927Y-70589815D01*
X119734172Y-70537011D01*
X119723495Y-70474057D01*
X119724797Y-70459998D01*
X119705646Y-70253323D01*
X119648841Y-70053670D01*
X119648840Y-70053669D01*
X119556328Y-69867879D01*
X119556324Y-69867873D01*
X119551744Y-69861808D01*
X119015434Y-70398117D01*
X119004423Y-70328595D01*
X118944022Y-70210053D01*
X118849947Y-70115978D01*
X118731405Y-70055577D01*
X118661881Y-70044565D01*
X119195214Y-69511231D01*
X119195213Y-69511229D01*
X119101374Y-69453126D01*
X118907813Y-69378140D01*
X118703781Y-69340000D01*
X118496219Y-69340000D01*
X118292186Y-69378140D01*
X118292185Y-69378140D01*
X118098634Y-69453121D01*
X118098633Y-69453122D01*
X118004784Y-69511231D01*
X118538119Y-70044565D01*
X118468595Y-70055577D01*
X118350053Y-70115978D01*
X118255978Y-70210053D01*
X118195577Y-70328595D01*
X118184565Y-70398118D01*
X117648254Y-69861807D01*
X117648253Y-69861808D01*
X117643679Y-69867866D01*
X117643675Y-69867872D01*
X117551158Y-70053672D01*
X117494353Y-70253323D01*
X117475202Y-70459999D01*
X117475202Y-70460000D01*
X117494353Y-70666676D01*
X117551158Y-70866327D01*
X117643673Y-71052123D01*
X117643681Y-71052136D01*
X117648254Y-71058191D01*
X118184565Y-70521880D01*
X118195577Y-70591405D01*
X118255978Y-70709947D01*
X118350053Y-70804022D01*
X118468595Y-70864423D01*
X118538117Y-70875434D01*
X118004785Y-71408767D01*
X118004785Y-71408768D01*
X118098625Y-71466872D01*
X118098634Y-71466877D01*
X118292186Y-71541859D01*
X118496219Y-71580000D01*
X118622578Y-71580000D01*
X118689617Y-71599685D01*
X118735372Y-71652489D01*
X118746049Y-71715441D01*
X118744700Y-71729999D01*
X118744700Y-71730000D01*
X118746049Y-71744559D01*
X118732634Y-71813129D01*
X118684277Y-71863560D01*
X118622578Y-71880000D01*
X118496219Y-71880000D01*
X118292186Y-71918140D01*
X118292185Y-71918140D01*
X118098634Y-71993121D01*
X118098633Y-71993122D01*
X118004784Y-72051231D01*
X118538118Y-72584565D01*
X118468595Y-72595577D01*
X118350053Y-72655978D01*
X118255978Y-72750053D01*
X118195577Y-72868595D01*
X118184565Y-72938118D01*
X117648254Y-72401807D01*
X117648253Y-72401808D01*
X117643679Y-72407866D01*
X117643675Y-72407872D01*
X117551158Y-72593672D01*
X117494353Y-72793323D01*
X117475202Y-72999999D01*
X117475202Y-73000000D01*
X111906445Y-73000000D01*
X111995214Y-72911231D01*
X111995213Y-72911229D01*
X111901374Y-72853126D01*
X111707813Y-72778140D01*
X111503781Y-72740000D01*
X111296219Y-72740000D01*
X111092186Y-72778140D01*
X111092185Y-72778140D01*
X110898634Y-72853121D01*
X110898633Y-72853122D01*
X110804784Y-72911231D01*
X111338119Y-73444565D01*
X111268595Y-73455577D01*
X111150053Y-73515978D01*
X111055978Y-73610053D01*
X110995577Y-73728595D01*
X110984565Y-73798118D01*
X110448254Y-73261807D01*
X110448253Y-73261808D01*
X110443679Y-73267866D01*
X110443675Y-73267872D01*
X110351158Y-73453672D01*
X110294353Y-73653323D01*
X110275202Y-73859998D01*
X110276505Y-73874057D01*
X110263091Y-73942627D01*
X110214734Y-73993060D01*
X110153034Y-74009500D01*
X110106966Y-74009500D01*
X110039927Y-73989815D01*
X109994172Y-73937011D01*
X109983495Y-73874057D01*
X109984797Y-73859998D01*
X109965646Y-73653323D01*
X109908841Y-73453670D01*
X109908840Y-73453669D01*
X109816328Y-73267879D01*
X109816324Y-73267873D01*
X109811744Y-73261808D01*
X109275434Y-73798117D01*
X109264423Y-73728595D01*
X109204022Y-73610053D01*
X109109947Y-73515978D01*
X108991405Y-73455577D01*
X108921879Y-73444565D01*
X109455214Y-72911231D01*
X109455213Y-72911229D01*
X109361374Y-72853126D01*
X109167813Y-72778140D01*
X108963781Y-72740000D01*
X108756219Y-72740000D01*
X108552186Y-72778140D01*
X108552185Y-72778140D01*
X108358634Y-72853121D01*
X108358633Y-72853122D01*
X108264784Y-72911231D01*
X108798118Y-73444565D01*
X108728595Y-73455577D01*
X108610053Y-73515978D01*
X108515978Y-73610053D01*
X108455577Y-73728595D01*
X108444565Y-73798118D01*
X107908254Y-73261807D01*
X107908253Y-73261808D01*
X107903679Y-73267866D01*
X107903675Y-73267872D01*
X107811158Y-73453672D01*
X107754353Y-73653323D01*
X107735202Y-73859999D01*
X107735202Y-73860000D01*
X107754353Y-74066676D01*
X107811158Y-74266327D01*
X107903673Y-74452123D01*
X107903681Y-74452136D01*
X107908254Y-74458191D01*
X108444565Y-73921880D01*
X108455577Y-73991405D01*
X108515978Y-74109947D01*
X108610053Y-74204022D01*
X108728595Y-74264423D01*
X108798117Y-74275434D01*
X108264785Y-74808767D01*
X108264785Y-74808768D01*
X108358625Y-74866872D01*
X108358634Y-74866877D01*
X108552186Y-74941859D01*
X108756219Y-74980000D01*
X108882578Y-74980000D01*
X108949617Y-74999685D01*
X108995372Y-75052489D01*
X109006049Y-75115441D01*
X109004700Y-75129999D01*
X109004700Y-75130000D01*
X109006049Y-75144559D01*
X108992634Y-75213129D01*
X108944277Y-75263560D01*
X108882578Y-75280000D01*
X108756219Y-75280000D01*
X108552186Y-75318140D01*
X108552185Y-75318140D01*
X108358634Y-75393121D01*
X108358633Y-75393122D01*
X108264784Y-75451231D01*
X108798118Y-75984565D01*
X108728595Y-75995577D01*
X108610053Y-76055978D01*
X108515978Y-76150053D01*
X108455577Y-76268595D01*
X108444565Y-76338118D01*
X107908254Y-75801807D01*
X107908253Y-75801808D01*
X107903679Y-75807866D01*
X107903675Y-75807872D01*
X107811158Y-75993672D01*
X107754353Y-76193323D01*
X107735202Y-76399999D01*
X107735202Y-76400000D01*
X99460759Y-76400000D01*
X99480871Y-76385388D01*
X99607533Y-76244716D01*
X99702179Y-76080784D01*
X99760674Y-75900756D01*
X99778321Y-75732845D01*
X99804905Y-75668232D01*
X99813952Y-75658136D01*
X108597972Y-66874118D01*
X108659296Y-66840633D01*
X108685654Y-66837799D01*
X109954958Y-66837799D01*
X109970578Y-66839523D01*
X109970605Y-66839238D01*
X109978361Y-66839970D01*
X109978368Y-66839972D01*
X110047515Y-66837799D01*
X110077051Y-66837799D01*
X110083929Y-66836929D01*
X110089742Y-66836471D01*
X110136328Y-66835008D01*
X110155570Y-66829416D01*
X110174613Y-66825473D01*
X110194493Y-66822963D01*
X110237823Y-66805806D01*
X110243347Y-66803916D01*
X110256826Y-66800000D01*
X110288091Y-66790917D01*
X110305330Y-66780721D01*
X110322804Y-66772161D01*
X110341428Y-66764787D01*
X110341428Y-66764786D01*
X110341433Y-66764785D01*
X110379150Y-66737381D01*
X110384006Y-66734191D01*
X110424121Y-66710469D01*
X110438290Y-66696298D01*
X110453080Y-66683667D01*
X110469288Y-66671893D01*
X110499000Y-66635975D01*
X110502913Y-66631675D01*
X110972773Y-66161816D01*
X111034095Y-66128334D01*
X111060453Y-66125500D01*
X142189548Y-66125500D01*
X142256587Y-66145185D01*
X142277228Y-66161818D01*
X149056156Y-72940746D01*
X149089640Y-73002068D01*
X149084656Y-73071760D01*
X149042784Y-73127693D01*
X148977320Y-73152110D01*
X148967527Y-73152422D01*
X129000000Y-72999999D01*
X129000000Y-95875500D01*
X128980315Y-95942539D01*
X128927511Y-95988294D01*
X128876000Y-95999500D01*
X83624500Y-95999500D01*
X83557461Y-95979815D01*
X83511706Y-95927011D01*
X83500500Y-95875500D01*
X83500500Y-92000000D01*
X84795065Y-92000000D01*
X84814786Y-92326038D01*
X84873667Y-92647341D01*
X84970835Y-92959164D01*
X84970839Y-92959175D01*
X85104897Y-93257041D01*
X85104898Y-93257043D01*
X85273887Y-93536586D01*
X85421477Y-93724968D01*
X85934070Y-93212375D01*
X86133274Y-93212375D01*
X86172887Y-93294631D01*
X86244266Y-93351553D01*
X86310742Y-93366726D01*
X86355806Y-93366726D01*
X86422282Y-93351553D01*
X86493661Y-93294631D01*
X86533274Y-93212375D01*
X86533274Y-93121077D01*
X86493661Y-93038821D01*
X86422282Y-92981899D01*
X86355806Y-92966726D01*
X86310742Y-92966726D01*
X86244266Y-92981899D01*
X86172887Y-93038821D01*
X86133274Y-93121077D01*
X86133274Y-93212375D01*
X85934070Y-93212375D01*
X86564210Y-92582234D01*
X86664894Y-92723624D01*
X86816932Y-92868592D01*
X86919222Y-92934330D01*
X85775030Y-94078521D01*
X85775030Y-94078522D01*
X85963414Y-94226112D01*
X85963423Y-94226118D01*
X86242956Y-94395101D01*
X86242958Y-94395102D01*
X86540824Y-94529160D01*
X86540835Y-94529164D01*
X86852658Y-94626332D01*
X87173961Y-94685213D01*
X87500000Y-94704934D01*
X87826038Y-94685213D01*
X88147341Y-94626332D01*
X88459164Y-94529164D01*
X88459175Y-94529160D01*
X88757041Y-94395102D01*
X88757043Y-94395101D01*
X89036576Y-94226118D01*
X89036584Y-94226112D01*
X89224968Y-94078522D01*
X89224968Y-94078521D01*
X88358822Y-93212375D01*
X88466726Y-93212375D01*
X88506339Y-93294631D01*
X88577718Y-93351553D01*
X88644194Y-93366726D01*
X88689258Y-93366726D01*
X88755734Y-93351553D01*
X88827113Y-93294631D01*
X88866726Y-93212375D01*
X88866726Y-93121077D01*
X88827113Y-93038821D01*
X88755734Y-92981899D01*
X88689258Y-92966726D01*
X88644194Y-92966726D01*
X88577718Y-92981899D01*
X88506339Y-93038821D01*
X88466726Y-93121077D01*
X88466726Y-93212375D01*
X88358822Y-93212375D01*
X88083306Y-92936859D01*
X88097410Y-92929589D01*
X88262540Y-92799729D01*
X88400110Y-92640965D01*
X88434665Y-92581112D01*
X89578521Y-93724968D01*
X89578522Y-93724968D01*
X89726112Y-93536584D01*
X89726118Y-93536576D01*
X89895101Y-93257043D01*
X89895102Y-93257041D01*
X90029160Y-92959175D01*
X90029164Y-92959164D01*
X90126332Y-92647341D01*
X90185213Y-92326038D01*
X90204934Y-92000000D01*
X90185213Y-91673961D01*
X90126332Y-91352658D01*
X90029164Y-91040835D01*
X90029160Y-91040824D01*
X89920774Y-90800000D01*
X97884540Y-90800000D01*
X97904326Y-90988256D01*
X97904327Y-90988259D01*
X97962818Y-91168277D01*
X97962821Y-91168284D01*
X98057467Y-91332216D01*
X98159185Y-91445185D01*
X98184129Y-91472888D01*
X98337265Y-91584148D01*
X98337270Y-91584151D01*
X98510192Y-91661142D01*
X98510197Y-91661144D01*
X98695354Y-91700500D01*
X98695355Y-91700500D01*
X98884644Y-91700500D01*
X98884646Y-91700500D01*
X99069803Y-91661144D01*
X99242730Y-91584151D01*
X99395871Y-91472888D01*
X99398788Y-91469647D01*
X99401600Y-91466526D01*
X99461087Y-91429879D01*
X99493748Y-91425500D01*
X105489548Y-91425500D01*
X105556587Y-91445185D01*
X105577229Y-91461819D01*
X106100728Y-91985318D01*
X106134213Y-92046641D01*
X106136367Y-92060032D01*
X106144326Y-92135756D01*
X106144327Y-92135759D01*
X106202818Y-92315777D01*
X106202821Y-92315784D01*
X106297467Y-92479716D01*
X106363004Y-92552502D01*
X106424129Y-92620388D01*
X106577265Y-92731648D01*
X106577270Y-92731651D01*
X106750192Y-92808642D01*
X106750197Y-92808644D01*
X106935354Y-92848000D01*
X106935355Y-92848000D01*
X107124644Y-92848000D01*
X107124646Y-92848000D01*
X107309803Y-92808644D01*
X107482730Y-92731651D01*
X107635871Y-92620388D01*
X107762533Y-92479716D01*
X107857179Y-92315784D01*
X107915674Y-92135756D01*
X107935460Y-91947500D01*
X107915674Y-91759244D01*
X107861112Y-91591323D01*
X107857181Y-91579222D01*
X107857180Y-91579221D01*
X107857179Y-91579216D01*
X107762533Y-91415284D01*
X107635871Y-91274612D01*
X107635870Y-91274611D01*
X107482734Y-91163351D01*
X107482729Y-91163348D01*
X107309807Y-91086357D01*
X107309802Y-91086355D01*
X107164000Y-91055365D01*
X107124646Y-91047000D01*
X106982953Y-91047000D01*
X106915914Y-91027315D01*
X106895272Y-91010681D01*
X106300803Y-90416212D01*
X106290980Y-90403950D01*
X106290759Y-90404134D01*
X106285786Y-90398123D01*
X106260630Y-90374500D01*
X106235364Y-90350773D01*
X106224919Y-90340328D01*
X106214475Y-90329883D01*
X106208986Y-90325625D01*
X106204561Y-90321847D01*
X106170582Y-90289938D01*
X106170580Y-90289936D01*
X106170577Y-90289935D01*
X106153029Y-90280288D01*
X106136763Y-90269604D01*
X106120933Y-90257325D01*
X106078168Y-90238818D01*
X106072922Y-90236248D01*
X106032093Y-90213803D01*
X106032092Y-90213802D01*
X106012693Y-90208822D01*
X105994281Y-90202518D01*
X105975898Y-90194562D01*
X105975892Y-90194560D01*
X105929874Y-90187272D01*
X105924152Y-90186087D01*
X105879021Y-90174500D01*
X105879019Y-90174500D01*
X105858984Y-90174500D01*
X105839586Y-90172973D01*
X105832162Y-90171797D01*
X105819805Y-90169840D01*
X105819804Y-90169840D01*
X105773416Y-90174225D01*
X105767578Y-90174500D01*
X99493748Y-90174500D01*
X99426709Y-90154815D01*
X99401600Y-90133474D01*
X99395873Y-90127114D01*
X99395869Y-90127110D01*
X99242734Y-90015851D01*
X99242729Y-90015848D01*
X99069807Y-89938857D01*
X99069802Y-89938855D01*
X98924001Y-89907865D01*
X98884646Y-89899500D01*
X98695354Y-89899500D01*
X98662897Y-89906398D01*
X98510197Y-89938855D01*
X98510192Y-89938857D01*
X98337270Y-90015848D01*
X98337265Y-90015851D01*
X98184129Y-90127111D01*
X98057466Y-90267785D01*
X97962821Y-90431715D01*
X97962818Y-90431722D01*
X97904327Y-90611740D01*
X97904326Y-90611744D01*
X97884540Y-90800000D01*
X89920774Y-90800000D01*
X89895102Y-90742958D01*
X89895101Y-90742956D01*
X89726118Y-90463423D01*
X89726112Y-90463414D01*
X89578521Y-90275030D01*
X88435788Y-91417763D01*
X88335106Y-91276376D01*
X88183068Y-91131408D01*
X88080777Y-91065669D01*
X88267523Y-90878923D01*
X88466726Y-90878923D01*
X88506339Y-90961179D01*
X88577718Y-91018101D01*
X88644194Y-91033274D01*
X88689258Y-91033274D01*
X88755734Y-91018101D01*
X88827113Y-90961179D01*
X88866726Y-90878923D01*
X88866726Y-90787625D01*
X88827113Y-90705369D01*
X88755734Y-90648447D01*
X88689258Y-90633274D01*
X88644194Y-90633274D01*
X88577718Y-90648447D01*
X88506339Y-90705369D01*
X88466726Y-90787625D01*
X88466726Y-90878923D01*
X88267523Y-90878923D01*
X89224968Y-89921477D01*
X89224968Y-89921476D01*
X89036586Y-89773887D01*
X88757043Y-89604898D01*
X88757041Y-89604897D01*
X88459175Y-89470839D01*
X88459164Y-89470835D01*
X88147341Y-89373667D01*
X87826038Y-89314786D01*
X87500000Y-89295065D01*
X87173961Y-89314786D01*
X86852658Y-89373667D01*
X86540835Y-89470835D01*
X86540824Y-89470839D01*
X86242958Y-89604897D01*
X86242956Y-89604898D01*
X85963423Y-89773881D01*
X85775030Y-89921476D01*
X85775030Y-89921477D01*
X86916693Y-91063140D01*
X86902590Y-91070411D01*
X86737460Y-91200271D01*
X86599890Y-91359035D01*
X86565334Y-91418887D01*
X86025370Y-90878923D01*
X86133274Y-90878923D01*
X86172887Y-90961179D01*
X86244266Y-91018101D01*
X86310742Y-91033274D01*
X86355806Y-91033274D01*
X86422282Y-91018101D01*
X86493661Y-90961179D01*
X86533274Y-90878923D01*
X86533274Y-90787625D01*
X86493661Y-90705369D01*
X86422282Y-90648447D01*
X86355806Y-90633274D01*
X86310742Y-90633274D01*
X86244266Y-90648447D01*
X86172887Y-90705369D01*
X86133274Y-90787625D01*
X86133274Y-90878923D01*
X86025370Y-90878923D01*
X85421477Y-90275030D01*
X85421476Y-90275030D01*
X85273881Y-90463423D01*
X85104898Y-90742956D01*
X85104897Y-90742958D01*
X84970839Y-91040824D01*
X84970835Y-91040835D01*
X84873667Y-91352658D01*
X84814786Y-91673961D01*
X84795065Y-92000000D01*
X83500500Y-92000000D01*
X83500500Y-82400000D01*
X99975202Y-82400000D01*
X99994353Y-82606676D01*
X100051158Y-82806327D01*
X100143673Y-82992123D01*
X100143681Y-82992136D01*
X100148254Y-82998191D01*
X100684565Y-82461880D01*
X100695577Y-82531405D01*
X100755978Y-82649947D01*
X100850053Y-82744022D01*
X100968595Y-82804423D01*
X101038118Y-82815434D01*
X100504785Y-83348767D01*
X100504785Y-83348768D01*
X100598625Y-83406872D01*
X100598634Y-83406877D01*
X100792186Y-83481859D01*
X100996219Y-83520000D01*
X101203781Y-83520000D01*
X101407813Y-83481859D01*
X101407814Y-83481859D01*
X101601370Y-83406875D01*
X101695214Y-83348768D01*
X101695214Y-83348767D01*
X101161881Y-82815434D01*
X101231405Y-82804423D01*
X101349947Y-82744022D01*
X101444022Y-82649947D01*
X101504423Y-82531405D01*
X101515434Y-82461880D01*
X102051744Y-82998190D01*
X102051745Y-82998190D01*
X102056324Y-82992127D01*
X102056326Y-82992124D01*
X102148840Y-82806330D01*
X102148841Y-82806329D01*
X102205646Y-82606676D01*
X102224797Y-82400001D01*
X102223495Y-82385943D01*
X102236909Y-82317373D01*
X102285265Y-82266941D01*
X102346966Y-82250500D01*
X102393034Y-82250500D01*
X102460073Y-82270185D01*
X102505828Y-82322989D01*
X102516505Y-82385943D01*
X102515202Y-82400001D01*
X102534353Y-82606676D01*
X102591158Y-82806327D01*
X102683673Y-82992123D01*
X102683681Y-82992136D01*
X102688254Y-82998191D01*
X103224565Y-82461880D01*
X103235577Y-82531405D01*
X103295978Y-82649947D01*
X103390053Y-82744022D01*
X103508595Y-82804423D01*
X103578118Y-82815434D01*
X103044785Y-83348767D01*
X103044785Y-83348768D01*
X103138625Y-83406872D01*
X103138634Y-83406877D01*
X103332186Y-83481859D01*
X103536219Y-83520000D01*
X103743781Y-83520000D01*
X103947813Y-83481859D01*
X103947814Y-83481859D01*
X104141370Y-83406875D01*
X104235214Y-83348768D01*
X104235214Y-83348767D01*
X103701881Y-82815434D01*
X103771405Y-82804423D01*
X103889947Y-82744022D01*
X103984022Y-82649947D01*
X104044423Y-82531405D01*
X104055434Y-82461881D01*
X104591744Y-82998190D01*
X104591745Y-82998190D01*
X104596324Y-82992127D01*
X104596326Y-82992124D01*
X104688840Y-82806330D01*
X104688841Y-82806329D01*
X104745646Y-82606676D01*
X104764798Y-82400000D01*
X104764798Y-82399999D01*
X104745646Y-82193323D01*
X104688841Y-81993670D01*
X104688840Y-81993669D01*
X104596328Y-81807879D01*
X104596324Y-81807873D01*
X104591744Y-81801808D01*
X104055434Y-82338118D01*
X104044423Y-82268595D01*
X103984022Y-82150053D01*
X103889947Y-82055978D01*
X103771405Y-81995577D01*
X103701881Y-81984565D01*
X104235214Y-81451231D01*
X104235213Y-81451229D01*
X104141374Y-81393126D01*
X103947813Y-81318140D01*
X103743781Y-81280000D01*
X103617422Y-81280000D01*
X103550383Y-81260315D01*
X103504628Y-81207511D01*
X103493951Y-81144559D01*
X103495300Y-81130000D01*
X103495300Y-81129999D01*
X103493951Y-81115441D01*
X103507366Y-81046871D01*
X103555723Y-80996440D01*
X103617422Y-80980000D01*
X103743781Y-80980000D01*
X103947813Y-80941859D01*
X103947814Y-80941859D01*
X104141370Y-80866875D01*
X104235214Y-80808768D01*
X104235214Y-80808767D01*
X103701881Y-80275434D01*
X103771405Y-80264423D01*
X103889947Y-80204022D01*
X103984022Y-80109947D01*
X104044423Y-79991405D01*
X104055434Y-79921880D01*
X104591745Y-80458191D01*
X104596324Y-80452128D01*
X104596326Y-80452124D01*
X104688840Y-80266330D01*
X104688841Y-80266329D01*
X104745646Y-80066676D01*
X104764798Y-79860000D01*
X104764798Y-79859999D01*
X104745646Y-79653323D01*
X104688841Y-79453670D01*
X104688840Y-79453669D01*
X104596328Y-79267879D01*
X104596324Y-79267873D01*
X104591744Y-79261808D01*
X104055433Y-79798117D01*
X104044423Y-79728595D01*
X103984022Y-79610053D01*
X103889947Y-79515978D01*
X103771405Y-79455577D01*
X103701881Y-79444565D01*
X104235214Y-78911231D01*
X104235213Y-78911229D01*
X104141374Y-78853126D01*
X103947813Y-78778140D01*
X103743781Y-78740000D01*
X103536219Y-78740000D01*
X103332186Y-78778140D01*
X103332185Y-78778140D01*
X103138634Y-78853121D01*
X103138633Y-78853122D01*
X103044784Y-78911231D01*
X103578119Y-79444565D01*
X103508595Y-79455577D01*
X103390053Y-79515978D01*
X103295978Y-79610053D01*
X103235577Y-79728595D01*
X103224565Y-79798118D01*
X102688254Y-79261807D01*
X102688253Y-79261808D01*
X102683679Y-79267866D01*
X102683675Y-79267872D01*
X102591158Y-79453672D01*
X102534353Y-79653323D01*
X102515202Y-79859998D01*
X102516505Y-79874057D01*
X102503091Y-79942627D01*
X102454734Y-79993060D01*
X102393034Y-80009500D01*
X102346966Y-80009500D01*
X102279927Y-79989815D01*
X102234172Y-79937011D01*
X102223495Y-79874057D01*
X102224797Y-79859998D01*
X102205646Y-79653323D01*
X102148841Y-79453670D01*
X102148840Y-79453669D01*
X102056328Y-79267879D01*
X102056324Y-79267873D01*
X102051744Y-79261808D01*
X101515434Y-79798117D01*
X101504423Y-79728595D01*
X101444022Y-79610053D01*
X101349947Y-79515978D01*
X101231405Y-79455577D01*
X101161881Y-79444565D01*
X101695214Y-78911231D01*
X101695213Y-78911229D01*
X101601374Y-78853126D01*
X101407813Y-78778140D01*
X101203781Y-78740000D01*
X100996219Y-78740000D01*
X100792186Y-78778140D01*
X100792185Y-78778140D01*
X100598634Y-78853121D01*
X100598633Y-78853122D01*
X100504784Y-78911231D01*
X101038119Y-79444565D01*
X100968595Y-79455577D01*
X100850053Y-79515978D01*
X100755978Y-79610053D01*
X100695577Y-79728595D01*
X100684565Y-79798118D01*
X100148254Y-79261807D01*
X100148253Y-79261808D01*
X100143679Y-79267866D01*
X100143675Y-79267872D01*
X100051158Y-79453672D01*
X99994353Y-79653323D01*
X99975202Y-79859999D01*
X99975202Y-79860000D01*
X99994353Y-80066676D01*
X100051158Y-80266327D01*
X100143673Y-80452123D01*
X100143681Y-80452136D01*
X100148254Y-80458191D01*
X100684565Y-79921880D01*
X100695577Y-79991405D01*
X100755978Y-80109947D01*
X100850053Y-80204022D01*
X100968595Y-80264423D01*
X101038117Y-80275434D01*
X100504785Y-80808767D01*
X100504785Y-80808768D01*
X100598625Y-80866872D01*
X100598634Y-80866877D01*
X100792186Y-80941859D01*
X100996219Y-80980000D01*
X101122578Y-80980000D01*
X101189617Y-80999685D01*
X101235372Y-81052489D01*
X101246049Y-81115441D01*
X101244700Y-81129999D01*
X101244700Y-81130000D01*
X101246049Y-81144559D01*
X101232634Y-81213129D01*
X101184277Y-81263560D01*
X101122578Y-81280000D01*
X100996219Y-81280000D01*
X100792186Y-81318140D01*
X100792185Y-81318140D01*
X100598634Y-81393121D01*
X100598633Y-81393122D01*
X100504784Y-81451231D01*
X101038118Y-81984565D01*
X100968595Y-81995577D01*
X100850053Y-82055978D01*
X100755978Y-82150053D01*
X100695577Y-82268595D01*
X100684565Y-82338118D01*
X100148254Y-81801807D01*
X100148253Y-81801808D01*
X100143679Y-81807866D01*
X100143675Y-81807872D01*
X100051158Y-81993672D01*
X99994353Y-82193323D01*
X99975202Y-82399999D01*
X99975202Y-82400000D01*
X83500500Y-82400000D01*
X83500500Y-67000000D01*
X84795065Y-67000000D01*
X84814786Y-67326038D01*
X84873667Y-67647341D01*
X84970835Y-67959164D01*
X84970839Y-67959175D01*
X85104897Y-68257041D01*
X85104898Y-68257043D01*
X85273887Y-68536586D01*
X85421477Y-68724968D01*
X85934070Y-68212375D01*
X86133274Y-68212375D01*
X86172887Y-68294631D01*
X86244266Y-68351553D01*
X86310742Y-68366726D01*
X86355806Y-68366726D01*
X86422282Y-68351553D01*
X86493661Y-68294631D01*
X86533274Y-68212375D01*
X86533274Y-68121077D01*
X86493661Y-68038821D01*
X86422282Y-67981899D01*
X86355806Y-67966726D01*
X86310742Y-67966726D01*
X86244266Y-67981899D01*
X86172887Y-68038821D01*
X86133274Y-68121077D01*
X86133274Y-68212375D01*
X85934070Y-68212375D01*
X86564210Y-67582234D01*
X86664894Y-67723624D01*
X86816932Y-67868592D01*
X86919222Y-67934330D01*
X85775030Y-69078521D01*
X85775030Y-69078522D01*
X85963414Y-69226112D01*
X85963423Y-69226118D01*
X86242956Y-69395101D01*
X86242958Y-69395102D01*
X86540824Y-69529160D01*
X86540835Y-69529164D01*
X86852658Y-69626332D01*
X87173961Y-69685213D01*
X87499999Y-69704934D01*
X87826038Y-69685213D01*
X88147341Y-69626332D01*
X88459164Y-69529164D01*
X88459175Y-69529160D01*
X88757041Y-69395102D01*
X88757043Y-69395101D01*
X89036576Y-69226118D01*
X89036584Y-69226112D01*
X89224968Y-69078522D01*
X89224968Y-69078521D01*
X88358822Y-68212375D01*
X88466726Y-68212375D01*
X88506339Y-68294631D01*
X88577718Y-68351553D01*
X88644194Y-68366726D01*
X88689258Y-68366726D01*
X88755734Y-68351553D01*
X88827113Y-68294631D01*
X88866726Y-68212375D01*
X88866726Y-68121077D01*
X88827113Y-68038821D01*
X88755734Y-67981899D01*
X88689258Y-67966726D01*
X88644194Y-67966726D01*
X88577718Y-67981899D01*
X88506339Y-68038821D01*
X88466726Y-68121077D01*
X88466726Y-68212375D01*
X88358822Y-68212375D01*
X88083306Y-67936859D01*
X88097410Y-67929589D01*
X88262540Y-67799729D01*
X88400110Y-67640965D01*
X88434665Y-67581112D01*
X89578521Y-68724968D01*
X89578522Y-68724968D01*
X89726112Y-68536584D01*
X89726118Y-68536576D01*
X89895101Y-68257043D01*
X89895102Y-68257041D01*
X90029160Y-67959175D01*
X90029164Y-67959164D01*
X90126332Y-67647341D01*
X90185213Y-67326038D01*
X90204934Y-67000000D01*
X90185213Y-66673961D01*
X90126332Y-66352658D01*
X90029164Y-66040835D01*
X90029160Y-66040824D01*
X89895102Y-65742958D01*
X89895101Y-65742956D01*
X89726118Y-65463423D01*
X89726112Y-65463414D01*
X89578521Y-65275030D01*
X88435787Y-66417763D01*
X88335106Y-66276376D01*
X88183068Y-66131408D01*
X88080776Y-66065668D01*
X88267521Y-65878923D01*
X88466726Y-65878923D01*
X88506339Y-65961179D01*
X88577718Y-66018101D01*
X88644194Y-66033274D01*
X88689258Y-66033274D01*
X88755734Y-66018101D01*
X88827113Y-65961179D01*
X88866726Y-65878923D01*
X88866726Y-65787625D01*
X88827113Y-65705369D01*
X88755734Y-65648447D01*
X88689258Y-65633274D01*
X88644194Y-65633274D01*
X88577718Y-65648447D01*
X88506339Y-65705369D01*
X88466726Y-65787625D01*
X88466726Y-65878923D01*
X88267521Y-65878923D01*
X89224968Y-64921477D01*
X89224968Y-64921476D01*
X89036586Y-64773887D01*
X88757043Y-64604898D01*
X88757041Y-64604897D01*
X88459175Y-64470839D01*
X88459164Y-64470835D01*
X88147341Y-64373667D01*
X87826038Y-64314786D01*
X87499999Y-64295065D01*
X87173961Y-64314786D01*
X86852658Y-64373667D01*
X86540835Y-64470835D01*
X86540824Y-64470839D01*
X86242958Y-64604897D01*
X86242956Y-64604898D01*
X85963423Y-64773881D01*
X85775030Y-64921476D01*
X85775030Y-64921477D01*
X86916693Y-66063140D01*
X86902590Y-66070411D01*
X86737460Y-66200271D01*
X86599890Y-66359035D01*
X86565334Y-66418886D01*
X86025371Y-65878923D01*
X86133274Y-65878923D01*
X86172887Y-65961179D01*
X86244266Y-66018101D01*
X86310742Y-66033274D01*
X86355806Y-66033274D01*
X86422282Y-66018101D01*
X86493661Y-65961179D01*
X86533274Y-65878923D01*
X86533274Y-65787625D01*
X86493661Y-65705369D01*
X86422282Y-65648447D01*
X86355806Y-65633274D01*
X86310742Y-65633274D01*
X86244266Y-65648447D01*
X86172887Y-65705369D01*
X86133274Y-65787625D01*
X86133274Y-65878923D01*
X86025371Y-65878923D01*
X85421477Y-65275030D01*
X85421476Y-65275030D01*
X85273881Y-65463423D01*
X85104898Y-65742956D01*
X85104897Y-65742958D01*
X84970839Y-66040824D01*
X84970835Y-66040835D01*
X84873667Y-66352658D01*
X84814786Y-66673961D01*
X84795065Y-67000000D01*
X83500500Y-67000000D01*
X83500500Y-53124500D01*
X83520185Y-53057461D01*
X83572989Y-53011706D01*
X83624500Y-53000500D01*
X103876000Y-53000500D01*
X103943039Y-53020185D01*
G37*
%TD.AperFunction*%
%TA.AperFunction,Conductor*%
G36*
X154744691Y-64019685D02*
G01*
X154765333Y-64036319D01*
X155163681Y-64434667D01*
X155197166Y-64495990D01*
X155200000Y-64522348D01*
X155200000Y-69258604D01*
X155180315Y-69325643D01*
X155127511Y-69371398D01*
X155058353Y-69381342D01*
X154994797Y-69352317D01*
X154965000Y-69313876D01*
X154957131Y-69298074D01*
X154823108Y-69120599D01*
X154658761Y-68970778D01*
X154469679Y-68853702D01*
X154469677Y-68853701D01*
X154262299Y-68773364D01*
X154182500Y-68758446D01*
X154182500Y-69696998D01*
X154074815Y-69647820D01*
X153968263Y-69632500D01*
X153896737Y-69632500D01*
X153790185Y-69647820D01*
X153682500Y-69696998D01*
X153682500Y-68758446D01*
X153602700Y-68773364D01*
X153395322Y-68853701D01*
X153395320Y-68853702D01*
X153206238Y-68970778D01*
X153041891Y-69120599D01*
X152907868Y-69298074D01*
X152808739Y-69497151D01*
X152808737Y-69497155D01*
X152782025Y-69591040D01*
X152744746Y-69650133D01*
X152681436Y-69679690D01*
X152612197Y-69670328D01*
X152559010Y-69625018D01*
X152543494Y-69591041D01*
X152516729Y-69496972D01*
X152516724Y-69496961D01*
X152417561Y-69297816D01*
X152417556Y-69297808D01*
X152283479Y-69120261D01*
X152119062Y-68970376D01*
X152119060Y-68970374D01*
X151929904Y-68853254D01*
X151929898Y-68853252D01*
X151921504Y-68850000D01*
X151722440Y-68772882D01*
X151503743Y-68732000D01*
X151281257Y-68732000D01*
X151062560Y-68772882D01*
X150931364Y-68823707D01*
X150855101Y-68853252D01*
X150855095Y-68853254D01*
X150665939Y-68970374D01*
X150665937Y-68970376D01*
X150501520Y-69120261D01*
X150367443Y-69297808D01*
X150367438Y-69297816D01*
X150268275Y-69496961D01*
X150268269Y-69496977D01*
X150264818Y-69509107D01*
X150227537Y-69568199D01*
X150164227Y-69597755D01*
X150094987Y-69588391D01*
X150057872Y-69562850D01*
X144770293Y-64275271D01*
X144736808Y-64213948D01*
X144741792Y-64144256D01*
X144783664Y-64088323D01*
X144849128Y-64063906D01*
X144853877Y-64063658D01*
X146800000Y-64000000D01*
X154677652Y-64000000D01*
X154744691Y-64019685D01*
G37*
%TD.AperFunction*%
%TD*%
%TA.AperFunction,Conductor*%
%TO.N,GND*%
G36*
X184442539Y-53020185D02*
G01*
X184488294Y-53072989D01*
X184499500Y-53124500D01*
X184499500Y-64058341D01*
X157640580Y-64505989D01*
X154938960Y-61804369D01*
X154905475Y-61743046D01*
X154903323Y-61729668D01*
X154885674Y-61561744D01*
X154827179Y-61381716D01*
X154732533Y-61217784D01*
X154605871Y-61077112D01*
X154605870Y-61077111D01*
X154452734Y-60965851D01*
X154452729Y-60965848D01*
X154279807Y-60888857D01*
X154279802Y-60888855D01*
X154134001Y-60857865D01*
X154094646Y-60849500D01*
X153905354Y-60849500D01*
X153872897Y-60856398D01*
X153720197Y-60888855D01*
X153720192Y-60888857D01*
X153547270Y-60965848D01*
X153547265Y-60965851D01*
X153394129Y-61077111D01*
X153267466Y-61217785D01*
X153172821Y-61381715D01*
X153172818Y-61381722D01*
X153114327Y-61561740D01*
X153114326Y-61561744D01*
X153094540Y-61750000D01*
X153114326Y-61938256D01*
X153114327Y-61938259D01*
X153172818Y-62118277D01*
X153172821Y-62118284D01*
X153267467Y-62282216D01*
X153357063Y-62381722D01*
X153389303Y-62417528D01*
X153419533Y-62480519D01*
X153410908Y-62549854D01*
X153366167Y-62603520D01*
X153299514Y-62624478D01*
X153297153Y-62624500D01*
X142560452Y-62624500D01*
X142493413Y-62604815D01*
X142472771Y-62588181D01*
X142188960Y-62304369D01*
X142155475Y-62243046D01*
X142153323Y-62229668D01*
X142135674Y-62061744D01*
X142077179Y-61881716D01*
X141982533Y-61717784D01*
X141855871Y-61577112D01*
X141834719Y-61561744D01*
X141702734Y-61465851D01*
X141702729Y-61465848D01*
X141529807Y-61388857D01*
X141529802Y-61388855D01*
X141384000Y-61357865D01*
X141344646Y-61349500D01*
X141155354Y-61349500D01*
X141122897Y-61356398D01*
X140970197Y-61388855D01*
X140970192Y-61388857D01*
X140797270Y-61465848D01*
X140797265Y-61465851D01*
X140644129Y-61577111D01*
X140517466Y-61717785D01*
X140422821Y-61881715D01*
X140422818Y-61881722D01*
X140364327Y-62061740D01*
X140364326Y-62061744D01*
X140344540Y-62250000D01*
X140364326Y-62438256D01*
X140364327Y-62438259D01*
X140422818Y-62618277D01*
X140422821Y-62618284D01*
X140517464Y-62782212D01*
X140517465Y-62782214D01*
X140517467Y-62782216D01*
X140594284Y-62867530D01*
X140624513Y-62930519D01*
X140615888Y-62999854D01*
X140571147Y-63053520D01*
X140504494Y-63074478D01*
X140502133Y-63074500D01*
X133010452Y-63074500D01*
X132943413Y-63054815D01*
X132922771Y-63038181D01*
X132688960Y-62804369D01*
X132655475Y-62743046D01*
X132653323Y-62729668D01*
X132635674Y-62561744D01*
X132577179Y-62381716D01*
X132482533Y-62217784D01*
X132355871Y-62077112D01*
X132334719Y-62061744D01*
X132202734Y-61965851D01*
X132202729Y-61965848D01*
X132029807Y-61888857D01*
X132029802Y-61888855D01*
X131884000Y-61857865D01*
X131844646Y-61849500D01*
X131655354Y-61849500D01*
X131622897Y-61856398D01*
X131470197Y-61888855D01*
X131470192Y-61888857D01*
X131297270Y-61965848D01*
X131297265Y-61965851D01*
X131144129Y-62077111D01*
X131017466Y-62217785D01*
X130922821Y-62381715D01*
X130922818Y-62381722D01*
X130868189Y-62549854D01*
X130864326Y-62561744D01*
X130844540Y-62750000D01*
X130864326Y-62938256D01*
X130864327Y-62938259D01*
X130922818Y-63118277D01*
X130922821Y-63118284D01*
X131017467Y-63282216D01*
X131044007Y-63311691D01*
X131049262Y-63317528D01*
X131079492Y-63380520D01*
X131070867Y-63449855D01*
X131026125Y-63503520D01*
X130959473Y-63524478D01*
X130957112Y-63524500D01*
X122784038Y-63524500D01*
X122716999Y-63504815D01*
X122676651Y-63462500D01*
X122653781Y-63422888D01*
X122607533Y-63342784D01*
X122480871Y-63202112D01*
X122393808Y-63138857D01*
X122327734Y-63090851D01*
X122327729Y-63090848D01*
X122154807Y-63013857D01*
X122154802Y-63013855D01*
X122009000Y-62982865D01*
X121969646Y-62974500D01*
X121780354Y-62974500D01*
X121747897Y-62981398D01*
X121595197Y-63013855D01*
X121595192Y-63013857D01*
X121422270Y-63090848D01*
X121422265Y-63090851D01*
X121269129Y-63202111D01*
X121142466Y-63342785D01*
X121047821Y-63506715D01*
X121047818Y-63506722D01*
X120989327Y-63686740D01*
X120989326Y-63686744D01*
X120970753Y-63863462D01*
X120944168Y-63928076D01*
X120886871Y-63968061D01*
X120847432Y-63974500D01*
X117764430Y-63974500D01*
X117697391Y-63954815D01*
X117651636Y-63902011D01*
X117641110Y-63863465D01*
X117635674Y-63811744D01*
X117577179Y-63631716D01*
X117482533Y-63467784D01*
X117355871Y-63327112D01*
X117294077Y-63282216D01*
X117202734Y-63215851D01*
X117202729Y-63215848D01*
X117029807Y-63138857D01*
X117029802Y-63138855D01*
X116884001Y-63107865D01*
X116844646Y-63099500D01*
X116655354Y-63099500D01*
X116622897Y-63106398D01*
X116470197Y-63138855D01*
X116470192Y-63138857D01*
X116297270Y-63215848D01*
X116297265Y-63215851D01*
X116144129Y-63327111D01*
X116017466Y-63467785D01*
X115922821Y-63631715D01*
X115922818Y-63631722D01*
X115864327Y-63811740D01*
X115864326Y-63811744D01*
X115844540Y-64000000D01*
X115864326Y-64188256D01*
X115864327Y-64188259D01*
X115888346Y-64262182D01*
X115890341Y-64332023D01*
X115854261Y-64391856D01*
X115791560Y-64422684D01*
X115770415Y-64424500D01*
X110976303Y-64424500D01*
X110909264Y-64404815D01*
X110868916Y-64362500D01*
X110857533Y-64342784D01*
X110730871Y-64202112D01*
X110711800Y-64188256D01*
X110577734Y-64090851D01*
X110577729Y-64090848D01*
X110404807Y-64013857D01*
X110404802Y-64013855D01*
X110259000Y-63982865D01*
X110219646Y-63974500D01*
X110030354Y-63974500D01*
X109997897Y-63981398D01*
X109845197Y-64013855D01*
X109845192Y-64013857D01*
X109672270Y-64090848D01*
X109672265Y-64090851D01*
X109519129Y-64202111D01*
X109392466Y-64342785D01*
X109297821Y-64506715D01*
X109297819Y-64506719D01*
X109254362Y-64640466D01*
X109214924Y-64698141D01*
X109150565Y-64725339D01*
X109140485Y-64726081D01*
X104633554Y-64873505D01*
X104565907Y-64856022D01*
X104518450Y-64804743D01*
X104505500Y-64749571D01*
X104505500Y-53124500D01*
X104525185Y-53057461D01*
X104577989Y-53011706D01*
X104629500Y-53000500D01*
X184375500Y-53000500D01*
X184442539Y-53020185D01*
G37*
%TD.AperFunction*%
%TD*%
M02*
