%TF.GenerationSoftware,KiCad,Pcbnew,7.0.6*%
%TF.CreationDate,2023-09-07T21:54:39-06:00*%
%TF.ProjectId,low_power_heater,6c6f775f-706f-4776-9572-5f6865617465,rev?*%
%TF.SameCoordinates,Original*%
%TF.FileFunction,Soldermask,Bot*%
%TF.FilePolarity,Negative*%
%FSLAX46Y46*%
G04 Gerber Fmt 4.6, Leading zero omitted, Abs format (unit mm)*
G04 Created by KiCad (PCBNEW 7.0.6) date 2023-09-07 21:54:39*
%MOMM*%
%LPD*%
G01*
G04 APERTURE LIST*
%ADD10C,1.240000*%
%ADD11C,0.700000*%
%ADD12C,4.400000*%
%ADD13R,1.400000X1.800000*%
%ADD14O,1.400000X1.800000*%
%ADD15R,1.700000X1.700000*%
%ADD16O,1.700000X1.700000*%
G04 APERTURE END LIST*
D10*
%TO.C,J14*%
X102370000Y-81130000D03*
X101100000Y-79860000D03*
X101100000Y-82400000D03*
X103640000Y-79860000D03*
X103640000Y-82400000D03*
%TD*%
%TO.C,J13*%
X119870000Y-71730000D03*
X118600000Y-70460000D03*
X118600000Y-73000000D03*
X121140000Y-70460000D03*
X121140000Y-73000000D03*
%TD*%
%TO.C,J12*%
X110130000Y-75130000D03*
X108860000Y-73860000D03*
X108860000Y-76400000D03*
X111400000Y-73860000D03*
X111400000Y-76400000D03*
%TD*%
D11*
%TO.C,H3*%
X85850000Y-67000000D03*
X86333274Y-65833274D03*
X86333274Y-68166726D03*
X87500000Y-65350000D03*
D12*
X87500000Y-67000000D03*
D11*
X87500000Y-68650000D03*
X88666726Y-65833274D03*
X88666726Y-68166726D03*
X89150000Y-67000000D03*
%TD*%
%TO.C,H4*%
X179350000Y-67000000D03*
X179833274Y-65833274D03*
X179833274Y-68166726D03*
X181000000Y-65350000D03*
D12*
X181000000Y-67000000D03*
D11*
X181000000Y-68650000D03*
X182166726Y-65833274D03*
X182166726Y-68166726D03*
X182650000Y-67000000D03*
%TD*%
D13*
%TO.C,PS2*%
X159012500Y-70132500D03*
D14*
X156472500Y-70132500D03*
X153932500Y-70132500D03*
X151392500Y-70132500D03*
%TD*%
D11*
%TO.C,H2*%
X179350000Y-92000000D03*
X179833274Y-90833274D03*
X179833274Y-93166726D03*
X181000000Y-90350000D03*
D12*
X181000000Y-92000000D03*
D11*
X181000000Y-93650000D03*
X182166726Y-90833274D03*
X182166726Y-93166726D03*
X182650000Y-92000000D03*
%TD*%
%TO.C,H1*%
X85850000Y-92000000D03*
X86333274Y-90833274D03*
X86333274Y-93166726D03*
X87500000Y-90350000D03*
D12*
X87500000Y-92000000D03*
D11*
X87500000Y-93650000D03*
X88666726Y-90833274D03*
X88666726Y-93166726D03*
X89150000Y-92000000D03*
%TD*%
D13*
%TO.C,PS1*%
X144237500Y-80867500D03*
D14*
X146777500Y-80867500D03*
X149317500Y-80867500D03*
X151857500Y-80867500D03*
%TD*%
D15*
%TO.C,J11*%
X134250000Y-83000000D03*
D16*
X134250000Y-85540000D03*
X134250000Y-88080000D03*
X134250000Y-90620000D03*
X134250000Y-93160000D03*
%TD*%
M02*
