%TF.GenerationSoftware,KiCad,Pcbnew,7.0.9*%
%TF.CreationDate,2024-10-16T13:46:26-06:00*%
%TF.ProjectId,sq_lockin_v9,73715f6c-6f63-46b6-996e-5f76392e6b69,rev?*%
%TF.SameCoordinates,Original*%
%TF.FileFunction,Legend,Bot*%
%TF.FilePolarity,Positive*%
%FSLAX46Y46*%
G04 Gerber Fmt 4.6, Leading zero omitted, Abs format (unit mm)*
G04 Created by KiCad (PCBNEW 7.0.9) date 2024-10-16 13:46:26*
%MOMM*%
%LPD*%
G01*
G04 APERTURE LIST*
G04 Aperture macros list*
%AMRoundRect*
0 Rectangle with rounded corners*
0 $1 Rounding radius*
0 $2 $3 $4 $5 $6 $7 $8 $9 X,Y pos of 4 corners*
0 Add a 4 corners polygon primitive as box body*
4,1,4,$2,$3,$4,$5,$6,$7,$8,$9,$2,$3,0*
0 Add four circle primitives for the rounded corners*
1,1,$1+$1,$2,$3*
1,1,$1+$1,$4,$5*
1,1,$1+$1,$6,$7*
1,1,$1+$1,$8,$9*
0 Add four rect primitives between the rounded corners*
20,1,$1+$1,$2,$3,$4,$5,0*
20,1,$1+$1,$4,$5,$6,$7,0*
20,1,$1+$1,$6,$7,$8,$9,0*
20,1,$1+$1,$8,$9,$2,$3,0*%
G04 Aperture macros list end*
%ADD10C,0.150000*%
%ADD11RoundRect,0.051000X0.850000X-0.850000X0.850000X0.850000X-0.850000X0.850000X-0.850000X-0.850000X0*%
%ADD12O,1.802000X1.802000*%
%ADD13RoundRect,0.051000X-0.850000X-0.850000X0.850000X-0.850000X0.850000X0.850000X-0.850000X0.850000X0*%
%ADD14RoundRect,0.051000X0.850000X0.850000X-0.850000X0.850000X-0.850000X-0.850000X0.850000X-0.850000X0*%
%ADD15RoundRect,0.051000X-1.125000X0.875000X-1.125000X-0.875000X1.125000X-0.875000X1.125000X0.875000X0*%
%ADD16O,2.352000X1.852000*%
%ADD17C,6.502000*%
%ADD18O,1.602000X5.102000*%
G04 APERTURE END LIST*
D10*
X123300000Y-57000000D02*
X128300000Y-57000000D01*
X128300000Y-62000000D01*
X123300000Y-62000000D01*
X123300000Y-57000000D01*
G36*
X123300000Y-57000000D02*
G01*
X128300000Y-57000000D01*
X128300000Y-62000000D01*
X123300000Y-62000000D01*
X123300000Y-57000000D01*
G37*
X152973220Y-56489819D02*
X152973220Y-55489819D01*
X152973220Y-55489819D02*
X152592268Y-55489819D01*
X152592268Y-55489819D02*
X152497030Y-55537438D01*
X152497030Y-55537438D02*
X152449411Y-55585057D01*
X152449411Y-55585057D02*
X152401792Y-55680295D01*
X152401792Y-55680295D02*
X152401792Y-55823152D01*
X152401792Y-55823152D02*
X152449411Y-55918390D01*
X152449411Y-55918390D02*
X152497030Y-55966009D01*
X152497030Y-55966009D02*
X152592268Y-56013628D01*
X152592268Y-56013628D02*
X152973220Y-56013628D01*
X151401792Y-56394580D02*
X151449411Y-56442200D01*
X151449411Y-56442200D02*
X151592268Y-56489819D01*
X151592268Y-56489819D02*
X151687506Y-56489819D01*
X151687506Y-56489819D02*
X151830363Y-56442200D01*
X151830363Y-56442200D02*
X151925601Y-56346961D01*
X151925601Y-56346961D02*
X151973220Y-56251723D01*
X151973220Y-56251723D02*
X152020839Y-56061247D01*
X152020839Y-56061247D02*
X152020839Y-55918390D01*
X152020839Y-55918390D02*
X151973220Y-55727914D01*
X151973220Y-55727914D02*
X151925601Y-55632676D01*
X151925601Y-55632676D02*
X151830363Y-55537438D01*
X151830363Y-55537438D02*
X151687506Y-55489819D01*
X151687506Y-55489819D02*
X151592268Y-55489819D01*
X151592268Y-55489819D02*
X151449411Y-55537438D01*
X151449411Y-55537438D02*
X151401792Y-55585057D01*
X150639887Y-55966009D02*
X150497030Y-56013628D01*
X150497030Y-56013628D02*
X150449411Y-56061247D01*
X150449411Y-56061247D02*
X150401792Y-56156485D01*
X150401792Y-56156485D02*
X150401792Y-56299342D01*
X150401792Y-56299342D02*
X150449411Y-56394580D01*
X150449411Y-56394580D02*
X150497030Y-56442200D01*
X150497030Y-56442200D02*
X150592268Y-56489819D01*
X150592268Y-56489819D02*
X150973220Y-56489819D01*
X150973220Y-56489819D02*
X150973220Y-55489819D01*
X150973220Y-55489819D02*
X150639887Y-55489819D01*
X150639887Y-55489819D02*
X150544649Y-55537438D01*
X150544649Y-55537438D02*
X150497030Y-55585057D01*
X150497030Y-55585057D02*
X150449411Y-55680295D01*
X150449411Y-55680295D02*
X150449411Y-55775533D01*
X150449411Y-55775533D02*
X150497030Y-55870771D01*
X150497030Y-55870771D02*
X150544649Y-55918390D01*
X150544649Y-55918390D02*
X150639887Y-55966009D01*
X150639887Y-55966009D02*
X150973220Y-55966009D01*
X149973220Y-56394580D02*
X149925601Y-56442200D01*
X149925601Y-56442200D02*
X149973220Y-56489819D01*
X149973220Y-56489819D02*
X150020839Y-56442200D01*
X150020839Y-56442200D02*
X149973220Y-56394580D01*
X149973220Y-56394580D02*
X149973220Y-56489819D01*
X149973220Y-55870771D02*
X149925601Y-55918390D01*
X149925601Y-55918390D02*
X149973220Y-55966009D01*
X149973220Y-55966009D02*
X150020839Y-55918390D01*
X150020839Y-55918390D02*
X149973220Y-55870771D01*
X149973220Y-55870771D02*
X149973220Y-55966009D01*
X148211316Y-56489819D02*
X148782744Y-56489819D01*
X148497030Y-56489819D02*
X148497030Y-55489819D01*
X148497030Y-55489819D02*
X148592268Y-55632676D01*
X148592268Y-55632676D02*
X148687506Y-55727914D01*
X148687506Y-55727914D02*
X148782744Y-55775533D01*
X147592268Y-55489819D02*
X147497030Y-55489819D01*
X147497030Y-55489819D02*
X147401792Y-55537438D01*
X147401792Y-55537438D02*
X147354173Y-55585057D01*
X147354173Y-55585057D02*
X147306554Y-55680295D01*
X147306554Y-55680295D02*
X147258935Y-55870771D01*
X147258935Y-55870771D02*
X147258935Y-56108866D01*
X147258935Y-56108866D02*
X147306554Y-56299342D01*
X147306554Y-56299342D02*
X147354173Y-56394580D01*
X147354173Y-56394580D02*
X147401792Y-56442200D01*
X147401792Y-56442200D02*
X147497030Y-56489819D01*
X147497030Y-56489819D02*
X147592268Y-56489819D01*
X147592268Y-56489819D02*
X147687506Y-56442200D01*
X147687506Y-56442200D02*
X147735125Y-56394580D01*
X147735125Y-56394580D02*
X147782744Y-56299342D01*
X147782744Y-56299342D02*
X147830363Y-56108866D01*
X147830363Y-56108866D02*
X147830363Y-55870771D01*
X147830363Y-55870771D02*
X147782744Y-55680295D01*
X147782744Y-55680295D02*
X147735125Y-55585057D01*
X147735125Y-55585057D02*
X147687506Y-55537438D01*
X147687506Y-55537438D02*
X147592268Y-55489819D01*
X146639887Y-55489819D02*
X146544649Y-55489819D01*
X146544649Y-55489819D02*
X146449411Y-55537438D01*
X146449411Y-55537438D02*
X146401792Y-55585057D01*
X146401792Y-55585057D02*
X146354173Y-55680295D01*
X146354173Y-55680295D02*
X146306554Y-55870771D01*
X146306554Y-55870771D02*
X146306554Y-56108866D01*
X146306554Y-56108866D02*
X146354173Y-56299342D01*
X146354173Y-56299342D02*
X146401792Y-56394580D01*
X146401792Y-56394580D02*
X146449411Y-56442200D01*
X146449411Y-56442200D02*
X146544649Y-56489819D01*
X146544649Y-56489819D02*
X146639887Y-56489819D01*
X146639887Y-56489819D02*
X146735125Y-56442200D01*
X146735125Y-56442200D02*
X146782744Y-56394580D01*
X146782744Y-56394580D02*
X146830363Y-56299342D01*
X146830363Y-56299342D02*
X146877982Y-56108866D01*
X146877982Y-56108866D02*
X146877982Y-55870771D01*
X146877982Y-55870771D02*
X146830363Y-55680295D01*
X146830363Y-55680295D02*
X146782744Y-55585057D01*
X146782744Y-55585057D02*
X146735125Y-55537438D01*
X146735125Y-55537438D02*
X146639887Y-55489819D01*
X145687506Y-55489819D02*
X145592268Y-55489819D01*
X145592268Y-55489819D02*
X145497030Y-55537438D01*
X145497030Y-55537438D02*
X145449411Y-55585057D01*
X145449411Y-55585057D02*
X145401792Y-55680295D01*
X145401792Y-55680295D02*
X145354173Y-55870771D01*
X145354173Y-55870771D02*
X145354173Y-56108866D01*
X145354173Y-56108866D02*
X145401792Y-56299342D01*
X145401792Y-56299342D02*
X145449411Y-56394580D01*
X145449411Y-56394580D02*
X145497030Y-56442200D01*
X145497030Y-56442200D02*
X145592268Y-56489819D01*
X145592268Y-56489819D02*
X145687506Y-56489819D01*
X145687506Y-56489819D02*
X145782744Y-56442200D01*
X145782744Y-56442200D02*
X145830363Y-56394580D01*
X145830363Y-56394580D02*
X145877982Y-56299342D01*
X145877982Y-56299342D02*
X145925601Y-56108866D01*
X145925601Y-56108866D02*
X145925601Y-55870771D01*
X145925601Y-55870771D02*
X145877982Y-55680295D01*
X145877982Y-55680295D02*
X145830363Y-55585057D01*
X145830363Y-55585057D02*
X145782744Y-55537438D01*
X145782744Y-55537438D02*
X145687506Y-55489819D01*
X144877982Y-56489819D02*
X144687506Y-56489819D01*
X144687506Y-56489819D02*
X144592268Y-56442200D01*
X144592268Y-56442200D02*
X144544649Y-56394580D01*
X144544649Y-56394580D02*
X144449411Y-56251723D01*
X144449411Y-56251723D02*
X144401792Y-56061247D01*
X144401792Y-56061247D02*
X144401792Y-55680295D01*
X144401792Y-55680295D02*
X144449411Y-55585057D01*
X144449411Y-55585057D02*
X144497030Y-55537438D01*
X144497030Y-55537438D02*
X144592268Y-55489819D01*
X144592268Y-55489819D02*
X144782744Y-55489819D01*
X144782744Y-55489819D02*
X144877982Y-55537438D01*
X144877982Y-55537438D02*
X144925601Y-55585057D01*
X144925601Y-55585057D02*
X144973220Y-55680295D01*
X144973220Y-55680295D02*
X144973220Y-55918390D01*
X144973220Y-55918390D02*
X144925601Y-56013628D01*
X144925601Y-56013628D02*
X144877982Y-56061247D01*
X144877982Y-56061247D02*
X144782744Y-56108866D01*
X144782744Y-56108866D02*
X144592268Y-56108866D01*
X144592268Y-56108866D02*
X144497030Y-56061247D01*
X144497030Y-56061247D02*
X144449411Y-56013628D01*
X144449411Y-56013628D02*
X144401792Y-55918390D01*
X143973220Y-56108866D02*
X143211316Y-56108866D01*
X142306554Y-55823152D02*
X142306554Y-56489819D01*
X142544649Y-55442200D02*
X142782744Y-56156485D01*
X142782744Y-56156485D02*
X142163697Y-56156485D01*
X141592268Y-55489819D02*
X141497030Y-55489819D01*
X141497030Y-55489819D02*
X141401792Y-55537438D01*
X141401792Y-55537438D02*
X141354173Y-55585057D01*
X141354173Y-55585057D02*
X141306554Y-55680295D01*
X141306554Y-55680295D02*
X141258935Y-55870771D01*
X141258935Y-55870771D02*
X141258935Y-56108866D01*
X141258935Y-56108866D02*
X141306554Y-56299342D01*
X141306554Y-56299342D02*
X141354173Y-56394580D01*
X141354173Y-56394580D02*
X141401792Y-56442200D01*
X141401792Y-56442200D02*
X141497030Y-56489819D01*
X141497030Y-56489819D02*
X141592268Y-56489819D01*
X141592268Y-56489819D02*
X141687506Y-56442200D01*
X141687506Y-56442200D02*
X141735125Y-56394580D01*
X141735125Y-56394580D02*
X141782744Y-56299342D01*
X141782744Y-56299342D02*
X141830363Y-56108866D01*
X141830363Y-56108866D02*
X141830363Y-55870771D01*
X141830363Y-55870771D02*
X141782744Y-55680295D01*
X141782744Y-55680295D02*
X141735125Y-55585057D01*
X141735125Y-55585057D02*
X141687506Y-55537438D01*
X141687506Y-55537438D02*
X141592268Y-55489819D01*
X140639887Y-55489819D02*
X140544649Y-55489819D01*
X140544649Y-55489819D02*
X140449411Y-55537438D01*
X140449411Y-55537438D02*
X140401792Y-55585057D01*
X140401792Y-55585057D02*
X140354173Y-55680295D01*
X140354173Y-55680295D02*
X140306554Y-55870771D01*
X140306554Y-55870771D02*
X140306554Y-56108866D01*
X140306554Y-56108866D02*
X140354173Y-56299342D01*
X140354173Y-56299342D02*
X140401792Y-56394580D01*
X140401792Y-56394580D02*
X140449411Y-56442200D01*
X140449411Y-56442200D02*
X140544649Y-56489819D01*
X140544649Y-56489819D02*
X140639887Y-56489819D01*
X140639887Y-56489819D02*
X140735125Y-56442200D01*
X140735125Y-56442200D02*
X140782744Y-56394580D01*
X140782744Y-56394580D02*
X140830363Y-56299342D01*
X140830363Y-56299342D02*
X140877982Y-56108866D01*
X140877982Y-56108866D02*
X140877982Y-55870771D01*
X140877982Y-55870771D02*
X140830363Y-55680295D01*
X140830363Y-55680295D02*
X140782744Y-55585057D01*
X140782744Y-55585057D02*
X140735125Y-55537438D01*
X140735125Y-55537438D02*
X140639887Y-55489819D01*
X139401792Y-55489819D02*
X139877982Y-55489819D01*
X139877982Y-55489819D02*
X139925601Y-55966009D01*
X139925601Y-55966009D02*
X139877982Y-55918390D01*
X139877982Y-55918390D02*
X139782744Y-55870771D01*
X139782744Y-55870771D02*
X139544649Y-55870771D01*
X139544649Y-55870771D02*
X139449411Y-55918390D01*
X139449411Y-55918390D02*
X139401792Y-55966009D01*
X139401792Y-55966009D02*
X139354173Y-56061247D01*
X139354173Y-56061247D02*
X139354173Y-56299342D01*
X139354173Y-56299342D02*
X139401792Y-56394580D01*
X139401792Y-56394580D02*
X139449411Y-56442200D01*
X139449411Y-56442200D02*
X139544649Y-56489819D01*
X139544649Y-56489819D02*
X139782744Y-56489819D01*
X139782744Y-56489819D02*
X139877982Y-56442200D01*
X139877982Y-56442200D02*
X139925601Y-56394580D01*
X138925601Y-56108866D02*
X138163697Y-56108866D01*
X137497030Y-55489819D02*
X137401792Y-55489819D01*
X137401792Y-55489819D02*
X137306554Y-55537438D01*
X137306554Y-55537438D02*
X137258935Y-55585057D01*
X137258935Y-55585057D02*
X137211316Y-55680295D01*
X137211316Y-55680295D02*
X137163697Y-55870771D01*
X137163697Y-55870771D02*
X137163697Y-56108866D01*
X137163697Y-56108866D02*
X137211316Y-56299342D01*
X137211316Y-56299342D02*
X137258935Y-56394580D01*
X137258935Y-56394580D02*
X137306554Y-56442200D01*
X137306554Y-56442200D02*
X137401792Y-56489819D01*
X137401792Y-56489819D02*
X137497030Y-56489819D01*
X137497030Y-56489819D02*
X137592268Y-56442200D01*
X137592268Y-56442200D02*
X137639887Y-56394580D01*
X137639887Y-56394580D02*
X137687506Y-56299342D01*
X137687506Y-56299342D02*
X137735125Y-56108866D01*
X137735125Y-56108866D02*
X137735125Y-55870771D01*
X137735125Y-55870771D02*
X137687506Y-55680295D01*
X137687506Y-55680295D02*
X137639887Y-55585057D01*
X137639887Y-55585057D02*
X137592268Y-55537438D01*
X137592268Y-55537438D02*
X137497030Y-55489819D01*
X136544649Y-55489819D02*
X136449411Y-55489819D01*
X136449411Y-55489819D02*
X136354173Y-55537438D01*
X136354173Y-55537438D02*
X136306554Y-55585057D01*
X136306554Y-55585057D02*
X136258935Y-55680295D01*
X136258935Y-55680295D02*
X136211316Y-55870771D01*
X136211316Y-55870771D02*
X136211316Y-56108866D01*
X136211316Y-56108866D02*
X136258935Y-56299342D01*
X136258935Y-56299342D02*
X136306554Y-56394580D01*
X136306554Y-56394580D02*
X136354173Y-56442200D01*
X136354173Y-56442200D02*
X136449411Y-56489819D01*
X136449411Y-56489819D02*
X136544649Y-56489819D01*
X136544649Y-56489819D02*
X136639887Y-56442200D01*
X136639887Y-56442200D02*
X136687506Y-56394580D01*
X136687506Y-56394580D02*
X136735125Y-56299342D01*
X136735125Y-56299342D02*
X136782744Y-56108866D01*
X136782744Y-56108866D02*
X136782744Y-55870771D01*
X136782744Y-55870771D02*
X136735125Y-55680295D01*
X136735125Y-55680295D02*
X136687506Y-55585057D01*
X136687506Y-55585057D02*
X136639887Y-55537438D01*
X136639887Y-55537438D02*
X136544649Y-55489819D01*
X134449411Y-56489819D02*
X134782744Y-56013628D01*
X135020839Y-56489819D02*
X135020839Y-55489819D01*
X135020839Y-55489819D02*
X134639887Y-55489819D01*
X134639887Y-55489819D02*
X134544649Y-55537438D01*
X134544649Y-55537438D02*
X134497030Y-55585057D01*
X134497030Y-55585057D02*
X134449411Y-55680295D01*
X134449411Y-55680295D02*
X134449411Y-55823152D01*
X134449411Y-55823152D02*
X134497030Y-55918390D01*
X134497030Y-55918390D02*
X134544649Y-55966009D01*
X134544649Y-55966009D02*
X134639887Y-56013628D01*
X134639887Y-56013628D02*
X135020839Y-56013628D01*
X133639887Y-56442200D02*
X133735125Y-56489819D01*
X133735125Y-56489819D02*
X133925601Y-56489819D01*
X133925601Y-56489819D02*
X134020839Y-56442200D01*
X134020839Y-56442200D02*
X134068458Y-56346961D01*
X134068458Y-56346961D02*
X134068458Y-55966009D01*
X134068458Y-55966009D02*
X134020839Y-55870771D01*
X134020839Y-55870771D02*
X133925601Y-55823152D01*
X133925601Y-55823152D02*
X133735125Y-55823152D01*
X133735125Y-55823152D02*
X133639887Y-55870771D01*
X133639887Y-55870771D02*
X133592268Y-55966009D01*
X133592268Y-55966009D02*
X133592268Y-56061247D01*
X133592268Y-56061247D02*
X134068458Y-56156485D01*
X133258934Y-55823152D02*
X133020839Y-56489819D01*
X133020839Y-56489819D02*
X132782744Y-55823152D01*
X132401791Y-56489819D02*
X132401791Y-55823152D01*
X132401791Y-55489819D02*
X132449410Y-55537438D01*
X132449410Y-55537438D02*
X132401791Y-55585057D01*
X132401791Y-55585057D02*
X132354172Y-55537438D01*
X132354172Y-55537438D02*
X132401791Y-55489819D01*
X132401791Y-55489819D02*
X132401791Y-55585057D01*
X131973220Y-56442200D02*
X131877982Y-56489819D01*
X131877982Y-56489819D02*
X131687506Y-56489819D01*
X131687506Y-56489819D02*
X131592268Y-56442200D01*
X131592268Y-56442200D02*
X131544649Y-56346961D01*
X131544649Y-56346961D02*
X131544649Y-56299342D01*
X131544649Y-56299342D02*
X131592268Y-56204104D01*
X131592268Y-56204104D02*
X131687506Y-56156485D01*
X131687506Y-56156485D02*
X131830363Y-56156485D01*
X131830363Y-56156485D02*
X131925601Y-56108866D01*
X131925601Y-56108866D02*
X131973220Y-56013628D01*
X131973220Y-56013628D02*
X131973220Y-55966009D01*
X131973220Y-55966009D02*
X131925601Y-55870771D01*
X131925601Y-55870771D02*
X131830363Y-55823152D01*
X131830363Y-55823152D02*
X131687506Y-55823152D01*
X131687506Y-55823152D02*
X131592268Y-55870771D01*
X131116077Y-56489819D02*
X131116077Y-55823152D01*
X131116077Y-55489819D02*
X131163696Y-55537438D01*
X131163696Y-55537438D02*
X131116077Y-55585057D01*
X131116077Y-55585057D02*
X131068458Y-55537438D01*
X131068458Y-55537438D02*
X131116077Y-55489819D01*
X131116077Y-55489819D02*
X131116077Y-55585057D01*
X130497030Y-56489819D02*
X130592268Y-56442200D01*
X130592268Y-56442200D02*
X130639887Y-56394580D01*
X130639887Y-56394580D02*
X130687506Y-56299342D01*
X130687506Y-56299342D02*
X130687506Y-56013628D01*
X130687506Y-56013628D02*
X130639887Y-55918390D01*
X130639887Y-55918390D02*
X130592268Y-55870771D01*
X130592268Y-55870771D02*
X130497030Y-55823152D01*
X130497030Y-55823152D02*
X130354173Y-55823152D01*
X130354173Y-55823152D02*
X130258935Y-55870771D01*
X130258935Y-55870771D02*
X130211316Y-55918390D01*
X130211316Y-55918390D02*
X130163697Y-56013628D01*
X130163697Y-56013628D02*
X130163697Y-56299342D01*
X130163697Y-56299342D02*
X130211316Y-56394580D01*
X130211316Y-56394580D02*
X130258935Y-56442200D01*
X130258935Y-56442200D02*
X130354173Y-56489819D01*
X130354173Y-56489819D02*
X130497030Y-56489819D01*
X129735125Y-55823152D02*
X129735125Y-56489819D01*
X129735125Y-55918390D02*
X129687506Y-55870771D01*
X129687506Y-55870771D02*
X129592268Y-55823152D01*
X129592268Y-55823152D02*
X129449411Y-55823152D01*
X129449411Y-55823152D02*
X129354173Y-55870771D01*
X129354173Y-55870771D02*
X129306554Y-55966009D01*
X129306554Y-55966009D02*
X129306554Y-56489819D01*
X128830363Y-56394580D02*
X128782744Y-56442200D01*
X128782744Y-56442200D02*
X128830363Y-56489819D01*
X128830363Y-56489819D02*
X128877982Y-56442200D01*
X128877982Y-56442200D02*
X128830363Y-56394580D01*
X128830363Y-56394580D02*
X128830363Y-56489819D01*
X128830363Y-55870771D02*
X128782744Y-55918390D01*
X128782744Y-55918390D02*
X128830363Y-55966009D01*
X128830363Y-55966009D02*
X128877982Y-55918390D01*
X128877982Y-55918390D02*
X128830363Y-55870771D01*
X128830363Y-55870771D02*
X128830363Y-55966009D01*
X127068459Y-56489819D02*
X127639887Y-56489819D01*
X127354173Y-56489819D02*
X127354173Y-55489819D01*
X127354173Y-55489819D02*
X127449411Y-55632676D01*
X127449411Y-55632676D02*
X127544649Y-55727914D01*
X127544649Y-55727914D02*
X127639887Y-55775533D01*
X152973220Y-58099819D02*
X152973220Y-57099819D01*
X152973220Y-57099819D02*
X152592268Y-57099819D01*
X152592268Y-57099819D02*
X152497030Y-57147438D01*
X152497030Y-57147438D02*
X152449411Y-57195057D01*
X152449411Y-57195057D02*
X152401792Y-57290295D01*
X152401792Y-57290295D02*
X152401792Y-57433152D01*
X152401792Y-57433152D02*
X152449411Y-57528390D01*
X152449411Y-57528390D02*
X152497030Y-57576009D01*
X152497030Y-57576009D02*
X152592268Y-57623628D01*
X152592268Y-57623628D02*
X152973220Y-57623628D01*
X151401792Y-58004580D02*
X151449411Y-58052200D01*
X151449411Y-58052200D02*
X151592268Y-58099819D01*
X151592268Y-58099819D02*
X151687506Y-58099819D01*
X151687506Y-58099819D02*
X151830363Y-58052200D01*
X151830363Y-58052200D02*
X151925601Y-57956961D01*
X151925601Y-57956961D02*
X151973220Y-57861723D01*
X151973220Y-57861723D02*
X152020839Y-57671247D01*
X152020839Y-57671247D02*
X152020839Y-57528390D01*
X152020839Y-57528390D02*
X151973220Y-57337914D01*
X151973220Y-57337914D02*
X151925601Y-57242676D01*
X151925601Y-57242676D02*
X151830363Y-57147438D01*
X151830363Y-57147438D02*
X151687506Y-57099819D01*
X151687506Y-57099819D02*
X151592268Y-57099819D01*
X151592268Y-57099819D02*
X151449411Y-57147438D01*
X151449411Y-57147438D02*
X151401792Y-57195057D01*
X151020839Y-57814104D02*
X150544649Y-57814104D01*
X151116077Y-58099819D02*
X150782744Y-57099819D01*
X150782744Y-57099819D02*
X150449411Y-58099819D01*
X150116077Y-58004580D02*
X150068458Y-58052200D01*
X150068458Y-58052200D02*
X150116077Y-58099819D01*
X150116077Y-58099819D02*
X150163696Y-58052200D01*
X150163696Y-58052200D02*
X150116077Y-58004580D01*
X150116077Y-58004580D02*
X150116077Y-58099819D01*
X150116077Y-57480771D02*
X150068458Y-57528390D01*
X150068458Y-57528390D02*
X150116077Y-57576009D01*
X150116077Y-57576009D02*
X150163696Y-57528390D01*
X150163696Y-57528390D02*
X150116077Y-57480771D01*
X150116077Y-57480771D02*
X150116077Y-57576009D01*
X148354173Y-58099819D02*
X148925601Y-58099819D01*
X148639887Y-58099819D02*
X148639887Y-57099819D01*
X148639887Y-57099819D02*
X148735125Y-57242676D01*
X148735125Y-57242676D02*
X148830363Y-57337914D01*
X148830363Y-57337914D02*
X148925601Y-57385533D01*
X147735125Y-57099819D02*
X147639887Y-57099819D01*
X147639887Y-57099819D02*
X147544649Y-57147438D01*
X147544649Y-57147438D02*
X147497030Y-57195057D01*
X147497030Y-57195057D02*
X147449411Y-57290295D01*
X147449411Y-57290295D02*
X147401792Y-57480771D01*
X147401792Y-57480771D02*
X147401792Y-57718866D01*
X147401792Y-57718866D02*
X147449411Y-57909342D01*
X147449411Y-57909342D02*
X147497030Y-58004580D01*
X147497030Y-58004580D02*
X147544649Y-58052200D01*
X147544649Y-58052200D02*
X147639887Y-58099819D01*
X147639887Y-58099819D02*
X147735125Y-58099819D01*
X147735125Y-58099819D02*
X147830363Y-58052200D01*
X147830363Y-58052200D02*
X147877982Y-58004580D01*
X147877982Y-58004580D02*
X147925601Y-57909342D01*
X147925601Y-57909342D02*
X147973220Y-57718866D01*
X147973220Y-57718866D02*
X147973220Y-57480771D01*
X147973220Y-57480771D02*
X147925601Y-57290295D01*
X147925601Y-57290295D02*
X147877982Y-57195057D01*
X147877982Y-57195057D02*
X147830363Y-57147438D01*
X147830363Y-57147438D02*
X147735125Y-57099819D01*
X146782744Y-57099819D02*
X146687506Y-57099819D01*
X146687506Y-57099819D02*
X146592268Y-57147438D01*
X146592268Y-57147438D02*
X146544649Y-57195057D01*
X146544649Y-57195057D02*
X146497030Y-57290295D01*
X146497030Y-57290295D02*
X146449411Y-57480771D01*
X146449411Y-57480771D02*
X146449411Y-57718866D01*
X146449411Y-57718866D02*
X146497030Y-57909342D01*
X146497030Y-57909342D02*
X146544649Y-58004580D01*
X146544649Y-58004580D02*
X146592268Y-58052200D01*
X146592268Y-58052200D02*
X146687506Y-58099819D01*
X146687506Y-58099819D02*
X146782744Y-58099819D01*
X146782744Y-58099819D02*
X146877982Y-58052200D01*
X146877982Y-58052200D02*
X146925601Y-58004580D01*
X146925601Y-58004580D02*
X146973220Y-57909342D01*
X146973220Y-57909342D02*
X147020839Y-57718866D01*
X147020839Y-57718866D02*
X147020839Y-57480771D01*
X147020839Y-57480771D02*
X146973220Y-57290295D01*
X146973220Y-57290295D02*
X146925601Y-57195057D01*
X146925601Y-57195057D02*
X146877982Y-57147438D01*
X146877982Y-57147438D02*
X146782744Y-57099819D01*
X145830363Y-57099819D02*
X145735125Y-57099819D01*
X145735125Y-57099819D02*
X145639887Y-57147438D01*
X145639887Y-57147438D02*
X145592268Y-57195057D01*
X145592268Y-57195057D02*
X145544649Y-57290295D01*
X145544649Y-57290295D02*
X145497030Y-57480771D01*
X145497030Y-57480771D02*
X145497030Y-57718866D01*
X145497030Y-57718866D02*
X145544649Y-57909342D01*
X145544649Y-57909342D02*
X145592268Y-58004580D01*
X145592268Y-58004580D02*
X145639887Y-58052200D01*
X145639887Y-58052200D02*
X145735125Y-58099819D01*
X145735125Y-58099819D02*
X145830363Y-58099819D01*
X145830363Y-58099819D02*
X145925601Y-58052200D01*
X145925601Y-58052200D02*
X145973220Y-58004580D01*
X145973220Y-58004580D02*
X146020839Y-57909342D01*
X146020839Y-57909342D02*
X146068458Y-57718866D01*
X146068458Y-57718866D02*
X146068458Y-57480771D01*
X146068458Y-57480771D02*
X146020839Y-57290295D01*
X146020839Y-57290295D02*
X145973220Y-57195057D01*
X145973220Y-57195057D02*
X145925601Y-57147438D01*
X145925601Y-57147438D02*
X145830363Y-57099819D01*
X145020839Y-58099819D02*
X144830363Y-58099819D01*
X144830363Y-58099819D02*
X144735125Y-58052200D01*
X144735125Y-58052200D02*
X144687506Y-58004580D01*
X144687506Y-58004580D02*
X144592268Y-57861723D01*
X144592268Y-57861723D02*
X144544649Y-57671247D01*
X144544649Y-57671247D02*
X144544649Y-57290295D01*
X144544649Y-57290295D02*
X144592268Y-57195057D01*
X144592268Y-57195057D02*
X144639887Y-57147438D01*
X144639887Y-57147438D02*
X144735125Y-57099819D01*
X144735125Y-57099819D02*
X144925601Y-57099819D01*
X144925601Y-57099819D02*
X145020839Y-57147438D01*
X145020839Y-57147438D02*
X145068458Y-57195057D01*
X145068458Y-57195057D02*
X145116077Y-57290295D01*
X145116077Y-57290295D02*
X145116077Y-57528390D01*
X145116077Y-57528390D02*
X145068458Y-57623628D01*
X145068458Y-57623628D02*
X145020839Y-57671247D01*
X145020839Y-57671247D02*
X144925601Y-57718866D01*
X144925601Y-57718866D02*
X144735125Y-57718866D01*
X144735125Y-57718866D02*
X144639887Y-57671247D01*
X144639887Y-57671247D02*
X144592268Y-57623628D01*
X144592268Y-57623628D02*
X144544649Y-57528390D01*
X144116077Y-57718866D02*
X143354173Y-57718866D01*
X142449411Y-57433152D02*
X142449411Y-58099819D01*
X142687506Y-57052200D02*
X142925601Y-57766485D01*
X142925601Y-57766485D02*
X142306554Y-57766485D01*
X141735125Y-57099819D02*
X141639887Y-57099819D01*
X141639887Y-57099819D02*
X141544649Y-57147438D01*
X141544649Y-57147438D02*
X141497030Y-57195057D01*
X141497030Y-57195057D02*
X141449411Y-57290295D01*
X141449411Y-57290295D02*
X141401792Y-57480771D01*
X141401792Y-57480771D02*
X141401792Y-57718866D01*
X141401792Y-57718866D02*
X141449411Y-57909342D01*
X141449411Y-57909342D02*
X141497030Y-58004580D01*
X141497030Y-58004580D02*
X141544649Y-58052200D01*
X141544649Y-58052200D02*
X141639887Y-58099819D01*
X141639887Y-58099819D02*
X141735125Y-58099819D01*
X141735125Y-58099819D02*
X141830363Y-58052200D01*
X141830363Y-58052200D02*
X141877982Y-58004580D01*
X141877982Y-58004580D02*
X141925601Y-57909342D01*
X141925601Y-57909342D02*
X141973220Y-57718866D01*
X141973220Y-57718866D02*
X141973220Y-57480771D01*
X141973220Y-57480771D02*
X141925601Y-57290295D01*
X141925601Y-57290295D02*
X141877982Y-57195057D01*
X141877982Y-57195057D02*
X141830363Y-57147438D01*
X141830363Y-57147438D02*
X141735125Y-57099819D01*
X140782744Y-57099819D02*
X140687506Y-57099819D01*
X140687506Y-57099819D02*
X140592268Y-57147438D01*
X140592268Y-57147438D02*
X140544649Y-57195057D01*
X140544649Y-57195057D02*
X140497030Y-57290295D01*
X140497030Y-57290295D02*
X140449411Y-57480771D01*
X140449411Y-57480771D02*
X140449411Y-57718866D01*
X140449411Y-57718866D02*
X140497030Y-57909342D01*
X140497030Y-57909342D02*
X140544649Y-58004580D01*
X140544649Y-58004580D02*
X140592268Y-58052200D01*
X140592268Y-58052200D02*
X140687506Y-58099819D01*
X140687506Y-58099819D02*
X140782744Y-58099819D01*
X140782744Y-58099819D02*
X140877982Y-58052200D01*
X140877982Y-58052200D02*
X140925601Y-58004580D01*
X140925601Y-58004580D02*
X140973220Y-57909342D01*
X140973220Y-57909342D02*
X141020839Y-57718866D01*
X141020839Y-57718866D02*
X141020839Y-57480771D01*
X141020839Y-57480771D02*
X140973220Y-57290295D01*
X140973220Y-57290295D02*
X140925601Y-57195057D01*
X140925601Y-57195057D02*
X140877982Y-57147438D01*
X140877982Y-57147438D02*
X140782744Y-57099819D01*
X139592268Y-57433152D02*
X139592268Y-58099819D01*
X139830363Y-57052200D02*
X140068458Y-57766485D01*
X140068458Y-57766485D02*
X139449411Y-57766485D01*
X139068458Y-57718866D02*
X138306554Y-57718866D01*
X137639887Y-57099819D02*
X137544649Y-57099819D01*
X137544649Y-57099819D02*
X137449411Y-57147438D01*
X137449411Y-57147438D02*
X137401792Y-57195057D01*
X137401792Y-57195057D02*
X137354173Y-57290295D01*
X137354173Y-57290295D02*
X137306554Y-57480771D01*
X137306554Y-57480771D02*
X137306554Y-57718866D01*
X137306554Y-57718866D02*
X137354173Y-57909342D01*
X137354173Y-57909342D02*
X137401792Y-58004580D01*
X137401792Y-58004580D02*
X137449411Y-58052200D01*
X137449411Y-58052200D02*
X137544649Y-58099819D01*
X137544649Y-58099819D02*
X137639887Y-58099819D01*
X137639887Y-58099819D02*
X137735125Y-58052200D01*
X137735125Y-58052200D02*
X137782744Y-58004580D01*
X137782744Y-58004580D02*
X137830363Y-57909342D01*
X137830363Y-57909342D02*
X137877982Y-57718866D01*
X137877982Y-57718866D02*
X137877982Y-57480771D01*
X137877982Y-57480771D02*
X137830363Y-57290295D01*
X137830363Y-57290295D02*
X137782744Y-57195057D01*
X137782744Y-57195057D02*
X137735125Y-57147438D01*
X137735125Y-57147438D02*
X137639887Y-57099819D01*
X136687506Y-57099819D02*
X136592268Y-57099819D01*
X136592268Y-57099819D02*
X136497030Y-57147438D01*
X136497030Y-57147438D02*
X136449411Y-57195057D01*
X136449411Y-57195057D02*
X136401792Y-57290295D01*
X136401792Y-57290295D02*
X136354173Y-57480771D01*
X136354173Y-57480771D02*
X136354173Y-57718866D01*
X136354173Y-57718866D02*
X136401792Y-57909342D01*
X136401792Y-57909342D02*
X136449411Y-58004580D01*
X136449411Y-58004580D02*
X136497030Y-58052200D01*
X136497030Y-58052200D02*
X136592268Y-58099819D01*
X136592268Y-58099819D02*
X136687506Y-58099819D01*
X136687506Y-58099819D02*
X136782744Y-58052200D01*
X136782744Y-58052200D02*
X136830363Y-58004580D01*
X136830363Y-58004580D02*
X136877982Y-57909342D01*
X136877982Y-57909342D02*
X136925601Y-57718866D01*
X136925601Y-57718866D02*
X136925601Y-57480771D01*
X136925601Y-57480771D02*
X136877982Y-57290295D01*
X136877982Y-57290295D02*
X136830363Y-57195057D01*
X136830363Y-57195057D02*
X136782744Y-57147438D01*
X136782744Y-57147438D02*
X136687506Y-57099819D01*
X134592268Y-58099819D02*
X134925601Y-57623628D01*
X135163696Y-58099819D02*
X135163696Y-57099819D01*
X135163696Y-57099819D02*
X134782744Y-57099819D01*
X134782744Y-57099819D02*
X134687506Y-57147438D01*
X134687506Y-57147438D02*
X134639887Y-57195057D01*
X134639887Y-57195057D02*
X134592268Y-57290295D01*
X134592268Y-57290295D02*
X134592268Y-57433152D01*
X134592268Y-57433152D02*
X134639887Y-57528390D01*
X134639887Y-57528390D02*
X134687506Y-57576009D01*
X134687506Y-57576009D02*
X134782744Y-57623628D01*
X134782744Y-57623628D02*
X135163696Y-57623628D01*
X133782744Y-58052200D02*
X133877982Y-58099819D01*
X133877982Y-58099819D02*
X134068458Y-58099819D01*
X134068458Y-58099819D02*
X134163696Y-58052200D01*
X134163696Y-58052200D02*
X134211315Y-57956961D01*
X134211315Y-57956961D02*
X134211315Y-57576009D01*
X134211315Y-57576009D02*
X134163696Y-57480771D01*
X134163696Y-57480771D02*
X134068458Y-57433152D01*
X134068458Y-57433152D02*
X133877982Y-57433152D01*
X133877982Y-57433152D02*
X133782744Y-57480771D01*
X133782744Y-57480771D02*
X133735125Y-57576009D01*
X133735125Y-57576009D02*
X133735125Y-57671247D01*
X133735125Y-57671247D02*
X134211315Y-57766485D01*
X133401791Y-57433152D02*
X133163696Y-58099819D01*
X133163696Y-58099819D02*
X132925601Y-57433152D01*
X132544648Y-58099819D02*
X132544648Y-57433152D01*
X132544648Y-57099819D02*
X132592267Y-57147438D01*
X132592267Y-57147438D02*
X132544648Y-57195057D01*
X132544648Y-57195057D02*
X132497029Y-57147438D01*
X132497029Y-57147438D02*
X132544648Y-57099819D01*
X132544648Y-57099819D02*
X132544648Y-57195057D01*
X132116077Y-58052200D02*
X132020839Y-58099819D01*
X132020839Y-58099819D02*
X131830363Y-58099819D01*
X131830363Y-58099819D02*
X131735125Y-58052200D01*
X131735125Y-58052200D02*
X131687506Y-57956961D01*
X131687506Y-57956961D02*
X131687506Y-57909342D01*
X131687506Y-57909342D02*
X131735125Y-57814104D01*
X131735125Y-57814104D02*
X131830363Y-57766485D01*
X131830363Y-57766485D02*
X131973220Y-57766485D01*
X131973220Y-57766485D02*
X132068458Y-57718866D01*
X132068458Y-57718866D02*
X132116077Y-57623628D01*
X132116077Y-57623628D02*
X132116077Y-57576009D01*
X132116077Y-57576009D02*
X132068458Y-57480771D01*
X132068458Y-57480771D02*
X131973220Y-57433152D01*
X131973220Y-57433152D02*
X131830363Y-57433152D01*
X131830363Y-57433152D02*
X131735125Y-57480771D01*
X131258934Y-58099819D02*
X131258934Y-57433152D01*
X131258934Y-57099819D02*
X131306553Y-57147438D01*
X131306553Y-57147438D02*
X131258934Y-57195057D01*
X131258934Y-57195057D02*
X131211315Y-57147438D01*
X131211315Y-57147438D02*
X131258934Y-57099819D01*
X131258934Y-57099819D02*
X131258934Y-57195057D01*
X130639887Y-58099819D02*
X130735125Y-58052200D01*
X130735125Y-58052200D02*
X130782744Y-58004580D01*
X130782744Y-58004580D02*
X130830363Y-57909342D01*
X130830363Y-57909342D02*
X130830363Y-57623628D01*
X130830363Y-57623628D02*
X130782744Y-57528390D01*
X130782744Y-57528390D02*
X130735125Y-57480771D01*
X130735125Y-57480771D02*
X130639887Y-57433152D01*
X130639887Y-57433152D02*
X130497030Y-57433152D01*
X130497030Y-57433152D02*
X130401792Y-57480771D01*
X130401792Y-57480771D02*
X130354173Y-57528390D01*
X130354173Y-57528390D02*
X130306554Y-57623628D01*
X130306554Y-57623628D02*
X130306554Y-57909342D01*
X130306554Y-57909342D02*
X130354173Y-58004580D01*
X130354173Y-58004580D02*
X130401792Y-58052200D01*
X130401792Y-58052200D02*
X130497030Y-58099819D01*
X130497030Y-58099819D02*
X130639887Y-58099819D01*
X129877982Y-57433152D02*
X129877982Y-58099819D01*
X129877982Y-57528390D02*
X129830363Y-57480771D01*
X129830363Y-57480771D02*
X129735125Y-57433152D01*
X129735125Y-57433152D02*
X129592268Y-57433152D01*
X129592268Y-57433152D02*
X129497030Y-57480771D01*
X129497030Y-57480771D02*
X129449411Y-57576009D01*
X129449411Y-57576009D02*
X129449411Y-58099819D01*
X128973220Y-58004580D02*
X128925601Y-58052200D01*
X128925601Y-58052200D02*
X128973220Y-58099819D01*
X128973220Y-58099819D02*
X129020839Y-58052200D01*
X129020839Y-58052200D02*
X128973220Y-58004580D01*
X128973220Y-58004580D02*
X128973220Y-58099819D01*
X128973220Y-57480771D02*
X128925601Y-57528390D01*
X128925601Y-57528390D02*
X128973220Y-57576009D01*
X128973220Y-57576009D02*
X129020839Y-57528390D01*
X129020839Y-57528390D02*
X128973220Y-57480771D01*
X128973220Y-57480771D02*
X128973220Y-57576009D01*
%LPC*%
D11*
%TO.C,J4*%
X131000000Y-93600000D03*
D12*
X133540000Y-93600000D03*
%TD*%
D11*
%TO.C,J6*%
X131000000Y-98000000D03*
D12*
X133540000Y-98000000D03*
%TD*%
D13*
%TO.C,J2*%
X120100000Y-93425000D03*
D12*
X120100000Y-95965000D03*
%TD*%
D14*
%TO.C,J3*%
X124000000Y-96000000D03*
D12*
X124000000Y-93460000D03*
%TD*%
D15*
%TO.C,PS2*%
X216900000Y-59160000D03*
D16*
X216900000Y-61700000D03*
X216900000Y-64240000D03*
X216900000Y-66780000D03*
%TD*%
D17*
%TO.C,H2*%
X114000000Y-54000000D03*
%TD*%
D18*
%TO.C,U5*%
X233020000Y-76010000D03*
X230480000Y-76010000D03*
X227940000Y-76010000D03*
X225400000Y-76010000D03*
X222860000Y-76010000D03*
X220320000Y-76010000D03*
X217780000Y-76010000D03*
X217780000Y-93790000D03*
X220320000Y-93790000D03*
X222860000Y-93790000D03*
X225400000Y-93790000D03*
X227940000Y-93790000D03*
X230480000Y-93790000D03*
X233020000Y-93790000D03*
%TD*%
D15*
%TO.C,PS1*%
X193757500Y-59092500D03*
D16*
X193757500Y-61632500D03*
X193757500Y-64172500D03*
X193757500Y-66712500D03*
%TD*%
D17*
%TO.C,H4*%
X114000000Y-116000000D03*
%TD*%
%TO.C,H1*%
X231000000Y-116000000D03*
%TD*%
%TO.C,H3*%
X231000000Y-54000000D03*
%TD*%
%LPD*%
M02*
