%TF.GenerationSoftware,KiCad,Pcbnew,7.0.9*%
%TF.CreationDate,2024-10-16T13:46:26-06:00*%
%TF.ProjectId,sq_lockin_v9,73715f6c-6f63-46b6-996e-5f76392e6b69,rev?*%
%TF.SameCoordinates,Original*%
%TF.FileFunction,Copper,L2,Bot*%
%TF.FilePolarity,Positive*%
%FSLAX46Y46*%
G04 Gerber Fmt 4.6, Leading zero omitted, Abs format (unit mm)*
G04 Created by KiCad (PCBNEW 7.0.9) date 2024-10-16 13:46:26*
%MOMM*%
%LPD*%
G01*
G04 APERTURE LIST*
%TA.AperFunction,ComponentPad*%
%ADD10R,1.700000X1.700000*%
%TD*%
%TA.AperFunction,ComponentPad*%
%ADD11O,1.700000X1.700000*%
%TD*%
%TA.AperFunction,ComponentPad*%
%ADD12R,2.250000X1.750000*%
%TD*%
%TA.AperFunction,ComponentPad*%
%ADD13O,2.250000X1.750000*%
%TD*%
%TA.AperFunction,ComponentPad*%
%ADD14C,6.400000*%
%TD*%
%TA.AperFunction,ComponentPad*%
%ADD15O,1.500000X5.000000*%
%TD*%
%TA.AperFunction,ViaPad*%
%ADD16C,0.800000*%
%TD*%
%TA.AperFunction,Conductor*%
%ADD17C,0.250000*%
%TD*%
%TA.AperFunction,Conductor*%
%ADD18C,0.200000*%
%TD*%
G04 APERTURE END LIST*
D10*
%TO.P,J4,1,Pin_1*%
%TO.N,Net-(J4-Pin_1)*%
X131000000Y-93600000D03*
D11*
%TO.P,J4,2,Pin_2*%
%TO.N,/I-*%
X133540000Y-93600000D03*
%TD*%
D10*
%TO.P,J6,1,Pin_1*%
%TO.N,Net-(J6-Pin_1)*%
X131000000Y-98000000D03*
D11*
%TO.P,J6,2,Pin_2*%
%TO.N,/I-*%
X133540000Y-98000000D03*
%TD*%
D10*
%TO.P,J2,1,Pin_1*%
%TO.N,/V-*%
X120100000Y-93425000D03*
D11*
%TO.P,J2,2,Pin_2*%
%TO.N,/I-*%
X120100000Y-95965000D03*
%TD*%
D10*
%TO.P,J3,1,Pin_1*%
%TO.N,/I+*%
X124000000Y-96000000D03*
D11*
%TO.P,J3,2,Pin_2*%
%TO.N,/V+*%
X124000000Y-93460000D03*
%TD*%
D12*
%TO.P,PS2,1,-Vin*%
%TO.N,GNDPWR*%
X216900000Y-59160000D03*
D13*
%TO.P,PS2,2,+Vin*%
%TO.N,Net-(PS2-+Vin)*%
X216900000Y-61700000D03*
%TO.P,PS2,3,0V*%
%TO.N,GNDD*%
X216900000Y-64240000D03*
%TO.P,PS2,4,+Vout*%
%TO.N,/power/digital*%
X216900000Y-66780000D03*
%TD*%
D14*
%TO.P,H2,1*%
%TO.N,N/C*%
X114000000Y-54000000D03*
%TD*%
D15*
%TO.P,U5,1,P26*%
%TO.N,Net-(U4-INA)*%
X233020000Y-76010000D03*
%TO.P,U5,2,P27*%
%TO.N,Net-(U4-INB)*%
X230480000Y-76010000D03*
%TO.P,U5,3,P28*%
%TO.N,Net-(U4-INC)*%
X227940000Y-76010000D03*
%TO.P,U5,4,P29*%
%TO.N,Net-(U4-IND)*%
X225400000Y-76010000D03*
%TO.P,U5,5,P6*%
%TO.N,/P6*%
X222860000Y-76010000D03*
%TO.P,U5,6,P7*%
%TO.N,/P7*%
X220320000Y-76010000D03*
%TO.P,U5,7,P0*%
%TO.N,/tx*%
X217780000Y-76010000D03*
%TO.P,U5,8,P1*%
%TO.N,/rx*%
X217780000Y-93790000D03*
%TO.P,U5,9,P2*%
%TO.N,Net-(U5-P2)*%
X220320000Y-93790000D03*
%TO.P,U5,10,P4*%
%TO.N,unconnected-(U5-P4-Pad10)*%
X222860000Y-93790000D03*
%TO.P,U5,11,P3*%
%TO.N,unconnected-(U5-P3-Pad11)*%
X225400000Y-93790000D03*
%TO.P,U5,12,3V3*%
%TO.N,/MC3.3*%
X227940000Y-93790000D03*
%TO.P,U5,13,GND*%
%TO.N,GNDD*%
X230480000Y-93790000D03*
%TO.P,U5,14,5V*%
%TO.N,+5VD*%
X233020000Y-93790000D03*
%TD*%
D12*
%TO.P,PS1,1,-Vin*%
%TO.N,GNDPWR*%
X193757500Y-59092500D03*
D13*
%TO.P,PS1,2,+Vin*%
%TO.N,Net-(PS1-+Vin)*%
X193757500Y-61632500D03*
%TO.P,PS1,3,0V*%
%TO.N,GND*%
X193757500Y-64172500D03*
%TO.P,PS1,4,+Vout*%
%TO.N,Net-(PS1-+Vout)*%
X193757500Y-66712500D03*
%TD*%
D14*
%TO.P,H4,1*%
%TO.N,N/C*%
X114000000Y-116000000D03*
%TD*%
%TO.P,H1,1*%
%TO.N,N/C*%
X231000000Y-116000000D03*
%TD*%
%TO.P,H3,1*%
%TO.N,N/C*%
X231000000Y-54000000D03*
%TD*%
D16*
%TO.N,GNDD*%
X220150000Y-60500000D03*
%TO.N,GND*%
X129520000Y-91020000D03*
X133270000Y-84760000D03*
X134450000Y-88330000D03*
X121450000Y-89510000D03*
X118380000Y-89850000D03*
X124600000Y-87750000D03*
X166980000Y-66470000D03*
%TO.N,GNDD*%
X196970000Y-60320000D03*
X223180000Y-82990000D03*
X225850000Y-84020000D03*
X209770000Y-82130000D03*
X209970000Y-86420000D03*
X213310000Y-94040000D03*
X212170000Y-77330000D03*
%TO.N,GND*%
X187100000Y-78900000D03*
X152900000Y-92600000D03*
X164900000Y-99200000D03*
X150600000Y-80700000D03*
X146400000Y-99000000D03*
X153300000Y-77800000D03*
X138800000Y-85975500D03*
X187100000Y-91900000D03*
X145600000Y-89700000D03*
X147600000Y-88600000D03*
X162100000Y-81160000D03*
X145700000Y-85200000D03*
X183700000Y-94600000D03*
%TO.N,Net-(D1-K)*%
X160000000Y-73400000D03*
X161300000Y-69900000D03*
%TO.N,/vref*%
X166500000Y-79560000D03*
X172475000Y-96490000D03*
X152000000Y-95700000D03*
X145300000Y-76100000D03*
X142300000Y-86100000D03*
X145837701Y-91237701D03*
%TO.N,+3.3V*%
X177900000Y-82060000D03*
X183875000Y-98990000D03*
X140200000Y-85900000D03*
X157500000Y-99600000D03*
X188600000Y-104100000D03*
X162000000Y-82960000D03*
X145700000Y-86500000D03*
X163100000Y-102500000D03*
X190500000Y-89700000D03*
X148905378Y-91605378D03*
X144400000Y-81875500D03*
X144382604Y-84142300D03*
X166800000Y-92700000D03*
X160900000Y-75075500D03*
X142400000Y-81700000D03*
%TO.N,VD*%
X229100000Y-97400000D03*
X227200000Y-66700000D03*
%TO.N,/Sheet624B5D4E/ctrl+*%
X144400000Y-93700000D03*
X148200000Y-78900000D03*
X148900000Y-86100000D03*
X143900000Y-103400000D03*
%TO.N,/Sheet624B5D4E/in+*%
X148900011Y-83400000D03*
X147300000Y-81900000D03*
%TO.N,/sheet624D2E58/ctrl+*%
X149500000Y-102100000D03*
X148712299Y-94112299D03*
%TO.N,/sheet6256EE2A/out+*%
X143312452Y-85212452D03*
X138875000Y-76325000D03*
%TO.N,/sheet6256EE2A/ctrl+*%
X142800000Y-103400000D03*
X142800000Y-93300000D03*
X143400000Y-88900000D03*
%TO.N,/V-*%
X130447018Y-101922420D03*
X149200000Y-97500000D03*
X148155378Y-99144622D03*
%TO.N,/V+*%
X151000000Y-103600000D03*
%TO.N,/Sheet6275CBF8/in+*%
X148440261Y-102398005D03*
X154800000Y-99100000D03*
%TO.N,Net-(U14--)*%
X160700000Y-109000000D03*
X159200000Y-104675500D03*
%TO.N,GNDD*%
X218800000Y-105500000D03*
X218800000Y-99700000D03*
X197600000Y-89600000D03*
X221200000Y-99700000D03*
%TO.N,Net-(J8-VCC)*%
X231100000Y-103900000D03*
X206900000Y-80150500D03*
%TO.N,/MC3.3*%
X194300000Y-90600000D03*
X194200000Y-102300000D03*
X194200000Y-75700000D03*
%TO.N,Net-(J8-SCL)*%
X227900000Y-103800000D03*
X227900000Y-101900000D03*
%TO.N,GNDPWR*%
X222700000Y-58200000D03*
X228900000Y-60000000D03*
X200600000Y-56700000D03*
X231500000Y-70800000D03*
X227900000Y-104900000D03*
%TO.N,Net-(JP1-B)*%
X151300000Y-108500000D03*
X152200000Y-104500000D03*
%TO.N,/tx*%
X217300000Y-99900000D03*
X219000000Y-87300000D03*
X217300000Y-102900000D03*
%TO.N,/rx*%
X216200000Y-99900000D03*
X216300000Y-104300000D03*
%TO.N,/Dout_V*%
X186000000Y-82800000D03*
X186000000Y-85000000D03*
%TO.N,/P7*%
X197500000Y-82700000D03*
X195900000Y-82700000D03*
%TO.N,/P6*%
X195975500Y-81600000D03*
X198100000Y-81600000D03*
%TO.N,Net-(U4-OUTD)*%
X141200000Y-103200000D03*
X141150008Y-84950008D03*
X187300000Y-95700000D03*
X190200000Y-105800000D03*
%TO.N,Net-(U5-P2)*%
X206100000Y-84000000D03*
X195900000Y-84000000D03*
X211800000Y-84000000D03*
%TD*%
D17*
%TO.N,GND*%
X150600000Y-80500000D02*
X153300000Y-77800000D01*
X150600000Y-80700000D02*
X150600000Y-80500000D01*
%TO.N,Net-(D1-K)*%
X161300000Y-72100000D02*
X160000000Y-73400000D01*
X161300000Y-69900000D02*
X161300000Y-72100000D01*
%TO.N,/vref*%
X166500000Y-79560000D02*
X169000000Y-79560000D01*
X147600000Y-93000000D02*
X149500000Y-93000000D01*
X152000000Y-95500000D02*
X152000000Y-95700000D01*
X145300000Y-84249502D02*
X145300000Y-76100000D01*
X169000000Y-79560000D02*
X172475000Y-83035000D01*
X142300000Y-86100000D02*
X143449502Y-86100000D01*
X143449502Y-86100000D02*
X145300000Y-84249502D01*
X172475000Y-83035000D02*
X172475000Y-96490000D01*
X145837701Y-91237701D02*
X147600000Y-93000000D01*
X149500000Y-93000000D02*
X152000000Y-95500000D01*
%TO.N,+3.3V*%
X144400000Y-84124904D02*
X144382604Y-84142300D01*
X162500000Y-99960000D02*
X163100000Y-100560000D01*
X144400000Y-81875500D02*
X144400000Y-84124904D01*
X158175489Y-86824511D02*
X146024511Y-86824511D01*
X146024511Y-86824511D02*
X145700000Y-86500000D01*
X177900000Y-93200000D02*
X183690000Y-98990000D01*
X145700000Y-87800000D02*
X148905378Y-91005378D01*
X160900000Y-81860000D02*
X162000000Y-82960000D01*
X149580764Y-91605378D02*
X148905378Y-91605378D01*
X163100000Y-100560000D02*
X163100000Y-102500000D01*
X157600000Y-99960000D02*
X157600000Y-99624614D01*
X157600000Y-99624614D02*
X149580764Y-91605378D01*
X185540000Y-89700000D02*
X177900000Y-82060000D01*
X188600000Y-104100000D02*
X183875000Y-99375000D01*
X162000000Y-83000000D02*
X158175489Y-86824511D01*
X166500000Y-100560000D02*
X166500000Y-93000000D01*
X162000000Y-82960000D02*
X162000000Y-83000000D01*
X190500000Y-89700000D02*
X185540000Y-89700000D01*
X166500000Y-100560000D02*
X163100000Y-100560000D01*
X142400000Y-81700000D02*
X140200000Y-83900000D01*
X140200000Y-83900000D02*
X140200000Y-85900000D01*
X145700000Y-86500000D02*
X145700000Y-87800000D01*
X177900000Y-82060000D02*
X177900000Y-93200000D01*
X157600000Y-99960000D02*
X162500000Y-99960000D01*
X148905378Y-91005378D02*
X148905378Y-91605378D01*
X183690000Y-98990000D02*
X183875000Y-98990000D01*
X160900000Y-75075500D02*
X160900000Y-81860000D01*
X166500000Y-93000000D02*
X166800000Y-92700000D01*
X183875000Y-99375000D02*
X183875000Y-98990000D01*
%TO.N,VD*%
X227200000Y-66700000D02*
X229100000Y-68600000D01*
X229100000Y-68600000D02*
X229100000Y-97400000D01*
%TO.N,/Sheet624B5D4E/ctrl+*%
X148300000Y-78800000D02*
X148200000Y-78900000D01*
X143775489Y-94324511D02*
X144400000Y-93700000D01*
X149624511Y-85375489D02*
X149624511Y-79424511D01*
X143900000Y-103400000D02*
X143775489Y-103275489D01*
X149000000Y-78800000D02*
X148300000Y-78800000D01*
X148900000Y-86100000D02*
X149624511Y-85375489D01*
X143775489Y-103275489D02*
X143775489Y-94324511D01*
X149624511Y-79424511D02*
X149000000Y-78800000D01*
%TO.N,/Sheet624B5D4E/in+*%
X147500000Y-81900000D02*
X148900000Y-83300000D01*
X147300000Y-81900000D02*
X147500000Y-81900000D01*
%TO.N,/sheet624D2E58/ctrl+*%
X149924511Y-95324511D02*
X148712299Y-94112299D01*
X149924511Y-101675489D02*
X149924511Y-95324511D01*
X149500000Y-102100000D02*
X149924511Y-101675489D01*
D18*
%TO.N,/sheet6256EE2A/out+*%
X143312452Y-85212452D02*
X143312452Y-80762452D01*
X143312452Y-80762452D02*
X138875000Y-76325000D01*
D17*
%TO.N,/sheet6256EE2A/ctrl+*%
X143400000Y-92700000D02*
X142800000Y-93300000D01*
X143400000Y-88900000D02*
X143400000Y-92700000D01*
X142800000Y-103400000D02*
X142800000Y-93300000D01*
D18*
%TO.N,/V-*%
X126600000Y-98075402D02*
X130447018Y-101922420D01*
X125700000Y-91400000D02*
X126600000Y-92300000D01*
X149200000Y-97500000D02*
X149200000Y-98100000D01*
X121800000Y-91400000D02*
X125700000Y-91400000D01*
X120100000Y-93100000D02*
X121800000Y-91400000D01*
X149200000Y-98100000D02*
X148155378Y-99144622D01*
X126600000Y-92300000D02*
X126600000Y-98075402D01*
%TO.N,/V+*%
X126000000Y-99949511D02*
X126000000Y-95200000D01*
X150500489Y-104099511D02*
X130150000Y-104099511D01*
X125740000Y-95200000D02*
X124000000Y-93460000D01*
X126000000Y-95200000D02*
X125740000Y-95200000D01*
X130150000Y-104099511D02*
X126000000Y-99949511D01*
X151000000Y-103600000D02*
X150500489Y-104099511D01*
%TO.N,/Sheet6275CBF8/in+*%
X154800000Y-99100000D02*
X151100489Y-102799511D01*
X148841767Y-102799511D02*
X148440261Y-102398005D01*
X148841767Y-102799511D02*
X151100489Y-102799511D01*
D17*
%TO.N,Net-(U14--)*%
X159200000Y-104675500D02*
X159200000Y-107500000D01*
X159200000Y-107500000D02*
X160700000Y-109000000D01*
%TO.N,GNDD*%
X218800000Y-99700000D02*
X221200000Y-99700000D01*
%TO.N,Net-(J8-VCC)*%
X226099299Y-98899299D02*
X210973799Y-98899299D01*
X231100000Y-103900000D02*
X226099299Y-98899299D01*
X210973799Y-98899299D02*
X206974500Y-94900000D01*
X206900000Y-80150500D02*
X206974500Y-80225000D01*
X206974500Y-80225000D02*
X206974500Y-94900000D01*
%TO.N,/MC3.3*%
X193000000Y-90600000D02*
X193000000Y-102100000D01*
X193200000Y-102300000D02*
X194200000Y-102300000D01*
X193000000Y-102100000D02*
X193200000Y-102300000D01*
X193000000Y-76900000D02*
X193000000Y-90600000D01*
X193000000Y-90600000D02*
X194300000Y-90600000D01*
X194200000Y-75700000D02*
X193000000Y-76900000D01*
%TO.N,Net-(J8-SCL)*%
X227900000Y-101900000D02*
X227900000Y-103800000D01*
%TO.N,GNDPWR*%
X224500000Y-60000000D02*
X222700000Y-58200000D01*
X200600000Y-56700000D02*
X203060000Y-59160000D01*
X231500000Y-70800000D02*
X231555000Y-70855000D01*
X232000000Y-96900000D02*
X231800000Y-96700000D01*
X231800000Y-96700000D02*
X231800000Y-70810000D01*
X228900000Y-60000000D02*
X224500000Y-60000000D01*
X227900000Y-104900000D02*
X232000000Y-104900000D01*
X232000000Y-104900000D02*
X232000000Y-96900000D01*
X203060000Y-59160000D02*
X216900000Y-59160000D01*
%TO.N,Net-(JP1-B)*%
X152200000Y-104500000D02*
X151300000Y-105400000D01*
X151300000Y-105400000D02*
X151300000Y-108500000D01*
%TO.N,/tx*%
X217300000Y-102900000D02*
X217300000Y-99900000D01*
X219000000Y-82600000D02*
X217700000Y-81300000D01*
X217780000Y-81220000D02*
X217780000Y-77280000D01*
X219000000Y-87300000D02*
X219000000Y-82600000D01*
X217700000Y-81300000D02*
X217780000Y-81220000D01*
%TO.N,/rx*%
X216200000Y-99900000D02*
X216200000Y-104200000D01*
X216200000Y-104200000D02*
X216300000Y-104300000D01*
%TO.N,/Dout_V*%
X186000000Y-82800000D02*
X186000000Y-85000000D01*
%TO.N,/P7*%
X195900000Y-82700000D02*
X197500000Y-82700000D01*
%TO.N,/P6*%
X198100000Y-81600000D02*
X195975500Y-81600000D01*
%TO.N,Net-(U4-OUTD)*%
X187300000Y-95700000D02*
X191500000Y-95700000D01*
X191500000Y-104500000D02*
X191500000Y-95700000D01*
X141200000Y-85000000D02*
X141200000Y-103200000D01*
X141150008Y-84950008D02*
X141200000Y-85000000D01*
X191500000Y-104500000D02*
X190200000Y-105800000D01*
%TO.N,Net-(U5-P2)*%
X211800000Y-84000000D02*
X220320000Y-92520000D01*
X195900000Y-84000000D02*
X206100000Y-84000000D01*
%TD*%
%TA.AperFunction,Conductor*%
%TO.N,GNDD*%
G36*
X229909017Y-78884587D02*
G01*
X230089530Y-78961743D01*
X230310385Y-79012151D01*
X230536691Y-79022315D01*
X230761175Y-78991906D01*
X230976621Y-78921903D01*
X230980789Y-78919659D01*
X231050253Y-78904991D01*
X231116621Y-78930206D01*
X231158821Y-78987299D01*
X231166500Y-79030613D01*
X231166500Y-90774448D01*
X231146498Y-90842569D01*
X231092842Y-90889062D01*
X231022568Y-90899166D01*
X230990980Y-90890309D01*
X230870311Y-90838734D01*
X230734000Y-90807621D01*
X230734000Y-92208314D01*
X230718045Y-92192359D01*
X230605148Y-92134835D01*
X230511481Y-92120000D01*
X230448519Y-92120000D01*
X230354852Y-92134835D01*
X230241955Y-92192359D01*
X230226000Y-92208314D01*
X230226000Y-90804917D01*
X230198933Y-90808584D01*
X229983578Y-90878557D01*
X229919206Y-90913197D01*
X229849741Y-90927863D01*
X229783374Y-90902644D01*
X229741177Y-90845549D01*
X229733500Y-90802241D01*
X229733500Y-79000449D01*
X229753502Y-78932328D01*
X229807158Y-78885835D01*
X229877432Y-78875731D01*
X229909017Y-78884587D01*
G37*
%TD.AperFunction*%
%TA.AperFunction,Conductor*%
G36*
X234916621Y-50045502D02*
G01*
X234963114Y-50099158D01*
X234974500Y-50151500D01*
X234974500Y-119848500D01*
X234954498Y-119916621D01*
X234900842Y-119963114D01*
X234848500Y-119974500D01*
X192605322Y-119974500D01*
X192537201Y-119954498D01*
X192490708Y-119900842D01*
X192479322Y-119848446D01*
X192481038Y-116000006D01*
X227286411Y-116000006D01*
X227306752Y-116388167D01*
X227367561Y-116772097D01*
X227468168Y-117147568D01*
X227607463Y-117510443D01*
X227607467Y-117510451D01*
X227783938Y-117856795D01*
X227995637Y-118182785D01*
X227995649Y-118182802D01*
X228240253Y-118484862D01*
X228240267Y-118484877D01*
X228515122Y-118759732D01*
X228515137Y-118759746D01*
X228817197Y-119004350D01*
X228817214Y-119004362D01*
X229001185Y-119123833D01*
X229143205Y-119216062D01*
X229489547Y-119392532D01*
X229489551Y-119392533D01*
X229489556Y-119392536D01*
X229852431Y-119531831D01*
X229852436Y-119531832D01*
X229852438Y-119531833D01*
X230227901Y-119632438D01*
X230611824Y-119693246D01*
X230611826Y-119693246D01*
X230611832Y-119693247D01*
X230999994Y-119713589D01*
X231000000Y-119713589D01*
X231000006Y-119713589D01*
X231388167Y-119693247D01*
X231388171Y-119693246D01*
X231388176Y-119693246D01*
X231772099Y-119632438D01*
X232147562Y-119531833D01*
X232147565Y-119531831D01*
X232147568Y-119531831D01*
X232510443Y-119392536D01*
X232510444Y-119392535D01*
X232510453Y-119392532D01*
X232856795Y-119216062D01*
X233182793Y-119004357D01*
X233182802Y-119004350D01*
X233484862Y-118759746D01*
X233484867Y-118759740D01*
X233484876Y-118759734D01*
X233759734Y-118484876D01*
X233759740Y-118484867D01*
X233759746Y-118484862D01*
X234004350Y-118182802D01*
X234004351Y-118182799D01*
X234004357Y-118182793D01*
X234216062Y-117856795D01*
X234392532Y-117510453D01*
X234531833Y-117147562D01*
X234632438Y-116772099D01*
X234693246Y-116388176D01*
X234693246Y-116388171D01*
X234693247Y-116388167D01*
X234713589Y-116000006D01*
X234713589Y-115999993D01*
X234693247Y-115611832D01*
X234632438Y-115227902D01*
X234531831Y-114852431D01*
X234392536Y-114489556D01*
X234392532Y-114489548D01*
X234392532Y-114489547D01*
X234216062Y-114143206D01*
X234004357Y-113817207D01*
X234004354Y-113817203D01*
X234004352Y-113817200D01*
X233759746Y-113515137D01*
X233759732Y-113515122D01*
X233484877Y-113240267D01*
X233484862Y-113240253D01*
X233182802Y-112995649D01*
X233182785Y-112995637D01*
X232856795Y-112783938D01*
X232510451Y-112607467D01*
X232510443Y-112607463D01*
X232147568Y-112468168D01*
X231772097Y-112367561D01*
X231388167Y-112306752D01*
X231000006Y-112286411D01*
X230999994Y-112286411D01*
X230611832Y-112306752D01*
X230227902Y-112367561D01*
X229852431Y-112468168D01*
X229489556Y-112607463D01*
X229489548Y-112607467D01*
X229143205Y-112783938D01*
X228817203Y-112995645D01*
X228817200Y-112995647D01*
X228515137Y-113240253D01*
X228515122Y-113240267D01*
X228240267Y-113515122D01*
X228240253Y-113515137D01*
X227995647Y-113817200D01*
X227995645Y-113817203D01*
X227783938Y-114143205D01*
X227607467Y-114489548D01*
X227607463Y-114489556D01*
X227468168Y-114852431D01*
X227367561Y-115227902D01*
X227306752Y-115611832D01*
X227286411Y-115999993D01*
X227286411Y-116000006D01*
X192481038Y-116000006D01*
X192486930Y-102789710D01*
X192506962Y-102721601D01*
X192560639Y-102675132D01*
X192630917Y-102665060D01*
X192695485Y-102694581D01*
X192703587Y-102702874D01*
X192708000Y-102707018D01*
X192759095Y-102754999D01*
X192780231Y-102776135D01*
X192785770Y-102780431D01*
X192790282Y-102784285D01*
X192824679Y-102816586D01*
X192842427Y-102826342D01*
X192858957Y-102837201D01*
X192874959Y-102849614D01*
X192917459Y-102868004D01*
X192918262Y-102868352D01*
X192923583Y-102870958D01*
X192964940Y-102893695D01*
X192964948Y-102893697D01*
X192984558Y-102898732D01*
X193003267Y-102905137D01*
X193021855Y-102913181D01*
X193068477Y-102920564D01*
X193074262Y-102921763D01*
X193119970Y-102933500D01*
X193140224Y-102933500D01*
X193159934Y-102935051D01*
X193162141Y-102935400D01*
X193179943Y-102938220D01*
X193213870Y-102935012D01*
X193226917Y-102933780D01*
X193232850Y-102933500D01*
X193491800Y-102933500D01*
X193559921Y-102953502D01*
X193585437Y-102975190D01*
X193588747Y-102978866D01*
X193743248Y-103091118D01*
X193917712Y-103168794D01*
X194104513Y-103208500D01*
X194295487Y-103208500D01*
X194482288Y-103168794D01*
X194656752Y-103091118D01*
X194811253Y-102978866D01*
X194852101Y-102933500D01*
X194939034Y-102836951D01*
X194939035Y-102836949D01*
X194939040Y-102836944D01*
X195034527Y-102671556D01*
X195093542Y-102489928D01*
X195113504Y-102300000D01*
X195093542Y-102110072D01*
X195034527Y-101928444D01*
X194939040Y-101763056D01*
X194939038Y-101763054D01*
X194939034Y-101763048D01*
X194811255Y-101621135D01*
X194656752Y-101508882D01*
X194482288Y-101431206D01*
X194295487Y-101391500D01*
X194104513Y-101391500D01*
X193917711Y-101431206D01*
X193857179Y-101458157D01*
X193810748Y-101478829D01*
X193740382Y-101488263D01*
X193676085Y-101458157D01*
X193638271Y-101398068D01*
X193633500Y-101363722D01*
X193633500Y-91486015D01*
X193653502Y-91417894D01*
X193707158Y-91371401D01*
X193777432Y-91361297D01*
X193833560Y-91384079D01*
X193843248Y-91391118D01*
X194017712Y-91468794D01*
X194204513Y-91508500D01*
X194395487Y-91508500D01*
X194582288Y-91468794D01*
X194756752Y-91391118D01*
X194911253Y-91278866D01*
X194952101Y-91233500D01*
X195039034Y-91136951D01*
X195039035Y-91136949D01*
X195039040Y-91136944D01*
X195134527Y-90971556D01*
X195193542Y-90789928D01*
X195213504Y-90600000D01*
X195193542Y-90410072D01*
X195134527Y-90228444D01*
X195039040Y-90063056D01*
X195039038Y-90063054D01*
X195039034Y-90063048D01*
X194911255Y-89921135D01*
X194756752Y-89808882D01*
X194582288Y-89731206D01*
X194395487Y-89691500D01*
X194204513Y-89691500D01*
X194017711Y-89731206D01*
X193843248Y-89808882D01*
X193833560Y-89815921D01*
X193766692Y-89839779D01*
X193697541Y-89823697D01*
X193648061Y-89772783D01*
X193633500Y-89713984D01*
X193633500Y-84000000D01*
X194986496Y-84000000D01*
X195006457Y-84189927D01*
X195036526Y-84282470D01*
X195065473Y-84371556D01*
X195065476Y-84371561D01*
X195160958Y-84536941D01*
X195160965Y-84536951D01*
X195288744Y-84678864D01*
X195288747Y-84678866D01*
X195443248Y-84791118D01*
X195617712Y-84868794D01*
X195804513Y-84908500D01*
X195995487Y-84908500D01*
X196182288Y-84868794D01*
X196356752Y-84791118D01*
X196511253Y-84678866D01*
X196514563Y-84675190D01*
X196575009Y-84637950D01*
X196608200Y-84633500D01*
X205391800Y-84633500D01*
X205459921Y-84653502D01*
X205485437Y-84675190D01*
X205488747Y-84678866D01*
X205643248Y-84791118D01*
X205817712Y-84868794D01*
X206004513Y-84908500D01*
X206195478Y-84908500D01*
X206195487Y-84908500D01*
X206195495Y-84908498D01*
X206201819Y-84907833D01*
X206271658Y-84920599D01*
X206323509Y-84969097D01*
X206341000Y-85033142D01*
X206341000Y-94816146D01*
X206339251Y-94831988D01*
X206339544Y-94832016D01*
X206338798Y-94839907D01*
X206341000Y-94909957D01*
X206341000Y-94939851D01*
X206341001Y-94939872D01*
X206341878Y-94946820D01*
X206342344Y-94952732D01*
X206343826Y-94999888D01*
X206343827Y-94999893D01*
X206349477Y-95019339D01*
X206353486Y-95038697D01*
X206356025Y-95058793D01*
X206356026Y-95058799D01*
X206373393Y-95102662D01*
X206375316Y-95108279D01*
X206388482Y-95153593D01*
X206398794Y-95171031D01*
X206407488Y-95188779D01*
X206414944Y-95207609D01*
X206414950Y-95207620D01*
X206442677Y-95245783D01*
X206445937Y-95250746D01*
X206469960Y-95291365D01*
X206484279Y-95305684D01*
X206497117Y-95320714D01*
X206506656Y-95333843D01*
X206509028Y-95337107D01*
X206537294Y-95360491D01*
X206545386Y-95367185D01*
X206549767Y-95371171D01*
X209506930Y-98328335D01*
X210466554Y-99287959D01*
X210476519Y-99300396D01*
X210476746Y-99300209D01*
X210481798Y-99306316D01*
X210532877Y-99354282D01*
X210554022Y-99375428D01*
X210554026Y-99375431D01*
X210554029Y-99375434D01*
X210559581Y-99379741D01*
X210564068Y-99383572D01*
X210586758Y-99404880D01*
X210598476Y-99415884D01*
X210598478Y-99415885D01*
X210616227Y-99425642D01*
X210632752Y-99436497D01*
X210648758Y-99448913D01*
X210690485Y-99466969D01*
X210692061Y-99467651D01*
X210697382Y-99470257D01*
X210738739Y-99492994D01*
X210738747Y-99492996D01*
X210758357Y-99498031D01*
X210777066Y-99504436D01*
X210795654Y-99512480D01*
X210842276Y-99519863D01*
X210848061Y-99521062D01*
X210893769Y-99532799D01*
X210914023Y-99532799D01*
X210933733Y-99534350D01*
X210935590Y-99534644D01*
X210953742Y-99537519D01*
X210987669Y-99534311D01*
X211000716Y-99533079D01*
X211006649Y-99532799D01*
X215190633Y-99532799D01*
X215258754Y-99552801D01*
X215305247Y-99606457D01*
X215315351Y-99676731D01*
X215310466Y-99697735D01*
X215306457Y-99710071D01*
X215286496Y-99900000D01*
X215306457Y-100089927D01*
X215336526Y-100182470D01*
X215365473Y-100271556D01*
X215460960Y-100436944D01*
X215534137Y-100518215D01*
X215564853Y-100582220D01*
X215566500Y-100602524D01*
X215566500Y-103719698D01*
X215549619Y-103782698D01*
X215465476Y-103928438D01*
X215465473Y-103928445D01*
X215406457Y-104110072D01*
X215386496Y-104300000D01*
X215406457Y-104489927D01*
X215418973Y-104528445D01*
X215465473Y-104671556D01*
X215465476Y-104671561D01*
X215560958Y-104836941D01*
X215560965Y-104836951D01*
X215688744Y-104978864D01*
X215688747Y-104978866D01*
X215843248Y-105091118D01*
X216017712Y-105168794D01*
X216204513Y-105208500D01*
X216395487Y-105208500D01*
X216582288Y-105168794D01*
X216756752Y-105091118D01*
X216911253Y-104978866D01*
X216917622Y-104971793D01*
X217039034Y-104836951D01*
X217039035Y-104836949D01*
X217039040Y-104836944D01*
X217134527Y-104671556D01*
X217193542Y-104489928D01*
X217213504Y-104300000D01*
X217193542Y-104110072D01*
X217149145Y-103973436D01*
X217147118Y-103902469D01*
X217183781Y-103841671D01*
X217247493Y-103810346D01*
X217268979Y-103808500D01*
X217395487Y-103808500D01*
X217582288Y-103768794D01*
X217756752Y-103691118D01*
X217911253Y-103578866D01*
X218039040Y-103436944D01*
X218134527Y-103271556D01*
X218193542Y-103089928D01*
X218213504Y-102900000D01*
X218193542Y-102710072D01*
X218134527Y-102528444D01*
X218064767Y-102407617D01*
X218039042Y-102363059D01*
X218039041Y-102363058D01*
X218039040Y-102363056D01*
X217965863Y-102281784D01*
X217935146Y-102217776D01*
X217933500Y-102197474D01*
X217933500Y-100602524D01*
X217953502Y-100534403D01*
X217965858Y-100518220D01*
X218039040Y-100436944D01*
X218134527Y-100271556D01*
X218193542Y-100089928D01*
X218213504Y-99900000D01*
X218193542Y-99710072D01*
X218193542Y-99710071D01*
X218189534Y-99697735D01*
X218187507Y-99626767D01*
X218224169Y-99565969D01*
X218287881Y-99534644D01*
X218309367Y-99532799D01*
X225784705Y-99532799D01*
X225852826Y-99552801D01*
X225873800Y-99569704D01*
X227321398Y-101017302D01*
X227355424Y-101079614D01*
X227350359Y-101150429D01*
X227307812Y-101207265D01*
X227306369Y-101208330D01*
X227288747Y-101221133D01*
X227160962Y-101363053D01*
X227160958Y-101363058D01*
X227065476Y-101528438D01*
X227065473Y-101528445D01*
X227006457Y-101710072D01*
X226986496Y-101900000D01*
X227006457Y-102089927D01*
X227025898Y-102149759D01*
X227065473Y-102271556D01*
X227160960Y-102436944D01*
X227234137Y-102518215D01*
X227264853Y-102582220D01*
X227266500Y-102602524D01*
X227266500Y-103097474D01*
X227246498Y-103165595D01*
X227234137Y-103181784D01*
X227160957Y-103263059D01*
X227065476Y-103428438D01*
X227065473Y-103428445D01*
X227006457Y-103610072D01*
X226986496Y-103800000D01*
X227006457Y-103989927D01*
X227036526Y-104082470D01*
X227065473Y-104171556D01*
X227065476Y-104171561D01*
X227132124Y-104287000D01*
X227148862Y-104355996D01*
X227132124Y-104413000D01*
X227065476Y-104528438D01*
X227065473Y-104528445D01*
X227006457Y-104710072D01*
X226986496Y-104900000D01*
X227006457Y-105089927D01*
X227032083Y-105168793D01*
X227065473Y-105271556D01*
X227065476Y-105271561D01*
X227160958Y-105436941D01*
X227160965Y-105436951D01*
X227288744Y-105578864D01*
X227288747Y-105578866D01*
X227443248Y-105691118D01*
X227617712Y-105768794D01*
X227804513Y-105808500D01*
X227995487Y-105808500D01*
X228182288Y-105768794D01*
X228356752Y-105691118D01*
X228511253Y-105578866D01*
X228514563Y-105575190D01*
X228575009Y-105537950D01*
X228608200Y-105533500D01*
X231928206Y-105533500D01*
X231951816Y-105535731D01*
X231959906Y-105537275D01*
X232017949Y-105533623D01*
X232021883Y-105533500D01*
X232039855Y-105533500D01*
X232039856Y-105533500D01*
X232057683Y-105531247D01*
X232061612Y-105530876D01*
X232119650Y-105527225D01*
X232127481Y-105524679D01*
X232150631Y-105519505D01*
X232158797Y-105518474D01*
X232212861Y-105497067D01*
X232216538Y-105495743D01*
X232271875Y-105477764D01*
X232278825Y-105473352D01*
X232299967Y-105462580D01*
X232307617Y-105459552D01*
X232354678Y-105425359D01*
X232357908Y-105423165D01*
X232407018Y-105392000D01*
X232412658Y-105385993D01*
X232430444Y-105370312D01*
X232437107Y-105365472D01*
X232474184Y-105320651D01*
X232476770Y-105317718D01*
X232516586Y-105275321D01*
X232520550Y-105268108D01*
X232533885Y-105248486D01*
X232539133Y-105242144D01*
X232563891Y-105189528D01*
X232565679Y-105186018D01*
X232593695Y-105135060D01*
X232595743Y-105127081D01*
X232603774Y-105104773D01*
X232607283Y-105097318D01*
X232618183Y-105040173D01*
X232619040Y-105036345D01*
X232633500Y-104980030D01*
X232633500Y-104971793D01*
X232635733Y-104948179D01*
X232637274Y-104940100D01*
X232637274Y-104940099D01*
X232637275Y-104940094D01*
X232633623Y-104882050D01*
X232633500Y-104878115D01*
X232633500Y-96983854D01*
X232635249Y-96968012D01*
X232634956Y-96967985D01*
X232635700Y-96960098D01*
X232635702Y-96960092D01*
X232633960Y-96904694D01*
X232651812Y-96835982D01*
X232703979Y-96787826D01*
X232773901Y-96775519D01*
X232787925Y-96777895D01*
X232850385Y-96792151D01*
X233076691Y-96802315D01*
X233301175Y-96771906D01*
X233516621Y-96701903D01*
X233716106Y-96594556D01*
X233893218Y-96453314D01*
X234042263Y-96282718D01*
X234158453Y-96088250D01*
X234238051Y-95876161D01*
X234258111Y-95765622D01*
X234278500Y-95653270D01*
X234278500Y-91983484D01*
X234278500Y-91983478D01*
X234263281Y-91814378D01*
X234263281Y-91814376D01*
X234203015Y-91596009D01*
X234104728Y-91391913D01*
X234104724Y-91391906D01*
X234104152Y-91391118D01*
X233971571Y-91208637D01*
X233807834Y-91052088D01*
X233807833Y-91052087D01*
X233618778Y-90927293D01*
X233618770Y-90927289D01*
X233410470Y-90838257D01*
X233410468Y-90838256D01*
X233189615Y-90787849D01*
X232963313Y-90777685D01*
X232963312Y-90777685D01*
X232963309Y-90777685D01*
X232738825Y-90808094D01*
X232738824Y-90808094D01*
X232738819Y-90808095D01*
X232598436Y-90853708D01*
X232527468Y-90855735D01*
X232466670Y-90819073D01*
X232435345Y-90755360D01*
X232433500Y-90733875D01*
X232433500Y-79068837D01*
X232453502Y-79000716D01*
X232507158Y-78954223D01*
X232577432Y-78944119D01*
X232609019Y-78952976D01*
X232629530Y-78961743D01*
X232850385Y-79012151D01*
X233076691Y-79022315D01*
X233301175Y-78991906D01*
X233516621Y-78921903D01*
X233716106Y-78814556D01*
X233893218Y-78673314D01*
X234042263Y-78502718D01*
X234158453Y-78308250D01*
X234238051Y-78096161D01*
X234258111Y-77985622D01*
X234278500Y-77873270D01*
X234278500Y-74203484D01*
X234278500Y-74203478D01*
X234263281Y-74034378D01*
X234263281Y-74034376D01*
X234203015Y-73816009D01*
X234104728Y-73611913D01*
X234104724Y-73611906D01*
X234035976Y-73517282D01*
X233971571Y-73428637D01*
X233807834Y-73272088D01*
X233807833Y-73272087D01*
X233618778Y-73147293D01*
X233618770Y-73147289D01*
X233410470Y-73058257D01*
X233410468Y-73058256D01*
X233189615Y-73007849D01*
X232963313Y-72997685D01*
X232963312Y-72997685D01*
X232963309Y-72997685D01*
X232738825Y-73028094D01*
X232738824Y-73028094D01*
X232738819Y-73028095D01*
X232598436Y-73073708D01*
X232527468Y-73075735D01*
X232466670Y-73039073D01*
X232435345Y-72975360D01*
X232433500Y-72953875D01*
X232433500Y-70770146D01*
X232433498Y-70770129D01*
X232418475Y-70651207D01*
X232418474Y-70651205D01*
X232418474Y-70651203D01*
X232359552Y-70502383D01*
X232359551Y-70502381D01*
X232356632Y-70495009D01*
X232356998Y-70494863D01*
X232353423Y-70486602D01*
X232334527Y-70428444D01*
X232239040Y-70263056D01*
X232239038Y-70263054D01*
X232239034Y-70263048D01*
X232111255Y-70121135D01*
X231956752Y-70008882D01*
X231782288Y-69931206D01*
X231595487Y-69891500D01*
X231404513Y-69891500D01*
X231217711Y-69931206D01*
X231043247Y-70008882D01*
X230888744Y-70121135D01*
X230760965Y-70263048D01*
X230760958Y-70263058D01*
X230665476Y-70428438D01*
X230665473Y-70428445D01*
X230606457Y-70610072D01*
X230586496Y-70800000D01*
X230606457Y-70989927D01*
X230636526Y-71082470D01*
X230665473Y-71171556D01*
X230665476Y-71171561D01*
X230760958Y-71336941D01*
X230760965Y-71336951D01*
X230888744Y-71478864D01*
X230888747Y-71478866D01*
X231043248Y-71591118D01*
X231091749Y-71612711D01*
X231145844Y-71658690D01*
X231166494Y-71726617D01*
X231166500Y-71727818D01*
X231166500Y-72993905D01*
X231146498Y-73062026D01*
X231092842Y-73108519D01*
X231022568Y-73118623D01*
X230990979Y-73109765D01*
X230870470Y-73058257D01*
X230870468Y-73058256D01*
X230649615Y-73007849D01*
X230423313Y-72997685D01*
X230423312Y-72997685D01*
X230423309Y-72997685D01*
X230311067Y-73012889D01*
X230198821Y-73028094D01*
X229983375Y-73098098D01*
X229919206Y-73132629D01*
X229849741Y-73147295D01*
X229783374Y-73122076D01*
X229741177Y-73064981D01*
X229733500Y-73021673D01*
X229733500Y-68683854D01*
X229735249Y-68668012D01*
X229734956Y-68667985D01*
X229735700Y-68660099D01*
X229735702Y-68660092D01*
X229733500Y-68590028D01*
X229733500Y-68560144D01*
X229732620Y-68553182D01*
X229732156Y-68547293D01*
X229730674Y-68500111D01*
X229725017Y-68480642D01*
X229721012Y-68461298D01*
X229718474Y-68441203D01*
X229701100Y-68397322D01*
X229699181Y-68391716D01*
X229686018Y-68346407D01*
X229675706Y-68328970D01*
X229667010Y-68311221D01*
X229659552Y-68292383D01*
X229631812Y-68254203D01*
X229628564Y-68249258D01*
X229604542Y-68208638D01*
X229590214Y-68194310D01*
X229577384Y-68179289D01*
X229565472Y-68162893D01*
X229565469Y-68162891D01*
X229565469Y-68162890D01*
X229529107Y-68132808D01*
X229524726Y-68128822D01*
X228147119Y-66751214D01*
X228113095Y-66688905D01*
X228110908Y-66675309D01*
X228093542Y-66510072D01*
X228034527Y-66328444D01*
X227939040Y-66163056D01*
X227939038Y-66163054D01*
X227939034Y-66163048D01*
X227811255Y-66021135D01*
X227656752Y-65908882D01*
X227482288Y-65831206D01*
X227295487Y-65791500D01*
X227104513Y-65791500D01*
X226917711Y-65831206D01*
X226743247Y-65908882D01*
X226588744Y-66021135D01*
X226460965Y-66163048D01*
X226460958Y-66163058D01*
X226365476Y-66328438D01*
X226365473Y-66328445D01*
X226306457Y-66510072D01*
X226286496Y-66700000D01*
X226306457Y-66889927D01*
X226328047Y-66956371D01*
X226365473Y-67071556D01*
X226365476Y-67071561D01*
X226460958Y-67236941D01*
X226460965Y-67236951D01*
X226588744Y-67378864D01*
X226588747Y-67378866D01*
X226743248Y-67491118D01*
X226917712Y-67568794D01*
X227104513Y-67608500D01*
X227160406Y-67608500D01*
X227228527Y-67628502D01*
X227249501Y-67645405D01*
X228429595Y-68825499D01*
X228463621Y-68887811D01*
X228466500Y-68914594D01*
X228466500Y-72931305D01*
X228446498Y-72999426D01*
X228392842Y-73045919D01*
X228322568Y-73056023D01*
X228312463Y-73054146D01*
X228109615Y-73007849D01*
X227883313Y-72997685D01*
X227883312Y-72997685D01*
X227883309Y-72997685D01*
X227771067Y-73012889D01*
X227658821Y-73028094D01*
X227443373Y-73098099D01*
X227243899Y-73205440D01*
X227243892Y-73205444D01*
X227066780Y-73346687D01*
X226917737Y-73517280D01*
X226801550Y-73711743D01*
X226801548Y-73711747D01*
X226787422Y-73749385D01*
X226744758Y-73806133D01*
X226678187Y-73830806D01*
X226608844Y-73815572D01*
X226558745Y-73765266D01*
X226555953Y-73759815D01*
X226484725Y-73611907D01*
X226351571Y-73428637D01*
X226187834Y-73272088D01*
X226187833Y-73272087D01*
X225998778Y-73147293D01*
X225998770Y-73147289D01*
X225790470Y-73058257D01*
X225790468Y-73058256D01*
X225569615Y-73007849D01*
X225343313Y-72997685D01*
X225343312Y-72997685D01*
X225343309Y-72997685D01*
X225231067Y-73012889D01*
X225118821Y-73028094D01*
X224903373Y-73098099D01*
X224703899Y-73205440D01*
X224703892Y-73205444D01*
X224526780Y-73346687D01*
X224377737Y-73517280D01*
X224261550Y-73711743D01*
X224261548Y-73711747D01*
X224247422Y-73749385D01*
X224204758Y-73806133D01*
X224138187Y-73830806D01*
X224068844Y-73815572D01*
X224018745Y-73765266D01*
X224015953Y-73759815D01*
X223944725Y-73611907D01*
X223811571Y-73428637D01*
X223647834Y-73272088D01*
X223647833Y-73272087D01*
X223458778Y-73147293D01*
X223458770Y-73147289D01*
X223250470Y-73058257D01*
X223250468Y-73058256D01*
X223029615Y-73007849D01*
X222803313Y-72997685D01*
X222803312Y-72997685D01*
X222803309Y-72997685D01*
X222691067Y-73012889D01*
X222578821Y-73028094D01*
X222363373Y-73098099D01*
X222163899Y-73205440D01*
X222163892Y-73205444D01*
X221986780Y-73346687D01*
X221837737Y-73517280D01*
X221721550Y-73711743D01*
X221721548Y-73711747D01*
X221707422Y-73749385D01*
X221664758Y-73806133D01*
X221598187Y-73830806D01*
X221528844Y-73815572D01*
X221478745Y-73765266D01*
X221475953Y-73759815D01*
X221404725Y-73611907D01*
X221271571Y-73428637D01*
X221107834Y-73272088D01*
X221107833Y-73272087D01*
X220918778Y-73147293D01*
X220918770Y-73147289D01*
X220710470Y-73058257D01*
X220710468Y-73058256D01*
X220489615Y-73007849D01*
X220263313Y-72997685D01*
X220263312Y-72997685D01*
X220263309Y-72997685D01*
X220151067Y-73012889D01*
X220038821Y-73028094D01*
X219823373Y-73098099D01*
X219623899Y-73205440D01*
X219623892Y-73205444D01*
X219446780Y-73346687D01*
X219297737Y-73517280D01*
X219181550Y-73711743D01*
X219181548Y-73711747D01*
X219167422Y-73749385D01*
X219124758Y-73806133D01*
X219058187Y-73830806D01*
X218988844Y-73815572D01*
X218938745Y-73765266D01*
X218935953Y-73759815D01*
X218864725Y-73611907D01*
X218731571Y-73428637D01*
X218567834Y-73272088D01*
X218567833Y-73272087D01*
X218378778Y-73147293D01*
X218378770Y-73147289D01*
X218170470Y-73058257D01*
X218170468Y-73058256D01*
X217949615Y-73007849D01*
X217723313Y-72997685D01*
X217723312Y-72997685D01*
X217723309Y-72997685D01*
X217611067Y-73012889D01*
X217498821Y-73028094D01*
X217283373Y-73098099D01*
X217083899Y-73205440D01*
X217083892Y-73205444D01*
X216906780Y-73346687D01*
X216757737Y-73517280D01*
X216641550Y-73711743D01*
X216641548Y-73711747D01*
X216561947Y-73923843D01*
X216521500Y-74146729D01*
X216521500Y-77816518D01*
X216536718Y-77985623D01*
X216596984Y-78203990D01*
X216695271Y-78408086D01*
X216695275Y-78408093D01*
X216828429Y-78591363D01*
X216992166Y-78747912D01*
X217033500Y-78775196D01*
X217089913Y-78812434D01*
X217135746Y-78866654D01*
X217146500Y-78917590D01*
X217146500Y-80957845D01*
X217136135Y-81007891D01*
X217127291Y-81028326D01*
X217125607Y-81031904D01*
X217099214Y-81083704D01*
X217097416Y-81091749D01*
X217090093Y-81114287D01*
X217086819Y-81121853D01*
X217077723Y-81179281D01*
X217076981Y-81183169D01*
X217064298Y-81239905D01*
X217064297Y-81239913D01*
X217064556Y-81248149D01*
X217063068Y-81271804D01*
X217061780Y-81279938D01*
X217061779Y-81279944D01*
X217067251Y-81337827D01*
X217067500Y-81341777D01*
X217069326Y-81399885D01*
X217069327Y-81399891D01*
X217071626Y-81407804D01*
X217076066Y-81431080D01*
X217076842Y-81439290D01*
X217076843Y-81439291D01*
X217096539Y-81494003D01*
X217097761Y-81497765D01*
X217113981Y-81553592D01*
X217118173Y-81560680D01*
X217128265Y-81582125D01*
X217131059Y-81589884D01*
X217131061Y-81589889D01*
X217163751Y-81637991D01*
X217165865Y-81641323D01*
X217195457Y-81691361D01*
X217195460Y-81691365D01*
X217201279Y-81697184D01*
X217216392Y-81715451D01*
X217221025Y-81722267D01*
X217221028Y-81722271D01*
X217264648Y-81760727D01*
X217267517Y-81763421D01*
X217815300Y-82311204D01*
X218329595Y-82825499D01*
X218363621Y-82887811D01*
X218366500Y-82914594D01*
X218366500Y-86597474D01*
X218346498Y-86665595D01*
X218334137Y-86681784D01*
X218260957Y-86763059D01*
X218165476Y-86928438D01*
X218165473Y-86928445D01*
X218106457Y-87110072D01*
X218086496Y-87300000D01*
X218106457Y-87489927D01*
X218136526Y-87582470D01*
X218165473Y-87671556D01*
X218165476Y-87671561D01*
X218260958Y-87836941D01*
X218260965Y-87836951D01*
X218388744Y-87978864D01*
X218388747Y-87978866D01*
X218543248Y-88091118D01*
X218717712Y-88168794D01*
X218904513Y-88208500D01*
X219095487Y-88208500D01*
X219282288Y-88168794D01*
X219456752Y-88091118D01*
X219611253Y-87978866D01*
X219739040Y-87836944D01*
X219834527Y-87671556D01*
X219893542Y-87489928D01*
X219913504Y-87300000D01*
X219893542Y-87110072D01*
X219834527Y-86928444D01*
X219739040Y-86763056D01*
X219665863Y-86681784D01*
X219635146Y-86617776D01*
X219633500Y-86597474D01*
X219633500Y-82683854D01*
X219635249Y-82668012D01*
X219634956Y-82667985D01*
X219635700Y-82660099D01*
X219635702Y-82660092D01*
X219633500Y-82590028D01*
X219633500Y-82560144D01*
X219632620Y-82553182D01*
X219632156Y-82547293D01*
X219630674Y-82500111D01*
X219625020Y-82480652D01*
X219621012Y-82461297D01*
X219618474Y-82441203D01*
X219601103Y-82397329D01*
X219599189Y-82391740D01*
X219586019Y-82346407D01*
X219575703Y-82328964D01*
X219567005Y-82311209D01*
X219559552Y-82292383D01*
X219531818Y-82254210D01*
X219528558Y-82249247D01*
X219504542Y-82208638D01*
X219490214Y-82194310D01*
X219477384Y-82179289D01*
X219465472Y-82162893D01*
X219465469Y-82162891D01*
X219465469Y-82162890D01*
X219429107Y-82132808D01*
X219424726Y-82128822D01*
X218450402Y-81154497D01*
X218416379Y-81092188D01*
X218413500Y-81065405D01*
X218413500Y-78923527D01*
X218433502Y-78855406D01*
X218472482Y-78819345D01*
X218471380Y-78817676D01*
X218476104Y-78814557D01*
X218476103Y-78814557D01*
X218476106Y-78814556D01*
X218581476Y-78730526D01*
X218653216Y-78673316D01*
X218653216Y-78673315D01*
X218653218Y-78673314D01*
X218802263Y-78502718D01*
X218918453Y-78308250D01*
X218932577Y-78270614D01*
X218975238Y-78213868D01*
X219041809Y-78189193D01*
X219111152Y-78204426D01*
X219161252Y-78254730D01*
X219164064Y-78260221D01*
X219235271Y-78408086D01*
X219235275Y-78408093D01*
X219368429Y-78591363D01*
X219368430Y-78591364D01*
X219532166Y-78747912D01*
X219684164Y-78848245D01*
X219721226Y-78872709D01*
X219929530Y-78961743D01*
X220150385Y-79012151D01*
X220376691Y-79022315D01*
X220601175Y-78991906D01*
X220816621Y-78921903D01*
X221016106Y-78814556D01*
X221193218Y-78673314D01*
X221342263Y-78502718D01*
X221458453Y-78308250D01*
X221472577Y-78270614D01*
X221515238Y-78213868D01*
X221581809Y-78189193D01*
X221651152Y-78204426D01*
X221701252Y-78254730D01*
X221704064Y-78260221D01*
X221775271Y-78408086D01*
X221775275Y-78408093D01*
X221908429Y-78591363D01*
X221908430Y-78591364D01*
X222072166Y-78747912D01*
X222224164Y-78848245D01*
X222261226Y-78872709D01*
X222469530Y-78961743D01*
X222690385Y-79012151D01*
X222916691Y-79022315D01*
X223141175Y-78991906D01*
X223356621Y-78921903D01*
X223556106Y-78814556D01*
X223733218Y-78673314D01*
X223882263Y-78502718D01*
X223998453Y-78308250D01*
X224012577Y-78270614D01*
X224055238Y-78213868D01*
X224121809Y-78189193D01*
X224191152Y-78204426D01*
X224241252Y-78254730D01*
X224244064Y-78260221D01*
X224315271Y-78408086D01*
X224315275Y-78408093D01*
X224448429Y-78591363D01*
X224448430Y-78591364D01*
X224612166Y-78747912D01*
X224764164Y-78848245D01*
X224801226Y-78872709D01*
X225009530Y-78961743D01*
X225230385Y-79012151D01*
X225456691Y-79022315D01*
X225681175Y-78991906D01*
X225896621Y-78921903D01*
X226096106Y-78814556D01*
X226273218Y-78673314D01*
X226422263Y-78502718D01*
X226538453Y-78308250D01*
X226552577Y-78270614D01*
X226595238Y-78213868D01*
X226661809Y-78189193D01*
X226731152Y-78204426D01*
X226781252Y-78254730D01*
X226784064Y-78260221D01*
X226855271Y-78408086D01*
X226855275Y-78408093D01*
X226988429Y-78591363D01*
X226988430Y-78591364D01*
X227152166Y-78747912D01*
X227304164Y-78848245D01*
X227341226Y-78872709D01*
X227549530Y-78961743D01*
X227770385Y-79012151D01*
X227996691Y-79022315D01*
X228221175Y-78991906D01*
X228301563Y-78965785D01*
X228372531Y-78963758D01*
X228433329Y-79000420D01*
X228464654Y-79064132D01*
X228466500Y-79085619D01*
X228466500Y-90711305D01*
X228446498Y-90779426D01*
X228392842Y-90825919D01*
X228322568Y-90836023D01*
X228312463Y-90834146D01*
X228109615Y-90787849D01*
X227883313Y-90777685D01*
X227883312Y-90777685D01*
X227883309Y-90777685D01*
X227771067Y-90792889D01*
X227658821Y-90808094D01*
X227443373Y-90878099D01*
X227243899Y-90985440D01*
X227243892Y-90985444D01*
X227066780Y-91126687D01*
X226917737Y-91297280D01*
X226801550Y-91491743D01*
X226801548Y-91491747D01*
X226787422Y-91529385D01*
X226744758Y-91586133D01*
X226678187Y-91610806D01*
X226608844Y-91595572D01*
X226558745Y-91545266D01*
X226555953Y-91539815D01*
X226484725Y-91391907D01*
X226351571Y-91208637D01*
X226187834Y-91052088D01*
X226187833Y-91052087D01*
X225998778Y-90927293D01*
X225998770Y-90927289D01*
X225790470Y-90838257D01*
X225790468Y-90838256D01*
X225569615Y-90787849D01*
X225343313Y-90777685D01*
X225343312Y-90777685D01*
X225343309Y-90777685D01*
X225231067Y-90792889D01*
X225118821Y-90808094D01*
X224903373Y-90878099D01*
X224703899Y-90985440D01*
X224703892Y-90985444D01*
X224526780Y-91126687D01*
X224377737Y-91297280D01*
X224261550Y-91491743D01*
X224261548Y-91491747D01*
X224247422Y-91529385D01*
X224204758Y-91586133D01*
X224138187Y-91610806D01*
X224068844Y-91595572D01*
X224018745Y-91545266D01*
X224015953Y-91539815D01*
X223944725Y-91391907D01*
X223811571Y-91208637D01*
X223647834Y-91052088D01*
X223647833Y-91052087D01*
X223458778Y-90927293D01*
X223458770Y-90927289D01*
X223250470Y-90838257D01*
X223250468Y-90838256D01*
X223029615Y-90787849D01*
X222803313Y-90777685D01*
X222803312Y-90777685D01*
X222803309Y-90777685D01*
X222691067Y-90792889D01*
X222578821Y-90808094D01*
X222363373Y-90878099D01*
X222163899Y-90985440D01*
X222163892Y-90985444D01*
X221986780Y-91126687D01*
X221837737Y-91297280D01*
X221721550Y-91491743D01*
X221721548Y-91491747D01*
X221707422Y-91529385D01*
X221664758Y-91586133D01*
X221598187Y-91610806D01*
X221528844Y-91595572D01*
X221478745Y-91545266D01*
X221475953Y-91539815D01*
X221404725Y-91391907D01*
X221271571Y-91208637D01*
X221107834Y-91052088D01*
X221107833Y-91052087D01*
X220918778Y-90927293D01*
X220918770Y-90927289D01*
X220710470Y-90838257D01*
X220710468Y-90838256D01*
X220489615Y-90787849D01*
X220263313Y-90777685D01*
X220263312Y-90777685D01*
X220263309Y-90777685D01*
X220151067Y-90792889D01*
X220038821Y-90808094D01*
X219823375Y-90878098D01*
X219743776Y-90920932D01*
X219674311Y-90935598D01*
X219607944Y-90910379D01*
X219594975Y-90899071D01*
X216185832Y-87489928D01*
X212747121Y-84051216D01*
X212713095Y-83988904D01*
X212710908Y-83975306D01*
X212693542Y-83810072D01*
X212634527Y-83628444D01*
X212539040Y-83463056D01*
X212539038Y-83463054D01*
X212539034Y-83463048D01*
X212411255Y-83321135D01*
X212256752Y-83208882D01*
X212082288Y-83131206D01*
X211895487Y-83091500D01*
X211704513Y-83091500D01*
X211517711Y-83131206D01*
X211343247Y-83208882D01*
X211188744Y-83321135D01*
X211060965Y-83463048D01*
X211060958Y-83463058D01*
X210965476Y-83628438D01*
X210965473Y-83628445D01*
X210906457Y-83810072D01*
X210886496Y-84000000D01*
X210906457Y-84189927D01*
X210936526Y-84282470D01*
X210965473Y-84371556D01*
X210965476Y-84371561D01*
X211060958Y-84536941D01*
X211060965Y-84536951D01*
X211188744Y-84678864D01*
X211188747Y-84678866D01*
X211343248Y-84791118D01*
X211517712Y-84868794D01*
X211704513Y-84908500D01*
X211760406Y-84908500D01*
X211828527Y-84928502D01*
X211849501Y-84945405D01*
X217514474Y-90610378D01*
X217548500Y-90672690D01*
X217543435Y-90743505D01*
X217500888Y-90800341D01*
X217464316Y-90819306D01*
X217283373Y-90878099D01*
X217083899Y-90985440D01*
X217083892Y-90985444D01*
X216906780Y-91126687D01*
X216757737Y-91297280D01*
X216641550Y-91491743D01*
X216641548Y-91491747D01*
X216561947Y-91703843D01*
X216521500Y-91926729D01*
X216521500Y-95596518D01*
X216536718Y-95765623D01*
X216596984Y-95983990D01*
X216695271Y-96188086D01*
X216695275Y-96188093D01*
X216828429Y-96371363D01*
X216828430Y-96371364D01*
X216992166Y-96527912D01*
X217161834Y-96639909D01*
X217181226Y-96652709D01*
X217389530Y-96741743D01*
X217610385Y-96792151D01*
X217836691Y-96802315D01*
X218061175Y-96771906D01*
X218276621Y-96701903D01*
X218476106Y-96594556D01*
X218653218Y-96453314D01*
X218802263Y-96282718D01*
X218918453Y-96088250D01*
X218932577Y-96050614D01*
X218975238Y-95993868D01*
X219041809Y-95969193D01*
X219111152Y-95984426D01*
X219161252Y-96034730D01*
X219164064Y-96040221D01*
X219235271Y-96188086D01*
X219235275Y-96188093D01*
X219368429Y-96371363D01*
X219368430Y-96371364D01*
X219532166Y-96527912D01*
X219701834Y-96639909D01*
X219721226Y-96652709D01*
X219929530Y-96741743D01*
X220150385Y-96792151D01*
X220376691Y-96802315D01*
X220601175Y-96771906D01*
X220816621Y-96701903D01*
X221016106Y-96594556D01*
X221193218Y-96453314D01*
X221342263Y-96282718D01*
X221458453Y-96088250D01*
X221472577Y-96050614D01*
X221515238Y-95993868D01*
X221581809Y-95969193D01*
X221651152Y-95984426D01*
X221701252Y-96034730D01*
X221704064Y-96040221D01*
X221775271Y-96188086D01*
X221775275Y-96188093D01*
X221908429Y-96371363D01*
X221908430Y-96371364D01*
X222072166Y-96527912D01*
X222241834Y-96639909D01*
X222261226Y-96652709D01*
X222469530Y-96741743D01*
X222690385Y-96792151D01*
X222916691Y-96802315D01*
X223141175Y-96771906D01*
X223356621Y-96701903D01*
X223556106Y-96594556D01*
X223733218Y-96453314D01*
X223882263Y-96282718D01*
X223998453Y-96088250D01*
X224012577Y-96050614D01*
X224055238Y-95993868D01*
X224121809Y-95969193D01*
X224191152Y-95984426D01*
X224241252Y-96034730D01*
X224244064Y-96040221D01*
X224315271Y-96188086D01*
X224315275Y-96188093D01*
X224448429Y-96371363D01*
X224448430Y-96371364D01*
X224612166Y-96527912D01*
X224781834Y-96639909D01*
X224801226Y-96652709D01*
X225009530Y-96741743D01*
X225230385Y-96792151D01*
X225456691Y-96802315D01*
X225681175Y-96771906D01*
X225896621Y-96701903D01*
X226096106Y-96594556D01*
X226273218Y-96453314D01*
X226422263Y-96282718D01*
X226538453Y-96088250D01*
X226552577Y-96050614D01*
X226595238Y-95993868D01*
X226661809Y-95969193D01*
X226731152Y-95984426D01*
X226781252Y-96034730D01*
X226784064Y-96040221D01*
X226855271Y-96188086D01*
X226855275Y-96188093D01*
X226988429Y-96371363D01*
X226988430Y-96371364D01*
X227152166Y-96527912D01*
X227321834Y-96639909D01*
X227341226Y-96652709D01*
X227549530Y-96741743D01*
X227770385Y-96792151D01*
X227996691Y-96802315D01*
X228175525Y-96778089D01*
X228245709Y-96788766D01*
X228298984Y-96835695D01*
X228318430Y-96903976D01*
X228301554Y-96965947D01*
X228265477Y-97028436D01*
X228265473Y-97028445D01*
X228206457Y-97210072D01*
X228186496Y-97400000D01*
X228206457Y-97589927D01*
X228236526Y-97682470D01*
X228265473Y-97771556D01*
X228265476Y-97771561D01*
X228360958Y-97936941D01*
X228360965Y-97936951D01*
X228488744Y-98078864D01*
X228488747Y-98078866D01*
X228643248Y-98191118D01*
X228817712Y-98268794D01*
X229004513Y-98308500D01*
X229195487Y-98308500D01*
X229382288Y-98268794D01*
X229556752Y-98191118D01*
X229711253Y-98078866D01*
X229839040Y-97936944D01*
X229934527Y-97771556D01*
X229993542Y-97589928D01*
X230013504Y-97400000D01*
X229993542Y-97210072D01*
X229934527Y-97028444D01*
X229861907Y-96902662D01*
X229852641Y-96886613D01*
X229835903Y-96817618D01*
X229859123Y-96750526D01*
X229914931Y-96706639D01*
X229985606Y-96699890D01*
X230011282Y-96707753D01*
X230089686Y-96741265D01*
X230225999Y-96772377D01*
X230226000Y-96772377D01*
X230226000Y-92831686D01*
X230241955Y-92847641D01*
X230354852Y-92905165D01*
X230448519Y-92920000D01*
X230511481Y-92920000D01*
X230605148Y-92905165D01*
X230718045Y-92847641D01*
X230734000Y-92831686D01*
X230734000Y-96775082D01*
X230761059Y-96771418D01*
X230761059Y-96771417D01*
X230976423Y-96701441D01*
X230976429Y-96701439D01*
X230983822Y-96697461D01*
X231053286Y-96682792D01*
X231119654Y-96708008D01*
X231161854Y-96765102D01*
X231167103Y-96792215D01*
X231168087Y-96792060D01*
X231169327Y-96799893D01*
X231174977Y-96819339D01*
X231178986Y-96838697D01*
X231181525Y-96858793D01*
X231181526Y-96858799D01*
X231198893Y-96902662D01*
X231200816Y-96908279D01*
X231213982Y-96953593D01*
X231224294Y-96971031D01*
X231232988Y-96988779D01*
X231240444Y-97007609D01*
X231240450Y-97007620D01*
X231268177Y-97045783D01*
X231271437Y-97050746D01*
X231288527Y-97079643D01*
X231295458Y-97091362D01*
X231309782Y-97105686D01*
X231322620Y-97120717D01*
X231339188Y-97143521D01*
X231337416Y-97144808D01*
X231364398Y-97198124D01*
X231366500Y-97221040D01*
X231366500Y-102872252D01*
X231346498Y-102940373D01*
X231292842Y-102986866D01*
X231222568Y-102996970D01*
X231214305Y-102995499D01*
X231195490Y-102991500D01*
X231195487Y-102991500D01*
X231139595Y-102991500D01*
X231071474Y-102971498D01*
X231050500Y-102954595D01*
X226606543Y-98510638D01*
X226596578Y-98498200D01*
X226596351Y-98498389D01*
X226591300Y-98492283D01*
X226591299Y-98492281D01*
X226540220Y-98444315D01*
X226519076Y-98423170D01*
X226519071Y-98423165D01*
X226513524Y-98418862D01*
X226509016Y-98415011D01*
X226474624Y-98382716D01*
X226474618Y-98382712D01*
X226456862Y-98372950D01*
X226440346Y-98362101D01*
X226424340Y-98349685D01*
X226393588Y-98336377D01*
X226381039Y-98330947D01*
X226375707Y-98328335D01*
X226334360Y-98305604D01*
X226314735Y-98300565D01*
X226296035Y-98294163D01*
X226277444Y-98286118D01*
X226277442Y-98286117D01*
X226277441Y-98286117D01*
X226230841Y-98278736D01*
X226225028Y-98277532D01*
X226179329Y-98265799D01*
X226159075Y-98265799D01*
X226139365Y-98264248D01*
X226119356Y-98261079D01*
X226119355Y-98261079D01*
X226072382Y-98265519D01*
X226066449Y-98265799D01*
X211288393Y-98265799D01*
X211220272Y-98245797D01*
X211199298Y-98228894D01*
X207644905Y-94674500D01*
X207610879Y-94612188D01*
X207608000Y-94585405D01*
X207608000Y-80770284D01*
X207628002Y-80702163D01*
X207635159Y-80692789D01*
X207635157Y-80692788D01*
X207639041Y-80687442D01*
X207639042Y-80687441D01*
X207734527Y-80522056D01*
X207793542Y-80340428D01*
X207813504Y-80150500D01*
X207793542Y-79960572D01*
X207734527Y-79778944D01*
X207639040Y-79613556D01*
X207639038Y-79613554D01*
X207639034Y-79613548D01*
X207511255Y-79471635D01*
X207356752Y-79359382D01*
X207182288Y-79281706D01*
X206995487Y-79242000D01*
X206804513Y-79242000D01*
X206617711Y-79281706D01*
X206443247Y-79359382D01*
X206288744Y-79471635D01*
X206160965Y-79613548D01*
X206160958Y-79613558D01*
X206065476Y-79778938D01*
X206065473Y-79778945D01*
X206006457Y-79960572D01*
X205986496Y-80150500D01*
X206006457Y-80340427D01*
X206036526Y-80432970D01*
X206065473Y-80522056D01*
X206065476Y-80522061D01*
X206160958Y-80687441D01*
X206160965Y-80687451D01*
X206235549Y-80770284D01*
X206288747Y-80829366D01*
X206289057Y-80829591D01*
X206289195Y-80829770D01*
X206293652Y-80833783D01*
X206292918Y-80834597D01*
X206332413Y-80885812D01*
X206341000Y-80931530D01*
X206341000Y-82966856D01*
X206320998Y-83034977D01*
X206267342Y-83081470D01*
X206201838Y-83092167D01*
X206195488Y-83091500D01*
X206195487Y-83091500D01*
X206004513Y-83091500D01*
X205817711Y-83131206D01*
X205643247Y-83208882D01*
X205488747Y-83321133D01*
X205485437Y-83324810D01*
X205424991Y-83362050D01*
X205391800Y-83366500D01*
X198382479Y-83366500D01*
X198314358Y-83346498D01*
X198267865Y-83292842D01*
X198257761Y-83222568D01*
X198273360Y-83177500D01*
X198334527Y-83071556D01*
X198393542Y-82889928D01*
X198413504Y-82700000D01*
X198398463Y-82556894D01*
X198411235Y-82487057D01*
X198459737Y-82435210D01*
X198472525Y-82428618D01*
X198556752Y-82391118D01*
X198711253Y-82278866D01*
X198711255Y-82278864D01*
X198839034Y-82136951D01*
X198839035Y-82136949D01*
X198839040Y-82136944D01*
X198934527Y-81971556D01*
X198993542Y-81789928D01*
X199013504Y-81600000D01*
X198993542Y-81410072D01*
X198934527Y-81228444D01*
X198839040Y-81063056D01*
X198839038Y-81063054D01*
X198839034Y-81063048D01*
X198711255Y-80921135D01*
X198556752Y-80808882D01*
X198382288Y-80731206D01*
X198195487Y-80691500D01*
X198004513Y-80691500D01*
X197817711Y-80731206D01*
X197643247Y-80808882D01*
X197488747Y-80921133D01*
X197485437Y-80924810D01*
X197424991Y-80962050D01*
X197391800Y-80966500D01*
X196683700Y-80966500D01*
X196615579Y-80946498D01*
X196590063Y-80924810D01*
X196586752Y-80921133D01*
X196432252Y-80808882D01*
X196257788Y-80731206D01*
X196070987Y-80691500D01*
X195880013Y-80691500D01*
X195693211Y-80731206D01*
X195518747Y-80808882D01*
X195364244Y-80921135D01*
X195236465Y-81063048D01*
X195236458Y-81063058D01*
X195140976Y-81228438D01*
X195140973Y-81228444D01*
X195130704Y-81260048D01*
X195081957Y-81410072D01*
X195061996Y-81600000D01*
X195081957Y-81789927D01*
X195112026Y-81882470D01*
X195140973Y-81971556D01*
X195140973Y-81971557D01*
X195140974Y-81971558D01*
X195170517Y-82022728D01*
X195187254Y-82091723D01*
X195164033Y-82158815D01*
X195163336Y-82159784D01*
X195160959Y-82163054D01*
X195065476Y-82328438D01*
X195065473Y-82328444D01*
X195050999Y-82372986D01*
X195006457Y-82510072D01*
X194986496Y-82700000D01*
X195006457Y-82889927D01*
X195031454Y-82966856D01*
X195065473Y-83071556D01*
X195065476Y-83071561D01*
X195160958Y-83236942D01*
X195160959Y-83236944D01*
X195186843Y-83265692D01*
X195217559Y-83329700D01*
X195208793Y-83400153D01*
X195186843Y-83434308D01*
X195160959Y-83463055D01*
X195160958Y-83463057D01*
X195065476Y-83628438D01*
X195065473Y-83628445D01*
X195006457Y-83810072D01*
X194986496Y-84000000D01*
X193633500Y-84000000D01*
X193633500Y-77214594D01*
X193653502Y-77146473D01*
X193670405Y-77125499D01*
X194150499Y-76645405D01*
X194212811Y-76611379D01*
X194239594Y-76608500D01*
X194295487Y-76608500D01*
X194482288Y-76568794D01*
X194656752Y-76491118D01*
X194811253Y-76378866D01*
X194860443Y-76324235D01*
X194939034Y-76236951D01*
X194939035Y-76236949D01*
X194939040Y-76236944D01*
X195034527Y-76071556D01*
X195093542Y-75889928D01*
X195113504Y-75700000D01*
X195093542Y-75510072D01*
X195034527Y-75328444D01*
X194939040Y-75163056D01*
X194939038Y-75163054D01*
X194939034Y-75163048D01*
X194811255Y-75021135D01*
X194656752Y-74908882D01*
X194482288Y-74831206D01*
X194295487Y-74791500D01*
X194104513Y-74791500D01*
X193917711Y-74831206D01*
X193743247Y-74908882D01*
X193588744Y-75021135D01*
X193460965Y-75163048D01*
X193460958Y-75163058D01*
X193365476Y-75328438D01*
X193365473Y-75328445D01*
X193306457Y-75510072D01*
X193289092Y-75675292D01*
X193262079Y-75740949D01*
X193252877Y-75751216D01*
X192713884Y-76290209D01*
X192651572Y-76324235D01*
X192580757Y-76319170D01*
X192523921Y-76276623D01*
X192499110Y-76210103D01*
X192498789Y-76201058D01*
X192498990Y-75751216D01*
X192502472Y-67942817D01*
X192522504Y-67874707D01*
X192576181Y-67828238D01*
X192646459Y-67818166D01*
X192707625Y-67844842D01*
X192729974Y-67862887D01*
X192935574Y-67977743D01*
X193157628Y-68056199D01*
X193389747Y-68096000D01*
X193389750Y-68096000D01*
X194066270Y-68096000D01*
X194242158Y-68081030D01*
X194404352Y-68038797D01*
X194470058Y-68021689D01*
X194470058Y-68021688D01*
X194470065Y-68021687D01*
X194684665Y-67924682D01*
X194879785Y-67792804D01*
X195049810Y-67629848D01*
X195189850Y-67440502D01*
X195295876Y-67230212D01*
X195364837Y-67005029D01*
X195379577Y-66889928D01*
X195394751Y-66771430D01*
X195394751Y-66771422D01*
X195388600Y-66626633D01*
X195384756Y-66536136D01*
X195335139Y-66305915D01*
X195317607Y-66262286D01*
X195312685Y-66250035D01*
X195247329Y-66087391D01*
X195123852Y-65886851D01*
X194968259Y-65710063D01*
X194785026Y-65562113D01*
X194765003Y-65550927D01*
X194715290Y-65500244D01*
X194700869Y-65430728D01*
X194726320Y-65364450D01*
X194755898Y-65336537D01*
X194780501Y-65319908D01*
X194879785Y-65252804D01*
X195049810Y-65089848D01*
X195189850Y-64900502D01*
X195295876Y-64690212D01*
X195364837Y-64465029D01*
X195394751Y-64231430D01*
X195393542Y-64202975D01*
X195384756Y-63996141D01*
X195384756Y-63996136D01*
X195335139Y-63765915D01*
X195325675Y-63742364D01*
X195309657Y-63702500D01*
X195247329Y-63547391D01*
X195123852Y-63346851D01*
X194968259Y-63170063D01*
X194785026Y-63022113D01*
X194765003Y-63010927D01*
X194715290Y-62960244D01*
X194700869Y-62890728D01*
X194726320Y-62824450D01*
X194755898Y-62796537D01*
X194779917Y-62780303D01*
X194879785Y-62712804D01*
X195049810Y-62549848D01*
X195189850Y-62360502D01*
X195295876Y-62150212D01*
X195364837Y-61925029D01*
X195394751Y-61691430D01*
X195389744Y-61573570D01*
X195388600Y-61546633D01*
X195384756Y-61456136D01*
X195335139Y-61225915D01*
X195317607Y-61182286D01*
X195312685Y-61170035D01*
X195247329Y-61007391D01*
X195123852Y-60806851D01*
X194988542Y-60653109D01*
X194958553Y-60588760D01*
X194968114Y-60518410D01*
X195014191Y-60464397D01*
X195039085Y-60451815D01*
X195128704Y-60418389D01*
X195151804Y-60401097D01*
X195245761Y-60330761D01*
X195333387Y-60213707D01*
X195333387Y-60213706D01*
X195333389Y-60213704D01*
X195384489Y-60076701D01*
X195391000Y-60016138D01*
X195391000Y-58168862D01*
X195390999Y-58168850D01*
X195384490Y-58108303D01*
X195384488Y-58108295D01*
X195333389Y-57971297D01*
X195333387Y-57971292D01*
X195245761Y-57854238D01*
X195128707Y-57766612D01*
X195128702Y-57766610D01*
X194991704Y-57715511D01*
X194991696Y-57715509D01*
X194931149Y-57709000D01*
X194931138Y-57709000D01*
X192633093Y-57709000D01*
X192564972Y-57688998D01*
X192518479Y-57635342D01*
X192507093Y-57582944D01*
X192507487Y-56700000D01*
X199686496Y-56700000D01*
X199706457Y-56889927D01*
X199736526Y-56982470D01*
X199765473Y-57071556D01*
X199765476Y-57071561D01*
X199860958Y-57236941D01*
X199860965Y-57236951D01*
X199988744Y-57378864D01*
X200007562Y-57392536D01*
X200143248Y-57491118D01*
X200317712Y-57568794D01*
X200504513Y-57608500D01*
X200560406Y-57608500D01*
X200628527Y-57628502D01*
X200649501Y-57645405D01*
X202552753Y-59548657D01*
X202562720Y-59561097D01*
X202562947Y-59560910D01*
X202567999Y-59567017D01*
X202619095Y-59614999D01*
X202640225Y-59636130D01*
X202645768Y-59640430D01*
X202650281Y-59644285D01*
X202684679Y-59676586D01*
X202684680Y-59676586D01*
X202684682Y-59676588D01*
X202702429Y-59686344D01*
X202718959Y-59697202D01*
X202734959Y-59709613D01*
X202766136Y-59723104D01*
X202778251Y-59728347D01*
X202783585Y-59730959D01*
X202824940Y-59753695D01*
X202844562Y-59758733D01*
X202863263Y-59765135D01*
X202881855Y-59773181D01*
X202928470Y-59780563D01*
X202934242Y-59781758D01*
X202979970Y-59793500D01*
X203000231Y-59793500D01*
X203019939Y-59795050D01*
X203039943Y-59798219D01*
X203073459Y-59795051D01*
X203086910Y-59793780D01*
X203092842Y-59793500D01*
X215140500Y-59793500D01*
X215208621Y-59813502D01*
X215255114Y-59867158D01*
X215266500Y-59919500D01*
X215266500Y-60083649D01*
X215273009Y-60144196D01*
X215273011Y-60144204D01*
X215324110Y-60281202D01*
X215324112Y-60281207D01*
X215411738Y-60398261D01*
X215528792Y-60485887D01*
X215528794Y-60485888D01*
X215528796Y-60485889D01*
X215571506Y-60501819D01*
X215620426Y-60520066D01*
X215677262Y-60562613D01*
X215702072Y-60629133D01*
X215686980Y-60698507D01*
X215663578Y-60729087D01*
X215607692Y-60782649D01*
X215467648Y-60972000D01*
X215361625Y-61182286D01*
X215361620Y-61182298D01*
X215292661Y-61407475D01*
X215292661Y-61407476D01*
X215262748Y-61641069D01*
X215262748Y-61641077D01*
X215272743Y-61876358D01*
X215272745Y-61876371D01*
X215322361Y-62106587D01*
X215383047Y-62257609D01*
X215410171Y-62325109D01*
X215533648Y-62525649D01*
X215689241Y-62702437D01*
X215872474Y-62850387D01*
X215872478Y-62850389D01*
X215892984Y-62861845D01*
X215942699Y-62912530D01*
X215957119Y-62982047D01*
X215931667Y-63048324D01*
X215902090Y-63076236D01*
X215778032Y-63160085D01*
X215778024Y-63160091D01*
X215608069Y-63322979D01*
X215608065Y-63322985D01*
X215468078Y-63512260D01*
X215362088Y-63722478D01*
X215362086Y-63722484D01*
X215293153Y-63947576D01*
X215288233Y-63986000D01*
X216421374Y-63986000D01*
X216418275Y-63990390D01*
X216368795Y-64129614D01*
X216358712Y-64277025D01*
X216388774Y-64421690D01*
X216426242Y-64494000D01*
X215289988Y-64494000D01*
X215322841Y-64646440D01*
X215410619Y-64864883D01*
X215534055Y-65065354D01*
X215689588Y-65242074D01*
X215872756Y-65389971D01*
X215892959Y-65401257D01*
X215942675Y-65451941D01*
X215957096Y-65521457D01*
X215931645Y-65587735D01*
X215902067Y-65615649D01*
X215777716Y-65699695D01*
X215777715Y-65699696D01*
X215607692Y-65862649D01*
X215467648Y-66052000D01*
X215361625Y-66262286D01*
X215361620Y-66262298D01*
X215292661Y-66487475D01*
X215292661Y-66487476D01*
X215262748Y-66721069D01*
X215262748Y-66721077D01*
X215272743Y-66956358D01*
X215272745Y-66956371D01*
X215322361Y-67186587D01*
X215383047Y-67337609D01*
X215410171Y-67405109D01*
X215533648Y-67605649D01*
X215689241Y-67782437D01*
X215872474Y-67930387D01*
X216078074Y-68045243D01*
X216078077Y-68045244D01*
X216221731Y-68096000D01*
X216300128Y-68123699D01*
X216532247Y-68163500D01*
X216532250Y-68163500D01*
X217208770Y-68163500D01*
X217384658Y-68148530D01*
X217586400Y-68096000D01*
X217612558Y-68089189D01*
X217612558Y-68089188D01*
X217612565Y-68089187D01*
X217827165Y-67992182D01*
X218022285Y-67860304D01*
X218192310Y-67697348D01*
X218332350Y-67508002D01*
X218438376Y-67297712D01*
X218507337Y-67072529D01*
X218515982Y-67005024D01*
X218537251Y-66838930D01*
X218537251Y-66838922D01*
X218527256Y-66603641D01*
X218527256Y-66603636D01*
X218477639Y-66373415D01*
X218389829Y-66154891D01*
X218266352Y-65954351D01*
X218110759Y-65777563D01*
X217927526Y-65629613D01*
X217927525Y-65629612D01*
X217927522Y-65629610D01*
X217907013Y-65618153D01*
X217857299Y-65567467D01*
X217842880Y-65497951D01*
X217868333Y-65431673D01*
X217897910Y-65403762D01*
X218021970Y-65319912D01*
X218021975Y-65319908D01*
X218191930Y-65157020D01*
X218191934Y-65157014D01*
X218331921Y-64967739D01*
X218437911Y-64757521D01*
X218437913Y-64757515D01*
X218506846Y-64532423D01*
X218511767Y-64494000D01*
X217378626Y-64494000D01*
X217381725Y-64489610D01*
X217431205Y-64350386D01*
X217441288Y-64202975D01*
X217411226Y-64058310D01*
X217373758Y-63986000D01*
X218510012Y-63986000D01*
X218510012Y-63985999D01*
X218477158Y-63833559D01*
X218389380Y-63615116D01*
X218265944Y-63414645D01*
X218110411Y-63237925D01*
X217927243Y-63090028D01*
X217907041Y-63078743D01*
X217857325Y-63028059D01*
X217842904Y-62958543D01*
X217868355Y-62892265D01*
X217897933Y-62864351D01*
X217901641Y-62861845D01*
X218022285Y-62780304D01*
X218192310Y-62617348D01*
X218332350Y-62428002D01*
X218438376Y-62217712D01*
X218507337Y-61992529D01*
X218515982Y-61925024D01*
X218537251Y-61758930D01*
X218537251Y-61758922D01*
X218527256Y-61523641D01*
X218527256Y-61523636D01*
X218477639Y-61293415D01*
X218389829Y-61074891D01*
X218266352Y-60874351D01*
X218131042Y-60720609D01*
X218101053Y-60656260D01*
X218110614Y-60585910D01*
X218156691Y-60531897D01*
X218181585Y-60519315D01*
X218271204Y-60485889D01*
X218276067Y-60482249D01*
X218388261Y-60398261D01*
X218475887Y-60281207D01*
X218475887Y-60281206D01*
X218475889Y-60281204D01*
X218526989Y-60144201D01*
X218533500Y-60083638D01*
X218533500Y-58236362D01*
X218529591Y-58200000D01*
X221786496Y-58200000D01*
X221806457Y-58389927D01*
X221832027Y-58468621D01*
X221865473Y-58571556D01*
X221865476Y-58571561D01*
X221960958Y-58736941D01*
X221960965Y-58736951D01*
X222088744Y-58878864D01*
X222088747Y-58878866D01*
X222243248Y-58991118D01*
X222417712Y-59068794D01*
X222604513Y-59108500D01*
X222660406Y-59108500D01*
X222728527Y-59128502D01*
X222749501Y-59145405D01*
X223992753Y-60388657D01*
X224002720Y-60401097D01*
X224002947Y-60400910D01*
X224007999Y-60407017D01*
X224059095Y-60454999D01*
X224080225Y-60476130D01*
X224085768Y-60480430D01*
X224090281Y-60484285D01*
X224124679Y-60516586D01*
X224124680Y-60516586D01*
X224124682Y-60516588D01*
X224142429Y-60526344D01*
X224158959Y-60537202D01*
X224174959Y-60549613D01*
X224205001Y-60562613D01*
X224218251Y-60568347D01*
X224223585Y-60570959D01*
X224264940Y-60593695D01*
X224284562Y-60598733D01*
X224303263Y-60605135D01*
X224321855Y-60613181D01*
X224368470Y-60620563D01*
X224374242Y-60621758D01*
X224419970Y-60633500D01*
X224440231Y-60633500D01*
X224459939Y-60635050D01*
X224479943Y-60638219D01*
X224513459Y-60635051D01*
X224526910Y-60633780D01*
X224532842Y-60633500D01*
X228191800Y-60633500D01*
X228259921Y-60653502D01*
X228285437Y-60675190D01*
X228288747Y-60678866D01*
X228443248Y-60791118D01*
X228617712Y-60868794D01*
X228804513Y-60908500D01*
X228995487Y-60908500D01*
X229182288Y-60868794D01*
X229356752Y-60791118D01*
X229511253Y-60678866D01*
X229552102Y-60633499D01*
X229639034Y-60536951D01*
X229639035Y-60536949D01*
X229639040Y-60536944D01*
X229734527Y-60371556D01*
X229793542Y-60189928D01*
X229813504Y-60000000D01*
X229793542Y-59810072D01*
X229734527Y-59628444D01*
X229639040Y-59463056D01*
X229639038Y-59463054D01*
X229639034Y-59463048D01*
X229511255Y-59321135D01*
X229356752Y-59208882D01*
X229182288Y-59131206D01*
X228995487Y-59091500D01*
X228804513Y-59091500D01*
X228617711Y-59131206D01*
X228443247Y-59208882D01*
X228288747Y-59321133D01*
X228285437Y-59324810D01*
X228224991Y-59362050D01*
X228191800Y-59366500D01*
X224814595Y-59366500D01*
X224746474Y-59346498D01*
X224725500Y-59329595D01*
X223647121Y-58251216D01*
X223613095Y-58188904D01*
X223610908Y-58175306D01*
X223593542Y-58010072D01*
X223534527Y-57828444D01*
X223439040Y-57663056D01*
X223439038Y-57663054D01*
X223439034Y-57663048D01*
X223311255Y-57521135D01*
X223156752Y-57408882D01*
X222982288Y-57331206D01*
X222795487Y-57291500D01*
X222604513Y-57291500D01*
X222417711Y-57331206D01*
X222243247Y-57408882D01*
X222088744Y-57521135D01*
X221960965Y-57663048D01*
X221960958Y-57663058D01*
X221865476Y-57828438D01*
X221865473Y-57828444D01*
X221857092Y-57854238D01*
X221806457Y-58010072D01*
X221786496Y-58200000D01*
X218529591Y-58200000D01*
X218528398Y-58188904D01*
X218526990Y-58175803D01*
X218526988Y-58175795D01*
X218475889Y-58038797D01*
X218475887Y-58038792D01*
X218388261Y-57921738D01*
X218271207Y-57834112D01*
X218271202Y-57834110D01*
X218134204Y-57783011D01*
X218134196Y-57783009D01*
X218073649Y-57776500D01*
X218073638Y-57776500D01*
X215726362Y-57776500D01*
X215726350Y-57776500D01*
X215665803Y-57783009D01*
X215665795Y-57783011D01*
X215528797Y-57834110D01*
X215528792Y-57834112D01*
X215411738Y-57921738D01*
X215324112Y-58038792D01*
X215324110Y-58038797D01*
X215273011Y-58175795D01*
X215273009Y-58175803D01*
X215266500Y-58236350D01*
X215266500Y-58400500D01*
X215246498Y-58468621D01*
X215192842Y-58515114D01*
X215140500Y-58526500D01*
X203374595Y-58526500D01*
X203306474Y-58506498D01*
X203285500Y-58489595D01*
X201547121Y-56751216D01*
X201513095Y-56688904D01*
X201510908Y-56675306D01*
X201493542Y-56510072D01*
X201434527Y-56328444D01*
X201339040Y-56163056D01*
X201339038Y-56163054D01*
X201339034Y-56163048D01*
X201211255Y-56021135D01*
X201056752Y-55908882D01*
X200882288Y-55831206D01*
X200695487Y-55791500D01*
X200504513Y-55791500D01*
X200317711Y-55831206D01*
X200143247Y-55908882D01*
X199988744Y-56021135D01*
X199860965Y-56163048D01*
X199860958Y-56163058D01*
X199765476Y-56328438D01*
X199765473Y-56328445D01*
X199706457Y-56510072D01*
X199686496Y-56700000D01*
X192507487Y-56700000D01*
X192508691Y-54000006D01*
X227286411Y-54000006D01*
X227306752Y-54388167D01*
X227367561Y-54772097D01*
X227468168Y-55147568D01*
X227607463Y-55510443D01*
X227607467Y-55510451D01*
X227783938Y-55856795D01*
X227995637Y-56182785D01*
X227995649Y-56182802D01*
X228240253Y-56484862D01*
X228240267Y-56484877D01*
X228515122Y-56759732D01*
X228515137Y-56759746D01*
X228817197Y-57004350D01*
X228817214Y-57004362D01*
X228920692Y-57071561D01*
X229143205Y-57216062D01*
X229489547Y-57392532D01*
X229489551Y-57392533D01*
X229489556Y-57392536D01*
X229852431Y-57531831D01*
X229852436Y-57531832D01*
X229852438Y-57531833D01*
X230227901Y-57632438D01*
X230611824Y-57693246D01*
X230611826Y-57693246D01*
X230611832Y-57693247D01*
X230999994Y-57713589D01*
X231000000Y-57713589D01*
X231000006Y-57713589D01*
X231388167Y-57693247D01*
X231388171Y-57693246D01*
X231388176Y-57693246D01*
X231772099Y-57632438D01*
X232147562Y-57531833D01*
X232147565Y-57531831D01*
X232147568Y-57531831D01*
X232510443Y-57392536D01*
X232510444Y-57392535D01*
X232510453Y-57392532D01*
X232856795Y-57216062D01*
X233182793Y-57004357D01*
X233182802Y-57004350D01*
X233484862Y-56759746D01*
X233484867Y-56759740D01*
X233484876Y-56759734D01*
X233759734Y-56484876D01*
X233759740Y-56484867D01*
X233759746Y-56484862D01*
X234004350Y-56182802D01*
X234004351Y-56182799D01*
X234004357Y-56182793D01*
X234216062Y-55856795D01*
X234392532Y-55510453D01*
X234531833Y-55147562D01*
X234632438Y-54772099D01*
X234693246Y-54388176D01*
X234693246Y-54388171D01*
X234693247Y-54388167D01*
X234713589Y-54000006D01*
X234713589Y-53999993D01*
X234693247Y-53611832D01*
X234632438Y-53227902D01*
X234531831Y-52852431D01*
X234392536Y-52489556D01*
X234392532Y-52489548D01*
X234392532Y-52489547D01*
X234216062Y-52143206D01*
X234004357Y-51817207D01*
X234004354Y-51817203D01*
X234004352Y-51817200D01*
X233759746Y-51515137D01*
X233759732Y-51515122D01*
X233484877Y-51240267D01*
X233484862Y-51240253D01*
X233182802Y-50995649D01*
X233182785Y-50995637D01*
X232856795Y-50783938D01*
X232510451Y-50607467D01*
X232510443Y-50607463D01*
X232147568Y-50468168D01*
X231772097Y-50367561D01*
X231388167Y-50306752D01*
X231000006Y-50286411D01*
X230999994Y-50286411D01*
X230611832Y-50306752D01*
X230227902Y-50367561D01*
X229852431Y-50468168D01*
X229489556Y-50607463D01*
X229489548Y-50607467D01*
X229143205Y-50783938D01*
X228817203Y-50995645D01*
X228817200Y-50995647D01*
X228515137Y-51240253D01*
X228515122Y-51240267D01*
X228240267Y-51515122D01*
X228240253Y-51515137D01*
X227995647Y-51817200D01*
X227995645Y-51817203D01*
X227783938Y-52143205D01*
X227607467Y-52489548D01*
X227607463Y-52489556D01*
X227468168Y-52852431D01*
X227367561Y-53227902D01*
X227306752Y-53611832D01*
X227286411Y-53999993D01*
X227286411Y-54000006D01*
X192508691Y-54000006D01*
X192510408Y-50151444D01*
X192530440Y-50083332D01*
X192584117Y-50036863D01*
X192636408Y-50025500D01*
X234848500Y-50025500D01*
X234916621Y-50045502D01*
G37*
%TD.AperFunction*%
%TD*%
%TA.AperFunction,Conductor*%
%TO.N,GND*%
G36*
X191888604Y-50045502D02*
G01*
X191935097Y-50099158D01*
X191946481Y-50151929D01*
X191885197Y-68036662D01*
X191792943Y-94959082D01*
X191772708Y-95027134D01*
X191718893Y-95073442D01*
X191648585Y-95083305D01*
X191643324Y-95082416D01*
X191640204Y-95081821D01*
X191636347Y-95080959D01*
X191580030Y-95066500D01*
X191571794Y-95066500D01*
X191548183Y-95064268D01*
X191546340Y-95063916D01*
X191540096Y-95062725D01*
X191540090Y-95062725D01*
X191525622Y-95063635D01*
X191482050Y-95066376D01*
X191478117Y-95066500D01*
X188008200Y-95066500D01*
X187940079Y-95046498D01*
X187914563Y-95024810D01*
X187911252Y-95021133D01*
X187756752Y-94908882D01*
X187582288Y-94831206D01*
X187395487Y-94791500D01*
X187204513Y-94791500D01*
X187017711Y-94831206D01*
X186843247Y-94908882D01*
X186688744Y-95021135D01*
X186560965Y-95163048D01*
X186560958Y-95163058D01*
X186465476Y-95328438D01*
X186465473Y-95328444D01*
X186450999Y-95372986D01*
X186406457Y-95510072D01*
X186386496Y-95700000D01*
X186406457Y-95889927D01*
X186432348Y-95969609D01*
X186465473Y-96071556D01*
X186465476Y-96071561D01*
X186560958Y-96236941D01*
X186560965Y-96236951D01*
X186688744Y-96378864D01*
X186688747Y-96378866D01*
X186843248Y-96491118D01*
X187017712Y-96568794D01*
X187204513Y-96608500D01*
X187395487Y-96608500D01*
X187582288Y-96568794D01*
X187756752Y-96491118D01*
X187911253Y-96378866D01*
X187914563Y-96375190D01*
X187975009Y-96337950D01*
X188008200Y-96333500D01*
X190740500Y-96333500D01*
X190808621Y-96353502D01*
X190855114Y-96407158D01*
X190866500Y-96459500D01*
X190866500Y-104185405D01*
X190846498Y-104253526D01*
X190829595Y-104274500D01*
X190249500Y-104854595D01*
X190187188Y-104888621D01*
X190160405Y-104891500D01*
X190104513Y-104891500D01*
X189917711Y-104931206D01*
X189743247Y-105008882D01*
X189588744Y-105121135D01*
X189460965Y-105263048D01*
X189460958Y-105263058D01*
X189365476Y-105428438D01*
X189365473Y-105428444D01*
X189363640Y-105434085D01*
X189306457Y-105610072D01*
X189286496Y-105800000D01*
X189306457Y-105989927D01*
X189336526Y-106082470D01*
X189365473Y-106171556D01*
X189365476Y-106171561D01*
X189460958Y-106336941D01*
X189460965Y-106336951D01*
X189588744Y-106478864D01*
X189588747Y-106478866D01*
X189743248Y-106591118D01*
X189917712Y-106668794D01*
X190104513Y-106708500D01*
X190295487Y-106708500D01*
X190482288Y-106668794D01*
X190656752Y-106591118D01*
X190811253Y-106478866D01*
X190939040Y-106336944D01*
X191034527Y-106171556D01*
X191093542Y-105989928D01*
X191110907Y-105824704D01*
X191137920Y-105759049D01*
X191147112Y-105748790D01*
X191541926Y-105353976D01*
X191604235Y-105319954D01*
X191675050Y-105325018D01*
X191731886Y-105367565D01*
X191756697Y-105434085D01*
X191757017Y-105443506D01*
X191707655Y-119848932D01*
X191687420Y-119916984D01*
X191633605Y-119963292D01*
X191581656Y-119974500D01*
X110151500Y-119974500D01*
X110083379Y-119954498D01*
X110036886Y-119900842D01*
X110025500Y-119848500D01*
X110025500Y-116000006D01*
X110286411Y-116000006D01*
X110306752Y-116388167D01*
X110367561Y-116772097D01*
X110468168Y-117147568D01*
X110607463Y-117510443D01*
X110607467Y-117510451D01*
X110783938Y-117856795D01*
X110995637Y-118182785D01*
X110995649Y-118182802D01*
X111240253Y-118484862D01*
X111240267Y-118484877D01*
X111515122Y-118759732D01*
X111515137Y-118759746D01*
X111817197Y-119004350D01*
X111817214Y-119004362D01*
X112001185Y-119123833D01*
X112143205Y-119216062D01*
X112489547Y-119392532D01*
X112489551Y-119392533D01*
X112489556Y-119392536D01*
X112852431Y-119531831D01*
X112852436Y-119531832D01*
X112852438Y-119531833D01*
X113227901Y-119632438D01*
X113611824Y-119693246D01*
X113611826Y-119693246D01*
X113611832Y-119693247D01*
X113999994Y-119713589D01*
X114000000Y-119713589D01*
X114000006Y-119713589D01*
X114388167Y-119693247D01*
X114388171Y-119693246D01*
X114388176Y-119693246D01*
X114772099Y-119632438D01*
X115147562Y-119531833D01*
X115147565Y-119531831D01*
X115147568Y-119531831D01*
X115510443Y-119392536D01*
X115510444Y-119392535D01*
X115510453Y-119392532D01*
X115856795Y-119216062D01*
X116182793Y-119004357D01*
X116182802Y-119004350D01*
X116484862Y-118759746D01*
X116484867Y-118759740D01*
X116484876Y-118759734D01*
X116759734Y-118484876D01*
X116759740Y-118484867D01*
X116759746Y-118484862D01*
X117004350Y-118182802D01*
X117004351Y-118182799D01*
X117004357Y-118182793D01*
X117216062Y-117856795D01*
X117392532Y-117510453D01*
X117531833Y-117147562D01*
X117632438Y-116772099D01*
X117693246Y-116388176D01*
X117693246Y-116388171D01*
X117693247Y-116388167D01*
X117713589Y-116000006D01*
X117713589Y-115999993D01*
X117693247Y-115611832D01*
X117632438Y-115227902D01*
X117531831Y-114852431D01*
X117392536Y-114489556D01*
X117392532Y-114489548D01*
X117392532Y-114489547D01*
X117216062Y-114143206D01*
X117004357Y-113817207D01*
X117004354Y-113817203D01*
X117004352Y-113817200D01*
X116759746Y-113515137D01*
X116759732Y-113515122D01*
X116484877Y-113240267D01*
X116484862Y-113240253D01*
X116182802Y-112995649D01*
X116182785Y-112995637D01*
X115856795Y-112783938D01*
X115510451Y-112607467D01*
X115510443Y-112607463D01*
X115147568Y-112468168D01*
X114772097Y-112367561D01*
X114388167Y-112306752D01*
X114000006Y-112286411D01*
X113999994Y-112286411D01*
X113611832Y-112306752D01*
X113227902Y-112367561D01*
X112852431Y-112468168D01*
X112489556Y-112607463D01*
X112489548Y-112607467D01*
X112143205Y-112783938D01*
X111817203Y-112995645D01*
X111817200Y-112995647D01*
X111515137Y-113240253D01*
X111515122Y-113240267D01*
X111240267Y-113515122D01*
X111240253Y-113515137D01*
X110995647Y-113817200D01*
X110995645Y-113817203D01*
X110783938Y-114143205D01*
X110607467Y-114489548D01*
X110607463Y-114489556D01*
X110468168Y-114852431D01*
X110367561Y-115227902D01*
X110306752Y-115611832D01*
X110286411Y-115999993D01*
X110286411Y-116000006D01*
X110025500Y-116000006D01*
X110025500Y-95965000D01*
X118736844Y-95965000D01*
X118749558Y-96118438D01*
X118755437Y-96189375D01*
X118810702Y-96407612D01*
X118810703Y-96407613D01*
X118810704Y-96407616D01*
X118881402Y-96568793D01*
X118901141Y-96613793D01*
X119024275Y-96802265D01*
X119024279Y-96802270D01*
X119113004Y-96898649D01*
X119168746Y-96959201D01*
X119176762Y-96967908D01*
X119214256Y-96997091D01*
X119354424Y-97106189D01*
X119552426Y-97213342D01*
X119552427Y-97213342D01*
X119552428Y-97213343D01*
X119664227Y-97251723D01*
X119765365Y-97286444D01*
X119987431Y-97323500D01*
X119987435Y-97323500D01*
X120212565Y-97323500D01*
X120212569Y-97323500D01*
X120434635Y-97286444D01*
X120647574Y-97213342D01*
X120845576Y-97106189D01*
X121023240Y-96967906D01*
X121175722Y-96802268D01*
X121298860Y-96613791D01*
X121389296Y-96407616D01*
X121444564Y-96189368D01*
X121463156Y-95965000D01*
X121444564Y-95740632D01*
X121418854Y-95639105D01*
X121389297Y-95522387D01*
X121389296Y-95522386D01*
X121389296Y-95522384D01*
X121298860Y-95316209D01*
X121262332Y-95260298D01*
X121175724Y-95127734D01*
X121175719Y-95127729D01*
X121133457Y-95081821D01*
X121032524Y-94972179D01*
X121001103Y-94908514D01*
X121009090Y-94837968D01*
X121053948Y-94782939D01*
X121081183Y-94768789D01*
X121196204Y-94725889D01*
X121231977Y-94699110D01*
X121313261Y-94638261D01*
X121400887Y-94521207D01*
X121400887Y-94521206D01*
X121400889Y-94521204D01*
X121451989Y-94384201D01*
X121452228Y-94381985D01*
X121458499Y-94323649D01*
X121458500Y-94323632D01*
X121458500Y-92654239D01*
X121478502Y-92586118D01*
X121495405Y-92565144D01*
X122015144Y-92045405D01*
X122077456Y-92011379D01*
X122104239Y-92008500D01*
X123330266Y-92008500D01*
X123398387Y-92028502D01*
X123444880Y-92082158D01*
X123454984Y-92152432D01*
X123425490Y-92217012D01*
X123390235Y-92245313D01*
X123318299Y-92284244D01*
X123254426Y-92318810D01*
X123254424Y-92318811D01*
X123076762Y-92457091D01*
X122924279Y-92622729D01*
X122924275Y-92622734D01*
X122801141Y-92811206D01*
X122710703Y-93017386D01*
X122710702Y-93017387D01*
X122655437Y-93235624D01*
X122655436Y-93235630D01*
X122655436Y-93235632D01*
X122636844Y-93460000D01*
X122654374Y-93671556D01*
X122655437Y-93684375D01*
X122710702Y-93902612D01*
X122710703Y-93902613D01*
X122710704Y-93902616D01*
X122784810Y-94071561D01*
X122801141Y-94108793D01*
X122924275Y-94297265D01*
X122924280Y-94297270D01*
X123067475Y-94452820D01*
X123098896Y-94516485D01*
X123090909Y-94587031D01*
X123046051Y-94642060D01*
X123018807Y-94656213D01*
X122903797Y-94699110D01*
X122903792Y-94699112D01*
X122786738Y-94786738D01*
X122699112Y-94903792D01*
X122699110Y-94903797D01*
X122648011Y-95040795D01*
X122648010Y-95040801D01*
X122641500Y-95101350D01*
X122641500Y-96898649D01*
X122648009Y-96959196D01*
X122648011Y-96959204D01*
X122699110Y-97096202D01*
X122699112Y-97096207D01*
X122786738Y-97213261D01*
X122903792Y-97300887D01*
X122903794Y-97300888D01*
X122903796Y-97300889D01*
X122962875Y-97322924D01*
X123040795Y-97351988D01*
X123040803Y-97351990D01*
X123101350Y-97358499D01*
X123101355Y-97358499D01*
X123101362Y-97358500D01*
X123101368Y-97358500D01*
X124898632Y-97358500D01*
X124898638Y-97358500D01*
X124898645Y-97358499D01*
X124898649Y-97358499D01*
X124959196Y-97351990D01*
X124959199Y-97351989D01*
X124959201Y-97351989D01*
X124961293Y-97351209D01*
X125014002Y-97331549D01*
X125096204Y-97300889D01*
X125096207Y-97300887D01*
X125189991Y-97230681D01*
X125256511Y-97205870D01*
X125325885Y-97220961D01*
X125376087Y-97271163D01*
X125391500Y-97331549D01*
X125391500Y-99905499D01*
X125390960Y-99913730D01*
X125386250Y-99949509D01*
X125386250Y-99949512D01*
X125388788Y-99968794D01*
X125391500Y-99989390D01*
X125391500Y-99989396D01*
X125398874Y-100045405D01*
X125402543Y-100073273D01*
X125407161Y-100108360D01*
X125407162Y-100108361D01*
X125468475Y-100256385D01*
X125468480Y-100256393D01*
X125541525Y-100351585D01*
X125566014Y-100383499D01*
X125594651Y-100405473D01*
X125600844Y-100410904D01*
X129688605Y-104498665D01*
X129694037Y-104504859D01*
X129705699Y-104520057D01*
X129716013Y-104533498D01*
X129745836Y-104556382D01*
X129745872Y-104556411D01*
X129763182Y-104569693D01*
X129776654Y-104580030D01*
X129843125Y-104631035D01*
X129991150Y-104692349D01*
X130110115Y-104708011D01*
X130110122Y-104708011D01*
X130150000Y-104713261D01*
X130150000Y-104713260D01*
X130150001Y-104713261D01*
X130185781Y-104708551D01*
X130194012Y-104708011D01*
X150456477Y-104708011D01*
X150464708Y-104708551D01*
X150477038Y-104710173D01*
X150500489Y-104713261D01*
X150540369Y-104708011D01*
X150540374Y-104708011D01*
X150618280Y-104697754D01*
X150639946Y-104694902D01*
X150643824Y-104694391D01*
X150659340Y-104692349D01*
X150807365Y-104631035D01*
X150853944Y-104595293D01*
X150920162Y-104569693D01*
X150989711Y-104583957D01*
X151040507Y-104633558D01*
X151056424Y-104702747D01*
X151032407Y-104769558D01*
X151019742Y-104784351D01*
X150911336Y-104892757D01*
X150898901Y-104902721D01*
X150899089Y-104902948D01*
X150892980Y-104908001D01*
X150845016Y-104959078D01*
X150823866Y-104980227D01*
X150819560Y-104985777D01*
X150815714Y-104990279D01*
X150783417Y-105024674D01*
X150783411Y-105024683D01*
X150773651Y-105042435D01*
X150762803Y-105058950D01*
X150750386Y-105074958D01*
X150731645Y-105118264D01*
X150729034Y-105123594D01*
X150706305Y-105164939D01*
X150706303Y-105164944D01*
X150701267Y-105184559D01*
X150694864Y-105203262D01*
X150686819Y-105221852D01*
X150679437Y-105268456D01*
X150678233Y-105274268D01*
X150666500Y-105319968D01*
X150666500Y-105340223D01*
X150664949Y-105359933D01*
X150661780Y-105379942D01*
X150661780Y-105379943D01*
X150666220Y-105426917D01*
X150666500Y-105432850D01*
X150666500Y-107797474D01*
X150646498Y-107865595D01*
X150634137Y-107881784D01*
X150560957Y-107963059D01*
X150465476Y-108128438D01*
X150465473Y-108128445D01*
X150406457Y-108310072D01*
X150386496Y-108500000D01*
X150406457Y-108689927D01*
X150436526Y-108782470D01*
X150465473Y-108871556D01*
X150465476Y-108871561D01*
X150560958Y-109036941D01*
X150560965Y-109036951D01*
X150688744Y-109178864D01*
X150688747Y-109178866D01*
X150843248Y-109291118D01*
X151017712Y-109368794D01*
X151204513Y-109408500D01*
X151395487Y-109408500D01*
X151582288Y-109368794D01*
X151756752Y-109291118D01*
X151911253Y-109178866D01*
X152039040Y-109036944D01*
X152134527Y-108871556D01*
X152193542Y-108689928D01*
X152213504Y-108500000D01*
X152193542Y-108310072D01*
X152134527Y-108128444D01*
X152039040Y-107963056D01*
X151965863Y-107881784D01*
X151935146Y-107817776D01*
X151933500Y-107797474D01*
X151933500Y-105714594D01*
X151953502Y-105646473D01*
X151970405Y-105625499D01*
X152150499Y-105445405D01*
X152212811Y-105411379D01*
X152239594Y-105408500D01*
X152295487Y-105408500D01*
X152482288Y-105368794D01*
X152656752Y-105291118D01*
X152811253Y-105178866D01*
X152811255Y-105178864D01*
X152939034Y-105036951D01*
X152939035Y-105036949D01*
X152939040Y-105036944D01*
X153034527Y-104871556D01*
X153093542Y-104689928D01*
X153095058Y-104675500D01*
X158286496Y-104675500D01*
X158306457Y-104865427D01*
X158327831Y-104931206D01*
X158365473Y-105047056D01*
X158365476Y-105047061D01*
X158450406Y-105194165D01*
X158460960Y-105212444D01*
X158534137Y-105293715D01*
X158564853Y-105357720D01*
X158566500Y-105378024D01*
X158566500Y-107416146D01*
X158564751Y-107431988D01*
X158565044Y-107432016D01*
X158564298Y-107439907D01*
X158566500Y-107509957D01*
X158566500Y-107539851D01*
X158566501Y-107539872D01*
X158567378Y-107546820D01*
X158567844Y-107552732D01*
X158569326Y-107599888D01*
X158569327Y-107599893D01*
X158574977Y-107619339D01*
X158578986Y-107638697D01*
X158581525Y-107658793D01*
X158581526Y-107658799D01*
X158598893Y-107702662D01*
X158600816Y-107708279D01*
X158613982Y-107753593D01*
X158624294Y-107771031D01*
X158632988Y-107788779D01*
X158640444Y-107807609D01*
X158640450Y-107807620D01*
X158668177Y-107845783D01*
X158671437Y-107850746D01*
X158695460Y-107891365D01*
X158709779Y-107905684D01*
X158722617Y-107920714D01*
X158732156Y-107933843D01*
X158734528Y-107937107D01*
X158762794Y-107960491D01*
X158770886Y-107967185D01*
X158775267Y-107971171D01*
X159267144Y-108463048D01*
X159752877Y-108948781D01*
X159786903Y-109011093D01*
X159789092Y-109024705D01*
X159806457Y-109189927D01*
X159836526Y-109282470D01*
X159865473Y-109371556D01*
X159865476Y-109371561D01*
X159960958Y-109536941D01*
X159960965Y-109536951D01*
X160088744Y-109678864D01*
X160088747Y-109678866D01*
X160243248Y-109791118D01*
X160417712Y-109868794D01*
X160604513Y-109908500D01*
X160795487Y-109908500D01*
X160982288Y-109868794D01*
X161156752Y-109791118D01*
X161311253Y-109678866D01*
X161439040Y-109536944D01*
X161534527Y-109371556D01*
X161593542Y-109189928D01*
X161613504Y-109000000D01*
X161593542Y-108810072D01*
X161534527Y-108628444D01*
X161439040Y-108463056D01*
X161439038Y-108463054D01*
X161439034Y-108463048D01*
X161311255Y-108321135D01*
X161156752Y-108208882D01*
X160982288Y-108131206D01*
X160795487Y-108091500D01*
X160739595Y-108091500D01*
X160671474Y-108071498D01*
X160650500Y-108054595D01*
X159870405Y-107274500D01*
X159836379Y-107212188D01*
X159833500Y-107185405D01*
X159833500Y-105378024D01*
X159853502Y-105309903D01*
X159865858Y-105293720D01*
X159939040Y-105212444D01*
X160034527Y-105047056D01*
X160093542Y-104865428D01*
X160113504Y-104675500D01*
X160093542Y-104485572D01*
X160034527Y-104303944D01*
X159939040Y-104138556D01*
X159939038Y-104138554D01*
X159939034Y-104138548D01*
X159811255Y-103996635D01*
X159656752Y-103884382D01*
X159482288Y-103806706D01*
X159295487Y-103767000D01*
X159104513Y-103767000D01*
X158917711Y-103806706D01*
X158743247Y-103884382D01*
X158588744Y-103996635D01*
X158460965Y-104138548D01*
X158460958Y-104138558D01*
X158365476Y-104303938D01*
X158365473Y-104303945D01*
X158306457Y-104485572D01*
X158286496Y-104675500D01*
X153095058Y-104675500D01*
X153113504Y-104500000D01*
X153093542Y-104310072D01*
X153034527Y-104128444D01*
X152939040Y-103963056D01*
X152939038Y-103963054D01*
X152939034Y-103963048D01*
X152811255Y-103821135D01*
X152656752Y-103708882D01*
X152482288Y-103631206D01*
X152295487Y-103591500D01*
X152104513Y-103591500D01*
X152104512Y-103591500D01*
X152053683Y-103602304D01*
X151982892Y-103596902D01*
X151926259Y-103554085D01*
X151902176Y-103492228D01*
X151893542Y-103410072D01*
X151834527Y-103228444D01*
X151772172Y-103120442D01*
X151755435Y-103051450D01*
X151778655Y-102984358D01*
X151792191Y-102968356D01*
X154715144Y-100045405D01*
X154777456Y-100011379D01*
X154804239Y-100008500D01*
X154895487Y-100008500D01*
X155082288Y-99968794D01*
X155256752Y-99891118D01*
X155411253Y-99778866D01*
X155467844Y-99716015D01*
X155539034Y-99636951D01*
X155539035Y-99636949D01*
X155539040Y-99636944D01*
X155634527Y-99471556D01*
X155693542Y-99289928D01*
X155713504Y-99100000D01*
X155695968Y-98933155D01*
X155708740Y-98863318D01*
X155757242Y-98811471D01*
X155826075Y-98794077D01*
X155893385Y-98816658D01*
X155910373Y-98830891D01*
X156552842Y-99473360D01*
X156586868Y-99535672D01*
X156589057Y-99575621D01*
X156586496Y-99599995D01*
X156586496Y-99599999D01*
X156606457Y-99789927D01*
X156617362Y-99823488D01*
X156665473Y-99971556D01*
X156675773Y-99989396D01*
X156760958Y-100136941D01*
X156760965Y-100136951D01*
X156888744Y-100278864D01*
X156888747Y-100278866D01*
X157043248Y-100391118D01*
X157195908Y-100459086D01*
X157218719Y-100472256D01*
X157224676Y-100476583D01*
X157224679Y-100476586D01*
X157224681Y-100476587D01*
X157231896Y-100480554D01*
X157251511Y-100493884D01*
X157257856Y-100499133D01*
X157310495Y-100523903D01*
X157313955Y-100525666D01*
X157364940Y-100553695D01*
X157372913Y-100555742D01*
X157395226Y-100563774D01*
X157402682Y-100567283D01*
X157459818Y-100578182D01*
X157463630Y-100579034D01*
X157503695Y-100589321D01*
X157519965Y-100593499D01*
X157519967Y-100593499D01*
X157519970Y-100593500D01*
X157528206Y-100593500D01*
X157551816Y-100595731D01*
X157559906Y-100597275D01*
X157617949Y-100593623D01*
X157621883Y-100593500D01*
X162185406Y-100593500D01*
X162253527Y-100613502D01*
X162274501Y-100630405D01*
X162429595Y-100785499D01*
X162463621Y-100847811D01*
X162466500Y-100874594D01*
X162466500Y-101797474D01*
X162446498Y-101865595D01*
X162434137Y-101881784D01*
X162360957Y-101963059D01*
X162265476Y-102128438D01*
X162265473Y-102128445D01*
X162206457Y-102310072D01*
X162186496Y-102500000D01*
X162206457Y-102689927D01*
X162232334Y-102769566D01*
X162265473Y-102871556D01*
X162265476Y-102871561D01*
X162360958Y-103036941D01*
X162360965Y-103036951D01*
X162488744Y-103178864D01*
X162488747Y-103178866D01*
X162643248Y-103291118D01*
X162817712Y-103368794D01*
X163004513Y-103408500D01*
X163195487Y-103408500D01*
X163382288Y-103368794D01*
X163556752Y-103291118D01*
X163711253Y-103178866D01*
X163803090Y-103076871D01*
X163839034Y-103036951D01*
X163839035Y-103036949D01*
X163839040Y-103036944D01*
X163934527Y-102871556D01*
X163993542Y-102689928D01*
X164013504Y-102500000D01*
X163993542Y-102310072D01*
X163934527Y-102128444D01*
X163861266Y-102001552D01*
X163839042Y-101963059D01*
X163839041Y-101963058D01*
X163839040Y-101963056D01*
X163765863Y-101881784D01*
X163735146Y-101817776D01*
X163733500Y-101797474D01*
X163733500Y-101319500D01*
X163753502Y-101251379D01*
X163807158Y-101204886D01*
X163859500Y-101193500D01*
X166428206Y-101193500D01*
X166451816Y-101195731D01*
X166459906Y-101197275D01*
X166517949Y-101193623D01*
X166521883Y-101193500D01*
X166539855Y-101193500D01*
X166539856Y-101193500D01*
X166557683Y-101191247D01*
X166561612Y-101190876D01*
X166619650Y-101187225D01*
X166627481Y-101184679D01*
X166650631Y-101179505D01*
X166658797Y-101178474D01*
X166712861Y-101157067D01*
X166716538Y-101155743D01*
X166771875Y-101137764D01*
X166778825Y-101133352D01*
X166799967Y-101122580D01*
X166807617Y-101119552D01*
X166854678Y-101085359D01*
X166857908Y-101083165D01*
X166907018Y-101052000D01*
X166912658Y-101045993D01*
X166930444Y-101030312D01*
X166937107Y-101025472D01*
X166974184Y-100980651D01*
X166976770Y-100977718D01*
X167016586Y-100935321D01*
X167020550Y-100928108D01*
X167033885Y-100908486D01*
X167039133Y-100902144D01*
X167063891Y-100849528D01*
X167065679Y-100846018D01*
X167093695Y-100795060D01*
X167095743Y-100787081D01*
X167103774Y-100764773D01*
X167107283Y-100757318D01*
X167118183Y-100700173D01*
X167119040Y-100696345D01*
X167133500Y-100640030D01*
X167133500Y-100631793D01*
X167135733Y-100608179D01*
X167137274Y-100600100D01*
X167137274Y-100600099D01*
X167137275Y-100600094D01*
X167133623Y-100542050D01*
X167133500Y-100538115D01*
X167133500Y-93627818D01*
X167153502Y-93559697D01*
X167207158Y-93513204D01*
X167208166Y-93512749D01*
X167256752Y-93491118D01*
X167411253Y-93378866D01*
X167414172Y-93375624D01*
X167539034Y-93236951D01*
X167539035Y-93236949D01*
X167539040Y-93236944D01*
X167634527Y-93071556D01*
X167693542Y-92889928D01*
X167713504Y-92700000D01*
X167693542Y-92510072D01*
X167634527Y-92328444D01*
X167539040Y-92163056D01*
X167539038Y-92163054D01*
X167539034Y-92163048D01*
X167411255Y-92021135D01*
X167256752Y-91908882D01*
X167082288Y-91831206D01*
X166895487Y-91791500D01*
X166704513Y-91791500D01*
X166517711Y-91831206D01*
X166343247Y-91908882D01*
X166188744Y-92021135D01*
X166060965Y-92163048D01*
X166060958Y-92163058D01*
X165965476Y-92328438D01*
X165965473Y-92328444D01*
X165959607Y-92346498D01*
X165906457Y-92510072D01*
X165886496Y-92700000D01*
X165893408Y-92765770D01*
X165886201Y-92813421D01*
X165889030Y-92814243D01*
X165886817Y-92821858D01*
X165879437Y-92868455D01*
X165878233Y-92874269D01*
X165866500Y-92919969D01*
X165866500Y-92940223D01*
X165864949Y-92959933D01*
X165861780Y-92979942D01*
X165861780Y-92979943D01*
X165866220Y-93026917D01*
X165866500Y-93032850D01*
X165866500Y-99800500D01*
X165846498Y-99868621D01*
X165792842Y-99915114D01*
X165740500Y-99926500D01*
X163414595Y-99926500D01*
X163346474Y-99906498D01*
X163325500Y-99889595D01*
X163007242Y-99571337D01*
X162997280Y-99558901D01*
X162997053Y-99559090D01*
X162992000Y-99552982D01*
X162940920Y-99505015D01*
X162919777Y-99483871D01*
X162919772Y-99483866D01*
X162914225Y-99479563D01*
X162909717Y-99475712D01*
X162875325Y-99443417D01*
X162875319Y-99443413D01*
X162857563Y-99433651D01*
X162841047Y-99422802D01*
X162825041Y-99410386D01*
X162794289Y-99397078D01*
X162781740Y-99391648D01*
X162776408Y-99389036D01*
X162735061Y-99366305D01*
X162715436Y-99361266D01*
X162696736Y-99354864D01*
X162678145Y-99346819D01*
X162678143Y-99346818D01*
X162678142Y-99346818D01*
X162631542Y-99339437D01*
X162625729Y-99338233D01*
X162580030Y-99326500D01*
X162559776Y-99326500D01*
X162540066Y-99324949D01*
X162520057Y-99321780D01*
X162520056Y-99321780D01*
X162473083Y-99326220D01*
X162467150Y-99326500D01*
X158457932Y-99326500D01*
X158389811Y-99306498D01*
X158343318Y-99252842D01*
X158338100Y-99239440D01*
X158337624Y-99237977D01*
X158334527Y-99228444D01*
X158306514Y-99179925D01*
X158264161Y-99106566D01*
X158239040Y-99063056D01*
X158239038Y-99063054D01*
X158239034Y-99063048D01*
X158111255Y-98921135D01*
X157956752Y-98808882D01*
X157876310Y-98773067D01*
X157782288Y-98731206D01*
X157782287Y-98731205D01*
X157782283Y-98731204D01*
X157590470Y-98690432D01*
X157527996Y-98656704D01*
X157527572Y-98656281D01*
X150088008Y-91216717D01*
X150078043Y-91204279D01*
X150077816Y-91204468D01*
X150072765Y-91198362D01*
X150072764Y-91198360D01*
X150021685Y-91150394D01*
X150000541Y-91129249D01*
X150000536Y-91129244D01*
X149994989Y-91124941D01*
X149990481Y-91121090D01*
X149956089Y-91088795D01*
X149956083Y-91088791D01*
X149938327Y-91079029D01*
X149921811Y-91068180D01*
X149905805Y-91055764D01*
X149875053Y-91042456D01*
X149862504Y-91037026D01*
X149857172Y-91034414D01*
X149815825Y-91011683D01*
X149796200Y-91006644D01*
X149777500Y-91000242D01*
X149772148Y-90997926D01*
X149758909Y-90992197D01*
X149758907Y-90992196D01*
X149758906Y-90992196D01*
X149712306Y-90984815D01*
X149706493Y-90983611D01*
X149660794Y-90971878D01*
X149650764Y-90971878D01*
X149582643Y-90951876D01*
X149536150Y-90898220D01*
X149525757Y-90861667D01*
X149523852Y-90846581D01*
X149506475Y-90802692D01*
X149504561Y-90797101D01*
X149491396Y-90751785D01*
X149481084Y-90734348D01*
X149472388Y-90716599D01*
X149464930Y-90697761D01*
X149437190Y-90659581D01*
X149433942Y-90654636D01*
X149409920Y-90614016D01*
X149395592Y-90599688D01*
X149382762Y-90584667D01*
X149370850Y-90568271D01*
X149370847Y-90568269D01*
X149370847Y-90568268D01*
X149334485Y-90538186D01*
X149330104Y-90534200D01*
X146469011Y-87673106D01*
X146434985Y-87610794D01*
X146440050Y-87539978D01*
X146482597Y-87483143D01*
X146549117Y-87458332D01*
X146558106Y-87458011D01*
X158091636Y-87458011D01*
X158107477Y-87459760D01*
X158107505Y-87459467D01*
X158115391Y-87460211D01*
X158115398Y-87460213D01*
X158185447Y-87458011D01*
X158215345Y-87458011D01*
X158222307Y-87457130D01*
X158228208Y-87456665D01*
X158275378Y-87455184D01*
X158294836Y-87449530D01*
X158314183Y-87445524D01*
X158334286Y-87442985D01*
X158378168Y-87425610D01*
X158383763Y-87423694D01*
X158412305Y-87415402D01*
X158429080Y-87410530D01*
X158429084Y-87410528D01*
X158446515Y-87400219D01*
X158464269Y-87391520D01*
X158483106Y-87384063D01*
X158521275Y-87356329D01*
X158526233Y-87353073D01*
X158566851Y-87329053D01*
X158581174Y-87314729D01*
X158596213Y-87301885D01*
X158612596Y-87289983D01*
X158642682Y-87253614D01*
X158646650Y-87249252D01*
X161990499Y-83905405D01*
X162052811Y-83871379D01*
X162079594Y-83868500D01*
X162095487Y-83868500D01*
X162282288Y-83828794D01*
X162456752Y-83751118D01*
X162611253Y-83638866D01*
X162683210Y-83558950D01*
X162739034Y-83496951D01*
X162739035Y-83496949D01*
X162739040Y-83496944D01*
X162834527Y-83331556D01*
X162893542Y-83149928D01*
X162913504Y-82960000D01*
X162893542Y-82770072D01*
X162834527Y-82588444D01*
X162739040Y-82423056D01*
X162739038Y-82423054D01*
X162739034Y-82423048D01*
X162611255Y-82281135D01*
X162456752Y-82168882D01*
X162282288Y-82091206D01*
X162095487Y-82051500D01*
X162039595Y-82051500D01*
X161971474Y-82031498D01*
X161950499Y-82014595D01*
X161570404Y-81634499D01*
X161536379Y-81572187D01*
X161533500Y-81545404D01*
X161533500Y-79560000D01*
X165586496Y-79560000D01*
X165606457Y-79749927D01*
X165625489Y-79808500D01*
X165665473Y-79931556D01*
X165665476Y-79931561D01*
X165760958Y-80096941D01*
X165760965Y-80096951D01*
X165888744Y-80238864D01*
X165888747Y-80238866D01*
X166043248Y-80351118D01*
X166217712Y-80428794D01*
X166404513Y-80468500D01*
X166595487Y-80468500D01*
X166782288Y-80428794D01*
X166956752Y-80351118D01*
X167111253Y-80238866D01*
X167114563Y-80235190D01*
X167175009Y-80197950D01*
X167208200Y-80193500D01*
X168685406Y-80193500D01*
X168753527Y-80213502D01*
X168774501Y-80230405D01*
X171804595Y-83260499D01*
X171838621Y-83322811D01*
X171841500Y-83349594D01*
X171841500Y-95787474D01*
X171821498Y-95855595D01*
X171809137Y-95871784D01*
X171735957Y-95953059D01*
X171640476Y-96118438D01*
X171640473Y-96118445D01*
X171581457Y-96300072D01*
X171561496Y-96490000D01*
X171581457Y-96679927D01*
X171604764Y-96751656D01*
X171640473Y-96861556D01*
X171640476Y-96861561D01*
X171735958Y-97026941D01*
X171735965Y-97026951D01*
X171863744Y-97168864D01*
X171863747Y-97168866D01*
X172018248Y-97281118D01*
X172192712Y-97358794D01*
X172379513Y-97398500D01*
X172570487Y-97398500D01*
X172757288Y-97358794D01*
X172931752Y-97281118D01*
X173086253Y-97168866D01*
X173122649Y-97128444D01*
X173214034Y-97026951D01*
X173214035Y-97026949D01*
X173214040Y-97026944D01*
X173309527Y-96861556D01*
X173368542Y-96679928D01*
X173388504Y-96490000D01*
X173368542Y-96300072D01*
X173309527Y-96118444D01*
X173220936Y-95965000D01*
X173214042Y-95953059D01*
X173214041Y-95953058D01*
X173214040Y-95953056D01*
X173140863Y-95871784D01*
X173110146Y-95807776D01*
X173108500Y-95787474D01*
X173108500Y-83118855D01*
X173110249Y-83103014D01*
X173109956Y-83102987D01*
X173110701Y-83095094D01*
X173110702Y-83095091D01*
X173108500Y-83025041D01*
X173108500Y-82995144D01*
X173107619Y-82988178D01*
X173107155Y-82982282D01*
X173105673Y-82935110D01*
X173100022Y-82915663D01*
X173096012Y-82896300D01*
X173093474Y-82876203D01*
X173076099Y-82832320D01*
X173074179Y-82826711D01*
X173061018Y-82781407D01*
X173050706Y-82763970D01*
X173042010Y-82746221D01*
X173034552Y-82727383D01*
X173006812Y-82689203D01*
X173003564Y-82684258D01*
X172979542Y-82643638D01*
X172965214Y-82629310D01*
X172952384Y-82614289D01*
X172940472Y-82597893D01*
X172940469Y-82597891D01*
X172940469Y-82597890D01*
X172904107Y-82567808D01*
X172899726Y-82563822D01*
X172395904Y-82060000D01*
X176986496Y-82060000D01*
X177006457Y-82249927D01*
X177031559Y-82327180D01*
X177065473Y-82431556D01*
X177065476Y-82431561D01*
X177160726Y-82596540D01*
X177160960Y-82596944D01*
X177234137Y-82678215D01*
X177264853Y-82742220D01*
X177266500Y-82762524D01*
X177266500Y-93116146D01*
X177264751Y-93131988D01*
X177265044Y-93132016D01*
X177264298Y-93139907D01*
X177266500Y-93209957D01*
X177266500Y-93239851D01*
X177266501Y-93239872D01*
X177267378Y-93246820D01*
X177267844Y-93252732D01*
X177269326Y-93299888D01*
X177269327Y-93299893D01*
X177274977Y-93319339D01*
X177278986Y-93338697D01*
X177281525Y-93358793D01*
X177281526Y-93358799D01*
X177298893Y-93402662D01*
X177300816Y-93408279D01*
X177313982Y-93453593D01*
X177324294Y-93471031D01*
X177332988Y-93488779D01*
X177340444Y-93507609D01*
X177340450Y-93507620D01*
X177368177Y-93545783D01*
X177371437Y-93550746D01*
X177395460Y-93591365D01*
X177409779Y-93605684D01*
X177422617Y-93620714D01*
X177427779Y-93627818D01*
X177434528Y-93637107D01*
X177454346Y-93653502D01*
X177470886Y-93667185D01*
X177475267Y-93671171D01*
X180263596Y-96459500D01*
X182958831Y-99154735D01*
X182989569Y-99204893D01*
X183040472Y-99361554D01*
X183040476Y-99361561D01*
X183135958Y-99526941D01*
X183135965Y-99526951D01*
X183263743Y-99668863D01*
X183263746Y-99668865D01*
X183263747Y-99668866D01*
X183328645Y-99716017D01*
X183363035Y-99753811D01*
X183368668Y-99763336D01*
X183370459Y-99766364D01*
X183384779Y-99780684D01*
X183397617Y-99795714D01*
X183401095Y-99800500D01*
X183409528Y-99812107D01*
X183437794Y-99835491D01*
X183445886Y-99842185D01*
X183450267Y-99846171D01*
X186614167Y-103010072D01*
X187652877Y-104048782D01*
X187686903Y-104111094D01*
X187689092Y-104124706D01*
X187706457Y-104289927D01*
X187711010Y-104303938D01*
X187765473Y-104471556D01*
X187765476Y-104471561D01*
X187860958Y-104636941D01*
X187860965Y-104636951D01*
X187988744Y-104778864D01*
X187988747Y-104778866D01*
X188143248Y-104891118D01*
X188317712Y-104968794D01*
X188504513Y-105008500D01*
X188695487Y-105008500D01*
X188882288Y-104968794D01*
X189056752Y-104891118D01*
X189211253Y-104778866D01*
X189279791Y-104702747D01*
X189339034Y-104636951D01*
X189339035Y-104636949D01*
X189339040Y-104636944D01*
X189434527Y-104471556D01*
X189493542Y-104289928D01*
X189513504Y-104100000D01*
X189493542Y-103910072D01*
X189434527Y-103728444D01*
X189339040Y-103563056D01*
X189339038Y-103563054D01*
X189339034Y-103563048D01*
X189211255Y-103421135D01*
X189056752Y-103308882D01*
X188882288Y-103231206D01*
X188695487Y-103191500D01*
X188639594Y-103191500D01*
X188571473Y-103171498D01*
X188550499Y-103154595D01*
X184775880Y-99379975D01*
X184741854Y-99317663D01*
X184745141Y-99251945D01*
X184768542Y-99179928D01*
X184788504Y-98990000D01*
X184768542Y-98800072D01*
X184709527Y-98618444D01*
X184614040Y-98453056D01*
X184614038Y-98453054D01*
X184614034Y-98453048D01*
X184486255Y-98311135D01*
X184331752Y-98198882D01*
X184157288Y-98121206D01*
X183970487Y-98081500D01*
X183779513Y-98081500D01*
X183779512Y-98081500D01*
X183762214Y-98085176D01*
X183691423Y-98079771D01*
X183646927Y-98051023D01*
X178570405Y-92974500D01*
X178536379Y-92912188D01*
X178533500Y-92885405D01*
X178533500Y-83893594D01*
X178553502Y-83825473D01*
X178607158Y-83778980D01*
X178677432Y-83768876D01*
X178742012Y-83798370D01*
X178748595Y-83804499D01*
X185032753Y-90088657D01*
X185042720Y-90101097D01*
X185042947Y-90100910D01*
X185047999Y-90107017D01*
X185048000Y-90107018D01*
X185099095Y-90154999D01*
X185120231Y-90176135D01*
X185125770Y-90180431D01*
X185130282Y-90184285D01*
X185164678Y-90216585D01*
X185164682Y-90216588D01*
X185182430Y-90226345D01*
X185198957Y-90237201D01*
X185214960Y-90249614D01*
X185258259Y-90268351D01*
X185263585Y-90270960D01*
X185304935Y-90293693D01*
X185304938Y-90293694D01*
X185304940Y-90293695D01*
X185324562Y-90298733D01*
X185343263Y-90305135D01*
X185355814Y-90310567D01*
X185361852Y-90313180D01*
X185361853Y-90313180D01*
X185361855Y-90313181D01*
X185408477Y-90320564D01*
X185414262Y-90321763D01*
X185459970Y-90333500D01*
X185480224Y-90333500D01*
X185499934Y-90335051D01*
X185502141Y-90335400D01*
X185519943Y-90338220D01*
X185553870Y-90335012D01*
X185566917Y-90333780D01*
X185572850Y-90333500D01*
X189791800Y-90333500D01*
X189859921Y-90353502D01*
X189885437Y-90375190D01*
X189888747Y-90378866D01*
X190043248Y-90491118D01*
X190217712Y-90568794D01*
X190404513Y-90608500D01*
X190595487Y-90608500D01*
X190782288Y-90568794D01*
X190956752Y-90491118D01*
X191111253Y-90378866D01*
X191152101Y-90333500D01*
X191239034Y-90236951D01*
X191239035Y-90236949D01*
X191239040Y-90236944D01*
X191334527Y-90071556D01*
X191393542Y-89889928D01*
X191413504Y-89700000D01*
X191393542Y-89510072D01*
X191334527Y-89328444D01*
X191239040Y-89163056D01*
X191239038Y-89163054D01*
X191239034Y-89163048D01*
X191111255Y-89021135D01*
X190956752Y-88908882D01*
X190782288Y-88831206D01*
X190595487Y-88791500D01*
X190404513Y-88791500D01*
X190217711Y-88831206D01*
X190043247Y-88908882D01*
X189888747Y-89021133D01*
X189885437Y-89024810D01*
X189824991Y-89062050D01*
X189791800Y-89066500D01*
X185854594Y-89066500D01*
X185786473Y-89046498D01*
X185765499Y-89029595D01*
X181735905Y-85000000D01*
X185086496Y-85000000D01*
X185106457Y-85189927D01*
X185124625Y-85245841D01*
X185165473Y-85371556D01*
X185165476Y-85371561D01*
X185260958Y-85536941D01*
X185260965Y-85536951D01*
X185388744Y-85678864D01*
X185388747Y-85678866D01*
X185543248Y-85791118D01*
X185717712Y-85868794D01*
X185904513Y-85908500D01*
X186095487Y-85908500D01*
X186282288Y-85868794D01*
X186456752Y-85791118D01*
X186611253Y-85678866D01*
X186633188Y-85654505D01*
X186739034Y-85536951D01*
X186739035Y-85536949D01*
X186739040Y-85536944D01*
X186834527Y-85371556D01*
X186893542Y-85189928D01*
X186913504Y-85000000D01*
X186893542Y-84810072D01*
X186834527Y-84628444D01*
X186739040Y-84463056D01*
X186665863Y-84381784D01*
X186635146Y-84317776D01*
X186633500Y-84297474D01*
X186633500Y-83502524D01*
X186653502Y-83434403D01*
X186665858Y-83418220D01*
X186739040Y-83336944D01*
X186834527Y-83171556D01*
X186893542Y-82989928D01*
X186913504Y-82800000D01*
X186893542Y-82610072D01*
X186834527Y-82428444D01*
X186739040Y-82263056D01*
X186739038Y-82263054D01*
X186739034Y-82263048D01*
X186611255Y-82121135D01*
X186456752Y-82008882D01*
X186282288Y-81931206D01*
X186095487Y-81891500D01*
X185904513Y-81891500D01*
X185717711Y-81931206D01*
X185543247Y-82008882D01*
X185388744Y-82121135D01*
X185260965Y-82263048D01*
X185260958Y-82263058D01*
X185165476Y-82428438D01*
X185165473Y-82428444D01*
X185162712Y-82436941D01*
X185106457Y-82610072D01*
X185086496Y-82800000D01*
X185106457Y-82989927D01*
X185117867Y-83025041D01*
X185165473Y-83171556D01*
X185165476Y-83171561D01*
X185247372Y-83313410D01*
X185260960Y-83336944D01*
X185334137Y-83418215D01*
X185364853Y-83482220D01*
X185366500Y-83502524D01*
X185366500Y-84297474D01*
X185346498Y-84365595D01*
X185334137Y-84381784D01*
X185260957Y-84463059D01*
X185165476Y-84628438D01*
X185165473Y-84628445D01*
X185106457Y-84810072D01*
X185086496Y-85000000D01*
X181735905Y-85000000D01*
X178847121Y-82111216D01*
X178813095Y-82048904D01*
X178810908Y-82035306D01*
X178793542Y-81870072D01*
X178734527Y-81688444D01*
X178639040Y-81523056D01*
X178639038Y-81523054D01*
X178639034Y-81523048D01*
X178511255Y-81381135D01*
X178356752Y-81268882D01*
X178182288Y-81191206D01*
X177995487Y-81151500D01*
X177804513Y-81151500D01*
X177617711Y-81191206D01*
X177443247Y-81268882D01*
X177288744Y-81381135D01*
X177160965Y-81523048D01*
X177160958Y-81523058D01*
X177065476Y-81688438D01*
X177065473Y-81688445D01*
X177006457Y-81870072D01*
X176986496Y-82060000D01*
X172395904Y-82060000D01*
X169507244Y-79171339D01*
X169497279Y-79158901D01*
X169497052Y-79159090D01*
X169492001Y-79152984D01*
X169492000Y-79152982D01*
X169440921Y-79105016D01*
X169419777Y-79083871D01*
X169419772Y-79083866D01*
X169414225Y-79079563D01*
X169409717Y-79075712D01*
X169375325Y-79043417D01*
X169375319Y-79043413D01*
X169357563Y-79033651D01*
X169341047Y-79022802D01*
X169325041Y-79010386D01*
X169294289Y-78997078D01*
X169281740Y-78991648D01*
X169276408Y-78989036D01*
X169235061Y-78966305D01*
X169215436Y-78961266D01*
X169196736Y-78954864D01*
X169178145Y-78946819D01*
X169178143Y-78946818D01*
X169178142Y-78946818D01*
X169131542Y-78939437D01*
X169125729Y-78938233D01*
X169080030Y-78926500D01*
X169059776Y-78926500D01*
X169040066Y-78924949D01*
X169020057Y-78921780D01*
X169020056Y-78921780D01*
X168973083Y-78926220D01*
X168967150Y-78926500D01*
X167208200Y-78926500D01*
X167140079Y-78906498D01*
X167114563Y-78884810D01*
X167111252Y-78881133D01*
X166956752Y-78768882D01*
X166782288Y-78691206D01*
X166595487Y-78651500D01*
X166404513Y-78651500D01*
X166217711Y-78691206D01*
X166043247Y-78768882D01*
X165888744Y-78881135D01*
X165760965Y-79023048D01*
X165760958Y-79023058D01*
X165665476Y-79188438D01*
X165665473Y-79188445D01*
X165606457Y-79370072D01*
X165586496Y-79560000D01*
X161533500Y-79560000D01*
X161533500Y-75778024D01*
X161553502Y-75709903D01*
X161565858Y-75693720D01*
X161639040Y-75612444D01*
X161734527Y-75447056D01*
X161793542Y-75265428D01*
X161813504Y-75075500D01*
X161793542Y-74885572D01*
X161734527Y-74703944D01*
X161639040Y-74538556D01*
X161639038Y-74538554D01*
X161639034Y-74538548D01*
X161511255Y-74396635D01*
X161356752Y-74284382D01*
X161182288Y-74206706D01*
X160995487Y-74167000D01*
X160814897Y-74167000D01*
X160746776Y-74146998D01*
X160700283Y-74093342D01*
X160690179Y-74023068D01*
X160719673Y-73958488D01*
X160721233Y-73956719D01*
X160739040Y-73936944D01*
X160834527Y-73771556D01*
X160893542Y-73589928D01*
X160910907Y-73424703D01*
X160937920Y-73359048D01*
X160947113Y-73348789D01*
X161688657Y-72607245D01*
X161701092Y-72597284D01*
X161700905Y-72597057D01*
X161707009Y-72592005D01*
X161707018Y-72592000D01*
X161754999Y-72540904D01*
X161776135Y-72519769D01*
X161780437Y-72514221D01*
X161784267Y-72509735D01*
X161816586Y-72475321D01*
X161826345Y-72457567D01*
X161837204Y-72441038D01*
X161849614Y-72425040D01*
X161868354Y-72381732D01*
X161870965Y-72376404D01*
X161893694Y-72335061D01*
X161893695Y-72335060D01*
X161898733Y-72315435D01*
X161905138Y-72296730D01*
X161913181Y-72278145D01*
X161920561Y-72231547D01*
X161921762Y-72225740D01*
X161933500Y-72180030D01*
X161933500Y-72159775D01*
X161935051Y-72140063D01*
X161938220Y-72120057D01*
X161935629Y-72092651D01*
X161933780Y-72073080D01*
X161933500Y-72067148D01*
X161933500Y-70602524D01*
X161953502Y-70534403D01*
X161965858Y-70518220D01*
X162039040Y-70436944D01*
X162134527Y-70271556D01*
X162193542Y-70089928D01*
X162213504Y-69900000D01*
X162193542Y-69710072D01*
X162134527Y-69528444D01*
X162039040Y-69363056D01*
X162039038Y-69363054D01*
X162039034Y-69363048D01*
X161911255Y-69221135D01*
X161756752Y-69108882D01*
X161582288Y-69031206D01*
X161395487Y-68991500D01*
X161204513Y-68991500D01*
X161017711Y-69031206D01*
X160843247Y-69108882D01*
X160688744Y-69221135D01*
X160560965Y-69363048D01*
X160560958Y-69363058D01*
X160465476Y-69528438D01*
X160465473Y-69528445D01*
X160406457Y-69710072D01*
X160386496Y-69900000D01*
X160406457Y-70089927D01*
X160436526Y-70182470D01*
X160465473Y-70271556D01*
X160560960Y-70436944D01*
X160634137Y-70518215D01*
X160664853Y-70582220D01*
X160666500Y-70602524D01*
X160666500Y-71785405D01*
X160646498Y-71853526D01*
X160629595Y-71874500D01*
X160049500Y-72454595D01*
X159987188Y-72488621D01*
X159960405Y-72491500D01*
X159904513Y-72491500D01*
X159717711Y-72531206D01*
X159543247Y-72608882D01*
X159388744Y-72721135D01*
X159260965Y-72863048D01*
X159260958Y-72863058D01*
X159165476Y-73028438D01*
X159165473Y-73028445D01*
X159106457Y-73210072D01*
X159086496Y-73400000D01*
X159106457Y-73589927D01*
X159136526Y-73682470D01*
X159165473Y-73771556D01*
X159165476Y-73771561D01*
X159260958Y-73936941D01*
X159260965Y-73936951D01*
X159388744Y-74078864D01*
X159388747Y-74078866D01*
X159543248Y-74191118D01*
X159717712Y-74268794D01*
X159904513Y-74308500D01*
X160085103Y-74308500D01*
X160153224Y-74328502D01*
X160199717Y-74382158D01*
X160209821Y-74452432D01*
X160180327Y-74517012D01*
X160178766Y-74518780D01*
X160171563Y-74526779D01*
X160160961Y-74538554D01*
X160160958Y-74538558D01*
X160065476Y-74703938D01*
X160065473Y-74703945D01*
X160006457Y-74885572D01*
X159986496Y-75075500D01*
X160006457Y-75265427D01*
X160020577Y-75308882D01*
X160065473Y-75447056D01*
X160160960Y-75612444D01*
X160234137Y-75693715D01*
X160264853Y-75757720D01*
X160266500Y-75778024D01*
X160266500Y-81776146D01*
X160264751Y-81791988D01*
X160265044Y-81792016D01*
X160264298Y-81799907D01*
X160266500Y-81869957D01*
X160266500Y-81899851D01*
X160266501Y-81899872D01*
X160267378Y-81906820D01*
X160267844Y-81912732D01*
X160269326Y-81959888D01*
X160269327Y-81959893D01*
X160274977Y-81979339D01*
X160278986Y-81998698D01*
X160281524Y-82018793D01*
X160298894Y-82062663D01*
X160300818Y-82068281D01*
X160313982Y-82113594D01*
X160324294Y-82131032D01*
X160332988Y-82148778D01*
X160340446Y-82167614D01*
X160340450Y-82167620D01*
X160368177Y-82205783D01*
X160371437Y-82210746D01*
X160391061Y-82243927D01*
X160394609Y-82249927D01*
X160395460Y-82251365D01*
X160409779Y-82265684D01*
X160422617Y-82280714D01*
X160434526Y-82297104D01*
X160434530Y-82297109D01*
X160470880Y-82327180D01*
X160475273Y-82331177D01*
X161034999Y-82890904D01*
X161069025Y-82953216D01*
X161063960Y-83024031D01*
X161034999Y-83069094D01*
X157949989Y-86154106D01*
X157887677Y-86188131D01*
X157860894Y-86191011D01*
X150009082Y-86191011D01*
X149940961Y-86171009D01*
X149894468Y-86117353D01*
X149884364Y-86047079D01*
X149913858Y-85982499D01*
X149919972Y-85975930D01*
X150013172Y-85882730D01*
X150025603Y-85872773D01*
X150025416Y-85872546D01*
X150031520Y-85867494D01*
X150031529Y-85867489D01*
X150079510Y-85816393D01*
X150100645Y-85795259D01*
X150104940Y-85789721D01*
X150108782Y-85785220D01*
X150141097Y-85750810D01*
X150150856Y-85733056D01*
X150161708Y-85716535D01*
X150174124Y-85700530D01*
X150192858Y-85657237D01*
X150195472Y-85651901D01*
X150218205Y-85610550D01*
X150218206Y-85610549D01*
X150223244Y-85590924D01*
X150229649Y-85572219D01*
X150237692Y-85553634D01*
X150245072Y-85507036D01*
X150246273Y-85501229D01*
X150258011Y-85455519D01*
X150258011Y-85435264D01*
X150259562Y-85415552D01*
X150262731Y-85395546D01*
X150259660Y-85363056D01*
X150258291Y-85348569D01*
X150258011Y-85342637D01*
X150258011Y-79508364D01*
X150259760Y-79492522D01*
X150259467Y-79492495D01*
X150260213Y-79484602D01*
X150258011Y-79414539D01*
X150258011Y-79384661D01*
X150258011Y-79384655D01*
X150257131Y-79377693D01*
X150256667Y-79371804D01*
X150255185Y-79324622D01*
X150249528Y-79305153D01*
X150245523Y-79285809D01*
X150242985Y-79265714D01*
X150225611Y-79221833D01*
X150223692Y-79216227D01*
X150210529Y-79170918D01*
X150200217Y-79153481D01*
X150191521Y-79135732D01*
X150184063Y-79116894D01*
X150156323Y-79078714D01*
X150153075Y-79073769D01*
X150129053Y-79033149D01*
X150114725Y-79018821D01*
X150101895Y-79003800D01*
X150089983Y-78987404D01*
X150089980Y-78987402D01*
X150089980Y-78987401D01*
X150053624Y-78957324D01*
X150049232Y-78953328D01*
X149507241Y-78411336D01*
X149497280Y-78398901D01*
X149497053Y-78399090D01*
X149492000Y-78392982D01*
X149440920Y-78345015D01*
X149419777Y-78323871D01*
X149419772Y-78323866D01*
X149414225Y-78319563D01*
X149409717Y-78315712D01*
X149375325Y-78283417D01*
X149375319Y-78283413D01*
X149357563Y-78273651D01*
X149341047Y-78262802D01*
X149325041Y-78250386D01*
X149294289Y-78237078D01*
X149281740Y-78231648D01*
X149276408Y-78229036D01*
X149235061Y-78206305D01*
X149215436Y-78201266D01*
X149196736Y-78194864D01*
X149178145Y-78186819D01*
X149178143Y-78186818D01*
X149178142Y-78186818D01*
X149131542Y-78179437D01*
X149125729Y-78178233D01*
X149080030Y-78166500D01*
X149059776Y-78166500D01*
X149040066Y-78164949D01*
X149020057Y-78161780D01*
X149020056Y-78161780D01*
X148973083Y-78166220D01*
X148967150Y-78166500D01*
X148776996Y-78166500D01*
X148708875Y-78146498D01*
X148702935Y-78142436D01*
X148656752Y-78108882D01*
X148482288Y-78031206D01*
X148295487Y-77991500D01*
X148104513Y-77991500D01*
X147917711Y-78031206D01*
X147743247Y-78108882D01*
X147588744Y-78221135D01*
X147460965Y-78363048D01*
X147460958Y-78363058D01*
X147365476Y-78528438D01*
X147365473Y-78528445D01*
X147306457Y-78710072D01*
X147286496Y-78900000D01*
X147306457Y-79089927D01*
X147327108Y-79153481D01*
X147365473Y-79271556D01*
X147365476Y-79271561D01*
X147460958Y-79436941D01*
X147460965Y-79436951D01*
X147588744Y-79578864D01*
X147588747Y-79578866D01*
X147743248Y-79691118D01*
X147917712Y-79768794D01*
X148104513Y-79808500D01*
X148295487Y-79808500D01*
X148482288Y-79768794D01*
X148656752Y-79691118D01*
X148765725Y-79611943D01*
X148832593Y-79588086D01*
X148901744Y-79604166D01*
X148928881Y-79624785D01*
X148954106Y-79650010D01*
X148988132Y-79712322D01*
X148991011Y-79739105D01*
X148991011Y-82190917D01*
X148971009Y-82259038D01*
X148917353Y-82305531D01*
X148847079Y-82315635D01*
X148782499Y-82286141D01*
X148775916Y-82280012D01*
X148208946Y-81713042D01*
X148178208Y-81662882D01*
X148134530Y-81528451D01*
X148134526Y-81528442D01*
X148039041Y-81363058D01*
X148039034Y-81363048D01*
X147911255Y-81221135D01*
X147756752Y-81108882D01*
X147582288Y-81031206D01*
X147395487Y-80991500D01*
X147204513Y-80991500D01*
X147017711Y-81031206D01*
X146843247Y-81108882D01*
X146688744Y-81221135D01*
X146560965Y-81363048D01*
X146560958Y-81363058D01*
X146465476Y-81528438D01*
X146465473Y-81528444D01*
X146451260Y-81572187D01*
X146406457Y-81710072D01*
X146386496Y-81900000D01*
X146406457Y-82089927D01*
X146431700Y-82167614D01*
X146465473Y-82271556D01*
X146473894Y-82286141D01*
X146560958Y-82436941D01*
X146560965Y-82436951D01*
X146688744Y-82578864D01*
X146731698Y-82610072D01*
X146843248Y-82691118D01*
X147017712Y-82768794D01*
X147204513Y-82808500D01*
X147395486Y-82808500D01*
X147395487Y-82808500D01*
X147425148Y-82802195D01*
X147495939Y-82807596D01*
X147540441Y-82836346D01*
X147955193Y-83251098D01*
X147989219Y-83313410D01*
X147991408Y-83353361D01*
X147986507Y-83399998D01*
X148006468Y-83589927D01*
X148022369Y-83638864D01*
X148065484Y-83771556D01*
X148065487Y-83771561D01*
X148160969Y-83936941D01*
X148160976Y-83936951D01*
X148288755Y-84078864D01*
X148350010Y-84123368D01*
X148443259Y-84191118D01*
X148617723Y-84268794D01*
X148804524Y-84308500D01*
X148865011Y-84308500D01*
X148933132Y-84328502D01*
X148979625Y-84382158D01*
X148991011Y-84434500D01*
X148991011Y-85060894D01*
X148971009Y-85129015D01*
X148954106Y-85149989D01*
X148949500Y-85154595D01*
X148887188Y-85188621D01*
X148860405Y-85191500D01*
X148804513Y-85191500D01*
X148617711Y-85231206D01*
X148443247Y-85308882D01*
X148288744Y-85421135D01*
X148160965Y-85563048D01*
X148160958Y-85563058D01*
X148065476Y-85728438D01*
X148065473Y-85728444D01*
X148050999Y-85772986D01*
X148006457Y-85910072D01*
X147988789Y-86078181D01*
X147961776Y-86143838D01*
X147903554Y-86184468D01*
X147863479Y-86191011D01*
X146643396Y-86191011D01*
X146575275Y-86171009D01*
X146534277Y-86128011D01*
X146439041Y-85963058D01*
X146439034Y-85963048D01*
X146311255Y-85821135D01*
X146156752Y-85708882D01*
X145982288Y-85631206D01*
X145795487Y-85591500D01*
X145604513Y-85591500D01*
X145417711Y-85631206D01*
X145243247Y-85708882D01*
X145088744Y-85821135D01*
X144960965Y-85963048D01*
X144960958Y-85963058D01*
X144865476Y-86128438D01*
X144865473Y-86128445D01*
X144806457Y-86310072D01*
X144786496Y-86500000D01*
X144806457Y-86689927D01*
X144835356Y-86778866D01*
X144865473Y-86871556D01*
X144865476Y-86871561D01*
X144946950Y-87012679D01*
X144960960Y-87036944D01*
X145034137Y-87118215D01*
X145064853Y-87182220D01*
X145066500Y-87202524D01*
X145066500Y-87716146D01*
X145064751Y-87731988D01*
X145065044Y-87732016D01*
X145064298Y-87739907D01*
X145066500Y-87809957D01*
X145066500Y-87839851D01*
X145066501Y-87839872D01*
X145067378Y-87846820D01*
X145067844Y-87852732D01*
X145069326Y-87899888D01*
X145069327Y-87899893D01*
X145074977Y-87919339D01*
X145078986Y-87938697D01*
X145081525Y-87958793D01*
X145081526Y-87958799D01*
X145098893Y-88002662D01*
X145100816Y-88008279D01*
X145113982Y-88053593D01*
X145124294Y-88071031D01*
X145132988Y-88088779D01*
X145140444Y-88107609D01*
X145140450Y-88107620D01*
X145168177Y-88145783D01*
X145171437Y-88150746D01*
X145195460Y-88191365D01*
X145209779Y-88205684D01*
X145222617Y-88220714D01*
X145232156Y-88233843D01*
X145234528Y-88237107D01*
X145262794Y-88260491D01*
X145270886Y-88267185D01*
X145275267Y-88271171D01*
X147373002Y-90368907D01*
X148063635Y-91059540D01*
X148097661Y-91121852D01*
X148092596Y-91192668D01*
X148083662Y-91211630D01*
X148070852Y-91233818D01*
X148070848Y-91233827D01*
X148011835Y-91415449D01*
X147991874Y-91605378D01*
X148011835Y-91795305D01*
X148025902Y-91838597D01*
X148070851Y-91976934D01*
X148070854Y-91976939D01*
X148166336Y-92142319D01*
X148166343Y-92142329D01*
X148178824Y-92156190D01*
X148209542Y-92220197D01*
X148200777Y-92290651D01*
X148155314Y-92345182D01*
X148087587Y-92366477D01*
X148085188Y-92366500D01*
X147914594Y-92366500D01*
X147846473Y-92346498D01*
X147825499Y-92329595D01*
X147327110Y-91831206D01*
X146784820Y-91288915D01*
X146750796Y-91226606D01*
X146748609Y-91213010D01*
X146731243Y-91047773D01*
X146672228Y-90866145D01*
X146576741Y-90700757D01*
X146576739Y-90700755D01*
X146576735Y-90700749D01*
X146448956Y-90558836D01*
X146294453Y-90446583D01*
X146119989Y-90368907D01*
X145933188Y-90329201D01*
X145742214Y-90329201D01*
X145555412Y-90368907D01*
X145380948Y-90446583D01*
X145226445Y-90558836D01*
X145098666Y-90700749D01*
X145098659Y-90700759D01*
X145014471Y-90846578D01*
X145003174Y-90866145D01*
X144999804Y-90876516D01*
X144944158Y-91047773D01*
X144924197Y-91237701D01*
X144944158Y-91427628D01*
X144974227Y-91520171D01*
X145003174Y-91609257D01*
X145003177Y-91609262D01*
X145098659Y-91774642D01*
X145098666Y-91774652D01*
X145226445Y-91916565D01*
X145226448Y-91916567D01*
X145380949Y-92028819D01*
X145555413Y-92106495D01*
X145742214Y-92146201D01*
X145798107Y-92146201D01*
X145866228Y-92166203D01*
X145887202Y-92183106D01*
X147092753Y-93388657D01*
X147102720Y-93401097D01*
X147102947Y-93400910D01*
X147107999Y-93407017D01*
X147159095Y-93454999D01*
X147180225Y-93476130D01*
X147185768Y-93480430D01*
X147190281Y-93484285D01*
X147224679Y-93516586D01*
X147224680Y-93516586D01*
X147224682Y-93516588D01*
X147242429Y-93526344D01*
X147258959Y-93537202D01*
X147274959Y-93549613D01*
X147306136Y-93563104D01*
X147318251Y-93568347D01*
X147323585Y-93570959D01*
X147364940Y-93593695D01*
X147384562Y-93598733D01*
X147403263Y-93605135D01*
X147415814Y-93610567D01*
X147421852Y-93613180D01*
X147421853Y-93613180D01*
X147421855Y-93613181D01*
X147468477Y-93620564D01*
X147474262Y-93621763D01*
X147519970Y-93633500D01*
X147540224Y-93633500D01*
X147559934Y-93635051D01*
X147562141Y-93635400D01*
X147579943Y-93638220D01*
X147613870Y-93635012D01*
X147626917Y-93633780D01*
X147632850Y-93633500D01*
X147739193Y-93633500D01*
X147807314Y-93653502D01*
X147853807Y-93707158D01*
X147863911Y-93777432D01*
X147859026Y-93798437D01*
X147818756Y-93922371D01*
X147798795Y-94112299D01*
X147818756Y-94302226D01*
X147845392Y-94384201D01*
X147877772Y-94483855D01*
X147899337Y-94521207D01*
X147973257Y-94649240D01*
X147973264Y-94649250D01*
X148101043Y-94791163D01*
X148101046Y-94791165D01*
X148255547Y-94903417D01*
X148430011Y-94981093D01*
X148616812Y-95020799D01*
X148672705Y-95020799D01*
X148740826Y-95040801D01*
X148761800Y-95057704D01*
X149254106Y-95550010D01*
X149288132Y-95612322D01*
X149291011Y-95639105D01*
X149291011Y-96465500D01*
X149271009Y-96533621D01*
X149217353Y-96580114D01*
X149165011Y-96591500D01*
X149104513Y-96591500D01*
X148917711Y-96631206D01*
X148743247Y-96708882D01*
X148588744Y-96821135D01*
X148460965Y-96963048D01*
X148460958Y-96963058D01*
X148365476Y-97128438D01*
X148365473Y-97128445D01*
X148306457Y-97310072D01*
X148286496Y-97500000D01*
X148306457Y-97689927D01*
X148365474Y-97871559D01*
X148391222Y-97916155D01*
X148407960Y-97985151D01*
X148384739Y-98052242D01*
X148371199Y-98068250D01*
X148240234Y-98199217D01*
X148177922Y-98233242D01*
X148151138Y-98236122D01*
X148059891Y-98236122D01*
X147873089Y-98275828D01*
X147698625Y-98353504D01*
X147544122Y-98465757D01*
X147416343Y-98607670D01*
X147416336Y-98607680D01*
X147320854Y-98773060D01*
X147320851Y-98773067D01*
X147261835Y-98954694D01*
X147241874Y-99144622D01*
X147261835Y-99334549D01*
X147280388Y-99391648D01*
X147320851Y-99516178D01*
X147320854Y-99516183D01*
X147416336Y-99681563D01*
X147416343Y-99681573D01*
X147544122Y-99823486D01*
X147544125Y-99823488D01*
X147698626Y-99935740D01*
X147873090Y-100013416D01*
X148059891Y-100053122D01*
X148250865Y-100053122D01*
X148437666Y-100013416D01*
X148612130Y-99935740D01*
X148766631Y-99823488D01*
X148776877Y-99812109D01*
X148894412Y-99681573D01*
X148894413Y-99681571D01*
X148894418Y-99681566D01*
X148989905Y-99516178D01*
X149045178Y-99346065D01*
X149085252Y-99287461D01*
X149150649Y-99259824D01*
X149220605Y-99271931D01*
X149272911Y-99319937D01*
X149291011Y-99385003D01*
X149291011Y-101116746D01*
X149271009Y-101184867D01*
X149217353Y-101231360D01*
X149216351Y-101231811D01*
X149122145Y-101273754D01*
X149043247Y-101308882D01*
X148888749Y-101421132D01*
X148888748Y-101421132D01*
X148829043Y-101487441D01*
X148768597Y-101524679D01*
X148709211Y-101526376D01*
X148701227Y-101524679D01*
X148535748Y-101489505D01*
X148344774Y-101489505D01*
X148157972Y-101529211D01*
X147983508Y-101606887D01*
X147829005Y-101719140D01*
X147701226Y-101861053D01*
X147701219Y-101861063D01*
X147605737Y-102026443D01*
X147605734Y-102026450D01*
X147546718Y-102208077D01*
X147526757Y-102398005D01*
X147546718Y-102587932D01*
X147574789Y-102674323D01*
X147605734Y-102769561D01*
X147605737Y-102769566D01*
X147701219Y-102934946D01*
X147701226Y-102934956D01*
X147829005Y-103076869D01*
X147829008Y-103076871D01*
X147983509Y-103189123D01*
X148117408Y-103248738D01*
X148120026Y-103249904D01*
X148174122Y-103295884D01*
X148194771Y-103363812D01*
X148175419Y-103432120D01*
X148122208Y-103479121D01*
X148068777Y-103491011D01*
X144936521Y-103491011D01*
X144868400Y-103471009D01*
X144821907Y-103417353D01*
X144811211Y-103378181D01*
X144793542Y-103210072D01*
X144790269Y-103199999D01*
X144734527Y-103028444D01*
X144639040Y-102863056D01*
X144639038Y-102863054D01*
X144639034Y-102863048D01*
X144511256Y-102721136D01*
X144511254Y-102721135D01*
X144460927Y-102684569D01*
X144417574Y-102628347D01*
X144408989Y-102582634D01*
X144408989Y-94728918D01*
X144428991Y-94660797D01*
X144482647Y-94614304D01*
X144508786Y-94605672D01*
X144682288Y-94568794D01*
X144856752Y-94491118D01*
X145011253Y-94378866D01*
X145060971Y-94323649D01*
X145139034Y-94236951D01*
X145139035Y-94236949D01*
X145139040Y-94236944D01*
X145234527Y-94071556D01*
X145293542Y-93889928D01*
X145313504Y-93700000D01*
X145293542Y-93510072D01*
X145234527Y-93328444D01*
X145139040Y-93163056D01*
X145139038Y-93163054D01*
X145139034Y-93163048D01*
X145011255Y-93021135D01*
X144856752Y-92908882D01*
X144682288Y-92831206D01*
X144495487Y-92791500D01*
X144304513Y-92791500D01*
X144304511Y-92791500D01*
X144188413Y-92816177D01*
X144117623Y-92810775D01*
X144060990Y-92767958D01*
X144036776Y-92704784D01*
X144033780Y-92673078D01*
X144033500Y-92667148D01*
X144033500Y-89602524D01*
X144053502Y-89534403D01*
X144065858Y-89518220D01*
X144139040Y-89436944D01*
X144234527Y-89271556D01*
X144293542Y-89089928D01*
X144313504Y-88900000D01*
X144293542Y-88710072D01*
X144234527Y-88528444D01*
X144139040Y-88363056D01*
X144139038Y-88363054D01*
X144139034Y-88363048D01*
X144011255Y-88221135D01*
X143856752Y-88108882D01*
X143682288Y-88031206D01*
X143495487Y-87991500D01*
X143304513Y-87991500D01*
X143117711Y-88031206D01*
X142943247Y-88108882D01*
X142788744Y-88221135D01*
X142660965Y-88363048D01*
X142660958Y-88363058D01*
X142565476Y-88528438D01*
X142565473Y-88528445D01*
X142506457Y-88710072D01*
X142486496Y-88900000D01*
X142506457Y-89089927D01*
X142536526Y-89182470D01*
X142565473Y-89271556D01*
X142660960Y-89436944D01*
X142734137Y-89518215D01*
X142764853Y-89582220D01*
X142766500Y-89602524D01*
X142766500Y-92276291D01*
X142746498Y-92344412D01*
X142692842Y-92390905D01*
X142666697Y-92399538D01*
X142517711Y-92431206D01*
X142343247Y-92508882D01*
X142188744Y-92621135D01*
X142056541Y-92767963D01*
X142055472Y-92767000D01*
X142005207Y-92805757D01*
X141934470Y-92811828D01*
X141871681Y-92778692D01*
X141836773Y-92716870D01*
X141833500Y-92688339D01*
X141833500Y-87080800D01*
X141853502Y-87012679D01*
X141907158Y-86966186D01*
X141977432Y-86956082D01*
X142010751Y-86965694D01*
X142017712Y-86968794D01*
X142204513Y-87008500D01*
X142395487Y-87008500D01*
X142582288Y-86968794D01*
X142756752Y-86891118D01*
X142911253Y-86778866D01*
X142914563Y-86775190D01*
X142975009Y-86737950D01*
X143008200Y-86733500D01*
X143365649Y-86733500D01*
X143381490Y-86735249D01*
X143381518Y-86734956D01*
X143389404Y-86735700D01*
X143389411Y-86735702D01*
X143459460Y-86733500D01*
X143489358Y-86733500D01*
X143496320Y-86732619D01*
X143502221Y-86732154D01*
X143549391Y-86730673D01*
X143568849Y-86725019D01*
X143588196Y-86721013D01*
X143608299Y-86718474D01*
X143652181Y-86701099D01*
X143657776Y-86699183D01*
X143689640Y-86689927D01*
X143703093Y-86686019D01*
X143703097Y-86686017D01*
X143720528Y-86675708D01*
X143738282Y-86667009D01*
X143757119Y-86659552D01*
X143795288Y-86631818D01*
X143800246Y-86628562D01*
X143840864Y-86604542D01*
X143855187Y-86590218D01*
X143870226Y-86577374D01*
X143886609Y-86565472D01*
X143916695Y-86529103D01*
X143920663Y-86524741D01*
X145688657Y-84756747D01*
X145701092Y-84746786D01*
X145700905Y-84746559D01*
X145707009Y-84741507D01*
X145707018Y-84741502D01*
X145754999Y-84690406D01*
X145776134Y-84669272D01*
X145780429Y-84663734D01*
X145784271Y-84659233D01*
X145816586Y-84624823D01*
X145826345Y-84607069D01*
X145837197Y-84590548D01*
X145849613Y-84574543D01*
X145868347Y-84531250D01*
X145870961Y-84525914D01*
X145893694Y-84484563D01*
X145893695Y-84484562D01*
X145898733Y-84464937D01*
X145905138Y-84446232D01*
X145910215Y-84434500D01*
X145913181Y-84427647D01*
X145920563Y-84381027D01*
X145921761Y-84375246D01*
X145933500Y-84329532D01*
X145933500Y-84309271D01*
X145935051Y-84289560D01*
X145938219Y-84269558D01*
X145933780Y-84222591D01*
X145933500Y-84216659D01*
X145933500Y-76802524D01*
X145953502Y-76734403D01*
X145965858Y-76718220D01*
X146039040Y-76636944D01*
X146134527Y-76471556D01*
X146193542Y-76289928D01*
X146213504Y-76100000D01*
X146193542Y-75910072D01*
X146134527Y-75728444D01*
X146039040Y-75563056D01*
X146039038Y-75563054D01*
X146039034Y-75563048D01*
X145911255Y-75421135D01*
X145756752Y-75308882D01*
X145582288Y-75231206D01*
X145395487Y-75191500D01*
X145204513Y-75191500D01*
X145017711Y-75231206D01*
X144843247Y-75308882D01*
X144688744Y-75421135D01*
X144560965Y-75563048D01*
X144560958Y-75563058D01*
X144465476Y-75728438D01*
X144465473Y-75728445D01*
X144406457Y-75910072D01*
X144386496Y-76100000D01*
X144406457Y-76289927D01*
X144433423Y-76372918D01*
X144465473Y-76471556D01*
X144560960Y-76636944D01*
X144634137Y-76718215D01*
X144664853Y-76782220D01*
X144666500Y-76802524D01*
X144666500Y-80847752D01*
X144646498Y-80915873D01*
X144592842Y-80962366D01*
X144522568Y-80972470D01*
X144514305Y-80970999D01*
X144495490Y-80967000D01*
X144495487Y-80967000D01*
X144304513Y-80967000D01*
X144117707Y-81006707D01*
X144098197Y-81015393D01*
X144027830Y-81024826D01*
X143963534Y-80994717D01*
X143925722Y-80934627D01*
X143920952Y-80900285D01*
X143920952Y-80806463D01*
X143921492Y-80798231D01*
X143926202Y-80762452D01*
X143926202Y-80762451D01*
X143920952Y-80722573D01*
X143920952Y-80722572D01*
X143920952Y-80722567D01*
X143905290Y-80603602D01*
X143844764Y-80457479D01*
X143844117Y-80455762D01*
X143843977Y-80455579D01*
X143843976Y-80455577D01*
X143843976Y-80455576D01*
X143770930Y-80360381D01*
X143770926Y-80360377D01*
X143763821Y-80351118D01*
X143746438Y-80328464D01*
X143717798Y-80306487D01*
X143711605Y-80301056D01*
X139825409Y-76414860D01*
X139791383Y-76352548D01*
X139788504Y-76325765D01*
X139788504Y-76325001D01*
X139768542Y-76135072D01*
X139757146Y-76100000D01*
X139709527Y-75953444D01*
X139614040Y-75788056D01*
X139614038Y-75788054D01*
X139614034Y-75788048D01*
X139486255Y-75646135D01*
X139331752Y-75533882D01*
X139157288Y-75456206D01*
X138970487Y-75416500D01*
X138779513Y-75416500D01*
X138592711Y-75456206D01*
X138418247Y-75533882D01*
X138263744Y-75646135D01*
X138135965Y-75788048D01*
X138135958Y-75788058D01*
X138040476Y-75953438D01*
X138040473Y-75953445D01*
X137981457Y-76135072D01*
X137961496Y-76325000D01*
X137981457Y-76514927D01*
X138011526Y-76607470D01*
X138040473Y-76696556D01*
X138040476Y-76696561D01*
X138135958Y-76861941D01*
X138135965Y-76861951D01*
X138263744Y-77003864D01*
X138263747Y-77003866D01*
X138418248Y-77116118D01*
X138592712Y-77193794D01*
X138779513Y-77233500D01*
X138870761Y-77233500D01*
X138938882Y-77253502D01*
X138959856Y-77270405D01*
X142285928Y-80596477D01*
X142319954Y-80658789D01*
X142314889Y-80729604D01*
X142272342Y-80786440D01*
X142223031Y-80808818D01*
X142117715Y-80831204D01*
X141943247Y-80908882D01*
X141788744Y-81021135D01*
X141660965Y-81163048D01*
X141660958Y-81163058D01*
X141565476Y-81328438D01*
X141565473Y-81328445D01*
X141506457Y-81510072D01*
X141489092Y-81675292D01*
X141462079Y-81740949D01*
X141452877Y-81751216D01*
X139811335Y-83392758D01*
X139798900Y-83402722D01*
X139799088Y-83402949D01*
X139792979Y-83408002D01*
X139745017Y-83459078D01*
X139723860Y-83480234D01*
X139719560Y-83485777D01*
X139715713Y-83490280D01*
X139683417Y-83524674D01*
X139683411Y-83524683D01*
X139673651Y-83542435D01*
X139662803Y-83558950D01*
X139650386Y-83574958D01*
X139631645Y-83618264D01*
X139629034Y-83623594D01*
X139606305Y-83664939D01*
X139606303Y-83664944D01*
X139601267Y-83684559D01*
X139594864Y-83703262D01*
X139586819Y-83721852D01*
X139579437Y-83768456D01*
X139578233Y-83774268D01*
X139566500Y-83819968D01*
X139566500Y-83840223D01*
X139564949Y-83859933D01*
X139561780Y-83879942D01*
X139561780Y-83879943D01*
X139566220Y-83926917D01*
X139566500Y-83932850D01*
X139566500Y-85197474D01*
X139546498Y-85265595D01*
X139534137Y-85281784D01*
X139460957Y-85363059D01*
X139365476Y-85528438D01*
X139365473Y-85528445D01*
X139306457Y-85710072D01*
X139286496Y-85900000D01*
X139306457Y-86089927D01*
X139327311Y-86154106D01*
X139365473Y-86271556D01*
X139365476Y-86271561D01*
X139460958Y-86436941D01*
X139460965Y-86436951D01*
X139588744Y-86578864D01*
X139649999Y-86623368D01*
X139743248Y-86691118D01*
X139917712Y-86768794D01*
X140104513Y-86808500D01*
X140295491Y-86808500D01*
X140414302Y-86783245D01*
X140485093Y-86788646D01*
X140541726Y-86831462D01*
X140566220Y-86898100D01*
X140566500Y-86906491D01*
X140566500Y-102497474D01*
X140546498Y-102565595D01*
X140534137Y-102581784D01*
X140460957Y-102663059D01*
X140365476Y-102828438D01*
X140365473Y-102828444D01*
X140354229Y-102863048D01*
X140306457Y-103010072D01*
X140288717Y-103178864D01*
X140286496Y-103200000D01*
X140289486Y-103228444D01*
X140302455Y-103351841D01*
X140289683Y-103421679D01*
X140241181Y-103473526D01*
X140177145Y-103491011D01*
X130454239Y-103491011D01*
X130386118Y-103471009D01*
X130365144Y-103454106D01*
X129785044Y-102874006D01*
X129751018Y-102811694D01*
X129756083Y-102740879D01*
X129798630Y-102684043D01*
X129865150Y-102659232D01*
X129934524Y-102674323D01*
X129948198Y-102682974D01*
X129990266Y-102713538D01*
X130164730Y-102791214D01*
X130351531Y-102830920D01*
X130542505Y-102830920D01*
X130729306Y-102791214D01*
X130903770Y-102713538D01*
X131058271Y-102601286D01*
X131070295Y-102587932D01*
X131186052Y-102459371D01*
X131186053Y-102459369D01*
X131186058Y-102459364D01*
X131281545Y-102293976D01*
X131340560Y-102112348D01*
X131360522Y-101922420D01*
X131340560Y-101732492D01*
X131281545Y-101550864D01*
X131186058Y-101385476D01*
X131186056Y-101385474D01*
X131186052Y-101385468D01*
X131058273Y-101243555D01*
X130903770Y-101131302D01*
X130729306Y-101053626D01*
X130542505Y-101013920D01*
X130451257Y-101013920D01*
X130383136Y-100993918D01*
X130362162Y-100977015D01*
X128283796Y-98898649D01*
X129641500Y-98898649D01*
X129648009Y-98959196D01*
X129648011Y-98959204D01*
X129699110Y-99096202D01*
X129699112Y-99096207D01*
X129786738Y-99213261D01*
X129903792Y-99300887D01*
X129903794Y-99300888D01*
X129903796Y-99300889D01*
X129954865Y-99319937D01*
X130040795Y-99351988D01*
X130040803Y-99351990D01*
X130101350Y-99358499D01*
X130101355Y-99358499D01*
X130101362Y-99358500D01*
X130101368Y-99358500D01*
X131898632Y-99358500D01*
X131898638Y-99358500D01*
X131898645Y-99358499D01*
X131898649Y-99358499D01*
X131959196Y-99351990D01*
X131959199Y-99351989D01*
X131959201Y-99351989D01*
X132096204Y-99300889D01*
X132110848Y-99289927D01*
X132213261Y-99213261D01*
X132300886Y-99096208D01*
X132300885Y-99096208D01*
X132300889Y-99096204D01*
X132344999Y-98977939D01*
X132387545Y-98921107D01*
X132454066Y-98896296D01*
X132523440Y-98911388D01*
X132555753Y-98936635D01*
X132576529Y-98959204D01*
X132616762Y-99002908D01*
X132671331Y-99045381D01*
X132794424Y-99141189D01*
X132992426Y-99248342D01*
X132992427Y-99248342D01*
X132992428Y-99248343D01*
X133061138Y-99271931D01*
X133205365Y-99321444D01*
X133427431Y-99358500D01*
X133427435Y-99358500D01*
X133652565Y-99358500D01*
X133652569Y-99358500D01*
X133874635Y-99321444D01*
X134087574Y-99248342D01*
X134285576Y-99141189D01*
X134463240Y-99002906D01*
X134615722Y-98837268D01*
X134738860Y-98648791D01*
X134829296Y-98442616D01*
X134884564Y-98224368D01*
X134903156Y-98000000D01*
X134884564Y-97775632D01*
X134829296Y-97557384D01*
X134738860Y-97351209D01*
X134732140Y-97340924D01*
X134615724Y-97162734D01*
X134615720Y-97162729D01*
X134463237Y-96997091D01*
X134336745Y-96898638D01*
X134285576Y-96858811D01*
X134087574Y-96751658D01*
X134087572Y-96751657D01*
X134087571Y-96751656D01*
X133874639Y-96678557D01*
X133874630Y-96678555D01*
X133830476Y-96671187D01*
X133652569Y-96641500D01*
X133427431Y-96641500D01*
X133279211Y-96666233D01*
X133205369Y-96678555D01*
X133205360Y-96678557D01*
X132992428Y-96751656D01*
X132992426Y-96751658D01*
X132794426Y-96858810D01*
X132794424Y-96858811D01*
X132616762Y-96997091D01*
X132555754Y-97063363D01*
X132494901Y-97099933D01*
X132423936Y-97097798D01*
X132365391Y-97057636D01*
X132344999Y-97022057D01*
X132300889Y-96903797D01*
X132300887Y-96903792D01*
X132213261Y-96786738D01*
X132096207Y-96699112D01*
X132096202Y-96699110D01*
X131959204Y-96648011D01*
X131959196Y-96648009D01*
X131898649Y-96641500D01*
X131898638Y-96641500D01*
X130101362Y-96641500D01*
X130101350Y-96641500D01*
X130040803Y-96648009D01*
X130040795Y-96648011D01*
X129903797Y-96699110D01*
X129903792Y-96699112D01*
X129786738Y-96786738D01*
X129699112Y-96903792D01*
X129699110Y-96903797D01*
X129648011Y-97040795D01*
X129648009Y-97040803D01*
X129641500Y-97101350D01*
X129641500Y-98898649D01*
X128283796Y-98898649D01*
X127245405Y-97860258D01*
X127211379Y-97797946D01*
X127208500Y-97771163D01*
X127208500Y-94498649D01*
X129641500Y-94498649D01*
X129648009Y-94559196D01*
X129648011Y-94559204D01*
X129699110Y-94696202D01*
X129699112Y-94696207D01*
X129786738Y-94813261D01*
X129903792Y-94900887D01*
X129903794Y-94900888D01*
X129903796Y-94900889D01*
X129958900Y-94921442D01*
X130040795Y-94951988D01*
X130040803Y-94951990D01*
X130101350Y-94958499D01*
X130101355Y-94958499D01*
X130101362Y-94958500D01*
X130101368Y-94958500D01*
X131898632Y-94958500D01*
X131898638Y-94958500D01*
X131898645Y-94958499D01*
X131898649Y-94958499D01*
X131959196Y-94951990D01*
X131959199Y-94951989D01*
X131959201Y-94951989D01*
X132096204Y-94900889D01*
X132166399Y-94848342D01*
X132213261Y-94813261D01*
X132300886Y-94696208D01*
X132300885Y-94696208D01*
X132300889Y-94696204D01*
X132344999Y-94577939D01*
X132387545Y-94521107D01*
X132454066Y-94496296D01*
X132523440Y-94511388D01*
X132555753Y-94536635D01*
X132616760Y-94602906D01*
X132616762Y-94602908D01*
X132666345Y-94641500D01*
X132794424Y-94741189D01*
X132992426Y-94848342D01*
X132992427Y-94848342D01*
X132992428Y-94848343D01*
X133013084Y-94855434D01*
X133205365Y-94921444D01*
X133427431Y-94958500D01*
X133427435Y-94958500D01*
X133652565Y-94958500D01*
X133652569Y-94958500D01*
X133874635Y-94921444D01*
X134087574Y-94848342D01*
X134285576Y-94741189D01*
X134463240Y-94602906D01*
X134615722Y-94437268D01*
X134738860Y-94248791D01*
X134829296Y-94042616D01*
X134884564Y-93824368D01*
X134903156Y-93600000D01*
X134884564Y-93375632D01*
X134865383Y-93299888D01*
X134829297Y-93157387D01*
X134829296Y-93157386D01*
X134829296Y-93157384D01*
X134738860Y-92951209D01*
X134732140Y-92940924D01*
X134615724Y-92762734D01*
X134615720Y-92762729D01*
X134499570Y-92636559D01*
X134463240Y-92597094D01*
X134463239Y-92597093D01*
X134463237Y-92597091D01*
X134381382Y-92533381D01*
X134285576Y-92458811D01*
X134087574Y-92351658D01*
X134087572Y-92351657D01*
X134087571Y-92351656D01*
X133874639Y-92278557D01*
X133874630Y-92278555D01*
X133830476Y-92271187D01*
X133652569Y-92241500D01*
X133427431Y-92241500D01*
X133279211Y-92266233D01*
X133205369Y-92278555D01*
X133205360Y-92278557D01*
X132992428Y-92351656D01*
X132992426Y-92351658D01*
X132794426Y-92458810D01*
X132794424Y-92458811D01*
X132616762Y-92597091D01*
X132555754Y-92663363D01*
X132494901Y-92699933D01*
X132423936Y-92697798D01*
X132365391Y-92657636D01*
X132344999Y-92622057D01*
X132309301Y-92526350D01*
X132300889Y-92503796D01*
X132300888Y-92503794D01*
X132300887Y-92503792D01*
X132213261Y-92386738D01*
X132096207Y-92299112D01*
X132096202Y-92299110D01*
X131959204Y-92248011D01*
X131959196Y-92248009D01*
X131898649Y-92241500D01*
X131898638Y-92241500D01*
X130101362Y-92241500D01*
X130101350Y-92241500D01*
X130040803Y-92248009D01*
X130040795Y-92248011D01*
X129903797Y-92299110D01*
X129903792Y-92299112D01*
X129786738Y-92386738D01*
X129699112Y-92503792D01*
X129699110Y-92503797D01*
X129648011Y-92640795D01*
X129648009Y-92640803D01*
X129641500Y-92701350D01*
X129641500Y-94498649D01*
X127208500Y-94498649D01*
X127208500Y-92344010D01*
X127209040Y-92335778D01*
X127211273Y-92318811D01*
X127213750Y-92300000D01*
X127208500Y-92260122D01*
X127208500Y-92260115D01*
X127192838Y-92141150D01*
X127158964Y-92059371D01*
X127143126Y-92021133D01*
X127131525Y-91993125D01*
X127057163Y-91896216D01*
X127057154Y-91896205D01*
X127033988Y-91866013D01*
X127005346Y-91844035D01*
X126999153Y-91838604D01*
X126161390Y-91000841D01*
X126155963Y-90994653D01*
X126133987Y-90966013D01*
X126102074Y-90941525D01*
X126102072Y-90941523D01*
X126017354Y-90876516D01*
X126006882Y-90868480D01*
X126006874Y-90868475D01*
X125858851Y-90807162D01*
X125858843Y-90807161D01*
X125839456Y-90804608D01*
X125804050Y-90799947D01*
X125738041Y-90791257D01*
X125738020Y-90791255D01*
X125700002Y-90786250D01*
X125699999Y-90786250D01*
X125664219Y-90790960D01*
X125655988Y-90791500D01*
X121844012Y-90791500D01*
X121835781Y-90790960D01*
X121800001Y-90786250D01*
X121799997Y-90786250D01*
X121762273Y-90791216D01*
X121762254Y-90791218D01*
X121695949Y-90799947D01*
X121660543Y-90804608D01*
X121657990Y-90804944D01*
X121641150Y-90807161D01*
X121641147Y-90807162D01*
X121493125Y-90868475D01*
X121493122Y-90868477D01*
X121399339Y-90940440D01*
X121399311Y-90940460D01*
X121366012Y-90966012D01*
X121344035Y-90994653D01*
X121338600Y-91000850D01*
X120309854Y-92029596D01*
X120247544Y-92063620D01*
X120220761Y-92066500D01*
X119201350Y-92066500D01*
X119140803Y-92073009D01*
X119140795Y-92073011D01*
X119003797Y-92124110D01*
X119003792Y-92124112D01*
X118886738Y-92211738D01*
X118799112Y-92328792D01*
X118799110Y-92328797D01*
X118748011Y-92465795D01*
X118748009Y-92465803D01*
X118741500Y-92526350D01*
X118741500Y-94323649D01*
X118748009Y-94384196D01*
X118748011Y-94384204D01*
X118799110Y-94521202D01*
X118799112Y-94521207D01*
X118886738Y-94638261D01*
X119003791Y-94725886D01*
X119003792Y-94725886D01*
X119003796Y-94725889D01*
X119118810Y-94768787D01*
X119175642Y-94811332D01*
X119200453Y-94877852D01*
X119185362Y-94947226D01*
X119167475Y-94972179D01*
X119024280Y-95127729D01*
X119024275Y-95127734D01*
X118901141Y-95316206D01*
X118810703Y-95522386D01*
X118810702Y-95522387D01*
X118755437Y-95740624D01*
X118755436Y-95740630D01*
X118755436Y-95740632D01*
X118736844Y-95965000D01*
X110025500Y-95965000D01*
X110025500Y-54000006D01*
X110286411Y-54000006D01*
X110306752Y-54388167D01*
X110367561Y-54772097D01*
X110468168Y-55147568D01*
X110607463Y-55510443D01*
X110607467Y-55510451D01*
X110783938Y-55856795D01*
X110995637Y-56182785D01*
X110995649Y-56182802D01*
X111240253Y-56484862D01*
X111240267Y-56484877D01*
X111515122Y-56759732D01*
X111515137Y-56759746D01*
X111817197Y-57004350D01*
X111817214Y-57004362D01*
X112001185Y-57123833D01*
X112143205Y-57216062D01*
X112489547Y-57392532D01*
X112489551Y-57392533D01*
X112489556Y-57392536D01*
X112852431Y-57531831D01*
X112852436Y-57531832D01*
X112852438Y-57531833D01*
X113227901Y-57632438D01*
X113611824Y-57693246D01*
X113611826Y-57693246D01*
X113611832Y-57693247D01*
X113999994Y-57713589D01*
X114000000Y-57713589D01*
X114000006Y-57713589D01*
X114388167Y-57693247D01*
X114388171Y-57693246D01*
X114388176Y-57693246D01*
X114772099Y-57632438D01*
X115147562Y-57531833D01*
X115147565Y-57531831D01*
X115147568Y-57531831D01*
X115510443Y-57392536D01*
X115510444Y-57392535D01*
X115510453Y-57392532D01*
X115856795Y-57216062D01*
X116182793Y-57004357D01*
X116182802Y-57004350D01*
X116484862Y-56759746D01*
X116484867Y-56759740D01*
X116484876Y-56759734D01*
X116759734Y-56484876D01*
X116759740Y-56484867D01*
X116759746Y-56484862D01*
X117004350Y-56182802D01*
X117004351Y-56182799D01*
X117004357Y-56182793D01*
X117216062Y-55856795D01*
X117392532Y-55510453D01*
X117531833Y-55147562D01*
X117632438Y-54772099D01*
X117693246Y-54388176D01*
X117693246Y-54388171D01*
X117693247Y-54388167D01*
X117713589Y-54000006D01*
X117713589Y-53999993D01*
X117693247Y-53611832D01*
X117632438Y-53227902D01*
X117531831Y-52852431D01*
X117392536Y-52489556D01*
X117392532Y-52489548D01*
X117392532Y-52489547D01*
X117216062Y-52143206D01*
X117004357Y-51817207D01*
X117004354Y-51817203D01*
X117004352Y-51817200D01*
X116759746Y-51515137D01*
X116759732Y-51515122D01*
X116484877Y-51240267D01*
X116484862Y-51240253D01*
X116182802Y-50995649D01*
X116182785Y-50995637D01*
X115856795Y-50783938D01*
X115510451Y-50607467D01*
X115510443Y-50607463D01*
X115147568Y-50468168D01*
X114772097Y-50367561D01*
X114388167Y-50306752D01*
X114000006Y-50286411D01*
X113999994Y-50286411D01*
X113611832Y-50306752D01*
X113227902Y-50367561D01*
X112852431Y-50468168D01*
X112489556Y-50607463D01*
X112489548Y-50607467D01*
X112143205Y-50783938D01*
X111817203Y-50995645D01*
X111817200Y-50995647D01*
X111515137Y-51240253D01*
X111515122Y-51240267D01*
X111240267Y-51515122D01*
X111240253Y-51515137D01*
X110995647Y-51817200D01*
X110995645Y-51817203D01*
X110783938Y-52143205D01*
X110607467Y-52489548D01*
X110607463Y-52489556D01*
X110468168Y-52852431D01*
X110367561Y-53227902D01*
X110306752Y-53611832D01*
X110286411Y-53999993D01*
X110286411Y-54000006D01*
X110025500Y-54000006D01*
X110025500Y-50151500D01*
X110045502Y-50083379D01*
X110099158Y-50036886D01*
X110151500Y-50025500D01*
X191820483Y-50025500D01*
X191888604Y-50045502D01*
G37*
%TD.AperFunction*%
%TD*%
M02*
