%TF.GenerationSoftware,KiCad,Pcbnew,7.0.9*%
%TF.CreationDate,2024-10-15T17:16:27-06:00*%
%TF.ProjectId,i2c_mux,6932635f-6d75-4782-9e6b-696361645f70,rev?*%
%TF.SameCoordinates,Original*%
%TF.FileFunction,Copper,L1,Top*%
%TF.FilePolarity,Positive*%
%FSLAX46Y46*%
G04 Gerber Fmt 4.6, Leading zero omitted, Abs format (unit mm)*
G04 Created by KiCad (PCBNEW 7.0.9) date 2024-10-15 17:16:27*
%MOMM*%
%LPD*%
G01*
G04 APERTURE LIST*
G04 Aperture macros list*
%AMRoundRect*
0 Rectangle with rounded corners*
0 $1 Rounding radius*
0 $2 $3 $4 $5 $6 $7 $8 $9 X,Y pos of 4 corners*
0 Add a 4 corners polygon primitive as box body*
4,1,4,$2,$3,$4,$5,$6,$7,$8,$9,$2,$3,0*
0 Add four circle primitives for the rounded corners*
1,1,$1+$1,$2,$3*
1,1,$1+$1,$4,$5*
1,1,$1+$1,$6,$7*
1,1,$1+$1,$8,$9*
0 Add four rect primitives between the rounded corners*
20,1,$1+$1,$2,$3,$4,$5,0*
20,1,$1+$1,$4,$5,$6,$7,0*
20,1,$1+$1,$6,$7,$8,$9,0*
20,1,$1+$1,$8,$9,$2,$3,0*%
%AMFreePoly0*
4,1,19,0.500000,-0.750000,0.000000,-0.750000,0.000000,-0.744911,-0.071157,-0.744911,-0.207708,-0.704816,-0.327430,-0.627875,-0.420627,-0.520320,-0.479746,-0.390866,-0.500000,-0.250000,-0.500000,0.250000,-0.479746,0.390866,-0.420627,0.520320,-0.327430,0.627875,-0.207708,0.704816,-0.071157,0.744911,0.000000,0.744911,0.000000,0.750000,0.500000,0.750000,0.500000,-0.750000,0.500000,-0.750000,
$1*%
%AMFreePoly1*
4,1,19,0.000000,0.744911,0.071157,0.744911,0.207708,0.704816,0.327430,0.627875,0.420627,0.520320,0.479746,0.390866,0.500000,0.250000,0.500000,-0.250000,0.479746,-0.390866,0.420627,-0.520320,0.327430,-0.627875,0.207708,-0.704816,0.071157,-0.744911,0.000000,-0.744911,0.000000,-0.750000,-0.500000,-0.750000,-0.500000,0.750000,0.000000,0.750000,0.000000,0.744911,0.000000,0.744911,
$1*%
G04 Aperture macros list end*
%TA.AperFunction,SMDPad,CuDef*%
%ADD10RoundRect,0.237500X-0.237500X0.287500X-0.237500X-0.287500X0.237500X-0.287500X0.237500X0.287500X0*%
%TD*%
%TA.AperFunction,SMDPad,CuDef*%
%ADD11RoundRect,0.150000X-0.625000X0.150000X-0.625000X-0.150000X0.625000X-0.150000X0.625000X0.150000X0*%
%TD*%
%TA.AperFunction,SMDPad,CuDef*%
%ADD12RoundRect,0.250000X-0.650000X0.350000X-0.650000X-0.350000X0.650000X-0.350000X0.650000X0.350000X0*%
%TD*%
%TA.AperFunction,SMDPad,CuDef*%
%ADD13RoundRect,0.150000X0.625000X-0.150000X0.625000X0.150000X-0.625000X0.150000X-0.625000X-0.150000X0*%
%TD*%
%TA.AperFunction,SMDPad,CuDef*%
%ADD14RoundRect,0.250000X0.650000X-0.350000X0.650000X0.350000X-0.650000X0.350000X-0.650000X-0.350000X0*%
%TD*%
%TA.AperFunction,SMDPad,CuDef*%
%ADD15RoundRect,0.250001X-0.462499X-0.624999X0.462499X-0.624999X0.462499X0.624999X-0.462499X0.624999X0*%
%TD*%
%TA.AperFunction,SMDPad,CuDef*%
%ADD16RoundRect,0.250001X0.624999X-0.462499X0.624999X0.462499X-0.624999X0.462499X-0.624999X-0.462499X0*%
%TD*%
%TA.AperFunction,SMDPad,CuDef*%
%ADD17RoundRect,0.250000X0.925000X-0.412500X0.925000X0.412500X-0.925000X0.412500X-0.925000X-0.412500X0*%
%TD*%
%TA.AperFunction,ComponentPad*%
%ADD18C,1.240000*%
%TD*%
%TA.AperFunction,SMDPad,CuDef*%
%ADD19FreePoly0,180.000000*%
%TD*%
%TA.AperFunction,SMDPad,CuDef*%
%ADD20FreePoly1,180.000000*%
%TD*%
%TA.AperFunction,SMDPad,CuDef*%
%ADD21RoundRect,0.250001X0.462499X1.074999X-0.462499X1.074999X-0.462499X-1.074999X0.462499X-1.074999X0*%
%TD*%
%TA.AperFunction,ComponentPad*%
%ADD22R,1.800000X1.400000*%
%TD*%
%TA.AperFunction,ComponentPad*%
%ADD23O,1.800000X1.400000*%
%TD*%
%TA.AperFunction,SMDPad,CuDef*%
%ADD24R,0.900000X0.800000*%
%TD*%
%TA.AperFunction,SMDPad,CuDef*%
%ADD25RoundRect,0.237500X0.237500X-0.287500X0.237500X0.287500X-0.237500X0.287500X-0.237500X-0.287500X0*%
%TD*%
%TA.AperFunction,SMDPad,CuDef*%
%ADD26R,0.650000X1.060000*%
%TD*%
%TA.AperFunction,SMDPad,CuDef*%
%ADD27RoundRect,0.237500X0.287500X0.237500X-0.287500X0.237500X-0.287500X-0.237500X0.287500X-0.237500X0*%
%TD*%
%TA.AperFunction,SMDPad,CuDef*%
%ADD28RoundRect,0.237500X-0.287500X-0.237500X0.287500X-0.237500X0.287500X0.237500X-0.287500X0.237500X0*%
%TD*%
%TA.AperFunction,ComponentPad*%
%ADD29C,5.600000*%
%TD*%
%TA.AperFunction,SMDPad,CuDef*%
%ADD30RoundRect,0.135000X-0.135000X-0.185000X0.135000X-0.185000X0.135000X0.185000X-0.135000X0.185000X0*%
%TD*%
%TA.AperFunction,SMDPad,CuDef*%
%ADD31RoundRect,0.135000X0.135000X0.185000X-0.135000X0.185000X-0.135000X-0.185000X0.135000X-0.185000X0*%
%TD*%
%TA.AperFunction,SMDPad,CuDef*%
%ADD32RoundRect,0.135000X-0.185000X0.135000X-0.185000X-0.135000X0.185000X-0.135000X0.185000X0.135000X0*%
%TD*%
%TA.AperFunction,SMDPad,CuDef*%
%ADD33RoundRect,0.135000X0.185000X-0.135000X0.185000X0.135000X-0.185000X0.135000X-0.185000X-0.135000X0*%
%TD*%
%TA.AperFunction,SMDPad,CuDef*%
%ADD34RoundRect,0.150000X0.825000X0.150000X-0.825000X0.150000X-0.825000X-0.150000X0.825000X-0.150000X0*%
%TD*%
%TA.AperFunction,ComponentPad*%
%ADD35R,1.700000X1.700000*%
%TD*%
%TA.AperFunction,ComponentPad*%
%ADD36O,1.700000X1.700000*%
%TD*%
%TA.AperFunction,SMDPad,CuDef*%
%ADD37RoundRect,0.100000X-0.637500X-0.100000X0.637500X-0.100000X0.637500X0.100000X-0.637500X0.100000X0*%
%TD*%
%TA.AperFunction,ViaPad*%
%ADD38C,0.800000*%
%TD*%
%TA.AperFunction,Conductor*%
%ADD39C,0.250000*%
%TD*%
G04 APERTURE END LIST*
D10*
%TO.P,C1,1*%
%TO.N,GND*%
X108500000Y-72525000D03*
%TO.P,C1,2*%
%TO.N,VCC*%
X108500000Y-74275000D03*
%TD*%
D11*
%TO.P,J2,1,gnd*%
%TO.N,GND*%
X93100000Y-89242857D03*
%TO.P,J2,2,VCC*%
%TO.N,VCC*%
X93100000Y-90242857D03*
%TO.P,J2,3,SDA*%
%TO.N,Net-(J2-SDA)*%
X93100000Y-91242857D03*
%TO.P,J2,4,SCL*%
%TO.N,Net-(J2-SCL)*%
X93100000Y-92242857D03*
D12*
%TO.P,J2,MP*%
%TO.N,N/C*%
X89225000Y-87942857D03*
X89225000Y-93542857D03*
%TD*%
D11*
%TO.P,J4,1,gnd*%
%TO.N,GND*%
X93100000Y-80300000D03*
%TO.P,J4,2,VCC*%
%TO.N,VCC*%
X93100000Y-81300000D03*
%TO.P,J4,3,SDA*%
%TO.N,Net-(J4-SDA)*%
X93100000Y-82300000D03*
%TO.P,J4,4,SCL*%
%TO.N,Net-(J4-SCL)*%
X93100000Y-83300000D03*
D12*
%TO.P,J4,MP*%
%TO.N,N/C*%
X89225000Y-79000000D03*
X89225000Y-84600000D03*
%TD*%
D11*
%TO.P,J6,1,gnd*%
%TO.N,GND*%
X93100000Y-71357143D03*
%TO.P,J6,2,VCC*%
%TO.N,VCC*%
X93100000Y-72357143D03*
%TO.P,J6,3,SDA*%
%TO.N,Net-(J6-SDA)*%
X93100000Y-73357143D03*
%TO.P,J6,4,SCL*%
%TO.N,Net-(J6-SCL)*%
X93100000Y-74357143D03*
D12*
%TO.P,J6,MP*%
%TO.N,N/C*%
X89225000Y-70057143D03*
X89225000Y-75657143D03*
%TD*%
D11*
%TO.P,J8,1,gnd*%
%TO.N,GND*%
X93100000Y-62414286D03*
%TO.P,J8,2,VCC*%
%TO.N,VCC*%
X93100000Y-63414286D03*
%TO.P,J8,3,SDA*%
%TO.N,Net-(J8-SDA)*%
X93100000Y-64414286D03*
%TO.P,J8,4,SCL*%
%TO.N,Net-(J8-SCL)*%
X93100000Y-65414286D03*
D12*
%TO.P,J8,MP*%
%TO.N,N/C*%
X89225000Y-61114286D03*
X89225000Y-66714286D03*
%TD*%
D13*
%TO.P,J10,1,gnd*%
%TO.N,GNDPWR*%
X139100000Y-78450000D03*
%TO.P,J10,2,VCC*%
%TO.N,VD*%
X139100000Y-77450000D03*
%TO.P,J10,3,SDA*%
%TO.N,/Sheet626DA5AD/sda_in*%
X139100000Y-76450000D03*
%TO.P,J10,4,SCL*%
%TO.N,/Sheet626DA5AD/scl_in*%
X139100000Y-75450000D03*
D14*
%TO.P,J10,MP*%
%TO.N,N/C*%
X142975000Y-79750000D03*
X142975000Y-74150000D03*
%TD*%
D15*
%TO.P,C2,1*%
%TO.N,VD*%
X133112500Y-91950000D03*
%TO.P,C2,2*%
%TO.N,GNDPWR*%
X136087500Y-91950000D03*
%TD*%
D16*
%TO.P,C3,1*%
%TO.N,Net-(JP1-A)*%
X135700000Y-101437500D03*
%TO.P,C3,2*%
%TO.N,GND*%
X135700000Y-98462500D03*
%TD*%
D10*
%TO.P,C4,1*%
%TO.N,GND*%
X133500000Y-98475000D03*
%TO.P,C4,2*%
%TO.N,Net-(JP1-A)*%
X133500000Y-100225000D03*
%TD*%
D17*
%TO.P,C6,1*%
%TO.N,Net-(Q1-B)*%
X128400000Y-97287500D03*
%TO.P,C6,2*%
%TO.N,GND*%
X128400000Y-94212500D03*
%TD*%
D10*
%TO.P,C8,1*%
%TO.N,VCC*%
X119500000Y-98975000D03*
%TO.P,C8,2*%
%TO.N,GND*%
X119500000Y-100725000D03*
%TD*%
D18*
%TO.P,J11,1,In*%
%TO.N,VCC*%
X118800000Y-81600000D03*
%TO.P,J11,2,Ext*%
%TO.N,GND*%
X117530000Y-80330000D03*
X117530000Y-82870000D03*
X120070000Y-80330000D03*
X120070000Y-82870000D03*
%TD*%
D19*
%TO.P,JP1,1,A*%
%TO.N,Net-(JP1-A)*%
X127450000Y-103550000D03*
D20*
%TO.P,JP1,2,B*%
%TO.N,Net-(JP1-B)*%
X126150000Y-103550000D03*
%TD*%
D21*
%TO.P,L1,1,1*%
%TO.N,Net-(PS1-+Vin)*%
X135887500Y-95450000D03*
%TO.P,L1,2,2*%
%TO.N,VD*%
X132912500Y-95450000D03*
%TD*%
D22*
%TO.P,PS1,1,-Vin*%
%TO.N,GNDPWR*%
X138800000Y-93350000D03*
D23*
%TO.P,PS1,2,+Vin*%
%TO.N,Net-(PS1-+Vin)*%
X138800000Y-95890000D03*
%TO.P,PS1,3,0V*%
%TO.N,GND*%
X138800000Y-98430000D03*
%TO.P,PS1,4,+Vout*%
%TO.N,Net-(JP1-A)*%
X138800000Y-100970000D03*
%TD*%
D24*
%TO.P,Q1,1,B*%
%TO.N,Net-(Q1-B)*%
X125800000Y-99400000D03*
%TO.P,Q1,2,E*%
%TO.N,Net-(JP1-B)*%
X125800000Y-101300000D03*
%TO.P,Q1,3,C*%
%TO.N,Net-(JP1-A)*%
X127800000Y-100350000D03*
%TD*%
D25*
%TO.P,R21,1*%
%TO.N,Net-(JP1-A)*%
X129800000Y-101225000D03*
%TO.P,R21,2*%
%TO.N,Net-(Q1-B)*%
X129800000Y-99475000D03*
%TD*%
D26*
%TO.P,U2,1,IN*%
%TO.N,Net-(JP1-B)*%
X121460000Y-101160000D03*
%TO.P,U2,2,GND*%
%TO.N,GND*%
X122410000Y-101160000D03*
%TO.P,U2,3,EN*%
%TO.N,Net-(JP1-B)*%
X123360000Y-101160000D03*
%TO.P,U2,4,NC*%
%TO.N,unconnected-(U2-NC-Pad4)*%
X123360000Y-98960000D03*
%TO.P,U2,5,OUT*%
%TO.N,VCC*%
X121460000Y-98960000D03*
%TD*%
D27*
%TO.P,C7,1*%
%TO.N,Net-(JP1-B)*%
X123375000Y-103050000D03*
%TO.P,C7,2*%
%TO.N,GND*%
X121625000Y-103050000D03*
%TD*%
D28*
%TO.P,C9,1*%
%TO.N,VD*%
X133825000Y-79650000D03*
%TO.P,C9,2*%
%TO.N,GNDPWR*%
X135575000Y-79650000D03*
%TD*%
%TO.P,C11,1*%
%TO.N,GND*%
X127625000Y-79650000D03*
%TO.P,C11,2*%
%TO.N,VCC*%
X129375000Y-79650000D03*
%TD*%
D13*
%TO.P,J9,1,gnd*%
%TO.N,GNDPWR*%
X139200000Y-87450000D03*
%TO.P,J9,2,VCC*%
%TO.N,VD*%
X139200000Y-86450000D03*
%TO.P,J9,3,SDA*%
%TO.N,/Sheet626DA5AD/sda_in*%
X139200000Y-85450000D03*
%TO.P,J9,4,SCL*%
%TO.N,/Sheet626DA5AD/scl_in*%
X139200000Y-84450000D03*
D14*
%TO.P,J9,MP*%
%TO.N,N/C*%
X143075000Y-88750000D03*
X143075000Y-83150000D03*
%TD*%
D10*
%TO.P,C5,1*%
%TO.N,GND*%
X131600000Y-98450000D03*
%TO.P,C5,2*%
%TO.N,Net-(JP1-A)*%
X131600000Y-100200000D03*
%TD*%
D29*
%TO.P,H1,1*%
%TO.N,N/C*%
X105000000Y-65000000D03*
%TD*%
%TO.P,H2,1*%
%TO.N,N/C*%
X105000000Y-125000000D03*
%TD*%
D30*
%TO.P,R18,1*%
%TO.N,/Sheet626DA5AD/sda*%
X116080000Y-76400000D03*
%TO.P,R18,2*%
%TO.N,VCC*%
X117100000Y-76400000D03*
%TD*%
D31*
%TO.P,R19,1*%
%TO.N,/Sheet626DA5AD/scl_in*%
X137120000Y-72950000D03*
%TO.P,R19,2*%
%TO.N,VD*%
X136100000Y-72950000D03*
%TD*%
D32*
%TO.P,R14,1*%
%TO.N,Net-(J6-SCL)*%
X95500000Y-74600000D03*
%TO.P,R14,2*%
%TO.N,VCC*%
X95500000Y-75620000D03*
%TD*%
D29*
%TO.P,H4,1*%
%TO.N,N/C*%
X140000000Y-65000000D03*
%TD*%
D33*
%TO.P,R12,1*%
%TO.N,Net-(J6-SDA)*%
X96300000Y-73610000D03*
%TO.P,R12,2*%
%TO.N,VCC*%
X96300000Y-72590000D03*
%TD*%
D11*
%TO.P,J3,1,gnd*%
%TO.N,GND*%
X93100000Y-116071428D03*
%TO.P,J3,2,VCC*%
%TO.N,VCC*%
X93100000Y-117071428D03*
%TO.P,J3,3,SDA*%
%TO.N,Net-(J3-SDA)*%
X93100000Y-118071428D03*
%TO.P,J3,4,SCL*%
%TO.N,Net-(J3-SCL)*%
X93100000Y-119071428D03*
D12*
%TO.P,J3,MP*%
%TO.N,N/C*%
X89225000Y-114771428D03*
X89225000Y-120371428D03*
%TD*%
D34*
%TO.P,U3,1,VCC1*%
%TO.N,VD*%
X134075000Y-77755000D03*
%TO.P,U3,2,SDA1*%
%TO.N,/Sheet626DA5AD/sda_in*%
X134075000Y-76485000D03*
%TO.P,U3,3,SCL1*%
%TO.N,/Sheet626DA5AD/scl_in*%
X134075000Y-75215000D03*
%TO.P,U3,4,GND1*%
%TO.N,GNDPWR*%
X134075000Y-73945000D03*
%TO.P,U3,5,GND2*%
%TO.N,GND*%
X129125000Y-73945000D03*
%TO.P,U3,6,SCL2*%
%TO.N,/Sheet626DA5AD/scl*%
X129125000Y-75215000D03*
%TO.P,U3,7,SDA2*%
%TO.N,/Sheet626DA5AD/sda*%
X129125000Y-76485000D03*
%TO.P,U3,8,VCC2*%
%TO.N,VCC*%
X129125000Y-77755000D03*
%TD*%
D30*
%TO.P,R2,1*%
%TO.N,Net-(J1-SDA)*%
X95290000Y-128200000D03*
%TO.P,R2,2*%
%TO.N,VCC*%
X96310000Y-128200000D03*
%TD*%
D35*
%TO.P,J12,1,Pin_1*%
%TO.N,VCC*%
X120300000Y-64250000D03*
D36*
%TO.P,J12,2,Pin_2*%
%TO.N,Net-(J12-Pin_2)*%
X120300000Y-66790000D03*
%TO.P,J12,3,Pin_3*%
%TO.N,GND*%
X120300000Y-69330000D03*
%TD*%
D32*
%TO.P,R11,1*%
%TO.N,Net-(J7-SCL)*%
X96100000Y-99090000D03*
%TO.P,R11,2*%
%TO.N,VCC*%
X96100000Y-100110000D03*
%TD*%
D11*
%TO.P,J1,1,gnd*%
%TO.N,GND*%
X93100000Y-125014286D03*
%TO.P,J1,2,VCC*%
%TO.N,VCC*%
X93100000Y-126014286D03*
%TO.P,J1,3,SDA*%
%TO.N,Net-(J1-SDA)*%
X93100000Y-127014286D03*
%TO.P,J1,4,SCL*%
%TO.N,Net-(J1-SCL)*%
X93100000Y-128014286D03*
D12*
%TO.P,J1,MP*%
%TO.N,N/C*%
X89225000Y-123714286D03*
X89225000Y-129314286D03*
%TD*%
D32*
%TO.P,R20,1*%
%TO.N,/Sheet626DA5AD/sda_in*%
X136100000Y-76430000D03*
%TO.P,R20,2*%
%TO.N,VD*%
X136100000Y-77450000D03*
%TD*%
D30*
%TO.P,R16,1*%
%TO.N,Net-(J8-SDA)*%
X96590000Y-64900000D03*
%TO.P,R16,2*%
%TO.N,VCC*%
X97610000Y-64900000D03*
%TD*%
%TO.P,R17,1*%
%TO.N,/Sheet626DA5AD/scl*%
X116080000Y-77700000D03*
%TO.P,R17,2*%
%TO.N,VCC*%
X117100000Y-77700000D03*
%TD*%
D32*
%TO.P,R8,1*%
%TO.N,Net-(J4-SCL)*%
X95800000Y-83280000D03*
%TO.P,R8,2*%
%TO.N,VCC*%
X95800000Y-84300000D03*
%TD*%
D33*
%TO.P,R5,1*%
%TO.N,Net-(J3-SDA)*%
X96400000Y-115910000D03*
%TO.P,R5,2*%
%TO.N,VCC*%
X96400000Y-114890000D03*
%TD*%
%TO.P,R10,1*%
%TO.N,Net-(J4-SDA)*%
X96400000Y-82210000D03*
%TO.P,R10,2*%
%TO.N,VCC*%
X96400000Y-81190000D03*
%TD*%
D30*
%TO.P,R4,1*%
%TO.N,Net-(J2-SCL)*%
X98380000Y-91700000D03*
%TO.P,R4,2*%
%TO.N,VCC*%
X99400000Y-91700000D03*
%TD*%
D37*
%TO.P,U1,1,A0*%
%TO.N,Net-(J14-Pin_2)*%
X102537500Y-75825000D03*
%TO.P,U1,2,A1*%
%TO.N,Net-(J13-Pin_2)*%
X102537500Y-76475000D03*
%TO.P,U1,3,~{RESET}*%
%TO.N,VCC*%
X102537500Y-77125000D03*
%TO.P,U1,4,SD0*%
%TO.N,Net-(J8-SDA)*%
X102537500Y-77775000D03*
%TO.P,U1,5,SC0*%
%TO.N,Net-(J8-SCL)*%
X102537500Y-78425000D03*
%TO.P,U1,6,SD1*%
%TO.N,Net-(J6-SDA)*%
X102537500Y-79075000D03*
%TO.P,U1,7,SC1*%
%TO.N,Net-(J6-SCL)*%
X102537500Y-79725000D03*
%TO.P,U1,8,SD2*%
%TO.N,Net-(J4-SDA)*%
X102537500Y-80375000D03*
%TO.P,U1,9,SC2*%
%TO.N,Net-(J4-SCL)*%
X102537500Y-81025000D03*
%TO.P,U1,10,SD3*%
%TO.N,Net-(J2-SDA)*%
X102537500Y-81675000D03*
%TO.P,U1,11,SC3*%
%TO.N,Net-(J2-SCL)*%
X102537500Y-82325000D03*
%TO.P,U1,12,GND*%
%TO.N,GND*%
X102537500Y-82975000D03*
%TO.P,U1,13,SD4*%
%TO.N,Net-(J7-SDA)*%
X108262500Y-82975000D03*
%TO.P,U1,14,SC4*%
%TO.N,Net-(J7-SCL)*%
X108262500Y-82325000D03*
%TO.P,U1,15,SD5*%
%TO.N,Net-(J5-SDA)*%
X108262500Y-81675000D03*
%TO.P,U1,16,SC5*%
%TO.N,Net-(J5-SCL)*%
X108262500Y-81025000D03*
%TO.P,U1,17,SD6*%
%TO.N,Net-(J3-SDA)*%
X108262500Y-80375000D03*
%TO.P,U1,18,SC6*%
%TO.N,Net-(J3-SCL)*%
X108262500Y-79725000D03*
%TO.P,U1,19,SD7*%
%TO.N,Net-(J1-SDA)*%
X108262500Y-79075000D03*
%TO.P,U1,20,SC7*%
%TO.N,Net-(J1-SCL)*%
X108262500Y-78425000D03*
%TO.P,U1,21,A2*%
%TO.N,Net-(J12-Pin_2)*%
X108262500Y-77775000D03*
%TO.P,U1,22,SCL*%
%TO.N,/Sheet626DA5AD/scl*%
X108262500Y-77125000D03*
%TO.P,U1,23,SDA*%
%TO.N,/Sheet626DA5AD/sda*%
X108262500Y-76475000D03*
%TO.P,U1,24,VCC*%
%TO.N,VCC*%
X108262500Y-75825000D03*
%TD*%
D32*
%TO.P,R3,1*%
%TO.N,Net-(J3-SCL)*%
X96500000Y-119080000D03*
%TO.P,R3,2*%
%TO.N,VCC*%
X96500000Y-120100000D03*
%TD*%
%TO.P,R7,1*%
%TO.N,Net-(J5-SCL)*%
X95600000Y-110180000D03*
%TO.P,R7,2*%
%TO.N,VCC*%
X95600000Y-111200000D03*
%TD*%
D29*
%TO.P,H3,1*%
%TO.N,N/C*%
X140000000Y-125000000D03*
%TD*%
D33*
%TO.P,R9,1*%
%TO.N,Net-(J5-SDA)*%
X96400000Y-106810000D03*
%TO.P,R9,2*%
%TO.N,VCC*%
X96400000Y-105790000D03*
%TD*%
D30*
%TO.P,R1,1*%
%TO.N,Net-(J1-SCL)*%
X95290000Y-129400000D03*
%TO.P,R1,2*%
%TO.N,VCC*%
X96310000Y-129400000D03*
%TD*%
D35*
%TO.P,J13,1,Pin_1*%
%TO.N,VCC*%
X111000000Y-64250000D03*
D36*
%TO.P,J13,2,Pin_2*%
%TO.N,Net-(J13-Pin_2)*%
X111000000Y-66790000D03*
%TO.P,J13,3,Pin_3*%
%TO.N,GND*%
X111000000Y-69330000D03*
%TD*%
D35*
%TO.P,J14,1,Pin_1*%
%TO.N,VCC*%
X115650000Y-64250000D03*
D36*
%TO.P,J14,2,Pin_2*%
%TO.N,Net-(J14-Pin_2)*%
X115650000Y-66790000D03*
%TO.P,J14,3,Pin_3*%
%TO.N,GND*%
X115650000Y-69330000D03*
%TD*%
D33*
%TO.P,R13,1*%
%TO.N,Net-(J7-SDA)*%
X96600000Y-97210000D03*
%TO.P,R13,2*%
%TO.N,VCC*%
X96600000Y-96190000D03*
%TD*%
D30*
%TO.P,R6,1*%
%TO.N,Net-(J2-SDA)*%
X98390000Y-90500000D03*
%TO.P,R6,2*%
%TO.N,VCC*%
X99410000Y-90500000D03*
%TD*%
D11*
%TO.P,J5,1,gnd*%
%TO.N,GND*%
X93100000Y-107128571D03*
%TO.P,J5,2,VCC*%
%TO.N,VCC*%
X93100000Y-108128571D03*
%TO.P,J5,3,SDA*%
%TO.N,Net-(J5-SDA)*%
X93100000Y-109128571D03*
%TO.P,J5,4,SCL*%
%TO.N,Net-(J5-SCL)*%
X93100000Y-110128571D03*
D12*
%TO.P,J5,MP*%
%TO.N,N/C*%
X89225000Y-105828571D03*
X89225000Y-111428571D03*
%TD*%
D32*
%TO.P,R15,1*%
%TO.N,Net-(J8-SCL)*%
X96000000Y-67290000D03*
%TO.P,R15,2*%
%TO.N,VCC*%
X96000000Y-68310000D03*
%TD*%
D11*
%TO.P,J7,1,gnd*%
%TO.N,GND*%
X93100000Y-98185714D03*
%TO.P,J7,2,VCC*%
%TO.N,VCC*%
X93100000Y-99185714D03*
%TO.P,J7,3,SDA*%
%TO.N,Net-(J7-SDA)*%
X93100000Y-100185714D03*
%TO.P,J7,4,SCL*%
%TO.N,Net-(J7-SCL)*%
X93100000Y-101185714D03*
D12*
%TO.P,J7,MP*%
%TO.N,N/C*%
X89225000Y-96885714D03*
X89225000Y-102485714D03*
%TD*%
D38*
%TO.N,GND*%
X94700000Y-89300000D03*
X105400000Y-103400000D03*
X94500000Y-71400000D03*
X94700000Y-125000000D03*
X94700000Y-98200000D03*
X94700000Y-107100000D03*
X102800000Y-95800000D03*
X106750000Y-76000000D03*
X125850000Y-74700000D03*
X94700000Y-116100000D03*
X108500000Y-71300000D03*
X94500000Y-80300000D03*
X94500000Y-62500000D03*
%TO.N,GNDPWR*%
X136675000Y-79550000D03*
X136900000Y-87250000D03*
X140570000Y-71560000D03*
X136700000Y-73950000D03*
%TO.N,VD*%
X137400000Y-77450000D03*
X137500000Y-86450000D03*
%TO.N,/Sheet626DA5AD/scl_in*%
X141300000Y-76200000D03*
X139550000Y-81450000D03*
%TO.N,/Sheet626DA5AD/scl*%
X110800000Y-77224500D03*
X114700000Y-77600000D03*
%TO.N,/Sheet626DA5AD/sda*%
X109800000Y-76500000D03*
X114700000Y-76500000D03*
%TO.N,Net-(J1-SDA)*%
X96300000Y-127000000D03*
X91600000Y-127000000D03*
%TO.N,Net-(J2-SDA)*%
X96400000Y-89500000D03*
X98400000Y-89500000D03*
%TO.N,Net-(J12-Pin_2)*%
X105600000Y-77800000D03*
%TO.N,Net-(J13-Pin_2)*%
X102500000Y-72250000D03*
%TO.N,Net-(J14-Pin_2)*%
X104000000Y-72500000D03*
%TD*%
D39*
%TO.N,VCC*%
X109875000Y-74275000D02*
X108500000Y-74275000D01*
X110830000Y-73320000D02*
X129600000Y-73320000D01*
X91100000Y-122000000D02*
X91100000Y-126100000D01*
X91300000Y-63400000D02*
X91100000Y-63600000D01*
X129375000Y-79650000D02*
X129375000Y-78005000D01*
X91328571Y-108128571D02*
X91100000Y-107900000D01*
X95800000Y-84300000D02*
X93800000Y-86300000D01*
X91100000Y-99100000D02*
X91100000Y-104300000D01*
X93100000Y-81300000D02*
X96290000Y-81300000D01*
X96000000Y-68310000D02*
X91110000Y-68310000D01*
X104200000Y-76150361D02*
X104200000Y-75000000D01*
X91100000Y-117100000D02*
X91100000Y-122000000D01*
X118800000Y-81600000D02*
X117200000Y-81600000D01*
X104925000Y-74275000D02*
X107075000Y-74275000D01*
X93100000Y-81300000D02*
X91100000Y-81300000D01*
X96214286Y-63414286D02*
X107075000Y-74275000D01*
X96600000Y-96390000D02*
X96600000Y-94400000D01*
X96100000Y-100110000D02*
X96100000Y-102200000D01*
X90000000Y-126100000D02*
X90000000Y-127100000D01*
X109300000Y-75900000D02*
X108337500Y-75900000D01*
X93100000Y-99185714D02*
X91185714Y-99185714D01*
X96100000Y-130500000D02*
X96310000Y-130290000D01*
X96400000Y-105500000D02*
X95200000Y-104300000D01*
X95600000Y-111200000D02*
X93500000Y-113300000D01*
X96400000Y-105790000D02*
X96400000Y-105500000D01*
X129375000Y-79650000D02*
X129375000Y-89475000D01*
X93100000Y-63414286D02*
X96214286Y-63414286D01*
X121460000Y-98960000D02*
X119515000Y-98960000D01*
X129600000Y-69050000D02*
X129600000Y-73320000D01*
X91100000Y-126100000D02*
X90000000Y-126100000D01*
X91100000Y-86300000D02*
X91100000Y-90400000D01*
X119600000Y-98875000D02*
X119500000Y-98975000D01*
X96067143Y-72357143D02*
X96300000Y-72590000D01*
X91100000Y-72300000D02*
X91100000Y-77200000D01*
X91314286Y-63414286D02*
X91300000Y-63400000D01*
X91100000Y-104300000D02*
X91100000Y-107900000D01*
X108500000Y-74700000D02*
X109400000Y-75600000D01*
X109875000Y-74275000D02*
X110830000Y-73320000D01*
X96500000Y-94300000D02*
X91100000Y-94300000D01*
X102537500Y-77125000D02*
X103225361Y-77125000D01*
X117200000Y-81600000D02*
X115150000Y-79550000D01*
X115250000Y-79550000D02*
X115150000Y-79550000D01*
X117100000Y-76400000D02*
X117100000Y-77700000D01*
X93800000Y-86300000D02*
X91100000Y-86300000D01*
X115150000Y-79550000D02*
X109875000Y-74275000D01*
X99400000Y-91700000D02*
X96800000Y-94300000D01*
X129600000Y-73320000D02*
X130146751Y-73320000D01*
X93100000Y-90242857D02*
X91257143Y-90242857D01*
X91100000Y-77200000D02*
X91100000Y-81300000D01*
X96500000Y-120100000D02*
X94600000Y-122000000D01*
X109400000Y-75600000D02*
X109400000Y-75800000D01*
X93100000Y-117071428D02*
X91128572Y-117071428D01*
X130146751Y-73320000D02*
X130425000Y-73598249D01*
X96310000Y-130290000D02*
X96310000Y-129400000D01*
X94600000Y-122000000D02*
X91100000Y-122000000D01*
X120300000Y-64250000D02*
X124800000Y-64250000D01*
X91100000Y-68300000D02*
X91100000Y-72300000D01*
X91100000Y-126100000D02*
X93014286Y-126100000D01*
X129501751Y-77755000D02*
X129125000Y-77755000D01*
X93400000Y-130500000D02*
X96100000Y-130500000D01*
X129375000Y-78005000D02*
X129125000Y-77755000D01*
X121460000Y-97390000D02*
X121460000Y-98960000D01*
X109400000Y-75800000D02*
X109300000Y-75900000D01*
X94000000Y-104300000D02*
X91100000Y-104300000D01*
X96800000Y-94300000D02*
X96500000Y-94300000D01*
X130425000Y-73598249D02*
X130425000Y-76831751D01*
X93100000Y-72357143D02*
X91157143Y-72357143D01*
X104200000Y-75000000D02*
X104925000Y-74275000D01*
X99410000Y-90500000D02*
X99410000Y-91690000D01*
X93100000Y-108128571D02*
X91328571Y-108128571D01*
X91185714Y-99185714D02*
X91100000Y-99100000D01*
X117100000Y-77700000D02*
X115250000Y-79550000D01*
X96290000Y-81300000D02*
X96400000Y-81190000D01*
X94810000Y-113300000D02*
X93500000Y-113300000D01*
X103225361Y-77125000D02*
X104200000Y-76150361D01*
X96310000Y-129400000D02*
X96310000Y-128200000D01*
X93100000Y-72357143D02*
X96067143Y-72357143D01*
X96600000Y-94400000D02*
X96500000Y-94300000D01*
X129375000Y-89475000D02*
X121460000Y-97390000D01*
X91157143Y-72357143D02*
X91100000Y-72300000D01*
X91100000Y-81300000D02*
X91100000Y-86300000D01*
X91128572Y-117071428D02*
X91100000Y-117100000D01*
X96100000Y-102200000D02*
X94000000Y-104300000D01*
X108500000Y-74275000D02*
X108500000Y-74700000D01*
X108337500Y-75900000D02*
X108262500Y-75825000D01*
X91100000Y-90400000D02*
X91100000Y-94300000D01*
X124800000Y-64250000D02*
X129600000Y-69050000D01*
X96400000Y-114890000D02*
X94810000Y-113300000D01*
X91100000Y-94300000D02*
X91100000Y-99100000D01*
X91100000Y-63600000D02*
X91100000Y-68300000D01*
X93500000Y-113300000D02*
X91100000Y-113300000D01*
X99410000Y-91690000D02*
X99400000Y-91700000D01*
X91110000Y-68310000D02*
X91100000Y-68300000D01*
X130425000Y-76831751D02*
X129501751Y-77755000D01*
X91257143Y-90242857D02*
X91100000Y-90400000D01*
X95500000Y-75620000D02*
X93920000Y-77200000D01*
X91100000Y-107900000D02*
X91100000Y-113300000D01*
X111000000Y-64250000D02*
X115650000Y-64250000D01*
X93920000Y-77200000D02*
X91100000Y-77200000D01*
X90000000Y-127100000D02*
X93400000Y-130500000D01*
X107075000Y-74275000D02*
X108500000Y-74275000D01*
X91100000Y-113300000D02*
X91100000Y-117100000D01*
X95200000Y-104300000D02*
X94000000Y-104300000D01*
X120300000Y-64250000D02*
X115650000Y-64250000D01*
X93100000Y-63414286D02*
X91314286Y-63414286D01*
%TO.N,GND*%
X94685714Y-125014286D02*
X94700000Y-125000000D01*
X94685714Y-98185714D02*
X94700000Y-98200000D01*
X108500000Y-72525000D02*
X108500000Y-71300000D01*
X94414286Y-62414286D02*
X94500000Y-62500000D01*
X129125000Y-73945000D02*
X126555000Y-73945000D01*
X93100000Y-62414286D02*
X94414286Y-62414286D01*
X94642857Y-89242857D02*
X94700000Y-89300000D01*
X122410000Y-102790000D02*
X122410000Y-101160000D01*
X93100000Y-80300000D02*
X94500000Y-80300000D01*
X122150000Y-103050000D02*
X122410000Y-102790000D01*
X93128572Y-116100000D02*
X93100000Y-116071428D01*
X94457143Y-71357143D02*
X94500000Y-71400000D01*
X93100000Y-107128571D02*
X94671429Y-107128571D01*
X122410000Y-100669998D02*
X122045001Y-100304999D01*
X122045001Y-100304999D02*
X120395001Y-100304999D01*
X121625000Y-103050000D02*
X122150000Y-103050000D01*
X94700000Y-116100000D02*
X93128572Y-116100000D01*
X93100000Y-125014286D02*
X94685714Y-125014286D01*
X93100000Y-98185714D02*
X94685714Y-98185714D01*
X94671429Y-107128571D02*
X94700000Y-107100000D01*
X126555000Y-73945000D02*
X125800000Y-74700000D01*
X125800000Y-74700000D02*
X125850000Y-74700000D01*
X122410000Y-101160000D02*
X122410000Y-100669998D01*
X93100000Y-89242857D02*
X94642857Y-89242857D01*
X120395001Y-100304999D02*
X119975000Y-100725000D01*
X93100000Y-71357143D02*
X94457143Y-71357143D01*
X119975000Y-100725000D02*
X119500000Y-100725000D01*
%TO.N,GNDPWR*%
X138800000Y-93350000D02*
X136612500Y-93350000D01*
X137700000Y-88950000D02*
X136475000Y-88950000D01*
X137775000Y-78450000D02*
X139100000Y-78450000D01*
X139200000Y-87450000D02*
X137700000Y-88950000D01*
X136612500Y-93350000D02*
X136087500Y-92825000D01*
X136087500Y-92825000D02*
X136087500Y-91950000D01*
X139200000Y-87450000D02*
X137100000Y-87450000D01*
X136675000Y-79550000D02*
X137775000Y-78450000D01*
X136087500Y-91950000D02*
X136087500Y-89337500D01*
X136700000Y-73950000D02*
X134440000Y-73950000D01*
X137100000Y-87450000D02*
X136900000Y-87250000D01*
X136675000Y-79550000D02*
X135675000Y-79550000D01*
X136087500Y-89337500D02*
X136475000Y-88950000D01*
%TO.N,VD*%
X137500000Y-86450000D02*
X136600000Y-86450000D01*
X136100000Y-72950000D02*
X133000000Y-72950000D01*
X133825000Y-79650000D02*
X133825000Y-78005000D01*
X133825000Y-79650000D02*
X133825000Y-79175000D01*
X133825000Y-79175000D02*
X134350000Y-78650000D01*
X132912500Y-95450000D02*
X132912500Y-92150000D01*
X136600000Y-86450000D02*
X133112500Y-89937500D01*
X133000000Y-72950000D02*
X132500000Y-73450000D01*
X139100000Y-77450000D02*
X137400000Y-77450000D01*
X133005000Y-77755000D02*
X134075000Y-77755000D01*
X133112500Y-89937500D02*
X133112500Y-91950000D01*
X134350000Y-78650000D02*
X136200000Y-78650000D01*
X139200000Y-86450000D02*
X137500000Y-86450000D01*
X136200000Y-78650000D02*
X137400000Y-77450000D01*
X132500000Y-73450000D02*
X132500000Y-77250000D01*
X132500000Y-77250000D02*
X133005000Y-77755000D01*
X137400000Y-77450000D02*
X136100000Y-77450000D01*
X133825000Y-78005000D02*
X134075000Y-77755000D01*
%TO.N,/Sheet626DA5AD/scl_in*%
X139100000Y-75450000D02*
X137600000Y-75450000D01*
X139550000Y-81450000D02*
X139200000Y-81800000D01*
X137600000Y-74650000D02*
X137600000Y-75450000D01*
X140550000Y-75450000D02*
X141300000Y-76200000D01*
X139200000Y-81800000D02*
X139200000Y-84450000D01*
X134075000Y-75215000D02*
X137035000Y-75215000D01*
X137035000Y-75215000D02*
X137600000Y-74650000D01*
X137120000Y-72950000D02*
X137600000Y-73430000D01*
X137600000Y-73430000D02*
X137600000Y-74650000D01*
X139100000Y-75450000D02*
X140550000Y-75450000D01*
%TO.N,/Sheet626DA5AD/sda_in*%
X139546751Y-76450000D02*
X139100000Y-76450000D01*
X141050000Y-77953249D02*
X139546751Y-76450000D01*
X139200000Y-85450000D02*
X139646751Y-85450000D01*
X134110000Y-76450000D02*
X134075000Y-76485000D01*
X139100000Y-76450000D02*
X134110000Y-76450000D01*
X139646751Y-85450000D02*
X141050000Y-84046751D01*
X141050000Y-84046751D02*
X141050000Y-77953249D01*
%TO.N,/Sheet626DA5AD/scl*%
X114828198Y-74671802D02*
X124796497Y-74671802D01*
X113900000Y-76800000D02*
X113900000Y-75600000D01*
X110600000Y-77100000D02*
X110675500Y-77100000D01*
X109600000Y-77224511D02*
X110475489Y-77224511D01*
X114700000Y-77600000D02*
X113900000Y-76800000D01*
X110675500Y-77100000D02*
X110800000Y-77224500D01*
X110475489Y-77224511D02*
X110600000Y-77100000D01*
X127635000Y-75215000D02*
X129125000Y-75215000D01*
X116080000Y-77700000D02*
X114800000Y-77700000D01*
X108262500Y-77125000D02*
X108362011Y-77224511D01*
X113900000Y-75600000D02*
X114828198Y-74671802D01*
X114800000Y-77700000D02*
X114700000Y-77600000D01*
X108362011Y-77224511D02*
X109600000Y-77224511D01*
X125984695Y-75860000D02*
X126990000Y-75860000D01*
X124796497Y-74671802D02*
X125984695Y-75860000D01*
X126990000Y-75860000D02*
X127635000Y-75215000D01*
%TO.N,/Sheet626DA5AD/sda*%
X109775000Y-76475000D02*
X109800000Y-76500000D01*
X115980000Y-76500000D02*
X116080000Y-76400000D01*
X108262500Y-76475000D02*
X109775000Y-76475000D01*
X124835000Y-76485000D02*
X123800000Y-75450000D01*
X123800000Y-75450000D02*
X117030000Y-75450000D01*
X129125000Y-76485000D02*
X124835000Y-76485000D01*
X117030000Y-75450000D02*
X116080000Y-76400000D01*
X114700000Y-76500000D02*
X115980000Y-76500000D01*
%TO.N,Net-(JP1-A)*%
X135700000Y-100725000D02*
X135200000Y-100225000D01*
X135200000Y-100225000D02*
X133975000Y-100225000D01*
X127800000Y-100350000D02*
X127800000Y-103200000D01*
X133975000Y-100225000D02*
X133500000Y-100225000D01*
X133500000Y-100225000D02*
X130800000Y-100225000D01*
X127800000Y-101000000D02*
X127800000Y-100350000D01*
X130800000Y-100225000D02*
X129800000Y-101225000D01*
X129800000Y-101225000D02*
X128025000Y-101225000D01*
X138800000Y-100970000D02*
X136167500Y-100970000D01*
X128025000Y-101225000D02*
X127800000Y-101000000D01*
X135700000Y-101437500D02*
X135700000Y-100725000D01*
%TO.N,Net-(Q1-B)*%
X129800000Y-98687500D02*
X128400000Y-97287500D01*
X125800000Y-99400000D02*
X125800000Y-98750000D01*
X125800000Y-98750000D02*
X127262500Y-97287500D01*
X129800000Y-99475000D02*
X129800000Y-98687500D01*
X127262500Y-97287500D02*
X128400000Y-97287500D01*
%TO.N,Net-(JP1-B)*%
X123900000Y-103050000D02*
X123375000Y-103050000D01*
X122950000Y-103950000D02*
X121204490Y-103950000D01*
X123375000Y-103050000D02*
X123375000Y-101175000D01*
X125800000Y-101300000D02*
X125800000Y-103200000D01*
X120700000Y-101345000D02*
X120885000Y-101160000D01*
X124700000Y-103050000D02*
X123900000Y-103050000D01*
X120700000Y-103445510D02*
X120700000Y-101345000D01*
X125800000Y-101950000D02*
X124700000Y-103050000D01*
X125800000Y-101300000D02*
X125800000Y-101950000D01*
X121204490Y-103950000D02*
X120700000Y-103445510D01*
X120885000Y-101160000D02*
X121460000Y-101160000D01*
X123375000Y-103050000D02*
X123375000Y-103525000D01*
X123375000Y-103525000D02*
X122950000Y-103950000D01*
%TO.N,Net-(J1-SDA)*%
X112800000Y-108700000D02*
X112800000Y-82400000D01*
X93085714Y-127000000D02*
X93100000Y-127014286D01*
X94485714Y-127014286D02*
X112800000Y-108700000D01*
X93100000Y-127014286D02*
X94485714Y-127014286D01*
X91600000Y-127000000D02*
X93085714Y-127000000D01*
X95290000Y-128010000D02*
X96300000Y-127000000D01*
X109475000Y-79075000D02*
X108262500Y-79075000D01*
X112800000Y-82400000D02*
X109475000Y-79075000D01*
X95290000Y-128200000D02*
X95290000Y-128010000D01*
%TO.N,Net-(J1-SCL)*%
X95290000Y-129400000D02*
X94185714Y-128295714D01*
X113249520Y-82149520D02*
X113249520Y-108950480D01*
X109525000Y-78425000D02*
X113249520Y-82149520D01*
X93100000Y-128014286D02*
X94185714Y-128014286D01*
X94185714Y-128295714D02*
X94185714Y-128014286D01*
X108262500Y-78425000D02*
X109525000Y-78425000D01*
X94185714Y-128014286D02*
X113249520Y-108950480D01*
%TO.N,Net-(J2-SDA)*%
X97100000Y-90600000D02*
X96457143Y-91242857D01*
X98390000Y-90500000D02*
X98390000Y-89510000D01*
X100925000Y-81675000D02*
X97100000Y-85500000D01*
X97100000Y-85500000D02*
X97100000Y-89500000D01*
X96457143Y-91242857D02*
X93100000Y-91242857D01*
X97100000Y-89500000D02*
X97100000Y-90600000D01*
X98390000Y-89510000D02*
X98400000Y-89500000D01*
X96400000Y-89500000D02*
X97100000Y-89500000D01*
X102537500Y-81675000D02*
X100925000Y-81675000D01*
%TO.N,Net-(J2-SCL)*%
X98380000Y-91700000D02*
X97000000Y-91700000D01*
X96817859Y-91517859D02*
X97549520Y-90786198D01*
X97549520Y-90786198D02*
X97549520Y-85950480D01*
X93100000Y-92242857D02*
X96092861Y-92242857D01*
X97549520Y-85950480D02*
X101175000Y-82325000D01*
X97000000Y-91700000D02*
X96817859Y-91517859D01*
X96092861Y-92242857D02*
X96817859Y-91517859D01*
X101175000Y-82325000D02*
X102537500Y-82325000D01*
%TO.N,Net-(J3-SDA)*%
X93100000Y-118071428D02*
X94528572Y-118071428D01*
X111800000Y-82792846D02*
X109382154Y-80375000D01*
X94528572Y-118071428D02*
X111800000Y-100800000D01*
X111800000Y-100800000D02*
X111800000Y-82792846D01*
X109382154Y-80375000D02*
X108262500Y-80375000D01*
%TO.N,Net-(J3-SCL)*%
X112300000Y-82657128D02*
X112300000Y-101200000D01*
X112300000Y-101200000D02*
X94400000Y-119100000D01*
X96500000Y-119080000D02*
X93108572Y-119080000D01*
X93108572Y-119080000D02*
X93100000Y-119071428D01*
X94400000Y-119100000D02*
X93128572Y-119100000D01*
X109367871Y-79725000D02*
X112300000Y-82657128D01*
X108262500Y-79725000D02*
X109367871Y-79725000D01*
%TO.N,Net-(J4-SDA)*%
X100125000Y-80375000D02*
X98200000Y-82300000D01*
X98200000Y-82300000D02*
X93100000Y-82300000D01*
X102537500Y-80375000D02*
X100125000Y-80375000D01*
%TO.N,Net-(J4-SCL)*%
X100117859Y-81017859D02*
X102530359Y-81017859D01*
X97835718Y-83300000D02*
X100117859Y-81017859D01*
X93100000Y-83300000D02*
X97835718Y-83300000D01*
%TO.N,Net-(J5-SDA)*%
X110849520Y-92650480D02*
X110849520Y-83113802D01*
X93100000Y-109128571D02*
X94371429Y-109128571D01*
X109410718Y-81675000D02*
X108262500Y-81675000D01*
X110849520Y-83113802D02*
X109410718Y-81675000D01*
X94371429Y-109128571D02*
X110849520Y-92650480D01*
%TO.N,Net-(J5-SCL)*%
X95548571Y-110128571D02*
X95600000Y-110180000D01*
X94071429Y-110128571D02*
X93100000Y-110128571D01*
X111300000Y-92900000D02*
X94071429Y-110128571D01*
X93100000Y-110128571D02*
X95548571Y-110128571D01*
X108262500Y-81025000D02*
X109396436Y-81025000D01*
X109396436Y-81025000D02*
X111300000Y-82928564D01*
X111300000Y-82928564D02*
X111300000Y-92900000D01*
%TO.N,Net-(J6-SDA)*%
X93100000Y-73357143D02*
X95621425Y-73357143D01*
X95621425Y-73357143D02*
X101339282Y-79075000D01*
X101339282Y-79075000D02*
X102537500Y-79075000D01*
%TO.N,Net-(J6-SCL)*%
X101353565Y-79725000D02*
X95985707Y-74357143D01*
X102537500Y-79725000D02*
X101353565Y-79725000D01*
X95985707Y-74357143D02*
X93100000Y-74357143D01*
%TO.N,Net-(J7-SDA)*%
X109800000Y-83400000D02*
X109375000Y-82975000D01*
X109800000Y-84400000D02*
X109800000Y-83400000D01*
X94014286Y-100185714D02*
X109800000Y-84400000D01*
X109375000Y-82975000D02*
X108262500Y-82975000D01*
X93100000Y-100185714D02*
X94014286Y-100185714D01*
%TO.N,Net-(J7-SCL)*%
X110400000Y-84500000D02*
X93714286Y-101185714D01*
X109425000Y-82325000D02*
X110400000Y-83300000D01*
X110400000Y-83300000D02*
X110400000Y-84500000D01*
X108262500Y-82325000D02*
X109425000Y-82325000D01*
%TO.N,Net-(J8-SDA)*%
X96590000Y-64900000D02*
X94700000Y-64900000D01*
X101375000Y-77775000D02*
X102537500Y-77775000D01*
X100400000Y-76800000D02*
X101375000Y-77775000D01*
X94700000Y-64900000D02*
X94214286Y-64414286D01*
X100400000Y-70600000D02*
X100400000Y-76800000D01*
X94214286Y-64414286D02*
X100400000Y-70600000D01*
X93100000Y-64414286D02*
X94214286Y-64414286D01*
%TO.N,Net-(J8-SCL)*%
X99950480Y-71050480D02*
X99950480Y-77050480D01*
X93185714Y-65500000D02*
X94400000Y-65500000D01*
X101325000Y-78425000D02*
X102537500Y-78425000D01*
X99950480Y-77050480D02*
X101325000Y-78425000D01*
X94400000Y-65500000D02*
X99950480Y-71050480D01*
%TO.N,Net-(J12-Pin_2)*%
X105625000Y-77775000D02*
X105600000Y-77800000D01*
X108262500Y-77775000D02*
X105625000Y-77775000D01*
%TO.N,Net-(J13-Pin_2)*%
X101725000Y-76475000D02*
X102537500Y-76475000D01*
X101475000Y-76225000D02*
X101725000Y-76475000D01*
X101475000Y-73275000D02*
X101475000Y-76225000D01*
X102500000Y-72250000D02*
X101475000Y-73275000D01*
%TO.N,Net-(J14-Pin_2)*%
X102537500Y-73962500D02*
X104000000Y-72500000D01*
X102537500Y-75825000D02*
X102537500Y-73962500D01*
%TO.N,Net-(PS1-+Vin)*%
X138800000Y-95890000D02*
X136327500Y-95890000D01*
%TD*%
%TA.AperFunction,Conductor*%
%TO.N,GND*%
G36*
X123553273Y-76103185D02*
G01*
X123573915Y-76119819D01*
X124327909Y-76873813D01*
X124337818Y-76886181D01*
X124338028Y-76886008D01*
X124342998Y-76892017D01*
X124394079Y-76939984D01*
X124415224Y-76961130D01*
X124420813Y-76965466D01*
X124425245Y-76969252D01*
X124454313Y-76996547D01*
X124459680Y-77001587D01*
X124477562Y-77011417D01*
X124493829Y-77022102D01*
X124509960Y-77034615D01*
X124522743Y-77040146D01*
X124553307Y-77053371D01*
X124558533Y-77055931D01*
X124599940Y-77078695D01*
X124619716Y-77083772D01*
X124638124Y-77090075D01*
X124656850Y-77098179D01*
X124656852Y-77098180D01*
X124656853Y-77098180D01*
X124656855Y-77098181D01*
X124690143Y-77103453D01*
X124703503Y-77105569D01*
X124709212Y-77106751D01*
X124754970Y-77118500D01*
X124775384Y-77118500D01*
X124794783Y-77120027D01*
X124814943Y-77123220D01*
X124861966Y-77118775D01*
X124867804Y-77118500D01*
X127605282Y-77118500D01*
X127672321Y-77138185D01*
X127718076Y-77190989D01*
X127728020Y-77260147D01*
X127712014Y-77305621D01*
X127690855Y-77341397D01*
X127690853Y-77341403D01*
X127644438Y-77501164D01*
X127644437Y-77501170D01*
X127641500Y-77538495D01*
X127641500Y-77971505D01*
X127644437Y-78008829D01*
X127644438Y-78008835D01*
X127690853Y-78168596D01*
X127690855Y-78168601D01*
X127775544Y-78311803D01*
X127775551Y-78311812D01*
X127893187Y-78429448D01*
X127893190Y-78429450D01*
X127893193Y-78429453D01*
X127918244Y-78444268D01*
X127965927Y-78495338D01*
X127978430Y-78564080D01*
X127951784Y-78628669D01*
X127894448Y-78668599D01*
X127878864Y-78671135D01*
X127875000Y-78675000D01*
X127875000Y-80624999D01*
X127961640Y-80624999D01*
X127961654Y-80624998D01*
X128062652Y-80614680D01*
X128226300Y-80560453D01*
X128226311Y-80560448D01*
X128373034Y-80469947D01*
X128373037Y-80469945D01*
X128406307Y-80436675D01*
X128467629Y-80403189D01*
X128537321Y-80408173D01*
X128581670Y-80436674D01*
X128621654Y-80476658D01*
X128682597Y-80514248D01*
X128729321Y-80566195D01*
X128741500Y-80619786D01*
X128741500Y-89161232D01*
X128721815Y-89228271D01*
X128705181Y-89248913D01*
X121071179Y-96882914D01*
X121058820Y-96892818D01*
X121058993Y-96893027D01*
X121052983Y-96897999D01*
X121005016Y-96949078D01*
X120983872Y-96970222D01*
X120983857Y-96970239D01*
X120979531Y-96975814D01*
X120975747Y-96980244D01*
X120943419Y-97014671D01*
X120943412Y-97014681D01*
X120933579Y-97032567D01*
X120922903Y-97048820D01*
X120910386Y-97064957D01*
X120910385Y-97064959D01*
X120891625Y-97108310D01*
X120889055Y-97113556D01*
X120866303Y-97154941D01*
X120866303Y-97154942D01*
X120861225Y-97174720D01*
X120854925Y-97193122D01*
X120846818Y-97211857D01*
X120839431Y-97258495D01*
X120838246Y-97264216D01*
X120826500Y-97309965D01*
X120826500Y-97330384D01*
X120824973Y-97349783D01*
X120821780Y-97369941D01*
X120821780Y-97369942D01*
X120826225Y-97416966D01*
X120826500Y-97422804D01*
X120826500Y-97963675D01*
X120806815Y-98030714D01*
X120776815Y-98062939D01*
X120772347Y-98066284D01*
X120771739Y-98066739D01*
X120748081Y-98098342D01*
X120686953Y-98180000D01*
X120684111Y-98183796D01*
X120660971Y-98245835D01*
X120619102Y-98301767D01*
X120553637Y-98326184D01*
X120544791Y-98326500D01*
X120460534Y-98326500D01*
X120393495Y-98306815D01*
X120354995Y-98267596D01*
X120349076Y-98258000D01*
X120326658Y-98221654D01*
X120203346Y-98098342D01*
X120203342Y-98098339D01*
X120054928Y-98006795D01*
X120054922Y-98006792D01*
X120054920Y-98006791D01*
X120049397Y-98004961D01*
X119889382Y-97951938D01*
X119787214Y-97941500D01*
X119212794Y-97941500D01*
X119212778Y-97941501D01*
X119110617Y-97951938D01*
X118945082Y-98006790D01*
X118945071Y-98006795D01*
X118796657Y-98098339D01*
X118796653Y-98098342D01*
X118673342Y-98221653D01*
X118673339Y-98221657D01*
X118581795Y-98370071D01*
X118581790Y-98370082D01*
X118526938Y-98535617D01*
X118516500Y-98637779D01*
X118516500Y-99312205D01*
X118516501Y-99312221D01*
X118526938Y-99414382D01*
X118581790Y-99579917D01*
X118581795Y-99579928D01*
X118673339Y-99728342D01*
X118673342Y-99728346D01*
X118713325Y-99768329D01*
X118746810Y-99829652D01*
X118741826Y-99899344D01*
X118713326Y-99943690D01*
X118680055Y-99976960D01*
X118680052Y-99976965D01*
X118589551Y-100123688D01*
X118589546Y-100123699D01*
X118535319Y-100287347D01*
X118525000Y-100388345D01*
X118525000Y-100475000D01*
X119626000Y-100475000D01*
X119693039Y-100494685D01*
X119738794Y-100547489D01*
X119750000Y-100599000D01*
X119750000Y-101749999D01*
X119786640Y-101749999D01*
X119786654Y-101749998D01*
X119887649Y-101739681D01*
X119903492Y-101734431D01*
X119973321Y-101732027D01*
X120033364Y-101767757D01*
X120064558Y-101830277D01*
X120066500Y-101852136D01*
X120066500Y-103361876D01*
X120064761Y-103377623D01*
X120065032Y-103377649D01*
X120064298Y-103385415D01*
X120066500Y-103455467D01*
X120066500Y-103485369D01*
X120067384Y-103492366D01*
X120067842Y-103498189D01*
X120069326Y-103545399D01*
X120069327Y-103545401D01*
X120075022Y-103565005D01*
X120078967Y-103584052D01*
X120081526Y-103604307D01*
X120081527Y-103604310D01*
X120081528Y-103604313D01*
X120098914Y-103648226D01*
X120100806Y-103653754D01*
X120113981Y-103699102D01*
X120124372Y-103716672D01*
X120132932Y-103734145D01*
X120140447Y-103753127D01*
X120168209Y-103791337D01*
X120171418Y-103796222D01*
X120187764Y-103823863D01*
X120195458Y-103836872D01*
X120195462Y-103836876D01*
X120209889Y-103851303D01*
X120222526Y-103866098D01*
X120234528Y-103882617D01*
X120270931Y-103912732D01*
X120275231Y-103916645D01*
X120512188Y-104153602D01*
X120697400Y-104338814D01*
X120707306Y-104351178D01*
X120707516Y-104351005D01*
X120712491Y-104357019D01*
X120763585Y-104405000D01*
X120784714Y-104426129D01*
X120784718Y-104426132D01*
X120784721Y-104426135D01*
X120790295Y-104430458D01*
X120794735Y-104434251D01*
X120816346Y-104454544D01*
X120829169Y-104466586D01*
X120829173Y-104466589D01*
X120847053Y-104476418D01*
X120863317Y-104487101D01*
X120879450Y-104499614D01*
X120920551Y-104517400D01*
X120922791Y-104518369D01*
X120928040Y-104520941D01*
X120936570Y-104525630D01*
X120969430Y-104543695D01*
X120989208Y-104548773D01*
X121007609Y-104555073D01*
X121026345Y-104563181D01*
X121070852Y-104570229D01*
X121072993Y-104570569D01*
X121078702Y-104571751D01*
X121124460Y-104583500D01*
X121144874Y-104583500D01*
X121164273Y-104585027D01*
X121184433Y-104588220D01*
X121231456Y-104583775D01*
X121237294Y-104583500D01*
X122866366Y-104583500D01*
X122882113Y-104585238D01*
X122882139Y-104584968D01*
X122889905Y-104585701D01*
X122889909Y-104585702D01*
X122959958Y-104583500D01*
X122989856Y-104583500D01*
X122989857Y-104583500D01*
X122991222Y-104583327D01*
X122996862Y-104582614D01*
X123002685Y-104582156D01*
X123028708Y-104581338D01*
X123049890Y-104580673D01*
X123059681Y-104577827D01*
X123069481Y-104574980D01*
X123088538Y-104571032D01*
X123108797Y-104568474D01*
X123152721Y-104551082D01*
X123158221Y-104549199D01*
X123203593Y-104536018D01*
X123221165Y-104525625D01*
X123238632Y-104517068D01*
X123257617Y-104509552D01*
X123295826Y-104481790D01*
X123300704Y-104478585D01*
X123341362Y-104454542D01*
X123355802Y-104440100D01*
X123370592Y-104427470D01*
X123387107Y-104415472D01*
X123417222Y-104379067D01*
X123421126Y-104374776D01*
X123736923Y-104058980D01*
X123798244Y-104025497D01*
X123812002Y-104023305D01*
X123814381Y-104023062D01*
X123979920Y-103968209D01*
X124128346Y-103876658D01*
X124251658Y-103753346D01*
X124258407Y-103742403D01*
X124310354Y-103695679D01*
X124363946Y-103683500D01*
X124616366Y-103683500D01*
X124632113Y-103685238D01*
X124632139Y-103684968D01*
X124639905Y-103685701D01*
X124639909Y-103685702D01*
X124709958Y-103683500D01*
X124739856Y-103683500D01*
X124739857Y-103683500D01*
X124741222Y-103683327D01*
X124746862Y-103682614D01*
X124752685Y-103682156D01*
X124778708Y-103681338D01*
X124799890Y-103680673D01*
X124809681Y-103677827D01*
X124819481Y-103674980D01*
X124838538Y-103671032D01*
X124858797Y-103668474D01*
X124902721Y-103651082D01*
X124908221Y-103649199D01*
X124953593Y-103636018D01*
X124953596Y-103636015D01*
X124960755Y-103632919D01*
X124961842Y-103635431D01*
X125016836Y-103621461D01*
X125083105Y-103643600D01*
X125126885Y-103698053D01*
X125136271Y-103745377D01*
X125136271Y-103814875D01*
X125136358Y-103815685D01*
X125136358Y-103873110D01*
X125155558Y-104006649D01*
X125155558Y-104006652D01*
X125156819Y-104015426D01*
X125198018Y-104155733D01*
X125257737Y-104286500D01*
X125257746Y-104286516D01*
X125291356Y-104338814D01*
X125333891Y-104405000D01*
X125336792Y-104409513D01*
X125336803Y-104409529D01*
X125429511Y-104516519D01*
X125430222Y-104517400D01*
X125430949Y-104518180D01*
X125430951Y-104518181D01*
X125430952Y-104518183D01*
X125541460Y-104613938D01*
X125571698Y-104633371D01*
X125662408Y-104691667D01*
X125662412Y-104691669D01*
X125662414Y-104691670D01*
X125795423Y-104752413D01*
X125933378Y-104792920D01*
X126078111Y-104813729D01*
X126078114Y-104813729D01*
X126650000Y-104813729D01*
X126723111Y-104808500D01*
X126759853Y-104797710D01*
X126812432Y-104793949D01*
X126950000Y-104813729D01*
X126950002Y-104813729D01*
X127521886Y-104813729D01*
X127521889Y-104813729D01*
X127666622Y-104792920D01*
X127804577Y-104752413D01*
X127937586Y-104691670D01*
X128058534Y-104613942D01*
X128058539Y-104613939D01*
X128058536Y-104613942D01*
X128093667Y-104583500D01*
X128169051Y-104518179D01*
X128245064Y-104430454D01*
X128263196Y-104409529D01*
X128263198Y-104409526D01*
X128263205Y-104409518D01*
X128342256Y-104286512D01*
X128342259Y-104286504D01*
X128342262Y-104286500D01*
X128401981Y-104155733D01*
X128401984Y-104155727D01*
X128401984Y-104155726D01*
X128401984Y-104155724D01*
X128402166Y-104155327D01*
X128402602Y-104153619D01*
X128443180Y-104015427D01*
X128463642Y-103873112D01*
X128463642Y-103815685D01*
X128463729Y-103815388D01*
X128463729Y-103285124D01*
X128463642Y-103284315D01*
X128463642Y-103226889D01*
X128463642Y-103226888D01*
X128443180Y-103084573D01*
X128443180Y-103084572D01*
X128438523Y-103068711D01*
X128433500Y-103033776D01*
X128433500Y-101982500D01*
X128453185Y-101915461D01*
X128505989Y-101869706D01*
X128557500Y-101858500D01*
X128830213Y-101858500D01*
X128897252Y-101878185D01*
X128935751Y-101917403D01*
X128973340Y-101978344D01*
X128973341Y-101978345D01*
X128973342Y-101978346D01*
X129096654Y-102101658D01*
X129096656Y-102101659D01*
X129096657Y-102101660D01*
X129245071Y-102193204D01*
X129245074Y-102193205D01*
X129245080Y-102193209D01*
X129410619Y-102248062D01*
X129512787Y-102258500D01*
X130087212Y-102258499D01*
X130189381Y-102248062D01*
X130354920Y-102193209D01*
X130503346Y-102101658D01*
X130626658Y-101978346D01*
X130718209Y-101829920D01*
X130773062Y-101664381D01*
X130783500Y-101562213D01*
X130783499Y-101229037D01*
X130803183Y-101161999D01*
X130855987Y-101116244D01*
X130925146Y-101106300D01*
X130972594Y-101123499D01*
X131045080Y-101168209D01*
X131210619Y-101223062D01*
X131312787Y-101233500D01*
X131887212Y-101233499D01*
X131989381Y-101223062D01*
X132154920Y-101168209D01*
X132303346Y-101076658D01*
X132426658Y-100953346D01*
X132436751Y-100936981D01*
X132488695Y-100890259D01*
X132557657Y-100879035D01*
X132621740Y-100906877D01*
X132647827Y-100936981D01*
X132657922Y-100953348D01*
X132673342Y-100978346D01*
X132796654Y-101101658D01*
X132796656Y-101101659D01*
X132796657Y-101101660D01*
X132945071Y-101193204D01*
X132945074Y-101193205D01*
X132945080Y-101193209D01*
X133110619Y-101248062D01*
X133212787Y-101258500D01*
X133787212Y-101258499D01*
X133889381Y-101248062D01*
X134054920Y-101193209D01*
X134097646Y-101166855D01*
X134127403Y-101148501D01*
X134194795Y-101130060D01*
X134261459Y-101150982D01*
X134306228Y-101204624D01*
X134316500Y-101254039D01*
X134316500Y-101950551D01*
X134327113Y-102054428D01*
X134382883Y-102222735D01*
X134382884Y-102222738D01*
X134475967Y-102373647D01*
X134475970Y-102373651D01*
X134601348Y-102499029D01*
X134601352Y-102499032D01*
X134752261Y-102592115D01*
X134752264Y-102592116D01*
X134920571Y-102647886D01*
X134920572Y-102647886D01*
X134920575Y-102647887D01*
X135024456Y-102658500D01*
X135024461Y-102658500D01*
X136375539Y-102658500D01*
X136375544Y-102658500D01*
X136479425Y-102647887D01*
X136647738Y-102592115D01*
X136798651Y-102499030D01*
X136924030Y-102373651D01*
X137017115Y-102222738D01*
X137072887Y-102054425D01*
X137083500Y-101950544D01*
X137083500Y-101727500D01*
X137103185Y-101660461D01*
X137155989Y-101614706D01*
X137207500Y-101603500D01*
X137499754Y-101603500D01*
X137566793Y-101623185D01*
X137596701Y-101650187D01*
X137722969Y-101808522D01*
X137722971Y-101808523D01*
X137722972Y-101808525D01*
X137747470Y-101829928D01*
X137886786Y-101951646D01*
X137886787Y-101951647D01*
X137886790Y-101951649D01*
X138073532Y-102063222D01*
X138253700Y-102130840D01*
X138277195Y-102139658D01*
X138491229Y-102178500D01*
X138491233Y-102178500D01*
X139054270Y-102178500D01*
X139054276Y-102178500D01*
X139206579Y-102164792D01*
X139216659Y-102163885D01*
X139426341Y-102106017D01*
X139426346Y-102106014D01*
X139426353Y-102106013D01*
X139622344Y-102011629D01*
X139626035Y-102008948D01*
X139798327Y-101883770D01*
X139798333Y-101883766D01*
X139948663Y-101726533D01*
X140068501Y-101544985D01*
X140153998Y-101344957D01*
X140202404Y-101132877D01*
X140212163Y-100915562D01*
X140182963Y-100699996D01*
X140115741Y-100493109D01*
X140012659Y-100301550D01*
X139956340Y-100230929D01*
X139877030Y-100131477D01*
X139875339Y-100130000D01*
X139818019Y-100079920D01*
X139713213Y-99988353D01*
X139713210Y-99988351D01*
X139526468Y-99876778D01*
X139451489Y-99848638D01*
X139350171Y-99810612D01*
X139294323Y-99768626D01*
X139270040Y-99703112D01*
X139285032Y-99634870D01*
X139334538Y-99585565D01*
X139359810Y-99575252D01*
X139435347Y-99553761D01*
X139435348Y-99553760D01*
X139634425Y-99454631D01*
X139811900Y-99320608D01*
X139961721Y-99156261D01*
X140078797Y-98967179D01*
X140078798Y-98967177D01*
X140159135Y-98759804D01*
X140174052Y-98680000D01*
X139233686Y-98680000D01*
X139259493Y-98639844D01*
X139300000Y-98501889D01*
X139300000Y-98358111D01*
X139259493Y-98220156D01*
X139233686Y-98180000D01*
X140174052Y-98180000D01*
X140159135Y-98100195D01*
X140078798Y-97892822D01*
X140078797Y-97892820D01*
X139961721Y-97703738D01*
X139811899Y-97539391D01*
X139729477Y-97477148D01*
X139687841Y-97421039D01*
X139683150Y-97351327D01*
X139716892Y-97290145D01*
X139778356Y-97256918D01*
X139804987Y-97254198D01*
X143851297Y-97280135D01*
X143918207Y-97300248D01*
X143963622Y-97353345D01*
X143974500Y-97404132D01*
X143974500Y-130850500D01*
X143954815Y-130917539D01*
X143902011Y-130963294D01*
X143850500Y-130974500D01*
X96822795Y-130974500D01*
X96755756Y-130954815D01*
X96710001Y-130902011D01*
X96700057Y-130832853D01*
X96729082Y-130769297D01*
X96732401Y-130765618D01*
X96764984Y-130730919D01*
X96786135Y-130709770D01*
X96790471Y-130704179D01*
X96794246Y-130699758D01*
X96826586Y-130665321D01*
X96836419Y-130647432D01*
X96847102Y-130631169D01*
X96859614Y-130615041D01*
X96878371Y-130571691D01*
X96880941Y-130566447D01*
X96903693Y-130525064D01*
X96903693Y-130525063D01*
X96903695Y-130525060D01*
X96908774Y-130505273D01*
X96915070Y-130486885D01*
X96923181Y-130468145D01*
X96930569Y-130421497D01*
X96931751Y-130415786D01*
X96943500Y-130370030D01*
X96943500Y-130349615D01*
X96945027Y-130330214D01*
X96948220Y-130310057D01*
X96943775Y-130263033D01*
X96943500Y-130257195D01*
X96943500Y-130040146D01*
X96960768Y-129977025D01*
X97040269Y-129842596D01*
X97085629Y-129686466D01*
X97088500Y-129649989D01*
X97088499Y-129150012D01*
X97085629Y-129113534D01*
X97040269Y-128957404D01*
X96984509Y-128863119D01*
X96967327Y-128795397D01*
X96984510Y-128736879D01*
X97040269Y-128642596D01*
X97085629Y-128486466D01*
X97088500Y-128449989D01*
X97088499Y-127950012D01*
X97085629Y-127913534D01*
X97040269Y-127757404D01*
X97007454Y-127701918D01*
X96990272Y-127634195D01*
X97012432Y-127567933D01*
X97022032Y-127555832D01*
X97039040Y-127536944D01*
X97134527Y-127371556D01*
X97193542Y-127189928D01*
X97213504Y-127000000D01*
X97193542Y-126810072D01*
X97134527Y-126628444D01*
X97039040Y-126463056D01*
X96925323Y-126336760D01*
X96895094Y-126273771D01*
X96903719Y-126204435D01*
X96929790Y-126166112D01*
X98095900Y-125000002D01*
X101686641Y-125000002D01*
X101706063Y-125358234D01*
X101735936Y-125540448D01*
X101759186Y-125682272D01*
X101764106Y-125712279D01*
X101764107Y-125712282D01*
X101860082Y-126057955D01*
X101860083Y-126057957D01*
X101992872Y-126391233D01*
X101992881Y-126391251D01*
X102160928Y-126708220D01*
X102160929Y-126708223D01*
X102362256Y-127005157D01*
X102362264Y-127005167D01*
X102594508Y-127278586D01*
X102594516Y-127278595D01*
X102854977Y-127525317D01*
X102854984Y-127525322D01*
X102854986Y-127525324D01*
X102870490Y-127537110D01*
X103140586Y-127742431D01*
X103447995Y-127927393D01*
X103447997Y-127927394D01*
X103447999Y-127927395D01*
X103448003Y-127927397D01*
X103496883Y-127950011D01*
X103773599Y-128078033D01*
X104113583Y-128192587D01*
X104463958Y-128269711D01*
X104820618Y-128308500D01*
X104820624Y-128308500D01*
X105179376Y-128308500D01*
X105179382Y-128308500D01*
X105536042Y-128269711D01*
X105886417Y-128192587D01*
X106226401Y-128078033D01*
X106552005Y-127927393D01*
X106859414Y-127742431D01*
X107145023Y-127525317D01*
X107405484Y-127278595D01*
X107637742Y-127005159D01*
X107770017Y-126810068D01*
X107839070Y-126708223D01*
X107839070Y-126708221D01*
X107839075Y-126708215D01*
X108007123Y-126391243D01*
X108139915Y-126057961D01*
X108141674Y-126051628D01*
X108175421Y-125930079D01*
X108235895Y-125712274D01*
X108293936Y-125358237D01*
X108313359Y-125000002D01*
X136686641Y-125000002D01*
X136706063Y-125358234D01*
X136735936Y-125540448D01*
X136759186Y-125682272D01*
X136764106Y-125712279D01*
X136764107Y-125712282D01*
X136860082Y-126057955D01*
X136860083Y-126057957D01*
X136992872Y-126391233D01*
X136992881Y-126391251D01*
X137160928Y-126708220D01*
X137160929Y-126708223D01*
X137362256Y-127005157D01*
X137362264Y-127005167D01*
X137594508Y-127278586D01*
X137594516Y-127278595D01*
X137854977Y-127525317D01*
X137854984Y-127525322D01*
X137854986Y-127525324D01*
X137870490Y-127537110D01*
X138140586Y-127742431D01*
X138447995Y-127927393D01*
X138447997Y-127927394D01*
X138447999Y-127927395D01*
X138448003Y-127927397D01*
X138496883Y-127950011D01*
X138773599Y-128078033D01*
X139113583Y-128192587D01*
X139463958Y-128269711D01*
X139820618Y-128308500D01*
X139820624Y-128308500D01*
X140179376Y-128308500D01*
X140179382Y-128308500D01*
X140536042Y-128269711D01*
X140886417Y-128192587D01*
X141226401Y-128078033D01*
X141552005Y-127927393D01*
X141859414Y-127742431D01*
X142145023Y-127525317D01*
X142405484Y-127278595D01*
X142637742Y-127005159D01*
X142770017Y-126810068D01*
X142839070Y-126708223D01*
X142839070Y-126708221D01*
X142839075Y-126708215D01*
X143007123Y-126391243D01*
X143139915Y-126057961D01*
X143141674Y-126051628D01*
X143175421Y-125930079D01*
X143235895Y-125712274D01*
X143293936Y-125358237D01*
X143313359Y-125000000D01*
X143293936Y-124641763D01*
X143235895Y-124287726D01*
X143187890Y-124114830D01*
X143139917Y-123942044D01*
X143139916Y-123942042D01*
X143007127Y-123608766D01*
X143007118Y-123608748D01*
X142850715Y-123313741D01*
X142839075Y-123291785D01*
X142839071Y-123291779D01*
X142839070Y-123291776D01*
X142637743Y-122994842D01*
X142637735Y-122994832D01*
X142405491Y-122721413D01*
X142405486Y-122721407D01*
X142372817Y-122690461D01*
X142145023Y-122474683D01*
X142145016Y-122474677D01*
X142145013Y-122474675D01*
X142077266Y-122423175D01*
X141859414Y-122257569D01*
X141552005Y-122072607D01*
X141552004Y-122072606D01*
X141552000Y-122072604D01*
X141551996Y-122072602D01*
X141226411Y-121921971D01*
X141226406Y-121921969D01*
X141226401Y-121921967D01*
X141060678Y-121866128D01*
X140886416Y-121807412D01*
X140536040Y-121730288D01*
X140179383Y-121691500D01*
X140179382Y-121691500D01*
X139820618Y-121691500D01*
X139820616Y-121691500D01*
X139463959Y-121730288D01*
X139113583Y-121807412D01*
X138850768Y-121895965D01*
X138773599Y-121921967D01*
X138773596Y-121921968D01*
X138773588Y-121921971D01*
X138448003Y-122072602D01*
X138447999Y-122072604D01*
X138219061Y-122210351D01*
X138140586Y-122257569D01*
X138052060Y-122324864D01*
X137854986Y-122474675D01*
X137854977Y-122474683D01*
X137594513Y-122721407D01*
X137594508Y-122721413D01*
X137362264Y-122994832D01*
X137362256Y-122994842D01*
X137160929Y-123291776D01*
X137160928Y-123291779D01*
X136992881Y-123608748D01*
X136992872Y-123608766D01*
X136860083Y-123942042D01*
X136860082Y-123942044D01*
X136764107Y-124287717D01*
X136764106Y-124287720D01*
X136706063Y-124641765D01*
X136686641Y-124999997D01*
X136686641Y-125000002D01*
X108313359Y-125000002D01*
X108313359Y-125000000D01*
X108293936Y-124641763D01*
X108235895Y-124287726D01*
X108187890Y-124114830D01*
X108139917Y-123942044D01*
X108139916Y-123942042D01*
X108007127Y-123608766D01*
X108007118Y-123608748D01*
X107850715Y-123313741D01*
X107839075Y-123291785D01*
X107839071Y-123291779D01*
X107839070Y-123291776D01*
X107637743Y-122994842D01*
X107637735Y-122994832D01*
X107405491Y-122721413D01*
X107405486Y-122721407D01*
X107372817Y-122690461D01*
X107145023Y-122474683D01*
X107145016Y-122474677D01*
X107145013Y-122474675D01*
X107077266Y-122423175D01*
X106859414Y-122257569D01*
X106552005Y-122072607D01*
X106552004Y-122072606D01*
X106552000Y-122072604D01*
X106551996Y-122072602D01*
X106226411Y-121921971D01*
X106226406Y-121921969D01*
X106226401Y-121921967D01*
X106060678Y-121866128D01*
X105886416Y-121807412D01*
X105536040Y-121730288D01*
X105179383Y-121691500D01*
X105179382Y-121691500D01*
X104820618Y-121691500D01*
X104820616Y-121691500D01*
X104463959Y-121730288D01*
X104113583Y-121807412D01*
X103850768Y-121895965D01*
X103773599Y-121921967D01*
X103773596Y-121921968D01*
X103773588Y-121921971D01*
X103448003Y-122072602D01*
X103447999Y-122072604D01*
X103219061Y-122210351D01*
X103140586Y-122257569D01*
X103052060Y-122324864D01*
X102854986Y-122474675D01*
X102854977Y-122474683D01*
X102594513Y-122721407D01*
X102594508Y-122721413D01*
X102362264Y-122994832D01*
X102362256Y-122994842D01*
X102160929Y-123291776D01*
X102160928Y-123291779D01*
X101992881Y-123608748D01*
X101992872Y-123608766D01*
X101860083Y-123942042D01*
X101860082Y-123942044D01*
X101764107Y-124287717D01*
X101764106Y-124287720D01*
X101706063Y-124641765D01*
X101686641Y-124999997D01*
X101686641Y-125000002D01*
X98095900Y-125000002D01*
X113638337Y-109457566D01*
X113650698Y-109447665D01*
X113650524Y-109447455D01*
X113656533Y-109442482D01*
X113656538Y-109442480D01*
X113704503Y-109391401D01*
X113725655Y-109370250D01*
X113729981Y-109364672D01*
X113733770Y-109360235D01*
X113766106Y-109325801D01*
X113775939Y-109307912D01*
X113786622Y-109291649D01*
X113799134Y-109275521D01*
X113817891Y-109232171D01*
X113820461Y-109226927D01*
X113843213Y-109185544D01*
X113843213Y-109185543D01*
X113843215Y-109185540D01*
X113848294Y-109165753D01*
X113854590Y-109147365D01*
X113862701Y-109128625D01*
X113870089Y-109081977D01*
X113871271Y-109076266D01*
X113883020Y-109030510D01*
X113883020Y-109010095D01*
X113884547Y-108990694D01*
X113887740Y-108970537D01*
X113883295Y-108923513D01*
X113883020Y-108917675D01*
X113883020Y-100975000D01*
X118525001Y-100975000D01*
X118525001Y-101061654D01*
X118535319Y-101162652D01*
X118589546Y-101326300D01*
X118589551Y-101326311D01*
X118680052Y-101473034D01*
X118680055Y-101473038D01*
X118801961Y-101594944D01*
X118801965Y-101594947D01*
X118948688Y-101685448D01*
X118948699Y-101685453D01*
X119112347Y-101739680D01*
X119213352Y-101749999D01*
X119250000Y-101749999D01*
X119250000Y-100975000D01*
X118525001Y-100975000D01*
X113883020Y-100975000D01*
X113883020Y-82233152D01*
X113884759Y-82217400D01*
X113884488Y-82217375D01*
X113885220Y-82209619D01*
X113885222Y-82209612D01*
X113883020Y-82139548D01*
X113883020Y-82109664D01*
X113882134Y-82102661D01*
X113881677Y-82096842D01*
X113880194Y-82049631D01*
X113874496Y-82030019D01*
X113870553Y-82010986D01*
X113867994Y-81990723D01*
X113850605Y-81946806D01*
X113848716Y-81941286D01*
X113835538Y-81895927D01*
X113825146Y-81878355D01*
X113816586Y-81860882D01*
X113809072Y-81841903D01*
X113781314Y-81803699D01*
X113778107Y-81798816D01*
X113766945Y-81779943D01*
X113754062Y-81758158D01*
X113739628Y-81743724D01*
X113726991Y-81728929D01*
X113714992Y-81712413D01*
X113714990Y-81712410D01*
X113678593Y-81682301D01*
X113674271Y-81678367D01*
X111853147Y-79857243D01*
X110218380Y-78222475D01*
X110184897Y-78161155D01*
X110189881Y-78091463D01*
X110231753Y-78035530D01*
X110297217Y-78011113D01*
X110356497Y-78021516D01*
X110517712Y-78093294D01*
X110704513Y-78133000D01*
X110895487Y-78133000D01*
X111082288Y-78093294D01*
X111256752Y-78015618D01*
X111411253Y-77903366D01*
X111539040Y-77761444D01*
X111634527Y-77596056D01*
X111693542Y-77414428D01*
X111706786Y-77288409D01*
X111733370Y-77223797D01*
X111790668Y-77183812D01*
X111860487Y-77181152D01*
X111917788Y-77213692D01*
X114642910Y-79938814D01*
X114652816Y-79951178D01*
X114653026Y-79951005D01*
X114658001Y-79957019D01*
X114709094Y-80004999D01*
X116673044Y-81968949D01*
X116706529Y-82030272D01*
X116701545Y-82099964D01*
X116684318Y-82131356D01*
X116573677Y-82277870D01*
X116481158Y-82463672D01*
X116424353Y-82663323D01*
X116405202Y-82869999D01*
X116405202Y-82870000D01*
X116424353Y-83076676D01*
X116481158Y-83276327D01*
X116573673Y-83462123D01*
X116573681Y-83462136D01*
X116578254Y-83468191D01*
X117114565Y-82931880D01*
X117125577Y-83001405D01*
X117185978Y-83119947D01*
X117280053Y-83214022D01*
X117398595Y-83274423D01*
X117468118Y-83285434D01*
X116934785Y-83818767D01*
X116934785Y-83818768D01*
X117028625Y-83876872D01*
X117028634Y-83876877D01*
X117222186Y-83951859D01*
X117426219Y-83990000D01*
X117633781Y-83990000D01*
X117837813Y-83951859D01*
X117837814Y-83951859D01*
X118031370Y-83876875D01*
X118125214Y-83818768D01*
X118125214Y-83818767D01*
X117591881Y-83285434D01*
X117661405Y-83274423D01*
X117779947Y-83214022D01*
X117874022Y-83119947D01*
X117934423Y-83001405D01*
X117945434Y-82931880D01*
X118481744Y-83468190D01*
X118481745Y-83468190D01*
X118486324Y-83462127D01*
X118486326Y-83462124D01*
X118578840Y-83276330D01*
X118578841Y-83276329D01*
X118635646Y-83076676D01*
X118654798Y-82870000D01*
X118654798Y-82869993D01*
X118654237Y-82863937D01*
X118667654Y-82795368D01*
X118716012Y-82744938D01*
X118777708Y-82728500D01*
X118822292Y-82728500D01*
X118889331Y-82748185D01*
X118935086Y-82800989D01*
X118945763Y-82863937D01*
X118945202Y-82869993D01*
X118945202Y-82870000D01*
X118964353Y-83076676D01*
X119021158Y-83276327D01*
X119113673Y-83462123D01*
X119113681Y-83462136D01*
X119118254Y-83468191D01*
X119654565Y-82931880D01*
X119665577Y-83001405D01*
X119725978Y-83119947D01*
X119820053Y-83214022D01*
X119938595Y-83274423D01*
X120008118Y-83285434D01*
X119474785Y-83818767D01*
X119474785Y-83818768D01*
X119568625Y-83876872D01*
X119568634Y-83876877D01*
X119762186Y-83951859D01*
X119966219Y-83990000D01*
X120173781Y-83990000D01*
X120377813Y-83951859D01*
X120377814Y-83951859D01*
X120571370Y-83876875D01*
X120665214Y-83818768D01*
X120665214Y-83818767D01*
X120131881Y-83285434D01*
X120201405Y-83274423D01*
X120319947Y-83214022D01*
X120414022Y-83119947D01*
X120474423Y-83001405D01*
X120485434Y-82931881D01*
X121021744Y-83468190D01*
X121021745Y-83468190D01*
X121026324Y-83462127D01*
X121026326Y-83462124D01*
X121118840Y-83276330D01*
X121118841Y-83276329D01*
X121175646Y-83076676D01*
X121194798Y-82870000D01*
X121194798Y-82869999D01*
X121175646Y-82663323D01*
X121118841Y-82463670D01*
X121118840Y-82463669D01*
X121026328Y-82277879D01*
X121026324Y-82277873D01*
X121021744Y-82271808D01*
X120485434Y-82808118D01*
X120474423Y-82738595D01*
X120414022Y-82620053D01*
X120319947Y-82525978D01*
X120201405Y-82465577D01*
X120131881Y-82454565D01*
X120665214Y-81921231D01*
X120665213Y-81921229D01*
X120571374Y-81863126D01*
X120377813Y-81788140D01*
X120173781Y-81750000D01*
X120055457Y-81750000D01*
X119988418Y-81730315D01*
X119942663Y-81677511D01*
X119931986Y-81614559D01*
X119933335Y-81600000D01*
X119933335Y-81599999D01*
X119931986Y-81585441D01*
X119945401Y-81516871D01*
X119993758Y-81466440D01*
X120055457Y-81450000D01*
X120173781Y-81450000D01*
X120377813Y-81411859D01*
X120377814Y-81411859D01*
X120571370Y-81336875D01*
X120665214Y-81278768D01*
X120665214Y-81278767D01*
X120131881Y-80745434D01*
X120201405Y-80734423D01*
X120319947Y-80674022D01*
X120414022Y-80579947D01*
X120474423Y-80461405D01*
X120485434Y-80391881D01*
X121021744Y-80928190D01*
X121021745Y-80928190D01*
X121026324Y-80922127D01*
X121026326Y-80922124D01*
X121118840Y-80736330D01*
X121118841Y-80736329D01*
X121175646Y-80536676D01*
X121194798Y-80330000D01*
X121194798Y-80329999D01*
X121175646Y-80123323D01*
X121118841Y-79923670D01*
X121118840Y-79923669D01*
X121107054Y-79900000D01*
X126600001Y-79900000D01*
X126600001Y-79936654D01*
X126610319Y-80037652D01*
X126664546Y-80201300D01*
X126664551Y-80201311D01*
X126755052Y-80348034D01*
X126755055Y-80348038D01*
X126876961Y-80469944D01*
X126876965Y-80469947D01*
X127023688Y-80560448D01*
X127023699Y-80560453D01*
X127187347Y-80614680D01*
X127288351Y-80624999D01*
X127375000Y-80624998D01*
X127375000Y-79900000D01*
X126600001Y-79900000D01*
X121107054Y-79900000D01*
X121026328Y-79737879D01*
X121026324Y-79737873D01*
X121021744Y-79731808D01*
X120485434Y-80268118D01*
X120474423Y-80198595D01*
X120414022Y-80080053D01*
X120319947Y-79985978D01*
X120201405Y-79925577D01*
X120131881Y-79914565D01*
X120646445Y-79400000D01*
X126600000Y-79400000D01*
X127375000Y-79400000D01*
X127375000Y-78675000D01*
X127374999Y-78674999D01*
X127288360Y-78675000D01*
X127288343Y-78675001D01*
X127187347Y-78685319D01*
X127023699Y-78739546D01*
X127023688Y-78739551D01*
X126876965Y-78830052D01*
X126876961Y-78830055D01*
X126755055Y-78951961D01*
X126755052Y-78951965D01*
X126664551Y-79098688D01*
X126664546Y-79098699D01*
X126610319Y-79262347D01*
X126600000Y-79363345D01*
X126600000Y-79400000D01*
X120646445Y-79400000D01*
X120665214Y-79381231D01*
X120665213Y-79381229D01*
X120571374Y-79323126D01*
X120377813Y-79248140D01*
X120173781Y-79210000D01*
X119966219Y-79210000D01*
X119762186Y-79248140D01*
X119762185Y-79248140D01*
X119568634Y-79323121D01*
X119568633Y-79323122D01*
X119474784Y-79381231D01*
X120008119Y-79914565D01*
X119938595Y-79925577D01*
X119820053Y-79985978D01*
X119725978Y-80080053D01*
X119665577Y-80198595D01*
X119654565Y-80268118D01*
X119118254Y-79731807D01*
X119118253Y-79731808D01*
X119113679Y-79737866D01*
X119113675Y-79737872D01*
X119021158Y-79923672D01*
X118964353Y-80123323D01*
X118945202Y-80329999D01*
X118945202Y-80330006D01*
X118945763Y-80336063D01*
X118932346Y-80404632D01*
X118883988Y-80455062D01*
X118822292Y-80471500D01*
X118777708Y-80471500D01*
X118710669Y-80451815D01*
X118664914Y-80399011D01*
X118654237Y-80336063D01*
X118654798Y-80330006D01*
X118654798Y-80329999D01*
X118635646Y-80123323D01*
X118578841Y-79923670D01*
X118578840Y-79923669D01*
X118486328Y-79737879D01*
X118486324Y-79737873D01*
X118481744Y-79731808D01*
X117945434Y-80268117D01*
X117934423Y-80198595D01*
X117874022Y-80080053D01*
X117779947Y-79985978D01*
X117661405Y-79925577D01*
X117591881Y-79914565D01*
X118125214Y-79381231D01*
X118125213Y-79381229D01*
X118031374Y-79323126D01*
X117837813Y-79248140D01*
X117633781Y-79210000D01*
X117426219Y-79210000D01*
X117222186Y-79248140D01*
X117222185Y-79248140D01*
X117028634Y-79323121D01*
X117028633Y-79323122D01*
X116934784Y-79381231D01*
X117468119Y-79914565D01*
X117398595Y-79925577D01*
X117280053Y-79985978D01*
X117185978Y-80080053D01*
X117125577Y-80198595D01*
X117114565Y-80268119D01*
X116578254Y-79731808D01*
X116578253Y-79731808D01*
X116573679Y-79737866D01*
X116573675Y-79737872D01*
X116537506Y-79810511D01*
X116490003Y-79861748D01*
X116422340Y-79879169D01*
X116356000Y-79857243D01*
X116338829Y-79842925D01*
X116183581Y-79687676D01*
X116150099Y-79626357D01*
X116155083Y-79556666D01*
X116183582Y-79512321D01*
X117131086Y-78564818D01*
X117192409Y-78531333D01*
X117218767Y-78528499D01*
X117299989Y-78528499D01*
X117302649Y-78528289D01*
X117336466Y-78525629D01*
X117492596Y-78480269D01*
X117632541Y-78397506D01*
X117747506Y-78282541D01*
X117830269Y-78142596D01*
X117875629Y-77986466D01*
X117877878Y-77957888D01*
X117878500Y-77949992D01*
X117878499Y-77450011D01*
X117877678Y-77439574D01*
X117875629Y-77413534D01*
X117830269Y-77257404D01*
X117772607Y-77159903D01*
X117750768Y-77122974D01*
X117733500Y-77059853D01*
X117733500Y-77040146D01*
X117750768Y-76977025D01*
X117755360Y-76969260D01*
X117830269Y-76842596D01*
X117875629Y-76686466D01*
X117877543Y-76662148D01*
X117878500Y-76649992D01*
X117878500Y-76429371D01*
X117878499Y-76207499D01*
X117898183Y-76140461D01*
X117950987Y-76094706D01*
X118002499Y-76083500D01*
X123486234Y-76083500D01*
X123553273Y-76103185D01*
G37*
%TD.AperFunction*%
%TA.AperFunction,Conductor*%
G36*
X112085834Y-102412583D02*
G01*
X112141767Y-102454455D01*
X112166184Y-102519919D01*
X112166500Y-102528765D01*
X112166500Y-108386233D01*
X112146815Y-108453272D01*
X112130181Y-108473914D01*
X94595181Y-126008914D01*
X94533858Y-126042399D01*
X94464166Y-126037415D01*
X94408233Y-125995543D01*
X94383816Y-125930079D01*
X94383500Y-125921233D01*
X94383500Y-125797781D01*
X94380562Y-125760456D01*
X94380561Y-125760450D01*
X94334146Y-125600689D01*
X94334145Y-125600685D01*
X94315439Y-125569056D01*
X94298257Y-125501333D01*
X94315443Y-125442810D01*
X94326281Y-125424485D01*
X94372100Y-125266772D01*
X94372295Y-125264287D01*
X94372295Y-125264286D01*
X94035414Y-125264286D01*
X93996415Y-125256210D01*
X93996094Y-125257318D01*
X93828829Y-125208723D01*
X93791505Y-125205786D01*
X93791502Y-125205786D01*
X92974000Y-125205786D01*
X92906961Y-125186101D01*
X92861206Y-125133297D01*
X92850000Y-125081786D01*
X92850000Y-124214286D01*
X93350000Y-124214286D01*
X93350000Y-124764286D01*
X94372295Y-124764286D01*
X94372295Y-124764284D01*
X94372100Y-124761799D01*
X94326281Y-124604087D01*
X94242685Y-124462733D01*
X94242678Y-124462724D01*
X94126561Y-124346607D01*
X94126552Y-124346600D01*
X93985196Y-124263003D01*
X93985193Y-124263002D01*
X93827495Y-124217186D01*
X93827489Y-124217185D01*
X93790644Y-124214286D01*
X93350000Y-124214286D01*
X92850000Y-124214286D01*
X92409356Y-124214286D01*
X92372510Y-124217185D01*
X92372504Y-124217186D01*
X92214806Y-124263002D01*
X92214803Y-124263003D01*
X92073447Y-124346600D01*
X92073438Y-124346607D01*
X91957318Y-124462727D01*
X91955479Y-124465099D01*
X91953564Y-124466481D01*
X91951800Y-124468246D01*
X91951515Y-124467961D01*
X91898835Y-124506006D01*
X91829068Y-124509795D01*
X91768328Y-124475263D01*
X91735900Y-124413375D01*
X91733500Y-124389098D01*
X91733500Y-122757500D01*
X91753185Y-122690461D01*
X91805989Y-122644706D01*
X91857500Y-122633500D01*
X94516366Y-122633500D01*
X94532113Y-122635238D01*
X94532139Y-122634968D01*
X94539905Y-122635701D01*
X94539909Y-122635702D01*
X94609958Y-122633500D01*
X94639856Y-122633500D01*
X94639857Y-122633500D01*
X94641222Y-122633327D01*
X94646862Y-122632614D01*
X94652685Y-122632156D01*
X94678708Y-122631338D01*
X94699890Y-122630673D01*
X94709681Y-122627827D01*
X94719481Y-122624980D01*
X94738538Y-122621032D01*
X94758797Y-122618474D01*
X94802721Y-122601082D01*
X94808221Y-122599199D01*
X94853593Y-122586018D01*
X94871165Y-122575625D01*
X94888632Y-122567068D01*
X94907617Y-122559552D01*
X94945826Y-122531790D01*
X94950704Y-122528585D01*
X94991362Y-122504542D01*
X95005802Y-122490100D01*
X95020592Y-122477470D01*
X95037107Y-122465472D01*
X95067222Y-122429067D01*
X95071126Y-122424776D01*
X96581086Y-120914818D01*
X96642409Y-120881333D01*
X96668767Y-120878499D01*
X96749989Y-120878499D01*
X96752649Y-120878289D01*
X96786466Y-120875629D01*
X96942596Y-120830269D01*
X97082541Y-120747506D01*
X97197506Y-120632541D01*
X97280269Y-120492596D01*
X97325629Y-120336466D01*
X97328500Y-120299989D01*
X97328499Y-119900012D01*
X97325629Y-119863534D01*
X97280269Y-119707404D01*
X97248165Y-119653120D01*
X97230982Y-119585399D01*
X97248166Y-119526878D01*
X97280269Y-119472596D01*
X97325629Y-119316466D01*
X97328500Y-119279989D01*
X97328499Y-118880012D01*
X97325629Y-118843534D01*
X97280269Y-118687404D01*
X97197506Y-118547459D01*
X97197504Y-118547457D01*
X97197501Y-118547453D01*
X97082546Y-118432498D01*
X97082538Y-118432492D01*
X96942594Y-118349730D01*
X96942591Y-118349729D01*
X96786473Y-118304372D01*
X96786460Y-118304370D01*
X96749992Y-118301500D01*
X96393764Y-118301500D01*
X96326725Y-118281815D01*
X96280970Y-118229011D01*
X96271026Y-118159853D01*
X96300051Y-118096297D01*
X96306069Y-118089833D01*
X111954821Y-102441082D01*
X112016142Y-102407599D01*
X112085834Y-102412583D01*
G37*
%TD.AperFunction*%
%TA.AperFunction,Conductor*%
G36*
X93432113Y-113935238D02*
G01*
X93432139Y-113934968D01*
X93439905Y-113935701D01*
X93439909Y-113935702D01*
X93509958Y-113933500D01*
X94496234Y-113933500D01*
X94563273Y-113953185D01*
X94583915Y-113969819D01*
X95535181Y-114921085D01*
X95568666Y-114982408D01*
X95571500Y-115008765D01*
X95571501Y-115089989D01*
X95571501Y-115089988D01*
X95574371Y-115126466D01*
X95619729Y-115282591D01*
X95619730Y-115282594D01*
X95651834Y-115336880D01*
X95669015Y-115404604D01*
X95651834Y-115463120D01*
X95619730Y-115517405D01*
X95619729Y-115517408D01*
X95574372Y-115673527D01*
X95574370Y-115673539D01*
X95571500Y-115710008D01*
X95571500Y-116081231D01*
X95551815Y-116148270D01*
X95535181Y-116168912D01*
X94595181Y-117108913D01*
X94533858Y-117142398D01*
X94464167Y-117137414D01*
X94408233Y-117095542D01*
X94383816Y-117030078D01*
X94383500Y-117021232D01*
X94383500Y-116854923D01*
X94380562Y-116817598D01*
X94380561Y-116817592D01*
X94334146Y-116657831D01*
X94334145Y-116657827D01*
X94315439Y-116626198D01*
X94298257Y-116558475D01*
X94315443Y-116499952D01*
X94326281Y-116481627D01*
X94372100Y-116323914D01*
X94372295Y-116321429D01*
X94372295Y-116321428D01*
X94035414Y-116321428D01*
X93996415Y-116313352D01*
X93996094Y-116314460D01*
X93828829Y-116265865D01*
X93791505Y-116262928D01*
X93791502Y-116262928D01*
X92974000Y-116262928D01*
X92906961Y-116243243D01*
X92861206Y-116190439D01*
X92850000Y-116138928D01*
X92850000Y-115271428D01*
X93350000Y-115271428D01*
X93350000Y-115821428D01*
X94372295Y-115821428D01*
X94372295Y-115821426D01*
X94372100Y-115818941D01*
X94326281Y-115661229D01*
X94242685Y-115519875D01*
X94242678Y-115519866D01*
X94126561Y-115403749D01*
X94126552Y-115403742D01*
X93985196Y-115320145D01*
X93985193Y-115320144D01*
X93827495Y-115274328D01*
X93827489Y-115274327D01*
X93790644Y-115271428D01*
X93350000Y-115271428D01*
X92850000Y-115271428D01*
X92409356Y-115271428D01*
X92372510Y-115274327D01*
X92372504Y-115274328D01*
X92214806Y-115320144D01*
X92214803Y-115320145D01*
X92073447Y-115403742D01*
X92073438Y-115403749D01*
X91957318Y-115519869D01*
X91955479Y-115522241D01*
X91953564Y-115523623D01*
X91951800Y-115525388D01*
X91951515Y-115525103D01*
X91898835Y-115563148D01*
X91829068Y-115566937D01*
X91768328Y-115532405D01*
X91735900Y-115470517D01*
X91733500Y-115446240D01*
X91733500Y-114057500D01*
X91753185Y-113990461D01*
X91805989Y-113944706D01*
X91857500Y-113933500D01*
X93416366Y-113933500D01*
X93432113Y-113935238D01*
G37*
%TD.AperFunction*%
%TA.AperFunction,Conductor*%
G36*
X111085834Y-94112583D02*
G01*
X111141767Y-94154455D01*
X111166184Y-94219919D01*
X111166500Y-94228765D01*
X111166500Y-100486232D01*
X111146815Y-100553271D01*
X111130181Y-100573913D01*
X97303125Y-114400968D01*
X97241802Y-114434453D01*
X97172110Y-114429469D01*
X97116177Y-114387597D01*
X97108711Y-114376406D01*
X97097508Y-114357462D01*
X97097501Y-114357453D01*
X96982546Y-114242498D01*
X96982538Y-114242492D01*
X96842594Y-114159730D01*
X96842591Y-114159729D01*
X96686473Y-114114372D01*
X96686460Y-114114370D01*
X96649992Y-114111500D01*
X96649989Y-114111500D01*
X96568766Y-114111500D01*
X96501727Y-114091815D01*
X96481085Y-114075181D01*
X95317088Y-112911183D01*
X95307187Y-112898823D01*
X95306977Y-112898998D01*
X95302002Y-112892986D01*
X95302000Y-112892982D01*
X95275657Y-112868245D01*
X95250921Y-112845015D01*
X95229768Y-112823863D01*
X95227792Y-112822331D01*
X95224183Y-112819531D01*
X95219750Y-112815744D01*
X95185321Y-112783414D01*
X95185319Y-112783412D01*
X95167431Y-112773578D01*
X95151172Y-112762898D01*
X95139445Y-112753802D01*
X95098537Y-112697160D01*
X95094746Y-112627393D01*
X95127760Y-112568142D01*
X95681085Y-112014818D01*
X95742408Y-111981333D01*
X95768766Y-111978499D01*
X95849989Y-111978499D01*
X95852649Y-111978289D01*
X95886466Y-111975629D01*
X96042596Y-111930269D01*
X96182541Y-111847506D01*
X96297506Y-111732541D01*
X96380269Y-111592596D01*
X96425629Y-111436466D01*
X96428500Y-111399989D01*
X96428499Y-111000012D01*
X96425629Y-110963534D01*
X96380269Y-110807404D01*
X96348165Y-110753120D01*
X96330982Y-110685399D01*
X96348166Y-110626878D01*
X96380269Y-110572596D01*
X96425629Y-110416466D01*
X96428500Y-110379989D01*
X96428499Y-109980012D01*
X96425629Y-109943534D01*
X96380269Y-109787404D01*
X96297506Y-109647459D01*
X96297504Y-109647457D01*
X96297501Y-109647453D01*
X96182546Y-109532498D01*
X96182538Y-109532492D01*
X96042594Y-109449730D01*
X96042591Y-109449729D01*
X95936762Y-109418983D01*
X95877877Y-109381377D01*
X95848670Y-109317905D01*
X95858416Y-109248718D01*
X95883673Y-109212229D01*
X110954821Y-94141082D01*
X111016142Y-94107599D01*
X111085834Y-94112583D01*
G37*
%TD.AperFunction*%
%TA.AperFunction,Conductor*%
G36*
X93932113Y-104935238D02*
G01*
X93932139Y-104934968D01*
X93939905Y-104935701D01*
X93939909Y-104935702D01*
X94009958Y-104933500D01*
X94886234Y-104933500D01*
X94953273Y-104953185D01*
X94973915Y-104969819D01*
X95535181Y-105531085D01*
X95568666Y-105592408D01*
X95571500Y-105618766D01*
X95571501Y-105989989D01*
X95571501Y-105989988D01*
X95574371Y-106026466D01*
X95619729Y-106182591D01*
X95619730Y-106182594D01*
X95651834Y-106236880D01*
X95669015Y-106304604D01*
X95651834Y-106363120D01*
X95619730Y-106417405D01*
X95619729Y-106417408D01*
X95574372Y-106573527D01*
X95574370Y-106573539D01*
X95571500Y-106610008D01*
X95571500Y-106981231D01*
X95551815Y-107048270D01*
X95535181Y-107068912D01*
X94595181Y-108008913D01*
X94533858Y-108042398D01*
X94464167Y-108037414D01*
X94408233Y-107995542D01*
X94383816Y-107930078D01*
X94383500Y-107921232D01*
X94383500Y-107912066D01*
X94380562Y-107874741D01*
X94380561Y-107874735D01*
X94334146Y-107714974D01*
X94334145Y-107714970D01*
X94315439Y-107683341D01*
X94298257Y-107615618D01*
X94315443Y-107557095D01*
X94326281Y-107538770D01*
X94372100Y-107381057D01*
X94372295Y-107378572D01*
X94372295Y-107378571D01*
X94035414Y-107378571D01*
X93996415Y-107370495D01*
X93996094Y-107371603D01*
X93828829Y-107323008D01*
X93791505Y-107320071D01*
X93791502Y-107320071D01*
X92974000Y-107320071D01*
X92906961Y-107300386D01*
X92861206Y-107247582D01*
X92850000Y-107196071D01*
X92850000Y-106328571D01*
X93350000Y-106328571D01*
X93350000Y-106878571D01*
X94372295Y-106878571D01*
X94372295Y-106878569D01*
X94372100Y-106876084D01*
X94326281Y-106718372D01*
X94242685Y-106577018D01*
X94242678Y-106577009D01*
X94126561Y-106460892D01*
X94126552Y-106460885D01*
X93985196Y-106377288D01*
X93985193Y-106377287D01*
X93827495Y-106331471D01*
X93827489Y-106331470D01*
X93790644Y-106328571D01*
X93350000Y-106328571D01*
X92850000Y-106328571D01*
X92409356Y-106328571D01*
X92372510Y-106331470D01*
X92372504Y-106331471D01*
X92214806Y-106377287D01*
X92214803Y-106377288D01*
X92073447Y-106460885D01*
X92073438Y-106460892D01*
X91957318Y-106577012D01*
X91955479Y-106579384D01*
X91953564Y-106580766D01*
X91951800Y-106582531D01*
X91951515Y-106582246D01*
X91898835Y-106620291D01*
X91829068Y-106624080D01*
X91768328Y-106589548D01*
X91735900Y-106527660D01*
X91733500Y-106503383D01*
X91733500Y-105057500D01*
X91753185Y-104990461D01*
X91805989Y-104944706D01*
X91857500Y-104933500D01*
X93916366Y-104933500D01*
X93932113Y-104935238D01*
G37*
%TD.AperFunction*%
%TA.AperFunction,Conductor*%
G36*
X110135354Y-85763064D02*
G01*
X110191287Y-85804936D01*
X110215704Y-85870400D01*
X110216020Y-85879246D01*
X110216020Y-92336712D01*
X110196335Y-92403751D01*
X110179701Y-92424393D01*
X97303125Y-105300968D01*
X97241802Y-105334453D01*
X97172110Y-105329469D01*
X97116177Y-105287597D01*
X97108711Y-105276406D01*
X97097508Y-105257462D01*
X97097501Y-105257453D01*
X96982546Y-105142498D01*
X96982543Y-105142496D01*
X96982541Y-105142494D01*
X96900777Y-105094138D01*
X96871737Y-105067710D01*
X96870812Y-105068579D01*
X96865471Y-105062892D01*
X96829084Y-105032790D01*
X96824772Y-105028867D01*
X95707088Y-103911183D01*
X95697187Y-103898823D01*
X95696977Y-103898998D01*
X95692002Y-103892986D01*
X95692000Y-103892982D01*
X95663372Y-103866099D01*
X95640922Y-103845016D01*
X95619768Y-103823863D01*
X95619766Y-103823861D01*
X95614195Y-103819540D01*
X95609751Y-103815745D01*
X95584625Y-103792150D01*
X95549229Y-103731910D01*
X95552021Y-103662096D01*
X95581824Y-103614078D01*
X96488815Y-102707087D01*
X96501180Y-102697183D01*
X96501006Y-102696973D01*
X96507012Y-102692003D01*
X96507018Y-102692000D01*
X96554999Y-102640904D01*
X96576134Y-102619770D01*
X96580463Y-102614187D01*
X96584242Y-102609763D01*
X96616586Y-102575321D01*
X96626423Y-102557424D01*
X96637097Y-102541174D01*
X96649613Y-102525041D01*
X96668372Y-102481689D01*
X96670933Y-102476462D01*
X96693695Y-102435060D01*
X96698774Y-102415274D01*
X96705072Y-102396882D01*
X96713181Y-102378145D01*
X96720568Y-102331501D01*
X96721748Y-102325794D01*
X96733500Y-102280030D01*
X96733500Y-102259609D01*
X96735027Y-102240209D01*
X96736739Y-102229404D01*
X96738219Y-102220057D01*
X96733775Y-102173040D01*
X96733500Y-102167203D01*
X96733500Y-100757909D01*
X96753185Y-100690870D01*
X96769815Y-100670231D01*
X96797506Y-100642541D01*
X96880269Y-100502596D01*
X96925629Y-100346466D01*
X96927543Y-100322148D01*
X96928500Y-100309992D01*
X96928499Y-99910011D01*
X96928499Y-99910012D01*
X96925629Y-99873534D01*
X96880269Y-99717404D01*
X96848165Y-99663120D01*
X96830982Y-99595399D01*
X96848166Y-99536878D01*
X96849429Y-99534743D01*
X96880269Y-99482596D01*
X96925629Y-99326466D01*
X96928500Y-99289989D01*
X96928499Y-98918765D01*
X96948183Y-98851727D01*
X96964813Y-98831090D01*
X110004339Y-85791565D01*
X110065662Y-85758080D01*
X110135354Y-85763064D01*
G37*
%TD.AperFunction*%
%TA.AperFunction,Conductor*%
G36*
X143917539Y-60045185D02*
G01*
X143963294Y-60097989D01*
X143974500Y-60149500D01*
X143974500Y-69426000D01*
X143954815Y-69493039D01*
X143902011Y-69538794D01*
X143850500Y-69550000D01*
X131499999Y-69550000D01*
X131349999Y-97199999D01*
X131366571Y-97216768D01*
X131399692Y-97278289D01*
X131394295Y-97347949D01*
X131352094Y-97403634D01*
X131290974Y-97427287D01*
X131212347Y-97435319D01*
X131048699Y-97489546D01*
X131048688Y-97489551D01*
X130901965Y-97580052D01*
X130901961Y-97580055D01*
X130780055Y-97701961D01*
X130780052Y-97701965D01*
X130689551Y-97848688D01*
X130689546Y-97848699D01*
X130635319Y-98012347D01*
X130625000Y-98113345D01*
X130625000Y-98200000D01*
X132538638Y-98200000D01*
X132605677Y-98219685D01*
X132612273Y-98225000D01*
X134304802Y-98225000D01*
X134322504Y-98215334D01*
X134348862Y-98212500D01*
X137075000Y-98212500D01*
X137075000Y-97950027D01*
X137074999Y-97950014D01*
X137064506Y-97847310D01*
X137064505Y-97847303D01*
X137009358Y-97680881D01*
X137009356Y-97680876D01*
X136917315Y-97531655D01*
X136833051Y-97447391D01*
X136799566Y-97386068D01*
X136804550Y-97316376D01*
X136846422Y-97260443D01*
X136911886Y-97236026D01*
X136921486Y-97235714D01*
X137813494Y-97241432D01*
X137880406Y-97261546D01*
X137925821Y-97314642D01*
X137935321Y-97383863D01*
X137905889Y-97447231D01*
X137887426Y-97464383D01*
X137788100Y-97539391D01*
X137638278Y-97703738D01*
X137521202Y-97892820D01*
X137521201Y-97892822D01*
X137440864Y-98100195D01*
X137425948Y-98180000D01*
X138366314Y-98180000D01*
X138340507Y-98220156D01*
X138300000Y-98358111D01*
X138300000Y-98501889D01*
X138340507Y-98639844D01*
X138366314Y-98680000D01*
X137425948Y-98680000D01*
X137440864Y-98759804D01*
X137521201Y-98967177D01*
X137521202Y-98967179D01*
X137638278Y-99156261D01*
X137788099Y-99320608D01*
X137965574Y-99454631D01*
X138164651Y-99553760D01*
X138164650Y-99553760D01*
X138243457Y-99576182D01*
X138302551Y-99613461D01*
X138332109Y-99676770D01*
X138322748Y-99746010D01*
X138277438Y-99799197D01*
X138242514Y-99814980D01*
X138173653Y-99833984D01*
X138173643Y-99833988D01*
X137977659Y-99928368D01*
X137977649Y-99928374D01*
X137801672Y-100056229D01*
X137801664Y-100056235D01*
X137651338Y-100213464D01*
X137606884Y-100280811D01*
X137553525Y-100325916D01*
X137503397Y-100336500D01*
X136769827Y-100336500D01*
X136704730Y-100318038D01*
X136647738Y-100282884D01*
X136647735Y-100282883D01*
X136479428Y-100227113D01*
X136375551Y-100216500D01*
X136375544Y-100216500D01*
X136138766Y-100216500D01*
X136071727Y-100196815D01*
X136051085Y-100180181D01*
X135757586Y-99886681D01*
X135724101Y-99825358D01*
X135729085Y-99755666D01*
X135770957Y-99699733D01*
X135836421Y-99675316D01*
X135845267Y-99675000D01*
X136374973Y-99675000D01*
X136374985Y-99674999D01*
X136477689Y-99664506D01*
X136477696Y-99664505D01*
X136644118Y-99609358D01*
X136644123Y-99609356D01*
X136793344Y-99517315D01*
X136917315Y-99393344D01*
X137009356Y-99244123D01*
X137009358Y-99244118D01*
X137064505Y-99077696D01*
X137064506Y-99077689D01*
X137074999Y-98974985D01*
X137075000Y-98974972D01*
X137075000Y-98712500D01*
X134495198Y-98712500D01*
X134477496Y-98722166D01*
X134451138Y-98725000D01*
X132561362Y-98725000D01*
X132494323Y-98705315D01*
X132487727Y-98700000D01*
X130656366Y-98700000D01*
X130589327Y-98680315D01*
X130568689Y-98663685D01*
X130503346Y-98598342D01*
X130503345Y-98598341D01*
X130503344Y-98598340D01*
X130462569Y-98573189D01*
X130415845Y-98521240D01*
X130412375Y-98513300D01*
X130411568Y-98511261D01*
X130401082Y-98484776D01*
X130399195Y-98479263D01*
X130393404Y-98459332D01*
X130386018Y-98433907D01*
X130375622Y-98416329D01*
X130367066Y-98398862D01*
X130364216Y-98391663D01*
X130359552Y-98379883D01*
X130331794Y-98341679D01*
X130328587Y-98336796D01*
X130309620Y-98304725D01*
X130304542Y-98296138D01*
X130290108Y-98281704D01*
X130277471Y-98266909D01*
X130265472Y-98250393D01*
X130265470Y-98250390D01*
X130229073Y-98220281D01*
X130224751Y-98216347D01*
X130074688Y-98066284D01*
X130041203Y-98004961D01*
X130044662Y-97939602D01*
X130072887Y-97854426D01*
X130083500Y-97750545D01*
X130083499Y-96824456D01*
X130072887Y-96720574D01*
X130017115Y-96552262D01*
X129924030Y-96401348D01*
X129798652Y-96275970D01*
X129647738Y-96182885D01*
X129647735Y-96182884D01*
X129479427Y-96127113D01*
X129375545Y-96116500D01*
X127424462Y-96116500D01*
X127424446Y-96116501D01*
X127320572Y-96127113D01*
X127152264Y-96182884D01*
X127152259Y-96182886D01*
X127001346Y-96275971D01*
X126875971Y-96401346D01*
X126782886Y-96552259D01*
X126782884Y-96552264D01*
X126727113Y-96720572D01*
X126716500Y-96824447D01*
X126716500Y-96886232D01*
X126696815Y-96953271D01*
X126680181Y-96973913D01*
X125411179Y-98242914D01*
X125398820Y-98252818D01*
X125398993Y-98253027D01*
X125392983Y-98257999D01*
X125392982Y-98257999D01*
X125392982Y-98258000D01*
X125357168Y-98296138D01*
X125345016Y-98309078D01*
X125323872Y-98330222D01*
X125323857Y-98330239D01*
X125319531Y-98335814D01*
X125315747Y-98340244D01*
X125283419Y-98374671D01*
X125283412Y-98374681D01*
X125273579Y-98392567D01*
X125262903Y-98408820D01*
X125250387Y-98424956D01*
X125235511Y-98459332D01*
X125190819Y-98513040D01*
X125165045Y-98526265D01*
X125103798Y-98549109D01*
X125103795Y-98549111D01*
X124986739Y-98636739D01*
X124899111Y-98753795D01*
X124848011Y-98890795D01*
X124848011Y-98890797D01*
X124841500Y-98951345D01*
X124841500Y-99848654D01*
X124848011Y-99909202D01*
X124848011Y-99909204D01*
X124885048Y-100008500D01*
X124899111Y-100046204D01*
X124986739Y-100163261D01*
X125053802Y-100213464D01*
X125103587Y-100250733D01*
X125145458Y-100306667D01*
X125150442Y-100376359D01*
X125116957Y-100437682D01*
X125103587Y-100449267D01*
X124986739Y-100536739D01*
X124899111Y-100653795D01*
X124848011Y-100790795D01*
X124848011Y-100790797D01*
X124841500Y-100851345D01*
X124841500Y-101748654D01*
X124848010Y-101809201D01*
X124873647Y-101877933D01*
X124878631Y-101947624D01*
X124845147Y-102008948D01*
X124845146Y-102008948D01*
X124473914Y-102380181D01*
X124412591Y-102413666D01*
X124386233Y-102416500D01*
X124363946Y-102416500D01*
X124296907Y-102396815D01*
X124258407Y-102357596D01*
X124251659Y-102346656D01*
X124251658Y-102346654D01*
X124128346Y-102223342D01*
X124128345Y-102223341D01*
X124128344Y-102223340D01*
X124101937Y-102207052D01*
X124055212Y-102155104D01*
X124043991Y-102086141D01*
X124067766Y-102027205D01*
X124135889Y-101936204D01*
X124186989Y-101799201D01*
X124192279Y-101749998D01*
X124193499Y-101738654D01*
X124193500Y-101738637D01*
X124193500Y-100581362D01*
X124193499Y-100581345D01*
X124189417Y-100543383D01*
X124186989Y-100520799D01*
X124176660Y-100493107D01*
X124160250Y-100449111D01*
X124135889Y-100383796D01*
X124048261Y-100266739D01*
X123931204Y-100179111D01*
X123931202Y-100179110D01*
X123931204Y-100179110D01*
X123923349Y-100176181D01*
X123867415Y-100134310D01*
X123842999Y-100068845D01*
X123857851Y-100000572D01*
X123907257Y-99951167D01*
X123923349Y-99943819D01*
X123926147Y-99942774D01*
X123931204Y-99940889D01*
X124048261Y-99853261D01*
X124135889Y-99736204D01*
X124185209Y-99603973D01*
X124186988Y-99599204D01*
X124186988Y-99599203D01*
X124186989Y-99599201D01*
X124191874Y-99553761D01*
X124193499Y-99538654D01*
X124193500Y-99538637D01*
X124193500Y-98381362D01*
X124193499Y-98381345D01*
X124188851Y-98338119D01*
X124186989Y-98320799D01*
X124182617Y-98309078D01*
X124160729Y-98250393D01*
X124135889Y-98183796D01*
X124048261Y-98066739D01*
X123931204Y-97979111D01*
X123794203Y-97928011D01*
X123733654Y-97921500D01*
X123733638Y-97921500D01*
X122986362Y-97921500D01*
X122986345Y-97921500D01*
X122925797Y-97928011D01*
X122925795Y-97928011D01*
X122788795Y-97979111D01*
X122671739Y-98066739D01*
X122584111Y-98183795D01*
X122533011Y-98320795D01*
X122531229Y-98328341D01*
X122529284Y-98327881D01*
X122506550Y-98382764D01*
X122449157Y-98422611D01*
X122379331Y-98425104D01*
X122319243Y-98389450D01*
X122287970Y-98326970D01*
X122287227Y-98321809D01*
X122286988Y-98320795D01*
X122260729Y-98250393D01*
X122235889Y-98183796D01*
X122148261Y-98066739D01*
X122143185Y-98062939D01*
X122101316Y-98007003D01*
X122093500Y-97963675D01*
X122093500Y-97703765D01*
X122113185Y-97636726D01*
X122129814Y-97616089D01*
X125283403Y-94462500D01*
X126725001Y-94462500D01*
X126725001Y-94674986D01*
X126735494Y-94777697D01*
X126790641Y-94944119D01*
X126790643Y-94944124D01*
X126882684Y-95093345D01*
X127006654Y-95217315D01*
X127155875Y-95309356D01*
X127155880Y-95309358D01*
X127322302Y-95364505D01*
X127322309Y-95364506D01*
X127425019Y-95374999D01*
X128149999Y-95374999D01*
X128150000Y-95374998D01*
X128150000Y-94462500D01*
X128650000Y-94462500D01*
X128650000Y-95374999D01*
X129374972Y-95374999D01*
X129374986Y-95374998D01*
X129477697Y-95364505D01*
X129644119Y-95309358D01*
X129644124Y-95309356D01*
X129793345Y-95217315D01*
X129917315Y-95093345D01*
X130009356Y-94944124D01*
X130009358Y-94944119D01*
X130064505Y-94777697D01*
X130064506Y-94777690D01*
X130074999Y-94674986D01*
X130075000Y-94674973D01*
X130075000Y-94462500D01*
X128650000Y-94462500D01*
X128150000Y-94462500D01*
X126725001Y-94462500D01*
X125283403Y-94462500D01*
X125783403Y-93962500D01*
X126725000Y-93962500D01*
X128150000Y-93962500D01*
X128150000Y-93050000D01*
X128650000Y-93050000D01*
X128650000Y-93962500D01*
X130074999Y-93962500D01*
X130074999Y-93750028D01*
X130074998Y-93750013D01*
X130064505Y-93647302D01*
X130009358Y-93480880D01*
X130009356Y-93480875D01*
X129917315Y-93331654D01*
X129793345Y-93207684D01*
X129644124Y-93115643D01*
X129644119Y-93115641D01*
X129477697Y-93060494D01*
X129477690Y-93060493D01*
X129374986Y-93050000D01*
X128650000Y-93050000D01*
X128150000Y-93050000D01*
X127425028Y-93050000D01*
X127425012Y-93050001D01*
X127322302Y-93060494D01*
X127155880Y-93115641D01*
X127155875Y-93115643D01*
X127006654Y-93207684D01*
X126882684Y-93331654D01*
X126790643Y-93480875D01*
X126790641Y-93480880D01*
X126735494Y-93647302D01*
X126735493Y-93647309D01*
X126725000Y-93750013D01*
X126725000Y-93962500D01*
X125783403Y-93962500D01*
X129763815Y-89982087D01*
X129776180Y-89972183D01*
X129776006Y-89971973D01*
X129782012Y-89967003D01*
X129782018Y-89967000D01*
X129829999Y-89915904D01*
X129851134Y-89894770D01*
X129855463Y-89889187D01*
X129859242Y-89884763D01*
X129891586Y-89850321D01*
X129901423Y-89832424D01*
X129912097Y-89816174D01*
X129924613Y-89800041D01*
X129943372Y-89756689D01*
X129945933Y-89751462D01*
X129968695Y-89710060D01*
X129973774Y-89690274D01*
X129980072Y-89671882D01*
X129988181Y-89653145D01*
X129995568Y-89606501D01*
X129996748Y-89600794D01*
X130008500Y-89555030D01*
X130008500Y-89534609D01*
X130010027Y-89515209D01*
X130013219Y-89495057D01*
X130008775Y-89448040D01*
X130008500Y-89442203D01*
X130008500Y-80619786D01*
X130028185Y-80552747D01*
X130067402Y-80514248D01*
X130128346Y-80476658D01*
X130251658Y-80353346D01*
X130343209Y-80204920D01*
X130398062Y-80039381D01*
X130408500Y-79937213D01*
X130408499Y-79362788D01*
X130398062Y-79260619D01*
X130343209Y-79095080D01*
X130343205Y-79095074D01*
X130343204Y-79095071D01*
X130251660Y-78946657D01*
X130251659Y-78946656D01*
X130251658Y-78946654D01*
X130128346Y-78823342D01*
X130067401Y-78785750D01*
X130020678Y-78733801D01*
X130008500Y-78680212D01*
X130008500Y-78666833D01*
X130028185Y-78599794D01*
X130080989Y-78554039D01*
X130097891Y-78547761D01*
X130213601Y-78514145D01*
X130356807Y-78429453D01*
X130474453Y-78311807D01*
X130559145Y-78168601D01*
X130598293Y-78033850D01*
X130605561Y-78008835D01*
X130605562Y-78008829D01*
X130608500Y-77971505D01*
X130608500Y-77595516D01*
X130628185Y-77528477D01*
X130644810Y-77507844D01*
X130813819Y-77338834D01*
X130826180Y-77328934D01*
X130826006Y-77328724D01*
X130832012Y-77323754D01*
X130832018Y-77323751D01*
X130879999Y-77272655D01*
X130901134Y-77251521D01*
X130905463Y-77245938D01*
X130909242Y-77241514D01*
X130941586Y-77207072D01*
X130951423Y-77189175D01*
X130962097Y-77172925D01*
X130974613Y-77156792D01*
X130993372Y-77113440D01*
X130995933Y-77108213D01*
X131018695Y-77066811D01*
X131023774Y-77047025D01*
X131030072Y-77028633D01*
X131038181Y-77009896D01*
X131045569Y-76963248D01*
X131046751Y-76957537D01*
X131058500Y-76911781D01*
X131058500Y-76891366D01*
X131060027Y-76871965D01*
X131060948Y-76866150D01*
X131063220Y-76851808D01*
X131058775Y-76804784D01*
X131058500Y-76798946D01*
X131058500Y-73681881D01*
X131060239Y-73666129D01*
X131059968Y-73666104D01*
X131060700Y-73658348D01*
X131060702Y-73658341D01*
X131058500Y-73588277D01*
X131058500Y-73558393D01*
X131057614Y-73551390D01*
X131057157Y-73545571D01*
X131055674Y-73498362D01*
X131055674Y-73498360D01*
X131049974Y-73478741D01*
X131046031Y-73459695D01*
X131043474Y-73439453D01*
X131039709Y-73429943D01*
X131026081Y-73395523D01*
X131024204Y-73390041D01*
X131011019Y-73344656D01*
X131000620Y-73327073D01*
X130992066Y-73309612D01*
X130984552Y-73290632D01*
X130971768Y-73273037D01*
X130956795Y-73252428D01*
X130953586Y-73247543D01*
X130929544Y-73206890D01*
X130929537Y-73206881D01*
X130915107Y-73192451D01*
X130902469Y-73177654D01*
X130890472Y-73161142D01*
X130890472Y-73161141D01*
X130854079Y-73131035D01*
X130849767Y-73127112D01*
X130653838Y-72931182D01*
X130643931Y-72918816D01*
X130643722Y-72918990D01*
X130638754Y-72912984D01*
X130587672Y-72865016D01*
X130566519Y-72843863D01*
X130564543Y-72842331D01*
X130560934Y-72839531D01*
X130556501Y-72835744D01*
X130553146Y-72832594D01*
X130522072Y-72803414D01*
X130522070Y-72803412D01*
X130504182Y-72793578D01*
X130487921Y-72782897D01*
X130471790Y-72770384D01*
X130428444Y-72751627D01*
X130423196Y-72749056D01*
X130395770Y-72733979D01*
X130381811Y-72726305D01*
X130378411Y-72725432D01*
X130362038Y-72721228D01*
X130343632Y-72714926D01*
X130324891Y-72706816D01*
X130322894Y-72706236D01*
X130321516Y-72705355D01*
X130317738Y-72703721D01*
X130318001Y-72703111D01*
X130264012Y-72668625D01*
X130234811Y-72605149D01*
X130233500Y-72587163D01*
X130233500Y-69133631D01*
X130235238Y-69117881D01*
X130234968Y-69117856D01*
X130235701Y-69110094D01*
X130235702Y-69110091D01*
X130233500Y-69040041D01*
X130233500Y-69010144D01*
X130232614Y-69003136D01*
X130232156Y-68997314D01*
X130230673Y-68950110D01*
X130230672Y-68950108D01*
X130230247Y-68948644D01*
X130224977Y-68930508D01*
X130221032Y-68911457D01*
X130218474Y-68891203D01*
X130204400Y-68855657D01*
X130201086Y-68847286D01*
X130199193Y-68841757D01*
X130193503Y-68822172D01*
X130186018Y-68796407D01*
X130175622Y-68778829D01*
X130167066Y-68761362D01*
X130159552Y-68742383D01*
X130131794Y-68704179D01*
X130128587Y-68699296D01*
X130118873Y-68682871D01*
X130104542Y-68658638D01*
X130090108Y-68644204D01*
X130077471Y-68629409D01*
X130065472Y-68612893D01*
X130065470Y-68612890D01*
X130029073Y-68582781D01*
X130024751Y-68578847D01*
X126445907Y-65000002D01*
X136686641Y-65000002D01*
X136706063Y-65358234D01*
X136737647Y-65550888D01*
X136762447Y-65702163D01*
X136764106Y-65712279D01*
X136764107Y-65712282D01*
X136860082Y-66057955D01*
X136860083Y-66057957D01*
X136992872Y-66391233D01*
X136992877Y-66391243D01*
X137085336Y-66565640D01*
X137160928Y-66708220D01*
X137160929Y-66708223D01*
X137362256Y-67005157D01*
X137362264Y-67005167D01*
X137555459Y-67232614D01*
X137594516Y-67278595D01*
X137854977Y-67525317D01*
X137854984Y-67525322D01*
X137854986Y-67525324D01*
X137881485Y-67545468D01*
X138140586Y-67742431D01*
X138447995Y-67927393D01*
X138447997Y-67927394D01*
X138447999Y-67927395D01*
X138448003Y-67927397D01*
X138773588Y-68078028D01*
X138773599Y-68078033D01*
X139113583Y-68192587D01*
X139463958Y-68269711D01*
X139820618Y-68308500D01*
X139820624Y-68308500D01*
X140179376Y-68308500D01*
X140179382Y-68308500D01*
X140536042Y-68269711D01*
X140886417Y-68192587D01*
X141226401Y-68078033D01*
X141552005Y-67927393D01*
X141859414Y-67742431D01*
X142145023Y-67525317D01*
X142405484Y-67278595D01*
X142637742Y-67005159D01*
X142783620Y-66790005D01*
X142839070Y-66708223D01*
X142839070Y-66708221D01*
X142839075Y-66708215D01*
X143007123Y-66391243D01*
X143139915Y-66057961D01*
X143165524Y-65965728D01*
X143208993Y-65809165D01*
X143235895Y-65712274D01*
X143293936Y-65358237D01*
X143313359Y-65000000D01*
X143293936Y-64641763D01*
X143235895Y-64287726D01*
X143168937Y-64046566D01*
X143139917Y-63942044D01*
X143139916Y-63942042D01*
X143007127Y-63608766D01*
X143007118Y-63608748D01*
X143005287Y-63605294D01*
X142839075Y-63291785D01*
X142839071Y-63291779D01*
X142839070Y-63291776D01*
X142637743Y-62994842D01*
X142637735Y-62994832D01*
X142405491Y-62721413D01*
X142405486Y-62721407D01*
X142405484Y-62721405D01*
X142145023Y-62474683D01*
X142145016Y-62474677D01*
X142145013Y-62474675D01*
X142077266Y-62423175D01*
X141859414Y-62257569D01*
X141552005Y-62072607D01*
X141552004Y-62072606D01*
X141552000Y-62072604D01*
X141551996Y-62072602D01*
X141226411Y-61921971D01*
X141226406Y-61921969D01*
X141226401Y-61921967D01*
X141050574Y-61862724D01*
X140886416Y-61807412D01*
X140536040Y-61730288D01*
X140179383Y-61691500D01*
X140179382Y-61691500D01*
X139820618Y-61691500D01*
X139820616Y-61691500D01*
X139463959Y-61730288D01*
X139113583Y-61807412D01*
X138850768Y-61895965D01*
X138773599Y-61921967D01*
X138773596Y-61921968D01*
X138773588Y-61921971D01*
X138448003Y-62072602D01*
X138447999Y-62072604D01*
X138295623Y-62164286D01*
X138140586Y-62257569D01*
X138052060Y-62324864D01*
X137854986Y-62474675D01*
X137854977Y-62474683D01*
X137594513Y-62721407D01*
X137594508Y-62721413D01*
X137362264Y-62994832D01*
X137362256Y-62994842D01*
X137160929Y-63291776D01*
X137160928Y-63291779D01*
X136992881Y-63608748D01*
X136992872Y-63608766D01*
X136860083Y-63942042D01*
X136860082Y-63942044D01*
X136764107Y-64287717D01*
X136764106Y-64287720D01*
X136706063Y-64641765D01*
X136686641Y-64999997D01*
X136686641Y-65000002D01*
X126445907Y-65000002D01*
X125307088Y-63861183D01*
X125297187Y-63848823D01*
X125296977Y-63848998D01*
X125292002Y-63842986D01*
X125292000Y-63842982D01*
X125265658Y-63818245D01*
X125240922Y-63795016D01*
X125219768Y-63773863D01*
X125217792Y-63772331D01*
X125214183Y-63769531D01*
X125209750Y-63765744D01*
X125175321Y-63733414D01*
X125175319Y-63733412D01*
X125157431Y-63723578D01*
X125141170Y-63712897D01*
X125125039Y-63700384D01*
X125081693Y-63681627D01*
X125076445Y-63679056D01*
X125049251Y-63664106D01*
X125035060Y-63656305D01*
X125031660Y-63655432D01*
X125015287Y-63651228D01*
X124996881Y-63644926D01*
X124978144Y-63636818D01*
X124978146Y-63636818D01*
X124931496Y-63629430D01*
X124925781Y-63628246D01*
X124905612Y-63623068D01*
X124880032Y-63616500D01*
X124880030Y-63616500D01*
X124859616Y-63616500D01*
X124840217Y-63614973D01*
X124820058Y-63611780D01*
X124820057Y-63611780D01*
X124773034Y-63616225D01*
X124767196Y-63616500D01*
X121782500Y-63616500D01*
X121715461Y-63596815D01*
X121669706Y-63544011D01*
X121658500Y-63492500D01*
X121658500Y-63351362D01*
X121658499Y-63351345D01*
X121654947Y-63318310D01*
X121651989Y-63290799D01*
X121646080Y-63274957D01*
X121612831Y-63185814D01*
X121600889Y-63153796D01*
X121513261Y-63036739D01*
X121396204Y-62949111D01*
X121259203Y-62898011D01*
X121198654Y-62891500D01*
X121198638Y-62891500D01*
X119401362Y-62891500D01*
X119401345Y-62891500D01*
X119340797Y-62898011D01*
X119340795Y-62898011D01*
X119203795Y-62949111D01*
X119086739Y-63036739D01*
X118999111Y-63153795D01*
X118948011Y-63290795D01*
X118948011Y-63290797D01*
X118941500Y-63351345D01*
X118941500Y-63492500D01*
X118921815Y-63559539D01*
X118869011Y-63605294D01*
X118817500Y-63616500D01*
X117132500Y-63616500D01*
X117065461Y-63596815D01*
X117019706Y-63544011D01*
X117008500Y-63492500D01*
X117008500Y-63351362D01*
X117008499Y-63351345D01*
X117004947Y-63318310D01*
X117001989Y-63290799D01*
X116996080Y-63274957D01*
X116962831Y-63185814D01*
X116950889Y-63153796D01*
X116863261Y-63036739D01*
X116746204Y-62949111D01*
X116609203Y-62898011D01*
X116548654Y-62891500D01*
X116548638Y-62891500D01*
X114751362Y-62891500D01*
X114751345Y-62891500D01*
X114690797Y-62898011D01*
X114690795Y-62898011D01*
X114553795Y-62949111D01*
X114436739Y-63036739D01*
X114349111Y-63153795D01*
X114298011Y-63290795D01*
X114298011Y-63290797D01*
X114291500Y-63351345D01*
X114291500Y-63492500D01*
X114271815Y-63559539D01*
X114219011Y-63605294D01*
X114167500Y-63616500D01*
X112482500Y-63616500D01*
X112415461Y-63596815D01*
X112369706Y-63544011D01*
X112358500Y-63492500D01*
X112358500Y-63351362D01*
X112358499Y-63351345D01*
X112354947Y-63318310D01*
X112351989Y-63290799D01*
X112346080Y-63274957D01*
X112312831Y-63185814D01*
X112300889Y-63153796D01*
X112213261Y-63036739D01*
X112096204Y-62949111D01*
X111959203Y-62898011D01*
X111898654Y-62891500D01*
X111898638Y-62891500D01*
X110101362Y-62891500D01*
X110101345Y-62891500D01*
X110040797Y-62898011D01*
X110040795Y-62898011D01*
X109903795Y-62949111D01*
X109786739Y-63036739D01*
X109699111Y-63153795D01*
X109648011Y-63290795D01*
X109648011Y-63290797D01*
X109641500Y-63351345D01*
X109641500Y-65148654D01*
X109648011Y-65209202D01*
X109648011Y-65209204D01*
X109699111Y-65346204D01*
X109786739Y-65463261D01*
X109903796Y-65550889D01*
X109955737Y-65570262D01*
X110021595Y-65594827D01*
X110077528Y-65636699D01*
X110101944Y-65702163D01*
X110087092Y-65770436D01*
X110069490Y-65794991D01*
X109924279Y-65952730D01*
X109924276Y-65952734D01*
X109801140Y-66141207D01*
X109710703Y-66347385D01*
X109655436Y-66565628D01*
X109655434Y-66565640D01*
X109636844Y-66789994D01*
X109636844Y-66790005D01*
X109655434Y-67014359D01*
X109655436Y-67014371D01*
X109710703Y-67232614D01*
X109801140Y-67438792D01*
X109924276Y-67627265D01*
X109924284Y-67627276D01*
X110076756Y-67792902D01*
X110076760Y-67792906D01*
X110254424Y-67931189D01*
X110297693Y-67954605D01*
X110297695Y-67954606D01*
X110347286Y-68003825D01*
X110362394Y-68072042D01*
X110338224Y-68137597D01*
X110309802Y-68165236D01*
X110128922Y-68291890D01*
X110128920Y-68291891D01*
X109961891Y-68458920D01*
X109961886Y-68458926D01*
X109826400Y-68652420D01*
X109826399Y-68652422D01*
X109726570Y-68866507D01*
X109726567Y-68866513D01*
X109669364Y-69079999D01*
X109669364Y-69080000D01*
X110566314Y-69080000D01*
X110540507Y-69120156D01*
X110500000Y-69258111D01*
X110500000Y-69401889D01*
X110540507Y-69539844D01*
X110566314Y-69580000D01*
X109669364Y-69580000D01*
X109726567Y-69793486D01*
X109726570Y-69793492D01*
X109826399Y-70007578D01*
X109961894Y-70201082D01*
X110128917Y-70368105D01*
X110322421Y-70503600D01*
X110536507Y-70603429D01*
X110536516Y-70603433D01*
X110750000Y-70660634D01*
X110750000Y-69765501D01*
X110857685Y-69814680D01*
X110964237Y-69830000D01*
X111035763Y-69830000D01*
X111142315Y-69814680D01*
X111250000Y-69765501D01*
X111250000Y-70660633D01*
X111463483Y-70603433D01*
X111463492Y-70603429D01*
X111677578Y-70503600D01*
X111871082Y-70368105D01*
X112038105Y-70201082D01*
X112173600Y-70007578D01*
X112273429Y-69793492D01*
X112273432Y-69793486D01*
X112330636Y-69580000D01*
X111433686Y-69580000D01*
X111459493Y-69539844D01*
X111500000Y-69401889D01*
X111500000Y-69258111D01*
X111459493Y-69120156D01*
X111433686Y-69080000D01*
X112330636Y-69080000D01*
X112330635Y-69079999D01*
X112273432Y-68866513D01*
X112273429Y-68866507D01*
X112173600Y-68652422D01*
X112173599Y-68652420D01*
X112038113Y-68458926D01*
X112038108Y-68458920D01*
X111871082Y-68291894D01*
X111690197Y-68165236D01*
X111646572Y-68110659D01*
X111639380Y-68041160D01*
X111670902Y-67978806D01*
X111702300Y-67954608D01*
X111745576Y-67931189D01*
X111923240Y-67792906D01*
X112075722Y-67627268D01*
X112198860Y-67438791D01*
X112289296Y-67232616D01*
X112344564Y-67014368D01*
X112344565Y-67014359D01*
X112363156Y-66790005D01*
X112363156Y-66789994D01*
X112344565Y-66565640D01*
X112344563Y-66565628D01*
X112341876Y-66555018D01*
X112289296Y-66347384D01*
X112198860Y-66141209D01*
X112194803Y-66135000D01*
X112087718Y-65971093D01*
X112075722Y-65952732D01*
X112075719Y-65952729D01*
X112075715Y-65952723D01*
X111930510Y-65794991D01*
X111899587Y-65732337D01*
X111907447Y-65662911D01*
X111951594Y-65608755D01*
X111978405Y-65594827D01*
X112058584Y-65564920D01*
X112096204Y-65550889D01*
X112213261Y-65463261D01*
X112300889Y-65346204D01*
X112351989Y-65209201D01*
X112357230Y-65160455D01*
X112358499Y-65148654D01*
X112358500Y-65148637D01*
X112358500Y-65007500D01*
X112378185Y-64940461D01*
X112430989Y-64894706D01*
X112482500Y-64883500D01*
X114167500Y-64883500D01*
X114234539Y-64903185D01*
X114280294Y-64955989D01*
X114291500Y-65007500D01*
X114291500Y-65148654D01*
X114298011Y-65209202D01*
X114298011Y-65209204D01*
X114349111Y-65346204D01*
X114436739Y-65463261D01*
X114553796Y-65550889D01*
X114605737Y-65570262D01*
X114671595Y-65594827D01*
X114727528Y-65636699D01*
X114751944Y-65702163D01*
X114737092Y-65770436D01*
X114719490Y-65794991D01*
X114574279Y-65952730D01*
X114574276Y-65952734D01*
X114451140Y-66141207D01*
X114360703Y-66347385D01*
X114305436Y-66565628D01*
X114305434Y-66565640D01*
X114286844Y-66789994D01*
X114286844Y-66790005D01*
X114305434Y-67014359D01*
X114305436Y-67014371D01*
X114360703Y-67232614D01*
X114451140Y-67438792D01*
X114574276Y-67627265D01*
X114574284Y-67627276D01*
X114726756Y-67792902D01*
X114726760Y-67792906D01*
X114904424Y-67931189D01*
X114947693Y-67954605D01*
X114947695Y-67954606D01*
X114997286Y-68003825D01*
X115012394Y-68072042D01*
X114988224Y-68137597D01*
X114959802Y-68165236D01*
X114778922Y-68291890D01*
X114778920Y-68291891D01*
X114611891Y-68458920D01*
X114611886Y-68458926D01*
X114476400Y-68652420D01*
X114476399Y-68652422D01*
X114376570Y-68866507D01*
X114376567Y-68866513D01*
X114319364Y-69079999D01*
X114319364Y-69080000D01*
X115216314Y-69080000D01*
X115190507Y-69120156D01*
X115150000Y-69258111D01*
X115150000Y-69401889D01*
X115190507Y-69539844D01*
X115216314Y-69580000D01*
X114319364Y-69580000D01*
X114376567Y-69793486D01*
X114376570Y-69793492D01*
X114476399Y-70007578D01*
X114611894Y-70201082D01*
X114778917Y-70368105D01*
X114972421Y-70503600D01*
X115186507Y-70603429D01*
X115186516Y-70603433D01*
X115400000Y-70660634D01*
X115400000Y-69765501D01*
X115507685Y-69814680D01*
X115614237Y-69830000D01*
X115685763Y-69830000D01*
X115792315Y-69814680D01*
X115900000Y-69765501D01*
X115900000Y-70660633D01*
X116113483Y-70603433D01*
X116113492Y-70603429D01*
X116327578Y-70503600D01*
X116521082Y-70368105D01*
X116688105Y-70201082D01*
X116823600Y-70007578D01*
X116923429Y-69793492D01*
X116923432Y-69793486D01*
X116980636Y-69580000D01*
X116083686Y-69580000D01*
X116109493Y-69539844D01*
X116150000Y-69401889D01*
X116150000Y-69258111D01*
X116109493Y-69120156D01*
X116083686Y-69080000D01*
X116980636Y-69080000D01*
X116980635Y-69079999D01*
X116923432Y-68866513D01*
X116923429Y-68866507D01*
X116823600Y-68652422D01*
X116823599Y-68652420D01*
X116688113Y-68458926D01*
X116688108Y-68458920D01*
X116521082Y-68291894D01*
X116340197Y-68165236D01*
X116296572Y-68110659D01*
X116289380Y-68041160D01*
X116320902Y-67978806D01*
X116352300Y-67954608D01*
X116395576Y-67931189D01*
X116573240Y-67792906D01*
X116725722Y-67627268D01*
X116848860Y-67438791D01*
X116939296Y-67232616D01*
X116994564Y-67014368D01*
X116994565Y-67014359D01*
X117013156Y-66790005D01*
X117013156Y-66789994D01*
X116994565Y-66565640D01*
X116994563Y-66565628D01*
X116991876Y-66555018D01*
X116939296Y-66347384D01*
X116848860Y-66141209D01*
X116844803Y-66135000D01*
X116737718Y-65971093D01*
X116725722Y-65952732D01*
X116725719Y-65952729D01*
X116725715Y-65952723D01*
X116580510Y-65794991D01*
X116549587Y-65732337D01*
X116557447Y-65662911D01*
X116601594Y-65608755D01*
X116628405Y-65594827D01*
X116708584Y-65564920D01*
X116746204Y-65550889D01*
X116863261Y-65463261D01*
X116950889Y-65346204D01*
X117001989Y-65209201D01*
X117007230Y-65160455D01*
X117008499Y-65148654D01*
X117008500Y-65148637D01*
X117008500Y-65007500D01*
X117028185Y-64940461D01*
X117080989Y-64894706D01*
X117132500Y-64883500D01*
X118817500Y-64883500D01*
X118884539Y-64903185D01*
X118930294Y-64955989D01*
X118941500Y-65007500D01*
X118941500Y-65148654D01*
X118948011Y-65209202D01*
X118948011Y-65209204D01*
X118999111Y-65346204D01*
X119086739Y-65463261D01*
X119203796Y-65550889D01*
X119255737Y-65570262D01*
X119321595Y-65594827D01*
X119377528Y-65636699D01*
X119401944Y-65702163D01*
X119387092Y-65770436D01*
X119369490Y-65794991D01*
X119224279Y-65952730D01*
X119224276Y-65952734D01*
X119101140Y-66141207D01*
X119010703Y-66347385D01*
X118955436Y-66565628D01*
X118955434Y-66565640D01*
X118936844Y-66789994D01*
X118936844Y-66790005D01*
X118955434Y-67014359D01*
X118955436Y-67014371D01*
X119010703Y-67232614D01*
X119101140Y-67438792D01*
X119224276Y-67627265D01*
X119224284Y-67627276D01*
X119376756Y-67792902D01*
X119376760Y-67792906D01*
X119554424Y-67931189D01*
X119597693Y-67954605D01*
X119597695Y-67954606D01*
X119647286Y-68003825D01*
X119662394Y-68072042D01*
X119638224Y-68137597D01*
X119609802Y-68165236D01*
X119428922Y-68291890D01*
X119428920Y-68291891D01*
X119261891Y-68458920D01*
X119261886Y-68458926D01*
X119126400Y-68652420D01*
X119126399Y-68652422D01*
X119026570Y-68866507D01*
X119026567Y-68866513D01*
X118969364Y-69079999D01*
X118969364Y-69080000D01*
X119866314Y-69080000D01*
X119840507Y-69120156D01*
X119800000Y-69258111D01*
X119800000Y-69401889D01*
X119840507Y-69539844D01*
X119866314Y-69580000D01*
X118969364Y-69580000D01*
X119026567Y-69793486D01*
X119026570Y-69793492D01*
X119126399Y-70007578D01*
X119261894Y-70201082D01*
X119428917Y-70368105D01*
X119622421Y-70503600D01*
X119836507Y-70603429D01*
X119836516Y-70603433D01*
X120050000Y-70660634D01*
X120050000Y-69765501D01*
X120157685Y-69814680D01*
X120264237Y-69830000D01*
X120335763Y-69830000D01*
X120442315Y-69814680D01*
X120550000Y-69765501D01*
X120550000Y-70660633D01*
X120763483Y-70603433D01*
X120763492Y-70603429D01*
X120977578Y-70503600D01*
X121171082Y-70368105D01*
X121338105Y-70201082D01*
X121473600Y-70007578D01*
X121573429Y-69793492D01*
X121573432Y-69793486D01*
X121630636Y-69580000D01*
X120733686Y-69580000D01*
X120759493Y-69539844D01*
X120800000Y-69401889D01*
X120800000Y-69258111D01*
X120759493Y-69120156D01*
X120733686Y-69080000D01*
X121630636Y-69080000D01*
X121630635Y-69079999D01*
X121573432Y-68866513D01*
X121573429Y-68866507D01*
X121473600Y-68652422D01*
X121473599Y-68652420D01*
X121338113Y-68458926D01*
X121338108Y-68458920D01*
X121171082Y-68291894D01*
X120990197Y-68165236D01*
X120946572Y-68110659D01*
X120939380Y-68041160D01*
X120970902Y-67978806D01*
X121002300Y-67954608D01*
X121045576Y-67931189D01*
X121223240Y-67792906D01*
X121375722Y-67627268D01*
X121498860Y-67438791D01*
X121589296Y-67232616D01*
X121644564Y-67014368D01*
X121644565Y-67014359D01*
X121663156Y-66790005D01*
X121663156Y-66789994D01*
X121644565Y-66565640D01*
X121644563Y-66565628D01*
X121641876Y-66555018D01*
X121589296Y-66347384D01*
X121498860Y-66141209D01*
X121494803Y-66135000D01*
X121387718Y-65971093D01*
X121375722Y-65952732D01*
X121375719Y-65952729D01*
X121375715Y-65952723D01*
X121230510Y-65794991D01*
X121199587Y-65732337D01*
X121207447Y-65662911D01*
X121251594Y-65608755D01*
X121278405Y-65594827D01*
X121358584Y-65564920D01*
X121396204Y-65550889D01*
X121513261Y-65463261D01*
X121600889Y-65346204D01*
X121651989Y-65209201D01*
X121657230Y-65160455D01*
X121658499Y-65148654D01*
X121658500Y-65148637D01*
X121658500Y-65007500D01*
X121678185Y-64940461D01*
X121730989Y-64894706D01*
X121782500Y-64883500D01*
X124486234Y-64883500D01*
X124553273Y-64903185D01*
X124573915Y-64919819D01*
X128930181Y-69276085D01*
X128963666Y-69337408D01*
X128966500Y-69363766D01*
X128966500Y-72562500D01*
X128946815Y-72629539D01*
X128894011Y-72675294D01*
X128842500Y-72686500D01*
X110913631Y-72686500D01*
X110897879Y-72684760D01*
X110897854Y-72685032D01*
X110890092Y-72684298D01*
X110890091Y-72684298D01*
X110820028Y-72686500D01*
X110790144Y-72686500D01*
X110790141Y-72686500D01*
X110790129Y-72686501D01*
X110783137Y-72687384D01*
X110777320Y-72687841D01*
X110730114Y-72689325D01*
X110730107Y-72689326D01*
X110710500Y-72695022D01*
X110691461Y-72698965D01*
X110671211Y-72701524D01*
X110671201Y-72701526D01*
X110627291Y-72718911D01*
X110621765Y-72720803D01*
X110576412Y-72733979D01*
X110576407Y-72733981D01*
X110558833Y-72744374D01*
X110541372Y-72752928D01*
X110522386Y-72760446D01*
X110522384Y-72760447D01*
X110484172Y-72788208D01*
X110479290Y-72791415D01*
X110438637Y-72815457D01*
X110424201Y-72829894D01*
X110409415Y-72842523D01*
X110392893Y-72854528D01*
X110392891Y-72854529D01*
X110392891Y-72854530D01*
X110392888Y-72854532D01*
X110362780Y-72890925D01*
X110358849Y-72895246D01*
X109648914Y-73605181D01*
X109587591Y-73638666D01*
X109561233Y-73641500D01*
X109469787Y-73641500D01*
X109402748Y-73621815D01*
X109364249Y-73582597D01*
X109326658Y-73521654D01*
X109286675Y-73481671D01*
X109253189Y-73420348D01*
X109258173Y-73350657D01*
X109286675Y-73306307D01*
X109319945Y-73273037D01*
X109319947Y-73273034D01*
X109410448Y-73126311D01*
X109410453Y-73126300D01*
X109464680Y-72962652D01*
X109474999Y-72861654D01*
X109475000Y-72861641D01*
X109475000Y-72775000D01*
X107525001Y-72775000D01*
X107525001Y-72861654D01*
X107535319Y-72962652D01*
X107589546Y-73126300D01*
X107589551Y-73126311D01*
X107680052Y-73273034D01*
X107680055Y-73273038D01*
X107713325Y-73306308D01*
X107746810Y-73367631D01*
X107741826Y-73437323D01*
X107713325Y-73481670D01*
X107673343Y-73521651D01*
X107673341Y-73521654D01*
X107635751Y-73582597D01*
X107583803Y-73629322D01*
X107530213Y-73641500D01*
X107388766Y-73641500D01*
X107321727Y-73621815D01*
X107301085Y-73605181D01*
X105970904Y-72275000D01*
X107525000Y-72275000D01*
X108250000Y-72275000D01*
X108250000Y-71500000D01*
X108750000Y-71500000D01*
X108750000Y-72275000D01*
X109474999Y-72275000D01*
X109474999Y-72188360D01*
X109474998Y-72188345D01*
X109464680Y-72087347D01*
X109410453Y-71923699D01*
X109410448Y-71923688D01*
X109319947Y-71776965D01*
X109319944Y-71776961D01*
X109198038Y-71655055D01*
X109198034Y-71655052D01*
X109051311Y-71564551D01*
X109051300Y-71564546D01*
X108887652Y-71510319D01*
X108786654Y-71500000D01*
X108750000Y-71500000D01*
X108250000Y-71500000D01*
X108213361Y-71500000D01*
X108213343Y-71500001D01*
X108112347Y-71510319D01*
X107948699Y-71564546D01*
X107948688Y-71564551D01*
X107801965Y-71655052D01*
X107801961Y-71655055D01*
X107680055Y-71776961D01*
X107680052Y-71776965D01*
X107589551Y-71923688D01*
X107589546Y-71923699D01*
X107535319Y-72087347D01*
X107525000Y-72188345D01*
X107525000Y-72275000D01*
X105970904Y-72275000D01*
X98695907Y-65000002D01*
X101686641Y-65000002D01*
X101706063Y-65358234D01*
X101737647Y-65550888D01*
X101762447Y-65702163D01*
X101764106Y-65712279D01*
X101764107Y-65712282D01*
X101860082Y-66057955D01*
X101860083Y-66057957D01*
X101992872Y-66391233D01*
X101992877Y-66391243D01*
X102085336Y-66565640D01*
X102160928Y-66708220D01*
X102160929Y-66708223D01*
X102362256Y-67005157D01*
X102362264Y-67005167D01*
X102555459Y-67232614D01*
X102594516Y-67278595D01*
X102854977Y-67525317D01*
X102854984Y-67525322D01*
X102854986Y-67525324D01*
X102881485Y-67545468D01*
X103140586Y-67742431D01*
X103447995Y-67927393D01*
X103447997Y-67927394D01*
X103447999Y-67927395D01*
X103448003Y-67927397D01*
X103773588Y-68078028D01*
X103773599Y-68078033D01*
X104113583Y-68192587D01*
X104463958Y-68269711D01*
X104820618Y-68308500D01*
X104820624Y-68308500D01*
X105179376Y-68308500D01*
X105179382Y-68308500D01*
X105536042Y-68269711D01*
X105886417Y-68192587D01*
X106226401Y-68078033D01*
X106552005Y-67927393D01*
X106859414Y-67742431D01*
X107145023Y-67525317D01*
X107405484Y-67278595D01*
X107637742Y-67005159D01*
X107783620Y-66790005D01*
X107839070Y-66708223D01*
X107839070Y-66708221D01*
X107839075Y-66708215D01*
X108007123Y-66391243D01*
X108139915Y-66057961D01*
X108165524Y-65965728D01*
X108208993Y-65809165D01*
X108235895Y-65712274D01*
X108293936Y-65358237D01*
X108313359Y-65000000D01*
X108293936Y-64641763D01*
X108235895Y-64287726D01*
X108168937Y-64046566D01*
X108139917Y-63942044D01*
X108139916Y-63942042D01*
X108007127Y-63608766D01*
X108007118Y-63608748D01*
X108005287Y-63605294D01*
X107839075Y-63291785D01*
X107839071Y-63291779D01*
X107839070Y-63291776D01*
X107637743Y-62994842D01*
X107637735Y-62994832D01*
X107405491Y-62721413D01*
X107405486Y-62721407D01*
X107405484Y-62721405D01*
X107145023Y-62474683D01*
X107145016Y-62474677D01*
X107145013Y-62474675D01*
X107077266Y-62423175D01*
X106859414Y-62257569D01*
X106552005Y-62072607D01*
X106552004Y-62072606D01*
X106552000Y-62072604D01*
X106551996Y-62072602D01*
X106226411Y-61921971D01*
X106226406Y-61921969D01*
X106226401Y-61921967D01*
X106050574Y-61862724D01*
X105886416Y-61807412D01*
X105536040Y-61730288D01*
X105179383Y-61691500D01*
X105179382Y-61691500D01*
X104820618Y-61691500D01*
X104820616Y-61691500D01*
X104463959Y-61730288D01*
X104113583Y-61807412D01*
X103850768Y-61895965D01*
X103773599Y-61921967D01*
X103773596Y-61921968D01*
X103773588Y-61921971D01*
X103448003Y-62072602D01*
X103447999Y-62072604D01*
X103295623Y-62164286D01*
X103140586Y-62257569D01*
X103052060Y-62324864D01*
X102854986Y-62474675D01*
X102854977Y-62474683D01*
X102594513Y-62721407D01*
X102594508Y-62721413D01*
X102362264Y-62994832D01*
X102362256Y-62994842D01*
X102160929Y-63291776D01*
X102160928Y-63291779D01*
X101992881Y-63608748D01*
X101992872Y-63608766D01*
X101860083Y-63942042D01*
X101860082Y-63942044D01*
X101764107Y-64287717D01*
X101764106Y-64287720D01*
X101706063Y-64641765D01*
X101686641Y-64999997D01*
X101686641Y-65000002D01*
X98695907Y-65000002D01*
X98424484Y-64728579D01*
X98390999Y-64667256D01*
X98388547Y-64650624D01*
X98387850Y-64641763D01*
X98385629Y-64613534D01*
X98340269Y-64457404D01*
X98257506Y-64317459D01*
X98257504Y-64317457D01*
X98257501Y-64317453D01*
X98142546Y-64202498D01*
X98142538Y-64202492D01*
X98002594Y-64119730D01*
X98002591Y-64119729D01*
X97846473Y-64074372D01*
X97846461Y-64074370D01*
X97809370Y-64071451D01*
X97744082Y-64046566D01*
X97731419Y-64035514D01*
X96721374Y-63025469D01*
X96711473Y-63013109D01*
X96711263Y-63013284D01*
X96706288Y-63007272D01*
X96706286Y-63007268D01*
X96679944Y-62982531D01*
X96655208Y-62959302D01*
X96634054Y-62938149D01*
X96632078Y-62936617D01*
X96628469Y-62933817D01*
X96624036Y-62930030D01*
X96589607Y-62897700D01*
X96589605Y-62897698D01*
X96571717Y-62887864D01*
X96555456Y-62877183D01*
X96539325Y-62864670D01*
X96495979Y-62845913D01*
X96490731Y-62843342D01*
X96455974Y-62824235D01*
X96449346Y-62820591D01*
X96440322Y-62818274D01*
X96429573Y-62815514D01*
X96411167Y-62809212D01*
X96392430Y-62801104D01*
X96392432Y-62801104D01*
X96345782Y-62793716D01*
X96340067Y-62792532D01*
X96319898Y-62787354D01*
X96294318Y-62780786D01*
X96294316Y-62780786D01*
X96273902Y-62780786D01*
X96254503Y-62779259D01*
X96234344Y-62776066D01*
X96234343Y-62776066D01*
X96187320Y-62780511D01*
X96181482Y-62780786D01*
X94497269Y-62780786D01*
X94430230Y-62761101D01*
X94384475Y-62708297D01*
X94377736Y-62670172D01*
X94372295Y-62664286D01*
X94035414Y-62664286D01*
X93996415Y-62656210D01*
X93996094Y-62657318D01*
X93828829Y-62608723D01*
X93791505Y-62605786D01*
X93791502Y-62605786D01*
X92408498Y-62605786D01*
X92408495Y-62605786D01*
X92371170Y-62608723D01*
X92203906Y-62657318D01*
X92203584Y-62656210D01*
X92164586Y-62664286D01*
X91827705Y-62664286D01*
X91821266Y-62671250D01*
X91811984Y-62715436D01*
X91762931Y-62765192D01*
X91702731Y-62780786D01*
X91449814Y-62780786D01*
X91430404Y-62779257D01*
X91420704Y-62777720D01*
X91416884Y-62776991D01*
X91360091Y-62764297D01*
X91351656Y-62764562D01*
X91328378Y-62763097D01*
X91320061Y-62761780D01*
X91320054Y-62761780D01*
X91262150Y-62767253D01*
X91258263Y-62767498D01*
X91200111Y-62769325D01*
X91192011Y-62771679D01*
X91169093Y-62776050D01*
X91160710Y-62776842D01*
X91160707Y-62776843D01*
X91105969Y-62796548D01*
X91102268Y-62797750D01*
X91046415Y-62813978D01*
X91046401Y-62813984D01*
X91039147Y-62818274D01*
X91018053Y-62828200D01*
X91010116Y-62831058D01*
X91010111Y-62831060D01*
X90961986Y-62863765D01*
X90958698Y-62865851D01*
X90908634Y-62895459D01*
X90902676Y-62901418D01*
X90884706Y-62916285D01*
X90877734Y-62921023D01*
X90877727Y-62921029D01*
X90839257Y-62964664D01*
X90836591Y-62967503D01*
X90711175Y-63092918D01*
X90698813Y-63102823D01*
X90698986Y-63103033D01*
X90692976Y-63108004D01*
X90645015Y-63159080D01*
X90623870Y-63180223D01*
X90623863Y-63180231D01*
X90619531Y-63185814D01*
X90615746Y-63190245D01*
X90583416Y-63224675D01*
X90583412Y-63224681D01*
X90573579Y-63242567D01*
X90562903Y-63258820D01*
X90550386Y-63274957D01*
X90550385Y-63274959D01*
X90531625Y-63318310D01*
X90529055Y-63323556D01*
X90506303Y-63364941D01*
X90506303Y-63364942D01*
X90501225Y-63384720D01*
X90494925Y-63403122D01*
X90486818Y-63421857D01*
X90479431Y-63468495D01*
X90478246Y-63474216D01*
X90466500Y-63519965D01*
X90466500Y-63540384D01*
X90464973Y-63559783D01*
X90461780Y-63579941D01*
X90461780Y-63579942D01*
X90466225Y-63626966D01*
X90466500Y-63632804D01*
X90466500Y-65615770D01*
X90446815Y-65682809D01*
X90394011Y-65728564D01*
X90324853Y-65738508D01*
X90277403Y-65721309D01*
X90197740Y-65672172D01*
X90197735Y-65672170D01*
X90029427Y-65616399D01*
X89925545Y-65605786D01*
X88524462Y-65605786D01*
X88524446Y-65605787D01*
X88420572Y-65616399D01*
X88252264Y-65672170D01*
X88252255Y-65672174D01*
X88214596Y-65695403D01*
X88147203Y-65713843D01*
X88080540Y-65692920D01*
X88035771Y-65639278D01*
X88025500Y-65589864D01*
X88025500Y-62238707D01*
X88045185Y-62171668D01*
X88097989Y-62125913D01*
X88167147Y-62115969D01*
X88214595Y-62133168D01*
X88252262Y-62156401D01*
X88420574Y-62212173D01*
X88524455Y-62222786D01*
X89925544Y-62222785D01*
X90029426Y-62212173D01*
X90173948Y-62164284D01*
X91827704Y-62164284D01*
X91827705Y-62164286D01*
X92850000Y-62164286D01*
X92850000Y-61614286D01*
X93350000Y-61614286D01*
X93350000Y-62164286D01*
X94372295Y-62164286D01*
X94372295Y-62164284D01*
X94372100Y-62161799D01*
X94326281Y-62004087D01*
X94242685Y-61862733D01*
X94242678Y-61862724D01*
X94126561Y-61746607D01*
X94126552Y-61746600D01*
X93985196Y-61663003D01*
X93985193Y-61663002D01*
X93827495Y-61617186D01*
X93827489Y-61617185D01*
X93790644Y-61614286D01*
X93350000Y-61614286D01*
X92850000Y-61614286D01*
X92409356Y-61614286D01*
X92372510Y-61617185D01*
X92372504Y-61617186D01*
X92214806Y-61663002D01*
X92214803Y-61663003D01*
X92073447Y-61746600D01*
X92073438Y-61746607D01*
X91957321Y-61862724D01*
X91957314Y-61862733D01*
X91873718Y-62004087D01*
X91827899Y-62161799D01*
X91827704Y-62164284D01*
X90173948Y-62164284D01*
X90197738Y-62156401D01*
X90348652Y-62063316D01*
X90474030Y-61937938D01*
X90567115Y-61787024D01*
X90622887Y-61618712D01*
X90633500Y-61514831D01*
X90633499Y-60713742D01*
X90622887Y-60609860D01*
X90567115Y-60441548D01*
X90474030Y-60290634D01*
X90420577Y-60237181D01*
X90387092Y-60175858D01*
X90392076Y-60106166D01*
X90433948Y-60050233D01*
X90499412Y-60025816D01*
X90508258Y-60025500D01*
X143850500Y-60025500D01*
X143917539Y-60045185D01*
G37*
%TD.AperFunction*%
%TA.AperFunction,Conductor*%
G36*
X122500755Y-99530547D02*
G01*
X122532030Y-99593027D01*
X122532773Y-99598197D01*
X122533011Y-99599204D01*
X122577099Y-99717404D01*
X122584111Y-99736204D01*
X122671739Y-99853261D01*
X122716383Y-99886681D01*
X122743169Y-99906733D01*
X122785040Y-99962667D01*
X122790024Y-100032359D01*
X122756539Y-100093682D01*
X122695215Y-100127166D01*
X122668858Y-100130000D01*
X122660000Y-100130000D01*
X122660000Y-100241149D01*
X122640315Y-100308188D01*
X122635267Y-100315460D01*
X122584111Y-100383795D01*
X122533011Y-100520795D01*
X122531229Y-100528341D01*
X122529284Y-100527881D01*
X122506550Y-100582764D01*
X122449157Y-100622611D01*
X122379331Y-100625104D01*
X122319243Y-100589450D01*
X122287970Y-100526970D01*
X122287227Y-100521809D01*
X122286988Y-100520795D01*
X122260250Y-100449111D01*
X122235889Y-100383796D01*
X122184732Y-100315459D01*
X122160316Y-100249995D01*
X122160000Y-100241149D01*
X122160000Y-100130000D01*
X122151142Y-100130000D01*
X122084103Y-100110315D01*
X122038348Y-100057511D01*
X122028404Y-99988353D01*
X122057429Y-99924797D01*
X122076831Y-99906733D01*
X122086701Y-99899344D01*
X122148261Y-99853261D01*
X122235889Y-99736204D01*
X122285209Y-99603973D01*
X122286988Y-99599204D01*
X122286988Y-99599203D01*
X122286989Y-99599201D01*
X122286989Y-99599198D01*
X122288771Y-99591659D01*
X122290715Y-99592118D01*
X122313449Y-99537237D01*
X122370841Y-99497389D01*
X122440666Y-99494895D01*
X122500755Y-99530547D01*
G37*
%TD.AperFunction*%
%TA.AperFunction,Conductor*%
G36*
X120611830Y-99613185D02*
G01*
X120657585Y-99665989D01*
X120660964Y-99674146D01*
X120684111Y-99736204D01*
X120771739Y-99853261D01*
X120888796Y-99940889D01*
X120896654Y-99943820D01*
X120952585Y-99985692D01*
X120977000Y-100051157D01*
X120962147Y-100119430D01*
X120912740Y-100168834D01*
X120896659Y-100176178D01*
X120888796Y-100179111D01*
X120888795Y-100179111D01*
X120888794Y-100179112D01*
X120771738Y-100266739D01*
X120690043Y-100375870D01*
X120634109Y-100417740D01*
X120564418Y-100422724D01*
X120503095Y-100389238D01*
X120469610Y-100327915D01*
X120467419Y-100314156D01*
X120464681Y-100287348D01*
X120410453Y-100123699D01*
X120410448Y-100123688D01*
X120319947Y-99976965D01*
X120319944Y-99976961D01*
X120286674Y-99943691D01*
X120253189Y-99882368D01*
X120258173Y-99812676D01*
X120286673Y-99768330D01*
X120326658Y-99728346D01*
X120365121Y-99665989D01*
X120373501Y-99652403D01*
X120425449Y-99605678D01*
X120479039Y-99593500D01*
X120544791Y-99593500D01*
X120611830Y-99613185D01*
G37*
%TD.AperFunction*%
%TA.AperFunction,Conductor*%
G36*
X95909539Y-94953185D02*
G01*
X95955294Y-95005989D01*
X95966500Y-95057500D01*
X95966500Y-95542090D01*
X95946815Y-95609129D01*
X95930181Y-95629771D01*
X95902498Y-95657453D01*
X95902492Y-95657461D01*
X95819730Y-95797405D01*
X95819729Y-95797408D01*
X95774372Y-95953526D01*
X95774370Y-95953539D01*
X95771500Y-95990008D01*
X95771501Y-96389989D01*
X95771501Y-96389988D01*
X95774371Y-96426466D01*
X95819729Y-96582591D01*
X95819730Y-96582594D01*
X95851834Y-96636880D01*
X95869015Y-96704604D01*
X95851834Y-96763120D01*
X95819730Y-96817405D01*
X95819729Y-96817408D01*
X95774372Y-96973527D01*
X95774370Y-96973539D01*
X95771500Y-97010008D01*
X95771501Y-97409989D01*
X95771501Y-97409988D01*
X95774371Y-97446466D01*
X95775509Y-97452697D01*
X95772667Y-97453215D01*
X95772377Y-97510690D01*
X95741259Y-97562834D01*
X94520702Y-98783391D01*
X94459379Y-98816876D01*
X94389687Y-98811892D01*
X94333754Y-98770020D01*
X94326298Y-98758844D01*
X94315437Y-98740480D01*
X94298258Y-98672757D01*
X94315443Y-98614238D01*
X94326281Y-98595913D01*
X94372100Y-98438200D01*
X94372295Y-98435715D01*
X94372295Y-98435714D01*
X94035414Y-98435714D01*
X93996415Y-98427638D01*
X93996094Y-98428746D01*
X93828829Y-98380151D01*
X93791505Y-98377214D01*
X93791502Y-98377214D01*
X92974000Y-98377214D01*
X92906961Y-98357529D01*
X92861206Y-98304725D01*
X92850000Y-98253214D01*
X92850000Y-97385714D01*
X93350000Y-97385714D01*
X93350000Y-97935714D01*
X94372295Y-97935714D01*
X94372295Y-97935712D01*
X94372100Y-97933227D01*
X94326281Y-97775515D01*
X94242685Y-97634161D01*
X94242678Y-97634152D01*
X94126561Y-97518035D01*
X94126552Y-97518028D01*
X93985196Y-97434431D01*
X93985193Y-97434430D01*
X93827495Y-97388614D01*
X93827489Y-97388613D01*
X93790644Y-97385714D01*
X93350000Y-97385714D01*
X92850000Y-97385714D01*
X92409356Y-97385714D01*
X92372510Y-97388613D01*
X92372504Y-97388614D01*
X92214806Y-97434430D01*
X92214803Y-97434431D01*
X92073447Y-97518028D01*
X92073438Y-97518035D01*
X91957318Y-97634155D01*
X91955479Y-97636527D01*
X91953564Y-97637909D01*
X91951800Y-97639674D01*
X91951515Y-97639389D01*
X91898835Y-97677434D01*
X91829068Y-97681223D01*
X91768328Y-97646691D01*
X91735900Y-97584803D01*
X91733500Y-97560526D01*
X91733500Y-95057500D01*
X91753185Y-94990461D01*
X91805989Y-94944706D01*
X91857500Y-94933500D01*
X95842500Y-94933500D01*
X95909539Y-94953185D01*
G37*
%TD.AperFunction*%
%TA.AperFunction,Conductor*%
G36*
X107034783Y-74910027D02*
G01*
X107054943Y-74913220D01*
X107101966Y-74908775D01*
X107107804Y-74908500D01*
X107382728Y-74908500D01*
X107449767Y-74928185D01*
X107495522Y-74980989D01*
X107505466Y-75050147D01*
X107476441Y-75113703D01*
X107430180Y-75147061D01*
X107318127Y-75193474D01*
X107318124Y-75193475D01*
X107318124Y-75193476D01*
X107191013Y-75291013D01*
X107120015Y-75383539D01*
X107093474Y-75418127D01*
X107032163Y-75566146D01*
X107032161Y-75566151D01*
X107016500Y-75685114D01*
X107016500Y-75964886D01*
X107032160Y-76083844D01*
X107032162Y-76083851D01*
X107039907Y-76102550D01*
X107047374Y-76172019D01*
X107039908Y-76197447D01*
X107032163Y-76216146D01*
X107032161Y-76216151D01*
X107016500Y-76335114D01*
X107016500Y-76614886D01*
X107032160Y-76733844D01*
X107032162Y-76733851D01*
X107039907Y-76752550D01*
X107047374Y-76822019D01*
X107039908Y-76847447D01*
X107032163Y-76866146D01*
X107032161Y-76866151D01*
X107016500Y-76985114D01*
X107016500Y-77017500D01*
X106996815Y-77084539D01*
X106944011Y-77130294D01*
X106892500Y-77141500D01*
X106279574Y-77141500D01*
X106212535Y-77121815D01*
X106206703Y-77117828D01*
X106056752Y-77008882D01*
X105882288Y-76931206D01*
X105882286Y-76931205D01*
X105695487Y-76891500D01*
X105504513Y-76891500D01*
X105317714Y-76931205D01*
X105143246Y-77008883D01*
X104988745Y-77121135D01*
X104860959Y-77263057D01*
X104765473Y-77428443D01*
X104765470Y-77428450D01*
X104711014Y-77596049D01*
X104706458Y-77610072D01*
X104686496Y-77800000D01*
X104706458Y-77989928D01*
X104706459Y-77989931D01*
X104765470Y-78171549D01*
X104765473Y-78171556D01*
X104860960Y-78336944D01*
X104988747Y-78478866D01*
X105143248Y-78591118D01*
X105317712Y-78668794D01*
X105504513Y-78708500D01*
X105695487Y-78708500D01*
X105882288Y-78668794D01*
X106056752Y-78591118D01*
X106211253Y-78478866D01*
X106211258Y-78478861D01*
X106237670Y-78449528D01*
X106297157Y-78412879D01*
X106329820Y-78408500D01*
X106892501Y-78408500D01*
X106959540Y-78428185D01*
X107005295Y-78480989D01*
X107016501Y-78532500D01*
X107016501Y-78564886D01*
X107032160Y-78683844D01*
X107032162Y-78683851D01*
X107039907Y-78702550D01*
X107047374Y-78772019D01*
X107039908Y-78797447D01*
X107032163Y-78816146D01*
X107032161Y-78816151D01*
X107016500Y-78935114D01*
X107016500Y-79214886D01*
X107032160Y-79333844D01*
X107032162Y-79333851D01*
X107039907Y-79352550D01*
X107047374Y-79422019D01*
X107039908Y-79447447D01*
X107032163Y-79466146D01*
X107032161Y-79466151D01*
X107016500Y-79585114D01*
X107016500Y-79864886D01*
X107032160Y-79983844D01*
X107032162Y-79983851D01*
X107039907Y-80002550D01*
X107047374Y-80072019D01*
X107039908Y-80097447D01*
X107032163Y-80116146D01*
X107032161Y-80116151D01*
X107016500Y-80235114D01*
X107016500Y-80514886D01*
X107032160Y-80633844D01*
X107032162Y-80633851D01*
X107039907Y-80652550D01*
X107047374Y-80722019D01*
X107039908Y-80747447D01*
X107032163Y-80766146D01*
X107032161Y-80766151D01*
X107016500Y-80885114D01*
X107016500Y-81164886D01*
X107032160Y-81283844D01*
X107032162Y-81283851D01*
X107039907Y-81302550D01*
X107047374Y-81372019D01*
X107039908Y-81397447D01*
X107032163Y-81416146D01*
X107032161Y-81416151D01*
X107016500Y-81535114D01*
X107016500Y-81814886D01*
X107032160Y-81933844D01*
X107032162Y-81933851D01*
X107039907Y-81952550D01*
X107047374Y-82022019D01*
X107039908Y-82047447D01*
X107032163Y-82066146D01*
X107032161Y-82066151D01*
X107016500Y-82185114D01*
X107016500Y-82464886D01*
X107032160Y-82583844D01*
X107032162Y-82583851D01*
X107039907Y-82602550D01*
X107047374Y-82672019D01*
X107039908Y-82697447D01*
X107032163Y-82716146D01*
X107032161Y-82716151D01*
X107016500Y-82835114D01*
X107016500Y-83114886D01*
X107032160Y-83233842D01*
X107032163Y-83233853D01*
X107057983Y-83296189D01*
X107093476Y-83381876D01*
X107191013Y-83508987D01*
X107318124Y-83606524D01*
X107466150Y-83667838D01*
X107585115Y-83683500D01*
X108939884Y-83683499D01*
X109026317Y-83672120D01*
X109095350Y-83682885D01*
X109147606Y-83729265D01*
X109166500Y-83795059D01*
X109166500Y-84086232D01*
X109146815Y-84153271D01*
X109130181Y-84173913D01*
X97540287Y-95763806D01*
X97478964Y-95797291D01*
X97409272Y-95792307D01*
X97353339Y-95750435D01*
X97345881Y-95739257D01*
X97297506Y-95657459D01*
X97297501Y-95657453D01*
X97269819Y-95629771D01*
X97236334Y-95568448D01*
X97233500Y-95542090D01*
X97233500Y-94814474D01*
X97253185Y-94747435D01*
X97261945Y-94735447D01*
X97267219Y-94729070D01*
X97271123Y-94724779D01*
X99431085Y-92564818D01*
X99492408Y-92531333D01*
X99518766Y-92528499D01*
X99599989Y-92528499D01*
X99602649Y-92528289D01*
X99636466Y-92525629D01*
X99792596Y-92480269D01*
X99932541Y-92397506D01*
X100047506Y-92282541D01*
X100130269Y-92142596D01*
X100175629Y-91986466D01*
X100178500Y-91949989D01*
X100178499Y-91450012D01*
X100175629Y-91413534D01*
X100130269Y-91257404D01*
X100079509Y-91171574D01*
X100062327Y-91103851D01*
X100079509Y-91045335D01*
X100140269Y-90942596D01*
X100185629Y-90786466D01*
X100188500Y-90749989D01*
X100188499Y-90250012D01*
X100185629Y-90213534D01*
X100140269Y-90057404D01*
X100057506Y-89917459D01*
X100057504Y-89917457D01*
X100057501Y-89917453D01*
X99942546Y-89802498D01*
X99942538Y-89802492D01*
X99822775Y-89731665D01*
X99802596Y-89719731D01*
X99802595Y-89719730D01*
X99802594Y-89719730D01*
X99802591Y-89719729D01*
X99646473Y-89674372D01*
X99646460Y-89674370D01*
X99609992Y-89671500D01*
X99609989Y-89671500D01*
X99433195Y-89671500D01*
X99366156Y-89651815D01*
X99320401Y-89599011D01*
X99309874Y-89534540D01*
X99311044Y-89523402D01*
X99313504Y-89500000D01*
X99293542Y-89310072D01*
X99234527Y-89128444D01*
X99139040Y-88963056D01*
X99011253Y-88821134D01*
X98856752Y-88708882D01*
X98682288Y-88631206D01*
X98682286Y-88631205D01*
X98495487Y-88591500D01*
X98307020Y-88591500D01*
X98239981Y-88571815D01*
X98194226Y-88519011D01*
X98183020Y-88467500D01*
X98183020Y-86264246D01*
X98202705Y-86197207D01*
X98219339Y-86176565D01*
X99563366Y-84832538D01*
X101139946Y-83255958D01*
X101201265Y-83222476D01*
X101270957Y-83227460D01*
X101326890Y-83269332D01*
X101342184Y-83296189D01*
X101375900Y-83377587D01*
X101472075Y-83502924D01*
X101597413Y-83599100D01*
X101743365Y-83659554D01*
X101743369Y-83659555D01*
X101860676Y-83674999D01*
X102337499Y-83674999D01*
X102337500Y-83674998D01*
X102337500Y-83157499D01*
X102357185Y-83090460D01*
X102409989Y-83044705D01*
X102461497Y-83033499D01*
X102613501Y-83033499D01*
X102680539Y-83053184D01*
X102726294Y-83105988D01*
X102737500Y-83157499D01*
X102737500Y-83674999D01*
X103214324Y-83674999D01*
X103331628Y-83659557D01*
X103331633Y-83659555D01*
X103477585Y-83599100D01*
X103602924Y-83502924D01*
X103699100Y-83377586D01*
X103759555Y-83231631D01*
X103767012Y-83175000D01*
X103562445Y-83175000D01*
X103495406Y-83155315D01*
X103449651Y-83102511D01*
X103439707Y-83033353D01*
X103468732Y-82969797D01*
X103486958Y-82952625D01*
X103608983Y-82858990D01*
X103608982Y-82858990D01*
X103608987Y-82858987D01*
X103636208Y-82823511D01*
X103692637Y-82782310D01*
X103734583Y-82775000D01*
X103767010Y-82775000D01*
X103767011Y-82774998D01*
X103759558Y-82718377D01*
X103759556Y-82718372D01*
X103755492Y-82708560D01*
X103748023Y-82639091D01*
X103755489Y-82613662D01*
X103767838Y-82583850D01*
X103783500Y-82464885D01*
X103783499Y-82185116D01*
X103781447Y-82169532D01*
X103776094Y-82128866D01*
X103767838Y-82066150D01*
X103760093Y-82047454D01*
X103752624Y-81977986D01*
X103760094Y-81952545D01*
X103762467Y-81946816D01*
X103767838Y-81933850D01*
X103783500Y-81814885D01*
X103783499Y-81535116D01*
X103767838Y-81416150D01*
X103760093Y-81397454D01*
X103752624Y-81327986D01*
X103760094Y-81302545D01*
X103767838Y-81283850D01*
X103783500Y-81164885D01*
X103783499Y-80885116D01*
X103767838Y-80766150D01*
X103760093Y-80747454D01*
X103752624Y-80677986D01*
X103760094Y-80652545D01*
X103767838Y-80633850D01*
X103783500Y-80514885D01*
X103783499Y-80235116D01*
X103767838Y-80116150D01*
X103760093Y-80097454D01*
X103752624Y-80027986D01*
X103760094Y-80002545D01*
X103760451Y-80001683D01*
X103767838Y-79983850D01*
X103783500Y-79864885D01*
X103783499Y-79585116D01*
X103767838Y-79466150D01*
X103760093Y-79447454D01*
X103752624Y-79377986D01*
X103760094Y-79352545D01*
X103767838Y-79333850D01*
X103783500Y-79214885D01*
X103783499Y-78935116D01*
X103767838Y-78816150D01*
X103760093Y-78797454D01*
X103752624Y-78727986D01*
X103760094Y-78702545D01*
X103767838Y-78683850D01*
X103783500Y-78564885D01*
X103783499Y-78285116D01*
X103767838Y-78166150D01*
X103760093Y-78147454D01*
X103752624Y-78077986D01*
X103760094Y-78052545D01*
X103760746Y-78050970D01*
X103767838Y-78033850D01*
X103783500Y-77914885D01*
X103783499Y-77635116D01*
X103783499Y-77635113D01*
X103771431Y-77543439D01*
X103782197Y-77474403D01*
X103806686Y-77439577D01*
X104588815Y-76657448D01*
X104601180Y-76647544D01*
X104601006Y-76647334D01*
X104607012Y-76642364D01*
X104607018Y-76642361D01*
X104654999Y-76591265D01*
X104676135Y-76570130D01*
X104680458Y-76564556D01*
X104684257Y-76560108D01*
X104696740Y-76546815D01*
X104716586Y-76525682D01*
X104726420Y-76507790D01*
X104737103Y-76491528D01*
X104749614Y-76475402D01*
X104768371Y-76432052D01*
X104770941Y-76426808D01*
X104793693Y-76385425D01*
X104793693Y-76385424D01*
X104793695Y-76385421D01*
X104798774Y-76365634D01*
X104805070Y-76347246D01*
X104813181Y-76328506D01*
X104820569Y-76281858D01*
X104821751Y-76276147D01*
X104833500Y-76230391D01*
X104833500Y-76209976D01*
X104835027Y-76190575D01*
X104836057Y-76184073D01*
X104838220Y-76170418D01*
X104833775Y-76123394D01*
X104833500Y-76117556D01*
X104833500Y-75313766D01*
X104853185Y-75246727D01*
X104869819Y-75226085D01*
X105151086Y-74944819D01*
X105212409Y-74911334D01*
X105238767Y-74908500D01*
X106994970Y-74908500D01*
X107015384Y-74908500D01*
X107034783Y-74910027D01*
G37*
%TD.AperFunction*%
%TA.AperFunction,Conductor*%
G36*
X97538271Y-83953185D02*
G01*
X97584026Y-84005989D01*
X97593970Y-84075147D01*
X97564945Y-84138703D01*
X97558913Y-84145181D01*
X96711179Y-84992914D01*
X96698820Y-85002818D01*
X96698993Y-85003027D01*
X96692983Y-85007999D01*
X96645016Y-85059078D01*
X96623872Y-85080222D01*
X96623857Y-85080239D01*
X96619531Y-85085814D01*
X96615747Y-85090244D01*
X96583419Y-85124671D01*
X96583412Y-85124681D01*
X96573579Y-85142567D01*
X96562903Y-85158820D01*
X96550386Y-85174957D01*
X96550385Y-85174959D01*
X96531625Y-85218310D01*
X96529055Y-85223556D01*
X96506303Y-85264941D01*
X96506303Y-85264942D01*
X96501225Y-85284720D01*
X96494925Y-85303122D01*
X96486818Y-85321857D01*
X96479431Y-85368495D01*
X96478246Y-85374216D01*
X96466500Y-85419965D01*
X96466500Y-85440384D01*
X96464973Y-85459783D01*
X96461780Y-85479941D01*
X96461780Y-85479942D01*
X96466225Y-85526966D01*
X96466500Y-85532804D01*
X96466500Y-88467500D01*
X96446815Y-88534539D01*
X96394011Y-88580294D01*
X96342500Y-88591500D01*
X96304513Y-88591500D01*
X96117714Y-88631205D01*
X95943246Y-88708883D01*
X95788745Y-88821135D01*
X95660959Y-88963057D01*
X95565473Y-89128443D01*
X95565470Y-89128450D01*
X95513746Y-89287642D01*
X95506458Y-89310072D01*
X95486496Y-89500000D01*
X95506458Y-89689928D01*
X95506459Y-89689931D01*
X95565470Y-89871549D01*
X95565473Y-89871556D01*
X95660960Y-90036944D01*
X95788747Y-90178866D01*
X95943248Y-90291118D01*
X96117712Y-90368794D01*
X96117713Y-90368794D01*
X96123649Y-90371437D01*
X96122649Y-90373681D01*
X96171174Y-90406859D01*
X96198375Y-90471217D01*
X96186464Y-90540064D01*
X96139222Y-90591542D01*
X96075184Y-90609357D01*
X94505838Y-90609357D01*
X94438799Y-90589672D01*
X94393044Y-90536868D01*
X94382220Y-90475631D01*
X94383500Y-90459364D01*
X94383500Y-90026352D01*
X94380562Y-89989027D01*
X94380561Y-89989021D01*
X94339558Y-89847887D01*
X94334145Y-89829256D01*
X94315439Y-89797627D01*
X94298257Y-89729904D01*
X94315443Y-89671381D01*
X94326281Y-89653056D01*
X94372100Y-89495343D01*
X94372295Y-89492858D01*
X94372295Y-89492857D01*
X94035414Y-89492857D01*
X93996415Y-89484781D01*
X93996094Y-89485889D01*
X93828829Y-89437294D01*
X93791505Y-89434357D01*
X93791502Y-89434357D01*
X92974000Y-89434357D01*
X92906961Y-89414672D01*
X92861206Y-89361868D01*
X92850000Y-89310357D01*
X92850000Y-88442857D01*
X93350000Y-88442857D01*
X93350000Y-88992857D01*
X94372295Y-88992857D01*
X94372295Y-88992855D01*
X94372100Y-88990370D01*
X94326281Y-88832658D01*
X94242685Y-88691304D01*
X94242678Y-88691295D01*
X94126561Y-88575178D01*
X94126552Y-88575171D01*
X93985196Y-88491574D01*
X93985193Y-88491573D01*
X93827495Y-88445757D01*
X93827489Y-88445756D01*
X93790644Y-88442857D01*
X93350000Y-88442857D01*
X92850000Y-88442857D01*
X92409356Y-88442857D01*
X92372510Y-88445756D01*
X92372504Y-88445757D01*
X92214806Y-88491573D01*
X92214803Y-88491574D01*
X92073447Y-88575171D01*
X92073438Y-88575178D01*
X91957318Y-88691298D01*
X91955479Y-88693670D01*
X91953564Y-88695052D01*
X91951800Y-88696817D01*
X91951515Y-88696532D01*
X91898835Y-88734577D01*
X91829068Y-88738366D01*
X91768328Y-88703834D01*
X91735900Y-88641946D01*
X91733500Y-88617669D01*
X91733500Y-87057500D01*
X91753185Y-86990461D01*
X91805989Y-86944706D01*
X91857500Y-86933500D01*
X93716366Y-86933500D01*
X93732113Y-86935238D01*
X93732139Y-86934968D01*
X93739905Y-86935701D01*
X93739909Y-86935702D01*
X93809958Y-86933500D01*
X93839856Y-86933500D01*
X93839857Y-86933500D01*
X93841222Y-86933327D01*
X93846862Y-86932614D01*
X93852685Y-86932156D01*
X93878708Y-86931338D01*
X93899890Y-86930673D01*
X93909681Y-86927827D01*
X93919481Y-86924980D01*
X93938538Y-86921032D01*
X93958797Y-86918474D01*
X94002721Y-86901082D01*
X94008221Y-86899199D01*
X94053593Y-86886018D01*
X94071165Y-86875625D01*
X94088632Y-86867068D01*
X94107617Y-86859552D01*
X94145826Y-86831790D01*
X94150704Y-86828585D01*
X94191362Y-86804542D01*
X94205802Y-86790100D01*
X94220592Y-86777470D01*
X94237107Y-86765472D01*
X94267222Y-86729067D01*
X94271126Y-86724776D01*
X95881086Y-85114818D01*
X95942409Y-85081333D01*
X95968767Y-85078499D01*
X96049989Y-85078499D01*
X96052649Y-85078289D01*
X96086466Y-85075629D01*
X96242596Y-85030269D01*
X96382541Y-84947506D01*
X96497506Y-84832541D01*
X96580269Y-84692596D01*
X96625629Y-84536466D01*
X96628500Y-84499989D01*
X96628499Y-84100012D01*
X96625919Y-84067225D01*
X96640284Y-83998851D01*
X96689336Y-83949094D01*
X96749537Y-83933500D01*
X97471232Y-83933500D01*
X97538271Y-83953185D01*
G37*
%TD.AperFunction*%
%TA.AperFunction,Conductor*%
G36*
X96496715Y-75775288D02*
G01*
X96533208Y-75800548D01*
X100260598Y-79527938D01*
X100294083Y-79589261D01*
X100289099Y-79658953D01*
X100247227Y-79714886D01*
X100181763Y-79739303D01*
X100176814Y-79739558D01*
X100123866Y-79741222D01*
X100115042Y-79741500D01*
X100085137Y-79741500D01*
X100078143Y-79742384D01*
X100072320Y-79742842D01*
X100025111Y-79744326D01*
X100025108Y-79744327D01*
X100005505Y-79750022D01*
X99986459Y-79753966D01*
X99966203Y-79756526D01*
X99966201Y-79756526D01*
X99966199Y-79756527D01*
X99922282Y-79773914D01*
X99916756Y-79775806D01*
X99871406Y-79788982D01*
X99853831Y-79799375D01*
X99836373Y-79807928D01*
X99817383Y-79815448D01*
X99779172Y-79843208D01*
X99774290Y-79846415D01*
X99733637Y-79870457D01*
X99719201Y-79884894D01*
X99704415Y-79897523D01*
X99687893Y-79909528D01*
X99687891Y-79909529D01*
X99687891Y-79909530D01*
X99687888Y-79909532D01*
X99657780Y-79945925D01*
X99653849Y-79950246D01*
X97973914Y-81630181D01*
X97912591Y-81663666D01*
X97886233Y-81666500D01*
X97321045Y-81666500D01*
X97254006Y-81646815D01*
X97208251Y-81594011D01*
X97198307Y-81524853D01*
X97201969Y-81507905D01*
X97225627Y-81426472D01*
X97225629Y-81426466D01*
X97227913Y-81397447D01*
X97228500Y-81389992D01*
X97228499Y-80990011D01*
X97228499Y-80990012D01*
X97225629Y-80953534D01*
X97180269Y-80797404D01*
X97097506Y-80657459D01*
X97097504Y-80657457D01*
X97097501Y-80657453D01*
X96982546Y-80542498D01*
X96982538Y-80542492D01*
X96905199Y-80496754D01*
X96842596Y-80459731D01*
X96842595Y-80459730D01*
X96842594Y-80459730D01*
X96842591Y-80459729D01*
X96686473Y-80414372D01*
X96686460Y-80414370D01*
X96649992Y-80411500D01*
X96649989Y-80411500D01*
X96275006Y-80411500D01*
X96150011Y-80411501D01*
X96113533Y-80414371D01*
X96113532Y-80414371D01*
X95957408Y-80459729D01*
X95957405Y-80459730D01*
X95817461Y-80542492D01*
X95817457Y-80542495D01*
X95793758Y-80566195D01*
X95729770Y-80630182D01*
X95668450Y-80663666D01*
X95642091Y-80666500D01*
X94497269Y-80666500D01*
X94430230Y-80646815D01*
X94384475Y-80594011D01*
X94377736Y-80555886D01*
X94372295Y-80550000D01*
X94035414Y-80550000D01*
X93996415Y-80541924D01*
X93996094Y-80543032D01*
X93828829Y-80494437D01*
X93791505Y-80491500D01*
X93791502Y-80491500D01*
X92974000Y-80491500D01*
X92906961Y-80471815D01*
X92861206Y-80419011D01*
X92850000Y-80367500D01*
X92850000Y-79500000D01*
X93350000Y-79500000D01*
X93350000Y-80050000D01*
X94372295Y-80050000D01*
X94372295Y-80049998D01*
X94372100Y-80047513D01*
X94326281Y-79889801D01*
X94242685Y-79748447D01*
X94242678Y-79748438D01*
X94126561Y-79632321D01*
X94126552Y-79632314D01*
X93985196Y-79548717D01*
X93985193Y-79548716D01*
X93827495Y-79502900D01*
X93827489Y-79502899D01*
X93790644Y-79500000D01*
X93350000Y-79500000D01*
X92850000Y-79500000D01*
X92409356Y-79500000D01*
X92372510Y-79502899D01*
X92372504Y-79502900D01*
X92214806Y-79548716D01*
X92214803Y-79548717D01*
X92073447Y-79632314D01*
X92073438Y-79632321D01*
X91957318Y-79748441D01*
X91955479Y-79750813D01*
X91953564Y-79752195D01*
X91951800Y-79753960D01*
X91951515Y-79753675D01*
X91898835Y-79791720D01*
X91829068Y-79795509D01*
X91768328Y-79760977D01*
X91735900Y-79699089D01*
X91733500Y-79674812D01*
X91733500Y-77957500D01*
X91753185Y-77890461D01*
X91805989Y-77844706D01*
X91857500Y-77833500D01*
X93836366Y-77833500D01*
X93852113Y-77835238D01*
X93852139Y-77834968D01*
X93859905Y-77835701D01*
X93859909Y-77835702D01*
X93929958Y-77833500D01*
X93959856Y-77833500D01*
X93959857Y-77833500D01*
X93961222Y-77833327D01*
X93966862Y-77832614D01*
X93972685Y-77832156D01*
X93998708Y-77831338D01*
X94019890Y-77830673D01*
X94029681Y-77827827D01*
X94039481Y-77824980D01*
X94058538Y-77821032D01*
X94078797Y-77818474D01*
X94122721Y-77801082D01*
X94128221Y-77799199D01*
X94173593Y-77786018D01*
X94191165Y-77775625D01*
X94208632Y-77767068D01*
X94227617Y-77759552D01*
X94265826Y-77731790D01*
X94270704Y-77728585D01*
X94311362Y-77704542D01*
X94325802Y-77690100D01*
X94340592Y-77677470D01*
X94357107Y-77665472D01*
X94387222Y-77629067D01*
X94391126Y-77624776D01*
X95581085Y-76434818D01*
X95642408Y-76401333D01*
X95668766Y-76398499D01*
X95749989Y-76398499D01*
X95752649Y-76398289D01*
X95786466Y-76395629D01*
X95942596Y-76350269D01*
X96082541Y-76267506D01*
X96197506Y-76152541D01*
X96280269Y-76012596D01*
X96325629Y-75856466D01*
X96325629Y-75856459D01*
X96326450Y-75853635D01*
X96364056Y-75794749D01*
X96427529Y-75765542D01*
X96496715Y-75775288D01*
G37*
%TD.AperFunction*%
%TA.AperFunction,Conductor*%
G36*
X96815406Y-68827156D02*
G01*
X96859753Y-68855657D01*
X99280661Y-71276565D01*
X99314146Y-71337888D01*
X99316980Y-71364246D01*
X99316980Y-75857431D01*
X99297295Y-75924470D01*
X99244491Y-75970225D01*
X99175333Y-75980169D01*
X99111777Y-75951144D01*
X99105299Y-75945112D01*
X97150699Y-73990512D01*
X97117214Y-73929189D01*
X97119305Y-73868232D01*
X97122527Y-73857143D01*
X97125629Y-73846466D01*
X97128500Y-73809989D01*
X97128499Y-73410012D01*
X97125629Y-73373534D01*
X97080269Y-73217404D01*
X97048165Y-73163120D01*
X97030982Y-73095399D01*
X97048166Y-73036878D01*
X97080269Y-72982596D01*
X97125629Y-72826466D01*
X97128500Y-72789989D01*
X97128499Y-72390012D01*
X97125629Y-72353534D01*
X97080269Y-72197404D01*
X96997506Y-72057459D01*
X96997504Y-72057457D01*
X96997501Y-72057453D01*
X96882546Y-71942498D01*
X96882538Y-71942492D01*
X96742594Y-71859730D01*
X96742591Y-71859729D01*
X96586473Y-71814372D01*
X96586460Y-71814370D01*
X96549992Y-71811500D01*
X96549989Y-71811500D01*
X96427040Y-71811500D01*
X96377794Y-71801302D01*
X96348838Y-71788771D01*
X96343589Y-71786200D01*
X96302206Y-71763449D01*
X96302203Y-71763448D01*
X96298803Y-71762575D01*
X96282430Y-71758371D01*
X96264024Y-71752069D01*
X96245287Y-71743961D01*
X96245289Y-71743961D01*
X96198639Y-71736573D01*
X96192924Y-71735389D01*
X96172755Y-71730211D01*
X96147175Y-71723643D01*
X96147173Y-71723643D01*
X96126759Y-71723643D01*
X96107360Y-71722116D01*
X96087201Y-71718923D01*
X96087200Y-71718923D01*
X96040177Y-71723368D01*
X96034339Y-71723643D01*
X94497269Y-71723643D01*
X94430230Y-71703958D01*
X94384475Y-71651154D01*
X94377736Y-71613029D01*
X94372295Y-71607143D01*
X94035414Y-71607143D01*
X93996415Y-71599067D01*
X93996094Y-71600175D01*
X93828829Y-71551580D01*
X93791505Y-71548643D01*
X93791502Y-71548643D01*
X92974000Y-71548643D01*
X92906961Y-71528958D01*
X92861206Y-71476154D01*
X92850000Y-71424643D01*
X92850000Y-70557143D01*
X93350000Y-70557143D01*
X93350000Y-71107143D01*
X94372295Y-71107143D01*
X94372295Y-71107141D01*
X94372100Y-71104656D01*
X94326281Y-70946944D01*
X94242685Y-70805590D01*
X94242678Y-70805581D01*
X94126561Y-70689464D01*
X94126552Y-70689457D01*
X93985196Y-70605860D01*
X93985193Y-70605859D01*
X93827495Y-70560043D01*
X93827489Y-70560042D01*
X93790644Y-70557143D01*
X93350000Y-70557143D01*
X92850000Y-70557143D01*
X92409356Y-70557143D01*
X92372510Y-70560042D01*
X92372504Y-70560043D01*
X92214806Y-70605859D01*
X92214803Y-70605860D01*
X92073447Y-70689457D01*
X92073438Y-70689464D01*
X91957318Y-70805584D01*
X91955479Y-70807956D01*
X91953564Y-70809338D01*
X91951800Y-70811103D01*
X91951515Y-70810818D01*
X91898835Y-70848863D01*
X91829068Y-70852652D01*
X91768328Y-70818120D01*
X91735900Y-70756232D01*
X91733500Y-70731955D01*
X91733500Y-69067500D01*
X91753185Y-69000461D01*
X91805989Y-68954706D01*
X91857500Y-68943500D01*
X95359853Y-68943500D01*
X95422974Y-68960768D01*
X95459104Y-68982135D01*
X95557404Y-69040269D01*
X95609447Y-69055389D01*
X95713526Y-69085627D01*
X95713528Y-69085627D01*
X95713534Y-69085629D01*
X95736332Y-69087423D01*
X95750008Y-69088500D01*
X95750010Y-69088499D01*
X95750011Y-69088500D01*
X96124993Y-69088499D01*
X96249989Y-69088499D01*
X96252649Y-69088289D01*
X96286466Y-69085629D01*
X96442596Y-69040269D01*
X96582541Y-68957506D01*
X96628596Y-68911451D01*
X96684391Y-68855657D01*
X96745714Y-68822172D01*
X96815406Y-68827156D01*
G37*
%TD.AperFunction*%
%TA.AperFunction,Conductor*%
G36*
X127593039Y-73973185D02*
G01*
X127638794Y-74025989D01*
X127650000Y-74077500D01*
X127650000Y-74160644D01*
X127652899Y-74197489D01*
X127652900Y-74197495D01*
X127698716Y-74355193D01*
X127698717Y-74355196D01*
X127721890Y-74394379D01*
X127739073Y-74462102D01*
X127716913Y-74528365D01*
X127662447Y-74572129D01*
X127615158Y-74581500D01*
X127595144Y-74581500D01*
X127595141Y-74581500D01*
X127595129Y-74581501D01*
X127588137Y-74582384D01*
X127582320Y-74582841D01*
X127535114Y-74584325D01*
X127535107Y-74584326D01*
X127515500Y-74590022D01*
X127496461Y-74593965D01*
X127476211Y-74596524D01*
X127476201Y-74596526D01*
X127432291Y-74613911D01*
X127426765Y-74615803D01*
X127381412Y-74628979D01*
X127381407Y-74628981D01*
X127363833Y-74639374D01*
X127346372Y-74647928D01*
X127327386Y-74655446D01*
X127327384Y-74655447D01*
X127289172Y-74683208D01*
X127284290Y-74686415D01*
X127243637Y-74710457D01*
X127229201Y-74724894D01*
X127214415Y-74737523D01*
X127197893Y-74749528D01*
X127197891Y-74749529D01*
X127197891Y-74749530D01*
X127197888Y-74749532D01*
X127167780Y-74785925D01*
X127163849Y-74790246D01*
X126763914Y-75190181D01*
X126702591Y-75223666D01*
X126676233Y-75226500D01*
X126298461Y-75226500D01*
X126231422Y-75206815D01*
X126210780Y-75190181D01*
X125770131Y-74749532D01*
X125303585Y-74282985D01*
X125293684Y-74270625D01*
X125293474Y-74270800D01*
X125288499Y-74264788D01*
X125288497Y-74264784D01*
X125246029Y-74224904D01*
X125237418Y-74216817D01*
X125216265Y-74195665D01*
X125214289Y-74194133D01*
X125210680Y-74191333D01*
X125206246Y-74187545D01*
X125185317Y-74167891D01*
X125149923Y-74107649D01*
X125152717Y-74037836D01*
X125192812Y-73980615D01*
X125257477Y-73954155D01*
X125270202Y-73953500D01*
X127526000Y-73953500D01*
X127593039Y-73973185D01*
G37*
%TD.AperFunction*%
%TD*%
%TA.AperFunction,Conductor*%
%TO.N,GNDPWR*%
G36*
X141888703Y-84036831D02*
G01*
X141895181Y-84042863D01*
X141951348Y-84099030D01*
X142102262Y-84192115D01*
X142270574Y-84247887D01*
X142374455Y-84258500D01*
X143775544Y-84258499D01*
X143837898Y-84252129D01*
X143906591Y-84264898D01*
X143957475Y-84312779D01*
X143974500Y-84375487D01*
X143974500Y-87524512D01*
X143954815Y-87591551D01*
X143902011Y-87637306D01*
X143837897Y-87647870D01*
X143775546Y-87641500D01*
X142374462Y-87641500D01*
X142374446Y-87641501D01*
X142270572Y-87652113D01*
X142102264Y-87707884D01*
X142102259Y-87707886D01*
X141951346Y-87800971D01*
X141825971Y-87926346D01*
X141732886Y-88077259D01*
X141732884Y-88077264D01*
X141677113Y-88245572D01*
X141666500Y-88349447D01*
X141666500Y-89150537D01*
X141666501Y-89150553D01*
X141677113Y-89254427D01*
X141732884Y-89422735D01*
X141732886Y-89422740D01*
X141743590Y-89440093D01*
X141825970Y-89573652D01*
X141951348Y-89699030D01*
X142102262Y-89792115D01*
X142270574Y-89847887D01*
X142374455Y-89858500D01*
X143775544Y-89858499D01*
X143837898Y-89852129D01*
X143906591Y-89864898D01*
X143957475Y-89912779D01*
X143974500Y-89975487D01*
X143974500Y-96642617D01*
X143954815Y-96709656D01*
X143902011Y-96755411D01*
X143849705Y-96766614D01*
X140114834Y-96742672D01*
X140047922Y-96722559D01*
X140002507Y-96669462D01*
X139993007Y-96600242D01*
X140012139Y-96550369D01*
X140068501Y-96464985D01*
X140153998Y-96264957D01*
X140202404Y-96052877D01*
X140212163Y-95835562D01*
X140182963Y-95619996D01*
X140115741Y-95413109D01*
X140012659Y-95221550D01*
X139942415Y-95133467D01*
X139877030Y-95051477D01*
X139713213Y-94908353D01*
X139608495Y-94845787D01*
X139526468Y-94796778D01*
X139508654Y-94790092D01*
X139452807Y-94748107D01*
X139428524Y-94682593D01*
X139443516Y-94614350D01*
X139493022Y-94565046D01*
X139552226Y-94550000D01*
X139747828Y-94550000D01*
X139747844Y-94549999D01*
X139807372Y-94543598D01*
X139807379Y-94543596D01*
X139942086Y-94493354D01*
X139942093Y-94493350D01*
X140057187Y-94407190D01*
X140057190Y-94407187D01*
X140143350Y-94292093D01*
X140143354Y-94292086D01*
X140193596Y-94157379D01*
X140193598Y-94157372D01*
X140199999Y-94097844D01*
X140200000Y-94097827D01*
X140200000Y-93600000D01*
X139233686Y-93600000D01*
X139259493Y-93559844D01*
X139300000Y-93421889D01*
X139300000Y-93278111D01*
X139259493Y-93140156D01*
X139233686Y-93100000D01*
X140200000Y-93100000D01*
X140200000Y-92602172D01*
X140199999Y-92602155D01*
X140193598Y-92542627D01*
X140193596Y-92542620D01*
X140143354Y-92407913D01*
X140143350Y-92407906D01*
X140057190Y-92292812D01*
X140057187Y-92292809D01*
X139942093Y-92206649D01*
X139942086Y-92206645D01*
X139807379Y-92156403D01*
X139807372Y-92156401D01*
X139747844Y-92150000D01*
X139050000Y-92150000D01*
X139050000Y-92914498D01*
X138942315Y-92865320D01*
X138835763Y-92850000D01*
X138764237Y-92850000D01*
X138657685Y-92865320D01*
X138550000Y-92914498D01*
X138550000Y-92150000D01*
X137852155Y-92150000D01*
X137792627Y-92156401D01*
X137792620Y-92156403D01*
X137657913Y-92206645D01*
X137657906Y-92206649D01*
X137542812Y-92292809D01*
X137542809Y-92292812D01*
X137523266Y-92318919D01*
X137467332Y-92360790D01*
X137397641Y-92365774D01*
X137336318Y-92332288D01*
X137302834Y-92270965D01*
X137300000Y-92244608D01*
X137300000Y-92200000D01*
X136337500Y-92200000D01*
X136337500Y-93325000D01*
X136599973Y-93325000D01*
X136599985Y-93324999D01*
X136702689Y-93314506D01*
X136702696Y-93314505D01*
X136869118Y-93259358D01*
X136869123Y-93259356D01*
X137018344Y-93167315D01*
X137142317Y-93043342D01*
X137170461Y-92997714D01*
X137222409Y-92950989D01*
X137291371Y-92939766D01*
X137355453Y-92967609D01*
X137394310Y-93025678D01*
X137400000Y-93062810D01*
X137400000Y-93100000D01*
X138366314Y-93100000D01*
X138340507Y-93140156D01*
X138300000Y-93278111D01*
X138300000Y-93421889D01*
X138340507Y-93559844D01*
X138366314Y-93600000D01*
X137400000Y-93600000D01*
X137400000Y-94097844D01*
X137406401Y-94157372D01*
X137406403Y-94157379D01*
X137456645Y-94292086D01*
X137456649Y-94292093D01*
X137542809Y-94407187D01*
X137542812Y-94407190D01*
X137657906Y-94493350D01*
X137657913Y-94493354D01*
X137792620Y-94543596D01*
X137792627Y-94543598D01*
X137852155Y-94549999D01*
X137852172Y-94550000D01*
X138053951Y-94550000D01*
X138120990Y-94569685D01*
X138166745Y-94622489D01*
X138176689Y-94691647D01*
X138147664Y-94755203D01*
X138107752Y-94785720D01*
X137977659Y-94848368D01*
X137977649Y-94848374D01*
X137801672Y-94976229D01*
X137801664Y-94976235D01*
X137651338Y-95133464D01*
X137606884Y-95200811D01*
X137553525Y-95245916D01*
X137503397Y-95256500D01*
X137232500Y-95256500D01*
X137165461Y-95236815D01*
X137119706Y-95184011D01*
X137108500Y-95132500D01*
X137108500Y-94324461D01*
X137108499Y-94324448D01*
X137108312Y-94322617D01*
X137097887Y-94220575D01*
X137097563Y-94219596D01*
X137042116Y-94052264D01*
X137042115Y-94052261D01*
X136949032Y-93901352D01*
X136949029Y-93901348D01*
X136823651Y-93775970D01*
X136823647Y-93775967D01*
X136672738Y-93682884D01*
X136672735Y-93682883D01*
X136504428Y-93627113D01*
X136400551Y-93616500D01*
X136400544Y-93616500D01*
X135374456Y-93616500D01*
X135374448Y-93616500D01*
X135270571Y-93627113D01*
X135102264Y-93682883D01*
X135102261Y-93682884D01*
X134951352Y-93775967D01*
X134951348Y-93775970D01*
X134825970Y-93901348D01*
X134825967Y-93901352D01*
X134732884Y-94052261D01*
X134732883Y-94052264D01*
X134677113Y-94220571D01*
X134666500Y-94324448D01*
X134666500Y-96575538D01*
X134666661Y-96578701D01*
X134665846Y-96578742D01*
X134653700Y-96644033D01*
X134605812Y-96694911D01*
X134538020Y-96711822D01*
X134524688Y-96710550D01*
X134498904Y-96706674D01*
X134256581Y-96705120D01*
X134189669Y-96685006D01*
X134144254Y-96631910D01*
X134134273Y-96578701D01*
X134133500Y-96578701D01*
X134133500Y-94324461D01*
X134133499Y-94324448D01*
X134133312Y-94322617D01*
X134122887Y-94220575D01*
X134122563Y-94219596D01*
X134067116Y-94052264D01*
X134067115Y-94052261D01*
X133974032Y-93901352D01*
X133974029Y-93901348D01*
X133848651Y-93775970D01*
X133848647Y-93775967D01*
X133697746Y-93682889D01*
X133697740Y-93682886D01*
X133697738Y-93682885D01*
X133691440Y-93680798D01*
X133630996Y-93660769D01*
X133573551Y-93620996D01*
X133546728Y-93556480D01*
X133546000Y-93543063D01*
X133546000Y-93453603D01*
X133565685Y-93386564D01*
X133618489Y-93340809D01*
X133657394Y-93330246D01*
X133729425Y-93322887D01*
X133897738Y-93267115D01*
X134048651Y-93174030D01*
X134174030Y-93048651D01*
X134267115Y-92897738D01*
X134322887Y-92729425D01*
X134333500Y-92625544D01*
X134333500Y-92200000D01*
X134875000Y-92200000D01*
X134875000Y-92624985D01*
X134885493Y-92727689D01*
X134885494Y-92727696D01*
X134940641Y-92894118D01*
X134940643Y-92894123D01*
X135032684Y-93043344D01*
X135156655Y-93167315D01*
X135305876Y-93259356D01*
X135305881Y-93259358D01*
X135472303Y-93314505D01*
X135472310Y-93314506D01*
X135575014Y-93324999D01*
X135575027Y-93325000D01*
X135837500Y-93325000D01*
X135837500Y-92200000D01*
X134875000Y-92200000D01*
X134333500Y-92200000D01*
X134333500Y-91700000D01*
X134875000Y-91700000D01*
X135837500Y-91700000D01*
X135837500Y-90575000D01*
X136337500Y-90575000D01*
X136337500Y-91700000D01*
X137300000Y-91700000D01*
X137300000Y-91275027D01*
X137299999Y-91275014D01*
X137289506Y-91172310D01*
X137289505Y-91172303D01*
X137234358Y-91005881D01*
X137234356Y-91005876D01*
X137142315Y-90856655D01*
X137018344Y-90732684D01*
X136869123Y-90640643D01*
X136869118Y-90640641D01*
X136702696Y-90585494D01*
X136702689Y-90585493D01*
X136599985Y-90575000D01*
X136337500Y-90575000D01*
X135837500Y-90575000D01*
X135575014Y-90575000D01*
X135472310Y-90585493D01*
X135472303Y-90585494D01*
X135305881Y-90640641D01*
X135305876Y-90640643D01*
X135156655Y-90732684D01*
X135032684Y-90856655D01*
X134940643Y-91005876D01*
X134940641Y-91005881D01*
X134885494Y-91172303D01*
X134885493Y-91172310D01*
X134875000Y-91275014D01*
X134875000Y-91700000D01*
X134333500Y-91700000D01*
X134333500Y-91274456D01*
X134322887Y-91170575D01*
X134322886Y-91170571D01*
X134267116Y-91002264D01*
X134267115Y-91002261D01*
X134174032Y-90851352D01*
X134174029Y-90851348D01*
X134048651Y-90725970D01*
X134048647Y-90725967D01*
X133897746Y-90632889D01*
X133897740Y-90632886D01*
X133897738Y-90632885D01*
X133881798Y-90627603D01*
X133830996Y-90610769D01*
X133773551Y-90570996D01*
X133746728Y-90506480D01*
X133746000Y-90493063D01*
X133746000Y-90251266D01*
X133765685Y-90184227D01*
X133782319Y-90163585D01*
X135266691Y-88679213D01*
X136245902Y-87700001D01*
X137927704Y-87700001D01*
X137927899Y-87702486D01*
X137973718Y-87860198D01*
X138057314Y-88001552D01*
X138057321Y-88001561D01*
X138173438Y-88117678D01*
X138173447Y-88117685D01*
X138314803Y-88201282D01*
X138314806Y-88201283D01*
X138472504Y-88247099D01*
X138472510Y-88247100D01*
X138509356Y-88250000D01*
X138950000Y-88250000D01*
X138950000Y-87700000D01*
X139450000Y-87700000D01*
X139450000Y-88250000D01*
X139890644Y-88250000D01*
X139927489Y-88247100D01*
X139927495Y-88247099D01*
X140085193Y-88201283D01*
X140085196Y-88201282D01*
X140226552Y-88117685D01*
X140226561Y-88117678D01*
X140342678Y-88001561D01*
X140342685Y-88001552D01*
X140426281Y-87860198D01*
X140472100Y-87702486D01*
X140472295Y-87700001D01*
X140472295Y-87700000D01*
X139450000Y-87700000D01*
X138950000Y-87700000D01*
X137927705Y-87700000D01*
X137927704Y-87700001D01*
X136245902Y-87700001D01*
X136772328Y-87173575D01*
X136833649Y-87140092D01*
X136903341Y-87145076D01*
X136932892Y-87160939D01*
X137043248Y-87241118D01*
X137217712Y-87318794D01*
X137404513Y-87358500D01*
X137595487Y-87358500D01*
X137782288Y-87318794D01*
X137956752Y-87241118D01*
X137980750Y-87223681D01*
X138046556Y-87200202D01*
X138053636Y-87200000D01*
X138264586Y-87200000D01*
X138303584Y-87208075D01*
X138303906Y-87206968D01*
X138311398Y-87209144D01*
X138311399Y-87209145D01*
X138471169Y-87255562D01*
X138480501Y-87256296D01*
X138508495Y-87258500D01*
X138508498Y-87258500D01*
X139891505Y-87258500D01*
X139913899Y-87256737D01*
X139928831Y-87255562D01*
X140088601Y-87209145D01*
X140088601Y-87209144D01*
X140096094Y-87206968D01*
X140096415Y-87208075D01*
X140135414Y-87200000D01*
X140472295Y-87200000D01*
X140472295Y-87199998D01*
X140472100Y-87197513D01*
X140426281Y-87039801D01*
X140415440Y-87021470D01*
X140398257Y-86953746D01*
X140415440Y-86895228D01*
X140434145Y-86863601D01*
X140480562Y-86703831D01*
X140483500Y-86666502D01*
X140483500Y-86233498D01*
X140480562Y-86196169D01*
X140434145Y-86036399D01*
X140420378Y-86013121D01*
X140403195Y-85945400D01*
X140420379Y-85886877D01*
X140434145Y-85863601D01*
X140480562Y-85703831D01*
X140483500Y-85666502D01*
X140483500Y-85560517D01*
X140503185Y-85493478D01*
X140519819Y-85472836D01*
X140956260Y-85036395D01*
X141438817Y-84553837D01*
X141451178Y-84543936D01*
X141451004Y-84543726D01*
X141457013Y-84538753D01*
X141457018Y-84538751D01*
X141504984Y-84487671D01*
X141526135Y-84466521D01*
X141530461Y-84460943D01*
X141534250Y-84456506D01*
X141566586Y-84422072D01*
X141576419Y-84404183D01*
X141587102Y-84387920D01*
X141599614Y-84371792D01*
X141618371Y-84328442D01*
X141620941Y-84323198D01*
X141643693Y-84281815D01*
X141643693Y-84281814D01*
X141643695Y-84281811D01*
X141648774Y-84262024D01*
X141655070Y-84243636D01*
X141663181Y-84224896D01*
X141670569Y-84178248D01*
X141671751Y-84172537D01*
X141683500Y-84126781D01*
X141683500Y-84126778D01*
X141684478Y-84119039D01*
X141686792Y-84119331D01*
X141703185Y-84063505D01*
X141755989Y-84017750D01*
X141825147Y-84007806D01*
X141888703Y-84036831D01*
G37*
%TD.AperFunction*%
%TA.AperFunction,Conductor*%
G36*
X132173846Y-77820131D02*
G01*
X132179813Y-77825717D01*
X132340910Y-77986815D01*
X132497913Y-78143818D01*
X132507822Y-78156185D01*
X132508032Y-78156012D01*
X132513005Y-78162024D01*
X132564079Y-78209984D01*
X132585224Y-78231130D01*
X132590813Y-78235466D01*
X132595245Y-78239252D01*
X132625512Y-78267673D01*
X132629680Y-78271587D01*
X132647562Y-78281417D01*
X132663827Y-78292101D01*
X132679959Y-78304614D01*
X132723316Y-78323375D01*
X132728552Y-78325941D01*
X132737810Y-78331031D01*
X132765745Y-78352005D01*
X132843193Y-78429453D01*
X132986399Y-78514145D01*
X133102097Y-78547758D01*
X133160980Y-78585362D01*
X133190187Y-78648834D01*
X133191500Y-78666833D01*
X133191500Y-78680212D01*
X133171815Y-78747251D01*
X133132599Y-78785750D01*
X133071652Y-78823343D01*
X132948339Y-78946657D01*
X132856795Y-79095071D01*
X132856790Y-79095082D01*
X132801938Y-79260617D01*
X132791500Y-79362779D01*
X132791500Y-79937205D01*
X132791501Y-79937221D01*
X132801938Y-80039382D01*
X132856790Y-80204917D01*
X132856795Y-80204928D01*
X132948339Y-80353342D01*
X132948342Y-80353346D01*
X133071653Y-80476657D01*
X133071657Y-80476660D01*
X133220071Y-80568204D01*
X133220074Y-80568205D01*
X133220080Y-80568209D01*
X133385619Y-80623062D01*
X133487787Y-80633500D01*
X134162212Y-80633499D01*
X134264381Y-80623062D01*
X134429920Y-80568209D01*
X134578346Y-80476658D01*
X134618330Y-80436673D01*
X134679651Y-80403189D01*
X134749342Y-80408173D01*
X134793691Y-80436674D01*
X134826961Y-80469944D01*
X134826965Y-80469947D01*
X134973688Y-80560448D01*
X134973699Y-80560453D01*
X135137347Y-80614680D01*
X135238351Y-80624999D01*
X135325000Y-80624998D01*
X135325000Y-79900000D01*
X135825000Y-79900000D01*
X135825000Y-80624999D01*
X135911640Y-80624999D01*
X135911654Y-80624998D01*
X136012652Y-80614680D01*
X136176300Y-80560453D01*
X136176311Y-80560448D01*
X136323034Y-80469947D01*
X136323038Y-80469944D01*
X136444944Y-80348038D01*
X136444947Y-80348034D01*
X136535448Y-80201311D01*
X136535453Y-80201300D01*
X136589680Y-80037652D01*
X136599999Y-79936654D01*
X136600000Y-79936641D01*
X136600000Y-79900000D01*
X135825000Y-79900000D01*
X135325000Y-79900000D01*
X135325000Y-79524000D01*
X135344685Y-79456961D01*
X135397489Y-79411206D01*
X135449000Y-79400000D01*
X136599999Y-79400000D01*
X136599999Y-79363360D01*
X136599998Y-79363345D01*
X136589680Y-79262346D01*
X136588169Y-79257784D01*
X136585767Y-79187956D01*
X136621499Y-79127914D01*
X136632998Y-79118457D01*
X136634061Y-79117685D01*
X136637107Y-79115472D01*
X136667222Y-79079067D01*
X136671126Y-79074776D01*
X137045902Y-78700001D01*
X137827704Y-78700001D01*
X137827899Y-78702486D01*
X137873718Y-78860198D01*
X137957314Y-79001552D01*
X137957321Y-79001561D01*
X138073438Y-79117678D01*
X138073447Y-79117685D01*
X138214803Y-79201282D01*
X138214806Y-79201283D01*
X138372504Y-79247099D01*
X138372510Y-79247100D01*
X138409356Y-79250000D01*
X138850000Y-79250000D01*
X138850000Y-78700000D01*
X137827705Y-78700000D01*
X137827704Y-78700001D01*
X137045902Y-78700001D01*
X137351085Y-78394819D01*
X137412408Y-78361334D01*
X137438766Y-78358500D01*
X137495487Y-78358500D01*
X137682288Y-78318794D01*
X137856752Y-78241118D01*
X137880750Y-78223681D01*
X137946556Y-78200202D01*
X137953636Y-78200000D01*
X138164586Y-78200000D01*
X138203584Y-78208075D01*
X138203906Y-78206968D01*
X138211398Y-78209144D01*
X138211399Y-78209145D01*
X138371169Y-78255562D01*
X138380501Y-78256296D01*
X138408495Y-78258500D01*
X139226000Y-78258500D01*
X139293039Y-78278185D01*
X139338794Y-78330989D01*
X139350000Y-78382500D01*
X139350000Y-79250000D01*
X139790644Y-79250000D01*
X139827489Y-79247100D01*
X139827495Y-79247099D01*
X139985193Y-79201283D01*
X139985196Y-79201282D01*
X140126552Y-79117685D01*
X140126561Y-79117678D01*
X140204819Y-79039421D01*
X140266142Y-79005936D01*
X140335834Y-79010920D01*
X140391767Y-79052792D01*
X140416184Y-79118256D01*
X140416500Y-79127102D01*
X140416500Y-80731583D01*
X140396815Y-80798622D01*
X140344011Y-80844377D01*
X140274853Y-80854321D01*
X140211297Y-80825296D01*
X140200351Y-80814556D01*
X140161254Y-80771135D01*
X140159530Y-80769882D01*
X140006752Y-80658882D01*
X139832288Y-80581206D01*
X139832286Y-80581205D01*
X139645487Y-80541500D01*
X139454513Y-80541500D01*
X139267714Y-80581205D01*
X139203264Y-80609900D01*
X139150260Y-80633499D01*
X139093246Y-80658883D01*
X138938745Y-80771135D01*
X138810959Y-80913057D01*
X138715473Y-81078443D01*
X138715470Y-81078450D01*
X138662820Y-81240492D01*
X138656458Y-81260072D01*
X138639830Y-81418279D01*
X138636496Y-81450002D01*
X138637730Y-81461747D01*
X138625159Y-81530476D01*
X138623072Y-81534439D01*
X138606303Y-81564941D01*
X138606303Y-81564942D01*
X138601225Y-81584720D01*
X138594925Y-81603122D01*
X138586818Y-81621857D01*
X138579431Y-81668495D01*
X138578246Y-81674216D01*
X138566500Y-81719965D01*
X138566500Y-81740384D01*
X138564973Y-81759783D01*
X138561780Y-81779941D01*
X138561780Y-81779942D01*
X138566225Y-81826966D01*
X138566500Y-81832804D01*
X138566500Y-83523639D01*
X138546815Y-83590678D01*
X138494011Y-83636433D01*
X138477095Y-83642715D01*
X138311404Y-83690853D01*
X138311398Y-83690855D01*
X138168196Y-83775544D01*
X138168187Y-83775551D01*
X138050551Y-83893187D01*
X138050544Y-83893196D01*
X137965855Y-84036398D01*
X137965853Y-84036403D01*
X137919438Y-84196164D01*
X137919437Y-84196170D01*
X137916500Y-84233495D01*
X137916500Y-84666505D01*
X137919437Y-84703829D01*
X137919438Y-84703835D01*
X137965853Y-84863596D01*
X137965856Y-84863604D01*
X137979622Y-84886881D01*
X137996803Y-84954605D01*
X137979622Y-85013119D01*
X137965856Y-85036395D01*
X137965853Y-85036403D01*
X137919438Y-85196164D01*
X137919437Y-85196170D01*
X137916500Y-85233495D01*
X137916500Y-85456606D01*
X137896815Y-85523645D01*
X137844011Y-85569400D01*
X137774853Y-85579344D01*
X137766719Y-85577896D01*
X137595487Y-85541500D01*
X137404513Y-85541500D01*
X137217714Y-85581205D01*
X137043246Y-85658883D01*
X136888745Y-85771135D01*
X136884840Y-85775473D01*
X136825354Y-85812121D01*
X136792691Y-85816500D01*
X136683631Y-85816500D01*
X136667879Y-85814760D01*
X136667854Y-85815032D01*
X136660092Y-85814298D01*
X136660091Y-85814298D01*
X136590028Y-85816500D01*
X136560144Y-85816500D01*
X136560141Y-85816500D01*
X136560129Y-85816501D01*
X136553137Y-85817384D01*
X136547320Y-85817841D01*
X136500114Y-85819325D01*
X136500107Y-85819326D01*
X136480500Y-85825022D01*
X136461461Y-85828965D01*
X136441211Y-85831524D01*
X136441201Y-85831526D01*
X136397291Y-85848911D01*
X136391765Y-85850803D01*
X136346412Y-85863979D01*
X136346407Y-85863981D01*
X136328833Y-85874374D01*
X136311372Y-85882928D01*
X136292386Y-85890446D01*
X136292384Y-85890447D01*
X136254172Y-85918208D01*
X136249290Y-85921415D01*
X136208637Y-85945457D01*
X136194201Y-85959894D01*
X136179415Y-85972523D01*
X136162893Y-85984528D01*
X136162891Y-85984529D01*
X136162891Y-85984530D01*
X136162888Y-85984532D01*
X136132780Y-86020925D01*
X136128849Y-86025246D01*
X132723679Y-89430414D01*
X132711320Y-89440318D01*
X132711493Y-89440527D01*
X132705483Y-89445499D01*
X132657516Y-89496578D01*
X132636372Y-89517722D01*
X132636357Y-89517739D01*
X132632031Y-89523314D01*
X132628247Y-89527744D01*
X132595919Y-89562171D01*
X132595912Y-89562181D01*
X132586079Y-89580067D01*
X132575403Y-89596320D01*
X132562886Y-89612457D01*
X132562885Y-89612459D01*
X132544125Y-89655810D01*
X132541555Y-89661056D01*
X132518803Y-89702441D01*
X132518803Y-89702442D01*
X132513725Y-89722220D01*
X132507425Y-89740622D01*
X132499318Y-89759357D01*
X132491931Y-89805995D01*
X132490746Y-89811716D01*
X132479000Y-89857465D01*
X132479000Y-89877884D01*
X132477473Y-89897283D01*
X132474280Y-89917441D01*
X132474280Y-89917442D01*
X132478725Y-89964466D01*
X132479000Y-89970304D01*
X132479000Y-90493063D01*
X132459315Y-90560102D01*
X132406511Y-90605857D01*
X132394004Y-90610769D01*
X132327264Y-90632884D01*
X132327253Y-90632889D01*
X132176352Y-90725967D01*
X132110427Y-90791892D01*
X132049103Y-90825376D01*
X131979412Y-90820391D01*
X131923478Y-90778520D01*
X131899062Y-90713055D01*
X131898748Y-90703537D01*
X131898749Y-90703501D01*
X131968138Y-77912728D01*
X131988186Y-77845798D01*
X132041237Y-77800330D01*
X132110449Y-77790762D01*
X132173846Y-77820131D01*
G37*
%TD.AperFunction*%
%TA.AperFunction,Conductor*%
G36*
X143917539Y-70083185D02*
G01*
X143963294Y-70135989D01*
X143974500Y-70187500D01*
X143974500Y-72945033D01*
X143954815Y-73012072D01*
X143902011Y-73057827D01*
X143832853Y-73067771D01*
X143811498Y-73062740D01*
X143779425Y-73052112D01*
X143675545Y-73041500D01*
X142274462Y-73041500D01*
X142274446Y-73041501D01*
X142170572Y-73052113D01*
X142002264Y-73107884D01*
X142002259Y-73107886D01*
X141851346Y-73200971D01*
X141725971Y-73326346D01*
X141632886Y-73477259D01*
X141632884Y-73477264D01*
X141577113Y-73645572D01*
X141566500Y-73749447D01*
X141566500Y-74550537D01*
X141566501Y-74550553D01*
X141577113Y-74654427D01*
X141632884Y-74822735D01*
X141632886Y-74822740D01*
X141641570Y-74836819D01*
X141725970Y-74973652D01*
X141851348Y-75099030D01*
X142002262Y-75192115D01*
X142170574Y-75247887D01*
X142274455Y-75258500D01*
X143675544Y-75258499D01*
X143779426Y-75247887D01*
X143811496Y-75237259D01*
X143881323Y-75234858D01*
X143941366Y-75270589D01*
X143972559Y-75333109D01*
X143974500Y-75354966D01*
X143974500Y-78545033D01*
X143954815Y-78612072D01*
X143902011Y-78657827D01*
X143832853Y-78667771D01*
X143811498Y-78662740D01*
X143779425Y-78652112D01*
X143675545Y-78641500D01*
X142274462Y-78641500D01*
X142274446Y-78641501D01*
X142170572Y-78652113D01*
X142002264Y-78707884D01*
X142002255Y-78707888D01*
X141872596Y-78787863D01*
X141805204Y-78806303D01*
X141738541Y-78785380D01*
X141693771Y-78731738D01*
X141683500Y-78682324D01*
X141683500Y-78036880D01*
X141685238Y-78021130D01*
X141684968Y-78021105D01*
X141685701Y-78013343D01*
X141685702Y-78013340D01*
X141683500Y-77943290D01*
X141683500Y-77913393D01*
X141682614Y-77906385D01*
X141682156Y-77900563D01*
X141680673Y-77853359D01*
X141680672Y-77853357D01*
X141674979Y-77833763D01*
X141671032Y-77814706D01*
X141668474Y-77794452D01*
X141664100Y-77783405D01*
X141651086Y-77750535D01*
X141649193Y-77745006D01*
X141644193Y-77727796D01*
X141636018Y-77699656D01*
X141625622Y-77682078D01*
X141617066Y-77664611D01*
X141609552Y-77645632D01*
X141581794Y-77607428D01*
X141578587Y-77602545D01*
X141568873Y-77586120D01*
X141554542Y-77561887D01*
X141540108Y-77547453D01*
X141527471Y-77532658D01*
X141518025Y-77519656D01*
X141515470Y-77516139D01*
X141479073Y-77486030D01*
X141474751Y-77482096D01*
X141312836Y-77320181D01*
X141279351Y-77258858D01*
X141284335Y-77189166D01*
X141326207Y-77133233D01*
X141389083Y-77109781D01*
X141389020Y-77109180D01*
X141391352Y-77108934D01*
X141391671Y-77108816D01*
X141392899Y-77108772D01*
X141395486Y-77108500D01*
X141395487Y-77108500D01*
X141582288Y-77068794D01*
X141756752Y-76991118D01*
X141911253Y-76878866D01*
X142039040Y-76736944D01*
X142134527Y-76571556D01*
X142193542Y-76389928D01*
X142213504Y-76200000D01*
X142193542Y-76010072D01*
X142134527Y-75828444D01*
X142039040Y-75663056D01*
X141911253Y-75521134D01*
X141756752Y-75408882D01*
X141582288Y-75331206D01*
X141582286Y-75331205D01*
X141395487Y-75291500D01*
X141338767Y-75291500D01*
X141271728Y-75271815D01*
X141251086Y-75255181D01*
X141057088Y-75061183D01*
X141047187Y-75048823D01*
X141046977Y-75048998D01*
X141042002Y-75042986D01*
X141042000Y-75042982D01*
X141011860Y-75014679D01*
X140990922Y-74995016D01*
X140969768Y-74973863D01*
X140967792Y-74972331D01*
X140964183Y-74969531D01*
X140959750Y-74965744D01*
X140925321Y-74933414D01*
X140925319Y-74933412D01*
X140907431Y-74923578D01*
X140891170Y-74912897D01*
X140875039Y-74900384D01*
X140831693Y-74881627D01*
X140826445Y-74879056D01*
X140799251Y-74864106D01*
X140785060Y-74856305D01*
X140766720Y-74851596D01*
X140765287Y-74851228D01*
X140746881Y-74844926D01*
X140728144Y-74836818D01*
X140728146Y-74836818D01*
X140681496Y-74829430D01*
X140675781Y-74828246D01*
X140654314Y-74822735D01*
X140630032Y-74816500D01*
X140630030Y-74816500D01*
X140609616Y-74816500D01*
X140590217Y-74814973D01*
X140570058Y-74811780D01*
X140570057Y-74811780D01*
X140523034Y-74816225D01*
X140517196Y-74816500D01*
X140224123Y-74816500D01*
X140157084Y-74796815D01*
X140136442Y-74780181D01*
X140131812Y-74775551D01*
X140131803Y-74775544D01*
X139988601Y-74690855D01*
X139988596Y-74690853D01*
X139828835Y-74644438D01*
X139828829Y-74644437D01*
X139791505Y-74641500D01*
X139791502Y-74641500D01*
X138408498Y-74641500D01*
X138408495Y-74641500D01*
X138367229Y-74644748D01*
X138298852Y-74630384D01*
X138249095Y-74581333D01*
X138233500Y-74521130D01*
X138233500Y-73513632D01*
X138235239Y-73497880D01*
X138234968Y-73497855D01*
X138235700Y-73490099D01*
X138235702Y-73490092D01*
X138233500Y-73420028D01*
X138233500Y-73390144D01*
X138232614Y-73383141D01*
X138232157Y-73377322D01*
X138230674Y-73330113D01*
X138230674Y-73330111D01*
X138224974Y-73310492D01*
X138221031Y-73291446D01*
X138218474Y-73271204D01*
X138215993Y-73264937D01*
X138201081Y-73227274D01*
X138199204Y-73221792D01*
X138186019Y-73176407D01*
X138175620Y-73158824D01*
X138167066Y-73141363D01*
X138159552Y-73122383D01*
X138156759Y-73118539D01*
X138131795Y-73084179D01*
X138128586Y-73079294D01*
X138104544Y-73038641D01*
X138104543Y-73038640D01*
X138104542Y-73038638D01*
X138090108Y-73024204D01*
X138077471Y-73009409D01*
X138065472Y-72992893D01*
X138065469Y-72992891D01*
X138065469Y-72992890D01*
X138029079Y-72962785D01*
X138024757Y-72958852D01*
X137934817Y-72868912D01*
X137901333Y-72807588D01*
X137898499Y-72781231D01*
X137898499Y-72700011D01*
X137897594Y-72688515D01*
X137895629Y-72663534D01*
X137850269Y-72507404D01*
X137767506Y-72367459D01*
X137767504Y-72367457D01*
X137767501Y-72367453D01*
X137652546Y-72252498D01*
X137652538Y-72252492D01*
X137564280Y-72200297D01*
X137512596Y-72169731D01*
X137512595Y-72169730D01*
X137512594Y-72169730D01*
X137512591Y-72169729D01*
X137356473Y-72124372D01*
X137356460Y-72124370D01*
X137319992Y-72121500D01*
X137319989Y-72121500D01*
X137020006Y-72121500D01*
X136920011Y-72121501D01*
X136920012Y-72121501D01*
X136883533Y-72124371D01*
X136727408Y-72169729D01*
X136727405Y-72169730D01*
X136673120Y-72201834D01*
X136605396Y-72219015D01*
X136546880Y-72201834D01*
X136517101Y-72184223D01*
X136492596Y-72169731D01*
X136492595Y-72169730D01*
X136492594Y-72169730D01*
X136492591Y-72169729D01*
X136336472Y-72124372D01*
X136336460Y-72124370D01*
X136299992Y-72121500D01*
X136299989Y-72121500D01*
X136000006Y-72121500D01*
X135900011Y-72121501D01*
X135900012Y-72121501D01*
X135863533Y-72124371D01*
X135863532Y-72124371D01*
X135707408Y-72169729D01*
X135707405Y-72169730D01*
X135567461Y-72252492D01*
X135567453Y-72252498D01*
X135539771Y-72280181D01*
X135478448Y-72313666D01*
X135452090Y-72316500D01*
X133083632Y-72316500D01*
X133067880Y-72314760D01*
X133067855Y-72315032D01*
X133060093Y-72314298D01*
X133060092Y-72314298D01*
X132990029Y-72316500D01*
X132960144Y-72316500D01*
X132960141Y-72316500D01*
X132960129Y-72316501D01*
X132953137Y-72317384D01*
X132947320Y-72317841D01*
X132900114Y-72319325D01*
X132900107Y-72319326D01*
X132880500Y-72325022D01*
X132861461Y-72328965D01*
X132841211Y-72331524D01*
X132841201Y-72331526D01*
X132797291Y-72348911D01*
X132791765Y-72350803D01*
X132746412Y-72363979D01*
X132746407Y-72363981D01*
X132728833Y-72374374D01*
X132711372Y-72382928D01*
X132692386Y-72390446D01*
X132692384Y-72390447D01*
X132654172Y-72418208D01*
X132649290Y-72421415D01*
X132608637Y-72445457D01*
X132594201Y-72459894D01*
X132579415Y-72472523D01*
X132562893Y-72484528D01*
X132562891Y-72484529D01*
X132562891Y-72484530D01*
X132562888Y-72484532D01*
X132532780Y-72520925D01*
X132528849Y-72525246D01*
X132207781Y-72846312D01*
X132146458Y-72879797D01*
X132076766Y-72874813D01*
X132020833Y-72832941D01*
X131996416Y-72767477D01*
X131996102Y-72757958D01*
X131996181Y-72743501D01*
X132010051Y-70186827D01*
X132030099Y-70119896D01*
X132083150Y-70074428D01*
X132134049Y-70063500D01*
X143850500Y-70063500D01*
X143917539Y-70083185D01*
G37*
%TD.AperFunction*%
%TA.AperFunction,Conductor*%
G36*
X136673120Y-73698165D02*
G01*
X136727404Y-73730269D01*
X136877096Y-73773758D01*
X136935980Y-73811363D01*
X136965187Y-73874836D01*
X136966500Y-73892834D01*
X136966500Y-74336233D01*
X136946815Y-74403272D01*
X136930181Y-74423914D01*
X136808914Y-74545181D01*
X136747591Y-74578666D01*
X136721233Y-74581500D01*
X135584842Y-74581500D01*
X135517803Y-74561815D01*
X135472048Y-74509011D01*
X135462104Y-74439853D01*
X135478110Y-74394379D01*
X135501281Y-74355198D01*
X135547100Y-74197486D01*
X135547295Y-74195001D01*
X135547295Y-74195000D01*
X133949000Y-74195000D01*
X133881961Y-74175315D01*
X133836206Y-74122511D01*
X133825000Y-74071000D01*
X133825000Y-73819000D01*
X133844685Y-73751961D01*
X133897489Y-73706206D01*
X133949000Y-73695000D01*
X135573536Y-73695000D01*
X135574776Y-73694258D01*
X135597950Y-73695000D01*
X135601534Y-73695000D01*
X135601534Y-73695114D01*
X135644610Y-73696494D01*
X135668998Y-73707556D01*
X135707404Y-73730269D01*
X135707405Y-73730269D01*
X135707408Y-73730271D01*
X135863526Y-73775627D01*
X135863528Y-73775627D01*
X135863534Y-73775629D01*
X135886332Y-73777423D01*
X135900008Y-73778500D01*
X135900010Y-73778499D01*
X135900011Y-73778500D01*
X136199993Y-73778499D01*
X136299988Y-73778499D01*
X136336466Y-73775629D01*
X136492596Y-73730269D01*
X136546879Y-73698165D01*
X136614601Y-73680982D01*
X136673120Y-73698165D01*
G37*
%TD.AperFunction*%
%TD*%
M02*
