M48
; DRILL file {KiCad 7.0.9} date Tue Oct 15 17:16:27 2024
; FORMAT={-:-/ absolute / inch / decimal}
; #@! TF.CreationDate,2024-10-15T17:16:27-06:00
; #@! TF.GenerationSoftware,Kicad,Pcbnew,7.0.9
; #@! TF.FileFunction,Plated,1,2,PTH
FMAT,2
INCH
; #@! TA.AperFunction,Plated,PTH,ViaDrill
T1C0.0157
; #@! TA.AperFunction,Plated,PTH,ComponentDrill
T2C0.0331
; #@! TA.AperFunction,Plated,PTH,ComponentDrill
T3C0.0394
; #@! TA.AperFunction,Plated,PTH,ComponentDrill
T4C0.1260
%
G90
G05
T1
X3.6063Y-5.0
X3.7205Y-2.4606
X3.7205Y-2.811
X3.7205Y-3.1614
X3.7283Y-3.5157
X3.7283Y-3.8661
X3.7283Y-4.2165
X3.7283Y-4.5709
X3.7283Y-4.9213
X3.7913Y-5.0
X3.7953Y-3.5236
X3.874Y-3.5236
X4.0354Y-2.8445
X4.0472Y-3.7717
X4.0945Y-2.8543
X4.1496Y-4.0709
X4.1575Y-3.063
X4.2028Y-2.9921
X4.2717Y-2.8071
X4.3228Y-3.0118
X4.3622Y-3.0403
X4.5157Y-3.0118
X4.5157Y-3.0551
X4.9547Y-2.9409
X5.3809Y-3.1319
X5.3819Y-2.9114
X5.3898Y-3.435
X5.4094Y-3.0492
X5.4134Y-3.4035
X5.4941Y-3.2067
X5.5343Y-2.8173
X5.563Y-3.0
T2
X4.6272Y-3.1626
X4.6272Y-3.2626
X4.6772Y-3.2126
X4.7272Y-3.1626
X4.7272Y-3.2626
T3
X4.3701Y-2.5295
X4.3701Y-2.6295
X4.3701Y-2.7295
X4.5531Y-2.5295
X4.5531Y-2.6295
X4.5531Y-2.7295
X4.7362Y-2.5295
X4.7362Y-2.6295
X4.7362Y-2.7295
X5.4646Y-3.6752
X5.4646Y-3.7752
X5.4646Y-3.8752
X5.4646Y-3.9752
T4
X4.1339Y-2.5591
X4.1339Y-4.9213
X5.5118Y-2.5591
X5.5118Y-4.9213
T0
M30
