%TF.GenerationSoftware,KiCad,Pcbnew,7.0.9*%
%TF.CreationDate,2024-10-15T17:16:27-06:00*%
%TF.ProjectId,i2c_mux,6932635f-6d75-4782-9e6b-696361645f70,rev?*%
%TF.SameCoordinates,Original*%
%TF.FileFunction,Copper,L2,Bot*%
%TF.FilePolarity,Positive*%
%FSLAX46Y46*%
G04 Gerber Fmt 4.6, Leading zero omitted, Abs format (unit mm)*
G04 Created by KiCad (PCBNEW 7.0.9) date 2024-10-15 17:16:27*
%MOMM*%
%LPD*%
G01*
G04 APERTURE LIST*
%TA.AperFunction,ComponentPad*%
%ADD10C,1.240000*%
%TD*%
%TA.AperFunction,ComponentPad*%
%ADD11R,1.800000X1.400000*%
%TD*%
%TA.AperFunction,ComponentPad*%
%ADD12O,1.800000X1.400000*%
%TD*%
%TA.AperFunction,ComponentPad*%
%ADD13C,5.600000*%
%TD*%
%TA.AperFunction,ComponentPad*%
%ADD14R,1.700000X1.700000*%
%TD*%
%TA.AperFunction,ComponentPad*%
%ADD15O,1.700000X1.700000*%
%TD*%
%TA.AperFunction,ViaPad*%
%ADD16C,0.800000*%
%TD*%
%TA.AperFunction,Conductor*%
%ADD17C,0.250000*%
%TD*%
G04 APERTURE END LIST*
D10*
%TO.P,J11,1,In*%
%TO.N,VCC*%
X118800000Y-81600000D03*
%TO.P,J11,2,Ext*%
%TO.N,GND*%
X117530000Y-80330000D03*
X117530000Y-82870000D03*
X120070000Y-80330000D03*
X120070000Y-82870000D03*
%TD*%
D11*
%TO.P,PS1,1,-Vin*%
%TO.N,GNDPWR*%
X138800000Y-93350000D03*
D12*
%TO.P,PS1,2,+Vin*%
%TO.N,Net-(PS1-+Vin)*%
X138800000Y-95890000D03*
%TO.P,PS1,3,0V*%
%TO.N,GND*%
X138800000Y-98430000D03*
%TO.P,PS1,4,+Vout*%
%TO.N,Net-(JP1-A)*%
X138800000Y-100970000D03*
%TD*%
D13*
%TO.P,H1,1*%
%TO.N,N/C*%
X105000000Y-65000000D03*
%TD*%
%TO.P,H2,1*%
%TO.N,N/C*%
X105000000Y-125000000D03*
%TD*%
%TO.P,H4,1*%
%TO.N,N/C*%
X140000000Y-65000000D03*
%TD*%
D14*
%TO.P,J12,1,Pin_1*%
%TO.N,VCC*%
X120300000Y-64250000D03*
D15*
%TO.P,J12,2,Pin_2*%
%TO.N,Net-(J12-Pin_2)*%
X120300000Y-66790000D03*
%TO.P,J12,3,Pin_3*%
%TO.N,GND*%
X120300000Y-69330000D03*
%TD*%
D13*
%TO.P,H3,1*%
%TO.N,N/C*%
X140000000Y-125000000D03*
%TD*%
D14*
%TO.P,J13,1,Pin_1*%
%TO.N,VCC*%
X111000000Y-64250000D03*
D15*
%TO.P,J13,2,Pin_2*%
%TO.N,Net-(J13-Pin_2)*%
X111000000Y-66790000D03*
%TO.P,J13,3,Pin_3*%
%TO.N,GND*%
X111000000Y-69330000D03*
%TD*%
D14*
%TO.P,J14,1,Pin_1*%
%TO.N,VCC*%
X115650000Y-64250000D03*
D15*
%TO.P,J14,2,Pin_2*%
%TO.N,Net-(J14-Pin_2)*%
X115650000Y-66790000D03*
%TO.P,J14,3,Pin_3*%
%TO.N,GND*%
X115650000Y-69330000D03*
%TD*%
D16*
%TO.N,GND*%
X94700000Y-89300000D03*
X105400000Y-103400000D03*
X94500000Y-71400000D03*
X94700000Y-125000000D03*
X94700000Y-98200000D03*
X94700000Y-107100000D03*
X102800000Y-95800000D03*
X106750000Y-76000000D03*
X125850000Y-74700000D03*
X94700000Y-116100000D03*
X108500000Y-71300000D03*
X94500000Y-80300000D03*
X94500000Y-62500000D03*
%TO.N,GNDPWR*%
X136675000Y-79550000D03*
X136900000Y-87250000D03*
X140570000Y-71560000D03*
X136700000Y-73950000D03*
%TO.N,VD*%
X137400000Y-77450000D03*
X137500000Y-86450000D03*
%TO.N,/Sheet626DA5AD/scl_in*%
X141300000Y-76200000D03*
X139550000Y-81450000D03*
%TO.N,/Sheet626DA5AD/scl*%
X110800000Y-77224500D03*
X114700000Y-77600000D03*
%TO.N,/Sheet626DA5AD/sda*%
X109800000Y-76500000D03*
X114700000Y-76500000D03*
%TO.N,Net-(J1-SDA)*%
X96300000Y-127000000D03*
X91600000Y-127000000D03*
%TO.N,Net-(J2-SDA)*%
X96400000Y-89500000D03*
X98400000Y-89500000D03*
%TO.N,Net-(J12-Pin_2)*%
X105600000Y-77800000D03*
%TO.N,Net-(J13-Pin_2)*%
X102500000Y-72250000D03*
%TO.N,Net-(J14-Pin_2)*%
X104000000Y-72500000D03*
%TD*%
D17*
%TO.N,GND*%
X94700000Y-98200000D02*
X94700000Y-107100000D01*
X94700000Y-125000000D02*
X94700000Y-116100000D01*
X94500000Y-71400000D02*
X94500000Y-80300000D01*
X94700000Y-107100000D02*
X94700000Y-116100000D01*
X94700000Y-89300000D02*
X94700000Y-98200000D01*
X94500000Y-80300000D02*
X94500000Y-89100000D01*
X94500000Y-62500000D02*
X94500000Y-71400000D01*
X94500000Y-89100000D02*
X94700000Y-89300000D01*
%TO.N,GNDPWR*%
X136900000Y-87250000D02*
X136500001Y-86850001D01*
X136500001Y-79724999D02*
X136675000Y-79550000D01*
X136675000Y-79550000D02*
X136675000Y-73975000D01*
X136675000Y-73975000D02*
X136700000Y-73950000D01*
X136500001Y-86850001D02*
X136500001Y-79724999D01*
%TO.N,VD*%
X137400000Y-77450000D02*
X137400000Y-86350000D01*
X137400000Y-86350000D02*
X137500000Y-86450000D01*
%TO.N,/Sheet626DA5AD/scl_in*%
X139550000Y-77950000D02*
X139550000Y-81450000D01*
X141300000Y-76200000D02*
X139550000Y-77950000D01*
%TO.N,/Sheet626DA5AD/scl*%
X111175500Y-77600000D02*
X114700000Y-77600000D01*
X110800000Y-77224500D02*
X111175500Y-77600000D01*
%TO.N,/Sheet626DA5AD/sda*%
X109800000Y-76500000D02*
X114700000Y-76500000D01*
%TO.N,Net-(J1-SDA)*%
X96300000Y-127000000D02*
X91600000Y-127000000D01*
%TO.N,Net-(J2-SDA)*%
X98400000Y-89500000D02*
X96400000Y-89500000D01*
%TO.N,Net-(J12-Pin_2)*%
X108199695Y-70575000D02*
X105600000Y-73174695D01*
X120300000Y-66790000D02*
X116515000Y-70575000D01*
X116515000Y-70575000D02*
X108199695Y-70575000D01*
X105600000Y-73174695D02*
X105600000Y-77800000D01*
%TO.N,Net-(J13-Pin_2)*%
X107960000Y-66790000D02*
X102500000Y-72250000D01*
X111000000Y-66790000D02*
X107960000Y-66790000D01*
%TO.N,Net-(J14-Pin_2)*%
X108345000Y-68155000D02*
X114285000Y-68155000D01*
X114285000Y-68155000D02*
X115650000Y-66790000D01*
X104000000Y-72500000D02*
X108345000Y-68155000D01*
%TD*%
%TA.AperFunction,Conductor*%
%TO.N,GND*%
G36*
X109652910Y-68808185D02*
G01*
X109698665Y-68860989D01*
X109708609Y-68930147D01*
X109705646Y-68944594D01*
X109669364Y-69079999D01*
X109669364Y-69080000D01*
X110566314Y-69080000D01*
X110540507Y-69120156D01*
X110500000Y-69258111D01*
X110500000Y-69401889D01*
X110540507Y-69539844D01*
X110566314Y-69580000D01*
X109669364Y-69580000D01*
X109724403Y-69785406D01*
X109722740Y-69855256D01*
X109683578Y-69913119D01*
X109619349Y-69940623D01*
X109604628Y-69941500D01*
X108283326Y-69941500D01*
X108267574Y-69939760D01*
X108267549Y-69940032D01*
X108259787Y-69939298D01*
X108259786Y-69939298D01*
X108189723Y-69941500D01*
X108159839Y-69941500D01*
X108159836Y-69941500D01*
X108159824Y-69941501D01*
X108152832Y-69942384D01*
X108147015Y-69942841D01*
X108099809Y-69944325D01*
X108099802Y-69944326D01*
X108080195Y-69950022D01*
X108061156Y-69953965D01*
X108040906Y-69956524D01*
X108040896Y-69956526D01*
X107996986Y-69973911D01*
X107991460Y-69975803D01*
X107946107Y-69988979D01*
X107946102Y-69988981D01*
X107928528Y-69999374D01*
X107911067Y-70007928D01*
X107892081Y-70015446D01*
X107892079Y-70015447D01*
X107853867Y-70043208D01*
X107848985Y-70046415D01*
X107808332Y-70070457D01*
X107793896Y-70084894D01*
X107779110Y-70097523D01*
X107762588Y-70109528D01*
X107762586Y-70109529D01*
X107762586Y-70109530D01*
X107762583Y-70109532D01*
X107732475Y-70145925D01*
X107728544Y-70150246D01*
X105211179Y-72667609D01*
X105198820Y-72677513D01*
X105198993Y-72677722D01*
X105192983Y-72682694D01*
X105145016Y-72733773D01*
X105123872Y-72754917D01*
X105123858Y-72754933D01*
X105119533Y-72760507D01*
X105115753Y-72764933D01*
X105108898Y-72772234D01*
X105048662Y-72807637D01*
X104978847Y-72804854D01*
X104921621Y-72764768D01*
X104895151Y-72700107D01*
X104895172Y-72674409D01*
X104910981Y-72523997D01*
X104937564Y-72459387D01*
X104946611Y-72449291D01*
X108571086Y-68824819D01*
X108632409Y-68791334D01*
X108658767Y-68788500D01*
X109585871Y-68788500D01*
X109652910Y-68808185D01*
G37*
%TD.AperFunction*%
%TA.AperFunction,Conductor*%
G36*
X114217113Y-68790238D02*
G01*
X114217139Y-68789968D01*
X114224905Y-68790701D01*
X114224909Y-68790702D01*
X114231455Y-68790496D01*
X114299080Y-68808064D01*
X114346472Y-68859405D01*
X114358584Y-68928216D01*
X114355127Y-68946528D01*
X114319363Y-69079999D01*
X114319364Y-69080000D01*
X115216314Y-69080000D01*
X115190507Y-69120156D01*
X115150000Y-69258111D01*
X115150000Y-69401889D01*
X115190507Y-69539844D01*
X115216314Y-69580000D01*
X114319364Y-69580000D01*
X114374403Y-69785406D01*
X114372740Y-69855256D01*
X114333578Y-69913119D01*
X114269349Y-69940623D01*
X114254628Y-69941500D01*
X112395372Y-69941500D01*
X112328333Y-69921815D01*
X112282578Y-69869011D01*
X112272634Y-69799853D01*
X112275597Y-69785406D01*
X112330636Y-69580000D01*
X111433686Y-69580000D01*
X111459493Y-69539844D01*
X111500000Y-69401889D01*
X111500000Y-69258111D01*
X111459493Y-69120156D01*
X111433686Y-69080000D01*
X112330636Y-69080000D01*
X112330635Y-69079999D01*
X112294354Y-68944594D01*
X112296017Y-68874744D01*
X112335179Y-68816881D01*
X112399408Y-68789377D01*
X112414129Y-68788500D01*
X114201366Y-68788500D01*
X114217113Y-68790238D01*
G37*
%TD.AperFunction*%
%TA.AperFunction,Conductor*%
G36*
X143917539Y-60045185D02*
G01*
X143963294Y-60097989D01*
X143974500Y-60149500D01*
X143974500Y-69426000D01*
X143954815Y-69493039D01*
X143902011Y-69538794D01*
X143850500Y-69550000D01*
X131499999Y-69550000D01*
X131349999Y-97199998D01*
X131350000Y-97200000D01*
X137813494Y-97241432D01*
X137880406Y-97261545D01*
X137925821Y-97314642D01*
X137935321Y-97383862D01*
X137905890Y-97447231D01*
X137887426Y-97464383D01*
X137788100Y-97539391D01*
X137638278Y-97703738D01*
X137521202Y-97892820D01*
X137521201Y-97892822D01*
X137440864Y-98100195D01*
X137425948Y-98180000D01*
X138366314Y-98180000D01*
X138340507Y-98220156D01*
X138300000Y-98358111D01*
X138300000Y-98501889D01*
X138340507Y-98639844D01*
X138366314Y-98680000D01*
X137425948Y-98680000D01*
X137440864Y-98759804D01*
X137521201Y-98967177D01*
X137521202Y-98967179D01*
X137638278Y-99156261D01*
X137788099Y-99320608D01*
X137965574Y-99454631D01*
X138164651Y-99553760D01*
X138164650Y-99553760D01*
X138243457Y-99576182D01*
X138302551Y-99613461D01*
X138332109Y-99676770D01*
X138322748Y-99746010D01*
X138277438Y-99799197D01*
X138242514Y-99814980D01*
X138173653Y-99833984D01*
X138173643Y-99833988D01*
X137977659Y-99928368D01*
X137977649Y-99928374D01*
X137801672Y-100056229D01*
X137801664Y-100056235D01*
X137651338Y-100213464D01*
X137531498Y-100395016D01*
X137531495Y-100395022D01*
X137446004Y-100595035D01*
X137446000Y-100595048D01*
X137397596Y-100807119D01*
X137397596Y-100807123D01*
X137387837Y-101024438D01*
X137417037Y-101240004D01*
X137417038Y-101240007D01*
X137484259Y-101446892D01*
X137587339Y-101638447D01*
X137587341Y-101638450D01*
X137722969Y-101808522D01*
X137886786Y-101951646D01*
X137886787Y-101951647D01*
X137886790Y-101951649D01*
X138073532Y-102063222D01*
X138277195Y-102139658D01*
X138491229Y-102178500D01*
X138491233Y-102178500D01*
X139054270Y-102178500D01*
X139054276Y-102178500D01*
X139206579Y-102164792D01*
X139216659Y-102163885D01*
X139426341Y-102106017D01*
X139426346Y-102106014D01*
X139426353Y-102106013D01*
X139622344Y-102011629D01*
X139798333Y-101883766D01*
X139948663Y-101726533D01*
X140068501Y-101544985D01*
X140153998Y-101344957D01*
X140202404Y-101132877D01*
X140212163Y-100915562D01*
X140182963Y-100699996D01*
X140115741Y-100493109D01*
X140012659Y-100301550D01*
X139942415Y-100213467D01*
X139877030Y-100131477D01*
X139713213Y-99988353D01*
X139612815Y-99928368D01*
X139526468Y-99876778D01*
X139460734Y-99852107D01*
X139350171Y-99810612D01*
X139294323Y-99768626D01*
X139270040Y-99703112D01*
X139285032Y-99634870D01*
X139334538Y-99585565D01*
X139359810Y-99575252D01*
X139435347Y-99553761D01*
X139435348Y-99553760D01*
X139634425Y-99454631D01*
X139811900Y-99320608D01*
X139961721Y-99156261D01*
X140078797Y-98967179D01*
X140078798Y-98967177D01*
X140159135Y-98759804D01*
X140174052Y-98680000D01*
X139233686Y-98680000D01*
X139259493Y-98639844D01*
X139300000Y-98501889D01*
X139300000Y-98358111D01*
X139259493Y-98220156D01*
X139233686Y-98180000D01*
X140174052Y-98180000D01*
X140159135Y-98100195D01*
X140078798Y-97892822D01*
X140078797Y-97892820D01*
X139961721Y-97703738D01*
X139811899Y-97539391D01*
X139729477Y-97477148D01*
X139687841Y-97421039D01*
X139683150Y-97351327D01*
X139716892Y-97290145D01*
X139778356Y-97256918D01*
X139804987Y-97254198D01*
X143851297Y-97280135D01*
X143918207Y-97300248D01*
X143963622Y-97353345D01*
X143974500Y-97404132D01*
X143974500Y-130850500D01*
X143954815Y-130917539D01*
X143902011Y-130963294D01*
X143850500Y-130974500D01*
X88149500Y-130974500D01*
X88082461Y-130954815D01*
X88036706Y-130902011D01*
X88025500Y-130850500D01*
X88025500Y-127000000D01*
X90686496Y-127000000D01*
X90706458Y-127189928D01*
X90706459Y-127189931D01*
X90765470Y-127371549D01*
X90765473Y-127371556D01*
X90860960Y-127536944D01*
X90988747Y-127678866D01*
X91143248Y-127791118D01*
X91317712Y-127868794D01*
X91504513Y-127908500D01*
X91695487Y-127908500D01*
X91882288Y-127868794D01*
X92056752Y-127791118D01*
X92211253Y-127678866D01*
X92215160Y-127674527D01*
X92274646Y-127637879D01*
X92307309Y-127633500D01*
X95592691Y-127633500D01*
X95659730Y-127653185D01*
X95684840Y-127674527D01*
X95688747Y-127678866D01*
X95843248Y-127791118D01*
X96017712Y-127868794D01*
X96204513Y-127908500D01*
X96395487Y-127908500D01*
X96582288Y-127868794D01*
X96756752Y-127791118D01*
X96911253Y-127678866D01*
X97039040Y-127536944D01*
X97134527Y-127371556D01*
X97193542Y-127189928D01*
X97213504Y-127000000D01*
X97193542Y-126810072D01*
X97134527Y-126628444D01*
X97039040Y-126463056D01*
X96911253Y-126321134D01*
X96756752Y-126208882D01*
X96582288Y-126131206D01*
X96582286Y-126131205D01*
X96395487Y-126091500D01*
X96204513Y-126091500D01*
X96017714Y-126131205D01*
X95843246Y-126208883D01*
X95688745Y-126321135D01*
X95684840Y-126325473D01*
X95625354Y-126362121D01*
X95592691Y-126366500D01*
X92307309Y-126366500D01*
X92240270Y-126346815D01*
X92215160Y-126325473D01*
X92211254Y-126321135D01*
X92056753Y-126208883D01*
X92056752Y-126208882D01*
X91882288Y-126131206D01*
X91882286Y-126131205D01*
X91695487Y-126091500D01*
X91504513Y-126091500D01*
X91317714Y-126131205D01*
X91143246Y-126208883D01*
X90988745Y-126321135D01*
X90860959Y-126463057D01*
X90765473Y-126628443D01*
X90765470Y-126628450D01*
X90706459Y-126810068D01*
X90706458Y-126810072D01*
X90686496Y-127000000D01*
X88025500Y-127000000D01*
X88025500Y-125000002D01*
X101686641Y-125000002D01*
X101706063Y-125358234D01*
X101764106Y-125712279D01*
X101764107Y-125712282D01*
X101860082Y-126057955D01*
X101860083Y-126057957D01*
X101992872Y-126391233D01*
X101992881Y-126391251D01*
X102160928Y-126708220D01*
X102160929Y-126708223D01*
X102362256Y-127005157D01*
X102362264Y-127005167D01*
X102519204Y-127189931D01*
X102594516Y-127278595D01*
X102854977Y-127525317D01*
X103140586Y-127742431D01*
X103447995Y-127927393D01*
X103447997Y-127927394D01*
X103447999Y-127927395D01*
X103448003Y-127927397D01*
X103773588Y-128078028D01*
X103773599Y-128078033D01*
X104113583Y-128192587D01*
X104463958Y-128269711D01*
X104820618Y-128308500D01*
X104820624Y-128308500D01*
X105179376Y-128308500D01*
X105179382Y-128308500D01*
X105536042Y-128269711D01*
X105886417Y-128192587D01*
X106226401Y-128078033D01*
X106552005Y-127927393D01*
X106859414Y-127742431D01*
X107145023Y-127525317D01*
X107405484Y-127278595D01*
X107637742Y-127005159D01*
X107839075Y-126708215D01*
X108007123Y-126391243D01*
X108139915Y-126057961D01*
X108235895Y-125712274D01*
X108293936Y-125358237D01*
X108313359Y-125000002D01*
X136686641Y-125000002D01*
X136706063Y-125358234D01*
X136764106Y-125712279D01*
X136764107Y-125712282D01*
X136860082Y-126057955D01*
X136860083Y-126057957D01*
X136992872Y-126391233D01*
X136992881Y-126391251D01*
X137160928Y-126708220D01*
X137160929Y-126708223D01*
X137362256Y-127005157D01*
X137362264Y-127005167D01*
X137519204Y-127189931D01*
X137594516Y-127278595D01*
X137854977Y-127525317D01*
X138140586Y-127742431D01*
X138447995Y-127927393D01*
X138447997Y-127927394D01*
X138447999Y-127927395D01*
X138448003Y-127927397D01*
X138773588Y-128078028D01*
X138773599Y-128078033D01*
X139113583Y-128192587D01*
X139463958Y-128269711D01*
X139820618Y-128308500D01*
X139820624Y-128308500D01*
X140179376Y-128308500D01*
X140179382Y-128308500D01*
X140536042Y-128269711D01*
X140886417Y-128192587D01*
X141226401Y-128078033D01*
X141552005Y-127927393D01*
X141859414Y-127742431D01*
X142145023Y-127525317D01*
X142405484Y-127278595D01*
X142637742Y-127005159D01*
X142839075Y-126708215D01*
X143007123Y-126391243D01*
X143139915Y-126057961D01*
X143235895Y-125712274D01*
X143293936Y-125358237D01*
X143313359Y-125000000D01*
X143293936Y-124641763D01*
X143235895Y-124287726D01*
X143192673Y-124132057D01*
X143139917Y-123942044D01*
X143139916Y-123942042D01*
X143007127Y-123608766D01*
X143007118Y-123608748D01*
X142839075Y-123291785D01*
X142839071Y-123291779D01*
X142839070Y-123291776D01*
X142637743Y-122994842D01*
X142637735Y-122994832D01*
X142405491Y-122721413D01*
X142405486Y-122721407D01*
X142405484Y-122721405D01*
X142145023Y-122474683D01*
X142145016Y-122474677D01*
X142145013Y-122474675D01*
X142077266Y-122423175D01*
X141859414Y-122257569D01*
X141552005Y-122072607D01*
X141552004Y-122072606D01*
X141552000Y-122072604D01*
X141551996Y-122072602D01*
X141226411Y-121921971D01*
X141226406Y-121921969D01*
X141226401Y-121921967D01*
X141060678Y-121866128D01*
X140886416Y-121807412D01*
X140536040Y-121730288D01*
X140179383Y-121691500D01*
X140179382Y-121691500D01*
X139820618Y-121691500D01*
X139820616Y-121691500D01*
X139463959Y-121730288D01*
X139113583Y-121807412D01*
X138850768Y-121895965D01*
X138773599Y-121921967D01*
X138773596Y-121921968D01*
X138773588Y-121921971D01*
X138448003Y-122072602D01*
X138447999Y-122072604D01*
X138219061Y-122210351D01*
X138140586Y-122257569D01*
X138052060Y-122324864D01*
X137854986Y-122474675D01*
X137854977Y-122474683D01*
X137594513Y-122721407D01*
X137594508Y-122721413D01*
X137362264Y-122994832D01*
X137362256Y-122994842D01*
X137160929Y-123291776D01*
X137160928Y-123291779D01*
X136992881Y-123608748D01*
X136992872Y-123608766D01*
X136860083Y-123942042D01*
X136860082Y-123942044D01*
X136764107Y-124287717D01*
X136764106Y-124287720D01*
X136706063Y-124641765D01*
X136686641Y-124999997D01*
X136686641Y-125000002D01*
X108313359Y-125000002D01*
X108313359Y-125000000D01*
X108293936Y-124641763D01*
X108235895Y-124287726D01*
X108192673Y-124132057D01*
X108139917Y-123942044D01*
X108139916Y-123942042D01*
X108007127Y-123608766D01*
X108007118Y-123608748D01*
X107839075Y-123291785D01*
X107839071Y-123291779D01*
X107839070Y-123291776D01*
X107637743Y-122994842D01*
X107637735Y-122994832D01*
X107405491Y-122721413D01*
X107405486Y-122721407D01*
X107405484Y-122721405D01*
X107145023Y-122474683D01*
X107145016Y-122474677D01*
X107145013Y-122474675D01*
X107077266Y-122423175D01*
X106859414Y-122257569D01*
X106552005Y-122072607D01*
X106552004Y-122072606D01*
X106552000Y-122072604D01*
X106551996Y-122072602D01*
X106226411Y-121921971D01*
X106226406Y-121921969D01*
X106226401Y-121921967D01*
X106060678Y-121866128D01*
X105886416Y-121807412D01*
X105536040Y-121730288D01*
X105179383Y-121691500D01*
X105179382Y-121691500D01*
X104820618Y-121691500D01*
X104820616Y-121691500D01*
X104463959Y-121730288D01*
X104113583Y-121807412D01*
X103850768Y-121895965D01*
X103773599Y-121921967D01*
X103773596Y-121921968D01*
X103773588Y-121921971D01*
X103448003Y-122072602D01*
X103447999Y-122072604D01*
X103219061Y-122210351D01*
X103140586Y-122257569D01*
X103052060Y-122324864D01*
X102854986Y-122474675D01*
X102854977Y-122474683D01*
X102594513Y-122721407D01*
X102594508Y-122721413D01*
X102362264Y-122994832D01*
X102362256Y-122994842D01*
X102160929Y-123291776D01*
X102160928Y-123291779D01*
X101992881Y-123608748D01*
X101992872Y-123608766D01*
X101860083Y-123942042D01*
X101860082Y-123942044D01*
X101764107Y-124287717D01*
X101764106Y-124287720D01*
X101706063Y-124641765D01*
X101686641Y-124999997D01*
X101686641Y-125000002D01*
X88025500Y-125000002D01*
X88025500Y-89500000D01*
X95486496Y-89500000D01*
X95506458Y-89689928D01*
X95506459Y-89689931D01*
X95565470Y-89871549D01*
X95565473Y-89871556D01*
X95660960Y-90036944D01*
X95788747Y-90178866D01*
X95943248Y-90291118D01*
X96117712Y-90368794D01*
X96304513Y-90408500D01*
X96495487Y-90408500D01*
X96682288Y-90368794D01*
X96856752Y-90291118D01*
X97011253Y-90178866D01*
X97015160Y-90174527D01*
X97074646Y-90137879D01*
X97107309Y-90133500D01*
X97692691Y-90133500D01*
X97759730Y-90153185D01*
X97784840Y-90174527D01*
X97788747Y-90178866D01*
X97943248Y-90291118D01*
X98117712Y-90368794D01*
X98304513Y-90408500D01*
X98495487Y-90408500D01*
X98682288Y-90368794D01*
X98856752Y-90291118D01*
X99011253Y-90178866D01*
X99139040Y-90036944D01*
X99234527Y-89871556D01*
X99293542Y-89689928D01*
X99313504Y-89500000D01*
X99293542Y-89310072D01*
X99234527Y-89128444D01*
X99139040Y-88963056D01*
X99011253Y-88821134D01*
X98856752Y-88708882D01*
X98682288Y-88631206D01*
X98682286Y-88631205D01*
X98495487Y-88591500D01*
X98304513Y-88591500D01*
X98117714Y-88631205D01*
X97943246Y-88708883D01*
X97788745Y-88821135D01*
X97784840Y-88825473D01*
X97725354Y-88862121D01*
X97692691Y-88866500D01*
X97107309Y-88866500D01*
X97040270Y-88846815D01*
X97015160Y-88825473D01*
X97011254Y-88821135D01*
X96856753Y-88708883D01*
X96856752Y-88708882D01*
X96682288Y-88631206D01*
X96682286Y-88631205D01*
X96495487Y-88591500D01*
X96304513Y-88591500D01*
X96117714Y-88631205D01*
X95943246Y-88708883D01*
X95788745Y-88821135D01*
X95660959Y-88963057D01*
X95565473Y-89128443D01*
X95565470Y-89128450D01*
X95506459Y-89310068D01*
X95506458Y-89310072D01*
X95486496Y-89500000D01*
X88025500Y-89500000D01*
X88025500Y-82870000D01*
X116405202Y-82870000D01*
X116424353Y-83076676D01*
X116481158Y-83276327D01*
X116573673Y-83462123D01*
X116573681Y-83462136D01*
X116578254Y-83468191D01*
X117114565Y-82931880D01*
X117125577Y-83001405D01*
X117185978Y-83119947D01*
X117280053Y-83214022D01*
X117398595Y-83274423D01*
X117468118Y-83285434D01*
X116934785Y-83818767D01*
X116934785Y-83818768D01*
X117028625Y-83876872D01*
X117028634Y-83876877D01*
X117222186Y-83951859D01*
X117426219Y-83990000D01*
X117633781Y-83990000D01*
X117837813Y-83951859D01*
X117837814Y-83951859D01*
X118031370Y-83876875D01*
X118125214Y-83818768D01*
X118125214Y-83818767D01*
X117591881Y-83285434D01*
X117661405Y-83274423D01*
X117779947Y-83214022D01*
X117874022Y-83119947D01*
X117934423Y-83001405D01*
X117945434Y-82931880D01*
X118481744Y-83468190D01*
X118481745Y-83468190D01*
X118486324Y-83462127D01*
X118486326Y-83462124D01*
X118578840Y-83276330D01*
X118578841Y-83276329D01*
X118635646Y-83076676D01*
X118654798Y-82870000D01*
X118654798Y-82869993D01*
X118654237Y-82863937D01*
X118667654Y-82795368D01*
X118716012Y-82744938D01*
X118777708Y-82728500D01*
X118822292Y-82728500D01*
X118889331Y-82748185D01*
X118935086Y-82800989D01*
X118945763Y-82863937D01*
X118945202Y-82869993D01*
X118945202Y-82870000D01*
X118964353Y-83076676D01*
X119021158Y-83276327D01*
X119113673Y-83462123D01*
X119113681Y-83462136D01*
X119118254Y-83468191D01*
X119654565Y-82931880D01*
X119665577Y-83001405D01*
X119725978Y-83119947D01*
X119820053Y-83214022D01*
X119938595Y-83274423D01*
X120008118Y-83285434D01*
X119474785Y-83818767D01*
X119474785Y-83818768D01*
X119568625Y-83876872D01*
X119568634Y-83876877D01*
X119762186Y-83951859D01*
X119966219Y-83990000D01*
X120173781Y-83990000D01*
X120377813Y-83951859D01*
X120377814Y-83951859D01*
X120571370Y-83876875D01*
X120665214Y-83818768D01*
X120665214Y-83818767D01*
X120131881Y-83285434D01*
X120201405Y-83274423D01*
X120319947Y-83214022D01*
X120414022Y-83119947D01*
X120474423Y-83001405D01*
X120485434Y-82931881D01*
X121021744Y-83468190D01*
X121021745Y-83468190D01*
X121026324Y-83462127D01*
X121026326Y-83462124D01*
X121118840Y-83276330D01*
X121118841Y-83276329D01*
X121175646Y-83076676D01*
X121194798Y-82870000D01*
X121194798Y-82869999D01*
X121175646Y-82663323D01*
X121118841Y-82463670D01*
X121118840Y-82463669D01*
X121026328Y-82277879D01*
X121026324Y-82277873D01*
X121021744Y-82271808D01*
X120485434Y-82808118D01*
X120474423Y-82738595D01*
X120414022Y-82620053D01*
X120319947Y-82525978D01*
X120201405Y-82465577D01*
X120131881Y-82454565D01*
X120665214Y-81921231D01*
X120665213Y-81921229D01*
X120571374Y-81863126D01*
X120377813Y-81788140D01*
X120173781Y-81750000D01*
X120055457Y-81750000D01*
X119988418Y-81730315D01*
X119942663Y-81677511D01*
X119931986Y-81614559D01*
X119933335Y-81600000D01*
X119933335Y-81599999D01*
X119931986Y-81585441D01*
X119945401Y-81516871D01*
X119993758Y-81466440D01*
X120055457Y-81450000D01*
X120173781Y-81450000D01*
X120377813Y-81411859D01*
X120377814Y-81411859D01*
X120571370Y-81336875D01*
X120665214Y-81278768D01*
X120665214Y-81278767D01*
X120131881Y-80745434D01*
X120201405Y-80734423D01*
X120319947Y-80674022D01*
X120414022Y-80579947D01*
X120474423Y-80461405D01*
X120485434Y-80391881D01*
X121021744Y-80928190D01*
X121021745Y-80928190D01*
X121026324Y-80922127D01*
X121026326Y-80922124D01*
X121118840Y-80736330D01*
X121118841Y-80736329D01*
X121175646Y-80536676D01*
X121194798Y-80330000D01*
X121194798Y-80329999D01*
X121175646Y-80123323D01*
X121118841Y-79923670D01*
X121118840Y-79923669D01*
X121026328Y-79737879D01*
X121026324Y-79737873D01*
X121021744Y-79731808D01*
X120485434Y-80268118D01*
X120474423Y-80198595D01*
X120414022Y-80080053D01*
X120319947Y-79985978D01*
X120201405Y-79925577D01*
X120131881Y-79914565D01*
X120665214Y-79381231D01*
X120665213Y-79381229D01*
X120571374Y-79323126D01*
X120377813Y-79248140D01*
X120173781Y-79210000D01*
X119966219Y-79210000D01*
X119762186Y-79248140D01*
X119762185Y-79248140D01*
X119568634Y-79323121D01*
X119568633Y-79323122D01*
X119474784Y-79381231D01*
X120008119Y-79914565D01*
X119938595Y-79925577D01*
X119820053Y-79985978D01*
X119725978Y-80080053D01*
X119665577Y-80198595D01*
X119654565Y-80268118D01*
X119118254Y-79731807D01*
X119118253Y-79731808D01*
X119113679Y-79737866D01*
X119113675Y-79737872D01*
X119021158Y-79923672D01*
X118964353Y-80123323D01*
X118945202Y-80329999D01*
X118945202Y-80330006D01*
X118945763Y-80336063D01*
X118932346Y-80404632D01*
X118883988Y-80455062D01*
X118822292Y-80471500D01*
X118777708Y-80471500D01*
X118710669Y-80451815D01*
X118664914Y-80399011D01*
X118654237Y-80336063D01*
X118654798Y-80330006D01*
X118654798Y-80329999D01*
X118635646Y-80123323D01*
X118578841Y-79923670D01*
X118578840Y-79923669D01*
X118486328Y-79737879D01*
X118486324Y-79737873D01*
X118481744Y-79731808D01*
X117945434Y-80268117D01*
X117934423Y-80198595D01*
X117874022Y-80080053D01*
X117779947Y-79985978D01*
X117661405Y-79925577D01*
X117591881Y-79914565D01*
X118125214Y-79381231D01*
X118125213Y-79381229D01*
X118031374Y-79323126D01*
X117837813Y-79248140D01*
X117633781Y-79210000D01*
X117426219Y-79210000D01*
X117222186Y-79248140D01*
X117222185Y-79248140D01*
X117028634Y-79323121D01*
X117028633Y-79323122D01*
X116934784Y-79381231D01*
X117468119Y-79914565D01*
X117398595Y-79925577D01*
X117280053Y-79985978D01*
X117185978Y-80080053D01*
X117125577Y-80198595D01*
X117114565Y-80268118D01*
X116578254Y-79731807D01*
X116578253Y-79731808D01*
X116573679Y-79737866D01*
X116573675Y-79737872D01*
X116481158Y-79923672D01*
X116424353Y-80123323D01*
X116405202Y-80329999D01*
X116405202Y-80330000D01*
X116424353Y-80536676D01*
X116481158Y-80736327D01*
X116573673Y-80922123D01*
X116573681Y-80922136D01*
X116578254Y-80928191D01*
X117114565Y-80391880D01*
X117125577Y-80461405D01*
X117185978Y-80579947D01*
X117280053Y-80674022D01*
X117398595Y-80734423D01*
X117468117Y-80745434D01*
X116934785Y-81278767D01*
X116934785Y-81278768D01*
X117028625Y-81336872D01*
X117028634Y-81336877D01*
X117222186Y-81411859D01*
X117426219Y-81450000D01*
X117544543Y-81450000D01*
X117611582Y-81469685D01*
X117657337Y-81522489D01*
X117668014Y-81585441D01*
X117666665Y-81599999D01*
X117666665Y-81600000D01*
X117668014Y-81614559D01*
X117654599Y-81683129D01*
X117606242Y-81733560D01*
X117544543Y-81750000D01*
X117426219Y-81750000D01*
X117222186Y-81788140D01*
X117222185Y-81788140D01*
X117028634Y-81863121D01*
X117028633Y-81863122D01*
X116934784Y-81921231D01*
X117468118Y-82454565D01*
X117398595Y-82465577D01*
X117280053Y-82525978D01*
X117185978Y-82620053D01*
X117125577Y-82738595D01*
X117114565Y-82808118D01*
X116578254Y-82271807D01*
X116578253Y-82271808D01*
X116573679Y-82277866D01*
X116573675Y-82277872D01*
X116481158Y-82463672D01*
X116424353Y-82663323D01*
X116405202Y-82869999D01*
X116405202Y-82870000D01*
X88025500Y-82870000D01*
X88025500Y-72250000D01*
X101586496Y-72250000D01*
X101606458Y-72439928D01*
X101606459Y-72439931D01*
X101665470Y-72621549D01*
X101665473Y-72621556D01*
X101760960Y-72786944D01*
X101888747Y-72928866D01*
X102043248Y-73041118D01*
X102217712Y-73118794D01*
X102404513Y-73158500D01*
X102595487Y-73158500D01*
X102782288Y-73118794D01*
X102956752Y-73041118D01*
X103061346Y-72965125D01*
X103127151Y-72941645D01*
X103195205Y-72957470D01*
X103241618Y-73003443D01*
X103260960Y-73036944D01*
X103388747Y-73178866D01*
X103543248Y-73291118D01*
X103717712Y-73368794D01*
X103904513Y-73408500D01*
X104095487Y-73408500D01*
X104282288Y-73368794D01*
X104456752Y-73291118D01*
X104611253Y-73178866D01*
X104739040Y-73036944D01*
X104739043Y-73036937D01*
X104742183Y-73032618D01*
X104797514Y-72989953D01*
X104867127Y-72983975D01*
X104928922Y-73016582D01*
X104963278Y-73077422D01*
X104966500Y-73105505D01*
X104966500Y-73115079D01*
X104964973Y-73134478D01*
X104961780Y-73154636D01*
X104961780Y-73154637D01*
X104966225Y-73201661D01*
X104966500Y-73207499D01*
X104966500Y-77098241D01*
X104946815Y-77165280D01*
X104934650Y-77181213D01*
X104860963Y-77263050D01*
X104860958Y-77263057D01*
X104765473Y-77428443D01*
X104765470Y-77428450D01*
X104706459Y-77610068D01*
X104706458Y-77610072D01*
X104686496Y-77800000D01*
X104706458Y-77989928D01*
X104706459Y-77989931D01*
X104765470Y-78171549D01*
X104765473Y-78171556D01*
X104860960Y-78336944D01*
X104988747Y-78478866D01*
X105143248Y-78591118D01*
X105317712Y-78668794D01*
X105504513Y-78708500D01*
X105695487Y-78708500D01*
X105882288Y-78668794D01*
X106056752Y-78591118D01*
X106211253Y-78478866D01*
X106339040Y-78336944D01*
X106434527Y-78171556D01*
X106493542Y-77989928D01*
X106513504Y-77800000D01*
X106493542Y-77610072D01*
X106434527Y-77428444D01*
X106355242Y-77291118D01*
X106339041Y-77263057D01*
X106339036Y-77263050D01*
X106265350Y-77181213D01*
X106235120Y-77118221D01*
X106233500Y-77098241D01*
X106233500Y-76500000D01*
X108886496Y-76500000D01*
X108906458Y-76689928D01*
X108906459Y-76689931D01*
X108965470Y-76871549D01*
X108965473Y-76871556D01*
X109060960Y-77036944D01*
X109188747Y-77178866D01*
X109343248Y-77291118D01*
X109517712Y-77368794D01*
X109704513Y-77408500D01*
X109814441Y-77408500D01*
X109881480Y-77428185D01*
X109927235Y-77480989D01*
X109932372Y-77494182D01*
X109965470Y-77596050D01*
X109965473Y-77596056D01*
X110060960Y-77761444D01*
X110188747Y-77903366D01*
X110343248Y-78015618D01*
X110517712Y-78093294D01*
X110704513Y-78133000D01*
X110788446Y-78133000D01*
X110842723Y-78147848D01*
X110843300Y-78146515D01*
X110893798Y-78168367D01*
X110899045Y-78170937D01*
X110940440Y-78193695D01*
X110960218Y-78198773D01*
X110978619Y-78205073D01*
X110997355Y-78213181D01*
X111041862Y-78220229D01*
X111044003Y-78220569D01*
X111049712Y-78221751D01*
X111095470Y-78233500D01*
X111115884Y-78233500D01*
X111135283Y-78235027D01*
X111155443Y-78238220D01*
X111202466Y-78233775D01*
X111208304Y-78233500D01*
X113992691Y-78233500D01*
X114059730Y-78253185D01*
X114084840Y-78274527D01*
X114088747Y-78278866D01*
X114243248Y-78391118D01*
X114417712Y-78468794D01*
X114604513Y-78508500D01*
X114795487Y-78508500D01*
X114982288Y-78468794D01*
X115156752Y-78391118D01*
X115311253Y-78278866D01*
X115439040Y-78136944D01*
X115534527Y-77971556D01*
X115593542Y-77789928D01*
X115613504Y-77600000D01*
X115593542Y-77410072D01*
X115534527Y-77228444D01*
X115467298Y-77112000D01*
X115450825Y-77044100D01*
X115467298Y-76988000D01*
X115474020Y-76976355D01*
X115534527Y-76871556D01*
X115593542Y-76689928D01*
X115613504Y-76500000D01*
X115593542Y-76310072D01*
X115534527Y-76128444D01*
X115439040Y-75963056D01*
X115311253Y-75821134D01*
X115156752Y-75708882D01*
X114982288Y-75631206D01*
X114982286Y-75631205D01*
X114795487Y-75591500D01*
X114604513Y-75591500D01*
X114417714Y-75631205D01*
X114243246Y-75708883D01*
X114088745Y-75821135D01*
X114084840Y-75825473D01*
X114025354Y-75862121D01*
X113992691Y-75866500D01*
X110507309Y-75866500D01*
X110440270Y-75846815D01*
X110415160Y-75825473D01*
X110411254Y-75821135D01*
X110256753Y-75708883D01*
X110256752Y-75708882D01*
X110082288Y-75631206D01*
X110082286Y-75631205D01*
X109895487Y-75591500D01*
X109704513Y-75591500D01*
X109517714Y-75631205D01*
X109343246Y-75708883D01*
X109188745Y-75821135D01*
X109060959Y-75963057D01*
X108965473Y-76128443D01*
X108965470Y-76128450D01*
X108937048Y-76215925D01*
X108906458Y-76310072D01*
X108886496Y-76500000D01*
X106233500Y-76500000D01*
X106233500Y-73488461D01*
X106253185Y-73421422D01*
X106269819Y-73400780D01*
X108425781Y-71244819D01*
X108487104Y-71211334D01*
X108513462Y-71208500D01*
X116431366Y-71208500D01*
X116447113Y-71210238D01*
X116447139Y-71209968D01*
X116454905Y-71210701D01*
X116454909Y-71210702D01*
X116524958Y-71208500D01*
X116554856Y-71208500D01*
X116554857Y-71208500D01*
X116556222Y-71208327D01*
X116561862Y-71207614D01*
X116567685Y-71207156D01*
X116593708Y-71206338D01*
X116614890Y-71205673D01*
X116624681Y-71202827D01*
X116634481Y-71199980D01*
X116653538Y-71196032D01*
X116673797Y-71193474D01*
X116717721Y-71176082D01*
X116723221Y-71174199D01*
X116768593Y-71161018D01*
X116786165Y-71150625D01*
X116803632Y-71142068D01*
X116822617Y-71134552D01*
X116860826Y-71106790D01*
X116865704Y-71103585D01*
X116906362Y-71079542D01*
X116920802Y-71065100D01*
X116935592Y-71052470D01*
X116952107Y-71040472D01*
X116982222Y-71004067D01*
X116986126Y-70999776D01*
X118869585Y-69116317D01*
X118930906Y-69082834D01*
X118957264Y-69080000D01*
X119866314Y-69080000D01*
X119840507Y-69120156D01*
X119800000Y-69258111D01*
X119800000Y-69401889D01*
X119840507Y-69539844D01*
X119866314Y-69580000D01*
X118969364Y-69580000D01*
X119026567Y-69793486D01*
X119026570Y-69793492D01*
X119126399Y-70007578D01*
X119261894Y-70201082D01*
X119428917Y-70368105D01*
X119622421Y-70503600D01*
X119836507Y-70603429D01*
X119836516Y-70603433D01*
X120050000Y-70660634D01*
X120050000Y-69765501D01*
X120157685Y-69814680D01*
X120264237Y-69830000D01*
X120335763Y-69830000D01*
X120442315Y-69814680D01*
X120550000Y-69765501D01*
X120550000Y-70660633D01*
X120763483Y-70603433D01*
X120763492Y-70603429D01*
X120977578Y-70503600D01*
X121171082Y-70368105D01*
X121338105Y-70201082D01*
X121473600Y-70007578D01*
X121573429Y-69793492D01*
X121573432Y-69793486D01*
X121630636Y-69580000D01*
X120733686Y-69580000D01*
X120759493Y-69539844D01*
X120800000Y-69401889D01*
X120800000Y-69258111D01*
X120759493Y-69120156D01*
X120733686Y-69080000D01*
X121630636Y-69080000D01*
X121630635Y-69079999D01*
X121573432Y-68866513D01*
X121573429Y-68866507D01*
X121473600Y-68652422D01*
X121473599Y-68652420D01*
X121338113Y-68458926D01*
X121338108Y-68458920D01*
X121171082Y-68291894D01*
X120990197Y-68165236D01*
X120946572Y-68110659D01*
X120939380Y-68041160D01*
X120970902Y-67978806D01*
X121002300Y-67954608D01*
X121045576Y-67931189D01*
X121223240Y-67792906D01*
X121375722Y-67627268D01*
X121498860Y-67438791D01*
X121589296Y-67232616D01*
X121644564Y-67014368D01*
X121644565Y-67014359D01*
X121663156Y-66790005D01*
X121663156Y-66789994D01*
X121644565Y-66565640D01*
X121644563Y-66565628D01*
X121641876Y-66555018D01*
X121589296Y-66347384D01*
X121498860Y-66141209D01*
X121495989Y-66136815D01*
X121375723Y-65952734D01*
X121375715Y-65952723D01*
X121230510Y-65794991D01*
X121199587Y-65732337D01*
X121207447Y-65662911D01*
X121251594Y-65608755D01*
X121278405Y-65594827D01*
X121358584Y-65564920D01*
X121396204Y-65550889D01*
X121513261Y-65463261D01*
X121600889Y-65346204D01*
X121651989Y-65209201D01*
X121655591Y-65175692D01*
X121658499Y-65148654D01*
X121658500Y-65148637D01*
X121658500Y-65000002D01*
X136686641Y-65000002D01*
X136706063Y-65358234D01*
X136737647Y-65550888D01*
X136762447Y-65702163D01*
X136764106Y-65712279D01*
X136764107Y-65712282D01*
X136860082Y-66057955D01*
X136860083Y-66057957D01*
X136992872Y-66391233D01*
X136992877Y-66391243D01*
X137085336Y-66565640D01*
X137160928Y-66708220D01*
X137160929Y-66708223D01*
X137362256Y-67005157D01*
X137362264Y-67005167D01*
X137594508Y-67278586D01*
X137594516Y-67278595D01*
X137854977Y-67525317D01*
X138140586Y-67742431D01*
X138447995Y-67927393D01*
X138447997Y-67927394D01*
X138447999Y-67927395D01*
X138448003Y-67927397D01*
X138687808Y-68038342D01*
X138773599Y-68078033D01*
X139113583Y-68192587D01*
X139463958Y-68269711D01*
X139820618Y-68308500D01*
X139820624Y-68308500D01*
X140179376Y-68308500D01*
X140179382Y-68308500D01*
X140536042Y-68269711D01*
X140886417Y-68192587D01*
X141226401Y-68078033D01*
X141552005Y-67927393D01*
X141859414Y-67742431D01*
X142145023Y-67525317D01*
X142405484Y-67278595D01*
X142637742Y-67005159D01*
X142783620Y-66790005D01*
X142839070Y-66708223D01*
X142839070Y-66708221D01*
X142839075Y-66708215D01*
X143007123Y-66391243D01*
X143139915Y-66057961D01*
X143235895Y-65712274D01*
X143293936Y-65358237D01*
X143313359Y-65000000D01*
X143293936Y-64641763D01*
X143235895Y-64287726D01*
X143192673Y-64132057D01*
X143139917Y-63942044D01*
X143139916Y-63942042D01*
X143007127Y-63608766D01*
X143007118Y-63608748D01*
X142839075Y-63291785D01*
X142839071Y-63291779D01*
X142839070Y-63291776D01*
X142637743Y-62994842D01*
X142637735Y-62994832D01*
X142405491Y-62721413D01*
X142405486Y-62721407D01*
X142405484Y-62721405D01*
X142145023Y-62474683D01*
X142145016Y-62474677D01*
X142145013Y-62474675D01*
X142077266Y-62423175D01*
X141859414Y-62257569D01*
X141552005Y-62072607D01*
X141552004Y-62072606D01*
X141552000Y-62072604D01*
X141551996Y-62072602D01*
X141226411Y-61921971D01*
X141226406Y-61921969D01*
X141226401Y-61921967D01*
X141060678Y-61866128D01*
X140886416Y-61807412D01*
X140536040Y-61730288D01*
X140179383Y-61691500D01*
X140179382Y-61691500D01*
X139820618Y-61691500D01*
X139820616Y-61691500D01*
X139463959Y-61730288D01*
X139113583Y-61807412D01*
X138850768Y-61895965D01*
X138773599Y-61921967D01*
X138773596Y-61921968D01*
X138773588Y-61921971D01*
X138448003Y-62072602D01*
X138447999Y-62072604D01*
X138219061Y-62210351D01*
X138140586Y-62257569D01*
X138052060Y-62324864D01*
X137854986Y-62474675D01*
X137854977Y-62474683D01*
X137594513Y-62721407D01*
X137594508Y-62721413D01*
X137362264Y-62994832D01*
X137362256Y-62994842D01*
X137160929Y-63291776D01*
X137160928Y-63291779D01*
X136992881Y-63608748D01*
X136992872Y-63608766D01*
X136860083Y-63942042D01*
X136860082Y-63942044D01*
X136764107Y-64287717D01*
X136764106Y-64287720D01*
X136706063Y-64641765D01*
X136686641Y-64999997D01*
X136686641Y-65000002D01*
X121658500Y-65000002D01*
X121658500Y-63351362D01*
X121658499Y-63351345D01*
X121655157Y-63320270D01*
X121651989Y-63290799D01*
X121600889Y-63153796D01*
X121513261Y-63036739D01*
X121396204Y-62949111D01*
X121259203Y-62898011D01*
X121198654Y-62891500D01*
X121198638Y-62891500D01*
X119401362Y-62891500D01*
X119401345Y-62891500D01*
X119340797Y-62898011D01*
X119340795Y-62898011D01*
X119203795Y-62949111D01*
X119086739Y-63036739D01*
X118999111Y-63153795D01*
X118948011Y-63290795D01*
X118948011Y-63290797D01*
X118941500Y-63351345D01*
X118941500Y-65148654D01*
X118948011Y-65209202D01*
X118948011Y-65209204D01*
X118999111Y-65346204D01*
X119086739Y-65463261D01*
X119203796Y-65550889D01*
X119255737Y-65570262D01*
X119321595Y-65594827D01*
X119377528Y-65636699D01*
X119401944Y-65702163D01*
X119387092Y-65770436D01*
X119369490Y-65794991D01*
X119224279Y-65952730D01*
X119224276Y-65952734D01*
X119101140Y-66141207D01*
X119010703Y-66347385D01*
X118955436Y-66565628D01*
X118955434Y-66565640D01*
X118936844Y-66789994D01*
X118936844Y-66790005D01*
X118955435Y-67014364D01*
X118983461Y-67125036D01*
X118980836Y-67194856D01*
X118950936Y-67243157D01*
X117160707Y-69033386D01*
X117099384Y-69066871D01*
X117029692Y-69061887D01*
X116973759Y-69020015D01*
X116953251Y-68977798D01*
X116923433Y-68866516D01*
X116923429Y-68866507D01*
X116823600Y-68652422D01*
X116823599Y-68652420D01*
X116688113Y-68458926D01*
X116688108Y-68458920D01*
X116521082Y-68291894D01*
X116340197Y-68165236D01*
X116296572Y-68110659D01*
X116289380Y-68041160D01*
X116320902Y-67978806D01*
X116352300Y-67954608D01*
X116395576Y-67931189D01*
X116573240Y-67792906D01*
X116725722Y-67627268D01*
X116848860Y-67438791D01*
X116939296Y-67232616D01*
X116994564Y-67014368D01*
X116994565Y-67014359D01*
X117013156Y-66790005D01*
X117013156Y-66789994D01*
X116994565Y-66565640D01*
X116994563Y-66565628D01*
X116991876Y-66555018D01*
X116939296Y-66347384D01*
X116848860Y-66141209D01*
X116845989Y-66136815D01*
X116725723Y-65952734D01*
X116725715Y-65952723D01*
X116580510Y-65794991D01*
X116549587Y-65732337D01*
X116557447Y-65662911D01*
X116601594Y-65608755D01*
X116628405Y-65594827D01*
X116708584Y-65564920D01*
X116746204Y-65550889D01*
X116863261Y-65463261D01*
X116950889Y-65346204D01*
X117001989Y-65209201D01*
X117005591Y-65175692D01*
X117008499Y-65148654D01*
X117008500Y-65148637D01*
X117008500Y-63351362D01*
X117008499Y-63351345D01*
X117005157Y-63320270D01*
X117001989Y-63290799D01*
X116950889Y-63153796D01*
X116863261Y-63036739D01*
X116746204Y-62949111D01*
X116609203Y-62898011D01*
X116548654Y-62891500D01*
X116548638Y-62891500D01*
X114751362Y-62891500D01*
X114751345Y-62891500D01*
X114690797Y-62898011D01*
X114690795Y-62898011D01*
X114553795Y-62949111D01*
X114436739Y-63036739D01*
X114349111Y-63153795D01*
X114298011Y-63290795D01*
X114298011Y-63290797D01*
X114291500Y-63351345D01*
X114291500Y-65148654D01*
X114298011Y-65209202D01*
X114298011Y-65209204D01*
X114349111Y-65346204D01*
X114436739Y-65463261D01*
X114553796Y-65550889D01*
X114605737Y-65570262D01*
X114671595Y-65594827D01*
X114727528Y-65636699D01*
X114751944Y-65702163D01*
X114737092Y-65770436D01*
X114719490Y-65794991D01*
X114574279Y-65952730D01*
X114574276Y-65952734D01*
X114451140Y-66141207D01*
X114360703Y-66347385D01*
X114305436Y-66565628D01*
X114305434Y-66565640D01*
X114286844Y-66789994D01*
X114286844Y-66790005D01*
X114305435Y-67014364D01*
X114333461Y-67125036D01*
X114330836Y-67194856D01*
X114300936Y-67243157D01*
X114058912Y-67485182D01*
X113997592Y-67518666D01*
X113971233Y-67521500D01*
X112352376Y-67521500D01*
X112285337Y-67501815D01*
X112239582Y-67449011D01*
X112229638Y-67379853D01*
X112238820Y-67347690D01*
X112289296Y-67232616D01*
X112344564Y-67014368D01*
X112344565Y-67014359D01*
X112363156Y-66790005D01*
X112363156Y-66789994D01*
X112344565Y-66565640D01*
X112344563Y-66565628D01*
X112341876Y-66555018D01*
X112289296Y-66347384D01*
X112198860Y-66141209D01*
X112195989Y-66136815D01*
X112075723Y-65952734D01*
X112075715Y-65952723D01*
X111930510Y-65794991D01*
X111899587Y-65732337D01*
X111907447Y-65662911D01*
X111951594Y-65608755D01*
X111978405Y-65594827D01*
X112058584Y-65564920D01*
X112096204Y-65550889D01*
X112213261Y-65463261D01*
X112300889Y-65346204D01*
X112351989Y-65209201D01*
X112355591Y-65175692D01*
X112358499Y-65148654D01*
X112358500Y-65148637D01*
X112358500Y-63351362D01*
X112358499Y-63351345D01*
X112355157Y-63320270D01*
X112351989Y-63290799D01*
X112300889Y-63153796D01*
X112213261Y-63036739D01*
X112096204Y-62949111D01*
X111959203Y-62898011D01*
X111898654Y-62891500D01*
X111898638Y-62891500D01*
X110101362Y-62891500D01*
X110101345Y-62891500D01*
X110040797Y-62898011D01*
X110040795Y-62898011D01*
X109903795Y-62949111D01*
X109786739Y-63036739D01*
X109699111Y-63153795D01*
X109648011Y-63290795D01*
X109648011Y-63290797D01*
X109641500Y-63351345D01*
X109641500Y-65148654D01*
X109648011Y-65209202D01*
X109648011Y-65209204D01*
X109699111Y-65346204D01*
X109786739Y-65463261D01*
X109903796Y-65550889D01*
X109955737Y-65570262D01*
X110021595Y-65594827D01*
X110077528Y-65636699D01*
X110101944Y-65702163D01*
X110087092Y-65770436D01*
X110069490Y-65794991D01*
X109924279Y-65952730D01*
X109924276Y-65952734D01*
X109827852Y-66100322D01*
X109774706Y-66145679D01*
X109724044Y-66156500D01*
X108275675Y-66156500D01*
X108208636Y-66136815D01*
X108162881Y-66084011D01*
X108152937Y-66014853D01*
X108156195Y-65999326D01*
X108169134Y-65952723D01*
X108235895Y-65712274D01*
X108293936Y-65358237D01*
X108313359Y-65000000D01*
X108293936Y-64641763D01*
X108235895Y-64287726D01*
X108192673Y-64132057D01*
X108139917Y-63942044D01*
X108139916Y-63942042D01*
X108007127Y-63608766D01*
X108007118Y-63608748D01*
X107839075Y-63291785D01*
X107839071Y-63291779D01*
X107839070Y-63291776D01*
X107637743Y-62994842D01*
X107637735Y-62994832D01*
X107405491Y-62721413D01*
X107405486Y-62721407D01*
X107405484Y-62721405D01*
X107145023Y-62474683D01*
X107145016Y-62474677D01*
X107145013Y-62474675D01*
X107077266Y-62423175D01*
X106859414Y-62257569D01*
X106552005Y-62072607D01*
X106552004Y-62072606D01*
X106552000Y-62072604D01*
X106551996Y-62072602D01*
X106226411Y-61921971D01*
X106226406Y-61921969D01*
X106226401Y-61921967D01*
X106060678Y-61866128D01*
X105886416Y-61807412D01*
X105536040Y-61730288D01*
X105179383Y-61691500D01*
X105179382Y-61691500D01*
X104820618Y-61691500D01*
X104820616Y-61691500D01*
X104463959Y-61730288D01*
X104113583Y-61807412D01*
X103850768Y-61895965D01*
X103773599Y-61921967D01*
X103773596Y-61921968D01*
X103773588Y-61921971D01*
X103448003Y-62072602D01*
X103447999Y-62072604D01*
X103219061Y-62210351D01*
X103140586Y-62257569D01*
X103052060Y-62324864D01*
X102854986Y-62474675D01*
X102854977Y-62474683D01*
X102594513Y-62721407D01*
X102594508Y-62721413D01*
X102362264Y-62994832D01*
X102362256Y-62994842D01*
X102160929Y-63291776D01*
X102160928Y-63291779D01*
X101992881Y-63608748D01*
X101992872Y-63608766D01*
X101860083Y-63942042D01*
X101860082Y-63942044D01*
X101764107Y-64287717D01*
X101764106Y-64287720D01*
X101706063Y-64641765D01*
X101686641Y-64999997D01*
X101686641Y-65000002D01*
X101706063Y-65358234D01*
X101737647Y-65550888D01*
X101762447Y-65702163D01*
X101764106Y-65712279D01*
X101764107Y-65712282D01*
X101860082Y-66057955D01*
X101860083Y-66057957D01*
X101992872Y-66391233D01*
X101992877Y-66391243D01*
X102085336Y-66565640D01*
X102160928Y-66708220D01*
X102160929Y-66708223D01*
X102362256Y-67005157D01*
X102362264Y-67005167D01*
X102594508Y-67278586D01*
X102594516Y-67278595D01*
X102854977Y-67525317D01*
X103140586Y-67742431D01*
X103447995Y-67927393D01*
X103447997Y-67927394D01*
X103447999Y-67927395D01*
X103448003Y-67927397D01*
X103687808Y-68038342D01*
X103773599Y-68078033D01*
X104113583Y-68192587D01*
X104463958Y-68269711D01*
X104820618Y-68308500D01*
X104820624Y-68308500D01*
X105179376Y-68308500D01*
X105179382Y-68308500D01*
X105240164Y-68301889D01*
X105308937Y-68314209D01*
X105360133Y-68361757D01*
X105377496Y-68429434D01*
X105355514Y-68495756D01*
X105341251Y-68512843D01*
X102548914Y-71305181D01*
X102487591Y-71338666D01*
X102461233Y-71341500D01*
X102404513Y-71341500D01*
X102217714Y-71381205D01*
X102043246Y-71458883D01*
X101888745Y-71571135D01*
X101760959Y-71713057D01*
X101665473Y-71878443D01*
X101665470Y-71878450D01*
X101606459Y-72060068D01*
X101606458Y-72060072D01*
X101586496Y-72250000D01*
X88025500Y-72250000D01*
X88025500Y-60149500D01*
X88045185Y-60082461D01*
X88097989Y-60036706D01*
X88149500Y-60025500D01*
X143850500Y-60025500D01*
X143917539Y-60045185D01*
G37*
%TD.AperFunction*%
%TD*%
%TA.AperFunction,Conductor*%
%TO.N,GNDPWR*%
G36*
X143917539Y-70083185D02*
G01*
X143963294Y-70135989D01*
X143974500Y-70187500D01*
X143974500Y-96642617D01*
X143954815Y-96709656D01*
X143902011Y-96755411D01*
X143849705Y-96766614D01*
X140114834Y-96742672D01*
X140047922Y-96722559D01*
X140002507Y-96669462D01*
X139993007Y-96600242D01*
X140012139Y-96550369D01*
X140068501Y-96464985D01*
X140153998Y-96264957D01*
X140202404Y-96052877D01*
X140212163Y-95835562D01*
X140182963Y-95619996D01*
X140115741Y-95413109D01*
X140012659Y-95221550D01*
X139942415Y-95133467D01*
X139877030Y-95051477D01*
X139713213Y-94908353D01*
X139612815Y-94848368D01*
X139526468Y-94796778D01*
X139508654Y-94790092D01*
X139452807Y-94748107D01*
X139428524Y-94682593D01*
X139443516Y-94614350D01*
X139493022Y-94565046D01*
X139552226Y-94550000D01*
X139747828Y-94550000D01*
X139747844Y-94549999D01*
X139807372Y-94543598D01*
X139807379Y-94543596D01*
X139942086Y-94493354D01*
X139942093Y-94493350D01*
X140057187Y-94407190D01*
X140057190Y-94407187D01*
X140143350Y-94292093D01*
X140143354Y-94292086D01*
X140193596Y-94157379D01*
X140193598Y-94157372D01*
X140199999Y-94097844D01*
X140200000Y-94097827D01*
X140200000Y-93600000D01*
X139233686Y-93600000D01*
X139259493Y-93559844D01*
X139300000Y-93421889D01*
X139300000Y-93278111D01*
X139259493Y-93140156D01*
X139233686Y-93100000D01*
X140200000Y-93100000D01*
X140200000Y-92602172D01*
X140199999Y-92602155D01*
X140193598Y-92542627D01*
X140193596Y-92542620D01*
X140143354Y-92407913D01*
X140143350Y-92407906D01*
X140057190Y-92292812D01*
X140057187Y-92292809D01*
X139942093Y-92206649D01*
X139942086Y-92206645D01*
X139807379Y-92156403D01*
X139807372Y-92156401D01*
X139747844Y-92150000D01*
X139050000Y-92150000D01*
X139050000Y-92914498D01*
X138942315Y-92865320D01*
X138835763Y-92850000D01*
X138764237Y-92850000D01*
X138657685Y-92865320D01*
X138550000Y-92914498D01*
X138550000Y-92150000D01*
X137852155Y-92150000D01*
X137792627Y-92156401D01*
X137792620Y-92156403D01*
X137657913Y-92206645D01*
X137657906Y-92206649D01*
X137542812Y-92292809D01*
X137542809Y-92292812D01*
X137456649Y-92407906D01*
X137456645Y-92407913D01*
X137406403Y-92542620D01*
X137406401Y-92542627D01*
X137400000Y-92602155D01*
X137400000Y-93100000D01*
X138366314Y-93100000D01*
X138340507Y-93140156D01*
X138300000Y-93278111D01*
X138300000Y-93421889D01*
X138340507Y-93559844D01*
X138366314Y-93600000D01*
X137400000Y-93600000D01*
X137400000Y-94097844D01*
X137406401Y-94157372D01*
X137406403Y-94157379D01*
X137456645Y-94292086D01*
X137456649Y-94292093D01*
X137542809Y-94407187D01*
X137542812Y-94407190D01*
X137657906Y-94493350D01*
X137657913Y-94493354D01*
X137792620Y-94543596D01*
X137792627Y-94543598D01*
X137852155Y-94549999D01*
X137852172Y-94550000D01*
X138053951Y-94550000D01*
X138120990Y-94569685D01*
X138166745Y-94622489D01*
X138176689Y-94691647D01*
X138147664Y-94755203D01*
X138107752Y-94785720D01*
X137977659Y-94848368D01*
X137977649Y-94848374D01*
X137801672Y-94976229D01*
X137801664Y-94976235D01*
X137651338Y-95133464D01*
X137531498Y-95315016D01*
X137531495Y-95315022D01*
X137446004Y-95515035D01*
X137446000Y-95515048D01*
X137397596Y-95727119D01*
X137397596Y-95727123D01*
X137387837Y-95944438D01*
X137417037Y-96160004D01*
X137451138Y-96264957D01*
X137484260Y-96366893D01*
X137484260Y-96366895D01*
X137579003Y-96542957D01*
X137593437Y-96611319D01*
X137568619Y-96676633D01*
X137512430Y-96718161D01*
X137469014Y-96725713D01*
X131990149Y-96690593D01*
X131923237Y-96670480D01*
X131877822Y-96617383D01*
X131866946Y-96565923D01*
X131876604Y-94785720D01*
X131946401Y-81919705D01*
X131970649Y-77450000D01*
X136486496Y-77450000D01*
X136506458Y-77639928D01*
X136506459Y-77639931D01*
X136565470Y-77821549D01*
X136565473Y-77821556D01*
X136658569Y-77982804D01*
X136660960Y-77986944D01*
X136734649Y-78068784D01*
X136764880Y-78131775D01*
X136766500Y-78151756D01*
X136766500Y-85870234D01*
X136749887Y-85932234D01*
X136665473Y-86078443D01*
X136665470Y-86078450D01*
X136606459Y-86260068D01*
X136606458Y-86260072D01*
X136586496Y-86450000D01*
X136606458Y-86639928D01*
X136606459Y-86639931D01*
X136665470Y-86821549D01*
X136665473Y-86821556D01*
X136760960Y-86986944D01*
X136888747Y-87128866D01*
X137043248Y-87241118D01*
X137217712Y-87318794D01*
X137404513Y-87358500D01*
X137595487Y-87358500D01*
X137782288Y-87318794D01*
X137956752Y-87241118D01*
X138111253Y-87128866D01*
X138239040Y-86986944D01*
X138334527Y-86821556D01*
X138393542Y-86639928D01*
X138413504Y-86450000D01*
X138393542Y-86260072D01*
X138334527Y-86078444D01*
X138239040Y-85913056D01*
X138111253Y-85771134D01*
X138111245Y-85771127D01*
X138084614Y-85751778D01*
X138041948Y-85696448D01*
X138033500Y-85651461D01*
X138033500Y-81450000D01*
X138636496Y-81450000D01*
X138656458Y-81639928D01*
X138656459Y-81639931D01*
X138715470Y-81821549D01*
X138715473Y-81821556D01*
X138810960Y-81986944D01*
X138938747Y-82128866D01*
X139093248Y-82241118D01*
X139267712Y-82318794D01*
X139454513Y-82358500D01*
X139645487Y-82358500D01*
X139832288Y-82318794D01*
X140006752Y-82241118D01*
X140161253Y-82128866D01*
X140289040Y-81986944D01*
X140384527Y-81821556D01*
X140443542Y-81639928D01*
X140463504Y-81450000D01*
X140443542Y-81260072D01*
X140384527Y-81078444D01*
X140318568Y-80964200D01*
X140289041Y-80913057D01*
X140289036Y-80913050D01*
X140215350Y-80831213D01*
X140185120Y-80768221D01*
X140183500Y-80748241D01*
X140183500Y-78263766D01*
X140203185Y-78196727D01*
X140219819Y-78176085D01*
X141251086Y-77144819D01*
X141312409Y-77111334D01*
X141338767Y-77108500D01*
X141395487Y-77108500D01*
X141582288Y-77068794D01*
X141756752Y-76991118D01*
X141911253Y-76878866D01*
X142039040Y-76736944D01*
X142134527Y-76571556D01*
X142193542Y-76389928D01*
X142213504Y-76200000D01*
X142193542Y-76010072D01*
X142134527Y-75828444D01*
X142039040Y-75663056D01*
X141911253Y-75521134D01*
X141756752Y-75408882D01*
X141582288Y-75331206D01*
X141582286Y-75331205D01*
X141395487Y-75291500D01*
X141204513Y-75291500D01*
X141017714Y-75331205D01*
X140843246Y-75408883D01*
X140688745Y-75521135D01*
X140560959Y-75663057D01*
X140465473Y-75828443D01*
X140465470Y-75828450D01*
X140406459Y-76010068D01*
X140406458Y-76010072D01*
X140391117Y-76156035D01*
X140389019Y-76175995D01*
X140362434Y-76240609D01*
X140353379Y-76250714D01*
X139161179Y-77442914D01*
X139148820Y-77452818D01*
X139148993Y-77453027D01*
X139142983Y-77457999D01*
X139095015Y-77509079D01*
X139073872Y-77530222D01*
X139073857Y-77530239D01*
X139069531Y-77535814D01*
X139065747Y-77540244D01*
X139033419Y-77574671D01*
X139033412Y-77574681D01*
X139023579Y-77592567D01*
X139012903Y-77608820D01*
X139000386Y-77624957D01*
X139000385Y-77624959D01*
X138981625Y-77668310D01*
X138979055Y-77673556D01*
X138956303Y-77714941D01*
X138956303Y-77714942D01*
X138951225Y-77734720D01*
X138944925Y-77753122D01*
X138936818Y-77771857D01*
X138929431Y-77818495D01*
X138928246Y-77824216D01*
X138916500Y-77869965D01*
X138916500Y-77890384D01*
X138914972Y-77909783D01*
X138911780Y-77929943D01*
X138914767Y-77961544D01*
X138916225Y-77976966D01*
X138916500Y-77982804D01*
X138916500Y-80748241D01*
X138896815Y-80815280D01*
X138884650Y-80831213D01*
X138810963Y-80913050D01*
X138810958Y-80913057D01*
X138715473Y-81078443D01*
X138715470Y-81078450D01*
X138656459Y-81260068D01*
X138656458Y-81260072D01*
X138636496Y-81450000D01*
X138033500Y-81450000D01*
X138033500Y-78151756D01*
X138053185Y-78084717D01*
X138065346Y-78068788D01*
X138139040Y-77986944D01*
X138234527Y-77821556D01*
X138293542Y-77639928D01*
X138313504Y-77450000D01*
X138293542Y-77260072D01*
X138234527Y-77078444D01*
X138139040Y-76913056D01*
X138011253Y-76771134D01*
X137856752Y-76658882D01*
X137682288Y-76581206D01*
X137682286Y-76581205D01*
X137495487Y-76541500D01*
X137304513Y-76541500D01*
X137117714Y-76581205D01*
X136943246Y-76658883D01*
X136788745Y-76771135D01*
X136660959Y-76913057D01*
X136565473Y-77078443D01*
X136565470Y-77078450D01*
X136506459Y-77260068D01*
X136506458Y-77260072D01*
X136486496Y-77450000D01*
X131970649Y-77450000D01*
X132010051Y-70186827D01*
X132030099Y-70119896D01*
X132083150Y-70074428D01*
X132134049Y-70063500D01*
X143850500Y-70063500D01*
X143917539Y-70083185D01*
G37*
%TD.AperFunction*%
%TD*%
M02*
