%TF.GenerationSoftware,KiCad,Pcbnew,7.0.9*%
%TF.CreationDate,2024-10-15T17:16:27-06:00*%
%TF.ProjectId,i2c_mux,6932635f-6d75-4782-9e6b-696361645f70,rev?*%
%TF.SameCoordinates,Original*%
%TF.FileFunction,Paste,Top*%
%TF.FilePolarity,Positive*%
%FSLAX46Y46*%
G04 Gerber Fmt 4.6, Leading zero omitted, Abs format (unit mm)*
G04 Created by KiCad (PCBNEW 7.0.9) date 2024-10-15 17:16:27*
%MOMM*%
%LPD*%
G01*
G04 APERTURE LIST*
G04 Aperture macros list*
%AMRoundRect*
0 Rectangle with rounded corners*
0 $1 Rounding radius*
0 $2 $3 $4 $5 $6 $7 $8 $9 X,Y pos of 4 corners*
0 Add a 4 corners polygon primitive as box body*
4,1,4,$2,$3,$4,$5,$6,$7,$8,$9,$2,$3,0*
0 Add four circle primitives for the rounded corners*
1,1,$1+$1,$2,$3*
1,1,$1+$1,$4,$5*
1,1,$1+$1,$6,$7*
1,1,$1+$1,$8,$9*
0 Add four rect primitives between the rounded corners*
20,1,$1+$1,$2,$3,$4,$5,0*
20,1,$1+$1,$4,$5,$6,$7,0*
20,1,$1+$1,$6,$7,$8,$9,0*
20,1,$1+$1,$8,$9,$2,$3,0*%
G04 Aperture macros list end*
%ADD10RoundRect,0.237500X-0.237500X0.287500X-0.237500X-0.287500X0.237500X-0.287500X0.237500X0.287500X0*%
%ADD11RoundRect,0.150000X-0.625000X0.150000X-0.625000X-0.150000X0.625000X-0.150000X0.625000X0.150000X0*%
%ADD12RoundRect,0.250000X-0.650000X0.350000X-0.650000X-0.350000X0.650000X-0.350000X0.650000X0.350000X0*%
%ADD13RoundRect,0.150000X0.625000X-0.150000X0.625000X0.150000X-0.625000X0.150000X-0.625000X-0.150000X0*%
%ADD14RoundRect,0.250000X0.650000X-0.350000X0.650000X0.350000X-0.650000X0.350000X-0.650000X-0.350000X0*%
%ADD15RoundRect,0.250001X-0.462499X-0.624999X0.462499X-0.624999X0.462499X0.624999X-0.462499X0.624999X0*%
%ADD16RoundRect,0.250001X0.624999X-0.462499X0.624999X0.462499X-0.624999X0.462499X-0.624999X-0.462499X0*%
%ADD17RoundRect,0.250000X0.925000X-0.412500X0.925000X0.412500X-0.925000X0.412500X-0.925000X-0.412500X0*%
%ADD18RoundRect,0.250001X0.462499X1.074999X-0.462499X1.074999X-0.462499X-1.074999X0.462499X-1.074999X0*%
%ADD19R,0.900000X0.800000*%
%ADD20RoundRect,0.237500X0.237500X-0.287500X0.237500X0.287500X-0.237500X0.287500X-0.237500X-0.287500X0*%
%ADD21R,0.650000X1.060000*%
%ADD22RoundRect,0.237500X0.287500X0.237500X-0.287500X0.237500X-0.287500X-0.237500X0.287500X-0.237500X0*%
%ADD23RoundRect,0.237500X-0.287500X-0.237500X0.287500X-0.237500X0.287500X0.237500X-0.287500X0.237500X0*%
%ADD24RoundRect,0.135000X-0.135000X-0.185000X0.135000X-0.185000X0.135000X0.185000X-0.135000X0.185000X0*%
%ADD25RoundRect,0.135000X0.135000X0.185000X-0.135000X0.185000X-0.135000X-0.185000X0.135000X-0.185000X0*%
%ADD26RoundRect,0.135000X-0.185000X0.135000X-0.185000X-0.135000X0.185000X-0.135000X0.185000X0.135000X0*%
%ADD27RoundRect,0.135000X0.185000X-0.135000X0.185000X0.135000X-0.185000X0.135000X-0.185000X-0.135000X0*%
%ADD28RoundRect,0.150000X0.825000X0.150000X-0.825000X0.150000X-0.825000X-0.150000X0.825000X-0.150000X0*%
%ADD29RoundRect,0.100000X-0.637500X-0.100000X0.637500X-0.100000X0.637500X0.100000X-0.637500X0.100000X0*%
G04 APERTURE END LIST*
D10*
%TO.C,C1*%
X108500000Y-72525000D03*
X108500000Y-74275000D03*
%TD*%
D11*
%TO.C,J2*%
X93100000Y-89242857D03*
X93100000Y-90242857D03*
X93100000Y-91242857D03*
X93100000Y-92242857D03*
D12*
X89225000Y-87942857D03*
X89225000Y-93542857D03*
%TD*%
D11*
%TO.C,J4*%
X93100000Y-80300000D03*
X93100000Y-81300000D03*
X93100000Y-82300000D03*
X93100000Y-83300000D03*
D12*
X89225000Y-79000000D03*
X89225000Y-84600000D03*
%TD*%
D11*
%TO.C,J6*%
X93100000Y-71357143D03*
X93100000Y-72357143D03*
X93100000Y-73357143D03*
X93100000Y-74357143D03*
D12*
X89225000Y-70057143D03*
X89225000Y-75657143D03*
%TD*%
D11*
%TO.C,J8*%
X93100000Y-62414286D03*
X93100000Y-63414286D03*
X93100000Y-64414286D03*
X93100000Y-65414286D03*
D12*
X89225000Y-61114286D03*
X89225000Y-66714286D03*
%TD*%
D13*
%TO.C,J10*%
X139100000Y-78450000D03*
X139100000Y-77450000D03*
X139100000Y-76450000D03*
X139100000Y-75450000D03*
D14*
X142975000Y-79750000D03*
X142975000Y-74150000D03*
%TD*%
D15*
%TO.C,C2*%
X133112500Y-91950000D03*
X136087500Y-91950000D03*
%TD*%
D16*
%TO.C,C3*%
X135700000Y-101437500D03*
X135700000Y-98462500D03*
%TD*%
D10*
%TO.C,C4*%
X133500000Y-98475000D03*
X133500000Y-100225000D03*
%TD*%
D17*
%TO.C,C6*%
X128400000Y-97287500D03*
X128400000Y-94212500D03*
%TD*%
D10*
%TO.C,C8*%
X119500000Y-98975000D03*
X119500000Y-100725000D03*
%TD*%
D18*
%TO.C,L1*%
X135887500Y-95450000D03*
X132912500Y-95450000D03*
%TD*%
D19*
%TO.C,Q1*%
X125800000Y-99400000D03*
X125800000Y-101300000D03*
X127800000Y-100350000D03*
%TD*%
D20*
%TO.C,R21*%
X129800000Y-101225000D03*
X129800000Y-99475000D03*
%TD*%
D21*
%TO.C,U2*%
X121460000Y-101160000D03*
X122410000Y-101160000D03*
X123360000Y-101160000D03*
X123360000Y-98960000D03*
X121460000Y-98960000D03*
%TD*%
D22*
%TO.C,C7*%
X123375000Y-103050000D03*
X121625000Y-103050000D03*
%TD*%
D23*
%TO.C,C9*%
X133825000Y-79650000D03*
X135575000Y-79650000D03*
%TD*%
%TO.C,C11*%
X127625000Y-79650000D03*
X129375000Y-79650000D03*
%TD*%
D13*
%TO.C,J9*%
X139200000Y-87450000D03*
X139200000Y-86450000D03*
X139200000Y-85450000D03*
X139200000Y-84450000D03*
D14*
X143075000Y-88750000D03*
X143075000Y-83150000D03*
%TD*%
D10*
%TO.C,C5*%
X131600000Y-98450000D03*
X131600000Y-100200000D03*
%TD*%
D24*
%TO.C,R18*%
X116080000Y-76400000D03*
X117100000Y-76400000D03*
%TD*%
D25*
%TO.C,R19*%
X137120000Y-72950000D03*
X136100000Y-72950000D03*
%TD*%
D26*
%TO.C,R14*%
X95500000Y-74600000D03*
X95500000Y-75620000D03*
%TD*%
D27*
%TO.C,R12*%
X96300000Y-73610000D03*
X96300000Y-72590000D03*
%TD*%
D11*
%TO.C,J3*%
X93100000Y-116071428D03*
X93100000Y-117071428D03*
X93100000Y-118071428D03*
X93100000Y-119071428D03*
D12*
X89225000Y-114771428D03*
X89225000Y-120371428D03*
%TD*%
D28*
%TO.C,U3*%
X134075000Y-77755000D03*
X134075000Y-76485000D03*
X134075000Y-75215000D03*
X134075000Y-73945000D03*
X129125000Y-73945000D03*
X129125000Y-75215000D03*
X129125000Y-76485000D03*
X129125000Y-77755000D03*
%TD*%
D24*
%TO.C,R2*%
X95290000Y-128200000D03*
X96310000Y-128200000D03*
%TD*%
D26*
%TO.C,R11*%
X96100000Y-99090000D03*
X96100000Y-100110000D03*
%TD*%
D11*
%TO.C,J1*%
X93100000Y-125014286D03*
X93100000Y-126014286D03*
X93100000Y-127014286D03*
X93100000Y-128014286D03*
D12*
X89225000Y-123714286D03*
X89225000Y-129314286D03*
%TD*%
D26*
%TO.C,R20*%
X136100000Y-76430000D03*
X136100000Y-77450000D03*
%TD*%
D24*
%TO.C,R16*%
X96590000Y-64900000D03*
X97610000Y-64900000D03*
%TD*%
%TO.C,R17*%
X116080000Y-77700000D03*
X117100000Y-77700000D03*
%TD*%
D26*
%TO.C,R8*%
X95800000Y-83280000D03*
X95800000Y-84300000D03*
%TD*%
D27*
%TO.C,R5*%
X96400000Y-115910000D03*
X96400000Y-114890000D03*
%TD*%
%TO.C,R10*%
X96400000Y-82210000D03*
X96400000Y-81190000D03*
%TD*%
D24*
%TO.C,R4*%
X98380000Y-91700000D03*
X99400000Y-91700000D03*
%TD*%
D29*
%TO.C,U1*%
X102537500Y-75825000D03*
X102537500Y-76475000D03*
X102537500Y-77125000D03*
X102537500Y-77775000D03*
X102537500Y-78425000D03*
X102537500Y-79075000D03*
X102537500Y-79725000D03*
X102537500Y-80375000D03*
X102537500Y-81025000D03*
X102537500Y-81675000D03*
X102537500Y-82325000D03*
X102537500Y-82975000D03*
X108262500Y-82975000D03*
X108262500Y-82325000D03*
X108262500Y-81675000D03*
X108262500Y-81025000D03*
X108262500Y-80375000D03*
X108262500Y-79725000D03*
X108262500Y-79075000D03*
X108262500Y-78425000D03*
X108262500Y-77775000D03*
X108262500Y-77125000D03*
X108262500Y-76475000D03*
X108262500Y-75825000D03*
%TD*%
D26*
%TO.C,R3*%
X96500000Y-119080000D03*
X96500000Y-120100000D03*
%TD*%
%TO.C,R7*%
X95600000Y-110180000D03*
X95600000Y-111200000D03*
%TD*%
D27*
%TO.C,R9*%
X96400000Y-106810000D03*
X96400000Y-105790000D03*
%TD*%
D24*
%TO.C,R1*%
X95290000Y-129400000D03*
X96310000Y-129400000D03*
%TD*%
D27*
%TO.C,R13*%
X96600000Y-97210000D03*
X96600000Y-96190000D03*
%TD*%
D24*
%TO.C,R6*%
X98390000Y-90500000D03*
X99410000Y-90500000D03*
%TD*%
D11*
%TO.C,J5*%
X93100000Y-107128571D03*
X93100000Y-108128571D03*
X93100000Y-109128571D03*
X93100000Y-110128571D03*
D12*
X89225000Y-105828571D03*
X89225000Y-111428571D03*
%TD*%
D26*
%TO.C,R15*%
X96000000Y-67290000D03*
X96000000Y-68310000D03*
%TD*%
D11*
%TO.C,J7*%
X93100000Y-98185714D03*
X93100000Y-99185714D03*
X93100000Y-100185714D03*
X93100000Y-101185714D03*
D12*
X89225000Y-96885714D03*
X89225000Y-102485714D03*
%TD*%
M02*
